<?xml version="1.0" encoding="utf-8"?>
<!-- Generator: Adobe Illustrator 16.0.0, SVG Export Plug-In . SVG Version: 6.00 Build 0)  -->
<!DOCTYPE svg PUBLIC "-//W3C//DTD SVG 1.1//EN" "http://www.w3.org/Graphics/SVG/1.1/DTD/svg11.dtd">
<svg version="1.1" xmlns="http://www.w3.org/2000/svg" xmlns:xlink="http://www.w3.org/1999/xlink" x="0px" y="0px"
	 width="115.89648px" height="116.10938px" viewBox="0 0 115.89648 116.10938" enable-background="new 0 0 115.89648 116.10938"
	 xml:space="preserve">
<g id="Layer_1">
</g>
<g id="social_market">
	<g>
		<g>
			<path fill="#405F8A" d="M97.75391,15.69092C92.93945,10.854,88.10938,6.03125,83.29297,1.19482
				C82.92383,0.82324,82.60547,0.39941,82.26367,0C66.15039,0,50.03809,0,33.92578,0
				c-4.92676,4.96045-9.8418,9.93115-14.78223,14.87793c-0.75293,0.75391-1.50879,1.50488-2.2627,2.25879
				c-5.625,5.62354-11.25781,11.23779-16.88867,16.85596c0,16.14062,0,32.28174,0,48.42236
				c0.43555,0.38135,0.89648,0.73779,1.30469,1.14648c10.44043,10.44922,20.875,20.90479,31.31445,31.35645
				c0.41211,0.41211,0.85352,0.79492,1.28125,1.19141c10.00098-0.01709,20.00293-0.04004,30.00488-0.04932
				c6.11816-0.00488,12.23535,0.01221,18.35449,0.01953c5.60254-5.58789,11.21387-11.16748,16.80566-16.76562
				c0.125-0.125,0.25098-0.25,0.37598-0.375c5.49121-5.49902,10.96094-11.01953,16.43848-16.53027
				c0.01074-16.15234,0.02148-32.30469,0.03223-48.45703C109.85547,27.86377,103.80957,21.77246,97.75391,15.69092z"/>
			<path fill="#FFFFFF" d="M73.67383,35.11572c-1.22754-0.1709-2.4541-0.35303-3.68164-0.53027c-2.24316,0-4.4873,0-6.73047,0
				c-0.66797,0.42139-1.44434,0.20605-2.16016,0.31494c-5.16504,0.7832-9.90527,2.52344-14.08398,5.73047
				c-4.58398,3.51855-7.69727,8.05029-9.6377,13.46436c-1.0498,2.93066-1.76465,5.91016-1.92773,9.01953
				c-0.00684,0.14111,0.02344,0.30078-0.17676,0.34229c0,1.53516,0,3.07031,0,4.60547
				c0.17773,0.9375,0.3252,1.88184,0.53711,2.81201c0.63672,2.78223,1.80469,5.30371,3.86133,7.32812
				c1.78027,1.75293,3.92188,2.82764,6.41797,3.15918c0.06152,0.0083,0.11035,0.10596,0.16602,0.16211
				c1.47559,0,2.95215,0,4.42773,0c0.6123-0.17676,1.2207-0.37109,1.83789-0.52637c2.20898-0.55469,4.08496-1.69482,5.83105-3.1333
				c1.9043-1.56836,3.2002-3.59619,4.51074-5.62305c0.15332-0.23682,0.24023-0.61084,0.55957-0.52881
				c0.2998,0.07666,0.21973,0.45752,0.18359,0.70166c-0.24512,1.66113-0.22559,3.3457-0.49023,5.00977
				c-0.13965,0.88086-0.03906,1.80322-0.20703,2.69727c-0.06445,0.34082,0.02637,0.52832,0.45312,0.52588
				c3.60059-0.01611,7.20215-0.01367,10.80273-0.00195c0.36328,0.00098,0.44434-0.13623,0.43652-0.46533
				c-0.01855-0.7373-0.0127-1.47559-0.00488-2.21338c0.03711-3.2334,0.37402-6.44238,0.67578-9.65967
				c0.31934-3.39014,0.92285-6.72998,1.4668-10.08105c0.51367-3.16455,1.17773-6.30518,1.74316-9.46191
				c0.55566-3.10449,1.0498-6.2207,1.61816-9.32275c0.15625-0.85205,0.15332-1.7417,0.51758-2.55273c0-0.05908,0-0.11816,0-0.17725
				C78.34863,35.98633,76.03613,35.44434,73.67383,35.11572z M66.65918,45.51807c-0.87305,4.22754-1.50293,8.50391-2.5127,12.70459
				c-0.86621,3.60352-2.18555,7.0332-4.50879,9.94824c-1.27051,1.59473-2.76855,3.03271-4.89355,3.55225
				c-1.6084,0.39355-3.6416-0.38281-4.60254-1.7207c-1.02051-1.42139-1.42969-2.99707-1.59668-4.71191
				c-0.56738-5.83252,1.26367-10.97461,4.56445-15.63623c1.56445-2.20801,3.61328-3.97314,6.20703-4.96045
				c1.08301-0.41211,2.20703-0.66699,3.44238-0.51514c1.0918-0.21094,2.18262,0.18311,3.29492,0.34277
				C66.56543,44.59521,66.80273,44.82227,66.65918,45.51807z"/>
			<linearGradient id="SVGID_1_" gradientUnits="userSpaceOnUse" x1="-14.05273" y1="49.65723" x2="129.94714" y2="49.65723">
				<stop  offset="0" style="stop-color:#FFFFFF"/>
				<stop  offset="1" style="stop-color:#000000"/>
			</linearGradient>
			<path opacity="0.2" fill="url(#SVGID_1_)" d="M115.87207,82.40869c0.01074-16.15234,0.02148-32.30469,0.03223-48.45703
				c-6.04883-6.08789-12.09473-12.1792-18.15039-18.26074C92.93945,10.854,88.10938,6.03125,83.29297,1.19482
				C82.92383,0.82324,82.60547,0.39941,82.26367,0C66.15039,0,50.03809,0,33.92578,0
				c-4.92676,4.96045-9.8418,9.93115-14.78223,14.87793c-0.75293,0.75391-1.50879,1.50488-2.2627,2.25879l82.17676,82.17725
				c0.125-0.125,0.25098-0.25,0.37598-0.375C104.9248,93.43994,110.39453,87.91943,115.87207,82.40869z"/>
		</g>
	</g>
</g>
<g id="set2">
</g>
<g id="Layer_5">
</g>
<g id="Layer_6">
</g>
<g id="Twitter_Logo_Silhouette_designed_by_Elegant_Themes_from_Flaticon.com">
</g>
</svg>
