<?xml version="1.0" encoding="utf-8"?>
<!-- Generator: Adobe Illustrator 16.0.0, SVG Export Plug-In . SVG Version: 6.00 Build 0)  -->
<!DOCTYPE svg PUBLIC "-//W3C//DTD SVG 1.1//EN" "http://www.w3.org/Graphics/SVG/1.1/DTD/svg11.dtd">
<svg version="1.1" xmlns="http://www.w3.org/2000/svg" xmlns:xlink="http://www.w3.org/1999/xlink" x="0px" y="0px"
	 width="115.89648px" height="116.35938px" viewBox="0 0 115.89648 116.35938" enable-background="new 0 0 115.89648 116.35938"
	 xml:space="preserve">
<g id="Layer_1">
</g>
<g id="social_market">
	<g>
		<g>
			<path fill="#00276E" d="M97.75391,15.69092C92.93945,10.854,88.10938,6.03125,83.29297,1.19482
				C82.92383,0.82324,82.60547,0.39941,82.26367,0C66.15039,0,50.03809,0,33.92578,0
				c-4.92676,4.96045-9.8418,9.93115-14.78223,14.87793c-0.75293,0.75391-1.50879,1.50488-2.2627,2.25879
				c-5.625,5.62354-11.25781,11.23779-16.88867,16.85596c0,16.14062,0,32.28174,0,48.42236
				c0.43555,0.38135,0.89648,0.73779,1.30469,1.14648c10.44043,10.44922,20.875,20.90479,31.31445,31.35645
				c0.41211,0.41211,0.85352,0.79492,1.28125,1.19141c10.00098-0.01709,20.00293-0.04004,30.00488-0.04932
				c6.11816-0.00488,12.23535,0.01221,18.35449,0.01953c5.60254-5.58789,11.21387-11.16748,16.80566-16.76562
				c0.125-0.125,0.25098-0.25,0.37598-0.375c5.49121-5.49902,10.96094-11.01953,16.43848-16.53027
				c0.01074-16.15234,0.02148-32.30469,0.03223-48.45703C109.85547,27.86377,103.80957,21.77246,97.75391,15.69092z"/>
			<path fill="#FFFFFF" d="M33.25,63.94482c-1.61426-1.45654-2.38184-3.73291-2.40918-5.90283
				c0.02734-2.14404,0.79492-4.42041,2.40918-5.87549c1.08496-0.95264,2.67285-1.64111,4.15527-1.74707
				c0.97949-0.05322,1.85254,0.05322,2.62012,0.26514c1.87891,0.50244,3.17578,1.66699,4.31348,2.54053l4.68457-4.55225
				c-0.4502-0.79395-1.74609-1.90527-2.46094-2.46094c-3.62598-2.7793-8.78711-3.3877-13.2334-2.14404
				c-0.71387,0.18555-1.37598,0.4502-2.03711,0.74121c-3.33496,1.45557-5.39941,3.57227-7.04004,6.74854
				c-1.74805,3.36084-1.74805,9.63281,0,12.99512c1.64062,3.17432,3.70508,5.29199,7.04004,6.74854
				c0.66113,0.29053,1.32324,0.52881,2.03711,0.74023c4.44629,1.24414,9.60742,0.63574,13.2334-2.14355
				c0.71484-0.58105,2.01074-1.6665,2.46094-2.46094l-4.68457-4.55322c-1.1377,0.875-2.43457,2.03857-4.31348,2.54248
				c-0.76758,0.21191-1.64062,0.31689-2.62012,0.26367C35.92285,65.58398,34.33496,64.87061,33.25,63.94482L33.25,63.94482z
				 M74.27246,47.82666c-1.00684-1.93213-2.56738-3.17627-4.3418-3.81152c-3.99609-1.45557-9.07715,0.10547-11.69727,3.5459
				v-3.57227h-8.01855v27.97412h8.01855v-4.65771V55.31543c0-2.56689,2.09082-4.68359,4.6582-4.68359
				c2.56641,0,4.68359,2.1167,4.68359,4.68359v11.98975v4.68359h8.01953v-4.73682V55.2627
				c0-2.56689,2.11719-4.68457,4.68457-4.68457c2.56641,0,4.65723,2.11768,4.65723,4.68457v11.98926v4.73682h8.01953V53.56934
				v-0.05225c0-5.58447-2.9375-8.52246-6.5625-9.50195c-3.65234-0.97949-8.01953,0.05322-10.79883,2.43457
				C75.0918,46.87354,74.66797,47.32324,74.27246,47.82666L74.27246,47.82666z"/>
			<linearGradient id="SVGID_1_" gradientUnits="userSpaceOnUse" x1="-14.05273" y1="49.65723" x2="129.94714" y2="49.65723">
				<stop  offset="0" style="stop-color:#FFFFFF"/>
				<stop  offset="1" style="stop-color:#000000"/>
			</linearGradient>
			<path opacity="0.2" fill="url(#SVGID_1_)" d="M115.87207,82.40869c0.01074-16.15234,0.02148-32.30469,0.03223-48.45703
				c-6.04883-6.08789-12.09473-12.1792-18.15039-18.26074C92.93945,10.854,88.10938,6.03125,83.29297,1.19482
				C82.92383,0.82324,82.60547,0.39941,82.26367,0C66.15039,0,50.03809,0,33.92578,0
				c-4.92676,4.96045-9.8418,9.93115-14.78223,14.87793c-0.75293,0.75391-1.50879,1.50488-2.2627,2.25879l82.17676,82.17725
				c0.125-0.125,0.25098-0.25,0.37598-0.375C104.9248,93.43994,110.39453,87.91943,115.87207,82.40869z"/>
		</g>
	</g>
</g>
<g id="set2">
</g>
<g id="Layer_5">
</g>
<g id="Layer_6">
</g>
<g id="Twitter_Logo_Silhouette_designed_by_Elegant_Themes_from_Flaticon.com">
</g>
</svg>
