<?xml version="1.0" encoding="utf-8"?>
<!-- Generator: Adobe Illustrator 16.0.0, SVG Export Plug-In . SVG Version: 6.00 Build 0)  -->
<!DOCTYPE svg PUBLIC "-//W3C//DTD SVG 1.1//EN" "http://www.w3.org/Graphics/SVG/1.1/DTD/svg11.dtd">
<svg version="1.1" xmlns="http://www.w3.org/2000/svg" xmlns:xlink="http://www.w3.org/1999/xlink" x="0px" y="0px"
	 width="115.89648px" height="116.10938px" viewBox="0 0 115.89648 116.10938" enable-background="new 0 0 115.89648 116.10938"
	 xml:space="preserve">
<g id="Layer_1">
</g>
<g id="social_market">
	<g>
		<g>
			<path fill="#FB497B" d="M97.75391,15.94092C92.93945,11.104,88.10938,6.28125,83.29297,1.44482
				c-0.36914-0.37158-0.6875-0.79541-1.0293-1.19482c-16.11328,0-32.22559,0-48.33789,0
				c-4.92676,4.96045-9.8418,9.93115-14.78223,14.87793c-0.75293,0.75391-1.50879,1.50488-2.2627,2.25879
				c-5.625,5.62354-11.25781,11.23779-16.88867,16.85596c0,16.14062,0,32.28174,0,48.42236
				c0.43555,0.38135,0.89648,0.73779,1.30469,1.14648c10.44043,10.44922,20.875,20.90479,31.31445,31.35645
				c0.41211,0.41211,0.85352,0.79492,1.28125,1.19141c10.00098-0.01709,20.00293-0.04004,30.00488-0.04932
				c6.11816-0.00488,12.23535,0.01221,18.35449,0.01953c5.60254-5.58789,11.21387-11.16748,16.80566-16.76562
				c0.125-0.125,0.25098-0.25,0.37598-0.375c5.49121-5.49902,10.96094-11.01953,16.43848-16.53027
				c0.01074-16.15234,0.02148-32.30469,0.03223-48.45703C109.85547,28.11377,103.80957,22.02246,97.75391,15.94092z"/>
			<linearGradient id="SVGID_1_" gradientUnits="userSpaceOnUse" x1="-14.05273" y1="49.90674" x2="129.94714" y2="49.90674">
				<stop  offset="0" style="stop-color:#FFFFFF"/>
				<stop  offset="1" style="stop-color:#000000"/>
			</linearGradient>
			<path opacity="0.2" fill="url(#SVGID_1_)" d="M115.87207,82.65869c0.01074-16.15234,0.02148-32.30469,0.03223-48.45703
				c-6.04883-6.08789-12.09473-12.1792-18.15039-18.26074C92.93945,11.104,88.10938,6.28125,83.29297,1.44482
				c-0.36914-0.37158-0.6875-0.79541-1.0293-1.19482c-16.11328,0-32.22559,0-48.33789,0
				c-4.92676,4.96045-9.8418,9.93115-14.78223,14.87793c-0.75293,0.75391-1.50879,1.50488-2.2627,2.25879l82.17676,82.17725
				c0.125-0.125,0.25098-0.25,0.37598-0.375C104.9248,93.68994,110.39453,88.16943,115.87207,82.65869z"/>
		</g>
		<g>
			<path fill="#FFFFFF" d="M86.24414,60.27393c-0.36035,1.01221-0.9375,2.0498-1.6875,2.80713
				c-7.2793,7.36475-14.60547,14.68213-21.93945,21.98584c-2.68945,2.67236-6.85938,2.66504-9.55273-0.01123
				C45.72754,77.75,38.41016,70.42871,31.10645,63.08838c-2.68164-2.69092-2.69336-6.85791-0.0166-9.54932
				c7.30371-7.33691,14.62305-14.65674,21.95898-21.96436c2.61523-2.604,6.73633-2.7373,9.34766-0.21533
				c3.41309,3.29053,6.71191,6.69482,10.06445,10.05225c-4.98242,4.97412-9.92578,9.90479-14.9043,14.86133
				c-2.11523-2.10742-4.27832-4.26611-6.43945-6.42969c-2.72852-2.73096-5.68945-2.73486-8.41406-0.01562
				c-1.29395,1.29443-2.59375,2.58057-3.88086,3.8833c-2.25488,2.28174-2.27734,5.42871-0.0166,7.70215
				c4.96973,4.99756,9.95312,9.99121,14.94336,14.97217c2.33496,2.33057,5.46777,2.31543,7.82129-0.03809
				c7.38965-7.3833,14.76953-14.771,22.14941-22.15869c0.23145-0.23047,0.42285-0.51025,0.61328-0.75
				C86.21777,54.76855,87.11328,57.82715,86.24414,60.27393z M57.72656,61.26465c-0.125-0.00732-0.25391-0.01904-0.38281-0.03223
				c-0.18555-0.27344-0.33789-0.58105-0.56543-0.80859c-2.80957-2.83154-5.62988-5.65918-8.4541-8.47559
				c-1.01367-1.0127-2.04785-1.0166-3.05957-0.01904c-1.36621,1.34619-2.72168,2.71338-4.07715,4.07275
				c-1.06836,1.07764-1.08008,2.06055-0.02148,3.11963c4.93555,4.95264,9.875,9.90234,14.81641,14.84521
				c1.01953,1.02148,2.05273,1.03271,3.06641,0.021c8.99902-8.99561,17.99219-17.99316,26.97949-26.99756
				c0.9873-0.98779,0.97168-1.98438-0.01758-2.98779c-1.28027-1.30615-2.58301-2.59668-3.87598-3.8916
				c-1.3418-1.34277-2.22266-1.34277-3.57031,0.0083c-6.75,6.74658-13.48828,13.49414-20.23145,20.24951
				C58.08594,60.62354,57.92676,60.97021,57.72656,61.26465z"/>
		</g>
	</g>
</g>
<g id="set2">
</g>
<g id="Layer_5">
</g>
<g id="Layer_6">
</g>
<g id="Twitter_Logo_Silhouette_designed_by_Elegant_Themes_from_Flaticon.com">
</g>
</svg>
