<?xml version="1.0" encoding="utf-8"?>
<!-- Generator: Adobe Illustrator 16.0.0, SVG Export Plug-In . SVG Version: 6.00 Build 0)  -->
<!DOCTYPE svg PUBLIC "-//W3C//DTD SVG 1.1//EN" "http://www.w3.org/Graphics/SVG/1.1/DTD/svg11.dtd">
<svg version="1.1" xmlns="http://www.w3.org/2000/svg" xmlns:xlink="http://www.w3.org/1999/xlink" x="0px" y="0px"
	 width="115.89648px" height="116.10938px" viewBox="0 0 115.89648 116.10938" enable-background="new 0 0 115.89648 116.10938"
	 xml:space="preserve">
<g id="Layer_1">
</g>
<g id="social_market">
	<g>
		<g>
			<path fill="#D53C23" d="M97.75391,15.69092C92.93945,10.854,88.10938,6.03125,83.29297,1.19482
				C82.92383,0.82324,82.60547,0.39941,82.26367,0C66.15039,0,50.03809,0,33.92578,0
				c-4.92676,4.96045-9.8418,9.93115-14.78223,14.87793c-0.75293,0.75391-1.50879,1.50488-2.2627,2.25879
				c-5.625,5.62354-11.25781,11.23779-16.88867,16.85596c0,16.14062,0,32.28174,0,48.42236
				c0.43555,0.38135,0.89648,0.73779,1.30469,1.14648c10.44043,10.44922,20.875,20.90479,31.31445,31.35645
				c0.41211,0.41211,0.85352,0.79492,1.28125,1.19141c10.00098-0.01709,20.00293-0.04004,30.00488-0.04932
				c6.11816-0.00488,12.23535,0.01221,18.35449,0.01953c5.60254-5.58789,11.21387-11.16748,16.80566-16.76562
				c0.125-0.125,0.25098-0.25,0.37598-0.375c5.49121-5.49902,10.96094-11.01953,16.43848-16.53027
				c0.01074-16.15234,0.02148-32.30469,0.03223-48.45703C109.85547,27.86377,103.80957,21.77246,97.75391,15.69092z"/>
			<linearGradient id="SVGID_1_" gradientUnits="userSpaceOnUse" x1="-14.05273" y1="49.65674" x2="129.94714" y2="49.65674">
				<stop  offset="0" style="stop-color:#FFFFFF"/>
				<stop  offset="1" style="stop-color:#000000"/>
			</linearGradient>
			<path opacity="0.2" fill="url(#SVGID_1_)" d="M115.87207,82.40869c0.01074-16.15234,0.02148-32.30469,0.03223-48.45703
				c-6.04883-6.08789-12.09473-12.1792-18.15039-18.26074C92.93945,10.854,88.10938,6.03125,83.29297,1.19482
				C82.92383,0.82324,82.60547,0.39941,82.26367,0C66.15039,0,50.03809,0,33.92578,0
				c-4.92676,4.96045-9.8418,9.93115-14.78223,14.87793c-0.75293,0.75391-1.50879,1.50488-2.2627,2.25879l82.17676,82.17725
				c0.125-0.125,0.25098-0.25,0.37598-0.375C104.9248,93.43994,110.39453,87.91943,115.87207,82.40869z"/>
		</g>
		<g>
			<g>
				<g>
					<path fill="#FFFFFF" d="M66.7793,37.43066H53.03418c-6.15918,0-11.95801,4.66943-11.95801,10.07715
						c0,5.52588,4.2002,9.98828,10.4707,9.98828l1.27441-0.03955c-0.40723,0.77783-0.69922,1.65479-0.69922,2.56738
						c0,1.53662,0.82715,2.78125,1.87109,3.7959l-2.38379,0.02588c-7.63379-0.00293-13.50781,4.86328-13.50781,9.8999
						c0,4.96777,6.44238,8.0708,14.07324,8.0708c8.7002,0,13.50781-4.93848,13.50781-9.90283
						c0-3.97949-1.17578-6.3667-4.80762-8.93457c-1.24023-0.87988-3.61816-3.01709-3.61816-4.2749
						c0-1.47412,0.41992-2.2002,2.63965-3.93359c2.27246-1.77637,3.88184-4.2749,3.88184-7.17773
						c0-3.45703-1.54004-6.8291-4.43262-7.93896h4.35742L66.7793,37.43066z M61.98242,71.05957
						c0.1084,0.45996,0.16699,0.9292,0.16699,1.41846c0,4.01562-2.58398,7.14795-10.00098,7.14795
						c-5.27734,0-9.08594-3.33887-9.08594-7.35107c0-3.93066,4.72559-7.20068,10.00195-7.14844
						c1.23145,0.0166,2.38086,0.21045,3.4209,0.54834C59.34863,67.66162,61.4043,68.7876,61.98242,71.05957z M53.53418,56.09375
						c-3.54297-0.10498-6.9082-3.96289-7.51953-8.6123c-0.61035-4.65283,1.7627-8.21191,5.30273-8.10693
						c3.54004,0.10547,6.9082,3.83887,7.51855,8.48828C59.4502,52.51514,57.07324,56.19922,53.53418,56.09375z"/>
					<polygon fill="#FFFFFF" points="80.78613,47.17285 80.78613,37.43066 77.50293,37.43066 77.50293,47.17285 67.65234,47.17285 
						67.65234,50.45605 77.50293,50.45605 77.50293,60.41504 80.78613,60.41504 80.78613,50.45605 90.63672,50.45605 
						90.63672,47.17285 					"/>
				</g>
			</g>
		</g>
	</g>
</g>
<g id="set2">
</g>
<g id="Layer_5">
</g>
<g id="Layer_6">
</g>
<g id="Twitter_Logo_Silhouette_designed_by_Elegant_Themes_from_Flaticon.com">
</g>
</svg>
