<?xml version="1.0" encoding="utf-8"?>
<!-- Generator: Adobe Illustrator 16.0.0, SVG Export Plug-In . SVG Version: 6.00 Build 0)  -->
<!DOCTYPE svg PUBLIC "-//W3C//DTD SVG 1.1//EN" "http://www.w3.org/Graphics/SVG/1.1/DTD/svg11.dtd">
<svg version="1.1" xmlns="http://www.w3.org/2000/svg" xmlns:xlink="http://www.w3.org/1999/xlink" x="0px" y="0px"
	 width="115.89648px" height="116.10938px" viewBox="0 0 115.89648 116.10938" enable-background="new 0 0 115.89648 116.10938"
	 xml:space="preserve">
<g id="Layer_1">
</g>
<g id="social_market">
	<g>
		<g>
			<path fill="#5784B6" d="M97.80371,15.69092C92.98926,10.854,88.15918,6.03125,83.34277,1.19482
				C82.97363,0.82324,82.65527,0.39941,82.31348,0C66.2002,0,50.08789,0,33.97559,0
				c-4.92676,4.96045-9.8418,9.93115-14.78223,14.87793c-0.75293,0.75391-1.50879,1.50488-2.2627,2.25879
				c-5.625,5.62354-11.25781,11.23779-16.88867,16.85596c0,16.14062,0,32.28174,0,48.42236
				c0.43555,0.38135,0.89648,0.73779,1.30469,1.14648c10.44043,10.44922,20.875,20.90479,31.31445,31.35645
				c0.41211,0.41211,0.85352,0.79492,1.28125,1.19141c10.00098-0.01709,20.00293-0.04004,30.00488-0.04932
				c6.11816-0.00488,12.23535,0.01221,18.35449,0.01953c5.60254-5.58789,11.21387-11.16748,16.80566-16.76562
				c0.125-0.125,0.25098-0.25,0.37598-0.375c5.49121-5.49902,10.96094-11.01953,16.43848-16.53027
				c0.01074-16.15234,0.02148-32.30469,0.03223-48.45703C109.90527,27.86377,103.85938,21.77246,97.80371,15.69092z"/>
			<linearGradient id="SVGID_1_" gradientUnits="userSpaceOnUse" x1="-14.00293" y1="49.65674" x2="129.99695" y2="49.65674">
				<stop  offset="0" style="stop-color:#FFFFFF"/>
				<stop  offset="1" style="stop-color:#000000"/>
			</linearGradient>
			<path opacity="0.2" fill="url(#SVGID_1_)" d="M115.92188,82.40869c0.01074-16.15234,0.02148-32.30469,0.03223-48.45703
				c-6.04883-6.08789-12.09473-12.1792-18.15039-18.26074C92.98926,10.854,88.15918,6.03125,83.34277,1.19482
				C82.97363,0.82324,82.65527,0.39941,82.31348,0C66.2002,0,50.08789,0,33.97559,0
				c-4.92676,4.96045-9.8418,9.93115-14.78223,14.87793c-0.75293,0.75391-1.50879,1.50488-2.2627,2.25879l82.17676,82.17725
				c0.125-0.125,0.25098-0.25,0.37598-0.375C104.97461,93.43994,110.44434,87.91943,115.92188,82.40869z"/>
		</g>
		<g>
			<path fill="#FFFFFF" d="M76.35938,34.62988H41.92773c-3.53809,0-6.41797,2.87891-6.41797,6.41748V75.479
				c0,3.53857,2.87988,6.41748,6.41797,6.41748h34.43164c3.53809,0,6.41797-2.87891,6.41797-6.41748V41.04736
				C82.77734,37.50879,79.89746,34.62988,76.35938,34.62988z M59.14355,69.81006c-5.82812,0-10.57031-4.7417-10.57031-10.5708
				c0-5.82861,4.74219-10.57031,10.57031-10.57031s10.57031,4.7417,10.57031,10.57031
				C69.71387,65.06836,64.97168,69.81006,59.14355,69.81006z M78.77441,51.43652h-9.5498
				c-2.41113-2.88623-6.03516-4.72559-10.08105-4.72559s-7.66992,1.83936-10.08105,4.72559h-9.5498V42.2583
				c0-2.33252,1.89746-4.23047,4.22949-4.23047h30.80273c2.33203,0,4.22949,1.89795,4.22949,4.23047V51.43652L78.77441,51.43652z"/>
			<path fill="#FFFFFF" d="M59.14355,52.44385c-3.74707,0-6.7959,3.04883-6.7959,6.79541c0,3.74707,3.04883,6.79541,6.7959,6.79541
				s6.7959-3.04834,6.7959-6.79541C65.93945,55.49268,62.89062,52.44385,59.14355,52.44385z"/>
			<path fill="#FFFFFF" d="M73.56543,40.74023h-4.08984c-0.93457,0-1.69434,0.76074-1.69434,1.69531v4.08984
				c0,0.93506,0.75977,1.69531,1.69434,1.69531h4.08984c0.93555,0,1.69629-0.75977,1.69629-1.69531v-4.08984
				C75.26172,41.50098,74.50098,40.74023,73.56543,40.74023z"/>
		</g>
	</g>
</g>
<g id="set2">
</g>
<g id="Layer_5">
</g>
<g id="Layer_6">
</g>
<g id="Twitter_Logo_Silhouette_designed_by_Elegant_Themes_from_Flaticon.com">
</g>
</svg>
