<?xml version="1.0" encoding="utf-8"?>
<!-- Generator: Adobe Illustrator 16.0.0, SVG Export Plug-In . SVG Version: 6.00 Build 0)  -->
<!DOCTYPE svg PUBLIC "-//W3C//DTD SVG 1.1//EN" "http://www.w3.org/Graphics/SVG/1.1/DTD/svg11.dtd">
<svg version="1.1" xmlns="http://www.w3.org/2000/svg" xmlns:xlink="http://www.w3.org/1999/xlink" x="0px" y="0px"
	 width="115.89648px" height="116.10938px" viewBox="0 0 115.89648 116.10938" enable-background="new 0 0 115.89648 116.10938"
	 xml:space="preserve">
<g id="Layer_1">
</g>
<g id="social_market">
	<g>
		<g>
			<path fill="#45A7DD" d="M97.75391,15.69092C92.93945,10.854,88.10938,6.03125,83.29297,1.19482
				C82.92383,0.82324,82.60547,0.39941,82.26367,0C66.15039,0,50.03809,0,33.92578,0
				c-4.92676,4.96045-9.8418,9.93115-14.78223,14.87793c-0.75293,0.75391-1.50879,1.50488-2.2627,2.25879
				c-5.625,5.62354-11.25781,11.23779-16.88867,16.85596c0,16.14062,0,32.28174,0,48.42236
				c0.43555,0.38135,0.89648,0.73779,1.30469,1.14648c10.44043,10.44922,20.875,20.90479,31.31445,31.35645
				c0.41211,0.41211,0.85352,0.79492,1.28125,1.19141c10.00098-0.01709,20.00293-0.04004,30.00488-0.04932
				c6.11816-0.00488,12.23535,0.01221,18.35449,0.01953c5.60254-5.58789,11.21387-11.16748,16.80566-16.76562
				c0.125-0.125,0.25098-0.25,0.37598-0.375c5.49121-5.49902,10.96094-11.01953,16.43848-16.53027
				c0.01074-16.15234,0.02148-32.30469,0.03223-48.45703C109.85547,27.86377,103.80957,21.77246,97.75391,15.69092z"/>
			<linearGradient id="SVGID_1_" gradientUnits="userSpaceOnUse" x1="-14.05273" y1="49.65674" x2="129.94714" y2="49.65674">
				<stop  offset="0" style="stop-color:#FFFFFF"/>
				<stop  offset="1" style="stop-color:#000000"/>
			</linearGradient>
			<path opacity="0.2" fill="url(#SVGID_1_)" d="M115.87207,82.40869c0.01074-16.15234,0.02148-32.30469,0.03223-48.45703
				c-6.04883-6.08789-12.09473-12.1792-18.15039-18.26074C92.93945,10.854,88.10938,6.03125,83.29297,1.19482
				C82.92383,0.82324,82.60547,0.39941,82.26367,0C66.15039,0,50.03809,0,33.92578,0
				c-4.92676,4.96045-9.8418,9.93115-14.78223,14.87793c-0.75293,0.75391-1.50879,1.50488-2.2627,2.25879l82.17676,82.17725
				c0.125-0.125,0.25098-0.25,0.37598-0.375C104.9248,93.43994,110.39453,87.91943,115.87207,82.40869z"/>
		</g>
		<g>
			<path id="LinkedIn_3_" fill="#FFFFFF" d="M82.49707,58.23633v16.99756h-9.86035V59.3667c0-3.98926-1.42188-6.7002-4.98926-6.7002
				c-2.72852,0-4.33789,1.83545-5.05664,3.60205c-0.25879,0.63623-0.33789,1.52734-0.33789,2.40674v16.55664h-9.84961
				c0,0,0.13184-26.86328,0-29.64551h9.85254v4.20166c-0.01367,0.03467-0.04297,0.06348-0.05566,0.10156h0.05566v-0.10156
				c1.31543-2.01953,3.64746-4.89746,8.88477-4.89746C77.63965,44.89062,82.49707,49.12744,82.49707,58.23633z M42.08887,31.29248
				c-3.37109,0-5.57812,2.21094-5.57812,5.12744c0,2.83789,2.14258,5.12354,5.45117,5.12354h0.05957
				c3.44531,0,5.5791-2.28564,5.5791-5.12354C47.53418,33.50342,45.4668,31.29248,42.08887,31.29248z M37.09863,75.23389h9.85449
				V45.58447h-9.85449V75.23389z"/>
		</g>
	</g>
</g>
<g id="set2">
</g>
<g id="Layer_5">
</g>
<g id="Layer_6">
</g>
<g id="Twitter_Logo_Silhouette_designed_by_Elegant_Themes_from_Flaticon.com">
</g>
</svg>
