<?xml version="1.0" encoding="utf-8"?>
<!-- Generator: Adobe Illustrator 16.0.0, SVG Export Plug-In . SVG Version: 6.00 Build 0)  -->
<!DOCTYPE svg PUBLIC "-//W3C//DTD SVG 1.1//EN" "http://www.w3.org/Graphics/SVG/1.1/DTD/svg11.dtd">
<svg version="1.1" xmlns="http://www.w3.org/2000/svg" xmlns:xlink="http://www.w3.org/1999/xlink" x="0px" y="0px"
	 width="115.89648px" height="116.10938px" viewBox="0 0 115.89648 116.10938" enable-background="new 0 0 115.89648 116.10938"
	 xml:space="preserve">
<g id="Layer_1">
</g>
<g id="social_market">
	<g>
		<g>
			<path fill="#F50527" d="M97.75391,15.69092C92.93945,10.854,88.10938,6.03125,83.29297,1.19482
				C82.92383,0.82324,82.60547,0.39941,82.26367,0C66.15039,0,50.03809,0,33.92578,0
				c-4.92676,4.96045-9.8418,9.93115-14.78223,14.87793c-0.75293,0.75391-1.50879,1.50488-2.2627,2.25879
				c-5.625,5.62354-11.25781,11.23779-16.88867,16.85596c0,16.14062,0,32.28174,0,48.42236
				c0.43555,0.38135,0.89648,0.73779,1.30469,1.14648c10.44043,10.44922,20.875,20.90479,31.31445,31.35645
				c0.41211,0.41211,0.85352,0.79492,1.28125,1.19141c10.00098-0.01709,20.00293-0.04004,30.00488-0.04932
				c6.11816-0.00488,12.23535,0.01221,18.35449,0.01953c5.60254-5.58789,11.21387-11.16748,16.80566-16.76562
				c0.125-0.125,0.25098-0.25,0.37598-0.375c5.49121-5.49902,10.96094-11.01953,16.43848-16.53027
				c0.01074-16.15234,0.02148-32.30469,0.03223-48.45703C109.85547,27.86377,103.80957,21.77246,97.75391,15.69092z"/>
			<path fill="#FFFFFF" d="M72.92676,38.41504c-0.41797-1.43018-1.63281-3.22266-2.90527-3.68018
				c-2.08203-0.74854-4.50391-0.67773-6.79004-0.65967c-0.80859,0.00586-2.06445,0.68311-2.35254,1.37451
				c-1.59375,3.82129-3.19336,7.66992-4.32715,11.63965c-1.19727,4.19385-1.86328,8.53564-2.83789,13.12305
				c-0.4375-0.73535-0.78516-1.26123-1.0791-1.81836c-2.16309-4.1416-4.30273-8.28809-6.46875-12.42188
				c-2.18066-4.1582-3.40332-4.77637-8.08984-4.00342c-1.16504,0.18848-2.35254,0.46533-3.42383,0.94678
				c-0.53418,0.24219-1.15137,1.01465-1.16895,1.56494c-0.33594,9.58154-0.7002,19.15576,0.7627,28.70215
				c1.00977,6.62158,2.23828,7.47656,8.56543,5.05469c0.31738-0.12354,0.60547-0.30176,0.9209-0.43506
				c1.42969-0.60156,2.08105-1.56494,1.82422-3.20166c-0.45508-2.82812-0.77246-5.6792-1.13965-8.521
				c0.13184-0.00977,0.2666-0.02148,0.39844-0.03125c1.90723,3.10107,3.875,6.16504,5.70703,9.31055
				c1.50098,2.56104,3.25684,4.23438,6.54199,3.25586c1.27441-0.38135,2.74707-0.12207,4.01758-0.51074
				c0.88379-0.26904,1.91113-0.98877,2.29785-1.78564c0.53223-1.10254,0.66406-2.46045,0.73535-3.72168
				c0.30762-5.33545,0.51855-10.68213,0.79883-16.01904c0.04492-0.98291,0.24023-1.9585,0.39844-3.13965
				c2.86328,9.15967,5.6582,17.93604,8.32227,26.75488c0.46387,1.54004,0.99023,2.17627,2.63086,1.69287
				c2.27051-0.66553,4.57715-1.19727,6.44922-1.67529c-2.05859-9.08008-4.02734-17.9126-6.06641-26.73682
				C75.49219,48.43652,74.36426,43.37695,72.92676,38.41504z"/>
			<linearGradient id="SVGID_1_" gradientUnits="userSpaceOnUse" x1="-14.05273" y1="49.65674" x2="129.94714" y2="49.65674">
				<stop  offset="0" style="stop-color:#FFFFFF"/>
				<stop  offset="1" style="stop-color:#000000"/>
			</linearGradient>
			<path opacity="0.2" fill="url(#SVGID_1_)" d="M115.87207,82.40869c0.01074-16.15234,0.02148-32.30469,0.03223-48.45703
				c-6.04883-6.08789-12.09473-12.1792-18.15039-18.26074C92.93945,10.854,88.10938,6.03125,83.29297,1.19482
				C82.92383,0.82324,82.60547,0.39941,82.26367,0C66.15039,0,50.03809,0,33.92578,0
				c-4.92676,4.96045-9.8418,9.93115-14.78223,14.87793c-0.75293,0.75391-1.50879,1.50488-2.2627,2.25879l82.17676,82.17725
				c0.125-0.125,0.25098-0.25,0.37598-0.375C104.9248,93.43994,110.39453,87.91943,115.87207,82.40869z"/>
		</g>
	</g>
</g>
<g id="set2">
</g>
<g id="Layer_5">
</g>
<g id="Layer_6">
</g>
<g id="Twitter_Logo_Silhouette_designed_by_Elegant_Themes_from_Flaticon.com">
</g>
</svg>
