<?xml version="1.0" encoding="utf-8"?>
<!-- Generator: Adobe Illustrator 16.0.0, SVG Export Plug-In . SVG Version: 6.00 Build 0)  -->
<!DOCTYPE svg PUBLIC "-//W3C//DTD SVG 1.1//EN" "http://www.w3.org/Graphics/SVG/1.1/DTD/svg11.dtd">
<svg version="1.1" xmlns="http://www.w3.org/2000/svg" xmlns:xlink="http://www.w3.org/1999/xlink" x="0px" y="0px"
	 width="115.89648px" height="116.10938px" viewBox="0 0 115.89648 116.10938" enable-background="new 0 0 115.89648 116.10938"
	 xml:space="preserve">
<g id="Layer_1">
</g>
<g id="social_market">
	<g>
		<g>
			<path fill="#87AC13" d="M97.75391,15.69092C92.93945,10.854,88.10938,6.03125,83.29297,1.19482
				C82.92383,0.82324,82.60547,0.39941,82.26367,0C66.15039,0,50.03809,0,33.92578,0
				c-4.92676,4.96045-9.8418,9.93115-14.78223,14.87793c-0.75293,0.75391-1.50879,1.50488-2.2627,2.25879
				c-5.625,5.62354-11.25781,11.23779-16.88867,16.85596c0,16.14062,0,32.28174,0,48.42236
				c0.43555,0.38135,0.89648,0.73779,1.30469,1.14648c10.44043,10.44922,20.875,20.90479,31.31445,31.35645
				c0.41211,0.41211,0.85352,0.79492,1.28125,1.19141c10.00098-0.01709,20.00293-0.04004,30.00488-0.04932
				c6.11816-0.00488,12.23535,0.01221,18.35449,0.01953c5.60254-5.58789,11.21387-11.16748,16.80566-16.76562
				c0.125-0.125,0.25098-0.25,0.37598-0.375c5.49121-5.49902,10.96094-11.01953,16.43848-16.53027
				c0.01074-16.15234,0.02148-32.30469,0.03223-48.45703C109.85547,27.86377,103.80957,21.77246,97.75391,15.69092z"/>
			<g>
				<g>
					<path fill="#FFFFFF" d="M87.28027,65.20996c-1.19531-1.71289-3.5498-2.13379-5.2627-0.93994
						c-27.64062,19.26465-46.41016-6.9126-47.19531-8.03662c-1.19043-1.71094-3.54297-2.13672-5.25586-0.94971
						c-1.71875,1.18896-2.14648,3.54297-0.95703,5.26074c0.41797,0.60352,10.42773,14.81934,27.16211,17.83496
						c2.06738,0.37256,4.14062,0.55811,6.2168,0.55811c8.10938,0,16.27539-2.83398,24.35156-8.46387
						C88.05371,69.27979,88.47461,66.92334,87.28027,65.20996z"/>
					<circle fill="#FFFFFF" cx="71.20312" cy="47.33276" r="6.02563"/>
					<circle fill="#FFFFFF" cx="48.28125" cy="43.19775" r="6.02588"/>
				</g>
			</g>
			<linearGradient id="SVGID_1_" gradientUnits="userSpaceOnUse" x1="-14.05273" y1="49.65674" x2="129.94714" y2="49.65674">
				<stop  offset="0" style="stop-color:#FFFFFF"/>
				<stop  offset="1" style="stop-color:#000000"/>
			</linearGradient>
			<path opacity="0.2" fill="url(#SVGID_1_)" d="M115.87207,82.40869c0.01074-16.15234,0.02148-32.30469,0.03223-48.45703
				c-6.04883-6.08789-12.09473-12.1792-18.15039-18.26074C92.93945,10.854,88.10938,6.03125,83.29297,1.19482
				C82.92383,0.82324,82.60547,0.39941,82.26367,0C66.15039,0,50.03809,0,33.92578,0
				c-4.92676,4.96045-9.8418,9.93115-14.78223,14.87793c-0.75293,0.75391-1.50879,1.50488-2.2627,2.25879l82.17676,82.17725
				c0.125-0.125,0.25098-0.25,0.37598-0.375C104.9248,93.43994,110.39453,87.91943,115.87207,82.40869z"/>
		</g>
	</g>
</g>
<g id="set2">
</g>
<g id="Layer_5">
</g>
<g id="Layer_6">
</g>
<g id="Twitter_Logo_Silhouette_designed_by_Elegant_Themes_from_Flaticon.com">
</g>
</svg>
