<?xml version="1.0" encoding="utf-8"?>
<!-- Generator: Adobe Illustrator 16.0.0, SVG Export Plug-In . SVG Version: 6.00 Build 0)  -->
<!DOCTYPE svg PUBLIC "-//W3C//DTD SVG 1.1//EN" "http://www.w3.org/Graphics/SVG/1.1/DTD/svg11.dtd">
<svg version="1.1" xmlns="http://www.w3.org/2000/svg" xmlns:xlink="http://www.w3.org/1999/xlink" x="0px" y="0px"
	 width="115.89648px" height="116.10938px" viewBox="0 0 115.89648 116.10938" enable-background="new 0 0 115.89648 116.10938"
	 xml:space="preserve">
<g id="Layer_1">
</g>
<g id="social_market">
	<g>
		<g>
			<path fill="#353535" d="M97.75391,15.69092C92.93945,10.854,88.10938,6.03125,83.29297,1.19482
				C82.92383,0.82324,82.60547,0.39941,82.26367,0C66.15039,0,50.03809,0,33.92578,0
				c-4.92676,4.96045-9.8418,9.93115-14.78223,14.87793c-0.75293,0.75391-1.50879,1.50488-2.2627,2.25879
				c-5.625,5.62354-11.25781,11.23779-16.88867,16.85596c0,16.14062,0,32.28174,0,48.42236
				c0.43555,0.38135,0.89648,0.73779,1.30469,1.14648c10.44043,10.44922,20.875,20.90479,31.31445,31.35645
				c0.41211,0.41211,0.85352,0.79492,1.28125,1.19141c10.00098-0.01709,20.00293-0.04004,30.00488-0.04932
				c6.11816-0.00488,12.23535,0.01221,18.35449,0.01953c5.60254-5.58789,11.21387-11.16748,16.80566-16.76562
				c0.125-0.125,0.25098-0.25,0.37598-0.375c5.49121-5.49902,10.96094-11.01953,16.43848-16.53027
				c0.01074-16.15234,0.02148-32.30469,0.03223-48.45703C109.85547,27.86377,103.80957,21.77246,97.75391,15.69092z"/>
			<g>
				<path id="Myspace__x28_alt_x29_" fill="#FFFFFF" d="M70.37109,48.96436c-5.03125,0-9.11133-4.07031-9.11133-9.08838
					c0-5.01904,4.08008-9.09033,9.11133-9.09033c5.0293,0,9.10938,4.07129,9.10938,9.09033
					C79.48047,44.89404,75.40039,48.96436,70.37109,48.96436L70.37109,48.96436z M62.91797,57.72363
					c0-5.02148-4.07812-9.08887-9.11133-9.08887s-9.10938,4.06738-9.10938,9.08887c0,0.20557,0.01562,0.40479,0.03125,0.60693
					h-0.03125v15.75391h18.2207V58.33057h-0.0332C62.90039,58.12842,62.91797,57.9292,62.91797,57.72363L62.91797,57.72363z
					 M53.80664,47.42041c3.68945,0,6.67969-2.98242,6.67969-6.66455c0-3.67871-2.99219-6.66455-6.67969-6.66455
					s-6.67969,2.98584-6.67969,6.66455C47.12695,44.43799,50.11914,47.42041,53.80664,47.42041L53.80664,47.42041z
					 M82.79297,63.01318c0-6.84766-5.56055-12.396-12.42188-12.396s-12.42188,5.54785-12.42188,12.396
					c0,0.2793,0.02148,0.55225,0.03906,0.82422h-0.03906v21.48633h24.84375V63.8374h-0.04102
					C82.77148,63.56543,82.79297,63.29248,82.79297,63.01318L82.79297,63.01318z M40.55664,47.64258
					c-4.11914,0-7.45312,3.32715-7.45312,7.43604c0,0.16699,0.01172,0.33154,0.02344,0.49756h-0.02344v12.89014h14.90625V55.57617
					h-0.02539c0.01172-0.16504,0.02539-0.32959,0.02539-0.49658C48.00977,50.96973,44.67383,47.64258,40.55664,47.64258
					L40.55664,47.64258z M40.55664,46.65137c3.01758,0,5.46484-2.44189,5.46484-5.45361c0-3.01221-2.44727-5.45361-5.46484-5.45361
					s-5.4668,2.44141-5.4668,5.45361C35.08984,44.20947,37.53711,46.65137,40.55664,46.65137L40.55664,46.65137z"/>
			</g>
			<linearGradient id="SVGID_1_" gradientUnits="userSpaceOnUse" x1="-14.05273" y1="49.65674" x2="129.94714" y2="49.65674">
				<stop  offset="0" style="stop-color:#FFFFFF"/>
				<stop  offset="1" style="stop-color:#000000"/>
			</linearGradient>
			<path opacity="0.2" fill="url(#SVGID_1_)" d="M115.87207,82.40869c0.01074-16.15234,0.02148-32.30469,0.03223-48.45703
				c-6.04883-6.08789-12.09473-12.1792-18.15039-18.26074C92.93945,10.854,88.10938,6.03125,83.29297,1.19482
				C82.92383,0.82324,82.60547,0.39941,82.26367,0C66.15039,0,50.03809,0,33.92578,0
				c-4.92676,4.96045-9.8418,9.93115-14.78223,14.87793c-0.75293,0.75391-1.50879,1.50488-2.2627,2.25879l82.17676,82.17725
				c0.125-0.125,0.25098-0.25,0.37598-0.375C104.9248,93.43994,110.39453,87.91943,115.87207,82.40869z"/>
		</g>
	</g>
</g>
<g id="set2">
</g>
<g id="Layer_5">
</g>
<g id="Layer_6">
</g>
<g id="Twitter_Logo_Silhouette_designed_by_Elegant_Themes_from_Flaticon.com">
</g>
</svg>
