<?xml version="1.0" encoding="utf-8"?>
<!-- Generator: Adobe Illustrator 16.0.0, SVG Export Plug-In . SVG Version: 6.00 Build 0)  -->
<!DOCTYPE svg PUBLIC "-//W3C//DTD SVG 1.1//EN" "http://www.w3.org/Graphics/SVG/1.1/DTD/svg11.dtd">
<svg version="1.1" xmlns="http://www.w3.org/2000/svg" xmlns:xlink="http://www.w3.org/1999/xlink" x="0px" y="0px"
	 width="115.89648px" height="116.10938px" viewBox="0 0 115.89648 116.10938" enable-background="new 0 0 115.89648 116.10938"
	 xml:space="preserve">
<g id="Layer_1">
</g>
<g id="social_market">
	<g>
		<g>
			<path fill="#CB151A" d="M97.75391,15.69092C92.93945,10.854,88.10938,6.03125,83.29297,1.19482
				C82.92383,0.82324,82.60547,0.39941,82.26367,0C66.15039,0,50.03809,0,33.92578,0
				c-4.92676,4.96045-9.8418,9.93115-14.78223,14.87793c-0.75293,0.75391-1.50879,1.50488-2.2627,2.25879
				c-5.625,5.62354-11.25781,11.23779-16.88867,16.85596c0,16.14062,0,32.28174,0,48.42236
				c0.43555,0.38135,0.89648,0.73779,1.30469,1.14648c10.44043,10.44922,20.875,20.90479,31.31445,31.35645
				c0.41211,0.41211,0.85352,0.79492,1.28125,1.19141c10.00098-0.01709,20.00293-0.04004,30.00488-0.04932
				c6.11816-0.00488,12.23535,0.01221,18.35449,0.01953c5.60254-5.58789,11.21387-11.16748,16.80566-16.76562
				c0.125-0.125,0.25098-0.25,0.37598-0.375c5.49121-5.49902,10.96094-11.01953,16.43848-16.53027
				c0.01074-16.15234,0.02148-32.30469,0.03223-48.45703C109.85547,27.86377,103.80957,21.77246,97.75391,15.69092z"/>
			<g>
				<g>
					<g>
						<path fill="#FFFFFF" d="M81.73047,44.32275c-1.69043-12.22803-13.875-18.4541-26.87695-16.99609
							C44.5752,28.479,34.32715,36.78955,33.90137,48.67334c-0.25977,7.25439,1.79883,12.69531,8.70117,14.22705
							c2.98926-5.29004-0.96289-6.44678-1.58105-10.27881c-2.5332-15.66211,18.06738-26.3584,28.85645-15.41406
							c7.4707,7.5791,2.54785,30.88281-9.48633,28.45801c-11.52832-2.31299,5.64551-20.86328-3.55371-24.50244
							c-7.47949-2.9624-11.45117,9.04932-7.9043,15.02002C46.85254,66.45068,42.375,76.11865,44.18848,88.9917
							c5.87695-4.26904,7.86133-12.43262,9.48535-20.95166c2.95508,1.79785,4.53711,3.6582,8.30371,3.94824
							C75.86816,73.06689,83.63672,58.12061,81.73047,44.32275z"/>
					</g>
				</g>
			</g>
			<linearGradient id="SVGID_1_" gradientUnits="userSpaceOnUse" x1="-14.05273" y1="49.65674" x2="129.94714" y2="49.65674">
				<stop  offset="0" style="stop-color:#FFFFFF"/>
				<stop  offset="1" style="stop-color:#000000"/>
			</linearGradient>
			<path opacity="0.2" fill="url(#SVGID_1_)" d="M115.87207,82.40869c0.01074-16.15234,0.02148-32.30469,0.03223-48.45703
				c-6.04883-6.08789-12.09473-12.1792-18.15039-18.26074C92.93945,10.854,88.10938,6.03125,83.29297,1.19482
				C82.92383,0.82324,82.60547,0.39941,82.26367,0C66.15039,0,50.03809,0,33.92578,0
				c-4.92676,4.96045-9.8418,9.93115-14.78223,14.87793c-0.75293,0.75391-1.50879,1.50488-2.2627,2.25879l82.17676,82.17725
				c0.125-0.125,0.25098-0.25,0.37598-0.375C104.9248,93.43994,110.39453,87.91943,115.87207,82.40869z"/>
		</g>
	</g>
</g>
<g id="set2">
</g>
<g id="Layer_5">
</g>
<g id="Layer_6">
</g>
<g id="Twitter_Logo_Silhouette_designed_by_Elegant_Themes_from_Flaticon.com">
</g>
</svg>
