<?xml version="1.0" encoding="utf-8"?>
<!-- Generator: Adobe Illustrator 16.0.0, SVG Export Plug-In . SVG Version: 6.00 Build 0)  -->
<!DOCTYPE svg PUBLIC "-//W3C//DTD SVG 1.1//EN" "http://www.w3.org/Graphics/SVG/1.1/DTD/svg11.dtd">
<svg version="1.1" xmlns="http://www.w3.org/2000/svg" xmlns:xlink="http://www.w3.org/1999/xlink" x="0px" y="0px"
	 width="115.89648px" height="116.10938px" viewBox="0 0 115.89648 116.10938" enable-background="new 0 0 115.89648 116.10938"
	 xml:space="preserve">
<g id="Layer_1">
</g>
<g id="social_market">
	<g>
		<g>
			<path fill="#628AB4" d="M97.75391,15.69092C92.93945,10.854,88.10938,6.03125,83.29297,1.19482
				C82.92383,0.82324,82.60547,0.39941,82.26367,0C66.15039,0,50.03809,0,33.92578,0
				c-4.92676,4.96045-9.8418,9.93115-14.78223,14.87793c-0.75293,0.75391-1.50879,1.50488-2.2627,2.25879
				c-5.625,5.62354-11.25781,11.23779-16.88867,16.85596c0,16.14062,0,32.28174,0,48.42236
				c0.43555,0.38135,0.89648,0.7373,1.30469,1.14648c10.44043,10.44922,20.875,20.90527,31.31445,31.35645
				c0.41211,0.41211,0.85352,0.79492,1.28125,1.19141c10.00098-0.01758,20.00293-0.04004,30.00488-0.04883
				c6.11816-0.00586,12.23535,0.01172,18.35449,0.01953c5.60254-5.58789,11.21387-11.16797,16.80566-16.76562
				c0.125-0.125,0.25098-0.25,0.37598-0.375c5.49121-5.5,10.96094-11.01953,16.43848-16.53076
				c0.01074-16.15234,0.02148-32.30469,0.03223-48.45703C109.85547,27.86377,103.80957,21.77246,97.75391,15.69092z"/>
			<g>
				<path id="reddit_2_" fill="#FFFFFF" d="M70.63867,60.2417c0.1543,0.39844,0.2207,0.79932,0.2207,1.19824
					c0,0.80518-0.2832,1.57764-0.74609,2.21143c-0.45898,0.62988-1.10938,1.13428-1.8916,1.3291l0,0
					c-0.00684,0.00244-0.00879,0.00244-0.01172,0.03418c-0.00293,0-0.00488,0-0.00488,0
					c-0.35742,0.12012-0.74023,0.17773-1.10352,0.17773c-0.85742,0-1.70898-0.32812-2.36523-0.85645
					c-0.68164-0.52441-1.1875-1.27197-1.33203-2.14844l0,0c0,0,0-0.03613-0.03125-0.03613v-0.00195l0,0
					c-0.02734-0.23633-0.06445-0.46289-0.06445-0.69727c0-0.76221,0.27539-1.50977,0.69629-2.13281
					c0.4502-0.61035,1.06934-1.09668,1.77246-1.33789c0.00391,0,0.00586,0,0.00586,0l0,0
					c0.4043-0.16211,0.85352-0.22852,1.26758-0.22852c0.76367,0,1.51953,0.23291,2.17969,0.66357
					c0.63477,0.41309,1.1543,1.0293,1.39551,1.80811c0,0,0,0.01025,0.00195,0.01025v0.00684H70.63867z M68.27344,69.75537
					c-0.29297-0.18457-0.64453-0.29932-0.99902-0.29932c-0.32422,0-0.625,0.06836-0.90137,0.25l0,0
					c-2.60449,1.55762-5.66406,2.4165-8.7207,2.4165c-2.29297,0-4.55078-0.46973-6.61914-1.49902l-0.00586-0.00195h-0.01953
					c-0.29785-0.12256-0.66406-0.39697-1.04297-0.64209c-0.20215-0.15234-0.4043-0.27246-0.62988-0.35156
					c-0.23145-0.10791-0.46777-0.16797-0.73145-0.16797c-0.22266,0-0.45508,0.05225-0.68555,0.13574
					c-0.00391,0.00195-0.02734,0.03467-0.03223,0.03467l0,0c-0.36621,0.13086-0.63379,0.39893-0.82715,0.6958
					c-0.18164,0.29053-0.26562,0.6499-0.26562,0.99902c0,0.33252,0.08398,0.6377,0.23438,0.92773
					c0.14453,0.2832,0.37598,0.52148,0.66895,0.68799c2.94043,2.00049,6.40234,2.88086,9.8877,2.88086
					c3.13672,0,6.30078-0.70801,9.08789-2.0332l0.03906-0.0332l0.00977-0.00195c0.36035-0.229,0.8623-0.41113,1.32422-0.69873
					c0.23242-0.13232,0.45605-0.30469,0.64258-0.53125c0.18164-0.22363,0.34961-0.50684,0.44727-0.80371l0,0
					c0.02539-0.16016,0.05469-0.28857,0.05469-0.41162c0-0.27344-0.05664-0.51221-0.16992-0.73828
					C68.8418,70.22266,68.57031,69.94238,68.27344,69.75537z M47.62793,64.98047c0,0,0.00391,0,0.00684,0
					c0.39453,0.1543,0.77344,0.21387,1.15234,0.21387c0.96875,0,1.89648-0.396,2.59277-1.03027
					c0.69434-0.63281,1.17773-1.54834,1.17773-2.5835c0,0,0-0.05176,0-0.07178c0.00488-0.0542,0.00488-0.10791,0.00488-0.16016
					c0-1.00342-0.46484-1.9209-1.1582-2.55615c-0.71094-0.65674-1.63574-1.05322-2.59277-1.05322
					c-0.25586,0-0.51758,0.03271-0.77441,0.08447c-0.00391,0-0.00391,0.00928-0.00586,0.00928l0,0
					c-1.27148,0.26904-2.3916,1.2041-2.80078,2.51465l0,0l0,0c0,0.00195,0,0.00195,0,0.00195
					c-0.11426,0.34717-0.17188,0.7085-0.17188,1.09033c0,0.77246,0.26172,1.56787,0.7041,2.20166
					c0.45508,0.62695,1.09277,1.1084,1.8457,1.33301C47.62305,64.97803,47.62305,64.98047,47.62793,64.98047z M87.4668,55.72021
					L87.4668,55.72021c0,0.13525,0.00391,0.25537,0.00391,0.39404c0,1.42432-0.46289,2.80615-1.2207,3.99463
					c-0.73242,1.0708-1.71387,1.99316-2.86035,2.61572c0.0957,0.57324,0.11523,1.15137,0.11523,1.72656
					c0,3.07568-1.0498,6.11377-2.90723,8.54785l0,0l0,0c-3.44238,4.55859-8.7002,7.25488-14.00586,8.62451l0,0h-0.00586
					c-2.85645,0.69385-5.75977,1.03516-8.68945,1.03516c-4.35449,0-8.70898-0.7915-12.76855-2.41504l0,0h-0.00684
					c-4.20996-1.73486-8.21777-4.49707-10.67285-8.54004c-1.32715-2.17676-2.05176-4.71045-2.05176-7.24756
					c0-0.57031,0.03516-1.15332,0.09766-1.69189c-1.10156-0.63037-2.05664-1.53271-2.77246-2.58643
					c-0.75195-1.12402-1.2373-2.46436-1.2959-3.85986v-0.00195v-0.01807V56.2959c0-1.96338,0.84375-3.83252,2.1875-5.21289
					c1.32812-1.36328,3.14355-2.25928,5.08301-2.25928c0.02637,0,0.05371,0,0.08301,0c0.2041-0.01904,0.4082-0.0293,0.61035-0.0293
					c0.97852,0,1.96094,0.15527,2.89746,0.51904l0.00391,0.00195l0,0c0.78906,0.33252,1.58496,0.729,2.28516,1.29785
					c0.23047-0.11621,0.48438-0.25586,0.75391-0.35498c4.26172-2.53369,9.22461-3.5127,14.06055-3.79639
					c0.03711-2.39307,0.3418-4.89746,1.5-7.09229c0.97852-1.81787,2.66113-3.23584,4.67383-3.72754l0.00391-0.00244h0.00195
					c0.78516-0.14746,1.54883-0.21875,2.30762-0.21875c2.05762,0,4.0752,0.48438,5.94727,1.23828
					c0.85156-1.27051,2.05176-2.23926,3.43945-2.7998l0.00977-0.00342l0.00488-0.00244
					c0.84863-0.25537,1.68164-0.40283,2.57812-0.40283c0.92578,0,1.8457,0.17236,2.71289,0.54834l0,0l0,0
					c0.00586,0,0.01074,0.00195,0.0127,0.00195c1.22754,0.48535,2.30078,1.36133,3.04297,2.47559
					c0.75098,1.10254,1.17383,2.42139,1.17383,3.78369c0,0.25342-0.00684,0.49219-0.02148,0.75049v0.00195
					c0,0,0,0.02002-0.03223,0.02002c-0.13086,1.75928-1.01074,3.29443-2.27344,4.39111
					c-1.27148,1.1123-2.92578,1.77734-4.60742,1.77734c-0.28125,0-0.55859-0.02295-0.80664-0.05225
					c-1.67383-0.12061-3.2334-0.94043-4.38184-2.13867c-1.15918-1.20459-1.90234-2.81592-1.90234-4.5459
					c0-0.08545,0.00684-0.17236,0.00684-0.25342c-1.56445-0.69824-3.23047-1.2793-4.89258-1.27393
					c-0.2334,0-0.4707,0.01953-0.70703,0.02979l0,0c-1.25586,0.13232-2.40723,0.91406-2.94922,2.03906l0,0l0,0
					c-0.85156,1.64844-1.02344,3.58008-1.03516,5.50586c4.74023,0.29736,9.52539,1.44385,13.73438,3.8623l0,0l0.05664,0.0376
					c0.06641,0.04834,0.23242,0.13281,0.35742,0.19873c0.28809-0.23145,0.58594-0.4668,0.93262-0.68652
					c1.29785-0.84326,2.80762-1.27148,4.30469-1.27148c0.6543,0,1.33594,0.08594,1.97949,0.25586l0,0l0.04102,0.00195
					c0.00684,0,0.00977,0,0.01465,0v0.00244c1.54492,0.39648,2.92871,1.28467,3.97363,2.46875
					C86.61133,52.57129,87.31055,54.0791,87.4668,55.72021L87.4668,55.72021z M73.45508,40.15039
					c0,0.0752,0,0.13721,0.00488,0.20117v0.00195v0.01709c0.04395,0.81787,0.41016,1.59033,0.99316,2.1626
					c0.61719,0.56152,1.38574,0.9209,2.19336,0.9209h0.03516h0.00293c0.05762,0.00244,0.12207,0.00244,0.17285,0.00244
					c0.81055,0,1.61426-0.34717,2.20703-0.91797c0.61719-0.56885,1.02148-1.33887,1.0332-2.16992l0.00195-0.01953l0,0
					c0.00488-0.06152,0.00488-0.12012,0.00488-0.18457c0-0.86182-0.37402-1.67334-1.00488-2.27783
					c-0.63086-0.60645-1.48438-0.97998-2.30371-0.97998c-0.27637,0-0.52637,0.03467-0.7998,0.11816h-0.00391l-0.00586,0.00244
					c-0.68555,0.17432-1.32324,0.6001-1.78613,1.15625C73.74023,38.75439,73.45508,39.43359,73.45508,40.15039z M38.34766,52.89355
					c-0.63086-0.29053-1.2793-0.5-1.93652-0.49658c-0.1123,0-0.22363,0.00244-0.33887,0.02393H36.0625h-0.01953
					c-0.92773,0.02686-1.87305,0.43311-2.57129,1.07715c-0.71582,0.6582-1.18066,1.52637-1.21191,2.50244v0.00488v0.02002
					c-0.00293,0.06445-0.01953,0.14746-0.01953,0.21387c0,0.6001,0.19336,1.17578,0.50879,1.69971
					c0.21191,0.396,0.52344,0.74756,0.86621,1.06104C34.70605,56.61572,36.40918,54.58398,38.34766,52.89355z M79.78906,64.57715
					c0-2.13086-0.78125-4.26562-2.00879-5.98096c-2.4834-3.45361-6.33789-5.70068-10.32129-6.9502l-0.04102-0.01953
					c-0.7627-0.23193-1.55078-0.44238-2.31836-0.61475c-2.34961-0.52246-4.72852-0.80176-7.13672-0.80176
					c-3.20703,0-6.41211,0.48193-9.49609,1.43359c-4.00195,1.26709-7.86328,3.49316-10.34277,6.95068v0.00195
					c-1.24707,1.74707-1.97363,3.88184-1.97363,6.021c0,0.7666,0.0957,1.56348,0.29785,2.32178l0,0
					c0.45508,1.72217,1.3291,3.26465,2.47559,4.59814c1.14648,1.33301,2.53809,2.48193,4.00586,3.4043
					c0.32227,0.18701,0.6582,0.39404,0.98438,0.57666c4.2666,2.37402,9.1875,3.41455,14.06641,3.41455
					c0.83105,0,1.64746-0.0127,2.49414-0.06885c4.90527-0.4043,9.82129-1.85498,13.83594-4.83008V74.0293
					c1.27344-0.93262,2.43164-2.07666,3.35742-3.354c0.93555-1.31104,1.61816-2.75439,1.91797-4.31738v-0.00488h0.00195
					C79.69922,65.77246,79.78906,65.18701,79.78906,64.57715z M83.6582,56.11426c0-0.51709-0.11914-1.03125-0.38672-1.51807
					l-0.00586-0.00342l-0.00391-0.00439c-0.34766-0.71387-0.87109-1.24463-1.54785-1.61377
					c-0.64746-0.37158-1.40527-0.56055-2.18652-0.56055c-0.69922,0-1.3877,0.15967-1.98535,0.47168
					c1.9248,1.69482,3.64844,3.7251,4.75195,6.11816c0.35059-0.31201,0.67285-0.67383,0.90137-1.10449
					C83.48828,57.35059,83.6582,56.72168,83.6582,56.11426z"/>
			</g>
			<linearGradient id="SVGID_1_" gradientUnits="userSpaceOnUse" x1="-14.05273" y1="49.65723" x2="129.94714" y2="49.65723">
				<stop  offset="0" style="stop-color:#FFFFFF"/>
				<stop  offset="1" style="stop-color:#000000"/>
			</linearGradient>
			<path opacity="0.2" fill="url(#SVGID_1_)" d="M115.87207,82.40869c0.01074-16.15234,0.02148-32.30469,0.03223-48.45703
				c-6.04883-6.08789-12.09473-12.1792-18.15039-18.26074C92.93945,10.854,88.10938,6.03125,83.29297,1.19482
				C82.92383,0.82324,82.60547,0.39941,82.26367,0C66.15039,0,50.03809,0,33.92578,0
				c-4.92676,4.96045-9.8418,9.93115-14.78223,14.87793c-0.75293,0.75391-1.50879,1.50488-2.2627,2.25879l82.17676,82.17773
				c0.125-0.125,0.25098-0.25,0.37598-0.375C104.9248,93.43945,110.39453,87.91992,115.87207,82.40869z"/>
		</g>
	</g>
</g>
<g id="set2">
</g>
<g id="Layer_5">
</g>
<g id="Layer_6">
</g>
<g id="Twitter_Logo_Silhouette_designed_by_Elegant_Themes_from_Flaticon.com">
</g>
</svg>
