<?xml version="1.0" encoding="utf-8"?>
<!-- Generator: Adobe Illustrator 16.0.0, SVG Export Plug-In . SVG Version: 6.00 Build 0)  -->
<!DOCTYPE svg PUBLIC "-//W3C//DTD SVG 1.1//EN" "http://www.w3.org/Graphics/SVG/1.1/DTD/svg11.dtd">
<svg version="1.1" xmlns="http://www.w3.org/2000/svg" xmlns:xlink="http://www.w3.org/1999/xlink" x="0px" y="0px"
	 width="115.89648px" height="116.10938px" viewBox="0 0 115.89648 116.10938" enable-background="new 0 0 115.89648 116.10938"
	 xml:space="preserve">
<g id="Layer_1">
</g>
<g id="social_market">
	<g>
		<g>
			<path fill="#F44612" d="M97.74609,15.69092C92.93164,10.854,88.10156,6.03125,83.28516,1.19482
				C82.91602,0.82324,82.59766,0.39941,82.25586,0C66.14258,0,50.03027,0,33.91797,0
				c-4.92676,4.96045-9.8418,9.93115-14.78223,14.87793c-0.75293,0.75391-1.50879,1.50488-2.2627,2.25879
				c-5.625,5.62354-11.25781,11.23779-16.88867,16.85596c0,16.14062,0,32.28174,0,48.42236
				c0.43555,0.38135,0.89648,0.7373,1.30469,1.14648c10.44043,10.44922,20.875,20.90527,31.31445,31.35645
				c0.41211,0.41211,0.85352,0.79492,1.28125,1.19141c10.00098-0.01758,20.00293-0.04004,30.00488-0.04883
				c6.11816-0.00586,12.23535,0.01172,18.35449,0.01953c5.60254-5.58789,11.21387-11.16797,16.80566-16.76562
				c0.125-0.125,0.25098-0.25,0.37598-0.375c5.49121-5.5,10.96094-11.01953,16.43848-16.53076
				c0.01074-16.15234,0.02148-32.30469,0.03223-48.45703C109.84766,27.86377,103.80176,21.77246,97.74609,15.69092z"/>
			<g>
				<path fill="#FFFFFF" d="M63.07715,49.54492h7.91309v-3.48291c0-6.55469-5.33203-11.8877-11.8877-11.8877
					s-11.8877,5.33301-11.8877,11.8877v21.98535c0,2.19141-1.7832,3.97412-3.97461,3.97412s-3.97363-1.78271-3.97363-3.97412
					V57.7876h-7.91406v10.25977c0,6.55469,5.33203,11.8877,11.8877,11.8877s11.88867-5.33301,11.88867-11.8877V46.06201
					c0-2.19141,1.78223-3.97412,3.97363-3.97412s3.97461,1.78271,3.97461,3.97412V49.54492z"/>
				<path fill="#FFFFFF" d="M78.83496,57.91211v10.13525c0,2.19141-1.78223,3.97412-3.97363,3.97412
					s-3.97461-1.78271-3.97461-3.97412V57.7876h-7.91406v10.25977c0,6.55469,5.33301,11.8877,11.88867,11.8877
					s11.8877-5.33301,11.8877-11.8877V57.91211H78.83496z"/>
			</g>
			<linearGradient id="SVGID_1_" gradientUnits="userSpaceOnUse" x1="-14.06055" y1="49.65723" x2="129.93933" y2="49.65723">
				<stop  offset="0" style="stop-color:#FFFFFF"/>
				<stop  offset="1" style="stop-color:#000000"/>
			</linearGradient>
			<path opacity="0.2" fill="url(#SVGID_1_)" d="M115.86426,82.40869c0.01074-16.15234,0.02148-32.30469,0.03223-48.45703
				c-6.04883-6.08789-12.09473-12.1792-18.15039-18.26074C92.93164,10.854,88.10156,6.03125,83.28516,1.19482
				C82.91602,0.82324,82.59766,0.39941,82.25586,0C66.14258,0,50.03027,0,33.91797,0
				c-4.92676,4.96045-9.8418,9.93115-14.78223,14.87793c-0.75293,0.75391-1.50879,1.50488-2.2627,2.25879L99.0498,99.31445
				c0.125-0.125,0.25098-0.25,0.37598-0.375C104.91699,93.43945,110.38672,87.91992,115.86426,82.40869z"/>
		</g>
	</g>
</g>
<g id="set2">
</g>
<g id="Layer_5">
</g>
<g id="Layer_6">
</g>
<g id="Twitter_Logo_Silhouette_designed_by_Elegant_Themes_from_Flaticon.com">
</g>
</svg>
