<?xml version="1.0" encoding="utf-8"?>
<!-- Generator: Adobe Illustrator 16.0.0, SVG Export Plug-In . SVG Version: 6.00 Build 0)  -->
<!DOCTYPE svg PUBLIC "-//W3C//DTD SVG 1.1//EN" "http://www.w3.org/Graphics/SVG/1.1/DTD/svg11.dtd">
<svg version="1.1" xmlns="http://www.w3.org/2000/svg" xmlns:xlink="http://www.w3.org/1999/xlink" x="0px" y="0px"
	 width="115.89648px" height="116.10938px" viewBox="0 0 115.89648 116.10938" enable-background="new 0 0 115.89648 116.10938"
	 xml:space="preserve">
<g id="Layer_1">
</g>
<g id="social_market">
	<g>
		<g>
			<path fill="#485A76" d="M97.75391,15.69092C92.93945,10.854,88.10938,6.03125,83.29297,1.19482
				C82.92383,0.82324,82.60547,0.39941,82.26367,0C66.15039,0,50.03809,0,33.92578,0
				c-4.92676,4.96045-9.8418,9.93115-14.78223,14.87793c-0.75293,0.75391-1.50879,1.50488-2.2627,2.25879
				c-5.625,5.62354-11.25781,11.23779-16.88867,16.85596c0,16.14062,0,32.28174,0,48.42236
				c0.43555,0.38184,0.89648,0.7373,1.30469,1.14648c10.44043,10.44922,20.875,20.90527,31.31445,31.35645
				c0.41211,0.41211,0.85352,0.79492,1.28125,1.19141c10.00098-0.01758,20.00293-0.04004,30.00488-0.04883
				c6.11816-0.00586,12.23535,0.01172,18.35449,0.01953c5.60254-5.58789,11.21387-11.16797,16.80566-16.76562
				c0.125-0.125,0.25098-0.25,0.37598-0.375c5.49121-5.5,10.96094-11.01953,16.43848-16.53125
				c0.01074-16.15186,0.02148-32.3042,0.03223-48.45654C109.85547,27.86377,103.80957,21.77246,97.75391,15.69092z"/>
			<g>
				<path fill="#FFFFFF" d="M61.00977,41.7793V29.26367h-8.07617c-0.18262,0.46289-0.2793,1.0127-0.2793,1.57617
					c-0.08594,0.27051-0.18164,0.46582-0.18164,0.74121c-0.83203,4.63477-3.24414,7.87988-7.32715,9.64551
					c-1.20703,0.55273-2.31641,0.64062-3.52246,0.55273v10.10156h5.93359c0.09863,14.19531,0.09863,21.51758,0.09863,21.88965
					c0,0.27832,0,0.55762,0,0.8418c0.74512,6.2041,3.98535,9.91602,9.73633,11.30664
					c2.31641,0.65039,4.81641,0.92676,7.32715,0.92676c3.24023-0.09082,6.39746-0.64844,9.55469-1.66992V73.30762
					c-1.85156,0.55664-3.53418,1.01758-5.00879,1.47656c-2.87598,0.84375-5.28711,0.28613-7.23926-1.56836
					c-0.18359-0.2793-0.46289-0.65137-0.55957-1.02148c-0.26758-1.48438-0.4502-3.05469-0.4502-4.54785V51.88281h12.87695V41.7793
					H61.00977z"/>
			</g>
			<linearGradient id="SVGID_1_" gradientUnits="userSpaceOnUse" x1="-14.05273" y1="49.65723" x2="129.94714" y2="49.65723">
				<stop  offset="0" style="stop-color:#FFFFFF"/>
				<stop  offset="1" style="stop-color:#000000"/>
			</linearGradient>
			<path opacity="0.2" fill="url(#SVGID_1_)" d="M115.87207,82.4082c0.01074-16.15186,0.02148-32.3042,0.03223-48.45654
				c-6.04883-6.08789-12.09473-12.1792-18.15039-18.26074C92.93945,10.854,88.10938,6.03125,83.29297,1.19482
				C82.92383,0.82324,82.60547,0.39941,82.26367,0C66.15039,0,50.03809,0,33.92578,0
				c-4.92676,4.96045-9.8418,9.93115-14.78223,14.87793c-0.75293,0.75391-1.50879,1.50488-2.2627,2.25879l82.17676,82.17773
				c0.125-0.125,0.25098-0.25,0.37598-0.375C104.9248,93.43945,110.39453,87.91992,115.87207,82.4082z"/>
		</g>
	</g>
</g>
<g id="set2">
</g>
<g id="Layer_5">
</g>
<g id="Layer_6">
</g>
<g id="Twitter_Logo_Silhouette_designed_by_Elegant_Themes_from_Flaticon.com">
</g>
</svg>
