<?xml version="1.0" encoding="utf-8"?>
<!-- Generator: Adobe Illustrator 16.0.0, SVG Export Plug-In . SVG Version: 6.00 Build 0)  -->
<!DOCTYPE svg PUBLIC "-//W3C//DTD SVG 1.1//EN" "http://www.w3.org/Graphics/SVG/1.1/DTD/svg11.dtd">
<svg version="1.1" xmlns="http://www.w3.org/2000/svg" xmlns:xlink="http://www.w3.org/1999/xlink" x="0px" y="0px"
	 width="115.89648px" height="116.10986px" viewBox="0 0 115.89648 116.10986" enable-background="new 0 0 115.89648 116.10986"
	 xml:space="preserve">
<g id="Layer_1">
</g>
<g id="social_market">
	<g>
		<g>
			<path fill="#44C1FF" d="M97.75391,15.69189C92.93945,10.854,88.10938,6.03174,83.29297,1.1958
				c-0.36914-0.37305-0.6875-0.79688-1.0293-1.19531c-16.11328,0-32.22559,0-48.33789,0
				c-4.92676,4.96094-9.8418,9.93164-14.78223,14.87695c-0.75293,0.75391-1.50879,1.50586-2.2627,2.25977
				c-5.625,5.62305-11.25781,11.23828-16.88867,16.85547c0,16.14062,0,32.28125,0,48.42188
				c0.43555,0.38281,0.89648,0.73828,1.30469,1.14648c10.44043,10.44922,20.875,20.90625,31.31445,31.35742
				c0.41211,0.41211,0.85352,0.79492,1.28125,1.19141c10.00098-0.01758,20.00293-0.04102,30.00488-0.04883
				c6.11816-0.00586,12.23535,0.01172,18.35449,0.01953c5.60254-5.58789,11.21387-11.16797,16.80566-16.76562
				c0.125-0.125,0.25098-0.25,0.37598-0.375c5.49121-5.5,10.96094-11.01953,16.43848-16.53125
				c0.01074-16.15234,0.02148-32.30469,0.03223-48.45703C109.85547,27.86377,103.80957,21.77197,97.75391,15.69189z"/>
			<g>
				<path fill="#FFFFFF" d="M84.28125,41.72119c-1.9375,0.85938-4.01953,1.43945-6.20508,1.70117
					c2.23047-1.33789,3.94336-3.45508,4.75-5.97852c-2.08789,1.23828-4.40039,2.13867-6.86133,2.62305
					c-1.9707-2.10156-4.7793-3.41211-7.88672-3.41211c-5.9668,0-10.80469,4.83789-10.80469,10.80469
					c0,0.84766,0.0957,1.67188,0.2793,2.46289c-8.98047-0.45117-16.94141-4.75391-22.27148-11.29102
					c-0.92969,1.5957-1.46289,3.45312-1.46289,5.43359c0,3.74805,1.9082,7.05469,4.80664,8.99219
					c-1.77148-0.05469-3.4375-0.54102-4.89258-1.34961c-0.00195,0.04492-0.00195,0.08984-0.00195,0.13477
					c0,5.23438,3.72461,9.60156,8.66797,10.59375c-0.9082,0.24805-1.86133,0.38086-2.84766,0.38086
					c-0.69531,0-1.37305-0.06836-2.0332-0.19531c1.375,4.29297,5.36523,7.41797,10.09375,7.50391
					c-3.69727,2.89844-8.35742,4.62695-13.41992,4.62695c-0.87109,0-1.73047-0.05273-2.57617-0.15234
					c4.78125,3.06641,10.46094,4.85547,16.5625,4.85547c19.875,0,30.74414-16.46484,30.74414-30.74414
					c0-0.46875-0.01172-0.93359-0.03125-1.39844C81.00195,45.78955,82.83398,43.88721,84.28125,41.72119z"/>
			</g>
			<linearGradient id="SVGID_1_" gradientUnits="userSpaceOnUse" x1="-14.05273" y1="49.65771" x2="129.94714" y2="49.65771">
				<stop  offset="0" style="stop-color:#FFFFFF"/>
				<stop  offset="1" style="stop-color:#000000"/>
			</linearGradient>
			<path opacity="0.2" fill="url(#SVGID_1_)" d="M115.87207,82.40869c0.01074-16.15234,0.02148-32.30469,0.03223-48.45703
				c-6.04883-6.08789-12.09473-12.17969-18.15039-18.25977C92.93945,10.854,88.10938,6.03174,83.29297,1.1958
				c-0.36914-0.37305-0.6875-0.79688-1.0293-1.19531c-16.11328,0-32.22559,0-48.33789,0
				c-4.92676,4.96094-9.8418,9.93164-14.78223,14.87695c-0.75293,0.75391-1.50879,1.50586-2.2627,2.25977l82.17676,82.17773
				c0.125-0.125,0.25098-0.25,0.37598-0.375C104.9248,93.43994,110.39453,87.92041,115.87207,82.40869z"/>
		</g>
	</g>
</g>
<g id="set2">
</g>
<g id="Layer_5">
</g>
<g id="Layer_6">
</g>
<g id="Twitter_Logo_Silhouette_designed_by_Elegant_Themes_from_Flaticon.com">
</g>
</svg>
