<?xml version="1.0" encoding="utf-8"?>
<!-- Generator: Adobe Illustrator 16.0.0, SVG Export Plug-In . SVG Version: 6.00 Build 0)  -->
<!DOCTYPE svg PUBLIC "-//W3C//DTD SVG 1.1//EN" "http://www.w3.org/Graphics/SVG/1.1/DTD/svg11.dtd">
<svg version="1.1" xmlns="http://www.w3.org/2000/svg" xmlns:xlink="http://www.w3.org/1999/xlink" x="0px" y="0px"
	 width="115.89648px" height="116.10986px" viewBox="0 0 115.89648 116.10986" enable-background="new 0 0 115.89648 116.10986"
	 xml:space="preserve">
<g id="Layer_1">
</g>
<g id="social_market">
	<g>
		<g>
			<path fill="#00AC82" d="M97.74609,15.69141c-4.81445-4.83789-9.64453-9.66016-14.46094-14.49609
				C82.91602,0.82324,82.59766,0.39941,82.25586,0C66.14258,0,50.03027,0,33.91797,0
				c-4.92676,4.96094-9.8418,9.93164-14.78223,14.87793c-0.75293,0.75391-1.50879,1.50488-2.2627,2.25879
				C11.24805,22.75977,5.61523,28.375-0.01562,33.99268c0,16.14062,0,32.28125,0,48.42188
				c0.43555,0.38281,0.89648,0.73828,1.30469,1.14648c10.44043,10.44922,20.875,20.90625,31.31445,31.35742
				c0.41211,0.41211,0.85352,0.79492,1.28125,1.19141c10.00098-0.01758,20.00293-0.04102,30.00488-0.04883
				c6.11816-0.00586,12.23535,0.01172,18.35449,0.01953c5.60254-5.58789,11.21387-11.16797,16.80566-16.76562
				c0.125-0.125,0.25098-0.25,0.37598-0.375c5.49121-5.5,10.96094-11.01953,16.43848-16.53125
				c0.01074-16.15234,0.02148-32.30469,0.03223-48.45703C109.84766,27.86328,103.80176,21.77246,97.74609,15.69141z"/>
			<g>
				<g>
					<path fill="#FFFFFF" d="M84.71777,57.72119c-1.0625,0.28125-2.16406,0.47461-3.30664,0.58203
						c-5.4707,0.51172-10.08398-1.08203-13.12695-5.93359c-1.82031-2.90234-2.32031-6.16406-2.11523-9.54688
						c0.08203-1.35352,0.33008-2.67188,1.04883-3.85352c0.66992-1.09961,1.58789-1.82031,2.93359-1.86719
						c1.91992-0.06836,3.25195,1.11328,3.78125,3.42578c0.68164,2.96875,0.2168,5.87695-0.59961,8.74023
						c-0.08594,0.29102-0.24023,0.9082-0.24023,0.9082s0.39453,0.44727,0.67773,0.73242
						c1.97852,1.99023,4.42188,2.44336,7.08398,2.23047c0.41406-0.0332,0.99414-0.08789,0.99414-0.08789
						s0.26953-0.66406,0.37305-0.95117c1.43164-3.91406,2.02148-7.92188,1.59375-12.08398
						c-0.60742-5.93555-3.75391-11.104-11.32812-11.87158c-6.77539-0.68652-12.39453,2.43604-14.75391,8.90479
						c-1.35352,3.71289-1.42188,7.52148-0.73438,11.35547c1.15234,6.41211,4.16797,11.62109,9.94141,14.96875
						c0.57617,0.33398,0.58203,0.59766,0.30078,1.13086c-2.3457,4.46484-5.14648,8.61133-8.53906,12.35352
						c-1.46094,1.61133-1.44922,1.5957-2.82227-0.14258c-6.91211-8.75-10.71875-18.84766-12.87305-29.66211
						c-0.58984-2.95898-1.07422-5.92578-1.44531-8.92188l-0.08398-1.03516l-10.31445-0.00781l0.08398,0.58789
						c1.30273,9.3125,3.27344,18.45508,6.75977,27.22266c2.56445,6.44336,5.79297,12.49219,10.47266,17.67969
						c1.52344,1.6875,3.18945,3.21094,5.11133,4.44531c2.24805,1.45117,4.44922,1.35547,6.60938-0.15625
						c0.61719-0.43164,1.21289-0.90234,1.77148-1.40625c5.95117-5.38867,10.75781-11.65625,14.39453-18.81055
						c0.2832-0.55859,0.57812-0.81445,1.24805-0.81836c1.50977-0.00586,3.01172-0.17969,4.50391-0.43164
						c0.87695-0.14648,1.74219-0.32617,2.59961-0.54297V57.72119L84.71777,57.72119z"/>
				</g>
			</g>
			<linearGradient id="SVGID_1_" gradientUnits="userSpaceOnUse" x1="-14.06055" y1="49.65771" x2="129.93933" y2="49.65771">
				<stop  offset="0" style="stop-color:#FFFFFF"/>
				<stop  offset="1" style="stop-color:#000000"/>
			</linearGradient>
			<path opacity="0.2" fill="url(#SVGID_1_)" d="M115.86426,82.40869c0.01074-16.15234,0.02148-32.30469,0.03223-48.45703
				c-6.04883-6.08838-12.09473-12.1792-18.15039-18.26025c-4.81445-4.83789-9.64453-9.66016-14.46094-14.49609
				C82.91602,0.82324,82.59766,0.39941,82.25586,0C66.14258,0,50.03027,0,33.91797,0
				c-4.92676,4.96094-9.8418,9.93164-14.78223,14.87793c-0.75293,0.75391-1.50879,1.50488-2.2627,2.25879L99.0498,99.31494
				c0.125-0.125,0.25098-0.25,0.37598-0.375C104.91699,93.43994,110.38672,87.92041,115.86426,82.40869z"/>
		</g>
	</g>
</g>
<g id="set2">
</g>
<g id="Layer_5">
</g>
<g id="Layer_6">
</g>
<g id="Twitter_Logo_Silhouette_designed_by_Elegant_Themes_from_Flaticon.com">
</g>
</svg>
