<?xml version="1.0" encoding="utf-8"?>
<!-- Generator: Adobe Illustrator 16.0.0, SVG Export Plug-In . SVG Version: 6.00 Build 0)  -->
<!DOCTYPE svg PUBLIC "-//W3C//DTD SVG 1.1//EN" "http://www.w3.org/Graphics/SVG/1.1/DTD/svg11.dtd">
<svg version="1.1" xmlns="http://www.w3.org/2000/svg" xmlns:xlink="http://www.w3.org/1999/xlink" x="0px" y="0px"
	 width="115.89648px" height="116.10986px" viewBox="0 0 115.89648 116.10986" enable-background="new 0 0 115.89648 116.10986"
	 xml:space="preserve">
<g id="Layer_1">
</g>
<g id="social_market">
	<g>
		<g>
			<path fill="#C62E25" d="M97.75391,15.69189C92.93945,10.854,88.10938,6.03174,83.29297,1.1958
				c-0.36914-0.37305-0.6875-0.79688-1.0293-1.19531c-16.11328,0-32.22559,0-48.33789,0
				c-4.92676,4.96094-9.8418,9.93164-14.78223,14.87695c-0.75293,0.75391-1.50879,1.50586-2.2627,2.25977
				c-5.625,5.62305-11.25781,11.23828-16.88867,16.85547c0,16.14062,0,32.28125,0,48.42188
				c0.43555,0.38281,0.89648,0.73828,1.30469,1.14648c10.44043,10.44922,20.875,20.90625,31.31445,31.35742
				c0.41211,0.41211,0.85352,0.79492,1.28125,1.19141c10.00098-0.01758,20.00293-0.04102,30.00488-0.04883
				c6.11816-0.00586,12.23535,0.01172,18.35449,0.01953c5.60254-5.58789,11.21387-11.16797,16.80566-16.76562
				c0.125-0.125,0.25098-0.25,0.37598-0.375c5.49121-5.5,10.96094-11.01953,16.43848-16.53125
				c0.01074-16.15234,0.02148-32.30469,0.03223-48.45703C109.85547,27.86377,103.80957,21.77197,97.75391,15.69189z"/>
			<path fill="#FFFFFF" d="M77.8125,38.22119H38.08398c-4.67773,0-8.46875,3.79492-8.46875,8.47461v22.71875
				c0,4.67969,3.79102,8.47266,8.46875,8.47266H77.8125c4.67773,0,8.46875-3.79297,8.46875-8.47266V46.6958
				C86.28125,42.01611,82.49023,38.22119,77.8125,38.22119z M52.28125,67.64111v-21.3418l16.18262,10.66992L52.28125,67.64111z"/>
			<linearGradient id="SVGID_1_" gradientUnits="userSpaceOnUse" x1="-14.05273" y1="49.65771" x2="129.94714" y2="49.65771">
				<stop  offset="0" style="stop-color:#FFFFFF"/>
				<stop  offset="1" style="stop-color:#000000"/>
			</linearGradient>
			<path opacity="0.2" fill="url(#SVGID_1_)" d="M115.87207,82.40869c0.01074-16.15234,0.02148-32.30469,0.03223-48.45703
				c-6.04883-6.08789-12.09473-12.17969-18.15039-18.25977C92.93945,10.854,88.10938,6.03174,83.29297,1.1958
				c-0.36914-0.37305-0.6875-0.79688-1.0293-1.19531c-16.11328,0-32.22559,0-48.33789,0
				c-4.92676,4.96094-9.8418,9.93164-14.78223,14.87695c-0.75293,0.75391-1.50879,1.50586-2.2627,2.25977l82.17676,82.17773
				c0.125-0.125,0.25098-0.25,0.37598-0.375C104.9248,93.43994,110.39453,87.92041,115.87207,82.40869z"/>
		</g>
	</g>
</g>
<g id="set2">
</g>
<g id="Layer_5">
</g>
<g id="Layer_6">
</g>
<g id="Twitter_Logo_Silhouette_designed_by_Elegant_Themes_from_Flaticon.com">
</g>
</svg>
