<svg xmlns="http://www.w3.org/2000/svg" width="32" height="31.999" viewBox="0 0 32 31.999"><g><radialGradient id="a" cx="16" cy="15.999" r="13.734" gradientUnits="userSpaceOnUse"><stop offset="0" stop-color="#48669F"/><stop offset="1" stop-color="#3D5D7D"/></radialGradient><path d="M28.567 8.787c-.255.97-.375 1.965-.548 2.952-.428 2.436-.88 4.87-1.27 7.315-.514 3.248-.815 6.516-.808 9.807 0 .373-.06.51-.477.504-2.015-.025-4.03-.018-6.043-.002-.354.002-.49-.06-.452-.46.145-1.458.25-2.923.373-4.384.008-.137.052-.275-.075-.432-.24.068-.296.305-.4.484-1.215 2.068-2.756 3.81-5.042 4.707-2.79 1.097-5.503 1.016-8.03-.776-.268-.192-.51-.424-.766-.636-2.092-2.354-2.625-5.183-2.47-8.206.252-4.79 1.856-9.043 5.218-12.526 2.384-2.475 5.358-3.943 8.712-4.665 1.53-.33 3.083-.493 4.64-.468 2.666.04 5.302.348 7.87 1.11.37.11.524.216.44.67-.327 1.66-.587 3.336-.873 5.005zM10.584 19.71c.033.657.247 1.267.535 1.85.714 1.44 2.19 1.964 3.663 1.312.872-.385 1.56-1 2.14-1.736 1.244-1.566 2.06-3.333 2.536-5.283.356-1.473.765-2.935.994-4.435.254-1.285.508-2.57.76-3.853.054-.267-.01-.41-.303-.49-2.2-.617-4.202-.24-5.963 1.223-2.352 1.954-3.607 4.544-4.232 7.473-.278 1.3-.406 2.616-.13 3.94z" fill-rule="evenodd" clip-rule="evenodd" fill="url(#a)"/><path fill-rule="evenodd" clip-rule="evenodd" fill="none" d="M0 0h32v32H0z"/></g></svg>