<svg xmlns="http://www.w3.org/2000/svg" width="32" height="31.999" viewBox="0 0 32 31.999"><g><path d="M5.886 18.412c-.662-.598-.977-1.53-.986-2.417.01-.878.324-1.81.986-2.407.444-.39 1.095-.672 1.7-.716.4-.02.76.022 1.074.108.77.207 1.3.684 1.767 1.04l1.918-1.863c-.184-.325-.713-.78-1.008-1.007-1.484-1.14-3.598-1.388-5.42-.878-.292.076-.563.185-.833.303-1.367.596-2.212 1.463-2.884 2.764-.715 1.375-.715 3.944 0 5.32.672 1.3 1.517 2.168 2.884 2.765.27.118.54.216.834.303 1.82.51 3.935.26 5.42-.878.294-.237.823-.682 1.007-1.008l-1.918-1.865c-.466.36-.997.836-1.767 1.04-.313.09-.673.132-1.074.11-.606-.045-1.256-.336-1.7-.715zm16.8-6.6c-.41-.793-1.05-1.302-1.777-1.562-1.64-.596-3.72.043-4.793 1.453V10.24h-3.283v11.457h3.283V14.88c0-1.052.856-1.92 1.91-1.92 1.05 0 1.917.868 1.917 1.92v6.828h3.284v-6.85c0-1.05.867-1.918 1.918-1.918 1.052 0 1.908.867 1.908 1.92V21.707h3.283V14.144c0-2.29-1.203-3.492-2.687-3.893-1.495-.4-3.284.022-4.423.998-.205.172-.378.356-.54.563z" fill="#E86324"/><path fill-rule="evenodd" clip-rule="evenodd" fill="none" d="M0 0h32v32H0z"/></g></svg>