<svg xmlns="http://www.w3.org/2000/svg" width="32" height="31.999" viewBox="0 0 32 31.999"><g><path d="M8.117 3.167c-.405 0-.797.16-1.084.447s-.45.677-.45 1.08l-.036 22.607c-.002.632.396 1.21.986 1.434.59.225 1.27.06 1.69-.414l6.7-7.548h4.78c.347 0 .687-.12.957-.338.27-.218.46-.52.537-.86l3.22-14.49c.1-.45-.01-.928-.298-1.29-.29-.36-.73-.573-1.19-.574L8.12 3.167h-.003zM9.9 5.91h.004l11.757.038c.16 0 .317.076.416.2.1.124.14.293.103.448l-.732 3.288c-.053.234-.28.416-.52.416h-5.479c-.244-.002-.592-.007-.697.318-.1.305-.404 1.556-.404 1.8 0 .248.1.486.273.66.174.17.412.267.655.265h4.742c.16 0 .316.076.416.2.1.124.14.293.104.45l-.776 3.48c-.052.235-.28.42-.52.42h-4.028c-.26 0-.514.112-.688.31l-.03.03-5.14 5.88c.004-.01 0-17.67 0-17.67 0-.28.264-.533.542-.533z" fill="#F94877"/><path fill-rule="evenodd" clip-rule="evenodd" fill="none" d="M0 0h32v32H0z"/></g></svg>