<svg xmlns="http://www.w3.org/2000/svg" width="32" height="31.999" viewBox="0 0 32 31.999"><g><g fill="#E02F2F"><path d="M16.363 18.063c-.767-.54-2.23-1.858-2.23-2.634 0-.908.26-1.355 1.625-2.422 1.4-1.094 2.39-2.887 2.39-4.677 0-2.128-.948-3.434-2.728-5.143h2.686L20 2.333h-8.468c-3.796 0-7.367 2.872-7.367 6.202 0 3.405 2.587 6.15 6.45 6.15.268 0 .528-.005.784-.023-.252.48-.43 1.02-.43 1.58 0 .946.508 1.714 1.15 2.34-.484 0-.955.015-1.467.015-4.703 0-8.32 2.992-8.32 6.098 0 3.06 3.967 4.973 8.668 4.973 5.36 0 8.32-3.04 8.32-6.1.002-2.455-.72-3.922-2.957-5.505zM11.84 13.82c-2.183-.065-4.255-2.44-4.632-5.304-.376-2.866 1.086-5.058 3.267-4.994 2.182.067 4.254 2.365 4.632 5.23.375 2.866-1.088 5.133-3.268 5.068zm-.856 14.493c-3.25 0-5.598-2.057-5.598-4.527 0-2.42 2.91-4.438 6.162-4.403.758.01 1.465.13 2.105.338 1.766 1.23 3.03 1.923 3.39 3.32.064.283.103.576.103.873 0 2.47-1.59 4.4-6.162 4.4zM25.396 14.29v-4.27h-1.708v4.27h-4.27V16h4.27v4.27h1.708V16h4.27v-1.71z"/></g><path fill-rule="evenodd" clip-rule="evenodd" fill="none" d="M0 0h32v32H0z"/></g></svg>