<svg xmlns="http://www.w3.org/2000/svg" width="32" height="31.999" viewBox="0 0 32 31.999"><g><path d="M24.362 5.725c-.235-.807-.968-3.463-1.687-3.72-1.28 0-2.433-.01-3.72 0-.456.002-1.872 2.4-2.036 2.79-.897 2.152-1.223 3.345-1.862 5.58-.673 2.363-1.31 4.857-1.86 7.442-.245-.413-.763-1.547-.93-1.86-1.22-2.333-1.57-4.183-2.79-6.51-1.228-2.344-1.08-3.227-3.72-2.792-.656.106-2.186.66-2.79.93-.3.137-.93.698-.93 1.86 0 5.466 0 10.58.93 15.813.57 3.73.155 4.157 3.72 2.79.178-.07-.178.074 0 0 1.86-.93 2.936-.94 2.79-1.86-.255-1.593-.723-3.98-.93-5.58.074-.007-.075.006 0 0 .93 0 2.69 2.88 3.72 4.65.848 1.442 1.86 1.86 2.79 1.86 3.722 0 4.65-.93 4.65-1.86s-.04-3.01 0-3.722c0-1.86-.086-6.774 0-7.44 1.614 5.16 3.153 9.913 4.65 14.882.262.868 1.81 1.202 2.734.93 1.687 0 3.062-.608 2.85-1.34-1.86-6.405-2.574-10.433-3.723-15.403-.653-2.838-.928-3.72-1.858-7.44z" fill="#E71E27"/><path fill-rule="evenodd" clip-rule="evenodd" fill="none" d="M0 0h32v32H0z"/></g></svg>