<svg xmlns="http://www.w3.org/2000/svg" width="32" height="31.999" viewBox="0 0 32 31.999"><g fill-rule="evenodd" clip-rule="evenodd"><g fill="#88AB27"><path d="M12.206 20.815c.983.52 2.05.798 3.13 1.005.844.16 1.697.27 2.558.234 3.264-.14 6.26-1.118 8.948-2.973.98-.673 2.323-.233 2.603.844.17.668-.057 1.4-.67 1.82-2.394 1.628-5 2.753-7.854 3.288-1.497.28-3.005.34-4.526.246-1.267-.078-2.478-.392-3.686-.736-1.405-.4-2.68-1.092-3.954-1.783-1-.667-1.99-1.347-2.89-2.148-1.195-1.062-2.263-2.237-3.158-3.56-.42-.626-.17-1.584.508-2.13.58-.466 1.444-.42 1.992.097.42.395.71.895 1.082 1.332.696.82 1.45 1.576 2.276 2.255 1.046.858 2.185 1.58 3.424 2.133.07.03.145.05.218.075zM11.555 11.944C10.107 11.938 8.9 10.762 8.93 9.33c.033-1.418 1.076-2.682 2.66-2.65 1.528.028 2.627 1.137 2.627 2.658 0 1.493-1.04 2.608-2.662 2.606zM24.397 9.888c.38.925.373 1.82-.2 2.675-.83 1.235-2.65 1.522-3.813.6-.517-.485-.88-1.044-.98-1.77-.19-1.35.822-2.722 2.172-2.92 1.274-.188 2.173.362 2.82 1.415z"/></g><path fill="none" d="M0 0h32v32H0z"/></g></svg>