<svg xmlns="http://www.w3.org/2000/svg" width="32" height="31.999" viewBox="0 0 32 31.999"><g><path d="M30.037 25.15h-9.85V23.04c0-2.712 2.232-4.905 4.945-4.905 2.71 0 4.904 2.193 4.904 4.905v2.113zM5.432 19.53c-1.954 0-3.51-1.556-3.51-3.51 0-1.954 1.556-3.51 3.51-3.51s3.51 1.556 3.51 3.51c0 1.955-1.556 3.51-3.51 3.51zm9.132-1.395c-2.313 0-4.23-1.914-4.23-4.227 0-2.354 1.916-4.227 4.23-4.227 2.353 0 4.227 1.873 4.227 4.226 0 2.313-1.873 4.227-4.226 4.227zm10.57-1.395c-2.714 0-4.947-2.234-4.947-4.946 0-2.71 2.233-4.944 4.946-4.944 2.71 0 4.944 2.233 4.944 4.944 0 2.712-2.233 4.946-4.944 4.946zM8.94 25.15H1.924v-.676c0-1.955 1.555-3.55 3.51-3.55 1.913 0 3.51 1.595 3.51 3.55v.677zm5.624-5.622c2.312 0 4.227 1.915 4.227 4.228v1.396h-8.454v-1.396c0-2.313 1.915-4.228 4.228-4.228z" fill="#0D2636"/><path fill-rule="evenodd" clip-rule="evenodd" fill="none" d="M0 0h32v32H0z"/></g></svg>