<svg xmlns="http://www.w3.org/2000/svg" width="32" height="31.999" viewBox="0 0 32 31.999"><g><path d="M16.66 1.937C8.983 1.937 5.112 7.44 5.112 12.03c0 2.777 1.053 5.25 3.308 6.17.372.15.703.005.812-.404.074-.282.25-.998.33-1.296.107-.405.064-.546-.233-.9-.652-.767-1.067-1.76-1.067-3.168 0-4.082 3.054-7.737 7.953-7.737 4.34 0 6.722 2.65 6.722 6.19 0 4.66-2.062 8.59-5.12 8.59-1.69 0-2.956-1.396-2.55-3.11.484-2.048 1.425-4.256 1.425-5.735 0-1.322-.71-2.424-2.178-2.424-1.73 0-3.116 1.787-3.116 4.18 0 1.526.515 2.558.515 2.558l-2.08 8.804c-.615 2.612-.092 5.814-.047 6.137.025.193.272.238.384.094.16-.21 2.22-2.75 2.917-5.288.198-.718 1.136-4.44 1.136-4.44.562 1.072 2.202 2.014 3.946 2.014 5.192 0 8.717-4.734 8.717-11.07-.003-4.796-4.063-9.26-10.23-9.26z" fill="#CA2028"/><path fill-rule="evenodd" clip-rule="evenodd" fill="none" d="M0 0h32v32H0z"/></g></svg>