<svg xmlns="http://www.w3.org/2000/svg" width="32" height="31.999" viewBox="0 0 32 31.999"><g><path d="M11.388 16c1.02 0 1.854.836 1.854 1.854 0 1.018-.835 1.828-1.854 1.828s-1.83-.81-1.83-1.828c0-1.02.81-1.854 1.83-1.854zm9.223 0c-1.02 0-1.828.836-1.828 1.854 0 1.018.81 1.828 1.83 1.828 1.018 0 1.853-.81 1.853-1.828 0-1.02-.835-1.854-1.854-1.854z" fill="#E1584B"/><path d="M10.84 22.632c-.42-.314-.472-.888-.157-1.28.287-.418.888-.47 1.28-.156 1.045.81 2.718 1.254 4.05 1.254 1.307 0 2.98-.444 4.05-1.254.392-.313.968-.262 1.28.156.313.393.235.966-.156 1.28-1.36 1.07-3.477 1.67-5.174 1.67-1.725 0-3.816-.6-5.174-1.67zm13.533-10.08c-2.037-1.174-4.6-1.905-7.42-2.062l1.49-4.413 4.022 1.175c0 1.776 1.438 3.212 3.214 3.212s3.24-1.436 3.24-3.212c0-1.802-1.464-3.238-3.24-3.238-1.125 0-2.117.6-2.69 1.462L18.1 4.066c-.47-.156-.967.105-1.124.575l-1.96 5.85c-2.795.157-5.355.888-7.394 2.062-.653-.705-1.62-1.148-2.69-1.148-2.04 0-3.685 1.645-3.685 3.68 0 1.384.782 2.586 1.906 3.212-.053.314-.08.627-.08.94 0 4.83 5.802 8.747 12.936 8.747 7.106 0 12.908-3.917 12.908-8.747 0-.313-.026-.626-.078-.94 1.15-.626 1.907-1.828 1.907-3.21 0-2.038-1.647-3.682-3.686-3.682-1.07 0-2.01.444-2.69 1.15zm-8.36-.234c6.088 0 11.053 3.082 11.053 6.92 0 3.81-4.965 6.892-11.053 6.892-6.115 0-11.08-3.08-11.08-6.893 0-3.838 4.964-6.92 11.08-6.92zm12.254 4.15c-.52-1.043-1.306-2.01-2.325-2.845.313-.235.705-.392 1.124-.392 1.02 0 1.83.837 1.83 1.855 0 .55-.237 1.045-.63 1.384zm-22.21-2.844c-1.02.836-1.803 1.802-2.325 2.846-.392-.34-.627-.835-.627-1.383 0-1.02.836-1.854 1.83-1.854.443-.002.836.156 1.123.39zM25.68 8.637c-.757 0-1.384-.626-1.384-1.384 0-.784.627-1.384 1.384-1.384.758 0 1.386.6 1.386 1.383 0 .757-.628 1.384-1.386 1.384z" fill="#0D2636"/><path fill-rule="evenodd" clip-rule="evenodd" fill="none" d="M0 0h32v32H0z"/></g></svg>