<svg xmlns="http://www.w3.org/2000/svg" width="32" height="31.998" viewBox="0 0 32 31.998"><g><g fill="#EF4E23"><path d="M25.556 16v4.777c0 .88-.712 1.593-1.593 1.593-.88 0-1.592-.713-1.592-1.593V16l-2.39.795L17.593 16v4.777c0 3.518 2.853 6.37 6.37 6.37 3.52 0 6.37-2.853 6.37-6.37V16h-4.776zM17.593 14.406l2.39-.796 2.39.796V11.22c0-3.518-2.855-6.37-6.372-6.37-3.518 0-6.37 2.853-6.37 6.37v9.557c0 .88-.712 1.593-1.592 1.593-.88 0-1.593-.713-1.593-1.593V16h-4.78v4.777c0 3.518 2.854 6.37 6.372 6.37s6.37-2.853 6.37-6.37V11.22c0-.88.712-1.593 1.593-1.593s1.593.713 1.593 1.593v3.186z"/></g><path fill-rule="evenodd" clip-rule="evenodd" fill="none" d="M0 0h32v31.998H0z"/></g></svg>