<svg xmlns="http://www.w3.org/2000/svg" width="32" height="31.998" viewBox="0 0 32 31.998"><g><path d="M16.867 2.132v6.934H23.8V13.4h-6.933v6.934c0 1.61.152 2.902.324 3.36.172.456.487.82.953 1.096.616.37 1.317.555 2.11.555 1.406 0 3.042-.478 4.414-1.544v4.335c-1.155.723-2.48 1.17-3.443 1.396-.962.225-2.003.337-3.122.337-1.17 0-2.298-.13-3.368-.48-.977-.322-1.52-.678-2.21-1.27-.69-.595-1.025-1.19-1.29-1.86-.267-.666-.435-2.053-.435-3.323V13.4H7.332V9.065c1.11-.08 2.028-.395 2.804-1.054.78-.663 1.404-1.458 1.873-2.386.473-.93.523-2.066.523-3.493h4.334z" fill="#44546A"/><path fill-rule="evenodd" clip-rule="evenodd" fill="none" d="M0 0h32v31.998H0z"/></g></svg>