<svg xmlns="http://www.w3.org/2000/svg" width="32" height="31.998" viewBox="0 0 32 31.998"><g><path d="M30 7.314c-1.03.457-2.137.767-3.3.904 1.186-.71 2.1-1.837 2.527-3.177-1.11.658-2.34 1.138-3.647 1.394-1.05-1.116-2.543-1.813-4.195-1.813-3.172 0-5.744 2.572-5.744 5.745 0 .45.053.89.15 1.31-4.775-.24-9.01-2.527-11.842-6.002-.494.848-.777 1.835-.777 2.888 0 1.995 1.016 3.752 2.556 4.783-.94-.03-1.825-.288-2.6-.72v.072c0 2.785 1.978 5.106 4.606 5.635-.482.13-.99.2-1.513.2-.374 0-.73-.035-1.08-.1.728 2.278 2.852 3.94 5.363 3.987-1.965 1.54-4.44 2.46-7.133 2.46-.464 0-.922-.026-1.37-.08 2.542 1.628 5.562 2.58 8.806 2.58 10.564 0 16.345-8.754 16.345-16.345 0-.25-.008-.5-.018-.746C28.255 9.48 29.23 8.468 30 7.314z" fill="#55ACEE"/><path fill-rule="evenodd" clip-rule="evenodd" fill="none" d="M0 0h32v31.998H0z"/></g></svg>