<svg xmlns="http://www.w3.org/2000/svg" width="32" height="31.999" viewBox="0 0 32 31.999"><g><path d="M20.085 7.65c0-2.106 4.236-3.2 4.236.366-.012 1.956-.28 3.763-.712 5.414h4.405c.335-1.994.32-3.967.32-6.29C28.336.596 16-.494 16 7.798c0 5.82 2.803 8.885 5.733 10.5C19.29 22.987 16 25.543 16 25.543 6.788 18.2 7.68 5.76 7.68 5.76H3.665c.076 16.803 9.142 22.692 10.257 23.566 1.114.874 1.338.802 2.676.728 1.335-.072 4.382-3.056 8.097-8.725.357-.552.68-1.077.972-1.588 1.556.34 2.67.35 2.67.35v-3.565c-7.807-.73-8.252-7.273-8.252-8.876z" fill="#00B286"/><path fill-rule="evenodd" clip-rule="evenodd" fill="none" d="M0 0h32v32H0z"/></g></svg>