<svg xmlns="http://www.w3.org/2000/svg" width="32" height="31.999" viewBox="0 0 32 31.999"><g><path d="M15.692 24.1h1.712s.517-.058.78-.342c.244-.26.236-.75.236-.75s-.033-2.298 1.033-2.636c1.05-.333 2.4 2.22 3.83 3.2 1.08.744 1.903.582 1.903.582l3.824-.055s2.002-.124 1.053-1.697c-.078-.128-.554-1.164-2.844-3.29-2.4-2.227-2.078-1.866.81-5.716 1.76-2.345 2.464-3.775 2.244-4.39-.21-.584-1.504-.43-1.504-.43l-4.307.028s-.318-.045-.556.097c-.23.14-.38.46-.38.46s-.682 1.816-1.59 3.36c-1.918 3.255-2.686 3.428-2.998 3.225-.73-.47-.548-1.893-.548-2.902 0-3.157.48-4.472-.933-4.813-.47-.112-.814-.188-2.012-.2-1.535-.016-2.836.006-3.572.366-.49.24-.867.773-.637.806.284.038.928.174 1.27.64.44.6.426 1.948.426 1.948s.254 3.714-.594 4.175c-.578.316-1.376-.33-3.086-3.283C8.38 10.97 7.72 9.297 7.72 9.297s-.125-.31-.353-.48c-.275-.202-.66-.265-.66-.265l-4.094.025s-.613.02-.838.285c-.202.238-.016.73-.016.73s3.203 7.495 6.83 11.27c3.326 3.466 7.102 3.238 7.102 3.238z" fill="#4C75A3"/><path fill-rule="evenodd" clip-rule="evenodd" fill="none" d="M0 0h32v32H0z"/></g></svg>