<svg xmlns="http://www.w3.org/2000/svg" width="32" height="31.999" viewBox="0 0 32 31.999"><g><g fill="#CF2200"><path d="M24.712 15.363H7.288c-2.77 0-5.016 2.248-5.016 5.017v4.03c0 2.77 2.245 5.017 5.016 5.017h17.424c2.77 0 5.016-2.247 5.016-5.017v-4.03c0-2.77-2.246-5.017-5.016-5.017zM10.948 18.5h-1.62v8.05H7.764V18.5H6.145v-1.368h4.804v1.37zm4.576 8.05h-1.388v-.76c-.258.28-.524.496-.802.642-.278.15-.546.22-.807.22-.323 0-.562-.1-.726-.31-.16-.208-.243-.516-.243-.93V19.6h1.39v5.33c0 .165.03.283.085.355.06.076.155.11.286.11.1 0 .23-.048.386-.145.157-.1.3-.222.432-.374V19.6h1.388v6.95zm5.04-1.434c0 .49-.108.868-.326 1.13s-.534.394-.943.394c-.274 0-.517-.05-.728-.15-.212-.102-.412-.257-.594-.472v.533h-1.405v-9.418h1.405v3.033c.188-.21.387-.373.594-.48.213-.113.426-.166.642-.166.438 0 .773.145 1.005.44.232.297.35.73.35 1.3v3.856zm4.817-1.873h-2.656v1.31c0 .365.045.62.136.76.093.144.25.213.472.213.23 0 .39-.06.482-.18.09-.12.138-.384.138-.793v-.315h1.43v.355c0 .713-.174 1.25-.524 1.61-.346.36-.865.538-1.558.538-.623 0-1.113-.19-1.47-.57-.356-.38-.538-.906-.538-1.576v-3.122c0-.6.198-1.094.593-1.474.392-.38.897-.567 1.52-.567.636 0 1.125.176 1.466.527s.513.856.513 1.515v1.77zM23.344 20.645c-.22 0-.38.063-.476.192-.098.122-.145.33-.145.622v.702h1.228v-.703c0-.292-.048-.502-.145-.623-.094-.13-.25-.192-.46-.192zM18.554 20.62c-.098 0-.197.023-.294.068s-.192.118-.286.213v4.33c.11.11.222.198.33.247.106.048.217.075.335.075.17 0 .294-.05.374-.15.08-.098.12-.255.12-.478v-3.59c0-.235-.048-.412-.146-.533-.102-.118-.247-.18-.434-.18zM9.57 12.95h1.76V8.644l2.048-6.073H11.59l-1.09 4.15h-.11L9.244 2.57h-1.77L9.568 8.84zM15.763 13.143c.712 0 1.27-.187 1.675-.56.404-.374.606-.886.606-1.54V7.09c0-.584-.207-1.064-.618-1.435-.414-.368-.944-.555-1.593-.555-.71 0-1.275.177-1.697.527-.42.352-.63.822-.63 1.417v3.968c0 .65.204 1.166.615 1.552.41.385.96.58 1.643.58zm-.648-6.157c0-.166.06-.3.176-.405.123-.103.277-.152.47-.152.205 0 .373.05.5.153.128.106.19.24.19.406v4.172c0 .204-.062.366-.187.483s-.293.176-.504.176c-.208 0-.367-.056-.48-.174-.11-.114-.166-.276-.166-.485v-4.17zM20.403 13.062c.295 0 .597-.084.907-.245.314-.164.615-.402.9-.715v.85h1.563V5.294H22.21v5.81c-.145.167-.308.304-.48.412-.177.108-.323.16-.438.16-.146 0-.254-.04-.317-.122-.064-.08-.1-.212-.1-.39v-5.87H19.31v6.397c0 .456.092.798.272 1.024.187.23.457.346.82.346z"/></g><path fill-rule="evenodd" clip-rule="evenodd" fill="none" d="M0 0h32v32H0z"/></g></svg>