<?xml version="1.0" encoding="utf-8"?>
<!-- Generator: Adobe Illustrator 16.0.0, SVG Export Plug-In . SVG Version: 6.00 Build 0)  -->
<!DOCTYPE svg PUBLIC "-//W3C//DTD SVG 1.1//EN" "http://www.w3.org/Graphics/SVG/1.1/DTD/svg11.dtd">
<svg version="1.1" xmlns="http://www.w3.org/2000/svg" xmlns:xlink="http://www.w3.org/1999/xlink" x="0px" y="0px"
	 width="92.15234px" height="92.32324px" viewBox="0 0 92.15234 92.32324" enable-background="new 0 0 92.15234 92.32324"
	 xml:space="preserve">
<g id="Layer_1">
</g>
<g id="social_market">
	<path fill="#414042" d="M60.15723,21.56055c-1.22852-0.17188-2.45508-0.35352-3.68164-0.53125c-2.24414,0-4.48828,0-6.73047,0
		c-0.66797,0.42188-1.44531,0.20703-2.16016,0.31445c-5.16602,0.7832-9.90625,2.52344-14.08398,5.73047
		c-4.58398,3.51953-7.69727,8.05078-9.63867,13.46484c-1.04883,2.93164-1.76367,5.91016-1.92773,9.01953
		c-0.00586,0.14062,0.02344,0.30078-0.17578,0.3418c0,1.53516,0,3.07031,0,4.60547c0.17773,0.9375,0.32422,1.88281,0.53711,2.8125
		c0.63672,2.7832,1.80469,5.30469,3.86133,7.32812c1.7793,1.75391,3.92188,2.82812,6.41797,3.16016
		c0.06055,0.00781,0.10938,0.10547,0.16602,0.16211c1.47461,0,2.95117,0,4.42773,0c0.61133-0.17773,1.2207-0.37109,1.83789-0.52734
		c2.20898-0.55469,4.08398-1.69531,5.83008-3.13281c1.9043-1.56836,3.20117-3.5957,4.51172-5.62305
		c0.15234-0.23633,0.24023-0.61133,0.55859-0.5293c0.30078,0.07617,0.2207,0.45703,0.18359,0.70117
		c-0.24414,1.66211-0.22461,3.3457-0.49023,5.00977c-0.13867,0.88086-0.03906,1.80469-0.20703,2.69727
		c-0.06445,0.3418,0.02734,0.5293,0.45312,0.52734c3.60156-0.01758,7.20312-0.01367,10.80273-0.00195
		c0.36328,0,0.44531-0.13672,0.4375-0.4668c-0.01953-0.73633-0.01367-1.47461-0.00586-2.21289
		c0.03711-3.23242,0.375-6.44141,0.67578-9.66016c0.32031-3.38867,0.92383-6.72852,1.4668-10.08008
		c0.51367-3.16406,1.17773-6.30469,1.74414-9.46289c0.55469-3.10352,1.04883-6.2207,1.61719-9.32227
		c0.15625-0.85156,0.1543-1.74219,0.51758-2.55273c0-0.05859,0-0.11719,0-0.17773
		C64.83105,22.42969,62.51855,21.88867,60.15723,21.56055z M53.1416,31.96289c-0.87305,4.22656-1.50195,8.50391-2.51172,12.70312
		c-0.86719,3.60352-2.18555,7.0332-4.50977,9.94922c-1.26953,1.59375-2.76758,3.0332-4.89258,3.55273
		c-1.60938,0.39258-3.64258-0.38281-4.60352-1.7207c-1.01953-1.42188-1.42969-2.99805-1.5957-4.71289
		c-0.56836-5.83203,1.26367-10.97461,4.56445-15.63672c1.56445-2.20703,3.61328-3.97266,6.20703-4.95898
		c1.08203-0.41211,2.20703-0.66797,3.44141-0.51562c1.0918-0.21094,2.18359,0.18359,3.29492,0.3418
		C53.04785,31.03906,53.28613,31.26562,53.1416,31.96289z"/>
</g>
<g id="set2">
</g>
<g id="Layer_5">
</g>
<g id="Layer_6">
</g>
<g id="Twitter_Logo_Silhouette_designed_by_Elegant_Themes_from_Flaticon.com">
</g>
</svg>
