<?xml version="1.0" encoding="utf-8"?>
<!-- Generator: Adobe Illustrator 16.0.0, SVG Export Plug-In . SVG Version: 6.00 Build 0)  -->
<!DOCTYPE svg PUBLIC "-//W3C//DTD SVG 1.1//EN" "http://www.w3.org/Graphics/SVG/1.1/DTD/svg11.dtd">
<svg version="1.1" xmlns="http://www.w3.org/2000/svg" xmlns:xlink="http://www.w3.org/1999/xlink" x="0px" y="0px"
	 width="92.15234px" height="92.32324px" viewBox="0 0 92.15234 92.32324" enable-background="new 0 0 92.15234 92.32324"
	 xml:space="preserve">
<g id="Layer_1">
</g>
<g id="social_market">
	<path fill="#414042" d="M22.48242,50.38867c-1.61426-1.45605-2.38184-3.73242-2.40918-5.90234
		c0.02734-2.14453,0.79492-4.41992,2.40918-5.875c1.08496-0.95312,2.67285-1.6416,4.15527-1.74805
		c0.97949-0.05273,1.85254,0.05371,2.62012,0.26562c1.87891,0.50195,3.17578,1.66699,4.31348,2.54102l4.68457-4.55273
		c-0.4502-0.79395-1.74609-1.90527-2.46094-2.46094c-3.62598-2.7793-8.78711-3.3877-13.2334-2.14453
		c-0.71387,0.18555-1.37598,0.45117-2.03711,0.74219c-3.33496,1.45508-5.39941,3.57227-7.04004,6.74805
		c-1.74805,3.36133-1.74805,9.63281,0,12.99512c1.64062,3.1748,3.70508,5.29199,7.04004,6.74902
		c0.66113,0.29004,1.32324,0.52832,2.03711,0.74023c4.44629,1.24414,9.60742,0.63477,13.2334-2.14453
		c0.71484-0.58008,2.01074-1.66602,2.46094-2.46094l-4.68457-4.55273c-1.1377,0.875-2.43457,2.03906-4.31348,2.54297
		c-0.76758,0.21094-1.64062,0.31641-2.62012,0.26367C25.15527,52.02832,23.56738,51.31445,22.48242,50.38867L22.48242,50.38867z
		 M63.50488,34.27148c-1.00684-1.93262-2.56738-3.17676-4.3418-3.8125c-3.99609-1.45508-9.07715,0.10547-11.69727,3.54688v-3.57227
		h-8.01855v27.97363h8.01855V53.75V41.75977c0-2.56641,2.09082-4.68359,4.6582-4.68359c2.56641,0,4.68359,2.11719,4.68359,4.68359
		V53.75v4.68359h8.01953v-4.7373V41.70703c0-2.56641,2.11719-4.68457,4.68457-4.68457c2.56641,0,4.65723,2.11816,4.65723,4.68457
		v11.98926v4.7373h8.01953V40.01367v-0.05273c0-5.58398-2.9375-8.52148-6.5625-9.50195
		c-3.65234-0.97852-8.01953,0.05371-10.79883,2.43555C64.32422,33.31836,63.90039,33.76758,63.50488,34.27148L63.50488,34.27148z"/>
</g>
<g id="set2">
</g>
<g id="Layer_5">
</g>
<g id="Layer_6">
</g>
<g id="Twitter_Logo_Silhouette_designed_by_Elegant_Themes_from_Flaticon.com">
</g>
</svg>
