<?xml version="1.0" encoding="utf-8"?>
<!-- Generator: Adobe Illustrator 16.0.0, SVG Export Plug-In . SVG Version: 6.00 Build 0)  -->
<!DOCTYPE svg PUBLIC "-//W3C//DTD SVG 1.1//EN" "http://www.w3.org/Graphics/SVG/1.1/DTD/svg11.dtd">
<svg version="1.1" xmlns="http://www.w3.org/2000/svg" xmlns:xlink="http://www.w3.org/1999/xlink" x="0px" y="0px"
	 width="92.15234px" height="92.32324px" viewBox="0 0 92.15234 92.32324" enable-background="new 0 0 92.15234 92.32324"
	 xml:space="preserve">
<g id="Layer_1">
</g>
<g id="social_market">
	<g>
		<path fill="#414042" d="M72.75,48.12988c-0.36035,1.0127-0.9375,2.05078-1.6875,2.80762
			c-7.2793,7.36426-14.60547,14.68262-21.93945,21.98535c-2.68945,2.67285-6.85938,2.66602-9.55273-0.01074
			c-7.33691-7.30566-14.6543-14.62695-21.95801-21.96777c-2.68164-2.69043-2.69336-6.85742-0.0166-9.54883
			c7.30371-7.33691,14.62305-14.65625,21.95898-21.96484c2.61523-2.60352,6.73633-2.73633,9.34766-0.21484
			c3.41309,3.29102,6.71191,6.69531,10.06445,10.05273c-4.98242,4.97363-9.92578,9.9043-14.9043,14.86133
			c-2.11523-2.10742-4.27832-4.2666-6.43945-6.42969c-2.72852-2.73145-5.68945-2.73535-8.41406-0.01562
			c-1.29395,1.29395-2.59375,2.58008-3.88086,3.88281c-2.25488,2.28125-2.27734,5.42871-0.0166,7.70215
			c4.96973,4.99707,9.95312,9.99121,14.94336,14.97168c2.33496,2.33105,5.46777,2.31641,7.82129-0.03711
			c7.38965-7.38379,14.76953-14.77148,22.14941-22.15918c0.23145-0.23047,0.42285-0.51074,0.61328-0.75
			C72.72363,42.625,73.61914,45.68359,72.75,48.12988z M44.23242,49.12109c-0.125-0.00684-0.25391-0.01855-0.38281-0.03223
			c-0.18555-0.27344-0.33789-0.58105-0.56543-0.80859c-2.80957-2.83203-5.62988-5.65918-8.4541-8.47559
			c-1.01367-1.0127-2.04785-1.0166-3.05957-0.01855c-1.36621,1.3457-2.72168,2.71289-4.07715,4.07227
			c-1.06836,1.07812-1.08008,2.06055-0.02148,3.11914c4.93555,4.95312,9.875,9.90234,14.81641,14.8457
			c1.01953,1.02148,2.05273,1.0332,3.06641,0.02148c8.99902-8.99609,17.99219-17.99414,26.97949-26.99805
			c0.9873-0.98828,0.97168-1.98438-0.01758-2.98828c-1.28027-1.30566-2.58301-2.5957-3.87598-3.89062
			c-1.3418-1.34375-2.22266-1.34375-3.57031,0.00781c-6.75,6.74609-13.48828,13.49414-20.23145,20.25
			C44.5918,48.47949,44.43262,48.82715,44.23242,49.12109z"/>
	</g>
</g>
<g id="set2">
</g>
<g id="Layer_5">
</g>
<g id="Layer_6">
</g>
<g id="Twitter_Logo_Silhouette_designed_by_Elegant_Themes_from_Flaticon.com">
</g>
</svg>
