<?xml version="1.0" encoding="utf-8"?>
<!-- Generator: Adobe Illustrator 16.0.0, SVG Export Plug-In . SVG Version: 6.00 Build 0)  -->
<!DOCTYPE svg PUBLIC "-//W3C//DTD SVG 1.1//EN" "http://www.w3.org/Graphics/SVG/1.1/DTD/svg11.dtd">
<svg version="1.1" xmlns="http://www.w3.org/2000/svg" xmlns:xlink="http://www.w3.org/1999/xlink" x="0px" y="0px"
	 width="92.15234px" height="92.32324px" viewBox="0 0 92.15234 92.32324" enable-background="new 0 0 92.15234 92.32324"
	 xml:space="preserve">
<g id="Layer_1">
</g>
<g id="social_market">
</g>
<g id="set2">
	<g>
		<g>
			<g>
				<path fill="#414042" d="M49.59082,23.96777H35.84473c-6.1582,0-11.95703,4.66992-11.95703,10.07812
					c0,5.52539,4.19922,9.98828,10.4707,9.98828l1.27344-0.03906c-0.40625,0.77734-0.69922,1.6543-0.69922,2.56641
					c0,1.53711,0.82812,2.78125,1.87109,3.79688l-2.38281,0.02539c-7.63477-0.00391-13.50781,4.86328-13.50781,9.90039
					c0,4.9668,6.44141,8.07031,14.07227,8.07031c8.70117,0,13.50781-4.93945,13.50781-9.90234
					c0-3.98047-1.17578-6.36719-4.80664-8.93555c-1.24023-0.87891-3.61914-3.01758-3.61914-4.27539
					c0-1.47266,0.41992-2.19922,2.64062-3.93359c2.27148-1.77539,3.88086-4.27344,3.88086-7.17773
					c0-3.45703-1.53906-6.82812-4.43164-7.9375h4.35742L49.59082,23.96777z M44.79395,57.59668
					c0.10742,0.46094,0.16602,0.92969,0.16602,1.41992c0,4.01562-2.58398,7.14648-10,7.14648
					c-5.27734,0-9.08594-3.33789-9.08594-7.34961c0-3.93164,4.72461-7.20117,10.00195-7.14844
					c1.23047,0.01562,2.38086,0.20898,3.41992,0.54688C42.15918,54.2002,44.21582,55.3252,44.79395,57.59668z M36.34473,42.63184
					c-3.54297-0.10547-6.9082-3.96289-7.51953-8.61328c-0.60938-4.65234,1.76367-8.21094,5.30273-8.10547
					c3.54102,0.10547,6.9082,3.83789,7.51953,8.48828C42.26074,39.05371,39.88379,42.7373,36.34473,42.63184z"/>
				<polygon fill="#414042" points="63.59668,33.70996 63.59668,23.96777 60.31348,23.96777 60.31348,33.70996 50.46387,33.70996 
					50.46387,36.99316 60.31348,36.99316 60.31348,46.95215 63.59668,46.95215 63.59668,36.99316 73.44824,36.99316 
					73.44824,33.70996 				"/>
			</g>
		</g>
	</g>
</g>
<g id="Layer_5">
</g>
<g id="Layer_6">
</g>
<g id="Twitter_Logo_Silhouette_designed_by_Elegant_Themes_from_Flaticon.com">
</g>
</svg>
