<?xml version="1.0" encoding="utf-8"?>
<!-- Generator: Adobe Illustrator 16.0.0, SVG Export Plug-In . SVG Version: 6.00 Build 0)  -->
<!DOCTYPE svg PUBLIC "-//W3C//DTD SVG 1.1//EN" "http://www.w3.org/Graphics/SVG/1.1/DTD/svg11.dtd">
<svg version="1.1" xmlns="http://www.w3.org/2000/svg" xmlns:xlink="http://www.w3.org/1999/xlink" x="0px" y="0px"
	 width="92.15234px" height="92.32324px" viewBox="0 0 92.15234 92.32324" enable-background="new 0 0 92.15234 92.32324"
	 xml:space="preserve">
<g id="Layer_1">
</g>
<g id="social_market">
</g>
<g id="set2">
	<path fill="#414042" d="M61.69629,22.52832H27.26465c-3.53809,0-6.41797,2.87891-6.41797,6.41602v34.43164
		c0,3.53906,2.87988,6.41797,6.41797,6.41797h34.43164c3.53809,0,6.41797-2.87891,6.41797-6.41797V28.94434
		C68.11426,25.40723,65.23438,22.52832,61.69629,22.52832z M44.48047,57.70801c-5.82812,0-10.57031-4.74219-10.57031-10.57031
		c0-5.83008,4.74219-10.57031,10.57031-10.57031s10.57031,4.74023,10.57031,10.57031
		C55.05078,52.96582,50.30859,57.70801,44.48047,57.70801z M64.11133,39.33496h-9.5498
		c-2.41113-2.88672-6.03516-4.72656-10.08105-4.72656s-7.66992,1.83984-10.08105,4.72656h-9.5498v-9.17969
		c0-2.33203,1.89746-4.23047,4.22949-4.23047h30.80273c2.33203,0,4.22949,1.89844,4.22949,4.23047V39.33496L64.11133,39.33496z"/>
</g>
<g id="Layer_5">
</g>
<g id="Layer_6">
</g>
<g id="Twitter_Logo_Silhouette_designed_by_Elegant_Themes_from_Flaticon.com">
</g>
</svg>
