<?xml version="1.0" encoding="utf-8"?>
<!-- Generator: Adobe Illustrator 16.0.0, SVG Export Plug-In . SVG Version: 6.00 Build 0)  -->
<!DOCTYPE svg PUBLIC "-//W3C//DTD SVG 1.1//EN" "http://www.w3.org/Graphics/SVG/1.1/DTD/svg11.dtd">
<svg version="1.1" xmlns="http://www.w3.org/2000/svg" xmlns:xlink="http://www.w3.org/1999/xlink" x="0px" y="0px"
	 width="92.15234px" height="92.32324px" viewBox="0 0 92.15234 92.32324" enable-background="new 0 0 92.15234 92.32324"
	 xml:space="preserve">
<g id="Layer_1">
</g>
<g id="social_market">
</g>
<g id="set2">
	<g>
		<path id="LinkedIn_2_" fill="#414042" d="M67.42383,51.13379v16.99805h-9.86035V52.26465
			c0-3.99023-1.42188-6.70117-4.98926-6.70117c-2.72852,0-4.33789,1.83594-5.05664,3.60254
			c-0.25879,0.63574-0.33789,1.52734-0.33789,2.40723v16.55664h-9.84961c0,0,0.13184-26.86328,0-29.64648h9.85254v4.20215
			c-0.01367,0.03418-0.04297,0.06348-0.05566,0.10156h0.05566v-0.10156c1.31543-2.01953,3.64746-4.89746,8.88477-4.89746
			C62.56641,37.78809,67.42383,42.02441,67.42383,51.13379z M27.01562,24.19043c-3.37109,0-5.57812,2.21094-5.57812,5.12695
			c0,2.83789,2.14258,5.12305,5.45117,5.12305h0.05957c3.44531,0,5.5791-2.28516,5.5791-5.12305
			C32.46094,26.40137,30.39355,24.19043,27.01562,24.19043z M22.02539,68.13184h9.85449V38.48145h-9.85449V68.13184z"/>
	</g>
</g>
<g id="Layer_5">
</g>
<g id="Layer_6">
</g>
<g id="Twitter_Logo_Silhouette_designed_by_Elegant_Themes_from_Flaticon.com">
</g>
</svg>
