<?xml version="1.0" encoding="utf-8"?>
<!-- Generator: Adobe Illustrator 16.0.0, SVG Export Plug-In . SVG Version: 6.00 Build 0)  -->
<!DOCTYPE svg PUBLIC "-//W3C//DTD SVG 1.1//EN" "http://www.w3.org/Graphics/SVG/1.1/DTD/svg11.dtd">
<svg version="1.1" xmlns="http://www.w3.org/2000/svg" xmlns:xlink="http://www.w3.org/1999/xlink" x="0px" y="0px"
	 width="92.15234px" height="92.32324px" viewBox="0 0 92.15234 92.32324" enable-background="new 0 0 92.15234 92.32324"
	 xml:space="preserve">
<g id="Layer_1">
</g>
<g id="social_market">
</g>
<g id="set2">
	<path fill="#414042" d="M62.15918,24.86035c-0.41797-1.43066-1.63281-3.22266-2.90527-3.68066
		c-2.08203-0.74805-4.50391-0.67773-6.79004-0.65918c-0.80859,0.00586-2.06445,0.68262-2.35254,1.37402
		c-1.59375,3.82227-3.19336,7.66992-4.32715,11.64062c-1.19727,4.19336-1.86328,8.53516-2.83789,13.12305
		c-0.4375-0.73633-0.78516-1.26172-1.0791-1.81836c-2.16309-4.14258-4.30273-8.28906-6.46875-12.42188
		c-2.18066-4.1582-3.40332-4.77734-8.08984-4.00391c-1.16504,0.18848-2.35254,0.46484-3.42383,0.94727
		c-0.53418,0.24219-1.15137,1.01367-1.16895,1.56445c-0.33594,9.58203-0.7002,19.15625,0.7627,28.70215
		c1.00977,6.62207,2.23828,7.47656,8.56543,5.05469c0.31738-0.12402,0.60547-0.30176,0.9209-0.43457
		c1.42969-0.60156,2.08105-1.56543,1.82422-3.20215c-0.45508-2.82812-0.77246-5.67871-1.13965-8.52051
		c0.13184-0.00977,0.2666-0.02148,0.39844-0.03125c1.90723,3.10059,3.875,6.16406,5.70703,9.31055
		c1.50098,2.56055,3.25684,4.23438,6.54199,3.25586c1.27441-0.38184,2.74707-0.12305,4.01758-0.51172
		c0.88379-0.26855,1.91113-0.98828,2.29785-1.78516c0.53223-1.10254,0.66406-2.46094,0.73535-3.72168
		c0.30762-5.33496,0.51855-10.68262,0.79883-16.01855c0.04492-0.9834,0.24023-1.95898,0.39844-3.14062
		c2.86328,9.16016,5.6582,17.93652,8.32227,26.75586c0.46387,1.53906,0.99023,2.17578,2.63086,1.69238
		c2.27051-0.66504,4.57715-1.19727,6.44922-1.6748c-2.05859-9.08008-4.02734-17.91309-6.06641-26.7373
		C64.72461,34.88184,63.59668,29.82227,62.15918,24.86035z"/>
</g>
<g id="Layer_5">
</g>
<g id="Layer_6">
</g>
<g id="Twitter_Logo_Silhouette_designed_by_Elegant_Themes_from_Flaticon.com">
</g>
</svg>
