<?xml version="1.0" encoding="utf-8"?>
<!-- Generator: Adobe Illustrator 16.0.0, SVG Export Plug-In . SVG Version: 6.00 Build 0)  -->
<!DOCTYPE svg PUBLIC "-//W3C//DTD SVG 1.1//EN" "http://www.w3.org/Graphics/SVG/1.1/DTD/svg11.dtd">
<svg version="1.1" xmlns="http://www.w3.org/2000/svg" xmlns:xlink="http://www.w3.org/1999/xlink" x="0px" y="0px"
	 width="92.15234px" height="92.32324px" viewBox="0 0 92.15234 92.32324" enable-background="new 0 0 92.15234 92.32324"
	 xml:space="preserve">
<g id="Layer_1">
</g>
<g id="social_market">
	<g>
		<g>
			<path fill="#414042" d="M73.76367,51.65527c-1.19531-1.71289-3.55078-2.13379-5.26367-0.94043
				c-27.64062,19.26562-46.41016-6.91211-47.19531-8.03613c-1.18945-1.71094-3.54297-2.13672-5.25586-0.9502
				c-1.71875,1.18945-2.14648,3.54297-0.95703,5.26172c0.41797,0.60352,10.42773,14.81836,27.16211,17.83398
				c2.06836,0.37305,4.14062,0.55859,6.2168,0.55859c8.10938,0,16.27539-2.83398,24.35156-8.46387
				C74.53711,55.72461,74.95703,53.36914,73.76367,51.65527z"/>
			<circle fill="#414042" cx="57.68555" cy="33.77783" r="6.02588"/>
			<circle fill="#414042" cx="34.76367" cy="29.64307" r="6.02588"/>
		</g>
	</g>
</g>
<g id="set2">
</g>
<g id="Layer_5">
</g>
<g id="Layer_6">
</g>
<g id="Twitter_Logo_Silhouette_designed_by_Elegant_Themes_from_Flaticon.com">
</g>
</svg>
