<?xml version="1.0" encoding="utf-8"?>
<!-- Generator: Adobe Illustrator 16.0.0, SVG Export Plug-In . SVG Version: 6.00 Build 0)  -->
<!DOCTYPE svg PUBLIC "-//W3C//DTD SVG 1.1//EN" "http://www.w3.org/Graphics/SVG/1.1/DTD/svg11.dtd">
<svg version="1.1" xmlns="http://www.w3.org/2000/svg" xmlns:xlink="http://www.w3.org/1999/xlink" x="0px" y="0px"
	 width="92.15234px" height="92.32324px" viewBox="0 0 92.15234 92.32324" enable-background="new 0 0 92.15234 92.32324"
	 xml:space="preserve">
<g id="Layer_1">
</g>
<g id="social_market">
</g>
<g id="set2">
	<g>
		<path id="Myspace__x28_alt_x29__1_" fill="#414042" d="M56.90332,35.41016c-5.03125,0-9.11133-4.07031-9.11133-9.08887
			s4.08008-9.09082,9.11133-9.09082c5.0293,0,9.10938,4.07227,9.10938,9.09082S61.93262,35.41016,56.90332,35.41016
			L56.90332,35.41016z M49.4502,44.16895c0-5.02148-4.07812-9.08887-9.11133-9.08887s-9.10938,4.06738-9.10938,9.08887
			c0,0.20605,0.01562,0.40527,0.03125,0.60645h-0.03125V60.5293h18.2207V44.77539h-0.0332
			C49.43262,44.57422,49.4502,44.375,49.4502,44.16895L49.4502,44.16895z M40.33887,33.86523
			c3.68945,0,6.67969-2.98242,6.67969-6.66406c0-3.67871-2.99219-6.66406-6.67969-6.66406s-6.67969,2.98535-6.67969,6.66406
			C33.65918,30.88281,36.65137,33.86523,40.33887,33.86523L40.33887,33.86523z M69.3252,49.45898
			c0-6.84766-5.56055-12.39648-12.42188-12.39648s-12.42188,5.54785-12.42188,12.39648c0,0.2793,0.02148,0.55176,0.03906,0.82422
			h-0.03906v21.48633H69.3252V50.2832h-0.04102C69.30371,50.01074,69.3252,49.73828,69.3252,49.45898L69.3252,49.45898z
			 M27.08887,34.08789c-4.11914,0-7.45312,3.32715-7.45312,7.43555c0,0.16797,0.01172,0.33203,0.02344,0.49805h-0.02344v12.89062
			h14.90625V42.02148H34.5166c0.01172-0.16504,0.02539-0.33008,0.02539-0.49609
			C34.54199,37.41504,31.20605,34.08789,27.08887,34.08789L27.08887,34.08789z M27.08887,33.09668
			c3.01758,0,5.46484-2.44238,5.46484-5.4541s-2.44727-5.45312-5.46484-5.45312s-5.4668,2.44141-5.4668,5.45312
			S24.06934,33.09668,27.08887,33.09668L27.08887,33.09668z"/>
	</g>
</g>
<g id="Layer_5">
</g>
<g id="Layer_6">
</g>
<g id="Twitter_Logo_Silhouette_designed_by_Elegant_Themes_from_Flaticon.com">
</g>
</svg>
