<?xml version="1.0" encoding="utf-8"?>
<!-- Generator: Adobe Illustrator 16.0.0, SVG Export Plug-In . SVG Version: 6.00 Build 0)  -->
<!DOCTYPE svg PUBLIC "-//W3C//DTD SVG 1.1//EN" "http://www.w3.org/Graphics/SVG/1.1/DTD/svg11.dtd">
<svg version="1.1" xmlns="http://www.w3.org/2000/svg" xmlns:xlink="http://www.w3.org/1999/xlink" x="0px" y="0px"
	 width="92.15234px" height="92.32324px" viewBox="0 0 92.15234 92.32324" enable-background="new 0 0 92.15234 92.32324"
	 xml:space="preserve">
<g id="Layer_1">
</g>
<g id="social_market">
</g>
<g id="set2">
	<g>
		<g>
			<g>
				<path fill="#414042" d="M68.21289,30.76758c-1.68945-12.22754-13.875-18.45312-26.87695-16.99609
					c-10.27734,1.15234-20.52539,9.46289-20.95117,21.34766c-0.25977,7.25391,1.79883,12.69531,8.70117,14.22656
					c2.98828-5.29004-0.96289-6.44727-1.58203-10.2793C24.9707,23.4043,45.57227,12.70898,56.36133,23.65234
					c7.4707,7.58008,2.54688,30.88281-9.48633,28.45898c-11.5293-2.31348,5.64453-20.86328-3.55469-24.50293
					c-7.47852-2.96191-11.45117,9.0498-7.9043,15.02051c-2.08008,10.26758-6.55859,19.93555-4.74414,32.80859
					c5.87695-4.26953,7.86133-12.43359,9.48438-20.95215c2.95508,1.79785,4.53711,3.6582,8.30469,3.94824
					C62.35156,59.51172,70.11914,44.56641,68.21289,30.76758z"/>
			</g>
		</g>
	</g>
</g>
<g id="Layer_5">
</g>
<g id="Layer_6">
</g>
<g id="Twitter_Logo_Silhouette_designed_by_Elegant_Themes_from_Flaticon.com">
</g>
</svg>
