<?xml version="1.0" encoding="utf-8"?>
<!-- Generator: Adobe Illustrator 16.0.0, SVG Export Plug-In . SVG Version: 6.00 Build 0)  -->
<!DOCTYPE svg PUBLIC "-//W3C//DTD SVG 1.1//EN" "http://www.w3.org/Graphics/SVG/1.1/DTD/svg11.dtd">
<svg version="1.1" xmlns="http://www.w3.org/2000/svg" xmlns:xlink="http://www.w3.org/1999/xlink" x="0px" y="0px"
	 width="92.15234px" height="92.32324px" viewBox="0 0 92.15234 92.32324" enable-background="new 0 0 92.15234 92.32324"
	 xml:space="preserve">
<g id="Layer_1">
</g>
<g id="social_market">
	<g>
		<path id="reddit_1_" fill="#414042" d="M57.12109,46.34863c0.1543,0.39844,0.2207,0.79883,0.2207,1.19727
			c0,0.80566-0.2832,1.57812-0.74609,2.21191c-0.45898,0.62988-1.10938,1.13379-1.8916,1.3291l0,0
			c-0.00684,0.00195-0.00879,0.00195-0.01172,0.03418c-0.00293,0-0.00488,0-0.00488,0
			c-0.35742,0.12012-0.74023,0.17773-1.10352,0.17773c-0.85742,0-1.70898-0.32812-2.36523-0.85645
			c-0.68164-0.52441-1.1875-1.27148-1.33203-2.14844l0,0c0,0,0-0.03613-0.03125-0.03613v-0.00195l0,0
			c-0.02734-0.23633-0.06445-0.46289-0.06445-0.69727c0-0.7627,0.27539-1.50977,0.69629-2.13281
			c0.4502-0.61035,1.06934-1.09668,1.77246-1.33789c0.00391,0,0.00586,0,0.00586,0l0,0
			c0.4043-0.16211,0.85352-0.22852,1.26758-0.22852c0.76367,0,1.51953,0.2334,2.17969,0.66309
			c0.63477,0.41406,1.1543,1.0293,1.39551,1.80859c0,0,0,0.00977,0.00195,0.00977v0.00781H57.12109z M54.75586,55.8623
			c-0.29297-0.18555-0.64453-0.2998-0.99902-0.2998c-0.32422,0-0.625,0.06836-0.90137,0.25l0,0
			c-2.60449,1.55762-5.66406,2.41699-8.7207,2.41699c-2.29297,0-4.55078-0.4707-6.61914-1.5l-0.00586-0.00195h-0.01953
			c-0.29785-0.12207-0.66406-0.39648-1.04297-0.6416c-0.20215-0.15234-0.4043-0.27246-0.62988-0.35156
			c-0.23145-0.1084-0.46777-0.16797-0.73145-0.16797c-0.22266,0-0.45508,0.05176-0.68555,0.13574
			c-0.00391,0.00195-0.02734,0.03516-0.03223,0.03516l0,0c-0.36621,0.13086-0.63379,0.39844-0.82715,0.69531
			c-0.18164,0.29102-0.26562,0.65039-0.26562,0.99902c0,0.33301,0.08398,0.6377,0.23438,0.92773
			c0.14453,0.2832,0.37598,0.52148,0.66895,0.68848c2.94043,2,6.40234,2.88086,9.8877,2.88086
			c3.13672,0,6.30078-0.70898,9.08789-2.0332l0.03906-0.0332l0.00977-0.00195c0.36035-0.22949,0.8623-0.41211,1.32422-0.69922
			c0.23242-0.13281,0.45605-0.30469,0.64258-0.53125c0.18164-0.22363,0.34961-0.50684,0.44727-0.80371l0,0
			c0.02539-0.16016,0.05469-0.28809,0.05469-0.41113c0-0.27344-0.05664-0.5127-0.16992-0.73828
			C55.32422,56.3291,55.05273,56.04883,54.75586,55.8623z M34.11035,51.08691c0,0,0.00391,0,0.00684,0
			c0.39453,0.1543,0.77344,0.21387,1.15234,0.21387c0.96875,0,1.89648-0.39551,2.59277-1.03027
			c0.69434-0.63281,1.17773-1.54883,1.17773-2.58398c0,0,0-0.05078,0-0.07129c0.00488-0.05371,0.00488-0.1084,0.00488-0.16016
			c0-1.00293-0.46484-1.9209-1.1582-2.55566c-0.71094-0.65723-1.63574-1.05371-2.59277-1.05371
			c-0.25586,0-0.51758,0.03223-0.77441,0.08496c-0.00391,0-0.00391,0.00879-0.00586,0.00879l0,0
			c-1.27148,0.26855-2.3916,1.2041-2.80078,2.51465l0,0l0,0c0,0.00195,0,0.00195,0,0.00195
			c-0.11426,0.34766-0.17188,0.70898-0.17188,1.08984c0,0.77344,0.26172,1.56836,0.7041,2.20215
			c0.45508,0.62695,1.09277,1.1084,1.8457,1.33301C34.10547,51.08496,34.10547,51.08691,34.11035,51.08691z M73.94922,41.82715
			L73.94922,41.82715c0,0.13477,0.00391,0.25488,0.00391,0.39355c0,1.4248-0.46289,2.80566-1.2207,3.99512
			C72,47.28613,71.01855,48.20801,69.87207,48.83105c0.0957,0.57324,0.11523,1.15137,0.11523,1.72656
			c0,3.07617-1.0498,6.11328-2.90723,8.54785l0,0l0,0c-3.44238,4.55859-8.7002,7.25488-14.00586,8.62402l0,0h-0.00586
			c-2.85645,0.69434-5.75977,1.03516-8.68945,1.03516c-4.35449,0-8.70898-0.79102-12.76855-2.41406l0,0h-0.00684
			c-4.20996-1.73535-8.21777-4.49805-10.67285-8.54102c-1.32715-2.17578-2.05176-4.70996-2.05176-7.24707
			c0-0.57031,0.03516-1.15332,0.09766-1.69238c-1.10156-0.62988-2.05664-1.53223-2.77246-2.58594
			c-0.75195-1.12402-1.2373-2.46484-1.2959-3.85938v-0.00195V42.4043v-0.00195c0-1.96387,0.84375-3.83301,2.1875-5.21289
			c1.32812-1.36328,3.14355-2.25879,5.08301-2.25879c0.02637,0,0.05371,0,0.08301,0c0.2041-0.01953,0.4082-0.0293,0.61035-0.0293
			c0.97852,0,1.96094,0.1543,2.89746,0.51855l0.00391,0.00195l0,0c0.78906,0.33301,1.58496,0.72949,2.28516,1.29785
			c0.23047-0.11621,0.48438-0.25586,0.75391-0.35547c4.26172-2.5332,9.22461-3.51172,14.06055-3.7959
			c0.03711-2.39355,0.3418-4.89746,1.5-7.09277c0.97852-1.81738,2.66113-3.23535,4.67383-3.72656l0.00391-0.00293h0.00195
			c0.78516-0.14746,1.54883-0.21875,2.30762-0.21875c2.05762,0,4.0752,0.48438,5.94727,1.23828
			c0.85156-1.27051,2.05176-2.23926,3.43945-2.7998l0.00977-0.00391l0.00488-0.00195
			c0.84863-0.25586,1.68164-0.40234,2.57812-0.40234c0.92578,0,1.8457,0.17188,2.71289,0.54785l0,0l0,0
			c0.00586,0,0.01074,0.00195,0.0127,0.00195c1.22754,0.48535,2.30078,1.36133,3.04297,2.47559
			c0.75098,1.10254,1.17383,2.42188,1.17383,3.7832c0,0.25391-0.00684,0.49219-0.02148,0.75098v0.00195
			c0,0,0,0.02051-0.03223,0.02051c-0.13086,1.75879-1.01074,3.29395-2.27344,4.39062
			c-1.27148,1.1123-2.92578,1.77734-4.60742,1.77734c-0.28125,0-0.55859-0.02344-0.80664-0.05273
			c-1.67383-0.12012-3.2334-0.93945-4.38184-2.13867c-1.15918-1.2041-1.90234-2.81543-1.90234-4.54492
			c0-0.08594,0.00684-0.17285,0.00684-0.25391c-1.56445-0.69824-3.23047-1.2793-4.89258-1.27344
			c-0.2334,0-0.4707,0.01953-0.70703,0.0293l0,0c-1.25586,0.13281-2.40723,0.91406-2.94922,2.03906l0,0l0,0
			c-0.85156,1.64844-1.02344,3.58008-1.03516,5.50586c4.74023,0.29688,9.52539,1.44336,13.73438,3.8623l0,0l0.05664,0.03809
			c0.06641,0.04785,0.23242,0.13281,0.35742,0.19824c0.28809-0.23145,0.58594-0.4668,0.93262-0.68652
			c1.29785-0.84375,2.80762-1.27148,4.30469-1.27148c0.6543,0,1.33594,0.08594,1.97949,0.25586l0,0l0.04102,0.00195
			c0.00684,0,0.00977,0,0.01465,0v0.00195c1.54492,0.39648,2.92871,1.28516,3.97363,2.46875
			C73.09375,38.67773,73.79297,40.18555,73.94922,41.82715L73.94922,41.82715z M59.9375,26.25684
			c0,0.0752,0,0.13672,0.00488,0.20117v0.00195v0.01758c0.04395,0.81738,0.41016,1.58984,0.99316,2.16211
			c0.61719,0.56152,1.38574,0.9209,2.19336,0.9209h0.03516h0.00293c0.05762,0.00293,0.12207,0.00293,0.17285,0.00293
			c0.81055,0,1.61426-0.34766,2.20703-0.91797c0.61719-0.56934,1.02148-1.33984,1.0332-2.16992l0.00195-0.01953l0,0
			c0.00488-0.0625,0.00488-0.12109,0.00488-0.18555c0-0.86133-0.37402-1.67285-1.00488-2.27734
			c-0.63086-0.60645-1.48438-0.98047-2.30371-0.98047c-0.27637,0-0.52637,0.03516-0.7998,0.11914h-0.00391l-0.00586,0.00195
			c-0.68555,0.17383-1.32324,0.59961-1.78613,1.15625C60.22266,24.86035,59.9375,25.54004,59.9375,26.25684z M24.83008,39
			c-0.63086-0.29004-1.2793-0.5-1.93652-0.49707c-0.1123,0-0.22363,0.00293-0.33887,0.02441h-0.00977h-0.01953
			c-0.92773,0.02637-1.87305,0.43262-2.57129,1.07715c-0.71582,0.6582-1.18066,1.52637-1.21191,2.50195v0.00586v0.01953
			c-0.00293,0.06445-0.01953,0.14746-0.01953,0.21387c0,0.60059,0.19336,1.17578,0.50879,1.7002
			c0.21191,0.39551,0.52344,0.74707,0.86621,1.06055C21.18848,42.72168,22.8916,40.69043,24.83008,39z M66.27148,50.68359
			c0-2.13086-0.78125-4.26562-2.00879-5.98145c-2.4834-3.45312-6.33789-5.7002-10.32129-6.94922l-0.04102-0.01953
			c-0.7627-0.23242-1.55078-0.44336-2.31836-0.61523c-2.34961-0.52246-4.72852-0.80176-7.13672-0.80176
			c-3.20703,0-6.41211,0.48145-9.49609,1.43359c-4.00195,1.2666-7.86328,3.49316-10.34277,6.9502v0.00195
			c-1.24707,1.74805-1.97363,3.88281-1.97363,6.02148c0,0.7666,0.0957,1.56348,0.29785,2.32227l0,0
			c0.45508,1.72168,1.3291,3.26367,2.47559,4.59766c1.14648,1.33301,2.53809,2.48242,4.00586,3.4043
			c0.32227,0.1875,0.6582,0.39453,0.98438,0.57617c4.2666,2.375,9.1875,3.41504,14.06641,3.41504
			c0.83105,0,1.64746-0.0127,2.49414-0.06934c4.90527-0.4043,9.82129-1.85449,13.83594-4.83008v-0.00391
			c1.27344-0.93262,2.43164-2.07617,3.35742-3.35352c0.93555-1.31152,1.61816-2.75488,1.91797-4.31836v-0.00391h0.00195
			C66.18164,51.87891,66.27148,51.29395,66.27148,50.68359z M70.14062,42.2207c0-0.5166-0.11914-1.03125-0.38672-1.51855
			l-0.00586-0.00293l-0.00391-0.00488c-0.34766-0.71289-0.87109-1.24414-1.54785-1.61328
			c-0.64746-0.37109-1.40527-0.56055-2.18652-0.56055c-0.69922,0-1.3877,0.16016-1.98535,0.47168
			c1.9248,1.69434,3.64844,3.72559,4.75195,6.11816c0.35059-0.3125,0.67285-0.67383,0.90137-1.10449
			C69.9707,43.45703,70.14062,42.82812,70.14062,42.2207z"/>
	</g>
</g>
<g id="set2">
</g>
<g id="Layer_5">
</g>
<g id="Layer_6">
</g>
<g id="Twitter_Logo_Silhouette_designed_by_Elegant_Themes_from_Flaticon.com">
</g>
</svg>
