<?xml version="1.0" encoding="utf-8"?>
<!-- Generator: Adobe Illustrator 16.0.0, SVG Export Plug-In . SVG Version: 6.00 Build 0)  -->
<!DOCTYPE svg PUBLIC "-//W3C//DTD SVG 1.1//EN" "http://www.w3.org/Graphics/SVG/1.1/DTD/svg11.dtd">
<svg version="1.1" xmlns="http://www.w3.org/2000/svg" xmlns:xlink="http://www.w3.org/1999/xlink" x="0px" y="0px"
	 width="92.15234px" height="92.32324px" viewBox="0 0 92.15234 92.32324" enable-background="new 0 0 92.15234 92.32324"
	 xml:space="preserve">
<g id="Layer_1">
</g>
<g id="social_market">
</g>
<g id="set2">
	<g>
		<path fill="#414042" d="M51.20703,36.65137h7.91406v-3.48242c0-6.55469-5.33203-11.88867-11.88867-11.88867
			c-6.55469,0-11.88672,5.33398-11.88672,11.88867v21.98438c0,2.19141-1.7832,3.97461-3.97461,3.97461
			s-3.97461-1.7832-3.97461-3.97461V44.89355h-7.91406v10.25977c0,6.55469,5.33203,11.88867,11.88867,11.88867
			c6.55469,0,11.88867-5.33398,11.88867-11.88867V33.16895c0-2.19141,1.78125-3.97461,3.97266-3.97461
			s3.97461,1.7832,3.97461,3.97461V36.65137z"/>
		<path fill="#414042" d="M66.96484,45.01855v10.13477c0,2.19141-1.78125,3.97461-3.97266,3.97461s-3.97461-1.7832-3.97461-3.97461
			V44.89355h-7.91406v10.25977c0,6.55469,5.33203,11.88867,11.88867,11.88867c6.55469,0,11.88672-5.33398,11.88672-11.88867
			V45.01855H66.96484z"/>
	</g>
</g>
<g id="Layer_5">
</g>
<g id="Layer_6">
</g>
<g id="Twitter_Logo_Silhouette_designed_by_Elegant_Themes_from_Flaticon.com">
</g>
</svg>
