<?xml version="1.0" encoding="utf-8"?>
<!-- Generator: Adobe Illustrator 16.0.0, SVG Export Plug-In . SVG Version: 6.00 Build 0)  -->
<!DOCTYPE svg PUBLIC "-//W3C//DTD SVG 1.1//EN" "http://www.w3.org/Graphics/SVG/1.1/DTD/svg11.dtd">
<svg version="1.1" xmlns="http://www.w3.org/2000/svg" xmlns:xlink="http://www.w3.org/1999/xlink" x="0px" y="0px"
	 width="92.15234px" height="92.32324px" viewBox="0 0 92.15234 92.32324" enable-background="new 0 0 92.15234 92.32324"
	 xml:space="preserve">
<g id="Layer_1">
</g>
<g id="social_market">
</g>
<g id="set2">
	<g>
		<path fill="#414042" d="M47.49219,27.88574V15.37012h-8.07617c-0.18262,0.46289-0.2793,1.0127-0.2793,1.57617
			c-0.08594,0.27051-0.18164,0.46582-0.18164,0.74121c-0.83203,4.63477-3.24414,7.87988-7.32715,9.64551
			c-1.20703,0.55273-2.31641,0.64062-3.52246,0.55273V37.9873h5.93359c0.09863,14.19531,0.09863,21.51758,0.09863,21.88965
			c0,0.27832,0,0.55762,0,0.8418c0.74512,6.2041,3.98535,9.91602,9.73633,11.30664c2.31641,0.65039,4.81641,0.92676,7.32715,0.92676
			c3.24023-0.09082,6.39746-0.64844,9.55469-1.66992V59.41406c-1.85156,0.55664-3.53418,1.01758-5.00879,1.47656
			c-2.87598,0.84375-5.28711,0.28613-7.23926-1.56836c-0.18359-0.2793-0.46289-0.65137-0.55957-1.02148
			c-0.26758-1.48438-0.4502-3.05469-0.4502-4.54785V37.98926H60.375V27.88574H47.49219z"/>
	</g>
</g>
<g id="Layer_5">
</g>
<g id="Layer_6">
</g>
<g id="Twitter_Logo_Silhouette_designed_by_Elegant_Themes_from_Flaticon.com">
</g>
</svg>
