<?xml version="1.0" encoding="utf-8"?>
<!-- Generator: Adobe Illustrator 16.0.0, SVG Export Plug-In . SVG Version: 6.00 Build 0)  -->
<!DOCTYPE svg PUBLIC "-//W3C//DTD SVG 1.1//EN" "http://www.w3.org/Graphics/SVG/1.1/DTD/svg11.dtd">
<svg version="1.1" xmlns="http://www.w3.org/2000/svg" xmlns:xlink="http://www.w3.org/1999/xlink" x="0px" y="0px"
	 width="92.15234px" height="92.32324px" viewBox="0 0 92.15234 92.32324" enable-background="new 0 0 92.15234 92.32324"
	 xml:space="preserve">
<g id="Layer_1">
</g>
<g id="social_market">
</g>
<g id="set2">
	<g>
		<path fill="#414042" d="M70.76367,28.16504c-1.9375,0.85938-4.01953,1.43945-6.20508,1.70117
			c2.23047-1.33691,3.94336-3.4541,4.75-5.97754c-2.08789,1.23828-4.40039,2.1377-6.86133,2.62207
			c-1.9707-2.10059-4.7793-3.41211-7.88672-3.41211c-5.9668,0-10.80469,4.83789-10.80469,10.80469
			c0,0.84766,0.0957,1.67188,0.2793,2.46289c-8.98047-0.45117-16.94141-4.75293-22.27148-11.29004
			c-0.92969,1.5957-1.46289,3.45215-1.46289,5.43262c0,3.74805,1.9082,7.05566,4.80664,8.99316
			c-1.77148-0.05566-3.4375-0.54199-4.89258-1.35059c-0.00195,0.04492-0.00195,0.08984-0.00195,0.13477
			c0,5.23535,3.72461,9.60254,8.66797,10.59473c-0.9082,0.24707-1.86133,0.37988-2.84766,0.37988
			c-0.69531,0-1.37305-0.06836-2.0332-0.19434c1.375,4.29297,5.36523,7.41699,10.09375,7.50391
			c-3.69727,2.89844-8.35742,4.62598-13.41992,4.62598c-0.87109,0-1.73047-0.05176-2.57617-0.15137
			c4.78125,3.06641,10.46094,4.85449,16.5625,4.85449c19.875,0,30.74414-16.46484,30.74414-30.74316
			c0-0.46875-0.01172-0.93457-0.03125-1.39844C67.48438,32.23438,69.31641,30.33105,70.76367,28.16504z"/>
	</g>
</g>
<g id="Layer_5">
</g>
<g id="Layer_6">
</g>
<g id="Twitter_Logo_Silhouette_designed_by_Elegant_Themes_from_Flaticon.com">
</g>
</svg>
