<?xml version="1.0" encoding="utf-8"?>
<!-- Generator: Adobe Illustrator 16.0.0, SVG Export Plug-In . SVG Version: 6.00 Build 0)  -->
<!DOCTYPE svg PUBLIC "-//W3C//DTD SVG 1.1//EN" "http://www.w3.org/Graphics/SVG/1.1/DTD/svg11.dtd">
<svg version="1.1" xmlns="http://www.w3.org/2000/svg" xmlns:xlink="http://www.w3.org/1999/xlink" x="0px" y="0px"
	 width="92.15234px" height="92.32324px" viewBox="0 0 92.15234 92.32324" enable-background="new 0 0 92.15234 92.32324"
	 xml:space="preserve">
<g id="Layer_1">
</g>
<g id="social_market">
</g>
<g id="set2">
	<g>
		<g>
			<path fill="#414042" d="M71.20801,44.16504c-1.0625,0.28125-2.16406,0.47461-3.30664,0.58203
				c-5.4707,0.51172-10.08398-1.08203-13.12695-5.93359c-1.82031-2.90234-2.32031-6.16406-2.11523-9.54688
				c0.08203-1.35352,0.33008-2.67188,1.04883-3.85352c0.66992-1.09961,1.58789-1.82031,2.93359-1.86719
				c1.91992-0.06836,3.25195,1.11328,3.78125,3.42578c0.68164,2.96875,0.2168,5.87695-0.59961,8.74023
				c-0.08594,0.29102-0.24023,0.9082-0.24023,0.9082s0.39453,0.44727,0.67773,0.73242
				c1.97852,1.99023,4.42188,2.44336,7.08398,2.23047c0.41406-0.0332,0.99414-0.08789,0.99414-0.08789
				s0.26953-0.66406,0.37305-0.95117c1.43164-3.91406,2.02148-7.92188,1.59375-12.08398
				c-0.60742-5.93555-3.75391-11.10352-11.32812-11.87109c-6.77539-0.6875-12.39453,2.43555-14.75391,8.9043
				c-1.35352,3.71289-1.42188,7.52148-0.73438,11.35547c1.15234,6.41211,4.16797,11.62109,9.94141,14.96875
				c0.57617,0.33398,0.58203,0.59766,0.30078,1.13086c-2.3457,4.46484-5.14648,8.61133-8.53906,12.35352
				c-1.46094,1.61133-1.44922,1.5957-2.82227-0.14258c-6.91211-8.75-10.71875-18.84766-12.87305-29.66211
				c-0.58984-2.95898-1.07422-5.92578-1.44531-8.92188l-0.08398-1.03516l-10.31445-0.00781l0.08398,0.58789
				c1.30273,9.3125,3.27344,18.45508,6.75977,27.22266c2.56445,6.44336,5.79297,12.49219,10.47266,17.67969
				c1.52344,1.6875,3.18945,3.21094,5.11133,4.44531c2.24805,1.45117,4.44922,1.35547,6.60938-0.15625
				c0.61719-0.43164,1.21289-0.90234,1.77148-1.40625c5.95117-5.38867,10.75781-11.65625,14.39453-18.81055
				c0.2832-0.55859,0.57812-0.81445,1.24805-0.81836c1.50977-0.00586,3.01172-0.17969,4.50391-0.43164
				c0.87695-0.14648,1.74219-0.32617,2.59961-0.54297V44.16504L71.20801,44.16504z"/>
		</g>
	</g>
</g>
<g id="Layer_5">
</g>
<g id="Layer_6">
</g>
<g id="Twitter_Logo_Silhouette_designed_by_Elegant_Themes_from_Flaticon.com">
</g>
</svg>
