<svg xmlns="http://www.w3.org/2000/svg" width="64" height="64" viewBox="0 0 64 64"><g><radialGradient id="a" cx="32" cy="32" r="32" gradientUnits="userSpaceOnUse"><stop offset="0" stop-color="#48669F"/><stop offset="1" stop-color="#3D5D7D"/></radialGradient><circle cx="32" cy="32" r="32" fill-rule="evenodd" clip-rule="evenodd" fill="url(#a)"/><path d="M6.418 51.224C12.258 58.982 21.543 64 32 64c17.672 0 32-14.326 32-32 0-7.574-2.64-14.53-7.037-20.01L6.418 51.223z" fill="#3B567D"/><path d="M44.898 24.023c-.285 1.073-.416 2.174-.607 3.264-.47 2.696-.973 5.39-1.402 8.092-.57 3.59-.902 7.203-.892 10.843 0 .412-.07.563-.53.557-2.226-.027-4.454-.02-6.68-.004-.394.004-.542-.065-.5-.506.16-1.614.276-3.232.41-4.85.013-.15.06-.304-.08-.475-.265.074-.327.336-.442.534-1.344 2.285-3.05 4.21-5.575 5.203-3.086 1.215-6.088 1.125-8.88-.857-.298-.213-.567-.467-.848-.703-2.315-2.603-2.903-5.73-2.73-9.072.278-5.295 2.05-10 5.767-13.85 2.64-2.736 5.925-4.36 9.634-5.16 1.692-.364 3.41-.544 5.132-.52 2.946.046 5.86.388 8.7 1.23.41.12.582.238.484.74-.36 1.838-.648 3.69-.962 5.533zm-19.886 12.08c.035.728.272 1.4.592 2.044.79 1.596 2.424 2.173 4.05 1.453.964-.428 1.727-1.108 2.368-1.92 1.374-1.734 2.275-3.687 2.803-5.844.397-1.63.85-3.244 1.102-4.903.28-1.42.56-2.84.842-4.26.058-.296-.015-.454-.337-.544-2.437-.68-4.648-.265-6.596 1.354-2.6 2.16-3.987 5.023-4.68 8.262-.307 1.438-.45 2.893-.145 4.358z" fill-rule="evenodd" clip-rule="evenodd" fill="#FEFEFE"/></g></svg>