<svg xmlns="http://www.w3.org/2000/svg" width="64" height="64" viewBox="0 0 64 64"><g><circle cx="32" cy="32" r="32" fill="#E86324"/><path d="M6.42 51.224C12.257 58.982 21.542 64 32 64c17.672 0 32-14.326 32-32 0-7.574-2.638-14.53-7.037-20.01L6.42 51.223z" fill="#CE5820"/><path d="M16.592 35.674c-1.007-.908-1.486-2.328-1.502-3.682.016-1.338.495-2.758 1.502-3.666.677-.594 1.668-1.023 2.592-1.09.61-.033 1.156.033 1.635.164 1.172.314 1.98 1.04 2.69 1.586l2.923-2.84c-.28-.495-1.09-1.19-1.536-1.535-2.262-1.733-5.48-2.112-8.255-1.337-.446.116-.858.28-1.27.463-2.083.908-3.37 2.23-4.394 4.21-1.09 2.097-1.09 6.01 0 8.106 1.023 1.98 2.31 3.303 4.393 4.21.413.183.825.33 1.272.462 2.774.776 5.993.397 8.255-1.336.447-.363 1.256-1.04 1.536-1.536l-2.923-2.84c-.71.546-1.52 1.27-2.69 1.585-.48.133-1.024.2-1.636.165-.924-.066-1.915-.51-2.592-1.088zM42.184 25.62c-.627-1.207-1.6-1.983-2.707-2.38-2.494-.907-5.664.066-7.3 2.213v-2.23h-5v17.452h5V30.29c0-1.6 1.306-2.922 2.908-2.922 1.6 0 2.92 1.32 2.92 2.923V40.693h5.005V30.256c0-1.6 1.32-2.92 2.922-2.92s2.906 1.32 2.906 2.92v10.436h5.002V29.17c0-3.485-1.832-5.318-4.093-5.93-2.278-.61-5.004.033-6.737 1.52-.315.263-.578.545-.826.86z" fill="#fff"/></g></svg>