<svg xmlns="http://www.w3.org/2000/svg" width="64" height="64" viewBox="0 0 64 64"><g><path d="M64 32c0 17.674-14.326 32-32 32S0 49.674 0 32C0 14.328 14.326 0 32 0s32 14.328 32 32z" fill="#F0F0F1"/><path d="M6.42 51.225C12.257 58.982 21.542 64 32 64c17.672 0 32-14.326 32-32 0-7.574-2.638-14.53-7.037-20.01L6.42 51.225z" fill="#E6E6E6"/><path d="M32.517 31.945c0 4.64-3.765 8.406-8.405 8.406-4.645 0-8.41-3.765-8.41-8.405 0-4.644 3.766-8.408 8.41-8.408 4.64 0 8.405 3.765 8.405 8.408z" fill="#3A5FA9"/><path d="M52.368 31.945c0 4.64-3.763 8.406-8.406 8.406-4.643 0-8.41-3.765-8.41-8.405 0-4.644 3.768-8.408 8.41-8.408 4.643 0 8.406 3.765 8.406 8.408z" fill="#E60E79"/></g></svg>