<svg xmlns="http://www.w3.org/2000/svg" width="64" height="64" viewBox="0 0 64 64"><g><circle cx="32" cy="32" r="32" fill="#E02F2F"/><path d="M6.42 51.224C12.257 58.982 21.542 64 32 64c17.672 0 32-14.326 32-32 0-7.574-2.638-14.53-7.037-20.01L6.42 51.223z" fill="#C72A2A"/><path d="M38 11.996H25.672c-5.64 0-10.95 3.957-10.95 8.906 0 5.055 3.845 8.988 9.583 8.988.398 0 .787-.09 1.168-.12-.377.712-.637 1.476-.637 2.31 0 1.406.754 2.527 1.707 3.457-.715 0-1.418.012-2.18.012C17.38 35.55 12 39.995 12 44.61 12 49.153 17.896 52 24.883 52c7.965 0 12.365-4.523 12.365-9.068 0-3.643-1.076-5.826-4.398-8.182-1.14-.803-3.31-2.76-3.31-3.912 0-1.348.382-2.012 2.413-3.6 2.078-1.625 3.553-3.563 3.553-6.223 0-3.162-1.36-7.02-4.006-7.02H36l2-2zm-4.137 30.15c.094.423.152.856.152 1.296 0 3.672-2.37 6.543-9.16 6.543-4.828 0-8.316-3.057-8.316-6.73 0-3.597 4.327-6.595 9.16-6.54 1.122.012 2.175.193 3.126.498 2.623 1.824 4.502 2.855 5.037 4.932zm-7.738-13.7c-3.242-.095-6.324-3.626-6.88-7.88-.56-4.26 1.614-7.518 4.854-7.422 3.24.1 6.323 3.516 6.882 7.77.56 4.258-1.615 7.63-4.857 7.53zM48 27.98v-6h-4v6h-6v4h6v6h4v-6h6v-4h-6z" fill="#fff"/></g></svg>