<svg xmlns="http://www.w3.org/2000/svg" width="64" height="64" viewBox="0 0 64 64"><g><path d="M64 32c0 17.674-14.327 32-32 32S0 49.674 0 32C0 14.328 14.327 0 32 0s32 14.328 32 32z" fill="#2C5687"/><path d="M6.42 51.225C12.257 58.982 21.542 64 32 64c17.672 0 32-14.326 32-32 0-7.574-2.638-14.53-7.037-20.01L6.42 51.225z" fill="#274C78"/><path d="M18.214 13.34h28.228c2.68 0 4.874 2.193 4.874 4.875v28.23c0 2.68-2.193 4.87-4.874 4.87H18.214c-2.682 0-4.876-2.19-4.876-4.87v-28.23c0-2.682 2.194-4.875 4.876-4.875zm22.79 4.22c-.94 0-1.71.77-1.71 1.71v4.092c0 .94.77 1.71 1.71 1.71h4.292c.94 0 1.71-.77 1.71-1.71V19.27c0-.94-.77-1.71-1.71-1.71h-4.29zm6.018 11.84H43.68c.316 1.033.487 2.125.487 3.26 0 6.314-5.286 11.436-11.805 11.436-6.52 0-11.807-5.12-11.807-11.436 0-1.135.174-2.227.49-3.26H17.56v16.043c0 .83.678 1.506 1.51 1.506h26.445c.83 0 1.508-.677 1.508-1.507V29.4zm-14.66-4.545c-4.212 0-7.627 3.307-7.627 7.39 0 4.08 3.415 7.392 7.628 7.392 4.212 0 7.627-3.31 7.627-7.39 0-4.085-3.415-7.392-7.627-7.392z" fill="#fff"/></g></svg>