<svg xmlns="http://www.w3.org/2000/svg" width="64" height="64" viewBox="0 0 64 64"><g><circle cx="32" cy="32" r="32" fill="#E71E27"/><path d="M6.42 51.224C12.257 58.982 21.542 64 32 64c17.672 0 32-14.326 32-32 0-7.574-2.638-14.53-7.037-20.01L6.42 51.223z" fill="#CD1B23"/><path d="M43.984 17.27c-.336-1.155-1.388-4.964-2.418-5.333-1.833 0-3.485-.016-5.333 0-.652.004-2.683 3.44-2.918 4-1.284 3.086-1.75 4.795-2.667 8-.964 3.387-1.878 6.96-2.667 10.666-.35-.592-1.093-2.217-1.332-2.666-1.746-3.344-2.25-5.996-4-9.334-1.76-3.357-1.548-4.623-5.333-4-.94.152-3.133.945-4 1.334-.43.195-1.334 1-1.334 2.666 0 7.834 0 15.166 1.335 22.666.817 5.347.224 5.958 5.333 4 .255-.1-.254.106 0 0 2.667-1.335 4.208-1.35 4-2.667-.366-2.285-1.036-5.707-1.333-8 .106-.01-.107.008 0 0 1.333 0 3.855 4.127 5.333 6.666 1.214 2.067 2.667 2.665 4 2.665 5.333 0 6.667-1.332 6.667-2.666s-.058-4.315 0-5.335c0-2.666-.125-9.71 0-10.664 2.313 7.396 4.518 14.208 6.666 21.333.374 1.244 2.593 1.723 3.92 1.332 2.417 0 4.388-.87 4.084-1.918-2.67-9.184-3.69-14.957-5.336-22.082-.934-4.068-1.33-5.33-2.664-10.664z" fill="#fff"/></g></svg>