<svg xmlns="http://www.w3.org/2000/svg" width="64" height="64" viewBox="0 0 64 64"><g><circle cx="32" cy="32" r="32" fill-rule="evenodd" clip-rule="evenodd" fill="#88AB27"/><path d="M6.42 51.224C12.257 58.982 21.542 64 32 64c17.672 0 32-14.326 32-32 0-7.574-2.638-14.53-7.037-20.01L6.42 51.223z" fill="#799823"/><path d="M26.51 38.97c1.424.752 2.968 1.153 4.532 1.45 1.218.232 2.453.396 3.697.342 4.722-.204 9.055-1.617 12.946-4.3 1.416-.976 3.36-.342 3.766 1.218.247.967-.082 2.026-.97 2.63-3.463 2.358-7.236 3.987-11.363 4.763-2.167.406-4.35.49-6.55.354-1.832-.11-3.585-.565-5.333-1.064-2.034-.58-3.878-1.58-5.72-2.58-1.448-.963-2.88-1.947-4.183-3.107-1.73-1.535-3.273-3.236-4.568-5.15-.61-.905-.247-2.29.733-3.08.84-.676 2.09-.608 2.882.14.61.573 1.03 1.296 1.566 1.928 1.007 1.185 2.098 2.28 3.293 3.263 1.514 1.242 3.16 2.286 4.955 3.086.102.04.21.07.315.106zM25.568 26.133c-2.095-.008-3.84-1.71-3.796-3.78.047-2.054 1.555-3.882 3.847-3.837 2.21.042 3.8 1.645 3.8 3.846 0 2.16-1.505 3.775-3.852 3.77zM44.15 23.158c.548 1.338.54 2.634-.29 3.87-1.2 1.787-3.833 2.202-5.516.867-.747-.702-1.275-1.51-1.422-2.563-.27-1.95 1.193-3.936 3.145-4.223 1.843-.27 3.144.526 4.083 2.048z" fill-rule="evenodd" clip-rule="evenodd" fill="#FEFEFE"/></g></svg>