<svg xmlns="http://www.w3.org/2000/svg" width="64" height="64" viewBox="0 0 64 64"><g><circle cx="32" cy="32" r="32" fill="#CF2200"/><path d="M6.42 51.224C12.257 58.982 21.542 64 32 64c17.672 0 32-14.326 32-32 0-7.574-2.638-14.53-7.037-20.01L6.42 51.223z" fill="#B81E00"/><path d="M32.97 11.334c-11.278 0-16.968 8.088-16.968 14.832 0 4.083 1.547 7.716 4.86 9.068.544.225 1.03.007 1.19-.593.11-.416.367-1.468.483-1.905.16-.596.1-.804-.34-1.323-.957-1.128-1.57-2.586-1.57-4.655 0-6 4.49-11.37 11.69-11.37 6.375 0 9.88 3.895 9.88 9.096 0 6.847-3.03 12.625-7.528 12.625-2.482 0-4.342-2.054-3.746-4.572.712-3.01 2.095-6.254 2.095-8.426 0-1.943-1.045-3.565-3.2-3.565-2.54 0-4.58 2.628-4.58 6.146 0 2.242.757 3.76.757 3.76s-2.6 11.007-3.053 12.937c-.91 3.84-.137 8.545-.07 9.02.037.28.4.35.564.138.23-.308 3.26-4.038 4.283-7.77.293-1.056 1.67-6.526 1.67-6.526.827 1.574 3.236 2.958 5.8 2.958 7.63 0 12.81-6.957 12.81-16.27 0-7.045-5.963-13.604-15.027-13.604z" fill="#fff"/></g></svg>