<svg xmlns="http://www.w3.org/2000/svg" width="64" height="64" viewBox="0 0 64 64"><g><path d="M32 64c17.673 0 32-14.326 32-32S49.673 0 32 0 0 14.326 0 32s14.327 32 32 32z" fill="#E84621"/><path d="M6.42 51.224C12.257 58.982 21.542 64 32 64c17.672 0 32-14.326 32-32 0-7.574-2.638-14.53-7.037-20.01L6.42 51.223z" fill="#CE3E1D"/><path d="M51.915 29.58v.004c.007.088.008.176.008.262 0 .97-.306 1.898-.818 2.69-.48.74-1.137 1.356-1.896 1.776.05.385.077.775.077 1.162-.002 2.086-.712 4.135-1.947 5.777v.003h-.003c-2.286 3.08-5.798 4.895-9.344 5.81l-.003.005c-1.89.463-3.84.7-5.79.7-2.905 0-5.81-.528-8.517-1.63v-.004h-.003c-2.81-1.172-5.484-3.033-7.126-5.762-.883-1.46-1.367-3.168-1.367-4.883 0-.39.024-.778.076-1.163-.74-.422-1.38-1.02-1.854-1.732-.51-.768-.83-1.664-.87-2.613v-.016c0-1.328.57-2.59 1.455-3.516.888-.93 2.098-1.535 3.396-1.535h.056c.136-.01.273-.016.41-.016.652 0 1.306.106 1.926.347l.004.004h.004c.528.228 1.056.5 1.526.876.15-.08.317-.172.502-.242 2.846-1.705 6.15-2.363 9.373-2.553.03-1.614.226-3.308 1.003-4.788.648-1.23 1.775-2.188 3.115-2.52l.005-.002h.008c.51-.102 1.024-.148 1.536-.148 1.36 0 2.707.328 3.965.836.56-.852 1.355-1.516 2.287-1.89l.01-.005.01-.002c.547-.173 1.125-.272 1.707-.272.612 0 1.23.11 1.808.375v-.002c0 .003.003.003.003.003l.01.004c.83.322 1.53.92 2.03 1.664.5.747.79 1.64.79 2.56 0 .17-.008.338-.028.508v.004c0 .004 0 .006-.003.01-.096 1.188-.69 2.23-1.53 2.973-.847.746-1.943 1.195-3.068 1.195-.18 0-.362-.01-.544-.033-1.115-.088-2.155-.633-2.92-1.447-.766-.81-1.26-1.895-1.26-3.066 0-.057.005-.113.008-.172-1.05-.47-2.16-.86-3.266-.86-.16 0-.318.01-.48.024-.827.082-1.597.61-1.97 1.367v.004c-.565 1.117-.678 2.42-.696 3.715 3.172.21 6.362.98 9.162 2.61h.004l.04.022c.052.03.15.086.24.133.192-.156.395-.32.627-.46.85-.57 1.855-.856 2.86-.856.446 0 .894.06 1.327.173l.02.004c.005 0 .01.004.016.004 1.024.267 1.95.86 2.648 1.663.697.805 1.167 1.822 1.26 2.926h-.005zm-5.125 5.984c0-1.438-.512-2.88-1.34-4.043-1.653-2.327-4.22-3.847-6.885-4.692l-.02-.006c-.512-.16-1.03-.3-1.55-.422-1.56-.36-3.157-.54-4.754-.54-2.144 0-4.288.323-6.34.966-2.667.855-5.24 2.363-6.89 4.7v.003c-.835 1.165-1.324 2.612-1.324 4.056 0 .53.065 1.06.203 1.578h.002c.3 1.158.887 2.193 1.646 3.096.76.904 1.69 1.674 2.67 2.303.22.135.436.266.66.393 2.846 1.61 6.125 2.314 9.38 2.314.55 0 1.104-.02 1.65-.06 3.28-.274 6.57-1.255 9.23-3.255l.002-.002c.847-.635 1.632-1.4 2.25-2.275.625-.87 1.08-1.848 1.284-2.908v-.004c.086-.397.126-.797.126-1.202zm-4.217-16.492c0 .043 0 .086.005.133v.007c.02.56.28 1.076.676 1.46.397.384.925.622 1.46.624H44.727c.04.002.078.002.117.002.54 0 1.075-.235 1.478-.618.404-.383.67-.906.69-1.47v-.003c.005-.046.007-.087.007-.13 0-.58-.27-1.133-.688-1.54-.417-.41-.978-.663-1.532-.66-.18 0-.354.024-.53.08h-.004l-.005.003c-.455.12-.884.404-1.192.78-.307.38-.495.845-.495 1.33zM19.16 27.68c-.425-.2-.863-.344-1.296-.342-.072 0-.146.006-.22.014h-.02c-.622.018-1.25.29-1.722.732-.47.44-.783 1.03-.807 1.684v.008l-.003.004c-.004.055-.005.105-.005.156 0 .402.122.793.328 1.148.153.262.354.504.582.713.73-1.61 1.865-2.98 3.162-4.117zm30.218 2.166c0-.348-.08-.695-.253-1.02l-.004-.004v-.004c-.232-.482-.594-.846-1.03-1.094-.438-.248-.95-.375-1.462-.375-.463 0-.925.103-1.334.312 1.303 1.145 2.443 2.52 3.183 4.137.237-.208.44-.466.59-.75.2-.372.31-.79.31-1.204zm-10.344 8.26c-.198-.114-.43-.183-.675-.183-.197 0-.402.05-.584.154-1.722.902-3.748 1.396-5.758 1.396-1.508 0-3.008-.28-4.365-.865l-.008-.002-.008-.004c-.203-.072-.438-.23-.692-.377-.13-.074-.263-.146-.414-.2-.147-.056-.312-.095-.486-.095-.146 0-.3.03-.45.09-.007.002-.015.004-.022.008h.002c-.237.078-.422.223-.542.395-.125.18-.185.387-.185.59 0 .188.05.37.153.54.098.16.25.3.446.394 1.94 1.148 4.23 1.67 6.522 1.668 2.07 0 4.15-.42 6.005-1.186l.01-.007.01-.004c.244-.128.568-.24.874-.407.15-.086.3-.184.426-.31s.23-.284.288-.468v-.002c.024-.08.034-.16.034-.24 0-.15-.04-.293-.11-.422-.103-.193-.273-.35-.47-.465zm-12.957-7.567c-1.36 0-2.463 1.09-2.463 2.46 0 1.36 1.094 2.46 2.463 2.46 1.36 0 2.462-1.09 2.462-2.46 0-1.36-1.095-2.46-2.463-2.46zm12.31 0c-1.36 0-2.464 1.09-2.464 2.46 0 1.36 1.093 2.46 2.463 2.46 1.36 0 2.46-1.09 2.46-2.46 0-1.36-1.093-2.46-2.46-2.46z" fill="#fff"/></g></svg>