<svg xmlns="http://www.w3.org/2000/svg" width="64" height="64" viewBox="0 0 64 64"><g><circle cx="32" cy="32" r="32" fill="#EF4E23"/><path d="M6.42 51.224C12.257 58.982 21.542 64 32 64c17.672 0 32-14.326 32-32 0-7.574-2.638-14.53-7.037-20.01L6.42 51.223z" fill="#D4451F"/><path d="M44 32v6c0 1.105-.895 2-2 2s-2-.895-2-2v-6l-3 1-3-1v6c0 4.418 3.582 8 8 8s8-3.582 8-8v-6h-6zM34 30l3-1 3 1v-4c0-4.418-3.582-8-8-8s-8 3.582-8 8v12c0 1.105-.895 2-2 2s-2-.895-2-2v-6h-6v6c0 4.418 3.582 8 8 8s8-3.582 8-8V26c0-1.105.895-2 2-2s2 .895 2 2v4z" fill="#fff"/></g></svg>