<svg xmlns="http://www.w3.org/2000/svg" width="64" height="64" viewBox="0 0 64 64"><g><circle cx="32" cy="32" r="32" fill="#44546A"/><path d="M6.42 51.224C12.257 58.982 21.542 64 32 64c17.672 0 32-14.326 32-32 0-7.574-2.638-14.53-7.037-20.01L6.42 51.223z" fill="#3C4B5E"/><path d="M38.87 46.693c-1.28 0-2.413-.297-3.41-.893-.753-.446-1.46-1.388-1.46-2.2v-16h10v-8H34v-10h-8v4c0 4.418-3.582 8-8 8v6h6v16c0 2.053-.063 3.656.3 4.568.433 1.082.97 2.045 2.083 3.006 1.115.957 1.996 1.53 3.574 2.047 1.725.57 3.55.78 5.44.78 1.806 0 3.485-.182 5.04-.545S44.132 52.367 46 51.2v-7c-2.215 1.72-4.86 2.493-7.13 2.493z" fill="#fff"/></g></svg>