<svg xmlns="http://www.w3.org/2000/svg" width="64" height="64" viewBox="0 0 64 64"><g><circle cx="32" cy="32" r="32" fill="#55ACEE"/><path d="M6.42 51.224C12.257 58.982 21.542 64 32 64c17.672 0 32-14.326 32-32 0-7.574-2.638-14.53-7.037-20.01L6.42 51.223z" fill="#4C99D4"/><path d="M52.027 19.793c-1.477.645-3.055 1.074-4.72 1.27 1.7-.995 3-2.577 3.614-4.464-1.585.923-3.343 1.595-5.214 1.958-1.496-1.568-3.633-2.55-5.992-2.55-4.54 0-8.21 3.612-8.21 8.077 0 .63.07 1.25.206 1.846-6.824-.343-12.87-3.56-16.922-8.442-.707 1.193-1.117 2.58-1.117 4.063 0 2.8 1.458 5.272 3.657 6.726-1.344-.045-2.613-.408-3.715-1.014-.004.035-.004.066-.004.102 0 3.916 2.832 7.184 6.586 7.926-.686.182-1.41.283-2.164.283-.527 0-1.04-.05-1.54-.143 1.04 3.207 4.075 5.543 7.667 5.613-2.805 2.162-6.35 3.46-10.197 3.46-.66 0-1.32-.038-1.96-.116 3.632 2.29 7.952 3.627 12.59 3.627 15.105 0 23.366-12.313 23.366-22.99 0-.346-.012-.7-.03-1.04 1.605-1.15 2.998-2.572 4.1-4.19z" fill="#fff"/></g></svg>