<svg xmlns="http://www.w3.org/2000/svg" width="64" height="64" viewBox="0 0 64 64"><g><path d="M64 32c0 17.674-14.326 32-32 32S0 49.674 0 32C0 14.327 14.326 0 32 0s32 14.327 32 32z" fill="#00AA7C"/><path d="M6.42 51.224C12.257 58.982 21.542 64 32 64c17.672 0 32-14.326 32-32 0-7.574-2.638-14.53-7.037-20.01L6.42 51.223z" fill="#00976E"/><path d="M38.666 20.66c0-2.977 5.854-4.52 5.854.514-.018 2.76-.39 5.31-.985 7.646h6.086c.465-2.818.445-5.604.445-8.883 0-9.238-17.044-10.778-17.044.93 0 8.22 3.873 12.544 7.924 14.82C37.57 42.31 33.02 45.92 33.02 45.92 20.29 35.547 21.523 17.99 21.523 17.99h-5.546c.105 23.718 12.632 32.033 14.172 33.27 1.54 1.23 1.848 1.128 3.697 1.025 1.846-.104 6.053-4.314 11.188-12.32.494-.775.94-1.516 1.344-2.237 2.148.48 3.687.49 3.687.49v-5.03c-10.783-1.03-11.398-10.27-11.398-12.53z" fill="#fff"/></g></svg>