<svg xmlns="http://www.w3.org/2000/svg" width="64" height="64" viewBox="0 0 64 64"><g><circle cx="32" cy="32" r="32" fill="#4C75A3"/><path d="M6.42 51.224C12.257 58.982 21.542 64 32 64c17.672 0 32-14.326 32-32 0-7.574-2.638-14.53-7.037-20.01L6.42 51.223z" fill="#446891"/><path d="M31.555 44.765h2.48s.747-.083 1.13-.495c.353-.378.342-1.088.342-1.088s-.05-3.327 1.495-3.816c1.52-.482 3.477 3.215 5.547 4.636 1.566 1.076 2.757.842 2.757.842l5.54-.078s2.896-.18 1.522-2.457c-.113-.187-.802-1.687-4.12-4.766-3.473-3.225-3.008-2.703 1.176-8.28 2.55-3.395 3.567-5.467 3.25-6.355-.305-.848-2.18-.624-2.18-.624l-6.236.04s-.46-.064-.805.14c-.334.202-.55.67-.55.67S41.918 25.766 40.6 28c-2.775 4.714-3.888 4.965-4.34 4.67-1.057-.682-.793-2.74-.793-4.203 0-4.57.692-6.477-1.35-6.97-.68-.163-1.178-.272-2.913-.29-2.224-.02-4.107.008-5.174.53-.71.35-1.257 1.12-.923 1.166.413.056 1.346.252 1.84.926.64.868.617 2.82.617 2.82s.368 5.38-.858 6.05c-.84.457-1.993-.48-4.47-4.757-1.27-2.19-2.226-4.614-2.226-4.614s-.185-.452-.514-.696c-.4-.293-.96-.386-.96-.386l-5.926.037s-.89.026-1.215.412c-.292.345-.023 1.056-.023 1.056s4.64 10.856 9.894 16.327c4.82 5.015 10.29 4.685 10.29 4.685z" fill="#fff"/></g></svg>