<?xml version="1.0" encoding="utf-8"?>
<!-- Generator: Adobe Illustrator 16.0.0, SVG Export Plug-In . SVG Version: 6.00 Build 0)  -->
<!DOCTYPE svg PUBLIC "-//W3C//DTD SVG 1.1//EN" "http://www.w3.org/Graphics/SVG/1.1/DTD/svg11.dtd">
<svg version="1.1" xmlns="http://www.w3.org/2000/svg" xmlns:xlink="http://www.w3.org/1999/xlink" x="0px" y="0px"
	 width="110.10742px" height="107.63379px" viewBox="0 0 110.10742 107.63379" enable-background="new 0 0 110.10742 107.63379"
	 xml:space="preserve">
<g id="Layer_1">
</g>
<g id="social_market">
</g>
<g id="set2">
</g>
<g id="Layer_5">
	<g>
		<g>
			<path fill="#ED2E32" d="M39.70996,8.28613c4.30273-1.69727,9.03223-1.34277,13.5791-1.49121
				c5.5918-0.17969,11.29297-0.53516,16.73926,0.98047c0-1.66797,0-3.33691,0-5.00488
				C66.7207,3.95703,63.2207,3.71582,59.76953,4.0625c-4.07617,0.4082-8.14062,0.88672-12.19531,1.4707
				c-8.45898,1.21973-16.68555,3.87598-25.0918,5.41699c-2.9043,0.5332-2.20117,5.19922,0.68945,5.09766
				c10.62305-0.37305,21.23047-1.11914,31.86719-0.85352c5.50586,0.1377,11.06738,0.55664,16.52344,1.30469
				c3.96094,0.54297,8.80273,0.94336,12.33008,2.94238c0.20703-1.58008,0.41211-3.16113,0.61914-4.74316
				c-6.4375,1.24805-13.36328,0.87305-19.90234,1.40723c-6.55078,0.53613-13.0752,1.36133-19.63086,1.84082
				c-11.89648,0.87012-23.82812,1.33496-35.44922,4.25098c-3.30859,0.83203-1.84961,5.52734,1.37988,5.00586
				c28.13867-4.55664,56.60254-0.16895,84.86035,0.43262c0-1.73047,0-3.45898,0-5.18945
				c-15.19434,1.50195-30.44727,2.06934-45.60938,3.9209c-15.79102,1.92676-31.43164,4.9043-47.26953,6.47363
				c0.23145,1.69922,0.46094,3.39746,0.69141,5.09766c7.36914-1.44727,15.12012-1.34668,22.60059-1.9375
				c8.75879-0.69238,17.53027-1.02832,26.31445-0.73145c16.48535,0.55664,32.90137,2.5,49.40625,2.93164
				c-0.22949-1.69922-0.45898-3.39746-0.69043-5.09766c-16.85742,2.38574-34.06543,2.1416-51.01953,3.70117
				c-16.17188,1.48535-32.31445,3.4043-48.16211,7.03516c-2.92969,0.67188-2.17188,5.02637,0.68945,5.09766
				c7.90234,0.19922,15.81055-1.72461,23.66699-2.43164c9.02246-0.81152,18.08496-1.14941,27.13965-1.28223
				c8.51953-0.125,17.00977,0.01465,25.51367,0.55273c8.53125,0.53906,18.16797,0.4541,26.26367,3.41016
				c0-1.66895,0-3.33691,0-5.00586c-3.76758,1.19336-7.6875,0.81152-11.58203,0.75977
				c-4.49414-0.05859-9.03906,0.32031-13.5293,0.52246c-9.13086,0.4082-18.26172,0.83203-27.39062,1.28906
				c-9.39258,0.47168-18.76953,1.18457-28.15137,1.83398c-7.57715,0.52441-15.47559,0.50684-22.79004,2.75195
				c-2.30664,0.70898-2.64551,4.4873,0,5.00586c3.48438,0.68066,6.83008,0.41699,10.34766,0.0918
				c4.45117-0.41113,8.99023-0.18848,13.45898-0.22656c9.62109-0.08301,19.24023-0.1709,28.86035,0.11816
				c9.5166,0.28516,19.02246,0.88379,28.53125,1.3623c3.72559,0.1875,7.40137,0.32617,11.12891,0.1748
				c3.85449-0.15723,8.42285-0.72363,12.02832,0.94336c0-1.49316,0-2.9873,0-4.48047
				c-5.94238,3.03906-14.58887,1.99219-21.125,2.57129c-9.20508,0.81641-18.42773,1.42676-27.65234,1.96582
				c-17.17188,1.00391-34.58203,1.8418-51.31836,6.10742c-2.80664,0.7168-2.26367,5.25977,0.69141,5.09766
				c18.01758-0.99023,35.95117-0.93457,53.97656-1.23047c7.0957-0.11719,14.18652-0.36426,21.28223-0.38867
				c3.21777-0.00977,6.43262,0.05859,9.64551,0.23633c2.82227,0.15527,10.38867-0.58789,11.83984,2.37793
				c0.51758-1.26953,1.0332-2.54102,1.55078-3.8125c-17.23633,6.56055-35.9541,2.00586-53.75781,3.99512
				c-7.31055,0.81738-14.61719,1.28418-21.94531,1.94434c-6.42969,0.58008-13.37402,1.34277-19.02637,4.70312
				c-1.52832,0.9082-1.84863,3.66211,0,4.48047c9.69141,4.29199,23.59961,1.30957,33.59863,0.69238
				c8.84082-0.54688,17.71875-0.45117,26.57031-0.34277c7.87305,0.0957,17.35938-1.22754,24.87207,1.39648
				c-0.20605-1.58105-0.41309-3.16211-0.61914-4.74219c-4.4873,2.14746-12.23926,0.48438-17.10742,0.52539
				c-7.1084,0.06152-14.20996,0.36426-21.29004,0.99512c-12.8418,1.14453-25.50391,3.18652-38.13867,5.72852
				c-2.88281,0.58105-2.21289,5.21875,0.68945,5.09766c12.12695-0.50391,24.30664-0.08301,36.44727-0.36914
				c9.4834-0.22363,19.52734-1.28223,28.98242-0.16016c-0.22949-1.69824-0.45898-3.39746-0.68945-5.09668
				c-8.11523,1.5752-16.48828,1.26465-24.68848,2.1377c-9.43457,1.00391-19.08105,2.26465-28.34375,4.3418
				c-2.85352,0.64062-2.2334,5.24023,0.68848,5.09766c16.0332-0.77734,32.3584-3.18555,48.35742-0.84277
				c-0.20703-1.58203-0.41309-3.16309-0.61914-4.74414c-11.58691,5.95312-26.45117,5.19043-38.98828,7.95801
				c-3.02832,0.66895-2.07227,4.86914,0.69141,5.09766c10.57812,0.87793,20.35645,4.91602,30.83008,0.9043
				c3.0918-1.18457,1.75098-6.2041-1.37891-5.00586c-9.89062,3.78906-19.44141-0.25684-29.45117-1.08789
				c0.22949,1.69824,0.45898,3.39746,0.68945,5.09766c13.10742-2.89551,28.09277-2.24805,40.22656-8.48145
				c1.87109-0.96191,1.62305-4.41602-0.62012-4.74414c-16.52734-2.41797-33.17285-0.14355-49.7373,0.65918
				c0.23242,1.69824,0.46094,3.39746,0.69141,5.09766c9.68555-2.17285,19.79688-3.54102,29.68457-4.42383
				c7.78418-0.69531,15.64941-0.56348,23.34668-2.05664c3.11914-0.60645,1.97852-4.78125-0.68945-5.09766
				c-9.45508-1.12207-19.49902-0.06348-28.98242,0.16016c-12.14062,0.28613-24.32031-0.13477-36.44727,0.36914
				c0.23145,1.69922,0.46094,3.39746,0.69043,5.09766c14.09277-2.83594,28.21582-5.01074,42.56543-6.00391
				c7.08203-0.49023,14.19336-0.55371,21.29102-0.56348c4.78906-0.00684,9.43359,0.94043,13.91895-1.20703
				c2.19043-1.04883,1.31055-4.06934-0.61914-4.74316c-5.8291-2.03418-12.01172-1.35645-18.07227-1.45508
				c-8.8623-0.14355-17.72168-0.27148-26.58496-0.11035c-8.81836,0.16016-17.6084,1.03809-26.41602,1.47266
				c-3.71875,0.18359-9.29688,0.38965-12.72949-1.12891c0,1.49316,0,2.9873,0,4.48047
				c6.00684-3.57031,13.82227-3.8252,20.61035-4.3418c7.22754-0.54785,14.41211-1.37793,21.62891-1.97461
				c17.07031-1.40918,34.72461,2.48926,51.25195-3.80078c1.63574-0.62305,2.33594-2.20801,1.55078-3.8125
				c-2.69531-5.50488-11.22656-4.59668-16.32227-4.94824c-8.32031-0.57617-16.73242-0.1748-25.06055,0.02441
				c-19.9707,0.47559-39.87695,0.25977-59.84375,1.35742c0.22852,1.69922,0.45898,3.39844,0.68945,5.09766
				c17.56836-4.47754,35.8623-5.07422,53.87988-6.15527c9.22754-0.55469,18.44434-1.24512,27.64941-2.08691
				c6.64258-0.6084,13.68555,0.2041,19.80566-2.92676c1.64355-0.83887,1.74707-3.67285,0-4.48047
				c-5.41309-2.50586-11.56934-1.74609-17.36035-1.55273c-9.5293,0.32031-19.25293-0.87012-28.77148-1.31445
				c-10.28516-0.48145-20.56348-0.5752-30.85547-0.49707c-4.81543,0.03613-9.63086,0.08984-14.44531,0.10938
				C12.75,51.09082,7.83984,52.2373,3.24023,51.33789c0,1.66895,0,3.33691,0,5.00586
				c8.07812-2.48047,17.06934-2.26367,25.44629-2.84863c9.36621-0.65234,18.72949-1.30957,28.10938-1.74512
				c9.08887-0.42285,18.17676-0.875,27.2666-1.26758c7.24707-0.31348,15.64551,0.91211,22.62207-1.2959
				c2.55078-0.80859,2.38574-4.13379,0-5.00586c-7.40723-2.70215-15.9209-2.70605-23.7002-3.31348
				c-9.17578-0.7168-18.33008-0.90918-27.52832-0.85352c-9.05566,0.05566-18.1084,0.44238-27.13672,1.1416
				c-8.48145,0.65527-17.10254,2.80664-25.59863,2.59277c0.23145,1.69824,0.46094,3.39746,0.69043,5.09766
				c16.70898-3.83008,33.71777-5.67188,50.76465-7.21582c16.11523-1.45801,32.38379-1.25195,48.41797-3.52051
				c2.99219-0.42383,2.11914-5.02441-0.69043-5.09766c-17.18457-0.44922-34.27441-2.4209-51.44141-3.00098
				c-8.77051-0.2959-17.55859,0.26855-26.2959,0.95898c-7.3125,0.57812-14.75,0.54785-21.96484,1.96387
				c-2.85352,0.56055-2.22461,5.38574,0.68945,5.09766c15.17871-1.50488,30.18945-4.22168,45.30371-6.22461
				c15.80176-2.09375,31.72363-2.60352,47.5752-4.1709c3.27246-0.32324,3.4043-5.11719,0-5.18945
				c-28.78125-0.61328-57.5791-4.88867-86.24023-0.24902c0.45898,1.66895,0.91992,3.33691,1.37988,5.00586
				c12.33301-3.0957,25.04199-3.34473,37.65527-4.33984c6.69336-0.52734,13.35742-1.38184,20.05566-1.88086
				c5.73926-0.42676,11.61035-0.18164,17.27246-1.27832c2.25195-0.43652,2.47559-3.69141,0.61914-4.74316
				c-7.70703-4.36719-19.04102-4.28125-27.64648-4.76367c-11.9082-0.66797-23.79395,0.24219-35.69336,0.66113
				c0.22949,1.69824,0.45898,3.39746,0.68945,5.09766c8.41797-1.54395,16.64258-4.07617,25.09375-5.41797
				c4.2168-0.66992,8.4834-1.05273,12.73047-1.47852c3.3418-0.33496,6.50879-0.13281,9.72266-1.28418
				c2.33691-0.83789,2.60449-4.2793,0-5.00488C66.00977,1.26855,60.4043,1.37988,54.84668,1.55273
				c-5.45605,0.16895-11.35059-0.30957-16.5166,1.72852C35.25488,4.49414,36.59277,9.51465,39.70996,8.28613L39.70996,8.28613z"/>
			<path fill="#ED2E32" d="M39.70996,6.66797c4.30273-1.69727,9.03223-1.34277,13.5791-1.49121
				c5.5918-0.17969,11.29297-0.53516,16.73926,0.98047c0-1.66797,0-3.33691,0-5.00488
				C66.7207,2.33887,63.2207,2.09766,59.76953,2.44434c-4.07617,0.4082-8.14062,0.88672-12.19531,1.4707
				c-8.45898,1.21973-16.68555,3.87598-25.0918,5.41699c-2.9043,0.5332-2.20117,5.19922,0.68945,5.09766
				c10.62305-0.37305,21.23047-1.11914,31.86719-0.85352c5.50586,0.1377,11.06738,0.55664,16.52344,1.30469
				c3.96094,0.54297,8.80273,0.94336,12.33008,2.94238c0.20703-1.58008,0.41211-3.16113,0.61914-4.74316
				c-6.4375,1.24805-13.36328,0.87305-19.90234,1.40723c-6.55078,0.53613-13.0752,1.36133-19.63086,1.84082
				C33.08203,17.19824,21.15039,17.66309,9.5293,20.5791c-3.30859,0.83203-1.84961,5.52734,1.37988,5.00586
				c28.13867-4.55664,56.60254-0.16895,84.86035,0.43262c0-1.73047,0-3.45898,0-5.18945
				c-15.19434,1.50195-30.44727,2.06934-45.60938,3.9209c-15.79102,1.92676-31.43164,4.9043-47.26953,6.47363
				c0.23145,1.69922,0.46094,3.39746,0.69141,5.09766c7.36914-1.44727,15.12012-1.34668,22.60059-1.9375
				c8.75879-0.69238,17.53027-1.02832,26.31445-0.73145c16.48535,0.55664,32.90137,2.5,49.40625,2.93164
				c-0.22949-1.69922-0.45898-3.39746-0.69043-5.09766c-16.85742,2.38574-34.06543,2.1416-51.01953,3.70117
				c-16.17188,1.48535-32.31445,3.4043-48.16211,7.03516c-2.92969,0.67188-2.17188,5.02637,0.68945,5.09766
				c7.90234,0.19922,15.81055-1.72461,23.66699-2.43164c9.02246-0.81152,18.08496-1.14941,27.13965-1.28223
				c8.51953-0.125,17.00977,0.01465,25.51367,0.55273c8.53125,0.53906,18.16797,0.4541,26.26367,3.41016
				c0-1.66895,0-3.33691,0-5.00586c-3.76758,1.19336-7.6875,0.81152-11.58203,0.75977
				c-4.49414-0.05859-9.03906,0.32031-13.5293,0.52246c-9.13086,0.4082-18.26172,0.83203-27.39062,1.28906
				c-9.39258,0.47168-18.76953,1.18457-28.15137,1.83398c-7.57715,0.52441-15.47559,0.50684-22.79004,2.75195
				c-2.30664,0.70898-2.64551,4.4873,0,5.00586c3.48438,0.68066,6.83008,0.41699,10.34766,0.0918
				c4.45117-0.41113,8.99023-0.18848,13.45898-0.22656c9.62109-0.08301,19.24023-0.1709,28.86035,0.11816
				c9.5166,0.28516,19.02246,0.88379,28.53125,1.3623c3.72559,0.1875,7.40137,0.32617,11.12891,0.1748
				c3.85449-0.15723,8.42285-0.72363,12.02832,0.94336c0-1.49316,0-2.9873,0-4.48047
				c-5.94238,3.03906-14.58887,1.99219-21.125,2.57129c-9.20508,0.81641-18.42773,1.42676-27.65234,1.96582
				C40.26758,58.25,22.85742,59.08789,6.12109,63.35352c-2.80664,0.7168-2.26367,5.25977,0.69141,5.09766
				c18.01758-0.99023,35.95117-0.93457,53.97656-1.23047c7.0957-0.11719,14.18652-0.36426,21.28223-0.38867
				c3.21777-0.00977,6.43262,0.05859,9.64551,0.23633c2.82227,0.15527,10.38867-0.58789,11.83984,2.37793
				c0.51758-1.26953,1.0332-2.54102,1.55078-3.8125c-17.23633,6.56055-35.9541,2.00586-53.75781,3.99512
				c-7.31055,0.81738-14.61719,1.28418-21.94531,1.94434c-6.42969,0.58008-13.37402,1.34277-19.02637,4.70312
				c-1.52832,0.9082-1.84863,3.66211,0,4.48047c9.69141,4.29199,23.59961,1.30957,33.59863,0.69238
				c8.84082-0.54688,17.71875-0.45117,26.57031-0.34277c7.87305,0.0957,17.35938-1.22754,24.87207,1.39648
				c-0.20605-1.58105-0.41309-3.16211-0.61914-4.74219c-4.4873,2.14746-12.23926,0.48438-17.10742,0.52539
				c-7.1084,0.06152-14.20996,0.36426-21.29004,0.99512c-12.8418,1.14453-25.50391,3.18652-38.13867,5.72852
				c-2.88281,0.58105-2.21289,5.21875,0.68945,5.09766c12.12695-0.50391,24.30664-0.08301,36.44727-0.36914
				c9.4834-0.22363,19.52734-1.28223,28.98242-0.16016c-0.22949-1.69824-0.45898-3.39746-0.68945-5.09668
				c-8.11523,1.5752-16.48828,1.26465-24.68848,2.1377c-9.43457,1.00391-19.08105,2.26465-28.34375,4.3418
				c-2.85352,0.64062-2.2334,5.24023,0.68848,5.09766c16.0332-0.77734,32.3584-3.18555,48.35742-0.84277
				c-0.20703-1.58203-0.41309-3.16309-0.61914-4.74414c-11.58691,5.95312-26.45117,5.19043-38.98828,7.95801
				c-3.02832,0.66895-2.07227,4.86914,0.69141,5.09766c10.57812,0.87793,20.35645,4.91602,30.83008,0.9043
				c3.0918-1.18457,1.75098-6.2041-1.37891-5.00586c-9.89062,3.78906-19.44141-0.25684-29.45117-1.08789
				c0.22949,1.69824,0.45898,3.39746,0.68945,5.09766c13.10742-2.89551,28.09277-2.24805,40.22656-8.48145
				c1.87109-0.96191,1.62305-4.41602-0.62012-4.74414c-16.52734-2.41797-33.17285-0.14355-49.7373,0.65918
				c0.23242,1.69824,0.46094,3.39746,0.69141,5.09766c9.68555-2.17285,19.79688-3.54102,29.68457-4.42383
				c7.78418-0.69531,15.64941-0.56348,23.34668-2.05664c3.11914-0.60645,1.97852-4.78125-0.68945-5.09766
				c-9.45508-1.12207-19.49902-0.06348-28.98242,0.16016c-12.14062,0.28613-24.32031-0.13477-36.44727,0.36914
				c0.23145,1.69922,0.46094,3.39746,0.69043,5.09766c14.09277-2.83594,28.21582-5.01074,42.56543-6.00391
				c7.08203-0.49023,14.19336-0.55371,21.29102-0.56348c4.78906-0.00684,9.43359,0.94043,13.91895-1.20703
				c2.19043-1.04883,1.31055-4.06934-0.61914-4.74316c-5.8291-2.03418-12.01172-1.35645-18.07227-1.45508
				c-8.8623-0.14355-17.72168-0.27148-26.58496-0.11035c-8.81836,0.16016-17.6084,1.03809-26.41602,1.47266
				c-3.71875,0.18359-9.29688,0.38965-12.72949-1.12891c0,1.49316,0,2.9873,0,4.48047
				c6.00684-3.57031,13.82227-3.8252,20.61035-4.3418c7.22754-0.54785,14.41211-1.37793,21.62891-1.97461
				c17.07031-1.40918,34.72461,2.48926,51.25195-3.80078c1.63574-0.62305,2.33594-2.20801,1.55078-3.8125
				c-2.69531-5.50488-11.22656-4.59668-16.32227-4.94824c-8.32031-0.57617-16.73242-0.1748-25.06055,0.02441
				c-19.9707,0.47559-39.87695,0.25977-59.84375,1.35742c0.22852,1.69922,0.45898,3.39844,0.68945,5.09766
				c17.56836-4.47754,35.8623-5.07422,53.87988-6.15527c9.22754-0.55469,18.44434-1.24512,27.64941-2.08691
				c6.64258-0.6084,13.68555,0.2041,19.80566-2.92676c1.64355-0.83887,1.74707-3.67285,0-4.48047
				c-5.41309-2.50586-11.56934-1.74609-17.36035-1.55273c-9.5293,0.32031-19.25293-0.87012-28.77148-1.31445
				c-10.28516-0.48145-20.56348-0.5752-30.85547-0.49707c-4.81543,0.03613-9.63086,0.08984-14.44531,0.10938
				c-4.6543,0.01855-9.56445,1.16504-14.16406,0.26562c0,1.66895,0,3.33691,0,5.00586
				c8.07812-2.48047,17.06934-2.26367,25.44629-2.84863c9.36621-0.65234,18.72949-1.30957,28.10938-1.74512
				c9.08887-0.42285,18.17676-0.875,27.2666-1.26758c7.24707-0.31348,15.64551,0.91211,22.62207-1.2959
				c2.55078-0.80859,2.38574-4.13379,0-5.00586c-7.40723-2.70215-15.9209-2.70605-23.7002-3.31348
				c-9.17578-0.7168-18.33008-0.90918-27.52832-0.85352c-9.05566,0.05566-18.1084,0.44238-27.13672,1.1416
				c-8.48145,0.65527-17.10254,2.80664-25.59863,2.59277c0.23145,1.69824,0.46094,3.39746,0.69043,5.09766
				c16.70898-3.83008,33.71777-5.67188,50.76465-7.21582c16.11523-1.45801,32.38379-1.25195,48.41797-3.52051
				c2.99219-0.42383,2.11914-5.02441-0.69043-5.09766c-17.18457-0.44922-34.27441-2.4209-51.44141-3.00098
				c-8.77051-0.2959-17.55859,0.26855-26.2959,0.95898c-7.3125,0.57812-14.75,0.54785-21.96484,1.96387
				c-2.85352,0.56055-2.22461,5.38574,0.68945,5.09766c15.17871-1.50488,30.18945-4.22168,45.30371-6.22461
				c15.80176-2.09375,31.72363-2.60352,47.5752-4.1709c3.27246-0.32324,3.4043-5.11719,0-5.18945
				c-28.78125-0.61328-57.5791-4.88867-86.24023-0.24902c0.45898,1.66895,0.91992,3.33691,1.37988,5.00586
				c12.33301-3.0957,25.04199-3.34473,37.65527-4.33984c6.69336-0.52734,13.35742-1.38184,20.05566-1.88086
				c5.73926-0.42676,11.61035-0.18164,17.27246-1.27832c2.25195-0.43652,2.47559-3.69141,0.61914-4.74316
				C78.80469,8.97559,67.4707,9.06152,58.86523,8.5791c-11.9082-0.66797-23.79395,0.24219-35.69336,0.66113
				c0.22949,1.69824,0.45898,3.39746,0.68945,5.09766c8.41797-1.54395,16.64258-4.07617,25.09375-5.41797
				c4.2168-0.66992,8.4834-1.05273,12.73047-1.47852c3.3418-0.33496,6.50879-0.13281,9.72266-1.28418
				c2.33691-0.83789,2.60449-4.2793,0-5.00488C66.00977-0.34961,60.4043-0.23828,54.84668-0.06543
				C49.39062,0.10352,43.49609-0.375,38.33008,1.66309C35.25488,2.87598,36.59277,7.89648,39.70996,6.66797L39.70996,6.66797z"/>
		</g>
		<g>
			<path fill="#FFFFFF" d="M53.4541,59.12695c0,0-3.5166-2.8877,0-5.90137c0,0,5.27246-3.13867,6.40137-8.28711
				c0,0,1.63281-7.15625-4.77148-11.4248h4.14453l4.89648-2.7627H45.79395c0,0-10.04395,0.12695-13.18262,8.16211
				c0,0-2.88867,6.52832,1.50781,11.92578c0,0,2.76172,3.89355,8.0332,4.39551l3.6416-0.12695c0,0-2.25879,3.51855,1.38184,7.53223
				c0,0-12.30664,0.25488-16.19629,5.15137c0,0-6.90625,6.52832,0.50098,13.55957c0,0,5.02148,4.64746,17.07617,3.0127
				c0,0,8.91211-1.50684,12.80566-8.66309c0,0,3.2627-6.5293-2.25879-11.80176
				C59.10352,63.89844,55.08398,60.13184,53.4541,59.12695z M38.76172,45.44141c-1.71484-5.43652,0.05859-10.8418,3.96094-12.0752
				c3.90137-1.23242,8.45703,2.1748,10.17188,7.6123c1.71875,5.4375-0.05371,10.84277-3.95703,12.07324
				C45.03516,54.28516,40.47949,50.87695,38.76172,45.44141z M55.23047,78.85156
				c-5.90234,4.76953-13.58008,1.99609-13.58008,1.99609c-10.17188-3.26465-6.5293-10.9248-6.5293-10.9248
				c4.01758-6.52734,14.56445-5.14453,14.56445-5.14453l4.89551,3.76562C60.78516,73.89941,55.23047,78.85156,55.23047,78.85156z"/>
			<polygon fill="#FFFFFF" points="88.24219,40.57715 80.9082,40.57715 80.9082,33.24512 77.54102,33.24512 77.54102,40.57715 
				70.20703,40.57715 70.20703,43.94629 77.54102,43.94629 77.54102,51.28027 80.9082,51.28027 80.9082,43.94629 88.24219,43.94629 
							"/>
		</g>
	</g>
</g>
<g id="Layer_6">
</g>
<g id="Twitter_Logo_Silhouette_designed_by_Elegant_Themes_from_Flaticon.com">
</g>
</svg>
