<?xml version="1.0" encoding="utf-8"?>
<!-- Generator: Adobe Illustrator 16.0.0, SVG Export Plug-In . SVG Version: 6.00 Build 0)  -->
<!DOCTYPE svg PUBLIC "-//W3C//DTD SVG 1.1//EN" "http://www.w3.org/Graphics/SVG/1.1/DTD/svg11.dtd">
<svg version="1.1" xmlns="http://www.w3.org/2000/svg" xmlns:xlink="http://www.w3.org/1999/xlink" x="0px" y="0px"
	 width="110.10742px" height="107.63379px" viewBox="0 0 110.10742 107.63379" enable-background="new 0 0 110.10742 107.63379"
	 xml:space="preserve">
<g id="Layer_1">
</g>
<g id="social_market">
</g>
<g id="set2">
</g>
<g id="Layer_5">
	<g>
		<g>
			<path fill="#4C3C38" d="M39.4834,8.7041c4.30273-1.69824,9.0332-1.34277,13.58008-1.49121
				c5.5918-0.17969,11.29102-0.53516,16.7373,0.98047c0-1.66797,0-3.33691,0-5.00586
				c-3.30762,1.1875-6.80762,0.94531-10.25879,1.29297c-4.07617,0.4082-8.13867,0.88672-12.19336,1.4707
				c-8.45898,1.21875-16.68555,3.87598-25.09375,5.41602c-2.9043,0.5332-2.2002,5.19922,0.69141,5.09766
				c10.62305-0.37305,21.22949-1.11816,31.86719-0.85352c5.50586,0.13867,11.06543,0.55664,16.52148,1.30469
				c3.96094,0.54395,8.80371,0.94531,12.33105,2.94434c0.20703-1.58105,0.41211-3.16309,0.61914-4.74414
				c-6.43848,1.24805-13.36426,0.87305-19.90332,1.40723c-6.55078,0.53613-13.07422,1.36133-19.62891,1.84082
				c-11.89648,0.87012-23.82812,1.33496-35.44922,4.25098c-3.31055,0.83203-1.85059,5.52734,1.37891,5.00586
				c28.13867-4.55664,56.60156-0.16992,84.86035,0.43262c0-1.73047,0-3.45996,0-5.19043
				c-15.19434,1.50195-30.44727,2.07129-45.61035,3.92188c-15.79004,1.92578-31.43066,4.9043-47.26758,6.47363
				c0.23047,1.69824,0.45996,3.39746,0.68945,5.09766c7.37109-1.44824,15.12109-1.34668,22.60156-1.93848
				c8.75781-0.69141,17.53027-1.02734,26.31445-0.73047c16.48535,0.55664,32.90039,2.5,49.40723,2.93164
				c-0.23145-1.69922-0.46094-3.39844-0.69141-5.09766c-16.85742,2.38574-34.06641,2.1416-51.01953,3.70117
				c-16.17188,1.48535-32.31445,3.4043-48.16113,7.03516c-2.92969,0.67188-2.17285,5.02539,0.68848,5.09766
				c7.90332,0.19922,15.81152-1.72461,23.66699-2.43164c9.02246-0.8125,18.08398-1.14844,27.13867-1.28223
				c8.51953-0.125,17.00977,0.01465,25.51367,0.55176c8.5332,0.53906,18.16895,0.45508,26.26367,3.41016
				c0-1.66797,0-3.33594,0-5.00586c-3.7666,1.19336-7.6875,0.8125-11.58008,0.76074
				c-4.49414-0.05859-9.04102,0.32129-13.53027,0.52246c-9.13086,0.4082-18.2627,0.83203-27.38965,1.28906
				c-9.39258,0.4707-18.77148,1.18359-28.15234,1.83398c-7.57715,0.52344-15.47559,0.50684-22.79004,2.75195
				c-2.30762,0.70898-2.64551,4.4873,0,5.00586c3.48535,0.68066,6.83008,0.41699,10.34668,0.0918
				c4.45312-0.41211,8.99219-0.18848,13.45996-0.22656c9.62207-0.08398,19.23926-0.1709,28.86035,0.11816
				c9.51562,0.28418,19.02148,0.88379,28.53125,1.3623c3.72559,0.1875,7.40039,0.32617,11.12891,0.17383
				c3.85547-0.15625,8.42285-0.72266,12.0293,0.94531c0-1.49414,0-2.98828,0-4.48242
				c-5.94336,3.03906-14.58984,1.99219-21.12598,2.57227c-9.20508,0.81641-18.42871,1.42578-27.65137,1.96582
				c-17.17285,1.00293-34.58398,1.8418-51.31836,6.10645c-2.80859,0.7168-2.26465,5.25977,0.68945,5.09766
				c18.01758-0.99023,35.95312-0.93359,53.97754-1.23047c7.09473-0.11621,14.18652-0.36328,21.28223-0.3877
				c3.2168-0.01074,6.43262,0.05859,9.64551,0.23633c2.82227,0.15527,10.3877-0.58789,11.83984,2.37793
				c0.5166-1.26953,1.0332-2.54102,1.55078-3.8125c-17.23633,6.56055-35.9541,2.00586-53.75684,3.99512
				c-7.31152,0.81543-14.61719,1.28418-21.94629,1.94434c-6.42969,0.58008-13.37402,1.34277-19.02637,4.70215
				c-1.52832,0.90918-1.84863,3.66309,0,4.48145c9.69238,4.29102,23.59961,1.30957,33.59863,0.69141
				c8.84082-0.54688,17.71777-0.45117,26.57031-0.3418c7.87305,0.0957,17.3584-1.22656,24.87207,1.39648
				c-0.20703-1.58105-0.41211-3.16211-0.61816-4.74414c-4.48926,2.14941-12.24121,0.48633-17.1084,0.52734
				c-7.10938,0.06055-14.20996,0.36426-21.29102,0.99414c-12.83984,1.14453-25.50293,3.1875-38.13672,5.72949
				c-2.88477,0.58105-2.21484,5.21777,0.68945,5.09766c12.12695-0.50391,24.30566-0.08301,36.44531-0.36914
				c9.48438-0.22363,19.52734-1.28223,28.98242-0.16016c-0.22852-1.69824-0.45898-3.39746-0.68945-5.09668
				c-8.11523,1.57422-16.4873,1.26367-24.6875,2.13672c-9.43555,1.00488-19.08105,2.26562-28.34375,4.34277
				c-2.85352,0.64062-2.23438,5.23926,0.68945,5.09766c16.03125-0.77734,32.35742-3.18652,48.35645-0.84277
				c-0.20703-1.58203-0.41309-3.16309-0.62012-4.74414c-11.58594,5.95312-26.44922,5.19043-38.98633,7.95801
				c-3.0293,0.66895-2.07324,4.86816,0.68945,5.09766c10.57812,0.87793,20.35742,4.91504,30.83008,0.90332
				c3.09277-1.18359,1.75195-6.20312-1.37891-5.00488c-9.89062,3.78906-19.44141-0.25684-29.45117-1.08887
				c0.23047,1.69922,0.45898,3.39844,0.69141,5.09766c13.10547-2.89453,28.09082-2.24707,40.22461-8.48242
				c1.87109-0.96094,1.62402-4.41406-0.61914-4.74219c-16.52734-2.41797-33.17383-0.14453-49.73633,0.6582
				c0.23047,1.69922,0.45996,3.39844,0.68945,5.09766c9.68555-2.17188,19.79688-3.54004,29.68457-4.42285
				c7.78418-0.69531,15.65039-0.56348,23.34766-2.05664c3.11914-0.60645,1.97754-4.78223-0.69043-5.09766
				c-9.45508-1.12207-19.49805-0.06348-28.98242,0.16016c-12.13965,0.28613-24.31836-0.13574-36.44531,0.36816
				c0.23047,1.69922,0.45898,3.39844,0.68945,5.09766c14.09277-2.83594,28.21484-5.00977,42.56445-6.00391
				c7.08301-0.49023,14.19434-0.55273,21.29102-0.5625c4.79004-0.00781,9.43457,0.94043,13.9209-1.20703
				c2.18945-1.04883,1.30957-4.06934-0.62109-4.74414C90.74414,77.5,84.56055,78.17773,78.5,78.0791
				c-8.8623-0.14355-17.72168-0.27148-26.58496-0.11035C43.09668,78.12891,34.30762,79.00684,25.5,79.44141
				c-3.71777,0.18359-9.29688,0.38867-12.72949-1.12988c0,1.49414,0,2.98828,0,4.48145
				c6.00781-3.57129,13.82227-3.82617,20.60938-4.3418c7.22949-0.54883,14.41406-1.37891,21.62891-1.97461
				c17.07129-1.41016,34.72559,2.48828,51.25195-3.80078c1.63672-0.62305,2.33594-2.20801,1.55078-3.8125
				c-2.69336-5.50586-11.22656-4.59766-16.32129-4.94922c-8.32129-0.5752-16.73242-0.17383-25.06055,0.02539
				c-19.97168,0.47559-39.87793,0.25977-59.84473,1.35742c0.22949,1.69922,0.45898,3.39844,0.68945,5.09766
				c17.56836-4.47852,35.86328-5.07422,53.87988-6.15625c9.22754-0.55371,18.44434-1.24414,27.64941-2.08594
				c6.64355-0.60938,13.68652,0.2041,19.80664-2.92578c1.64258-0.83984,1.74609-3.67383,0-4.48242
				c-5.41211-2.50488-11.56934-1.74609-17.36133-1.55078c-9.52832,0.31836-19.25195-0.87012-28.77148-1.31641
				c-10.2832-0.48047-20.5625-0.57324-30.85547-0.49609c-4.81445,0.03613-9.62891,0.08984-14.44336,0.10938
				c-4.65527,0.01758-9.56543,1.16602-14.16406,0.26562c0,1.66797,0,3.33691,0,5.00586
				c8.07812-2.48047,17.06836-2.26367,25.44531-2.84961c9.36621-0.65234,18.73047-1.30859,28.10938-1.74414
				c9.08789-0.42383,18.17676-0.875,27.2666-1.26758c7.24707-0.31348,15.64551,0.91211,22.62207-1.29688
				c2.5498-0.80762,2.38574-4.13281,0-5.00586c-7.40625-2.70117-15.9209-2.70508-23.70117-3.3125
				c-9.17578-0.7168-18.3291-0.91016-27.52734-0.85352c-9.05664,0.05469-18.10742,0.44238-27.13672,1.14062
				c-8.48242,0.65625-17.10156,2.80664-25.59863,2.59375c0.23145,1.69824,0.45996,3.39746,0.69043,5.09766
				c16.70898-3.83008,33.7168-5.67188,50.76367-7.21582c16.11523-1.45801,32.38477-1.25293,48.41797-3.52051
				c2.99316-0.42383,2.11914-5.02539-0.68848-5.09766c-17.18555-0.44922-34.27637-2.42188-51.44238-3.00098
				c-8.76953-0.2959-17.55859,0.26855-26.29688,0.95898c-7.3125,0.57715-14.74902,0.54785-21.96289,1.96387
				c-2.85449,0.56055-2.22656,5.38574,0.68945,5.09766c15.17773-1.50488,30.18945-4.22168,45.30273-6.22461
				c15.80078-2.09375,31.72363-2.60352,47.5752-4.1709c3.27148-0.32324,3.40332-5.11719,0-5.19043
				C66.76074,22.25,37.96387,17.97461,9.30371,22.61523c0.45898,1.66797,0.91797,3.33691,1.37891,5.00586
				c12.33301-3.0957,25.04199-3.3457,37.6543-4.33984c6.69336-0.52734,13.3584-1.38281,20.05664-1.88086
				c5.73926-0.42773,11.61035-0.18164,17.27246-1.2793c2.25195-0.43555,2.47559-3.69141,0.61914-4.74316
				c-7.70703-4.36621-19.04102-4.28027-27.64746-4.7627c-11.9082-0.66797-23.79297,0.24219-35.69141,0.66016
				c0.22852,1.69922,0.45898,3.39844,0.68945,5.09766c8.41797-1.54297,16.64062-4.07617,25.09375-5.41797
				c4.2168-0.66895,8.48242-1.05176,12.72852-1.47754c3.34277-0.33496,6.50977-0.13281,9.72266-1.28418
				c2.33789-0.83789,2.60547-4.2793,0-5.00586c-5.39844-1.50195-11.00391-1.38965-16.56055-1.2168
				c-5.45703,0.16895-11.35059-0.30957-16.51562,1.72852C35.02832,4.91211,36.36621,9.93262,39.4834,8.7041L39.4834,8.7041z"/>
			<path fill="#4C3C38" d="M39.93652,6.25098c4.30273-1.69824,9.0332-1.34277,13.58008-1.49121
				c5.5918-0.17969,11.29102-0.53516,16.7373,0.98047c0-1.66797,0-3.33691,0-5.00586
				c-3.30762,1.1875-6.80762,0.94531-10.25879,1.29297c-4.07617,0.4082-8.13867,0.88672-12.19336,1.4707
				C39.34277,4.7168,31.11621,7.37402,22.70801,8.91406c-2.9043,0.5332-2.2002,5.19922,0.69141,5.09766
				c10.62305-0.37305,21.22949-1.11816,31.86719-0.85352c5.50488,0.13867,11.06543,0.55664,16.52148,1.30469
				c3.96094,0.54395,8.80371,0.94531,12.33105,2.94434c0.20703-1.58105,0.41211-3.16309,0.61914-4.74414
				c-6.43848,1.24805-13.36426,0.87305-19.90332,1.40723c-6.55078,0.53613-13.07422,1.36133-19.62891,1.84082
				c-11.89648,0.87012-23.82812,1.33496-35.44922,4.25098c-3.31055,0.83203-1.85059,5.52734,1.37891,5.00586
				c28.13867-4.55664,56.60156-0.16992,84.86035,0.43262c0-1.73047,0-3.45996,0-5.19043
				c-15.19434,1.50195-30.44727,2.07129-45.61035,3.92188c-15.79004,1.92578-31.43066,4.9043-47.26758,6.47363
				c0.23047,1.69824,0.45996,3.39746,0.68945,5.09766c7.37109-1.44824,15.12109-1.34668,22.60156-1.93848
				c8.75781-0.69141,17.53027-1.02734,26.31445-0.73047c16.48535,0.55664,32.90039,2.5,49.40723,2.93164
				c-0.23145-1.69922-0.46094-3.39844-0.69141-5.09766c-16.85742,2.38574-34.06641,2.1416-51.01953,3.70117
				c-16.17188,1.48535-32.31445,3.4043-48.16113,7.03516c-2.92969,0.67188-2.17285,5.02539,0.68848,5.09766
				c7.90332,0.19922,15.81152-1.72461,23.66699-2.43164c9.02246-0.8125,18.08398-1.14844,27.13867-1.28223
				c8.51953-0.125,17.00977,0.01465,25.51367,0.55176c8.5332,0.53906,18.16895,0.45508,26.26367,3.41016
				c0-1.66797,0-3.33594,0-5.00586c-3.7666,1.19336-7.6875,0.8125-11.58008,0.76074
				c-4.49414-0.05859-9.04102,0.32129-13.53027,0.52246c-9.13086,0.4082-18.2627,0.83203-27.38965,1.28906
				c-9.39258,0.4707-18.77148,1.18359-28.15234,1.83398c-7.57715,0.52344-15.47559,0.50684-22.79004,2.75195
				c-2.30762,0.70898-2.64551,4.4873,0,5.00586c3.48535,0.68066,6.83008,0.41699,10.34668,0.0918
				c4.45312-0.41211,8.99219-0.18848,13.45996-0.22656c9.62207-0.08398,19.23926-0.1709,28.86035,0.11816
				c9.51562,0.28418,19.02148,0.88379,28.53125,1.3623c3.72559,0.1875,7.40039,0.32617,11.12891,0.17383
				c3.85547-0.15625,8.42285-0.72266,12.0293,0.94531c0-1.49414,0-2.98828,0-4.48242
				c-5.94336,3.03906-14.58984,1.99219-21.12598,2.57227c-9.20508,0.81641-18.42871,1.42578-27.65137,1.96582
				c-17.17285,1.00293-34.58398,1.8418-51.31836,6.10645c-2.80859,0.7168-2.26465,5.25977,0.68945,5.09766
				c18.01758-0.99023,35.95312-0.93359,53.97754-1.23047c7.09473-0.11621,14.18652-0.36328,21.28223-0.3877
				c3.2168-0.01074,6.43262,0.05859,9.64551,0.23633c2.82227,0.15527,10.3877-0.58789,11.83984,2.37793
				c0.5166-1.26953,1.0332-2.54102,1.55078-3.8125c-17.23633,6.56055-35.9541,2.00586-53.75684,3.99512
				c-7.31152,0.81543-14.61719,1.28418-21.94629,1.94434c-6.42969,0.58008-13.37402,1.34277-19.02637,4.70215
				c-1.52832,0.90918-1.84863,3.66309,0,4.48145c9.69238,4.29102,23.59961,1.30957,33.59863,0.69141
				c8.84082-0.54688,17.71777-0.45117,26.57031-0.3418c7.87305,0.0957,17.3584-1.22656,24.87207,1.39648
				c-0.20703-1.58105-0.41211-3.16211-0.61816-4.74414c-4.48926,2.14941-12.24121,0.48633-17.1084,0.52734
				c-7.10938,0.06055-14.20996,0.36426-21.29102,0.99414c-12.83984,1.14453-25.50293,3.1875-38.13672,5.72949
				c-2.88477,0.58105-2.21484,5.21777,0.68945,5.09766c12.12695-0.50391,24.30566-0.08301,36.44531-0.36914
				c9.48438-0.22363,19.52734-1.28223,28.98242-0.16016c-0.22852-1.69824-0.45898-3.39746-0.68945-5.09668
				c-8.11523,1.57422-16.4873,1.26367-24.6875,2.13672c-9.43555,1.00488-19.08105,2.26562-28.34375,4.34277
				c-2.85352,0.64062-2.23438,5.23926,0.68945,5.09766c16.03125-0.77734,32.35742-3.18652,48.35645-0.84277
				c-0.20703-1.58203-0.41309-3.16309-0.62012-4.74414c-11.58594,5.95312-26.44922,5.19043-38.98633,7.95801
				c-3.0293,0.66895-2.07324,4.86816,0.68945,5.09766c10.57812,0.87793,20.35742,4.91504,30.83008,0.90332
				c3.09277-1.18359,1.75195-6.20312-1.37891-5.00488c-9.89062,3.78906-19.44141-0.25684-29.45117-1.08887
				c0.23047,1.69922,0.45898,3.39844,0.69141,5.09766c13.10547-2.89453,28.09082-2.24707,40.22461-8.48242
				c1.87109-0.96094,1.62402-4.41406-0.61914-4.74219c-16.52734-2.41797-33.17383-0.14453-49.73633,0.6582
				c0.23047,1.69922,0.45996,3.39844,0.68945,5.09766c9.68555-2.17188,19.79688-3.54004,29.68457-4.42285
				c7.78418-0.69531,15.65039-0.56348,23.34766-2.05664c3.11914-0.60645,1.97754-4.78223-0.69043-5.09766
				c-9.45508-1.12207-19.49805-0.06348-28.98242,0.16016C43.48633,84.41797,31.30762,83.99609,19.18066,84.5
				c0.23047,1.69922,0.45898,3.39844,0.68945,5.09766c14.09277-2.83594,28.21484-5.00977,42.56445-6.00391
				c7.08301-0.49023,14.19434-0.55273,21.29102-0.5625c4.79004-0.00781,9.43457,0.94043,13.9209-1.20703
				c2.18945-1.04883,1.30957-4.06934-0.62109-4.74414c-5.82812-2.0332-12.01172-1.35547-18.07227-1.4541
				c-8.8623-0.14355-17.72168-0.27148-26.58496-0.11035c-8.81836,0.16016-17.60742,1.03809-26.41504,1.47266
				c-3.71777,0.18359-9.29688,0.38867-12.72949-1.12988c0,1.49414,0,2.98828,0,4.48145
				c6.00781-3.57129,13.82227-3.82617,20.60938-4.3418c7.22949-0.54883,14.41406-1.37891,21.62891-1.97461
				c17.07129-1.41016,34.72559,2.48828,51.25195-3.80078c1.63672-0.62305,2.33594-2.20801,1.55078-3.8125
				c-2.69336-5.50586-11.22656-4.59766-16.32129-4.94922c-8.32129-0.5752-16.73242-0.17383-25.06055,0.02539
				c-19.97168,0.47559-39.87793,0.25977-59.84473,1.35742c0.22949,1.69922,0.45898,3.39844,0.68945,5.09766
				c17.56836-4.47852,35.86328-5.07422,53.87988-6.15625c9.22754-0.55371,18.44434-1.24414,27.64941-2.08594
				c6.64355-0.60938,13.68652,0.2041,19.80664-2.92578c1.64258-0.83984,1.74609-3.67383,0-4.48242
				c-5.41211-2.50488-11.56934-1.74609-17.36133-1.55078c-9.52832,0.31836-19.25195-0.87012-28.77148-1.31641
				c-10.2832-0.48047-20.5625-0.57324-30.85547-0.49609c-4.81445,0.03613-9.62891,0.08984-14.44336,0.10938
				c-4.65527,0.01758-9.56543,1.16602-14.16406,0.26562c0,1.66797,0,3.33691,0,5.00586
				c8.07812-2.48047,17.06836-2.26367,25.44531-2.84961c9.36621-0.65234,18.73047-1.30859,28.10938-1.74414
				c9.08789-0.42383,18.17676-0.875,27.2666-1.26758c7.24707-0.31348,15.64551,0.91211,22.62207-1.29688
				c2.5498-0.80762,2.38574-4.13281,0-5.00586c-7.40625-2.70117-15.9209-2.70508-23.70117-3.3125
				c-9.17578-0.7168-18.3291-0.91016-27.52734-0.85352C46.62598,38.0332,37.5752,38.4209,28.5459,39.11914
				c-8.48242,0.65625-17.10156,2.80664-25.59863,2.59375c0.23145,1.69824,0.45996,3.39746,0.69043,5.09766
				c16.70898-3.83008,33.7168-5.67188,50.76367-7.21582c16.11523-1.45801,32.38477-1.25293,48.41797-3.52051
				c2.99316-0.42383,2.11914-5.02539-0.68848-5.09766c-17.18555-0.44922-34.27637-2.42188-51.44238-3.00098
				c-8.76953-0.2959-17.55859,0.26855-26.29688,0.95898c-7.3125,0.57715-14.74902,0.54785-21.96289,1.96387
				c-2.85449,0.56055-2.22656,5.38574,0.68945,5.09766c15.17773-1.50488,30.18945-4.22168,45.30273-6.22461
				c15.80078-2.09375,31.72363-2.60352,47.5752-4.1709c3.27148-0.32324,3.40332-5.11719,0-5.19043
				c-28.78223-0.61328-57.5791-4.88867-86.23926-0.24805c0.45898,1.66797,0.91797,3.33691,1.37891,5.00586
				c12.33301-3.0957,25.04199-3.3457,37.6543-4.33984c6.69336-0.52734,13.3584-1.38281,20.05664-1.88086
				c5.73926-0.42773,11.61035-0.18164,17.27246-1.2793c2.25195-0.43555,2.47559-3.69141,0.61914-4.74316
				c-7.70703-4.36621-19.04102-4.28027-27.64746-4.7627C47.18262,7.49414,35.29785,8.4043,23.39941,8.82227
				c0.22852,1.69922,0.45898,3.39844,0.68945,5.09766c8.41797-1.54297,16.64062-4.07617,25.09375-5.41797
				c4.2168-0.66895,8.48242-1.05176,12.72852-1.47754c3.34277-0.33496,6.50977-0.13281,9.72266-1.28418
				c2.33789-0.83789,2.60547-4.2793,0-5.00586c-5.39844-1.50195-11.00391-1.38965-16.56055-1.2168
				c-5.45703,0.16895-11.35059-0.30957-16.51562,1.72852C35.48145,2.45898,36.81934,7.47949,39.93652,6.25098L39.93652,6.25098z"/>
		</g>
		<path fill="#FFFFFF" d="M71.69238,27.98535H35.01855c-3.91211,0-7.08301,3.34375-7.08301,7.46777v37.48633
			c0,4.12402,3.1709,7.46777,7.08301,7.46777h36.67383c3.91211,0,7.08301-3.34375,7.08301-7.46777V35.45312
			C78.77539,31.3291,75.60449,27.98535,71.69238,27.98535z M63.57617,35.58301c0,0,0.13086-1.4375,1.4375-1.4375h7.05957
			c0,0,1.30762,0.13086,1.30762,1.30664c0,1.17773,0,7.32227,0,7.32227s-0.2627,1.10938-1.1123,1.10938s-7.38574,0-7.38574,0
			s-1.30664-0.06445-1.30664-1.37109V35.58301z M53.43652,44.2334c5.54297,0,10.03418,4.49316,10.03418,10.03516
			s-4.49121,10.03516-10.03418,10.03516c-5.54102,0-10.03516-4.49316-10.03516-10.03516S47.89551,44.2334,53.43652,44.2334z
			 M73.50586,72.71973c0,0-0.09277,1.52734-1.52637,1.52734H34.66309c0,0-1.45703-0.27734-1.45703-1.45801
			c0-1.17969,0.05273-22.7041,0.05273-22.7041h4.95508c0,0-2.82422,9.69434,5.06055,16.19336c0,0,4.20898,3.83594,10.44141,3.73047
			c0,0,7.56445-0.32031,11.66504-5.54004c0,0,5.25879-6.17676,3.31641-14.5h4.80859V72.71973z"/>
	</g>
</g>
<g id="Layer_6">
</g>
<g id="Twitter_Logo_Silhouette_designed_by_Elegant_Themes_from_Flaticon.com">
</g>
</svg>
