<?xml version="1.0" encoding="utf-8"?>
<!-- Generator: Adobe Illustrator 16.0.0, SVG Export Plug-In . SVG Version: 6.00 Build 0)  -->
<!DOCTYPE svg PUBLIC "-//W3C//DTD SVG 1.1//EN" "http://www.w3.org/Graphics/SVG/1.1/DTD/svg11.dtd">
<svg version="1.1" xmlns="http://www.w3.org/2000/svg" xmlns:xlink="http://www.w3.org/1999/xlink" x="0px" y="0px"
	 width="110.10742px" height="107.63379px" viewBox="0 0 110.10742 107.63379" enable-background="new 0 0 110.10742 107.63379"
	 xml:space="preserve">
<g id="Layer_1">
</g>
<g id="social_market">
</g>
<g id="set2">
</g>
<g id="Layer_5">
	<g>
		<g>
			<path fill="#006EA7" d="M39.71094,8.28613c4.30273-1.69727,9.03223-1.34277,13.5791-1.49121
				c5.5918-0.17969,11.29199-0.53516,16.73926,0.98047c0-1.66797,0-3.33691,0-5.00488
				C66.72168,3.95703,63.2207,3.71582,59.76953,4.0625c-4.07617,0.4082-8.13965,0.88672-12.19434,1.4707
				c-8.45898,1.21973-16.68555,3.87598-25.09277,5.41699c-2.9043,0.5332-2.2002,5.19922,0.69043,5.09766
				c10.62305-0.37305,21.22949-1.11914,31.86719-0.85352c5.50586,0.1377,11.06738,0.55664,16.52246,1.30469
				c3.96094,0.54297,8.80371,0.94434,12.33105,2.94336c0.20703-1.58105,0.41211-3.16211,0.61914-4.74316
				c-6.43848,1.24707-13.36426,0.87207-19.90332,1.40625c-6.55078,0.53613-13.07422,1.36133-19.62988,1.84082
				c-11.89648,0.87012-23.82812,1.33496-35.44922,4.25195c-3.30957,0.83105-1.84961,5.52734,1.37988,5.00488
				c28.13867-4.55664,56.60156-0.16895,84.85938,0.43262c0-1.73047,0-3.45898,0-5.18945
				c-15.19336,1.50195-30.44629,2.07031-45.60938,3.9209c-15.79102,1.92676-31.43164,4.9043-47.26855,6.47363
				c0.23145,1.69922,0.45996,3.39844,0.69043,5.09766c7.37012-1.44727,15.12109-1.34668,22.60156-1.9375
				c8.75781-0.69238,17.53027-1.02832,26.31445-0.73145c16.48535,0.55664,32.90039,2.5,49.40625,2.93164
				c-0.23047-1.69922-0.45898-3.39746-0.69043-5.09766c-16.85742,2.38672-34.06543,2.1416-51.02051,3.70117
				c-16.17188,1.48535-32.31348,3.4043-48.16113,7.03516c-2.92969,0.67285-2.17188,5.02637,0.68945,5.09766
				c7.90234,0.19922,15.81055-1.72461,23.66602-2.43164c9.02246-0.81152,18.08496-1.14844,27.13965-1.28223
				c8.51953-0.12402,17.01074,0.01465,25.51367,0.55273c8.53223,0.53906,18.16895,0.45508,26.26367,3.41016
				c0-1.66895,0-3.33691,0-5.00586c-3.7666,1.19336-7.6875,0.8125-11.58105,0.76074
				c-4.49414-0.05957-9.03906,0.32129-13.5293,0.52148c-9.13086,0.4082-18.2627,0.83203-27.39062,1.28906
				c-9.39258,0.47168-18.77051,1.18457-28.15234,1.83398c-7.57715,0.52441-15.47461,0.50684-22.78906,2.75195
				c-2.30762,0.70898-2.64648,4.4873,0,5.00586c3.48438,0.68066,6.8291,0.41699,10.34668,0.0918
				c4.45215-0.41113,8.99121-0.18848,13.45898-0.22656c9.62207-0.08301,19.24023-0.1709,28.86133,0.11816
				c9.51562,0.28516,19.02148,0.88379,28.53125,1.3623c3.72559,0.1875,7.40039,0.32617,11.12891,0.1748
				c3.85449-0.15723,8.42285-0.72363,12.02832,0.94434c0-1.49414,0-2.98828,0-4.48242
				c-5.94238,3.04004-14.58887,1.99316-21.125,2.57324c-9.20508,0.81543-18.42871,1.42578-27.65234,1.96484
				c-17.17383,1.00391-34.58301,1.8418-51.31836,6.10742c-2.80762,0.71582-2.26465,5.25977,0.69043,5.09766
				c18.01758-0.99023,35.95215-0.93457,53.97754-1.23047c7.09473-0.11621,14.18652-0.36426,21.28223-0.38867
				c3.2168-0.00977,6.43262,0.05957,9.64551,0.23633c2.82227,0.15527,10.3877-0.58789,11.83984,2.37793
				c0.5166-1.26953,1.0332-2.54102,1.55078-3.81152c-17.23633,6.55957-35.9541,2.00488-53.75781,3.99414
				c-7.31055,0.81641-14.61719,1.28418-21.94629,1.94434c-6.42871,0.58008-13.37402,1.34277-19.02539,4.70215
				c-1.5293,0.90918-1.84961,3.66309,0,4.48242c9.69238,4.29102,23.59961,1.30859,33.59766,0.69141
				c8.8418-0.54688,17.71875-0.45117,26.57129-0.34277c7.87305,0.0957,17.3584-1.22656,24.87207,1.39746
				c-0.20703-1.58203-0.41309-3.16309-0.61914-4.74414c-4.48828,2.14844-12.24023,0.48535-17.10742,0.52734
				c-7.10938,0.06055-14.20996,0.36328-21.29102,0.99414c-12.84082,1.14453-25.50391,3.18652-38.1377,5.72852
				c-2.88379,0.58105-2.21387,5.21875,0.68945,5.09766c12.12695-0.50293,24.30664-0.08301,36.44629-0.36816
				c9.48438-0.22461,19.52734-1.28223,28.98242-0.16016c-0.22852-1.69922-0.45898-3.39844-0.68945-5.09766
				c-8.11523,1.5752-16.4873,1.26465-24.6875,2.1377c-9.43555,1.00391-19.08105,2.26562-28.34375,4.3418
				c-2.85352,0.64062-2.23438,5.24023,0.68848,5.09766c16.03223-0.77734,32.3584-3.18555,48.35742-0.84277
				c-0.20703-1.58105-0.41309-3.16309-0.62012-4.74316c-11.58594,5.95215-26.4502,5.19043-38.9873,7.95703
				c-3.02832,0.66895-2.07227,4.86914,0.69043,5.09766c10.57812,0.87891,20.35742,4.91504,30.83008,0.9043
				c3.09277-1.18457,1.75195-6.2041-1.37891-5.00488c-9.89062,3.78906-19.44141-0.25781-29.45117-1.08887
				c0.23047,1.69824,0.45898,3.39746,0.69043,5.09766c13.10645-2.89551,28.0918-2.24707,40.22559-8.48242
				c1.87109-0.96094,1.62402-4.41406-0.61914-4.74316c-16.52734-2.41797-33.17383-0.14355-49.7373,0.65918
				c0.23145,1.69922,0.46094,3.39746,0.69043,5.09766c9.68555-2.17188,19.79688-3.54102,29.68457-4.42383
				c7.78418-0.69531,15.65039-0.56348,23.34766-2.05664c3.11914-0.60645,1.97754-4.78125-0.69043-5.09766
				c-9.45508-1.12207-19.49805-0.06348-28.98242,0.16016c-12.13965,0.28613-24.31934-0.13477-36.44629,0.36914
				c0.23145,1.69922,0.45996,3.39746,0.69043,5.09766c14.09277-2.83594,28.21484-5.01074,42.56445-6.00391
				c7.08301-0.49023,14.19434-0.55371,21.29102-0.56348c4.79004-0.00684,9.43457,0.94043,13.91992-1.20605
				c2.19043-1.0498,1.31055-4.07031-0.61914-4.74414c-5.8291-2.03418-12.0127-1.35645-18.07324-1.45508
				c-8.8623-0.14355-17.72168-0.27148-26.58496-0.11035c-8.81836,0.16016-17.60742,1.03809-26.41504,1.47363
				c-3.71875,0.18262-9.29785,0.38867-12.72949-1.13086c0,1.49414,0,2.98828,0,4.48242
				c6.00684-3.57227,13.82227-3.82617,20.60938-4.34277c7.22949-0.54785,14.41406-1.37793,21.62891-1.97461
				c17.07129-1.40918,34.72461,2.48926,51.25195-3.80078c1.63672-0.62305,2.33594-2.20801,1.55176-3.8125
				c-2.69531-5.50488-11.22754-4.59668-16.32227-4.94824c-8.32129-0.57617-16.73242-0.1748-25.06055,0.02441
				c-19.97168,0.47656-39.87793,0.25977-59.84473,1.3584c0.22949,1.69824,0.45898,3.39746,0.68945,5.09766
				c17.56836-4.47852,35.86328-5.0752,53.88086-6.15625c9.22656-0.55469,18.44434-1.24512,27.64844-2.08691
				c6.64355-0.6084,13.68555,0.2041,19.80566-2.92578c1.64355-0.83984,1.74707-3.67285,0-4.48242
				c-5.41211-2.50488-11.56836-1.74512-17.36035-1.55078c-9.52832,0.31934-19.25195-0.86914-28.77148-1.31543
				c-10.28418-0.48145-20.5625-0.57422-30.85547-0.49707C27.03516,51,22.21973,51.05371,17.40527,51.07227
				C12.75,51.09082,7.84082,52.23828,3.24121,51.33789c0,1.66895,0,3.33691,0,5.00586
				c8.07812-2.48047,17.06934-2.26367,25.44629-2.84863c9.36523-0.65234,18.72949-1.30957,28.10938-1.74512
				c9.08789-0.42285,18.17676-0.875,27.2666-1.26758c7.24707-0.31348,15.64453,0.91211,22.62207-1.2959
				c2.5498-0.80859,2.38574-4.13379,0-5.00586c-7.40723-2.70215-15.9209-2.70605-23.70117-3.31348
				c-9.17578-0.7168-18.3291-0.90918-27.52734-0.85352c-9.05664,0.05566-18.1084,0.44336-27.13672,1.1416
				c-8.48242,0.65527-17.10254,2.80664-25.59863,2.59277c0.23047,1.69922,0.45996,3.39746,0.69043,5.09766
				c16.70898-3.83008,33.7168-5.67188,50.76465-7.21484c16.11426-1.45898,32.38379-1.25293,48.41797-3.52148
				c2.99219-0.42383,2.11816-5.02539-0.69043-5.09766c-17.18457-0.44922-34.27441-2.4209-51.44238-3.00098
				c-8.76953-0.2959-17.55762,0.26855-26.2959,0.95898c-7.3125,0.57812-14.74902,0.54785-21.96387,1.96387
				c-2.85449,0.56055-2.22559,5.38672,0.68945,5.09766c15.17871-1.50488,30.18945-4.2207,45.30273-6.22363
				c15.80176-2.09473,31.72461-2.60449,47.5752-4.17188c3.27344-0.32324,3.4043-5.11621,0-5.18945
				c-28.78027-0.61328-57.57812-4.88867-86.23926-0.24805c0.45898,1.66797,0.91895,3.33691,1.37988,5.00488
				c12.33301-3.0957,25.04199-3.34473,37.6543-4.33984c6.69336-0.52734,13.3584-1.38184,20.05664-1.88086
				c5.73926-0.42676,11.61035-0.18164,17.27246-1.27832c2.25098-0.43652,2.47559-3.69141,0.61914-4.74414
				c-7.70703-4.36621-19.04102-4.28027-27.64746-4.7627c-11.9082-0.66797-23.79297,0.24219-35.69238,0.66113
				c0.22949,1.69824,0.45898,3.39746,0.68945,5.09766c8.41797-1.54297,16.6416-4.07617,25.09375-5.41797
				c4.2168-0.66895,8.4834-1.05273,12.72949-1.47852c3.34277-0.33496,6.50977-0.13281,9.72266-1.28418
				c2.33789-0.83789,2.60547-4.2793,0-5.00488C66.00977,1.26758,60.4043,1.38086,54.84766,1.55273
				c-5.45703,0.16895-11.35156-0.30957-16.5166,1.72852C35.25586,4.49414,36.59375,9.51465,39.71094,8.28613L39.71094,8.28613z"/>
			<path fill="#006EA7" d="M39.71094,6.66797c4.30273-1.69727,9.03223-1.34277,13.5791-1.49121
				c5.5918-0.17969,11.29199-0.53516,16.73926,0.98047c0-1.66797,0-3.33691,0-5.00488
				c-3.30762,1.18652-6.80859,0.94531-10.25977,1.29199c-4.07617,0.4082-8.13965,0.88672-12.19434,1.4707
				c-8.45898,1.21973-16.68555,3.87598-25.09277,5.41699c-2.9043,0.5332-2.2002,5.19922,0.69043,5.09766
				c10.62305-0.37305,21.22949-1.11914,31.86719-0.85352c5.50586,0.1377,11.06738,0.55664,16.52246,1.30469
				c3.96094,0.54297,8.80371,0.94434,12.33105,2.94336c0.20703-1.58105,0.41211-3.16211,0.61914-4.74316
				c-6.43848,1.24707-13.36426,0.87207-19.90332,1.40625c-6.55078,0.53613-13.07422,1.36133-19.62988,1.84082
				c-11.89648,0.87012-23.82812,1.33496-35.44922,4.25195c-3.30957,0.83105-1.84961,5.52734,1.37988,5.00488
				c28.13867-4.55664,56.60156-0.16895,84.85938,0.43262c0-1.73047,0-3.45898,0-5.18945
				c-15.19336,1.50195-30.44629,2.07031-45.60938,3.9209c-15.79102,1.92676-31.43164,4.9043-47.26855,6.47363
				c0.23145,1.69922,0.45996,3.39844,0.69043,5.09766c7.37012-1.44727,15.12109-1.34668,22.60156-1.9375
				c8.75781-0.69238,17.53027-1.02832,26.31445-0.73145c16.48535,0.55664,32.90039,2.5,49.40625,2.93164
				c-0.23047-1.69922-0.45898-3.39746-0.69043-5.09766c-16.85742,2.38672-34.06543,2.1416-51.02051,3.70117
				c-16.17188,1.48535-32.31348,3.4043-48.16113,7.03516c-2.92969,0.67285-2.17188,5.02637,0.68945,5.09766
				c7.90234,0.19922,15.81055-1.72461,23.66602-2.43164c9.02246-0.81152,18.08496-1.14844,27.13965-1.28223
				c8.51953-0.12402,17.01074,0.01465,25.51367,0.55273c8.53223,0.53906,18.16895,0.45508,26.26367,3.41016
				c0-1.66895,0-3.33691,0-5.00586c-3.7666,1.19336-7.6875,0.8125-11.58105,0.76074
				c-4.49414-0.05957-9.03906,0.32129-13.5293,0.52148c-9.13086,0.4082-18.2627,0.83203-27.39062,1.28906
				c-9.39258,0.47168-18.77051,1.18457-28.15234,1.83398c-7.57715,0.52441-15.47461,0.50684-22.78906,2.75195
				c-2.30762,0.70898-2.64648,4.4873,0,5.00586c3.48438,0.68066,6.8291,0.41699,10.34668,0.0918
				c4.45215-0.41113,8.99121-0.18848,13.45898-0.22656c9.62207-0.08301,19.24023-0.1709,28.86133,0.11816
				c9.51562,0.28516,19.02148,0.88379,28.53125,1.3623c3.72559,0.1875,7.40039,0.32617,11.12891,0.1748
				c3.85449-0.15723,8.42285-0.72363,12.02832,0.94434c0-1.49414,0-2.98828,0-4.48242
				c-5.94238,3.04004-14.58887,1.99316-21.125,2.57324c-9.20508,0.81543-18.42871,1.42578-27.65234,1.96484
				C40.2666,58.25,22.85742,59.08789,6.12207,63.35352c-2.80762,0.71582-2.26465,5.25977,0.69043,5.09766
				c18.01758-0.99023,35.95215-0.93457,53.97754-1.23047c7.09473-0.11621,14.18652-0.36426,21.28223-0.38867
				c3.2168-0.00977,6.43262,0.05957,9.64551,0.23633c2.82227,0.15527,10.3877-0.58789,11.83984,2.37793
				c0.5166-1.26953,1.0332-2.54102,1.55078-3.81152c-17.23633,6.55957-35.9541,2.00488-53.75781,3.99414
				c-7.31055,0.81641-14.61719,1.28418-21.94629,1.94434c-6.42871,0.58008-13.37402,1.34277-19.02539,4.70215
				c-1.5293,0.90918-1.84961,3.66309,0,4.48242c9.69238,4.29102,23.59961,1.30859,33.59766,0.69141
				c8.8418-0.54688,17.71875-0.45117,26.57129-0.34277c7.87305,0.0957,17.3584-1.22656,24.87207,1.39746
				c-0.20703-1.58203-0.41309-3.16309-0.61914-4.74414c-4.48828,2.14844-12.24023,0.48535-17.10742,0.52734
				c-7.10938,0.06055-14.20996,0.36328-21.29102,0.99414c-12.84082,1.14453-25.50391,3.18652-38.1377,5.72852
				c-2.88379,0.58105-2.21387,5.21875,0.68945,5.09766c12.12695-0.50293,24.30664-0.08301,36.44629-0.36816
				c9.48438-0.22461,19.52734-1.28223,28.98242-0.16016c-0.22852-1.69922-0.45898-3.39844-0.68945-5.09766
				c-8.11523,1.5752-16.4873,1.26465-24.6875,2.1377c-9.43555,1.00391-19.08105,2.26562-28.34375,4.3418
				c-2.85352,0.64062-2.23438,5.24023,0.68848,5.09766c16.03223-0.77734,32.3584-3.18555,48.35742-0.84277
				c-0.20703-1.58105-0.41309-3.16309-0.62012-4.74316c-11.58594,5.95215-26.4502,5.19043-38.9873,7.95703
				c-3.02832,0.66895-2.07227,4.86914,0.69043,5.09766c10.57812,0.87891,20.35742,4.91504,30.83008,0.9043
				c3.09277-1.18457,1.75195-6.2041-1.37891-5.00488c-9.89062,3.78906-19.44141-0.25781-29.45117-1.08887
				c0.23047,1.69824,0.45898,3.39746,0.69043,5.09766c13.10645-2.89551,28.0918-2.24707,40.22559-8.48242
				c1.87109-0.96094,1.62402-4.41406-0.61914-4.74316c-16.52734-2.41797-33.17383-0.14355-49.7373,0.65918
				c0.23145,1.69922,0.46094,3.39746,0.69043,5.09766c9.68555-2.17188,19.79688-3.54102,29.68457-4.42383
				c7.78418-0.69531,15.65039-0.56348,23.34766-2.05664c3.11914-0.60645,1.97754-4.78125-0.69043-5.09766
				c-9.45508-1.12207-19.49805-0.06348-28.98242,0.16016c-12.13965,0.28613-24.31934-0.13477-36.44629,0.36914
				c0.23145,1.69922,0.45996,3.39746,0.69043,5.09766c14.09277-2.83594,28.21484-5.01074,42.56445-6.00391
				c7.08301-0.49023,14.19434-0.55371,21.29102-0.56348c4.79004-0.00684,9.43457,0.94043,13.91992-1.20605
				c2.19043-1.0498,1.31055-4.07031-0.61914-4.74414c-5.8291-2.03418-12.0127-1.35645-18.07324-1.45508
				c-8.8623-0.14355-17.72168-0.27148-26.58496-0.11035c-8.81836,0.16016-17.60742,1.03809-26.41504,1.47363
				c-3.71875,0.18262-9.29785,0.38867-12.72949-1.13086c0,1.49414,0,2.98828,0,4.48242
				c6.00684-3.57227,13.82227-3.82617,20.60938-4.34277c7.22949-0.54785,14.41406-1.37793,21.62891-1.97461
				c17.07129-1.40918,34.72461,2.48926,51.25195-3.80078c1.63672-0.62305,2.33594-2.20801,1.55176-3.8125
				c-2.69531-5.50488-11.22754-4.59668-16.32227-4.94824c-8.32129-0.57617-16.73242-0.1748-25.06055,0.02441
				c-19.97168,0.47656-39.87793,0.25977-59.84473,1.3584c0.22949,1.69824,0.45898,3.39746,0.68945,5.09766
				c17.56836-4.47852,35.86328-5.0752,53.88086-6.15625c9.22656-0.55469,18.44434-1.24512,27.64844-2.08691
				c6.64355-0.6084,13.68555,0.2041,19.80566-2.92578c1.64355-0.83984,1.74707-3.67285,0-4.48242
				c-5.41211-2.50488-11.56836-1.74512-17.36035-1.55078c-9.52832,0.31934-19.25195-0.86914-28.77148-1.31543
				c-10.28418-0.48145-20.5625-0.57422-30.85547-0.49707c-4.81445,0.03711-9.62988,0.09082-14.44434,0.10938
				C12.75,49.47266,7.84082,50.62012,3.24121,49.71973c0,1.66895,0,3.33691,0,5.00586
				c8.07812-2.48047,17.06934-2.26367,25.44629-2.84863c9.36523-0.65234,18.72949-1.30957,28.10938-1.74512
				c9.08789-0.42285,18.17676-0.875,27.2666-1.26758c7.24707-0.31348,15.64453,0.91211,22.62207-1.2959
				c2.5498-0.80859,2.38574-4.13379,0-5.00586c-7.40723-2.70215-15.9209-2.70605-23.70117-3.31348
				c-9.17578-0.7168-18.3291-0.90918-27.52734-0.85352c-9.05664,0.05566-18.1084,0.44336-27.13672,1.1416
				c-8.48242,0.65527-17.10254,2.80664-25.59863,2.59277c0.23047,1.69922,0.45996,3.39746,0.69043,5.09766
				c16.70898-3.83008,33.7168-5.67188,50.76465-7.21484c16.11426-1.45898,32.38379-1.25293,48.41797-3.52148
				c2.99219-0.42383,2.11816-5.02539-0.69043-5.09766c-17.18457-0.44922-34.27441-2.4209-51.44238-3.00098
				c-8.76953-0.2959-17.55762,0.26855-26.2959,0.95898c-7.3125,0.57812-14.74902,0.54785-21.96387,1.96387
				c-2.85449,0.56055-2.22559,5.38672,0.68945,5.09766c15.17871-1.50488,30.18945-4.2207,45.30273-6.22363
				c15.80176-2.09473,31.72461-2.60449,47.5752-4.17188c3.27344-0.32324,3.4043-5.11621,0-5.18945
				c-28.78027-0.61328-57.57812-4.88867-86.23926-0.24805c0.45898,1.66797,0.91895,3.33691,1.37988,5.00488
				c12.33301-3.0957,25.04199-3.34473,37.6543-4.33984c6.69336-0.52734,13.3584-1.38184,20.05664-1.88086
				c5.73926-0.42676,11.61035-0.18164,17.27246-1.27832c2.25098-0.43652,2.47559-3.69141,0.61914-4.74414
				c-7.70703-4.36621-19.04102-4.28027-27.64746-4.7627c-11.9082-0.66797-23.79297,0.24219-35.69238,0.66113
				c0.22949,1.69824,0.45898,3.39746,0.68945,5.09766c8.41797-1.54297,16.6416-4.07617,25.09375-5.41797
				c4.2168-0.66895,8.4834-1.05273,12.72949-1.47852c3.34277-0.33496,6.50977-0.13281,9.72266-1.28418
				c2.33789-0.83789,2.60547-4.2793,0-5.00488C66.00977-0.35059,60.4043-0.2373,54.84766-0.06543
				C49.39062,0.10352,43.49609-0.375,38.33105,1.66309C35.25586,2.87598,36.59375,7.89648,39.71094,6.66797L39.71094,6.66797z"/>
		</g>
		<g>
			<rect x="34.74023" y="41.50098" fill="#FFFFFF" width="9.5" height="29.24512"/>
			<path fill="#FFFFFF" d="M49.53613,70.63672V41.54688h8.62012v3.87891c0,0,2.44238-4.81348,8.76367-4.66895
				c0,0,10.19727-1.07617,10.70215,10.55762v19.39551h-8.97852V53.75781c0,0-0.14453-5.60254-5.17188-4.95703
				c0,0-4.31055-0.21484-4.81543,5.24414v16.5918H49.53613z"/>
			<circle fill="#FFFFFF" cx="39.33643" cy="32.28027" r="5.31592"/>
		</g>
	</g>
</g>
<g id="Layer_6">
</g>
<g id="Twitter_Logo_Silhouette_designed_by_Elegant_Themes_from_Flaticon.com">
</g>
</svg>
