<?xml version="1.0" encoding="utf-8"?>
<!-- Generator: Adobe Illustrator 16.0.0, SVG Export Plug-In . SVG Version: 6.00 Build 0)  -->
<!DOCTYPE svg PUBLIC "-//W3C//DTD SVG 1.1//EN" "http://www.w3.org/Graphics/SVG/1.1/DTD/svg11.dtd">
<svg version="1.1" xmlns="http://www.w3.org/2000/svg" xmlns:xlink="http://www.w3.org/1999/xlink" x="0px" y="0px"
	 width="110.10742px" height="107.63379px" viewBox="0 0 110.10742 107.63379" enable-background="new 0 0 110.10742 107.63379"
	 xml:space="preserve">
<g id="Layer_1">
</g>
<g id="social_market">
</g>
<g id="set2">
</g>
<g id="Layer_5">
	<g>
		<g>
			<path fill="#353535" d="M39.70996,8.125c4.30273-1.69824,9.03125-1.34277,13.58008-1.49121
				c5.5918-0.17969,11.29297-0.53516,16.73828,0.98047c0-1.66895,0-3.33691,0-5.00586
				c-3.30664,1.1875-6.80664,0.94531-10.25977,1.29297c-4.07617,0.4082-8.13867,0.88672-12.19336,1.4707
				c-8.45898,1.21875-16.68555,3.87598-25.09375,5.41602c-2.90234,0.5332-2.19922,5.19922,0.68945,5.09766
				c10.625-0.37207,21.23242-1.11816,31.86719-0.85254c5.50781,0.1377,11.06836,0.55566,16.52344,1.30371
				c3.96094,0.54395,8.80273,0.94531,12.33008,2.94434c0.20703-1.58105,0.41406-3.16309,0.62109-4.74414
				c-6.43945,1.24805-13.36328,0.87305-19.9043,1.40723c-6.54883,0.53613-13.07422,1.36133-19.63086,1.84082
				c-11.89453,0.87012-23.82617,1.33496-35.44922,4.25098c-3.30859,0.83105-1.84766,5.52734,1.38086,5.00586
				c28.13867-4.55664,56.60352-0.16992,84.85938,0.43262c0-1.73047,0-3.45996,0-5.19043
				c-15.19336,1.50195-30.44531,2.07129-45.60938,3.92188c-15.78906,1.92578-31.42969,4.9043-47.26758,6.47363
				c0.23047,1.69824,0.46094,3.39746,0.68945,5.09766c7.37109-1.44824,15.12109-1.34668,22.60156-1.93848
				c8.75781-0.69141,17.53125-1.02734,26.31445-0.73047c16.48633,0.55664,32.90039,2.5,49.40625,2.93164
				c-0.22852-1.69922-0.45898-3.39844-0.68945-5.09766c-16.85742,2.38574-34.06641,2.1416-51.02148,3.70117
				c-16.17188,1.48535-32.31445,3.4043-48.16016,7.03516c-2.92969,0.67188-2.17383,5.02539,0.68945,5.09766
				c7.90234,0.19922,15.81055-1.72461,23.66602-2.43164c9.02148-0.8125,18.08594-1.14844,27.14062-1.28223
				c8.51758-0.125,17.00781,0.01465,25.51367,0.55176c8.5293,0.53906,18.16797,0.45508,26.26367,3.41016
				c0-1.66797,0-3.33691,0-5.00586c-3.76758,1.19336-7.6875,0.8125-11.58203,0.76074
				c-4.49609-0.05859-9.04102,0.32129-13.5293,0.52246c-9.13086,0.4082-18.26367,0.83203-27.39062,1.28906
				c-9.39258,0.47168-18.77148,1.18359-28.15234,1.83398C17.0752,48.94824,9.1748,48.93164,1.8623,51.17676
				c-2.30762,0.70898-2.64746,4.4873,0,5.00586c3.48438,0.68066,6.83008,0.41699,10.34766,0.0918
				c4.45117-0.41211,8.99023-0.18848,13.45703-0.22656c9.62305-0.08398,19.24219-0.1709,28.86133,0.11816
				c9.51758,0.28418,19.02344,0.88379,28.53125,1.3623c3.72656,0.1875,7.40234,0.32617,11.12891,0.17383
				c3.85547-0.15625,8.42383-0.72363,12.0293,0.94531c0-1.49414,0-2.98828,0-4.48242
				c-5.94336,3.03906-14.58984,1.99219-21.125,2.57227c-9.20508,0.81641-18.42773,1.42578-27.6543,1.96582
				c-17.17188,1.00293-34.58203,1.8418-51.31641,6.10645c-2.80859,0.7168-2.26367,5.26074,0.68945,5.09766
				c18.01758-0.99023,35.95312-0.93359,53.97852-1.23047c7.0957-0.11621,14.18555-0.36328,21.28125-0.3877
				c3.21875-0.01074,6.43359,0.05859,9.64648,0.23633c2.82227,0.15527,10.38867-0.58789,11.83984,2.37793
				c0.51758-1.26953,1.0332-2.54102,1.55078-3.8125c-17.23633,6.56055-35.95508,2.00488-53.75781,3.99512
				c-7.31055,0.81543-14.61719,1.28418-21.94531,1.94434c-6.43164,0.58008-13.375,1.34277-19.02734,4.70215
				c-1.52734,0.90918-1.84766,3.66309,0,4.48145c9.69141,4.29102,23.59961,1.30957,33.59961,0.69141
				c8.83984-0.54688,17.71875-0.45117,26.56836-0.3418c7.87305,0.0957,17.36133-1.22656,24.87305,1.39648
				c-0.20508-1.58105-0.41211-3.16211-0.61914-4.74414c-4.48828,2.14941-12.23828,0.48633-17.10742,0.52734
				c-7.10938,0.06055-14.20898,0.36426-21.29102,0.99414c-12.8418,1.14453-25.50195,3.1875-38.13672,5.72949
				c-2.88477,0.58105-2.21484,5.21777,0.68945,5.09766c12.12695-0.50391,24.30469-0.08301,36.44727-0.36914
				c9.48242-0.22363,19.52539-1.28223,28.98242-0.16016c-0.23047-1.69824-0.46094-3.39746-0.68945-5.09766
				c-8.11719,1.5752-16.48828,1.26465-24.68945,2.1377c-9.43555,1.00488-19.08008,2.26562-28.34375,4.34277
				c-2.85352,0.64062-2.23438,5.23926,0.68945,5.09766c16.03125-0.77734,32.35742-3.18652,48.35742-0.84277
				c-0.20703-1.58203-0.41406-3.16309-0.62109-4.74414c-11.58594,5.95312-26.45117,5.19043-38.98633,7.95801
				c-3.0293,0.66895-2.07422,4.86816,0.68945,5.09766c10.57812,0.87793,20.35742,4.91504,30.83203,0.90332
				c3.0918-1.18359,1.75-6.2041-1.38086-5.00488c-9.89062,3.78906-19.43945-0.25684-29.45117-1.08887
				c0.23047,1.69922,0.46094,3.39844,0.68945,5.09766c13.10938-2.89453,28.09375-2.24707,40.22852-8.48242
				c1.87109-0.96094,1.62305-4.41406-0.62109-4.74219c-16.52734-2.41895-33.17383-0.14453-49.73633,0.6582
				c0.23047,1.69922,0.46094,3.39844,0.68945,5.09766C41.72559,95.25098,51.83691,93.88281,61.72559,93
				c7.7832-0.69531,15.64844-0.56348,23.34766-2.05664c3.11914-0.60645,1.97656-4.78223-0.68945-5.09766
				c-9.45703-1.12207-19.5-0.06348-28.98242,0.16016c-12.14258,0.28613-24.32031-0.13574-36.44727,0.36816
				c0.23047,1.69922,0.46094,3.39844,0.68945,5.09766c14.0918-2.83594,28.21484-5.00977,42.56445-6.00391
				c7.08398-0.49023,14.19531-0.55273,21.29102-0.5625c4.79102-0.00781,9.43555,0.94043,13.91992-1.20703
				c2.19141-1.04883,1.31055-4.06934-0.61914-4.74414c-5.82812-2.0332-12.01172-1.35547-18.07227-1.4541
				c-8.86133-0.14355-17.72266-0.27148-26.58594-0.11035c-8.81836,0.16016-17.60742,1.03809-26.41406,1.47266
				c-3.71875,0.18359-9.29883,0.38867-12.73047-1.12988c0,1.49414,0,2.98828,0,4.48145
				c6.00781-3.57129,13.82227-3.82617,20.60938-4.3418c7.22852-0.54883,14.41406-1.37891,21.62891-1.97461
				c17.07031-1.41016,34.72461,2.48828,51.25195-3.80078c1.63672-0.62305,2.33789-2.20801,1.55078-3.8125
				c-2.69531-5.50586-11.22656-4.59766-16.32031-4.94922c-8.32227-0.5752-16.73242-0.17383-25.06055,0.02539
				c-19.97266,0.47559-39.87695,0.25977-59.8457,1.35742c0.23047,1.69922,0.45898,3.39844,0.68945,5.09766
				c17.57031-4.47852,35.86328-5.07422,53.88086-6.15625c9.22656-0.55371,18.44336-1.24414,27.65039-2.08594
				c6.64258-0.60938,13.68359,0.2041,19.80469-2.92578c1.64258-0.84082,1.74609-3.67383,0-4.48242
				c-5.41406-2.50488-11.56836-1.74609-17.36133-1.55078c-9.52734,0.31836-19.25195-0.87012-28.77148-1.31641
				c-10.2832-0.48047-20.5625-0.57324-30.85547-0.49609c-4.81445,0.03613-9.62891,0.08984-14.44531,0.10938
				c-4.65234,0.01758-9.5625,1.16602-14.16211,0.26562c0,1.66797,0,3.33691,0,5.00586
				c8.07617-2.48047,17.06836-2.26367,25.44531-2.84961c9.36523-0.65234,18.73047-1.30859,28.10938-1.74414
				c9.08984-0.42383,18.17578-0.875,27.26758-1.26758c7.24609-0.31348,15.64453,0.91211,22.62109-1.29688
				c2.55078-0.80762,2.38672-4.13281,0-5.00586c-7.40625-2.70117-15.91992-2.70508-23.70117-3.3125
				c-9.17383-0.7168-18.32812-0.91016-27.52734-0.85352c-9.05664,0.05469-18.10742,0.44238-27.13672,1.14062
				c-8.48047,0.65625-17.10156,2.80664-25.59766,2.59375c0.23047,1.69824,0.46094,3.39746,0.68945,5.09766
				c16.70898-3.83008,33.7168-5.67188,50.76562-7.21582c16.11523-1.45801,32.38281-1.25293,48.41602-3.52148
				c2.99414-0.42285,2.11914-5.02441-0.68945-5.09766c-17.18359-0.44824-34.27344-2.4209-51.44141-3
				c-8.76953-0.2959-17.55859,0.26855-26.29492,0.95898c-7.3125,0.57715-14.75195,0.54688-21.96484,1.96387
				c-2.85449,0.56055-2.22656,5.38574,0.68945,5.09766c15.17773-1.50488,30.18945-4.22168,45.30273-6.22461
				c15.80273-2.09375,31.72461-2.60352,47.57422-4.1709c3.27344-0.32324,3.40625-5.11719,0-5.19043
				C66.9873,21.6709,38.19043,17.39551,9.52832,22.03613c0.46094,1.66797,0.92188,3.33691,1.38086,5.00586
				c12.33203-3.0957,25.04102-3.3457,37.6543-4.33984c6.69336-0.52832,13.35938-1.38281,20.05664-1.88086
				c5.74023-0.42773,11.61133-0.18164,17.27148-1.2793c2.25195-0.43555,2.47656-3.69141,0.62109-4.74316
				c-7.70703-4.36621-19.04102-4.28027-27.64844-4.7627c-11.9082-0.66797-23.79297,0.24219-35.69336,0.66016
				c0.23047,1.69922,0.46094,3.39844,0.69141,5.09766c8.41797-1.54297,16.64062-4.07617,25.0918-5.41797
				c4.21875-0.66895,8.48438-1.05176,12.73047-1.47754c3.34375-0.33496,6.50977-0.13281,9.72461-1.28418
				c2.33594-0.83789,2.60352-4.2793,0-5.00586c-5.40039-1.50195-11.00586-1.38965-16.5625-1.2168
				c-5.45703,0.16895-11.34961-0.30957-16.51562,1.72852C35.25488,4.33301,36.59277,9.35352,39.70996,8.125L39.70996,8.125z"/>
			<path fill="#353535" d="M39.70996,6.83105c4.30273-1.69824,9.03125-1.34375,13.58008-1.49219
				c5.5918-0.17969,11.29297-0.53516,16.73828,0.98047c0-1.66797,0-3.33594,0-5.00586
				c-3.30664,1.1875-6.80664,0.94629-10.25977,1.29297c-4.07617,0.4082-8.13867,0.88672-12.19336,1.4707
				C39.11621,5.29688,30.88965,7.9541,22.48145,9.49414c-2.90234,0.5332-2.19922,5.19922,0.68945,5.09766
				c10.625-0.37207,21.23242-1.11816,31.86719-0.85254c5.50781,0.13672,11.06836,0.55566,16.52344,1.30371
				c3.96094,0.54395,8.80273,0.94434,12.33008,2.94434c0.20703-1.58203,0.41406-3.16309,0.62109-4.74414
				c-6.43945,1.24805-13.36328,0.87305-19.9043,1.40625c-6.54883,0.53711-13.07422,1.36133-19.63086,1.8418
				c-11.89453,0.86914-23.82617,1.33398-35.44922,4.25c-3.30859,0.83203-1.84766,5.52734,1.38086,5.00586
				c28.13867-4.55664,56.60352-0.16895,84.85938,0.43359c0-1.73047,0-3.46094,0-5.19043
				c-15.19336,1.50195-30.44531,2.07129-45.60938,3.9209c-15.78906,1.92676-31.42969,4.9043-47.26758,6.47461
				c0.23047,1.69824,0.46094,3.39648,0.68945,5.09766c7.37109-1.44824,15.12109-1.34766,22.60156-1.93945
				c8.75781-0.69141,17.53125-1.02734,26.31445-0.73047c16.48633,0.55664,32.90039,2.5,49.40625,2.93164
				c-0.22852-1.69922-0.45898-3.39746-0.68945-5.09766c-16.85742,2.38672-34.06641,2.14258-51.02148,3.70117
				c-16.17188,1.48633-32.31445,3.4043-48.16016,7.03516c-2.92969,0.67188-2.17383,5.02539,0.68945,5.09766
				c7.90234,0.19922,15.81055-1.72461,23.66602-2.43164c9.02148-0.81152,18.08594-1.14844,27.14062-1.28125
				c8.51758-0.125,17.00781,0.01367,25.51367,0.55176c8.5293,0.53906,18.16797,0.45508,26.26367,3.40918
				c0-1.66797,0-3.33594,0-5.00488c-3.76758,1.19336-7.6875,0.81152-11.58203,0.76074
				c-4.49609-0.05859-9.04102,0.32031-13.5293,0.52148c-9.13086,0.4082-18.26367,0.83203-27.39062,1.28906
				c-9.39258,0.47266-18.77148,1.18457-28.15234,1.83398C17.0752,47.6543,9.1748,47.6377,1.8623,49.88184
				c-2.30762,0.70898-2.64746,4.48828,0,5.00586c3.48438,0.68164,6.83008,0.41797,10.34766,0.0918
				c4.45117-0.41113,8.99023-0.1875,13.45703-0.22656c9.62305-0.08398,19.24219-0.16992,28.86133,0.11914
				c9.51758,0.28418,19.02344,0.88281,28.53125,1.36133c3.72656,0.1875,7.40234,0.32617,11.12891,0.1748
				c3.85547-0.15723,8.42383-0.72363,12.0293,0.94434c0-1.49414,0-2.98828,0-4.48242
				c-5.94336,3.04004-14.58984,1.99316-21.125,2.57227c-9.20508,0.81641-18.42773,1.42676-27.6543,1.9668
				c-17.17188,1.00293-34.58203,1.8418-51.31641,6.10645c-2.80859,0.71582-2.26367,5.26074,0.68945,5.09766
				c18.01758-0.99023,35.95312-0.93457,53.97852-1.23047c7.0957-0.11621,14.18555-0.36426,21.28125-0.3877
				c3.21875-0.01074,6.43359,0.05859,9.64648,0.23633c2.82227,0.1543,10.38867-0.58789,11.83984,2.37695
				c0.51758-1.26953,1.0332-2.54102,1.55078-3.8125c-17.23633,6.56055-35.95508,2.00586-53.75781,3.99609
				c-7.31055,0.81543-14.61719,1.2832-21.94531,1.94336c-6.43164,0.58008-13.375,1.34375-19.02734,4.70312
				c-1.52734,0.9082-1.84766,3.66211,0,4.48145c9.69141,4.29102,23.59961,1.30957,33.59961,0.69141
				c8.83984-0.54785,17.71875-0.45117,26.56836-0.34277c7.87305,0.0957,17.36133-1.22656,24.87305,1.39648
				c-0.20508-1.58008-0.41211-3.16211-0.61914-4.74316c-4.48828,2.14941-12.23828,0.48535-17.10742,0.52637
				c-7.10938,0.06152-14.20898,0.36523-21.29102,0.99512c-12.8418,1.14453-25.50195,3.18652-38.13672,5.72949
				c-2.88477,0.58008-2.21484,5.21777,0.68945,5.09766c12.12695-0.50391,24.30469-0.08398,36.44727-0.36914
				c9.48242-0.22461,19.52539-1.2832,28.98242-0.16016c-0.23047-1.69922-0.46094-3.39844-0.68945-5.09766
				c-8.11719,1.57422-16.48828,1.26465-24.68945,2.1377c-9.43555,1.00488-19.08008,2.26465-28.34375,4.34277
				c-2.85352,0.64062-2.23438,5.23926,0.68945,5.09766c16.03125-0.77734,32.35742-3.18652,48.35742-0.84375
				c-0.20703-1.58203-0.41406-3.16211-0.62109-4.74316c-11.58594,5.95215-26.45117,5.19043-38.98633,7.95801
				c-3.0293,0.66797-2.07422,4.86719,0.68945,5.09766c10.57812,0.87793,20.35742,4.91406,30.83203,0.90332
				c3.0918-1.18457,1.75-6.2041-1.38086-5.00488c-9.89062,3.78906-19.43945-0.25781-29.45117-1.08887
				c0.23047,1.69824,0.46094,3.39746,0.68945,5.09766c13.10938-2.89551,28.09375-2.24707,40.22852-8.48242
				c1.87109-0.96094,1.62305-4.41504-0.62109-4.74316c-16.52734-2.41797-33.17383-0.14355-49.73633,0.65918
				c0.23047,1.69824,0.46094,3.39746,0.68945,5.09766c9.68555-2.17285,19.79688-3.54004,29.68555-4.42285
				c7.7832-0.69531,15.64844-0.56445,23.34766-2.05664c3.11914-0.60742,1.97656-4.78223-0.68945-5.09766
				c-9.45703-1.12305-19.5-0.06445-28.98242,0.16016c-12.14258,0.28516-24.32031-0.13574-36.44727,0.36816
				c0.23047,1.69824,0.46094,3.39746,0.68945,5.09766c14.0918-2.83594,28.21484-5.01074,42.56445-6.00391
				c7.08398-0.49121,14.19531-0.55371,21.29102-0.56348c4.79102-0.00781,9.43555,0.94141,13.91992-1.20605
				c2.19141-1.0498,1.31055-4.06934-0.61914-4.74414c-5.82812-2.03418-12.01172-1.35645-18.07227-1.4541
				c-8.86133-0.14453-17.72266-0.27148-26.58594-0.11133c-8.81836,0.16016-17.60742,1.03906-26.41406,1.47266
				c-3.71875,0.18359-9.29883,0.38965-12.73047-1.12891c0,1.49414,0,2.98828,0,4.48145
				c6.00781-3.57129,13.82227-3.82617,20.60938-4.34277c7.22852-0.54785,14.41406-1.37793,21.62891-1.97461
				c17.07031-1.41016,34.72461,2.48926,51.25195-3.80078c1.63672-0.62305,2.33789-2.20703,1.55078-3.8125
				c-2.69531-5.50488-11.22656-4.59668-16.32031-4.94824c-8.32227-0.5752-16.73242-0.1748-25.06055,0.02441
				c-19.97266,0.47656-39.87695,0.25977-59.8457,1.35742c0.23047,1.69922,0.45898,3.39844,0.68945,5.09766
				c17.57031-4.47754,35.86328-5.07422,53.88086-6.15527c9.22656-0.55371,18.44336-1.24512,27.65039-2.08691
				c6.64258-0.6084,13.68359,0.20508,19.80469-2.92578c1.64258-0.83984,1.74609-3.67383,0-4.48242
				c-5.41406-2.50391-11.56836-1.74512-17.36133-1.55078c-9.52734,0.31934-19.25195-0.86914-28.77148-1.31543
				c-10.2832-0.48145-20.5625-0.57324-30.85547-0.49707c-4.81445,0.03711-9.62891,0.08984-14.44531,0.10938
				c-4.65234,0.01855-9.5625,1.16602-14.16211,0.26562c0,1.66895,0,3.33789,0,5.00586
				c8.07617-2.48047,17.06836-2.26367,25.44531-2.84863c9.36523-0.65332,18.73047-1.30957,28.10938-1.74512
				c9.08984-0.42285,18.17578-0.875,27.26758-1.26758c7.24609-0.3125,15.64453,0.91211,22.62109-1.29688
				c2.55078-0.80664,2.38672-4.13281,0-5.00488c-7.40625-2.70215-15.91992-2.70605-23.70117-3.31348
				c-9.17383-0.7168-18.32812-0.90918-27.52734-0.85352c-9.05664,0.05566-18.10742,0.44336-27.13672,1.1416
				c-8.48047,0.65527-17.10156,2.80664-25.59766,2.59277c0.23047,1.69922,0.46094,3.39844,0.68945,5.09766
				c16.70898-3.83008,33.7168-5.67188,50.76562-7.21484c16.11523-1.45898,32.38281-1.25391,48.41602-3.52148
				c2.99414-0.42383,2.11914-5.02539-0.68945-5.09766c-17.18359-0.44922-34.27344-2.4209-51.44141-3
				c-8.76953-0.29688-17.55859,0.26758-26.29492,0.95898c-7.3125,0.57715-14.75195,0.54688-21.96484,1.96289
				c-2.85449,0.56055-2.22656,5.38672,0.68945,5.09766c15.17773-1.50391,30.18945-4.2207,45.30273-6.22461
				c15.80273-2.09375,31.72461-2.60352,47.57422-4.16992c3.27344-0.32422,3.40625-5.11719,0-5.19043
				c-28.78125-0.61328-57.57812-4.88965-86.24023-0.24902c0.46094,1.66895,0.92188,3.33789,1.38086,5.00586
				c12.33203-3.0957,25.04102-3.34473,37.6543-4.33984c6.69336-0.52734,13.35938-1.38281,20.05664-1.88086
				c5.74023-0.42676,11.61133-0.18164,17.27148-1.27832c2.25195-0.43652,2.47656-3.69141,0.62109-4.74316
				C78.80566,9.1377,67.47168,9.22363,58.86426,8.74121C46.95605,8.07324,35.07129,8.9834,23.1709,9.40137
				c0.23047,1.69922,0.46094,3.39844,0.69141,5.09766c8.41797-1.54199,16.64062-4.0752,25.0918-5.41797
				c4.21875-0.66797,8.48438-1.05078,12.73047-1.47656c3.34375-0.33594,6.50977-0.13281,9.72461-1.28516
				c2.33594-0.83789,2.60352-4.2793,0-5.00586c-5.40039-1.50195-11.00586-1.38867-16.5625-1.2168
				C49.38965,0.2666,43.49707-0.21191,38.33105,1.8252C35.25488,3.03809,36.59277,8.05957,39.70996,6.83105L39.70996,6.83105z"/>
		</g>
		<g>
			<path id="Myspace__x28_alt_x29__2_" fill="#FFFFFF" d="M67.47754,44.72656c-5.03125,0-9.11133-4.07031-9.11133-9.08789
				c0-5.01953,4.08008-9.0918,9.11133-9.0918c5.0293,0,9.10938,4.07227,9.10938,9.0918
				C76.58691,40.65625,72.50684,44.72656,67.47754,44.72656L67.47754,44.72656z M60.02441,53.48633
				c0-5.02148-4.07812-9.08984-9.11133-9.08984s-9.10938,4.06836-9.10938,9.08984c0,0.20508,0.01562,0.4043,0.03125,0.60547
				h-0.03125V69.8457h18.2207V54.0918h-0.0332C60.00684,53.89062,60.02441,53.69141,60.02441,53.48633L60.02441,53.48633z
				 M50.91309,43.18164c3.68945,0,6.67969-2.98242,6.67969-6.66406c0-3.67773-2.99219-6.66406-6.67969-6.66406
				s-6.67969,2.98633-6.67969,6.66406C44.2334,40.19922,47.22559,43.18164,50.91309,43.18164L50.91309,43.18164z M79.89941,58.77539
				c0-6.84766-5.56055-12.39648-12.42188-12.39648s-12.42188,5.54883-12.42188,12.39648c0,0.2793,0.02148,0.55273,0.03906,0.82422
				h-0.03906v21.48633h24.84375V59.59961H79.8584C79.87793,59.32812,79.89941,59.05469,79.89941,58.77539L79.89941,58.77539z
				 M37.66309,43.4043c-4.11914,0-7.45312,3.32812-7.45312,7.43555c0,0.16797,0.01172,0.33203,0.02344,0.49805h-0.02344v12.89062
				h14.90625V51.33789h-0.02539c0.01172-0.16406,0.02539-0.33008,0.02539-0.49609
				C45.11621,46.73242,41.78027,43.4043,37.66309,43.4043L37.66309,43.4043z M37.66309,42.41406
				c3.01758,0,5.46484-2.44336,5.46484-5.45508s-2.44727-5.45312-5.46484-5.45312s-5.4668,2.44141-5.4668,5.45312
				S34.64355,42.41406,37.66309,42.41406L37.66309,42.41406z"/>
		</g>
	</g>
</g>
<g id="Layer_6">
</g>
<g id="Twitter_Logo_Silhouette_designed_by_Elegant_Themes_from_Flaticon.com">
</g>
</svg>
