<?xml version="1.0" encoding="utf-8"?>
<!-- Generator: Adobe Illustrator 16.0.0, SVG Export Plug-In . SVG Version: 6.00 Build 0)  -->
<!DOCTYPE svg PUBLIC "-//W3C//DTD SVG 1.1//EN" "http://www.w3.org/Graphics/SVG/1.1/DTD/svg11.dtd">
<svg version="1.1" xmlns="http://www.w3.org/2000/svg" xmlns:xlink="http://www.w3.org/1999/xlink" x="0px" y="0px"
	 width="110.10742px" height="107.63379px" viewBox="0 0 110.10742 107.63379" enable-background="new 0 0 110.10742 107.63379"
	 xml:space="preserve">
<g id="Layer_1">
</g>
<g id="social_market">
</g>
<g id="set2">
</g>
<g id="Layer_5">
	<g>
		<g>
			<path fill="#D72B34" d="M39.71191,8.28711c4.30078-1.69727,9.03125-1.34375,13.57812-1.49219
				c5.5918-0.17969,11.29297-0.53516,16.74023,0.98047c0-1.66797,0-3.33594,0-5.00586
				c-3.30859,1.1875-6.80859,0.94727-10.26172,1.29297c-4.07422,0.4082-8.13867,0.88672-12.19141,1.4707
				c-8.45898,1.2207-16.6875,3.87695-25.09375,5.41797c-2.9043,0.5332-2.20117,5.19922,0.68945,5.09766
				c10.62305-0.37305,21.23047-1.11914,31.86719-0.85352C60.5459,15.33203,66.10645,15.75195,71.56152,16.5
				c3.96289,0.54297,8.80469,0.94336,12.33203,2.94336c0.20703-1.58203,0.41406-3.16211,0.61914-4.74414
				c-6.43945,1.24805-13.36328,0.87305-19.90234,1.40625c-6.55273,0.53711-13.07422,1.36133-19.63086,1.8418
				c-11.89453,0.86914-23.82812,1.33398-35.44922,4.25c-3.30859,0.83203-1.84961,5.52734,1.37891,5.00586
				c28.13867-4.55664,56.60156-0.16797,84.86133,0.43359c0-1.73047,0-3.46094,0-5.18945
				c-15.19531,1.50195-30.44727,2.07031-45.61133,3.91992c-15.78906,1.92773-31.42969,4.9043-47.26758,6.47461
				c0.23047,1.69922,0.46094,3.39648,0.69141,5.09766C10.95215,36.49219,18.70215,36.5918,26.18262,36
				c8.75781-0.69141,17.53125-1.02734,26.31445-0.73047c16.48633,0.55664,32.90234,2.5,49.4082,2.93164
				c-0.23242-1.69922-0.46094-3.39648-0.69141-5.09766c-16.85742,2.38672-34.06445,2.14258-51.01953,3.70117
				c-16.17188,1.48633-32.31445,3.4043-48.16211,7.03516c-2.92969,0.67188-2.17188,5.02539,0.68945,5.09766
				c7.90234,0.19922,15.81055-1.72461,23.66602-2.43164c9.02344-0.81055,18.08594-1.14844,27.14062-1.28125
				c8.51953-0.125,17.00977,0.01367,25.51367,0.55273c8.53125,0.53906,18.16797,0.45508,26.26367,3.4082
				c0-1.66797,0-3.33594,0-5.00391c-3.76758,1.19336-7.68945,0.81055-11.58008,0.75977
				c-4.49609-0.05859-9.04102,0.32031-13.53125,0.52148c-9.13086,0.4082-18.26172,0.83203-27.39062,1.28906
				c-9.39258,0.47266-18.77148,1.18555-28.15039,1.83398C17.0752,49.11133,9.17676,49.09375,1.8623,51.33789
				c-2.30859,0.70898-2.64648,4.48828,0,5.00586c3.48438,0.68164,6.83008,0.41797,10.3457,0.0918
				c4.45312-0.41016,8.99219-0.1875,13.46094-0.22656c9.62109-0.08398,19.24023-0.16992,28.85938,0.11914
				c9.51758,0.28516,19.02344,0.88281,28.5332,1.36133c3.72656,0.1875,7.40039,0.32617,11.12695,0.17578
				c3.85547-0.1582,8.42578-0.72461,12.03125,0.94336c0-1.49414,0-2.98828,0-4.48242
				c-5.94336,3.04102-14.58984,1.99414-21.12695,2.57227c-9.20508,0.81641-18.42773,1.42773-27.65234,1.9668
				c-17.17188,1.00391-34.58203,1.8418-51.31836,6.10742c-2.80664,0.71484-2.26367,5.25977,0.68945,5.09766
				c18.01953-0.99023,35.95312-0.93555,53.98047-1.23047c7.0918-0.11719,14.18359-0.36523,21.2793-0.38867
				c3.2168-0.00977,6.43359,0.05859,9.64648,0.23633c2.82227,0.1543,10.38867-0.58789,11.83984,2.37695
				c0.51758-1.26953,1.03516-2.54102,1.55078-3.8125c-17.23633,6.56055-35.95312,2.00586-53.75781,3.99609
				c-7.31055,0.81641-14.61719,1.2832-21.94531,1.94336c-6.42969,0.58008-13.375,1.34375-19.02539,4.70312
				c-1.5293,0.9082-1.84961,3.66211,0,4.48242c9.69141,4.29102,23.59766,1.30859,33.59766,0.69141
				c8.83984-0.54883,17.71875-0.45117,26.57031-0.34375c7.87305,0.0957,17.35938-1.22656,24.87305,1.39648
				c-0.20703-1.58008-0.41211-3.16211-0.61914-4.74219c-4.48828,2.14844-12.24023,0.48438-17.10938,0.52539
				c-7.10742,0.0625-14.20703,0.36523-21.28906,0.99609c-12.8418,1.14453-25.50391,3.18555-38.13867,5.72852
				c-2.88281,0.58008-2.21484,5.21875,0.68945,5.09766c12.12695-0.50391,24.30664-0.08398,36.44727-0.36914
				c9.48242-0.22461,19.52539-1.2832,28.98242-0.16016c-0.23047-1.69922-0.45898-3.39844-0.68945-5.09766
				c-8.11523,1.57422-16.48828,1.26562-24.68945,2.13867c-9.43555,1.00391-19.08008,2.26367-28.34375,4.3418
				c-2.85156,0.64062-2.23438,5.24023,0.69141,5.09766c16.0293-0.77734,32.35547-3.18555,48.35547-0.84375
				c-0.20703-1.58203-0.41406-3.16211-0.61914-4.74219c-11.58594,5.95117-26.45117,5.18945-38.98828,7.95703
				c-3.0293,0.66797-2.07227,4.86719,0.69141,5.09766c10.57812,0.87891,20.35547,4.91406,30.83008,0.9043
				c3.0918-1.18555,1.75-6.20508-1.37891-5.00586c-9.89258,3.78906-19.44336-0.25781-29.45117-1.08789
				c0.22852,1.69727,0.45898,3.39648,0.68945,5.09766c13.10742-2.89648,28.09375-2.24805,40.22656-8.48242
				c1.86914-0.96094,1.62305-4.41602-0.61914-4.74414c-16.5293-2.41797-33.17578-0.14258-49.73633,0.66016
				c0.22852,1.69727,0.45898,3.39648,0.68945,5.09766c9.68359-2.17383,19.79688-3.54102,29.68555-4.42383
				c7.7832-0.69531,15.64844-0.56445,23.3457-2.05664c3.11914-0.60742,1.97656-4.78125-0.68945-5.09766
				c-9.45703-1.12305-19.5-0.06445-28.98242,0.16016c-12.14062,0.28516-24.32031-0.13477-36.44727,0.36914
				c0.23047,1.69727,0.45898,3.39648,0.69141,5.09766c14.0918-2.83594,28.21289-5.01172,42.56445-6.00391
				c7.08203-0.49219,14.19336-0.55469,21.29102-0.56445c4.78906-0.00781,9.43359,0.94141,13.91992-1.20508
				c2.18945-1.05078,1.30859-4.07031-0.62109-4.74414c-5.82812-2.03516-12.00977-1.35742-18.07031-1.45508
				c-8.86328-0.14453-17.72266-0.27148-26.58594-0.11133c-8.82031,0.16016-17.60742,1.03906-26.41602,1.47266
				c-3.7168,0.18359-9.29688,0.39062-12.72852-1.12891c0,1.49414,0,2.98828,0,4.48242
				c6.00586-3.57227,13.82227-3.82617,20.60742-4.34375c7.23047-0.54688,14.41406-1.37695,21.63086-1.97461
				c17.07031-1.41016,34.72461,2.49023,51.25195-3.80078c1.63477-0.62305,2.33594-2.20703,1.55078-3.8125
				c-2.69531-5.50391-11.22852-4.5957-16.32227-4.94727c-8.32031-0.57617-16.73242-0.17578-25.06055,0.02344
				c-19.97266,0.47656-39.87695,0.25977-59.8457,1.35742c0.23047,1.69922,0.46094,3.39844,0.68945,5.09766
				c17.57031-4.47656,35.86523-5.07422,53.88281-6.1543c9.22461-0.55469,18.44336-1.24609,27.64844-2.08789
				c6.64453-0.60742,13.68555,0.20508,19.80664-2.92578c1.64062-0.83984,1.74609-3.67383,0-4.48242
				c-5.41406-2.50391-11.57031-1.74414-17.36328-1.55078c-9.52734,0.32031-19.25-0.86914-28.77148-1.31445
				c-10.2832-0.48242-20.5625-0.57422-30.85547-0.49805C27.03418,51,22.21973,51.05273,17.40527,51.07227
				c-4.6543,0.01953-9.56445,1.16602-14.16211,0.26562c0,1.66992,0,3.33789,0,5.00586
				c8.07617-2.48047,17.06641-2.26367,25.44336-2.84766c9.36719-0.6543,18.73047-1.31055,28.11133-1.74609
				c9.08789-0.42188,18.17578-0.875,27.26758-1.26758c7.24414-0.3125,15.64453,0.91211,22.61914-1.29688
				c2.55078-0.80664,2.38867-4.13281,0-5.00391c-7.4043-2.70312-15.91797-2.70703-23.70117-3.31445
				c-9.17578-0.7168-18.32812-0.9082-27.52539-0.85352c-9.05664,0.05664-18.10938,0.44336-27.13867,1.14258
				c-8.48242,0.6543-17.10156,2.80664-25.59766,2.5918c0.23047,1.69922,0.45898,3.39844,0.69141,5.09766
				c16.70898-3.83008,33.71484-5.67188,50.76367-7.21484c16.11523-1.45898,32.38281-1.25391,48.41797-3.52148
				c2.99219-0.42383,2.11914-5.02539-0.68945-5.09766c-17.18555-0.44922-34.27539-2.41992-51.44336-3
				c-8.76953-0.29688-17.55859,0.26758-26.29688,0.95898c-7.31055,0.57812-14.74805,0.54688-21.96289,1.96289
				c-2.85352,0.56055-2.22461,5.38672,0.68945,5.09766c15.17969-1.50391,30.19141-4.2207,45.30469-6.22461
				c15.80078-2.09375,31.72266-2.60352,47.57422-4.16992c3.27148-0.32422,3.4043-5.11719,0-5.18945
				c-28.78125-0.61328-57.57812-4.89062-86.24023-0.25c0.45898,1.66992,0.91992,3.33789,1.37891,5.00586
				c12.33398-3.0957,25.04297-3.34375,37.65625-4.33984c6.69336-0.52734,13.35742-1.38086,20.05664-1.88086
				c5.73828-0.42578,11.60938-0.18164,17.27148-1.27734c2.25195-0.4375,2.47461-3.69141,0.61914-4.74414
				c-7.70703-4.36719-19.04102-4.28125-27.64844-4.76367c-11.9082-0.66797-23.79102,0.24219-35.69141,0.66211
				c0.23047,1.69727,0.45898,3.39648,0.68945,5.0957c8.41992-1.54102,16.64258-4.07422,25.09375-5.41602
				c4.2168-0.66992,8.48438-1.05273,12.73047-1.47852c3.3418-0.33594,6.50977-0.13281,9.7207-1.28516
				c2.33789-0.83789,2.60547-4.2793,0-5.00586c-5.39844-1.50195-11.00391-1.38867-16.55859-1.2168
				C49.3916,1.72266,43.49707,1.24414,38.33105,3.28125C35.25488,4.49414,36.59277,9.51562,39.71191,8.28711L39.71191,8.28711z"/>
			<path fill="#D72B34" d="M39.71191,6.66797c4.30078-1.69727,9.03125-1.3418,13.57812-1.49023
				c5.5918-0.17969,11.29297-0.53516,16.74023,0.98047c0-1.66797,0-3.33789,0-5.00586
				c-3.30859,1.1875-6.80859,0.94531-10.26172,1.29297c-4.07422,0.4082-8.13867,0.88672-12.19141,1.4707
				c-8.45898,1.21875-16.6875,3.875-25.09375,5.41602c-2.9043,0.5332-2.20117,5.19922,0.68945,5.09766
				c10.62305-0.37305,21.23047-1.11914,31.86719-0.85352c5.50586,0.13867,11.06641,0.55664,16.52148,1.30469
				c3.96289,0.54297,8.80469,0.94531,12.33203,2.94336c0.20703-1.58008,0.41406-3.16211,0.61914-4.74414
				c-6.43945,1.24805-13.36328,0.87305-19.90234,1.4082c-6.55273,0.53516-13.07422,1.36133-19.63086,1.83984
				c-11.89453,0.87109-23.82812,1.33594-35.44922,4.25195c-3.30859,0.83008-1.84961,5.52734,1.37891,5.00586
				c28.13867-4.55664,56.60156-0.16992,84.86133,0.43164c0-1.73047,0-3.45898,0-5.18945
				C80.5752,22.33008,65.32324,22.89844,50.15918,24.75c-15.78906,1.92578-31.42969,4.9043-47.26758,6.47266
				c0.23047,1.69922,0.46094,3.39844,0.69141,5.09766c7.36914-1.44727,15.11914-1.3457,22.59961-1.9375
				c8.75781-0.69141,17.53125-1.02734,26.31445-0.73047c16.48633,0.55664,32.90234,2.5,49.4082,2.93164
				c-0.23242-1.69922-0.46094-3.39844-0.69141-5.09766c-16.85742,2.38477-34.06445,2.14062-51.01953,3.70117
				c-16.17188,1.48438-32.31445,3.4043-48.16211,7.03516c-2.92969,0.67188-2.17188,5.02539,0.68945,5.09766
				c7.90234,0.19922,15.81055-1.72461,23.66602-2.43164c9.02344-0.8125,18.08594-1.14844,27.14062-1.2832
				c8.51953-0.125,17.00977,0.01562,25.51367,0.55273c8.53125,0.53906,18.16797,0.45508,26.26367,3.41016
				c0-1.66797,0-3.33789,0-5.00586c-3.76758,1.19336-7.68945,0.8125-11.58008,0.75977
				c-4.49609-0.05859-9.04102,0.32227-13.53125,0.52344c-9.13086,0.4082-18.26172,0.83203-27.39062,1.28906
				c-9.39258,0.4707-18.77148,1.18359-28.15039,1.83398C17.0752,47.49219,9.17676,47.47461,1.8623,49.7207
				c-2.30859,0.70898-2.64648,4.48633,0,5.00586c3.48438,0.67969,6.83008,0.41602,10.3457,0.0918
				c4.45312-0.41211,8.99219-0.18945,13.46094-0.22656c9.62109-0.08398,19.24023-0.17188,28.85938,0.11719
				c9.51758,0.28516,19.02344,0.88477,28.5332,1.36328c3.72656,0.1875,7.40039,0.32617,11.12695,0.17383
				c3.85547-0.15625,8.42578-0.72461,12.03125,0.94531c0-1.49414,0-2.98828,0-4.48242
				c-5.94336,3.03906-14.58984,1.99219-21.12695,2.57227c-9.20508,0.81641-18.42773,1.42578-27.65234,1.96484
				C40.26855,58.25,22.8584,59.08789,6.12207,63.35352c-2.80664,0.7168-2.26367,5.25977,0.68945,5.09766
				c18.01953-0.99023,35.95312-0.93359,53.98047-1.23047c7.0918-0.11719,14.18359-0.36328,21.2793-0.38867
				c3.2168-0.00977,6.43359,0.05859,9.64648,0.23633c2.82227,0.15625,10.38867-0.58789,11.83984,2.37891
				c0.51758-1.26953,1.03516-2.54102,1.55078-3.8125c-17.23633,6.56055-35.95312,2.00391-53.75781,3.99414
				c-7.31055,0.81641-14.61719,1.28516-21.94531,1.94531c-6.42969,0.58008-13.375,1.3418-19.02539,4.70117
				c-1.5293,0.91016-1.84961,3.66406,0,4.48242c9.69141,4.29102,23.59766,1.30859,33.59766,0.69141
				c8.83984-0.54688,17.71875-0.45117,26.57031-0.3418c7.87305,0.0957,17.35938-1.22656,24.87305,1.39648
				c-0.20703-1.58203-0.41211-3.16211-0.61914-4.74414c-4.48828,2.14844-12.24023,0.48633-17.10938,0.52734
				c-7.10742,0.06055-14.20703,0.36328-21.28906,0.99414c-12.8418,1.14453-25.50391,3.1875-38.13867,5.72852
				c-2.88281,0.58203-2.21484,5.21875,0.68945,5.09766c12.12695-0.50391,24.30664-0.08203,36.44727-0.36914
				c9.48242-0.22266,19.52539-1.28125,28.98242-0.16016c-0.23047-1.69727-0.45898-3.39648-0.68945-5.09766
				c-8.11523,1.57617-16.48828,1.26562-24.68945,2.13867c-9.43555,1.00391-19.08008,2.26562-28.34375,4.3418
				c-2.85156,0.64062-2.23438,5.24023,0.69141,5.09766c16.0293-0.77734,32.35547-3.18555,48.35547-0.8418
				c-0.20703-1.58203-0.41406-3.16406-0.61914-4.74414c-11.58594,5.95312-26.45117,5.18945-38.98828,7.95703
				c-3.0293,0.66992-2.07227,4.86914,0.69141,5.09766c10.57812,0.87891,20.35547,4.91602,30.83008,0.9043
				c3.0918-1.18359,1.75-6.20508-1.37891-5.00586c-9.89258,3.78906-19.44336-0.25586-29.45117-1.08789
				c0.22852,1.69922,0.45898,3.39844,0.68945,5.09766c13.10742-2.89453,28.09375-2.24805,40.22656-8.48242
				c1.86914-0.96094,1.62305-4.41406-0.61914-4.74219c-16.5293-2.41992-33.17578-0.14453-49.73633,0.6582
				c0.22852,1.69922,0.45898,3.39844,0.68945,5.09766c9.68359-2.17188,19.79688-3.54102,29.68555-4.42383
				c7.7832-0.69531,15.64844-0.5625,23.3457-2.05664c3.11914-0.60547,1.97656-4.78125-0.68945-5.09766
				c-9.45703-1.12109-19.5-0.0625-28.98242,0.16016c-12.14062,0.28711-24.32031-0.13477-36.44727,0.36914
				c0.23047,1.69922,0.45898,3.39844,0.69141,5.09766c14.0918-2.83594,28.21289-5.00977,42.56445-6.00391
				c7.08203-0.49023,14.19336-0.55273,21.29102-0.5625c4.78906-0.00781,9.43359,0.93945,13.91992-1.20703
				c2.18945-1.04883,1.30859-4.07031-0.62109-4.74414c-5.82812-2.0332-12.00977-1.35547-18.07031-1.45508
				c-8.86328-0.14258-17.72266-0.27148-26.58594-0.10938c-8.82031,0.16016-17.60742,1.03711-26.41602,1.47266
				c-3.7168,0.18359-9.29688,0.38867-12.72852-1.13086c0,1.49414,0,2.98828,0,4.48242
				c6.00586-3.57227,13.82227-3.82617,20.60742-4.3418c7.23047-0.54883,14.41406-1.37891,21.63086-1.97461
				c17.07031-1.41016,34.72461,2.48828,51.25195-3.80078c1.63477-0.62305,2.33594-2.20898,1.55078-3.8125
				c-2.69531-5.50586-11.22852-4.59766-16.32227-4.94922c-8.32031-0.57617-16.73242-0.17383-25.06055,0.02539
				c-19.97266,0.47461-39.87695,0.25977-59.8457,1.35742c0.23047,1.69922,0.46094,3.39844,0.68945,5.09766
				c17.57031-4.47852,35.86523-5.07422,53.88281-6.15625c9.22461-0.55469,18.44336-1.24414,27.64844-2.08594
				c6.64453-0.60938,13.68555,0.20312,19.80664-2.92578c1.64062-0.83984,1.74609-3.67383,0-4.48242
				c-5.41406-2.50586-11.57031-1.74609-17.36328-1.55078c-9.52734,0.31836-19.25-0.87109-28.77148-1.31641
				c-10.2832-0.48047-20.5625-0.57422-30.85547-0.49609c-4.81445,0.03516-9.62891,0.08984-14.44336,0.10938
				c-4.6543,0.01758-9.56445,1.16602-14.16211,0.26562c0,1.66797,0,3.33594,0,5.00586
				c8.07617-2.48047,17.06641-2.26367,25.44336-2.84961c9.36719-0.65234,18.73047-1.30859,28.11133-1.74414
				c9.08789-0.42383,18.17578-0.875,27.26758-1.26758c7.24414-0.31445,15.64453,0.91211,22.61914-1.29688
				c2.55078-0.80859,2.38867-4.13281,0-5.00586c-7.4043-2.70117-15.91797-2.70508-23.70117-3.3125
				c-9.17578-0.7168-18.32812-0.91016-27.52539-0.85352c-9.05664,0.05469-18.10938,0.44141-27.13867,1.14062
				c-8.48242,0.65625-17.10156,2.80664-25.59766,2.59375c0.23047,1.69727,0.45898,3.39648,0.69141,5.09766
				c16.70898-3.83008,33.71484-5.67188,50.76367-7.2168c16.11523-1.45703,32.38281-1.25195,48.41797-3.52148
				c2.99219-0.42188,2.11914-5.02344-0.68945-5.09766c-17.18555-0.44727-34.27539-2.41992-51.44336-3
				c-8.76953-0.29492-17.55859,0.26953-26.29688,0.95898c-7.31055,0.57812-14.74805,0.54883-21.96289,1.96484
				c-2.85352,0.56055-2.22461,5.38477,0.68945,5.09766c15.17969-1.50586,30.19141-4.22266,45.30469-6.22461
				c15.80078-2.09375,31.72266-2.60352,47.57422-4.17188c3.27148-0.32227,3.4043-5.11719,0-5.18945
				c-28.78125-0.61328-57.57812-4.88867-86.24023-0.24805c0.45898,1.66797,0.91992,3.33594,1.37891,5.00586
				c12.33398-3.0957,25.04297-3.3457,37.65625-4.33984c6.69336-0.52734,13.35742-1.38281,20.05664-1.88086
				c5.73828-0.42773,11.60938-0.18164,17.27148-1.2793c2.25195-0.43555,2.47461-3.69141,0.61914-4.74414
				c-7.70703-4.36523-19.04102-4.2793-27.64844-4.76172c-11.9082-0.66797-23.79102,0.24219-35.69141,0.66016
				c0.23047,1.69922,0.45898,3.39844,0.68945,5.09766c8.41992-1.54297,16.64258-4.07617,25.09375-5.41797
				c4.2168-0.66992,8.48438-1.05273,12.73047-1.47852c3.3418-0.33398,6.50977-0.13281,9.7207-1.2832
				c2.33789-0.83789,2.60547-4.2793,0-5.00586c-5.39844-1.50195-11.00391-1.39062-16.55859-1.2168
				C49.3916,0.10352,43.49707-0.375,38.33105,1.66406C35.25488,2.87695,36.59277,7.89648,39.71191,6.66797L39.71191,6.66797z"/>
		</g>
		<path fill="#FFFFFF" d="M40.63574,57.62109c0,0,0.96094,0.29297,0.54297,2.08789l-1.08398,3.58984
			c0,0-0.71094,0.66797-1.79492,0.125c0,0-8.70898-3.11914-6.94336-17.66602c0,0,1.68164-12.35938,13.95703-16.98438
			s22.70312-0.08398,23.96484,0.58789c1.25977,0.67188,12.35938,7.40039,11.35156,20.60156
			c-1.01172,13.20117-7.56836,17.99414-8.91211,19.16992c-1.3457,1.17773-13.28711,7.98828-19.92969-0.75781L48.4248,80.56836
			c0,0-1.68164,4.20312-3.11133,5.46484c0,0-4.11914-1.17578-4.28711-1.68164c0,0-0.25391-5.7168,0.41992-7.65039l4.96094-20.51562
			c0,0-2.1875-5.80273-0.58789-9.66992c0,0,2.52148-6.81055,7.73633-5.63281c0,0,4.70703,1.0918,3.69727,7.23047l-2.77344,9.66797
			c0,0-1.26172,4.53906,0.83984,6.39062c0,0,3.5332,4.54102,9.75391,0.33789c0,0,4.45703-1.76758,6.22266-13.36914
			c0,0,1.42969-10.34375-4.20508-14.63281c0,0-6.39062-6.13672-17.99219-2.35156c0,0-8.74609,3.02539-10.51172,12.35938
			C38.58691,46.51562,36.96973,51.91211,40.63574,57.62109z"/>
	</g>
</g>
<g id="Layer_6">
</g>
<g id="Twitter_Logo_Silhouette_designed_by_Elegant_Themes_from_Flaticon.com">
</g>
</svg>
