<?xml version="1.0" encoding="utf-8"?>
<!-- Generator: Adobe Illustrator 16.0.0, SVG Export Plug-In . SVG Version: 6.00 Build 0)  -->
<!DOCTYPE svg PUBLIC "-//W3C//DTD SVG 1.1//EN" "http://www.w3.org/Graphics/SVG/1.1/DTD/svg11.dtd">
<svg version="1.1" xmlns="http://www.w3.org/2000/svg" xmlns:xlink="http://www.w3.org/1999/xlink" x="0px" y="0px"
	 width="110.10742px" height="107.63379px" viewBox="0 0 110.10742 107.63379" enable-background="new 0 0 110.10742 107.63379"
	 xml:space="preserve">
<g id="Layer_1">
</g>
<g id="social_market">
</g>
<g id="set2">
</g>
<g id="Layer_5">
	<g>
		<g>
			<path fill="#628AB4" d="M39.70898,8.125c4.30273-1.69824,9.03125-1.34277,13.58008-1.49121
				c5.5918-0.17969,11.29297-0.53516,16.73828,0.98047c0-1.66895,0-3.33691,0-5.00586
				C66.7207,3.7959,63.2207,3.55371,59.76758,3.90137c-4.07617,0.4082-8.13867,0.88672-12.19336,1.4707
				c-8.45898,1.21875-16.68555,3.87598-25.09375,5.41602c-2.90234,0.5332-2.19922,5.19922,0.68945,5.09766
				c10.625-0.37207,21.23242-1.11816,31.86719-0.85254c5.50781,0.1377,11.06836,0.55566,16.52344,1.30371
				c3.96094,0.54395,8.80273,0.94531,12.33008,2.94434c0.20703-1.58105,0.41406-3.16309,0.62109-4.74414
				c-6.43945,1.24805-13.36328,0.87305-19.9043,1.40723c-6.54883,0.53613-13.07422,1.36133-19.63086,1.84082
				c-11.89453,0.87012-23.82617,1.33496-35.44922,4.25098c-3.30859,0.83105-1.84766,5.52734,1.38086,5.00586
				c28.13867-4.55664,56.60352-0.16992,84.85938,0.43262c0-1.73047,0-3.45996,0-5.19043
				c-15.19336,1.50195-30.44531,2.07129-45.60938,3.92188c-15.78906,1.92578-31.42969,4.9043-47.26758,6.47363
				c0.23047,1.69824,0.46094,3.39746,0.68945,5.09766c7.37109-1.44824,15.12109-1.34668,22.60156-1.93848
				c8.75781-0.69141,17.53125-1.02734,26.31445-0.73047c16.48633,0.55664,32.90039,2.5,49.40625,2.93164
				c-0.22852-1.69922-0.45898-3.39844-0.68945-5.09766c-16.85742,2.38574-34.06641,2.1416-51.02148,3.70117
				c-16.17188,1.48535-32.31445,3.4043-48.16016,7.03516c-2.92969,0.67188-2.17383,5.02539,0.68945,5.09766
				c7.90234,0.19922,15.81055-1.72461,23.66602-2.43164c9.02148-0.8125,18.08594-1.14844,27.14062-1.28223
				c8.51758-0.125,17.00781,0.01465,25.51367,0.55176c8.5293,0.53906,18.16797,0.45508,26.26367,3.41016
				c0-1.66797,0-3.33691,0-5.00586c-3.76758,1.19336-7.6875,0.8125-11.58203,0.76074
				c-4.49609-0.05859-9.04102,0.32129-13.5293,0.52246c-9.13086,0.4082-18.26367,0.83203-27.39062,1.28906
				c-9.39258,0.47168-18.77148,1.18359-28.15234,1.83398c-7.57617,0.52344-15.47656,0.50684-22.78906,2.75195
				c-2.30762,0.70898-2.64746,4.4873,0,5.00586c3.48438,0.68066,6.83008,0.41699,10.34766,0.0918
				c4.45117-0.41211,8.99023-0.18848,13.45703-0.22656c9.62305-0.08398,19.24219-0.1709,28.86133,0.11816
				c9.51758,0.28418,19.02344,0.88379,28.53125,1.3623c3.72656,0.1875,7.40234,0.32617,11.12891,0.17383
				c3.85547-0.15625,8.42383-0.72363,12.0293,0.94531c0-1.49414,0-2.98828,0-4.48242
				c-5.94336,3.03906-14.58984,1.99219-21.125,2.57227c-9.20508,0.81641-18.42773,1.42578-27.6543,1.96582
				c-17.17188,1.00293-34.58203,1.8418-51.31641,6.10645c-2.80859,0.7168-2.26367,5.26074,0.68945,5.09766
				c18.01758-0.99023,35.95312-0.93359,53.97852-1.23047c7.0957-0.11621,14.18555-0.36328,21.28125-0.3877
				c3.21875-0.01074,6.43359,0.05859,9.64648,0.23633c2.82227,0.15527,10.38867-0.58789,11.83984,2.37793
				c0.51758-1.26953,1.0332-2.54102,1.55078-3.8125c-17.23633,6.56055-35.95508,2.00488-53.75781,3.99512
				c-7.31055,0.81543-14.61719,1.28418-21.94531,1.94434c-6.43164,0.58008-13.375,1.34277-19.02734,4.70215
				c-1.52734,0.90918-1.84766,3.66309,0,4.48145c9.69141,4.29102,23.59961,1.30957,33.59961,0.69141
				c8.83984-0.54688,17.71875-0.45117,26.56836-0.3418c7.87305,0.0957,17.36133-1.22656,24.87305,1.39648
				c-0.20508-1.58105-0.41211-3.16211-0.61914-4.74414c-4.48828,2.14941-12.23828,0.48633-17.10742,0.52734
				c-7.10938,0.06055-14.20898,0.36426-21.29102,0.99414c-12.8418,1.14453-25.50195,3.1875-38.13672,5.72949
				c-2.88477,0.58105-2.21484,5.21777,0.68945,5.09766c12.12695-0.50391,24.30469-0.08301,36.44727-0.36914
				c9.48242-0.22363,19.52539-1.28223,28.98242-0.16016c-0.23047-1.69824-0.46094-3.39746-0.68945-5.09766
				c-8.11719,1.5752-16.48828,1.26465-24.68945,2.1377c-9.43555,1.00488-19.08008,2.26562-28.34375,4.34277
				c-2.85352,0.64062-2.23438,5.23926,0.68945,5.09766c16.03125-0.77734,32.35742-3.18652,48.35742-0.84277
				c-0.20703-1.58203-0.41406-3.16309-0.62109-4.74414C67.5,97.88184,52.63477,97.11914,40.09961,99.88672
				c-3.0293,0.66895-2.07422,4.86816,0.68945,5.09766c10.57812,0.87793,20.35742,4.91504,30.83203,0.90332
				c3.0918-1.18359,1.75-6.2041-1.38086-5.00488c-9.89062,3.78906-19.43945-0.25684-29.45117-1.08887
				c0.23047,1.69922,0.46094,3.39844,0.68945,5.09766c13.10938-2.89453,28.09375-2.24707,40.22852-8.48242
				c1.87109-0.96094,1.62305-4.41406-0.62109-4.74219c-16.52734-2.41895-33.17383-0.14453-49.73633,0.6582
				c0.23047,1.69922,0.46094,3.39844,0.68945,5.09766C41.72461,95.25098,51.83594,93.88281,61.72461,93
				c7.7832-0.69531,15.64844-0.56348,23.34766-2.05664c3.11914-0.60645,1.97656-4.78223-0.68945-5.09766
				c-9.45703-1.12207-19.5-0.06348-28.98242,0.16016c-12.14258,0.28613-24.32031-0.13574-36.44727,0.36816
				c0.23047,1.69922,0.46094,3.39844,0.68945,5.09766c14.0918-2.83594,28.21484-5.00977,42.56445-6.00391
				c7.08398-0.49023,14.19531-0.55273,21.29102-0.5625c4.79102-0.00781,9.43555,0.94043,13.91992-1.20703
				c2.19141-1.04883,1.31055-4.06934-0.61914-4.74414C90.9707,76.9209,84.78711,77.59863,78.72656,77.5
				c-8.86133-0.14355-17.72266-0.27148-26.58594-0.11035c-8.81836,0.16016-17.60742,1.03809-26.41406,1.47266
				c-3.71875,0.18359-9.29883,0.38867-12.73047-1.12988c0,1.49414,0,2.98828,0,4.48145
				c6.00781-3.57129,13.82227-3.82617,20.60938-4.3418c7.22852-0.54883,14.41406-1.37891,21.62891-1.97461
				c17.07031-1.41016,34.72461,2.48828,51.25195-3.80078c1.63672-0.62305,2.33789-2.20801,1.55078-3.8125
				c-2.69531-5.50586-11.22656-4.59766-16.32031-4.94922c-8.32227-0.5752-16.73242-0.17383-25.06055,0.02539
				c-19.97266,0.47559-39.87695,0.25977-59.8457,1.35742C7.04102,66.41699,7.26953,68.11621,7.5,69.81543
				c17.57031-4.47852,35.86328-5.07422,53.88086-6.15625c9.22656-0.55371,18.44336-1.24414,27.65039-2.08594
				c6.64258-0.60938,13.68359,0.2041,19.80469-2.92578c1.64258-0.84082,1.74609-3.67383,0-4.48242
				c-5.41406-2.50488-11.56836-1.74609-17.36133-1.55078c-9.52734,0.31836-19.25195-0.87012-28.77148-1.31641
				c-10.2832-0.48047-20.5625-0.57324-30.85547-0.49609c-4.81445,0.03613-9.62891,0.08984-14.44531,0.10938
				c-4.65234,0.01758-9.5625,1.16602-14.16211,0.26562c0,1.66797,0,3.33691,0,5.00586
				c8.07617-2.48047,17.06836-2.26367,25.44531-2.84961c9.36523-0.65234,18.73047-1.30859,28.10938-1.74414
				c9.08984-0.42383,18.17578-0.875,27.26758-1.26758c7.24609-0.31348,15.64453,0.91211,22.62109-1.29688
				c2.55078-0.80762,2.38672-4.13281,0-5.00586c-7.40625-2.70117-15.91992-2.70508-23.70117-3.3125
				c-9.17383-0.7168-18.32812-0.91016-27.52734-0.85352c-9.05664,0.05469-18.10742,0.44238-27.13672,1.14062
				C19.83789,41.64941,11.2168,43.7998,2.7207,43.58691c0.23047,1.69824,0.46094,3.39746,0.68945,5.09766
				c16.70898-3.83008,33.7168-5.67188,50.76562-7.21582c16.11523-1.45801,32.38281-1.25293,48.41602-3.52148
				c2.99414-0.42285,2.11914-5.02441-0.68945-5.09766c-17.18359-0.44824-34.27344-2.4209-51.44141-3
				c-8.76953-0.2959-17.55859,0.26855-26.29492,0.95898c-7.3125,0.57715-14.75195,0.54688-21.96484,1.96387
				c-2.85449,0.56055-2.22656,5.38574,0.68945,5.09766c15.17773-1.50488,30.18945-4.22168,45.30273-6.22461
				c15.80273-2.09375,31.72461-2.60352,47.57422-4.1709c3.27344-0.32324,3.40625-5.11719,0-5.19043
				c-28.78125-0.61328-57.57812-4.88867-86.24023-0.24805c0.46094,1.66797,0.92188,3.33691,1.38086,5.00586
				c12.33203-3.0957,25.04102-3.3457,37.6543-4.33984c6.69336-0.52832,13.35938-1.38281,20.05664-1.88086
				c5.74023-0.42773,11.61133-0.18164,17.27148-1.2793c2.25195-0.43555,2.47656-3.69141,0.62109-4.74316
				c-7.70703-4.36621-19.04102-4.28027-27.64844-4.7627c-11.9082-0.66797-23.79297,0.24219-35.69336,0.66016
				c0.23047,1.69922,0.46094,3.39844,0.69141,5.09766c8.41797-1.54297,16.64062-4.07617,25.0918-5.41797
				c4.21875-0.66895,8.48438-1.05176,12.73047-1.47754c3.34375-0.33496,6.50977-0.13281,9.72461-1.28418
				c2.33594-0.83789,2.60352-4.2793,0-5.00586c-5.40039-1.50195-11.00586-1.38965-16.5625-1.2168
				c-5.45703,0.16895-11.34961-0.30957-16.51562,1.72852C35.25391,4.33301,36.5918,9.35352,39.70898,8.125L39.70898,8.125z"/>
			<path fill="#628AB4" d="M39.70898,6.83105c4.30273-1.69824,9.03125-1.34375,13.58008-1.49219
				c5.5918-0.17969,11.29297-0.53516,16.73828,0.98047c0-1.66797,0-3.33594,0-5.00586
				c-3.30664,1.1875-6.80664,0.94629-10.25977,1.29297c-4.07617,0.4082-8.13867,0.88672-12.19336,1.4707
				C39.11523,5.29688,30.88867,7.9541,22.48047,9.49414c-2.90234,0.5332-2.19922,5.19922,0.68945,5.09766
				c10.625-0.37207,21.23242-1.11816,31.86719-0.85254c5.50781,0.13672,11.06836,0.55566,16.52344,1.30371
				c3.96094,0.54395,8.80273,0.94434,12.33008,2.94434c0.20703-1.58203,0.41406-3.16309,0.62109-4.74414
				c-6.43945,1.24805-13.36328,0.87305-19.9043,1.40625c-6.54883,0.53711-13.07422,1.36133-19.63086,1.8418
				c-11.89453,0.86914-23.82617,1.33398-35.44922,4.25c-3.30859,0.83203-1.84766,5.52734,1.38086,5.00586
				c28.13867-4.55664,56.60352-0.16895,84.85938,0.43359c0-1.73047,0-3.46094,0-5.19043
				c-15.19336,1.50195-30.44531,2.07129-45.60938,3.9209c-15.78906,1.92676-31.42969,4.9043-47.26758,6.47461
				c0.23047,1.69824,0.46094,3.39648,0.68945,5.09766c7.37109-1.44824,15.12109-1.34766,22.60156-1.93945
				c8.75781-0.69141,17.53125-1.02734,26.31445-0.73047c16.48633,0.55664,32.90039,2.5,49.40625,2.93164
				c-0.22852-1.69922-0.45898-3.39746-0.68945-5.09766c-16.85742,2.38672-34.06641,2.14258-51.02148,3.70117
				c-16.17188,1.48633-32.31445,3.4043-48.16016,7.03516c-2.92969,0.67188-2.17383,5.02539,0.68945,5.09766
				c7.90234,0.19922,15.81055-1.72461,23.66602-2.43164c9.02148-0.81152,18.08594-1.14844,27.14062-1.28125
				c8.51758-0.125,17.00781,0.01367,25.51367,0.55176c8.5293,0.53906,18.16797,0.45508,26.26367,3.40918
				c0-1.66797,0-3.33594,0-5.00488c-3.76758,1.19336-7.6875,0.81152-11.58203,0.76074
				c-4.49609-0.05859-9.04102,0.32031-13.5293,0.52148c-9.13086,0.4082-18.26367,0.83203-27.39062,1.28906
				c-9.39258,0.47266-18.77148,1.18457-28.15234,1.83398C17.07422,47.6543,9.17383,47.6377,1.86133,49.88184
				c-2.30762,0.70898-2.64746,4.48828,0,5.00586c3.48438,0.68164,6.83008,0.41797,10.34766,0.0918
				c4.45117-0.41113,8.99023-0.1875,13.45703-0.22656c9.62305-0.08398,19.24219-0.16992,28.86133,0.11914
				c9.51758,0.28418,19.02344,0.88281,28.53125,1.36133c3.72656,0.1875,7.40234,0.32617,11.12891,0.1748
				c3.85547-0.15723,8.42383-0.72363,12.0293,0.94434c0-1.49414,0-2.98828,0-4.48242
				c-5.94336,3.04004-14.58984,1.99316-21.125,2.57227c-9.20508,0.81641-18.42773,1.42676-27.6543,1.9668
				c-17.17188,1.00293-34.58203,1.8418-51.31641,6.10645c-2.80859,0.71582-2.26367,5.26074,0.68945,5.09766
				c18.01758-0.99023,35.95312-0.93457,53.97852-1.23047c7.0957-0.11621,14.18555-0.36426,21.28125-0.3877
				c3.21875-0.01074,6.43359,0.05859,9.64648,0.23633c2.82227,0.1543,10.38867-0.58789,11.83984,2.37695
				c0.51758-1.26953,1.0332-2.54102,1.55078-3.8125c-17.23633,6.56055-35.95508,2.00586-53.75781,3.99609
				c-7.31055,0.81543-14.61719,1.2832-21.94531,1.94336c-6.43164,0.58008-13.375,1.34375-19.02734,4.70312
				c-1.52734,0.9082-1.84766,3.66211,0,4.48145c9.69141,4.29102,23.59961,1.30957,33.59961,0.69141
				c8.83984-0.54785,17.71875-0.45117,26.56836-0.34277c7.87305,0.0957,17.36133-1.22656,24.87305,1.39648
				c-0.20508-1.58008-0.41211-3.16211-0.61914-4.74316c-4.48828,2.14941-12.23828,0.48535-17.10742,0.52637
				c-7.10938,0.06152-14.20898,0.36523-21.29102,0.99512c-12.8418,1.14453-25.50195,3.18652-38.13672,5.72949
				c-2.88477,0.58008-2.21484,5.21777,0.68945,5.09766c12.12695-0.50391,24.30469-0.08398,36.44727-0.36914
				c9.48242-0.22461,19.52539-1.2832,28.98242-0.16016c-0.23047-1.69922-0.46094-3.39844-0.68945-5.09766
				c-8.11719,1.57422-16.48828,1.26465-24.68945,2.1377c-9.43555,1.00488-19.08008,2.26465-28.34375,4.34277
				c-2.85352,0.64062-2.23438,5.23926,0.68945,5.09766c16.03125-0.77734,32.35742-3.18652,48.35742-0.84375
				c-0.20703-1.58203-0.41406-3.16211-0.62109-4.74316C67.5,96.58691,52.63477,95.8252,40.09961,98.59277
				c-3.0293,0.66797-2.07422,4.86719,0.68945,5.09766c10.57812,0.87793,20.35742,4.91406,30.83203,0.90332
				c3.0918-1.18457,1.75-6.2041-1.38086-5.00488c-9.89062,3.78906-19.43945-0.25781-29.45117-1.08887
				c0.23047,1.69824,0.46094,3.39746,0.68945,5.09766c13.10938-2.89551,28.09375-2.24707,40.22852-8.48242
				c1.87109-0.96094,1.62305-4.41504-0.62109-4.74316c-16.52734-2.41797-33.17383-0.14355-49.73633,0.65918
				c0.23047,1.69824,0.46094,3.39746,0.68945,5.09766c9.68555-2.17285,19.79688-3.54004,29.68555-4.42285
				c7.7832-0.69531,15.64844-0.56445,23.34766-2.05664c3.11914-0.60742,1.97656-4.78223-0.68945-5.09766
				c-9.45703-1.12305-19.5-0.06445-28.98242,0.16016c-12.14258,0.28516-24.32031-0.13574-36.44727,0.36816
				c0.23047,1.69824,0.46094,3.39746,0.68945,5.09766c14.0918-2.83594,28.21484-5.01074,42.56445-6.00391
				c7.08398-0.49121,14.19531-0.55371,21.29102-0.56348c4.79102-0.00781,9.43555,0.94141,13.91992-1.20605
				c2.19141-1.0498,1.31055-4.06934-0.61914-4.74414c-5.82812-2.03418-12.01172-1.35645-18.07227-1.4541
				c-8.86133-0.14453-17.72266-0.27148-26.58594-0.11133c-8.81836,0.16016-17.60742,1.03906-26.41406,1.47266
				c-3.71875,0.18359-9.29883,0.38965-12.73047-1.12891c0,1.49414,0,2.98828,0,4.48145
				c6.00781-3.57129,13.82227-3.82617,20.60938-4.34277c7.22852-0.54785,14.41406-1.37793,21.62891-1.97461
				c17.07031-1.41016,34.72461,2.48926,51.25195-3.80078c1.63672-0.62305,2.33789-2.20703,1.55078-3.8125
				c-2.69531-5.50488-11.22656-4.59668-16.32031-4.94824c-8.32227-0.5752-16.73242-0.1748-25.06055,0.02441
				c-19.97266,0.47656-39.87695,0.25977-59.8457,1.35742C7.04102,65.12207,7.26953,66.82129,7.5,68.52051
				c17.57031-4.47754,35.86328-5.07422,53.88086-6.15527c9.22656-0.55371,18.44336-1.24512,27.65039-2.08691
				c6.64258-0.6084,13.68359,0.20508,19.80469-2.92578c1.64258-0.83984,1.74609-3.67383,0-4.48242
				c-5.41406-2.50391-11.56836-1.74512-17.36133-1.55078c-9.52734,0.31934-19.25195-0.86914-28.77148-1.31543
				c-10.2832-0.48145-20.5625-0.57324-30.85547-0.49707c-4.81445,0.03711-9.62891,0.08984-14.44531,0.10938
				c-4.65234,0.01855-9.5625,1.16602-14.16211,0.26562c0,1.66895,0,3.33789,0,5.00586
				c8.07617-2.48047,17.06836-2.26367,25.44531-2.84863c9.36523-0.65332,18.73047-1.30957,28.10938-1.74512
				c9.08984-0.42285,18.17578-0.875,27.26758-1.26758c7.24609-0.3125,15.64453,0.91211,22.62109-1.29688
				c2.55078-0.80664,2.38672-4.13281,0-5.00488c-7.40625-2.70215-15.91992-2.70605-23.70117-3.31348
				c-9.17383-0.7168-18.32812-0.90918-27.52734-0.85352c-9.05664,0.05566-18.10742,0.44336-27.13672,1.1416
				c-8.48047,0.65527-17.10156,2.80664-25.59766,2.59277c0.23047,1.69922,0.46094,3.39844,0.68945,5.09766
				c16.70898-3.83008,33.7168-5.67188,50.76562-7.21484c16.11523-1.45898,32.38281-1.25391,48.41602-3.52148
				c2.99414-0.42383,2.11914-5.02539-0.68945-5.09766c-17.18359-0.44922-34.27344-2.4209-51.44141-3
				c-8.76953-0.29688-17.55859,0.26758-26.29492,0.95898c-7.3125,0.57715-14.75195,0.54688-21.96484,1.96289
				c-2.85449,0.56055-2.22656,5.38672,0.68945,5.09766c15.17773-1.50391,30.18945-4.2207,45.30273-6.22461
				c15.80273-2.09375,31.72461-2.60352,47.57422-4.16992c3.27344-0.32422,3.40625-5.11719,0-5.19043
				c-28.78125-0.61328-57.57812-4.88965-86.24023-0.24902c0.46094,1.66895,0.92188,3.33789,1.38086,5.00586
				c12.33203-3.0957,25.04102-3.34473,37.6543-4.33984c6.69336-0.52734,13.35938-1.38281,20.05664-1.88086
				c5.74023-0.42676,11.61133-0.18164,17.27148-1.27832c2.25195-0.43652,2.47656-3.69141,0.62109-4.74316
				C78.80469,9.1377,67.4707,9.22363,58.86328,8.74121C46.95508,8.07324,35.07031,8.9834,23.16992,9.40137
				c0.23047,1.69922,0.46094,3.39844,0.69141,5.09766c8.41797-1.54199,16.64062-4.0752,25.0918-5.41797
				c4.21875-0.66797,8.48438-1.05078,12.73047-1.47656c3.34375-0.33594,6.50977-0.13281,9.72461-1.28516
				c2.33594-0.83789,2.60352-4.2793,0-5.00586c-5.40039-1.50195-11.00586-1.38867-16.5625-1.2168
				C49.38867,0.2666,43.49609-0.21191,38.33008,1.8252C35.25391,3.03809,36.5918,8.05957,39.70898,6.83105L39.70898,6.83105z"/>
		</g>
		<g>
			<path id="reddit_3_" fill="#FFFFFF" d="M67.74414,56.00391c0.1543,0.39844,0.2207,0.79883,0.2207,1.19727
				c0,0.80664-0.2832,1.57812-0.74609,2.21289c-0.45898,0.62891-1.10938,1.13281-1.8916,1.32812l0,0
				c-0.00684,0.00195-0.00879,0.00195-0.01172,0.03516c-0.00293,0-0.00488,0-0.00488,0
				c-0.35742,0.11914-0.74023,0.17773-1.10352,0.17773c-0.85742,0-1.70898-0.32812-2.36523-0.85742
				c-0.68164-0.52344-1.1875-1.27148-1.33203-2.14844l0,0c0,0,0-0.03516-0.03125-0.03516v-0.00195l0,0
				c-0.02734-0.23633-0.06445-0.46289-0.06445-0.69727c0-0.76367,0.27539-1.50977,0.69629-2.13281
				c0.4502-0.61133,1.06934-1.09766,1.77246-1.33789c0.00391,0,0.00586,0,0.00586,0l0,0
				c0.4043-0.16211,0.85352-0.22852,1.26758-0.22852c0.76367,0,1.51953,0.23242,2.17969,0.66211
				c0.63477,0.41406,1.1543,1.0293,1.39551,1.80859c0,0,0,0.00977,0.00195,0.00977v0.00781H67.74414z M65.37891,65.51758
				c-0.29297-0.18555-0.64453-0.29883-0.99902-0.29883c-0.32422,0-0.625,0.06836-0.90137,0.25l0,0
				c-2.60449,1.55664-5.66406,2.41602-8.7207,2.41602c-2.29297,0-4.55078-0.4707-6.61914-1.5l-0.00586-0.00195h-0.01953
				c-0.29785-0.12109-0.66406-0.39648-1.04297-0.64062c-0.20215-0.15234-0.4043-0.27344-0.62988-0.35156
				c-0.23145-0.10938-0.46777-0.16797-0.73145-0.16797c-0.22266,0-0.45508,0.05078-0.68555,0.13477
				c-0.00391,0.00195-0.02734,0.03516-0.03223,0.03516l0,0c-0.36621,0.13086-0.63379,0.39844-0.82715,0.69531
				c-0.18164,0.29102-0.26562,0.65039-0.26562,1c0,0.33203,0.08398,0.63672,0.23438,0.92773
				c0.14453,0.2832,0.37598,0.52148,0.66895,0.6875c2.94043,2,6.40234,2.88086,9.8877,2.88086
				c3.13672,0,6.30078-0.70898,9.08789-2.0332l0.03906-0.0332l0.00977-0.00195c0.36035-0.22852,0.8623-0.41211,1.32422-0.69922
				c0.23242-0.13281,0.45605-0.30469,0.64258-0.53125c0.18164-0.22266,0.34961-0.50586,0.44727-0.80273l0,0
				c0.02539-0.16016,0.05469-0.28906,0.05469-0.41211c0-0.27344-0.05664-0.51172-0.16992-0.73828
				C65.94727,65.98438,65.67578,65.70508,65.37891,65.51758z M44.7334,60.74219c0,0,0.00391,0,0.00684,0
				c0.39453,0.1543,0.77344,0.21484,1.15234,0.21484c0.96875,0,1.89648-0.39648,2.59277-1.03125
				c0.69434-0.63281,1.17773-1.54883,1.17773-2.58398c0,0,0-0.05078,0-0.07031c0.00488-0.05469,0.00488-0.10938,0.00488-0.16016
				c0-1.00391-0.46484-1.92188-1.1582-2.55664c-0.71094-0.65625-1.63574-1.05273-2.59277-1.05273
				c-0.25586,0-0.51758,0.03125-0.77441,0.08398c-0.00391,0-0.00391,0.00977-0.00586,0.00977l0,0
				c-1.27148,0.26758-2.3916,1.20312-2.80078,2.51367l0,0l0,0c0,0.00195,0,0.00195,0,0.00195
				c-0.11426,0.34766-0.17188,0.70898-0.17188,1.08984c0,0.77344,0.26172,1.56836,0.7041,2.20312
				c0.45508,0.62695,1.09277,1.10742,1.8457,1.33203C44.72852,60.74023,44.72852,60.74219,44.7334,60.74219z M84.57227,51.48242
				L84.57227,51.48242c0,0.13477,0.00391,0.25586,0.00391,0.39453c0,1.42383-0.46289,2.80469-1.2207,3.99414
				c-0.73242,1.07031-1.71387,1.99219-2.86035,2.61523c0.0957,0.57422,0.11523,1.15234,0.11523,1.72656
				c0,3.07617-1.0498,6.11328-2.90723,8.54883l0,0l0,0c-3.44238,4.55859-8.7002,7.25391-14.00586,8.62305l0,0h-0.00586
				c-2.85645,0.69531-5.75977,1.03516-8.68945,1.03516c-4.35449,0-8.70898-0.79102-12.76855-2.41406l0,0h-0.00684
				c-4.20996-1.73438-8.21777-4.49805-10.67285-8.54102c-1.32715-2.17578-2.05176-4.70898-2.05176-7.24609
				c0-0.57031,0.03516-1.1543,0.09766-1.69336c-1.10156-0.62891-2.05664-1.53125-2.77246-2.58594
				c-0.75195-1.12305-1.2373-2.46484-1.2959-3.85938v-0.00195v-0.01758v-0.00195c0-1.96484,0.84375-3.83398,2.1875-5.21289
				c1.32812-1.36328,3.14355-2.25977,5.08301-2.25977c0.02637,0,0.05371,0,0.08301,0c0.2041-0.01953,0.4082-0.0293,0.61035-0.0293
				c0.97852,0,1.96094,0.1543,2.89746,0.51953l0.00391,0.00195l0,0c0.78906,0.33203,1.58496,0.72852,2.28516,1.29688
				c0.23047-0.11523,0.48438-0.25586,0.75391-0.35547c4.26172-2.5332,9.22461-3.51172,14.06055-3.79492
				c0.03711-2.39453,0.3418-4.89844,1.5-7.09375c0.97852-1.81641,2.66113-3.23438,4.67383-3.72656l0.00391-0.00195h0.00195
				c0.78516-0.14844,1.54883-0.21875,2.30762-0.21875c2.05762,0,4.0752,0.48438,5.94727,1.23828
				c0.85156-1.27148,2.05176-2.24023,3.43945-2.80078l0.00977-0.00391l0.00488-0.00195
				c0.84863-0.25586,1.68164-0.40234,2.57812-0.40234c0.92578,0,1.8457,0.17188,2.71289,0.54883l0,0l0,0
				c0.00586,0,0.01074,0.00195,0.0127,0.00195c1.22754,0.48438,2.30078,1.36133,3.04297,2.47461
				c0.75098,1.10352,1.17383,2.42188,1.17383,3.7832c0,0.25391-0.00684,0.49219-0.02148,0.75195v0.00195
				c0,0,0,0.01953-0.03223,0.01953c-0.13086,1.75977-1.01074,3.29492-2.27344,4.39062
				c-1.27148,1.11328-2.92578,1.77734-4.60742,1.77734c-0.28125,0-0.55859-0.02344-0.80664-0.05273
				c-1.67383-0.11914-3.2334-0.93945-4.38184-2.13867c-1.15918-1.20312-1.90234-2.81445-1.90234-4.54492
				c0-0.08594,0.00684-0.17188,0.00684-0.25391c-1.56445-0.69727-3.23047-1.2793-4.89258-1.27344
				c-0.2334,0-0.4707,0.01953-0.70703,0.0293l0,0c-1.25586,0.13281-2.40723,0.91406-2.94922,2.03906l0,0l0,0
				c-0.85156,1.64844-1.02344,3.58008-1.03516,5.50586c4.74023,0.29688,9.52539,1.44336,13.73438,3.86328l0,0l0.05664,0.03711
				c0.06641,0.04883,0.23242,0.13281,0.35742,0.19922c0.28809-0.23242,0.58594-0.4668,0.93262-0.6875
				c1.29785-0.84375,2.80762-1.27148,4.30469-1.27148c0.6543,0,1.33594,0.08594,1.97949,0.25586l0,0l0.04102,0.00195
				c0.00684,0,0.00977,0,0.01465,0v0.00195c1.54492,0.39648,2.92871,1.28516,3.97363,2.46875
				C83.7168,48.33398,84.41602,49.8418,84.57227,51.48242L84.57227,51.48242z M70.56055,35.91211
				c0,0.07617,0,0.13672,0.00488,0.20117v0.00195v0.01758c0.04395,0.81836,0.41016,1.58984,0.99316,2.16211
				c0.61719,0.5625,1.38574,0.92188,2.19336,0.92188h0.03516h0.00293c0.05762,0.00195,0.12207,0.00195,0.17285,0.00195
				c0.81055,0,1.61426-0.34766,2.20703-0.91797c0.61719-0.56836,1.02148-1.33984,1.0332-2.16992l0.00195-0.01953l0,0
				c0.00488-0.0625,0.00488-0.12109,0.00488-0.18555c0-0.86133-0.37402-1.67188-1.00488-2.27734s-1.48438-0.98047-2.30371-0.98047
				c-0.27637,0-0.52637,0.03516-0.7998,0.11914h-0.00391l-0.00586,0.00195c-0.68555,0.17383-1.32324,0.59961-1.78613,1.15625
				C70.8457,34.51562,70.56055,35.19531,70.56055,35.91211z M35.45312,48.65625c-0.63086-0.29102-1.2793-0.5-1.93652-0.49805
				c-0.1123,0-0.22363,0.00391-0.33887,0.02539h-0.00977h-0.01953c-0.92773,0.02539-1.87305,0.43164-2.57129,1.07617
				c-0.71582,0.6582-1.18066,1.52734-1.21191,2.50195v0.00586v0.01953c-0.00293,0.06445-0.01953,0.14844-0.01953,0.21484
				c0,0.59961,0.19336,1.17578,0.50879,1.69922c0.21191,0.39648,0.52344,0.74805,0.86621,1.06055
				C31.81152,52.37695,33.51465,50.3457,35.45312,48.65625z M76.89453,60.33984c0-2.13086-0.78125-4.26562-2.00879-5.98242
				c-2.4834-3.45312-6.33789-5.69922-10.32129-6.94922l-0.04102-0.01953c-0.7627-0.23242-1.55078-0.44336-2.31836-0.61523
				c-2.34961-0.52148-4.72852-0.80078-7.13672-0.80078c-3.20703,0-6.41211,0.48047-9.49609,1.43359
				c-4.00195,1.26562-7.86328,3.49219-10.34277,6.94922v0.00195c-1.24707,1.74805-1.97363,3.88281-1.97363,6.02148
				c0,0.76758,0.0957,1.56445,0.29785,2.32227l0,0c0.45508,1.72266,1.3291,3.26367,2.47559,4.59766s2.53809,2.48242,4.00586,3.4043
				c0.32227,0.1875,0.6582,0.39453,0.98438,0.57617c4.2666,2.375,9.1875,3.41602,14.06641,3.41602
				c0.83105,0,1.64746-0.01367,2.49414-0.07031c4.90527-0.4043,9.82129-1.85352,13.83594-4.83008v-0.00391
				c1.27344-0.93164,2.43164-2.07617,3.35742-3.35352c0.93555-1.31055,1.61816-2.75391,1.91797-4.31836v-0.00391h0.00195
				C76.80469,61.53516,76.89453,60.94922,76.89453,60.33984z M80.76367,51.87695c0-0.51758-0.11914-1.03125-0.38672-1.51953
				l-0.00586-0.00195l-0.00391-0.00586c-0.34766-0.71289-0.87109-1.24414-1.54785-1.61328
				c-0.64746-0.37109-1.40527-0.56055-2.18652-0.56055c-0.69922,0-1.3877,0.16016-1.98535,0.47266
				c1.9248,1.69336,3.64844,3.72461,4.75195,6.11719c0.35059-0.3125,0.67285-0.67383,0.90137-1.10352
				C80.59375,53.11328,80.76367,52.48438,80.76367,51.87695z"/>
		</g>
	</g>
</g>
<g id="Layer_6">
</g>
<g id="Twitter_Logo_Silhouette_designed_by_Elegant_Themes_from_Flaticon.com">
</g>
</svg>
