<?xml version="1.0" encoding="utf-8"?>
<!-- Generator: Adobe Illustrator 16.0.0, SVG Export Plug-In . SVG Version: 6.00 Build 0)  -->
<!DOCTYPE svg PUBLIC "-//W3C//DTD SVG 1.1//EN" "http://www.w3.org/Graphics/SVG/1.1/DTD/svg11.dtd">
<svg version="1.1" xmlns="http://www.w3.org/2000/svg" xmlns:xlink="http://www.w3.org/1999/xlink" x="0px" y="0px"
	 width="110.10742px" height="107.63379px" viewBox="0 0 110.10742 107.63379" enable-background="new 0 0 110.10742 107.63379"
	 xml:space="preserve">
<g id="Layer_1">
</g>
<g id="social_market">
</g>
<g id="set2">
</g>
<g id="Layer_5">
	<g>
		<g>
			<path fill="#323031" d="M39.70996,8.12598c4.30273-1.69922,9.03125-1.34375,13.58008-1.49219
				c5.59082-0.17969,11.29199-0.53516,16.73828,0.98047c0-1.66797,0-3.33594,0-5.00586
				C66.7207,3.7959,63.2207,3.55566,59.76855,3.90137c-4.0752,0.4082-8.13867,0.88672-12.19336,1.4707
				c-8.45898,1.21875-16.68652,3.87695-25.09277,5.41797c-2.9043,0.5332-2.20117,5.19727,0.68945,5.09766
				c10.625-0.37305,21.23145-1.11914,31.86621-0.85352c5.50586,0.13672,11.06836,0.55469,16.52344,1.30469
				c3.96094,0.54297,8.80371,0.94336,12.33203,2.94336c0.20605-1.58203,0.41309-3.16406,0.61914-4.74414
				c-6.44043,1.24805-13.36328,0.87305-19.90332,1.40625c-6.55176,0.53711-13.07422,1.36133-19.62988,1.8418
				c-11.89746,0.86914-23.8291,1.33398-35.4502,4.25c-3.30859,0.83203-1.84863,5.52734,1.37988,5.00586
				c28.13867-4.55664,56.60156-0.16992,84.85938,0.43359c0-1.73047,0-3.46094,0-5.19141
				c-15.19336,1.50391-30.44531,2.07227-45.60938,3.92188c-15.79004,1.92578-31.42969,4.9043-47.2666,6.47461
				c0.22852,1.69727,0.45898,3.39648,0.68945,5.09766c7.36914-1.44727,15.12012-1.34766,22.59961-1.93945
				c8.75977-0.69141,17.53223-1.02734,26.31445-0.73047c16.4873,0.55664,32.90137,2.5,49.40723,2.93164
				c-0.23047-1.69922-0.45996-3.39844-0.68945-5.09766c-16.85938,2.38672-34.06641,2.14258-51.02148,3.70117
				c-16.1709,1.48633-32.31445,3.4043-48.16113,7.03516c-2.92969,0.67188-2.17188,5.02539,0.69043,5.09766
				c7.90137,0.19922,15.80957-1.72461,23.66602-2.43164c9.02246-0.8125,18.08398-1.14844,27.14062-1.28125
				c8.51855-0.125,17.00879,0.01367,25.51367,0.55078c8.53027,0.54102,18.16602,0.45508,26.26367,3.41016
				c0-1.66797,0-3.33594,0-5.00391c-3.76953,1.19141-7.68945,0.81055-11.58203,0.75977
				c-4.49512-0.05859-9.04004,0.32031-13.5293,0.52148c-9.13086,0.4082-18.26367,0.83203-27.39258,1.28906
				c-9.39062,0.47266-18.77051,1.18359-28.15039,1.83398c-7.57715,0.52344-15.47656,0.50781-22.79004,2.75195
				c-2.30664,0.70898-2.64648,4.48828,0,5.00586c3.48438,0.68164,6.83105,0.41797,10.34766,0.0918
				c4.45117-0.41211,8.99023-0.1875,13.45801-0.22656c9.62207-0.08398,19.24023-0.16992,28.86133,0.11914
				c9.51758,0.2832,19.02344,0.88281,28.53125,1.36133c3.72656,0.1875,7.40234,0.32617,11.12793,0.17383
				c3.85645-0.15625,8.4248-0.72266,12.03027,0.94531c0-1.49414,0-2.98828,0-4.48242
				c-5.94238,3.04102-14.58887,1.99219-21.125,2.57227c-9.20508,0.81641-18.42773,1.42773-27.6543,1.9668
				c-17.1709,1.00195-34.58105,1.8418-51.31738,6.10742c-2.80664,0.71484-2.26367,5.25977,0.68945,5.09766
				c18.01953-0.99219,35.9541-0.93555,53.97949-1.23242c7.09375-0.11523,14.18457-0.36328,21.28125-0.38672
				c3.2168-0.00977,6.43359,0.05859,9.64453,0.23633c2.82227,0.1543,10.38867-0.58789,11.8418,2.37695
				c0.51758-1.26953,1.03418-2.54102,1.55078-3.8125c-17.23828,6.56055-35.9541,2.00586-53.75879,3.99609
				c-7.30957,0.81445-14.61719,1.2832-21.94434,1.94336c-6.43066,0.58008-13.375,1.34375-19.02637,4.70312
				c-1.5293,0.9082-1.84863,3.66211,0,4.48242c9.69043,4.28906,23.59863,1.30859,33.59863,0.69141
				c8.83984-0.54883,17.7168-0.45117,26.57031-0.34375c7.87109,0.0957,17.35742-1.22656,24.87207,1.39648
				c-0.20605-1.58008-0.41309-3.16211-0.62012-4.74414c-4.48828,2.15039-12.23828,0.48633-17.10742,0.52734
				c-7.10938,0.06055-14.20898,0.36523-21.28906,0.99414c-12.84375,1.14453-25.50391,3.1875-38.13965,5.73047
				c-2.88281,0.58008-2.21484,5.2168,0.69141,5.09766c12.125-0.50391,24.30469-0.08398,36.44531-0.36914
				c9.48242-0.22461,19.52637-1.2832,28.9834-0.16016c-0.23145-1.69922-0.46094-3.39844-0.69043-5.09766
				c-8.11621,1.57422-16.48828,1.26562-24.68848,2.13672c-9.43555,1.00586-19.08008,2.26562-28.34375,4.34375
				c-2.85352,0.64062-2.23438,5.23828,0.69043,5.09766c16.03027-0.77734,32.35547-3.18555,48.35645-0.84375
				c-0.20703-1.58203-0.41406-3.16211-0.61914-4.74219c-11.58691,5.95117-26.45312,5.18945-38.98828,7.95703
				c-3.0293,0.66797-2.07324,4.86719,0.68945,5.09766c10.5791,0.87891,20.35742,4.91406,30.83203,0.9043
				c3.0918-1.18555,1.75-6.20508-1.38086-5.00586c-9.8916,3.78906-19.44141-0.25781-29.45117-1.08984
				c0.23047,1.69922,0.46094,3.39844,0.68945,5.09766c13.10938-2.89453,28.09473-2.24609,40.22852-8.48242
				c1.86914-0.96094,1.62305-4.41406-0.62109-4.74219c-16.52734-2.41797-33.17383-0.14453-49.73535,0.6582
				c0.22852,1.69922,0.45898,3.39844,0.68945,5.09766c9.68457-2.17188,19.7959-3.53906,29.68555-4.42188
				c7.78223-0.69531,15.64844-0.56445,23.34668-2.05664c3.11914-0.60742,1.97656-4.78125-0.68945-5.09766
				c-9.45703-1.12305-19.50098-0.06445-28.9834,0.16016c-12.14062,0.28516-24.32031-0.13477-36.44531,0.36719
				c0.22852,1.69922,0.45898,3.39844,0.68848,5.09766c14.0918-2.83594,28.21387-5.00977,42.56543-6.00195
				c7.08301-0.49219,14.19238-0.55469,21.29004-0.56445c4.78906-0.00781,9.43555,0.94141,13.91992-1.20703
				c2.18945-1.04883,1.30957-4.06836-0.62012-4.74414c-5.8291-2.0332-12.00977-1.35547-18.07129-1.45312
				c-8.86328-0.14453-17.72266-0.27148-26.58594-0.11133c-8.81836,0.16016-17.60742,1.03906-26.41406,1.47266
				c-3.71777,0.18359-9.2998,0.39062-12.72949-1.12891c0,1.49414,0,2.98828,0,4.48242
				c6.00586-3.57227,13.82227-3.82812,20.60742-4.34375c7.22949-0.54883,14.41504-1.37891,21.62988-1.97461
				c17.07129-1.41016,34.72461,2.48828,51.25195-3.80078c1.63574-0.62305,2.33594-2.20703,1.55078-3.8125
				c-2.69434-5.50586-11.22754-4.59766-16.32227-4.94922c-8.32031-0.57422-16.73047-0.17383-25.05859,0.02539
				c-19.97363,0.47656-39.87793,0.25977-59.84668,1.35742c0.23145,1.69922,0.46094,3.39844,0.69043,5.09766
				c17.56934-4.47852,35.86426-5.07422,53.88086-6.15625c9.22656-0.55273,18.44434-1.24414,27.64844-2.08594
				c6.64453-0.60938,13.68555,0.20508,19.80664-2.92578c1.64258-0.83984,1.74512-3.67383,0-4.48242
				c-5.41309-2.50391-11.57031-1.74609-17.36133-1.55078c-9.52734,0.32031-19.25195-0.86914-28.77148-1.31641
				c-10.2832-0.48047-20.5625-0.57227-30.85645-0.49609c-4.81445,0.03711-9.62891,0.08984-14.44434,0.10938
				c-4.65234,0.01953-9.5625,1.16602-14.16309,0.26562c0,1.66797,0,3.33789,0,5.00586
				c8.07715-2.48047,17.06934-2.26367,25.44531-2.84766c9.36621-0.6543,18.73145-1.31055,28.11035-1.74609
				c9.08789-0.42383,18.17676-0.875,27.26758-1.26758c7.24512-0.3125,15.64453,0.91211,22.62012-1.29688
				c2.5498-0.80664,2.38574-4.13281,0-5.00391c-7.40527-2.70312-15.91797-2.70703-23.70117-3.31445
				c-9.1748-0.7168-18.32715-0.91016-27.52637-0.85352c-9.05664,0.05664-18.1084,0.44336-27.13672,1.14062
				c-8.48145,0.65625-17.10254,2.80664-25.59766,2.59375c0.22949,1.69922,0.45996,3.39844,0.68945,5.09766
				c16.70898-3.83008,33.71582-5.67188,50.76465-7.21484c16.11426-1.45898,32.38281-1.25391,48.41699-3.52148
				c2.99414-0.42383,2.12109-5.02539-0.68945-5.09766c-17.18359-0.44922-34.27441-2.42188-51.44336-3
				c-8.76758-0.29688-17.55664,0.26758-26.29395,0.95898c-7.3125,0.57617-14.75,0.54688-21.96484,1.96289
				c-2.85352,0.56055-2.22461,5.38672,0.69141,5.09766c15.17773-1.50391,30.1875-4.2207,45.30176-6.22461
				c15.80176-2.09375,31.72461-2.60352,47.57422-4.16992c3.27246-0.32422,3.4043-5.11719,0-5.19141
				C66.9873,21.6709,38.19141,17.39551,9.5293,22.03613c0.46094,1.66992,0.91992,3.33789,1.37988,5.00586
				c12.33301-3.0957,25.04199-3.3457,37.6543-4.33984c6.69336-0.52734,13.3584-1.38281,20.05762-1.88086
				c5.73926-0.42773,11.61035-0.18164,17.27051-1.27734c2.25195-0.4375,2.47559-3.69336,0.62109-4.74414
				c-7.70898-4.36719-19.04199-4.28125-27.64844-4.76367c-11.9082-0.66797-23.79297,0.24219-35.69238,0.66016
				c0.23047,1.69922,0.45898,3.39844,0.68945,5.09766c8.41797-1.54297,16.6416-4.07617,25.09277-5.41797
				c4.21875-0.66797,8.48438-1.05078,12.73242-1.47656c3.3418-0.33594,6.50879-0.13281,9.7207-1.28516
				c2.33691-0.83789,2.60547-4.2793,0-5.00586c-5.39941-1.50195-11.00488-1.38867-16.55957-1.2168
				c-5.45801,0.16992-11.35156-0.30859-16.5166,1.72852C35.25391,4.33301,36.59277,9.35449,39.70996,8.12598L39.70996,8.12598z"/>
			<path fill="#323031" d="M39.70996,6.83105c4.30273-1.69922,9.03125-1.34375,13.58008-1.49219
				c5.59082-0.17969,11.29199-0.53516,16.73828,0.98047c0-1.66797,0-3.33594,0-5.00586
				c-3.30762,1.1875-6.80762,0.94727-10.25977,1.29297c-4.0752,0.4082-8.13867,0.88672-12.19336,1.4707
				C39.11621,5.2959,30.88867,7.9541,22.48242,9.49512c-2.9043,0.5332-2.20117,5.19727,0.68945,5.09766
				c10.625-0.37305,21.23145-1.11914,31.86621-0.85352c5.50586,0.13672,11.06836,0.55469,16.52344,1.30469
				c3.96094,0.54297,8.80371,0.94336,12.33203,2.94336c0.20605-1.58203,0.41309-3.16406,0.61914-4.74414
				c-6.44043,1.24805-13.36328,0.87305-19.90332,1.40625c-6.55176,0.53711-13.07422,1.36133-19.62988,1.8418
				c-11.89746,0.86914-23.8291,1.33398-35.4502,4.25c-3.30859,0.83203-1.84863,5.52734,1.37988,5.00586
				c28.13867-4.55664,56.60156-0.16992,84.85938,0.43359c0-1.73047,0-3.46094,0-5.19141
				c-15.19336,1.50391-30.44531,2.07227-45.60938,3.92188c-15.79004,1.92578-31.42969,4.9043-47.2666,6.47461
				c0.22852,1.69727,0.45898,3.39648,0.68945,5.09766c7.36914-1.44727,15.12012-1.34766,22.59961-1.93945
				c8.75977-0.69141,17.53223-1.02734,26.31445-0.73047c16.4873,0.55664,32.90137,2.5,49.40723,2.93164
				c-0.23047-1.69922-0.45996-3.39844-0.68945-5.09766c-16.85938,2.38672-34.06641,2.14258-51.02148,3.70117
				c-16.1709,1.48633-32.31445,3.4043-48.16113,7.03516c-2.92969,0.67188-2.17188,5.02539,0.69043,5.09766
				c7.90137,0.19922,15.80957-1.72461,23.66602-2.43164c9.02246-0.8125,18.08398-1.14844,27.14062-1.28125
				c8.51855-0.125,17.00879,0.01367,25.51367,0.55078c8.53027,0.54102,18.16602,0.45508,26.26367,3.41016
				c0-1.66797,0-3.33594,0-5.00391c-3.76953,1.19141-7.68945,0.81055-11.58203,0.75977
				c-4.49512-0.05859-9.04004,0.32031-13.5293,0.52148c-9.13086,0.4082-18.26367,0.83203-27.39258,1.28906
				c-9.39062,0.47266-18.77051,1.18359-28.15039,1.83398C17.07422,47.65332,9.1748,47.6377,1.86133,49.88184
				c-2.30664,0.70898-2.64648,4.48828,0,5.00586c3.48438,0.68164,6.83105,0.41797,10.34766,0.0918
				c4.45117-0.41211,8.99023-0.1875,13.45801-0.22656c9.62207-0.08398,19.24023-0.16992,28.86133,0.11914
				c9.51758,0.2832,19.02344,0.88281,28.53125,1.36133c3.72656,0.1875,7.40234,0.32617,11.12793,0.17383
				c3.85645-0.15625,8.4248-0.72266,12.03027,0.94531c0-1.49414,0-2.98828,0-4.48242
				c-5.94238,3.04102-14.58887,1.99219-21.125,2.57227c-9.20508,0.81641-18.42773,1.42773-27.6543,1.9668
				c-17.1709,1.00195-34.58105,1.8418-51.31738,6.10742c-2.80664,0.71484-2.26367,5.25977,0.68945,5.09766
				c18.01953-0.99219,35.9541-0.93555,53.97949-1.23242c7.09375-0.11523,14.18457-0.36328,21.28125-0.38672
				c3.2168-0.00977,6.43359,0.05859,9.64453,0.23633c2.82227,0.1543,10.38867-0.58789,11.8418,2.37695
				c0.51758-1.26953,1.03418-2.54102,1.55078-3.8125c-17.23828,6.56055-35.9541,2.00586-53.75879,3.99609
				c-7.30957,0.81445-14.61719,1.2832-21.94434,1.94336c-6.43066,0.58008-13.375,1.34375-19.02637,4.70312
				c-1.5293,0.9082-1.84863,3.66211,0,4.48242c9.69043,4.28906,23.59863,1.30859,33.59863,0.69141
				c8.83984-0.54883,17.7168-0.45117,26.57031-0.34375c7.87109,0.0957,17.35742-1.22656,24.87207,1.39648
				c-0.20605-1.58008-0.41309-3.16211-0.62012-4.74414c-4.48828,2.15039-12.23828,0.48633-17.10742,0.52734
				c-7.10938,0.06055-14.20898,0.36523-21.28906,0.99414c-12.84375,1.14453-25.50391,3.1875-38.13965,5.73047
				c-2.88281,0.58008-2.21484,5.2168,0.69141,5.09766c12.125-0.50391,24.30469-0.08398,36.44531-0.36914
				c9.48242-0.22461,19.52637-1.2832,28.9834-0.16016c-0.23145-1.69922-0.46094-3.39844-0.69043-5.09766
				c-8.11621,1.57422-16.48828,1.26562-24.68848,2.13672c-9.43555,1.00586-19.08008,2.26562-28.34375,4.34375
				c-2.85352,0.64062-2.23438,5.23828,0.69043,5.09766c16.03027-0.77734,32.35547-3.18555,48.35645-0.84375
				c-0.20703-1.58203-0.41406-3.16211-0.61914-4.74219c-11.58691,5.95117-26.45312,5.18945-38.98828,7.95703
				c-3.0293,0.66797-2.07324,4.86719,0.68945,5.09766c10.5791,0.87891,20.35742,4.91406,30.83203,0.9043
				c3.0918-1.18555,1.75-6.20508-1.38086-5.00586c-9.8916,3.78906-19.44141-0.25781-29.45117-1.08984
				c0.23047,1.69922,0.46094,3.39844,0.68945,5.09766c13.10938-2.89453,28.09473-2.24609,40.22852-8.48242
				c1.86914-0.96094,1.62305-4.41406-0.62109-4.74219c-16.52734-2.41797-33.17383-0.14453-49.73535,0.6582
				c0.22852,1.69922,0.45898,3.39844,0.68945,5.09766c9.68457-2.17188,19.7959-3.53906,29.68555-4.42188
				c7.78223-0.69531,15.64844-0.56445,23.34668-2.05664c3.11914-0.60742,1.97656-4.78125-0.68945-5.09766
				c-9.45703-1.12305-19.50098-0.06445-28.9834,0.16016c-12.14062,0.28516-24.32031-0.13477-36.44531,0.36719
				c0.22852,1.69922,0.45898,3.39844,0.68848,5.09766c14.0918-2.83594,28.21387-5.00977,42.56543-6.00195
				c7.08301-0.49219,14.19238-0.55469,21.29004-0.56445c4.78906-0.00781,9.43555,0.94141,13.91992-1.20703
				c2.18945-1.04883,1.30957-4.06836-0.62012-4.74414c-5.8291-2.0332-12.00977-1.35547-18.07129-1.45312
				c-8.86328-0.14453-17.72266-0.27148-26.58594-0.11133c-8.81836,0.16016-17.60742,1.03906-26.41406,1.47266
				c-3.71777,0.18359-9.2998,0.39062-12.72949-1.12891c0,1.49414,0,2.98828,0,4.48242
				c6.00586-3.57227,13.82227-3.82812,20.60742-4.34375c7.22949-0.54883,14.41504-1.37891,21.62988-1.97461
				c17.07129-1.41016,34.72461,2.48828,51.25195-3.80078c1.63574-0.62305,2.33594-2.20703,1.55078-3.8125
				c-2.69434-5.50586-11.22754-4.59766-16.32227-4.94922c-8.32031-0.57422-16.73047-0.17383-25.05859,0.02539
				C46.68359,62.54199,26.7793,62.3252,6.81055,63.42285c0.23145,1.69922,0.46094,3.39844,0.69043,5.09766
				c17.56934-4.47852,35.86426-5.07422,53.88086-6.15625c9.22656-0.55273,18.44434-1.24414,27.64844-2.08594
				c6.64453-0.60938,13.68555,0.20508,19.80664-2.92578c1.64258-0.83984,1.74512-3.67383,0-4.48242
				c-5.41309-2.50391-11.57031-1.74609-17.36133-1.55078c-9.52734,0.32031-19.25195-0.86914-28.77148-1.31641
				c-10.2832-0.48047-20.5625-0.57227-30.85645-0.49609c-4.81445,0.03711-9.62891,0.08984-14.44434,0.10938
				c-4.65234,0.01953-9.5625,1.16602-14.16309,0.26562c0,1.66797,0,3.33789,0,5.00586
				c8.07715-2.48047,17.06934-2.26367,25.44531-2.84766c9.36621-0.6543,18.73145-1.31055,28.11035-1.74609
				c9.08789-0.42383,18.17676-0.875,27.26758-1.26758c7.24512-0.3125,15.64453,0.91211,22.62012-1.29688
				c2.5498-0.80664,2.38574-4.13281,0-5.00391c-7.40527-2.70312-15.91797-2.70703-23.70117-3.31445
				c-9.1748-0.7168-18.32715-0.91016-27.52637-0.85352c-9.05664,0.05664-18.1084,0.44336-27.13672,1.14062
				c-8.48145,0.65625-17.10254,2.80664-25.59766,2.59375c0.22949,1.69922,0.45996,3.39844,0.68945,5.09766
				c16.70898-3.83008,33.71582-5.67188,50.76465-7.21484c16.11426-1.45898,32.38281-1.25391,48.41699-3.52148
				c2.99414-0.42383,2.12109-5.02539-0.68945-5.09766c-17.18359-0.44922-34.27441-2.42188-51.44336-3
				c-8.76758-0.29688-17.55664,0.26758-26.29395,0.95898c-7.3125,0.57617-14.75,0.54688-21.96484,1.96289
				c-2.85352,0.56055-2.22461,5.38672,0.69141,5.09766c15.17773-1.50391,30.1875-4.2207,45.30176-6.22461
				c15.80176-2.09375,31.72461-2.60352,47.57422-4.16992c3.27246-0.32422,3.4043-5.11719,0-5.19141
				C66.9873,20.37598,38.19141,16.10059,9.5293,20.74121c0.46094,1.66992,0.91992,3.33789,1.37988,5.00586
				c12.33301-3.0957,25.04199-3.3457,37.6543-4.33984c6.69336-0.52734,13.3584-1.38281,20.05762-1.88086
				c5.73926-0.42773,11.61035-0.18164,17.27051-1.27734c2.25195-0.4375,2.47559-3.69336,0.62109-4.74414
				C78.80371,9.1377,67.4707,9.22363,58.86426,8.74121C46.95605,8.07324,35.07129,8.9834,23.17188,9.40137
				c0.23047,1.69922,0.45898,3.39844,0.68945,5.09766c8.41797-1.54297,16.6416-4.07617,25.09277-5.41797
				c4.21875-0.66797,8.48438-1.05078,12.73242-1.47656c3.3418-0.33594,6.50879-0.13281,9.7207-1.28516
				c2.33691-0.83789,2.60547-4.2793,0-5.00586c-5.39941-1.50195-11.00488-1.38867-16.55957-1.2168
				C49.38965,0.2666,43.49609-0.21191,38.33105,1.8252C35.25391,3.03809,36.59277,8.05957,39.70996,6.83105L39.70996,6.83105z"/>
		</g>
		<g>
			<path fill="#FFFFFF" d="M50.83105,55.56934c0,0,1.44141-4.0625-1.96387-3.93164h-7.0752c0,0-3.40625-0.39258-3.66797-3.92969
				c0,0-0.78613-4.32227,3.40625-4.45508h34.98047c-0.54102-1.16016-1.44141-1.44141-1.44141-1.44141L56.46582,30.80762
				c-3.0127-2.22852-5.24023-0.26172-5.24023-0.26172L32.62109,41.5498c-1.69922,0.91016-1.43945,3.14453-1.43945,3.14453v21.61719
				c-0.39453,1.83594,1.30859,2.88281,1.30859,2.88281l8.87402,5.3125L50.83105,55.56934z"/>
			<path fill="#FFFFFF" d="M66.03027,51.77051c0,0-4.06055-0.00195-6.1582,4.19141
				c-1.72363,3.44727-8.93555,17.78125-11.44531,22.77148l2.01367,1.20312c2.61914,2.22852,5.63281,0.39453,5.63281,0.39453
				l18.47266-11.5293c1.96582-1.44141,2.35742-2.75195,2.35742-2.75195s0.05859-8.05469,0.05859-14.2793H66.03027z"/>
		</g>
	</g>
</g>
<g id="Layer_6">
</g>
<g id="Twitter_Logo_Silhouette_designed_by_Elegant_Themes_from_Flaticon.com">
</g>
</svg>
