<?xml version="1.0" encoding="utf-8"?>
<!-- Generator: Adobe Illustrator 16.0.0, SVG Export Plug-In . SVG Version: 6.00 Build 0)  -->
<!DOCTYPE svg PUBLIC "-//W3C//DTD SVG 1.1//EN" "http://www.w3.org/Graphics/SVG/1.1/DTD/svg11.dtd">
<svg version="1.1" xmlns="http://www.w3.org/2000/svg" xmlns:xlink="http://www.w3.org/1999/xlink" x="0px" y="0px"
	 width="110.10742px" height="107.63379px" viewBox="0 0 110.10742 107.63379" enable-background="new 0 0 110.10742 107.63379"
	 xml:space="preserve">
<g id="Layer_1">
</g>
<g id="social_market">
</g>
<g id="set2">
</g>
<g id="Layer_5">
	<g>
		<g>
			<path fill="#284964" d="M39.71094,8.28516c4.30273-1.69629,9.03223-1.3418,13.58008-1.49023
				c5.59082-0.17969,11.29102-0.53516,16.73828,0.97949c0-1.66699,0-3.33594,0-5.00293
				C66.7207,3.95703,63.2207,3.71582,59.76953,4.0625c-4.07617,0.4082-8.13965,0.88672-12.19336,1.4707
				c-8.45898,1.21973-16.68652,3.87598-25.09375,5.41797c-2.9043,0.53125-2.2002,5.19824,0.69043,5.09668
				c10.62305-0.37305,21.22949-1.11914,31.86719-0.85352c5.50684,0.1377,11.06738,0.55664,16.52246,1.30469
				c3.96094,0.54199,8.80371,0.94336,12.33105,2.94238c0.20703-1.58008,0.41309-3.16113,0.61914-4.74121
				c-6.43848,1.24609-13.36426,0.87109-19.90332,1.40527c-6.55078,0.53613-13.07422,1.36133-19.62988,1.84082
				c-11.89551,0.87012-23.82715,1.33496-35.44922,4.25293c-3.30957,0.83008-1.85059,5.52637,1.37988,5.00293
				c28.13867-4.55566,56.60156-0.16797,84.85938,0.43359c0-1.73047,0-3.45898,0-5.18945
				c-15.19336,1.50195-30.44531,2.06934-45.60938,3.9209c-15.79102,1.92676-31.43164,4.90527-47.26855,6.47363
				c0.23145,1.69922,0.45996,3.39844,0.69043,5.09766c7.37012-1.44727,15.12109-1.34668,22.60156-1.9375
				c8.75781-0.69238,17.5293-1.02832,26.31445-0.73145c16.48633,0.55664,32.90039,2.5,49.40625,2.93164
				c-0.23047-1.69922-0.45898-3.39746-0.69043-5.09766c-16.85645,2.38672-34.06543,2.1416-51.02051,3.70117
				c-16.17188,1.48535-32.31348,3.4043-48.16113,7.03516c-2.92871,0.67285-2.17285,5.02637,0.68945,5.09766
				c7.90234,0.19922,15.81055-1.72461,23.66699-2.43164c9.02148-0.81152,18.08398-1.14941,27.13867-1.28223
				c8.51953-0.12402,17.00977,0.01465,25.51367,0.55273c8.53223,0.53906,18.16895,0.4541,26.26367,3.41016
				c0-1.66895,0-3.33691,0-5.00586c-3.7666,1.19336-7.6875,0.8125-11.58008,0.76074
				c-4.49512-0.05957-9.04102,0.32031-13.5293,0.52148c-9.13086,0.4082-18.26367,0.83203-27.3916,1.28906
				c-9.3916,0.47168-18.77051,1.18555-28.15137,1.83398c-7.57812,0.52441-15.47656,0.50684-22.79102,2.75293
				c-2.30664,0.70801-2.64453,4.48633,0,5.00391c3.48535,0.68164,6.83008,0.41797,10.34766,0.09277
				c4.45215-0.41113,8.99121-0.18848,13.45898-0.22656c9.62207-0.08301,19.24023-0.1709,28.86133,0.11719
				c9.51562,0.28613,19.02148,0.88477,28.53125,1.36328c3.72656,0.1875,7.40039,0.32617,11.12891,0.1748
				c3.85449-0.15723,8.42383-0.72363,12.0293,0.94336c0-1.49316,0-2.9873,0-4.48047
				c-5.94336,3.03906-14.58984,1.99219-21.12598,2.57227c-9.20508,0.81543-18.42871,1.42578-27.65234,1.96484
				c-17.17285,1.00391-34.58301,1.8418-51.31738,6.1084c-2.80859,0.71582-2.26562,5.25879,0.68945,5.09668
				c18.01758-0.99023,35.95215-0.93457,53.97852-1.23047c7.09375-0.11621,14.18555-0.36426,21.28125-0.38867
				c3.2168-0.00977,6.43262,0.05957,9.64551,0.23633c2.82227,0.15527,10.3877-0.58789,11.83984,2.37793
				c0.5166-1.27051,1.03418-2.54102,1.55078-3.81055c-17.23633,6.55859-35.9541,2.00391-53.75781,3.99316
				c-7.31055,0.81738-14.61719,1.28418-21.94629,1.94434c-6.42969,0.58008-13.37305,1.34277-19.02539,4.70312
				c-1.5293,0.9082-1.84961,3.66211,0,4.48047c9.69141,4.29199,23.59961,1.30957,33.59766,0.69141
				c8.8418-0.54492,17.71875-0.4502,26.57129-0.3418c7.87305,0.0957,17.3584-1.22754,24.87207,1.39648
				c-0.20703-1.58105-0.41211-3.16211-0.61914-4.74219c-4.48828,2.14746-12.24023,0.48438-17.10742,0.52637
				c-7.10938,0.06055-14.20898,0.36328-21.29102,0.99414c-12.84082,1.14453-25.50391,3.18652-38.1377,5.72852
				c-2.88379,0.58105-2.21387,5.21875,0.68945,5.09766c12.12793-0.50293,24.30566-0.08301,36.44629-0.36816
				c9.48438-0.22461,19.52734-1.28223,28.98242-0.16016c-0.22852-1.69922-0.45898-3.39844-0.68945-5.09766
				c-8.11523,1.5752-16.4873,1.26465-24.6875,2.1377c-9.43555,1.00391-19.08203,2.26562-28.34375,4.34277
				c-2.85352,0.63965-2.23438,5.23926,0.68945,5.09668c16.03125-0.77734,32.35742-3.18555,48.35645-0.84277
				c-0.20605-1.58105-0.41309-3.16309-0.62012-4.74414c-11.58594,5.95312-26.4502,5.19043-38.98633,7.95898
				c-3.0293,0.66797-2.07422,4.86816,0.68945,5.09668c10.57812,0.87793,20.35742,4.91602,30.83008,0.9043
				c3.09277-1.18457,1.75195-6.2041-1.37891-5.00488c-9.89062,3.78906-19.44141-0.25781-29.45117-1.08887
				c0.23047,1.69824,0.45898,3.39746,0.69043,5.09668c13.10645-2.89453,28.09277-2.24609,40.22559-8.48047
				c1.87109-0.96191,1.62402-4.41504-0.61914-4.74414c-16.52734-2.41797-33.17383-0.14355-49.73633,0.65918
				c0.23047,1.69922,0.45898,3.39746,0.68945,5.09668c9.68555-2.1709,19.79688-3.54004,29.68555-4.42285
				c7.7832-0.69531,15.64941-0.56348,23.34668-2.05664c3.11914-0.60645,1.97754-4.78125-0.69043-5.09766
				c-9.45508-1.12207-19.49805-0.06348-28.98242,0.16016c-12.14062,0.28613-24.31836-0.13477-36.44629,0.36914
				c0.23145,1.69922,0.45996,3.39746,0.69043,5.09766c14.09277-2.83594,28.21484-5.01074,42.56445-6.00391
				C69.29199,85.13965,76.4043,85.07617,83.5,85.06641c4.78906-0.00684,9.43457,0.94043,13.91992-1.20703
				c2.19043-1.04883,1.31055-4.06934-0.61914-4.74219c-5.8291-2.03516-12.01172-1.35742-18.07227-1.45508
				c-8.86328-0.14453-17.72266-0.27246-26.58594-0.11133c-8.81836,0.16016-17.60742,1.03809-26.41504,1.47363
				c-3.71777,0.18262-9.29785,0.38867-12.72949-1.12988c0,1.49316,0,2.9873,0,4.48047
				c6.00684-3.57031,13.82227-3.8252,20.60938-4.34082c7.22852-0.54883,14.41309-1.37891,21.62891-1.97559
				c17.07129-1.40918,34.72461,2.48926,51.25195-3.80176c1.63672-0.62207,2.33594-2.20703,1.55078-3.81152
				c-2.69531-5.50488-11.22656-4.59668-16.32129-4.94824c-8.32129-0.57617-16.73145-0.1748-25.06055,0.02441
				c-19.97168,0.47656-39.87793,0.26074-59.84473,1.3584c0.22852,1.69824,0.45898,3.39746,0.68945,5.09668
				c17.56836-4.47852,35.86328-5.07324,53.88086-6.15527c9.22656-0.55469,18.44336-1.24512,27.64844-2.08691
				c6.64453-0.6084,13.68555,0.2041,19.80664-2.92676c1.64258-0.83887,1.74609-3.67188,0-4.48047
				c-5.41309-2.50586-11.56934-1.74609-17.36133-1.55273c-9.52832,0.32031-19.25195-0.86914-28.77148-1.31445
				c-10.28418-0.48145-20.5625-0.5752-30.85547-0.49707C27.03516,51,22.2207,51.05371,17.40527,51.07227
				C12.75,51.09082,7.83984,52.2373,3.24219,51.33887c0,1.66797,0,3.33594,0,5.00391
				c8.07715-2.47949,17.06836-2.2627,25.44531-2.84766c9.36523-0.65234,18.73047-1.30957,28.10938-1.74512
				c9.08789-0.42285,18.17676-0.875,27.26758-1.26758c7.24609-0.3125,15.64453,0.91211,22.62109-1.2959
				c2.55078-0.80859,2.38672-4.13379,0-5.00586c-7.40625-2.70215-15.91992-2.70605-23.70117-3.31348
				c-9.17578-0.7168-18.3291-0.90918-27.52734-0.85254c-9.05664,0.05469-18.1084,0.44238-27.13672,1.14062
				c-8.48242,0.65527-17.10254,2.80664-25.59863,2.59277c0.23145,1.69922,0.45996,3.39746,0.69043,5.09766
				c16.70898-3.83008,33.7168-5.67188,50.76367-7.21484c16.11523-1.45898,32.38477-1.25293,48.41797-3.52148
				c2.99316-0.42383,2.12012-5.02441-0.68945-5.09766c-17.18457-0.44922-34.27539-2.4209-51.44141-3.00098
				c-8.77051-0.2959-17.55859,0.26855-26.29688,0.95898c-7.3125,0.57812-14.75,0.54785-21.96289,1.96387
				c-2.85547,0.56055-2.22656,5.38672,0.68848,5.09766c15.17871-1.50488,30.19043-4.2207,45.30371-6.22363
				c15.80078-2.09473,31.72363-2.60449,47.57422-4.17188c3.27344-0.32324,3.4043-5.11621,0-5.18945
				c-28.78125-0.61328-57.57812-4.88867-86.23926-0.24707c0.45898,1.66699,0.91895,3.33594,1.37988,5.00293
				c12.33203-3.09473,25.04199-3.34375,37.6543-4.33887c6.69336-0.52734,13.3584-1.38184,20.05664-1.88086
				c5.73926-0.42676,11.61035-0.18164,17.27246-1.2793c2.25098-0.43555,2.47559-3.69043,0.61914-4.74219
				c-7.70605-4.36719-19.04102-4.28125-27.64746-4.76367c-11.9082-0.66797-23.79297,0.24219-35.69238,0.66113
				c0.22949,1.69824,0.45996,3.39746,0.68945,5.09668c8.41895-1.54297,16.6416-4.0752,25.09375-5.41699
				c4.2168-0.66895,8.4834-1.05273,12.72949-1.47852c3.34277-0.33496,6.50977-0.13281,9.72266-1.28516
				c2.33789-0.83691,2.60547-4.2793,0-5.00293C66.00977,1.26855,60.4043,1.38086,54.84766,1.55273
				c-5.45703,0.16895-11.35156-0.30957-16.5166,1.72949C35.25586,4.49414,36.59375,9.51562,39.71094,8.28516L39.71094,8.28516z"/>
			<path fill="#284964" d="M39.71094,6.66699c4.30273-1.69629,9.03223-1.3418,13.58008-1.49023
				C58.88184,4.99707,64.58203,4.6416,70.0293,6.15625c0-1.66699,0-3.33594,0-5.00293
				C66.7207,2.33887,63.2207,2.09766,59.76953,2.44434c-4.07617,0.4082-8.13965,0.88672-12.19336,1.4707
				c-8.45898,1.21973-16.68652,3.87598-25.09375,5.41797c-2.9043,0.53125-2.2002,5.19824,0.69043,5.09668
				c10.62305-0.37305,21.22949-1.11914,31.86719-0.85352c5.50684,0.1377,11.06738,0.55664,16.52246,1.30469
				c3.96094,0.54199,8.80371,0.94336,12.33105,2.94238c0.20703-1.58008,0.41309-3.16113,0.61914-4.74121
				c-6.43848,1.24609-13.36426,0.87109-19.90332,1.40527c-6.55078,0.53613-13.07422,1.36133-19.62988,1.84082
				c-11.89551,0.87012-23.82715,1.33496-35.44922,4.25293c-3.30957,0.83008-1.85059,5.52637,1.37988,5.00293
				c28.13867-4.55566,56.60156-0.16797,84.85938,0.43359c0-1.73047,0-3.45898,0-5.18945
				c-15.19336,1.50195-30.44531,2.06934-45.60938,3.9209C34.36914,26.67578,18.72852,29.6543,2.8916,31.22266
				c0.23145,1.69922,0.45996,3.39844,0.69043,5.09766c7.37012-1.44727,15.12109-1.34668,22.60156-1.9375
				c8.75781-0.69238,17.5293-1.02832,26.31445-0.73145c16.48633,0.55664,32.90039,2.5,49.40625,2.93164
				c-0.23047-1.69922-0.45898-3.39746-0.69043-5.09766c-16.85645,2.38672-34.06543,2.1416-51.02051,3.70117
				c-16.17188,1.48535-32.31348,3.4043-48.16113,7.03516c-2.92871,0.67285-2.17285,5.02637,0.68945,5.09766
				c7.90234,0.19922,15.81055-1.72461,23.66699-2.43164c9.02148-0.81152,18.08398-1.14941,27.13867-1.28223
				c8.51953-0.12402,17.00977,0.01465,25.51367,0.55273c8.53223,0.53906,18.16895,0.4541,26.26367,3.41016
				c0-1.66895,0-3.33691,0-5.00586c-3.7666,1.19336-7.6875,0.8125-11.58008,0.76074
				c-4.49512-0.05957-9.04102,0.32031-13.5293,0.52148c-9.13086,0.4082-18.26367,0.83203-27.3916,1.28906
				c-9.3916,0.47168-18.77051,1.18555-28.15137,1.83398c-7.57812,0.52441-15.47656,0.50684-22.79102,2.75293
				c-2.30664,0.70801-2.64453,4.48633,0,5.00391c3.48535,0.68164,6.83008,0.41797,10.34766,0.09277
				c4.45215-0.41113,8.99121-0.18848,13.45898-0.22656c9.62207-0.08301,19.24023-0.1709,28.86133,0.11719
				c9.51562,0.28613,19.02148,0.88477,28.53125,1.36328c3.72656,0.1875,7.40039,0.32617,11.12891,0.1748
				c3.85449-0.15723,8.42383-0.72363,12.0293,0.94336c0-1.49316,0-2.9873,0-4.48047
				c-5.94336,3.03906-14.58984,1.99219-21.12598,2.57227c-9.20508,0.81543-18.42871,1.42578-27.65234,1.96484
				c-17.17285,1.00391-34.58301,1.8418-51.31738,6.1084c-2.80859,0.71582-2.26562,5.25879,0.68945,5.09668
				c18.01758-0.99023,35.95215-0.93457,53.97852-1.23047c7.09375-0.11621,14.18555-0.36426,21.28125-0.38867
				c3.2168-0.00977,6.43262,0.05957,9.64551,0.23633c2.82227,0.15527,10.3877-0.58789,11.83984,2.37793
				c0.5166-1.27051,1.03418-2.54102,1.55078-3.81055c-17.23633,6.55859-35.9541,2.00391-53.75781,3.99316
				c-7.31055,0.81738-14.61719,1.28418-21.94629,1.94434c-6.42969,0.58008-13.37305,1.34277-19.02539,4.70312
				c-1.5293,0.9082-1.84961,3.66211,0,4.48047c9.69141,4.29199,23.59961,1.30957,33.59766,0.69141
				c8.8418-0.54492,17.71875-0.4502,26.57129-0.3418c7.87305,0.0957,17.3584-1.22754,24.87207,1.39648
				c-0.20703-1.58105-0.41211-3.16211-0.61914-4.74219c-4.48828,2.14746-12.24023,0.48438-17.10742,0.52637
				c-7.10938,0.06055-14.20898,0.36328-21.29102,0.99414c-12.84082,1.14453-25.50391,3.18652-38.1377,5.72852
				c-2.88379,0.58105-2.21387,5.21875,0.68945,5.09766c12.12793-0.50293,24.30566-0.08301,36.44629-0.36816
				c9.48438-0.22461,19.52734-1.28223,28.98242-0.16016c-0.22852-1.69922-0.45898-3.39844-0.68945-5.09766
				c-8.11523,1.5752-16.4873,1.26465-24.6875,2.1377c-9.43555,1.00391-19.08203,2.26562-28.34375,4.34277
				c-2.85352,0.63965-2.23438,5.23926,0.68945,5.09668c16.03125-0.77734,32.35742-3.18555,48.35645-0.84277
				c-0.20605-1.58105-0.41309-3.16309-0.62012-4.74414c-11.58594,5.95312-26.4502,5.19043-38.98633,7.95898
				c-3.0293,0.66797-2.07422,4.86816,0.68945,5.09668c10.57812,0.87793,20.35742,4.91602,30.83008,0.9043
				c3.09277-1.18457,1.75195-6.2041-1.37891-5.00488c-9.89062,3.78906-19.44141-0.25781-29.45117-1.08887
				c0.23047,1.69824,0.45898,3.39746,0.69043,5.09668c13.10645-2.89453,28.09277-2.24609,40.22559-8.48047
				c1.87109-0.96191,1.62402-4.41504-0.61914-4.74414c-16.52734-2.41797-33.17383-0.14355-49.73633,0.65918
				c0.23047,1.69922,0.45898,3.39746,0.68945,5.09668c9.68555-2.1709,19.79688-3.54004,29.68555-4.42285
				c7.7832-0.69531,15.64941-0.56348,23.34668-2.05664c3.11914-0.60645,1.97754-4.78125-0.69043-5.09766
				c-9.45508-1.12207-19.49805-0.06348-28.98242,0.16016c-12.14062,0.28613-24.31836-0.13477-36.44629,0.36914
				c0.23145,1.69922,0.45996,3.39746,0.69043,5.09766c14.09277-2.83594,28.21484-5.01074,42.56445-6.00391
				C69.29199,83.52148,76.4043,83.45801,83.5,83.44824c4.78906-0.00684,9.43457,0.94043,13.91992-1.20703
				c2.19043-1.04883,1.31055-4.06934-0.61914-4.74219c-5.8291-2.03516-12.01172-1.35742-18.07227-1.45508
				c-8.86328-0.14453-17.72266-0.27246-26.58594-0.11133c-8.81836,0.16016-17.60742,1.03809-26.41504,1.47363
				c-3.71777,0.18262-9.29785,0.38867-12.72949-1.12988c0,1.49316,0,2.9873,0,4.48047
				c6.00684-3.57031,13.82227-3.8252,20.60938-4.34082c7.22852-0.54883,14.41309-1.37891,21.62891-1.97559
				c17.07129-1.40918,34.72461,2.48926,51.25195-3.80176c1.63672-0.62207,2.33594-2.20703,1.55078-3.81152
				c-2.69531-5.50488-11.22656-4.59668-16.32129-4.94824c-8.32129-0.57617-16.73145-0.1748-25.06055,0.02441
				c-19.97168,0.47656-39.87793,0.26074-59.84473,1.3584c0.22852,1.69824,0.45898,3.39746,0.68945,5.09668
				c17.56836-4.47852,35.86328-5.07324,53.88086-6.15527c9.22656-0.55469,18.44336-1.24512,27.64844-2.08691
				c6.64453-0.6084,13.68555,0.2041,19.80664-2.92676c1.64258-0.83887,1.74609-3.67188,0-4.48047
				c-5.41309-2.50586-11.56934-1.74609-17.36133-1.55273c-9.52832,0.32031-19.25195-0.86914-28.77148-1.31445
				c-10.28418-0.48145-20.5625-0.5752-30.85547-0.49707c-4.81445,0.03711-9.62891,0.09082-14.44434,0.10938
				C12.75,49.47266,7.83984,50.61914,3.24219,49.7207c0,1.66797,0,3.33594,0,5.00391
				c8.07715-2.47949,17.06836-2.2627,25.44531-2.84766c9.36523-0.65234,18.73047-1.30957,28.10938-1.74512
				c9.08789-0.42285,18.17676-0.875,27.26758-1.26758c7.24609-0.3125,15.64453,0.91211,22.62109-1.2959
				c2.55078-0.80859,2.38672-4.13379,0-5.00586c-7.40625-2.70215-15.91992-2.70605-23.70117-3.31348
				c-9.17578-0.7168-18.3291-0.90918-27.52734-0.85254c-9.05664,0.05469-18.1084,0.44238-27.13672,1.14062
				c-8.48242,0.65527-17.10254,2.80664-25.59863,2.59277c0.23145,1.69922,0.45996,3.39746,0.69043,5.09766
				c16.70898-3.83008,33.7168-5.67188,50.76367-7.21484c16.11523-1.45898,32.38477-1.25293,48.41797-3.52148
				c2.99316-0.42383,2.12012-5.02441-0.68945-5.09766c-17.18457-0.44922-34.27539-2.4209-51.44141-3.00098
				c-8.77051-0.2959-17.55859,0.26855-26.29688,0.95898c-7.3125,0.57812-14.75,0.54785-21.96289,1.96387
				c-2.85547,0.56055-2.22656,5.38672,0.68848,5.09766c15.17871-1.50488,30.19043-4.2207,45.30371-6.22363
				c15.80078-2.09473,31.72363-2.60449,47.57422-4.17188c3.27344-0.32324,3.4043-5.11621,0-5.18945
				c-28.78125-0.61328-57.57812-4.88867-86.23926-0.24707c0.45898,1.66699,0.91895,3.33594,1.37988,5.00293
				c12.33203-3.09473,25.04199-3.34375,37.6543-4.33887c6.69336-0.52734,13.3584-1.38184,20.05664-1.88086
				c5.73926-0.42676,11.61035-0.18164,17.27246-1.2793c2.25098-0.43555,2.47559-3.69043,0.61914-4.74219
				C78.80664,8.97559,67.47168,9.06152,58.86523,8.5791c-11.9082-0.66797-23.79297,0.24219-35.69238,0.66113
				c0.22949,1.69824,0.45996,3.39746,0.68945,5.09668c8.41895-1.54297,16.6416-4.0752,25.09375-5.41699
				c4.2168-0.66895,8.4834-1.05273,12.72949-1.47852c3.34277-0.33496,6.50977-0.13281,9.72266-1.28516
				c2.33789-0.83691,2.60547-4.2793,0-5.00293C66.00977-0.34961,60.4043-0.2373,54.84766-0.06543
				C49.39062,0.10352,43.49609-0.375,38.33105,1.66406C35.25586,2.87598,36.59375,7.89746,39.71094,6.66699L39.71094,6.66699z"/>
		</g>
		<path fill="#F1F1F8" d="M34.18555,39.08691c0,0,11.07227-3.80078,11.73242-15.86328h7.27148v14.21094h14.54102v9.08887H53.35352
			v17.18555c0,0-0.49414,11.89746,15.53516,4.46094v9.08887c0,0-25.11719,7.60156-27.10156-6.77539V46.6875h-7.43555
			L34.18555,39.08691z"/>
	</g>
</g>
<g id="Layer_6">
</g>
<g id="Twitter_Logo_Silhouette_designed_by_Elegant_Themes_from_Flaticon.com">
</g>
</svg>
