<?xml version="1.0" encoding="utf-8"?>
<!-- Generator: Adobe Illustrator 16.0.0, SVG Export Plug-In . SVG Version: 6.00 Build 0)  -->
<!DOCTYPE svg PUBLIC "-//W3C//DTD SVG 1.1//EN" "http://www.w3.org/Graphics/SVG/1.1/DTD/svg11.dtd">
<svg version="1.1" xmlns="http://www.w3.org/2000/svg" xmlns:xlink="http://www.w3.org/1999/xlink" x="0px" y="0px"
	 width="110.10742px" height="107.63379px" viewBox="0 0 110.10742 107.63379" enable-background="new 0 0 110.10742 107.63379"
	 xml:space="preserve">
<g id="Layer_1">
</g>
<g id="social_market">
</g>
<g id="set2">
</g>
<g id="Layer_5">
	<g>
		<g>
			<path fill="#0098BA" d="M39.70801,8.46777c4.30371-1.69727,9.0332-1.34375,13.58105-1.49121
				c5.59082-0.18066,11.29199-0.53516,16.7373,0.98047c0-1.66895,0-3.33691,0-5.00488
				c-3.30664,1.18555-6.80762,0.94531-10.25879,1.29102c-4.07617,0.40918-8.13965,0.8877-12.19336,1.47168
				c-8.45996,1.21973-16.68652,3.87598-25.09375,5.41699c-2.90332,0.5332-2.2002,5.19922,0.69043,5.09766
				c10.62402-0.37305,21.23047-1.11914,31.86621-0.85352c5.50684,0.1377,11.06836,0.55664,16.52441,1.30469
				c3.95996,0.54297,8.80176,0.94434,12.3291,2.94336c0.20703-1.58203,0.41406-3.16211,0.62109-4.74414
				c-6.44043,1.24805-13.36426,0.87305-19.9043,1.40723c-6.5498,0.53613-13.07422,1.36133-19.62988,1.84082
				c-11.89648,0.86914-23.82812,1.33496-35.4502,4.25098c-3.30859,0.83105-1.84863,5.52832,1.38086,5.00488
				c28.13867-4.55566,56.60254-0.16797,84.8584,0.43359c0-1.73047,0-3.45898,0-5.18945
				c-15.19238,1.50195-30.44531,2.07031-45.6084,3.91992c-15.79004,1.92773-31.43066,4.90527-47.26758,6.47461
				c0.22949,1.69922,0.45996,3.39746,0.68945,5.09766c7.37012-1.44727,15.12109-1.34766,22.60059-1.9375
				c8.75977-0.69336,17.53125-1.0293,26.31445-0.73145c16.4873,0.55566,32.90137,2.49902,49.40625,2.93066
				c-0.22852-1.69824-0.45898-3.39648-0.68945-5.09766c-16.85742,2.38672-34.06641,2.14258-51.02051,3.70117
				c-16.17188,1.48633-32.31445,3.40527-48.16113,7.03613c-2.92871,0.67188-2.17285,5.02637,0.68945,5.09766
				c7.90234,0.19824,15.81152-1.72559,23.66699-2.43164c9.02148-0.81152,18.08496-1.14844,27.13965-1.28223
				c8.51855-0.125,17.00879,0.01367,25.51367,0.55273c8.53027,0.53906,18.16797,0.45508,26.26367,3.41016
				c0-1.66992,0-3.33789,0-5.00586c-3.7666,1.19336-7.6875,0.81152-11.58203,0.75977
				c-4.49512-0.05859-9.04004,0.32227-13.52832,0.52246c-9.13086,0.4082-18.26367,0.83203-27.3916,1.28906
				c-9.3916,0.47168-18.77148,1.18457-28.15234,1.83398c-7.57617,0.52441-15.47559,0.50684-22.78906,2.75195
				c-2.30664,0.70801-2.64648,4.4873,0,5.00488c3.48535,0.68164,6.83008,0.41797,10.34766,0.09277
				c4.45215-0.41113,8.99121-0.18848,13.45801-0.22754c9.62305-0.08203,19.24121-0.16992,28.86133,0.11914
				c9.5166,0.28516,19.02246,0.88379,28.53027,1.3623c3.72656,0.1875,7.40234,0.32617,11.12891,0.1748
				c3.85547-0.1582,8.4248-0.72461,12.0293,0.94434c0-1.49414,0-2.98828,0-4.48242
				c-5.94238,3.04004-14.58887,1.99316-21.125,2.57324c-9.2041,0.81543-18.42773,1.42578-27.65332,1.96484
				c-17.17188,1.00391-34.58203,1.8418-51.31738,6.10742c-2.80859,0.71484-2.26465,5.25977,0.69043,5.09766
				c18.01758-0.99023,35.95312-0.93555,53.97852-1.23047c7.09473-0.11719,14.18457-0.36426,21.28125-0.38867
				c3.21777-0.00977,6.43262,0.05859,9.64648,0.23633c2.82129,0.1543,10.3877-0.58789,11.83887,2.37793
				c0.51758-1.27051,1.03418-2.54102,1.55078-3.8125c-17.23535,6.56055-35.9541,2.00488-53.75781,3.99512
				c-7.31055,0.81641-14.61719,1.28418-21.94531,1.94336c-6.43066,0.58008-13.37402,1.34375-19.02637,4.70312
				c-1.52832,0.90918-1.84863,3.66309,0,4.48242c9.69141,4.29102,23.59961,1.30859,33.59863,0.69141
				c8.84082-0.54785,17.71875-0.45117,26.56934-0.34277c7.87305,0.09473,17.36035-1.22656,24.87305,1.39648
				c-0.20605-1.58105-0.41309-3.16309-0.62012-4.74316c-4.4873,2.14844-12.23828,0.48438-17.10645,0.52637
				c-7.10938,0.06152-14.20898,0.36426-21.29004,0.99512c-12.84277,1.14453-25.50391,3.18652-38.1377,5.72852
				c-2.88477,0.58105-2.21484,5.21875,0.68848,5.09766c12.12793-0.50391,24.30566-0.08301,36.44727-0.36914
				c9.48242-0.22363,19.52637-1.28223,28.98242-0.16016c-0.23047-1.69922-0.45996-3.39746-0.68945-5.09766
				c-8.11621,1.57617-16.48828,1.26562-24.68945,2.13867c-9.43555,1.00391-19.08008,2.26465-28.34277,4.3418
				c-2.85449,0.64062-2.23438,5.24023,0.68945,5.09766c16.03125-0.77734,32.35645-3.18555,48.35742-0.84375
				c-0.20703-1.58105-0.41406-3.16211-0.62109-4.74219C67.5,98.22363,52.63477,97.46191,40.09961,100.22949
				c-3.0293,0.66895-2.07422,4.86914,0.68945,5.09766c10.57812,0.87891,20.35742,4.91504,30.83105,0.9043
				c3.0918-1.18555,1.75098-6.20508-1.37988-5.00586c-9.8916,3.78906-19.44043-0.25781-29.45117-1.08789
				c0.23047,1.69824,0.45996,3.39648,0.68945,5.09766c13.1084-2.89551,28.09375-2.24805,40.22754-8.48242
				c1.87109-0.96094,1.62305-4.41504-0.62109-4.74316c-16.52637-2.41895-33.17188-0.14355-49.73535,0.65918
				c0.23047,1.69824,0.45996,3.39746,0.68945,5.09766c9.68555-2.17285,19.7959-3.54102,29.68555-4.42383
				c7.7832-0.69531,15.64844-0.56445,23.34668-2.05664c3.12012-0.60645,1.97754-4.78125-0.68945-5.09766
				c-9.45605-1.12305-19.5-0.06445-28.98242,0.16016c-12.1416,0.28516-24.31934-0.13477-36.44727,0.36914
				c0.23047,1.69922,0.46094,3.39746,0.68945,5.09766c14.09277-2.83594,28.21484-5.01074,42.56543-6.00391
				c7.08301-0.49023,14.19434-0.55371,21.29102-0.56445c4.79004-0.00586,9.43457,0.94141,13.91895-1.20508
				c2.19141-1.0498,1.31055-4.07031-0.61914-4.74414c-5.82715-2.03516-12.01074-1.35645-18.07227-1.45508
				c-8.86133-0.14453-17.72168-0.27148-26.58496-0.11035c-8.81934,0.16016-17.6084,1.03809-26.41504,1.47266
				c-3.71777,0.18359-9.29785,0.38965-12.72949-1.12988c0,1.49414,0,2.98828,0,4.48242
				c6.00684-3.57227,13.82227-3.82617,20.6084-4.34277c7.22949-0.54785,14.41406-1.37793,21.62988-1.97461
				c17.07031-1.40918,34.72461,2.48926,51.25195-3.80176c1.63672-0.62305,2.33691-2.20703,1.55078-3.81152
				c-2.69531-5.50488-11.22559-4.59668-16.32031-4.94824c-8.32227-0.57617-16.7334-0.1748-25.06152,0.02344
				c-19.97266,0.47656-39.87695,0.26074-59.84473,1.35938C7.04004,66.75977,7.26953,68.45801,7.5,70.1582
				c17.56934-4.47754,35.86328-5.07422,53.87988-6.15527c9.22754-0.55469,18.44434-1.24512,27.65039-2.08789
				c6.64355-0.60742,13.68457,0.20508,19.80469-2.9248c1.64355-0.84082,1.74707-3.67383,0-4.48242
				c-5.41309-2.50488-11.56836-1.74512-17.36035-1.55176c-9.52734,0.32031-19.25293-0.86914-28.77148-1.31445
				c-10.28418-0.48242-20.5625-0.57422-30.85547-0.49707c-4.81543,0.03613-9.62988,0.09082-14.44531,0.10938
				c-4.65332,0.01855-9.56348,1.16504-14.16309,0.26562c0,1.66895,0,3.33691,0,5.00488
				c8.07715-2.48047,17.06934-2.26367,25.44531-2.84766c9.36621-0.65234,18.73145-1.31055,28.10938-1.74609
				c9.08984-0.42188,18.17676-0.875,27.26758-1.2666c7.24707-0.31348,15.64453,0.91211,22.62109-1.2959
				c2.55176-0.80859,2.3877-4.13477,0-5.00586c-7.40527-2.70312-15.91895-2.70703-23.70117-3.31445
				c-9.17383-0.7168-18.32715-0.9082-27.52734-0.85352c-9.05566,0.05664-18.10645,0.44336-27.13574,1.14258
				c-8.48145,0.65527-17.10254,2.80664-25.59863,2.5918c0.23047,1.69922,0.46094,3.39844,0.68945,5.09766
				c16.70898-3.8291,33.7168-5.6709,50.76562-7.21484c16.11523-1.45898,32.38281-1.25195,48.41699-3.52148
				c2.99316-0.42383,2.12012-5.02441-0.69043-5.09766c-17.18359-0.44922-34.27344-2.41992-51.44141-3
				c-8.76953-0.2959-17.55762,0.26855-26.29492,0.95898c-7.3125,0.57812-14.75098,0.54688-21.96387,1.96289
				c-2.85449,0.56055-2.22559,5.38672,0.68945,5.09766c15.17773-1.50391,30.18848-4.2207,45.30176-6.22363
				c15.80273-2.09473,31.72559-2.60449,47.57422-4.1709c3.27344-0.32422,3.40625-5.11719,0-5.18945
				c-28.78027-0.61328-57.57715-4.88867-86.23926-0.24902c0.46094,1.66895,0.9209,3.33691,1.38086,5.00488
				c12.33203-3.0957,25.04102-3.34375,37.6543-4.33887c6.69336-0.52832,13.3584-1.38184,20.05664-1.88184
				c5.73926-0.42578,11.61035-0.18066,17.27148-1.27734c2.25195-0.4375,2.47656-3.69141,0.62012-4.74414
				c-7.70703-4.36719-19.04102-4.28125-27.64746-4.76367c-11.9082-0.66797-23.79395,0.24219-35.69238,0.66211
				c0.22949,1.69824,0.45898,3.39648,0.68945,5.09766c8.41797-1.54297,16.6416-4.07617,25.09375-5.41797
				c4.2168-0.66992,8.48242-1.05273,12.72949-1.47852c3.34375-0.33594,6.50977-0.13281,9.72363-1.28418
				c2.33594-0.83887,2.60449-4.28027,0-5.00488C66.00684,1.44922,60.40137,1.56152,54.8457,1.7334
				C49.38867,1.90332,43.49512,1.4248,38.3291,3.46191C35.25293,4.67578,36.5918,9.69629,39.70801,8.46777L39.70801,8.46777z"/>
			<path fill="#0098BA" d="M39.70801,6.4873c4.30371-1.69727,9.0332-1.34277,13.58105-1.49023
				c5.59082-0.18066,11.29199-0.53516,16.7373,0.98047c0-1.66895,0-3.33789,0-5.00586
				c-3.30664,1.18652-6.80762,0.94531-10.25879,1.29199c-4.07617,0.40918-8.13965,0.8877-12.19336,1.47168
				c-8.45996,1.21875-16.68652,3.875-25.09375,5.41602c-2.90332,0.5332-2.2002,5.19922,0.69043,5.09766
				c10.62402-0.37305,21.23047-1.11914,31.86621-0.85352c5.50684,0.13867,11.06836,0.55664,16.52441,1.30469
				c3.95996,0.54297,8.80176,0.94531,12.3291,2.94336c0.20703-1.58105,0.41406-3.16211,0.62109-4.74414
				c-6.44043,1.24805-13.36426,0.87305-19.9043,1.4082c-6.5498,0.53516-13.07422,1.36133-19.62988,1.83984
				c-11.89648,0.87012-23.82812,1.33594-35.4502,4.25195c-3.30859,0.83105-1.84863,5.52734,1.38086,5.00488
				c28.13867-4.55566,56.60254-0.16895,84.8584,0.43262c0-1.73047,0-3.45898,0-5.18945
				c-15.19238,1.50195-30.44531,2.07031-45.6084,3.9209c-15.79004,1.92676-31.43066,4.90527-47.26758,6.47363
				c0.22949,1.69922,0.45996,3.39844,0.68945,5.09766c7.37012-1.44727,15.12109-1.34668,22.60059-1.9375
				c8.75977-0.69238,17.53125-1.02832,26.31445-0.73047c16.4873,0.55566,32.90137,2.49902,49.40625,2.93066
				c-0.22852-1.69824-0.45898-3.39746-0.68945-5.09766c-16.85742,2.38574-34.06641,2.1416-51.02051,3.70117
				c-16.17188,1.48535-32.31445,3.40527-48.16113,7.03613c-2.92871,0.67188-2.17285,5.02539,0.68945,5.09766
				c7.90234,0.19824,15.81152-1.72559,23.66699-2.43164c9.02148-0.8125,18.08496-1.14844,27.13965-1.2832
				c8.51855-0.125,17.00879,0.01465,25.51367,0.55273c8.53027,0.53906,18.16797,0.45508,26.26367,3.41016
				c0-1.66895,0-3.33691,0-5.00586c-3.7666,1.19336-7.6875,0.8125-11.58203,0.76074
				c-4.49512-0.05957-9.04004,0.32129-13.52832,0.52246c-9.13086,0.4082-18.26367,0.83203-27.3916,1.28906
				c-9.3916,0.4707-18.77148,1.18359-28.15234,1.83398c-7.57617,0.52344-15.47559,0.50586-22.78906,2.75195
				c-2.30664,0.70801-2.64648,4.48633,0,5.00488c3.48535,0.68066,6.83008,0.41699,10.34766,0.09277
				c4.45215-0.41211,8.99121-0.18945,13.45801-0.22754c9.62305-0.08301,19.24121-0.1709,28.86133,0.11816
				c9.5166,0.28516,19.02246,0.88477,28.53027,1.36328c3.72656,0.1875,7.40234,0.32617,11.12891,0.17383
				c3.85547-0.15723,8.4248-0.72363,12.0293,0.94531c0-1.49414,0-2.98828,0-4.48242
				c-5.94238,3.03906-14.58887,1.99219-21.125,2.57227c-9.2041,0.81641-18.42773,1.42578-27.65332,1.96484
				c-17.17188,1.00391-34.58203,1.8418-51.31738,6.10742c-2.80859,0.71582-2.26465,5.25977,0.69043,5.09766
				c18.01758-0.99023,35.95312-0.93457,53.97852-1.23047c7.09473-0.11719,14.18457-0.36328,21.28125-0.38867
				c3.21777-0.00977,6.43262,0.05957,9.64648,0.23633c2.82129,0.15527,10.3877-0.58789,11.83887,2.37891
				c0.51758-1.27051,1.03418-2.54102,1.55078-3.8125c-17.23535,6.56055-35.9541,2.00488-53.75781,3.99414
				c-7.31055,0.81641-14.61719,1.28516-21.94531,1.94434c-6.43066,0.58008-13.37402,1.34277-19.02637,4.70215
				c-1.52832,0.91016-1.84863,3.66406,0,4.48242c9.69141,4.29102,23.59961,1.30859,33.59863,0.69141
				c8.84082-0.54688,17.71875-0.45117,26.56934-0.3418c7.87305,0.09473,17.36035-1.22656,24.87305,1.39648
				c-0.20605-1.58203-0.41309-3.16309-0.62012-4.74414c-4.4873,2.14844-12.23828,0.48535-17.10645,0.52734
				c-7.10938,0.06055-14.20898,0.36328-21.29004,0.99414c-12.84277,1.14453-25.50391,3.1875-38.1377,5.72852
				c-2.88477,0.58203-2.21484,5.21875,0.68848,5.09766c12.12793-0.50391,24.30566-0.08203,36.44727-0.36816
				c9.48242-0.22363,19.52637-1.28223,28.98242-0.16016c-0.23047-1.69922-0.45996-3.39746-0.68945-5.09766
				c-8.11621,1.5752-16.48828,1.26465-24.68945,2.1377c-9.43555,1.00391-19.08008,2.26562-28.34277,4.3418
				c-2.85449,0.64062-2.23438,5.24023,0.68945,5.09766c16.03125-0.77734,32.35645-3.18555,48.35742-0.84277
				c-0.20703-1.58105-0.41406-3.16309-0.62109-4.74316C67.5,96.24414,52.63477,95.48145,40.09961,98.24902
				c-3.0293,0.66992-2.07422,4.86914,0.68945,5.09766c10.57812,0.87891,20.35742,4.91602,30.83105,0.9043
				c3.0918-1.18457,1.75098-6.2041-1.37988-5.00586c-9.8916,3.78906-19.44043-0.25684-29.45117-1.08789
				c0.23047,1.69922,0.45996,3.39746,0.68945,5.09766c13.1084-2.89453,28.09375-2.24805,40.22754-8.48242
				c1.87109-0.96094,1.62305-4.41406-0.62109-4.74219c-16.52637-2.41895-33.17188-0.14453-49.73535,0.6582
				c0.23047,1.69922,0.45996,3.39844,0.68945,5.09766c9.68555-2.17188,19.7959-3.54102,29.68555-4.42383
				c7.7832-0.69531,15.64844-0.56348,23.34668-2.05664c3.12012-0.60547,1.97754-4.78125-0.68945-5.09766
				c-9.45605-1.12207-19.5-0.06348-28.98242,0.16016c-12.1416,0.28613-24.31934-0.13477-36.44727,0.36914
				c0.23047,1.69922,0.46094,3.39844,0.68945,5.09766c14.09277-2.83594,28.21484-5.00977,42.56543-6.00391
				c7.08301-0.49023,14.19434-0.55273,21.29102-0.56348c4.79004-0.00684,9.43457,0.94043,13.91895-1.20605
				c2.19141-1.04883,1.31055-4.07031-0.61914-4.74414c-5.82715-2.03418-12.01074-1.35547-18.07227-1.45508
				c-8.86133-0.14355-17.72168-0.27148-26.58496-0.10938c-8.81934,0.16016-17.6084,1.03711-26.41504,1.47266
				c-3.71777,0.18359-9.29785,0.38867-12.72949-1.13086c0,1.49414,0,2.98828,0,4.48242
				c6.00684-3.57227,13.82227-3.82617,20.6084-4.3418c7.22949-0.54883,14.41406-1.37891,21.62988-1.97461
				c17.07031-1.41016,34.72461,2.48828,51.25195-3.80176c1.63672-0.62305,2.33691-2.20801,1.55078-3.81152
				c-2.69531-5.50586-11.22559-4.59766-16.32031-4.94922c-8.32227-0.57617-16.7334-0.17383-25.06152,0.02441
				c-19.97266,0.47559-39.87695,0.26074-59.84473,1.3584C7.04004,64.78027,7.26953,66.47852,7.5,68.17871
				c17.56934-4.47852,35.86328-5.07422,53.87988-6.15625c9.22754-0.55469,18.44434-1.24414,27.65039-2.08691
				c6.64355-0.6084,13.68457,0.2041,19.80469-2.9248c1.64355-0.84082,1.74707-3.67383,0-4.48242
				c-5.41309-2.50586-11.56836-1.74609-17.36035-1.55176c-9.52734,0.31934-19.25293-0.87012-28.77148-1.31543
				c-10.28418-0.48145-20.5625-0.57422-30.85547-0.49609c-4.81543,0.03613-9.62988,0.08984-14.44531,0.10938
				c-4.65332,0.01758-9.56348,1.16504-14.16309,0.26562c0,1.66797,0,3.33594,0,5.00488
				c8.07715-2.48047,17.06934-2.26367,25.44531-2.84863c9.36621-0.65234,18.73145-1.30957,28.10938-1.74512
				c9.08984-0.42285,18.17676-0.875,27.26758-1.2666c7.24707-0.31445,15.64453,0.91211,22.62109-1.29688
				c2.55176-0.80859,2.3877-4.13379,0-5.00586c-7.40527-2.70215-15.91895-2.70605-23.70117-3.31348
				c-9.17383-0.7168-18.32715-0.90918-27.52734-0.85352c-9.05566,0.05566-18.10645,0.44336-27.13574,1.1416
				c-8.48145,0.65625-17.10254,2.80664-25.59863,2.59277c0.23047,1.69824,0.46094,3.39746,0.68945,5.09766
				c16.70898-3.8291,33.7168-5.6709,50.76562-7.21582c16.11523-1.45801,32.38281-1.25195,48.41699-3.52051
				c2.99316-0.42383,2.12012-5.02441-0.69043-5.09766c-17.18359-0.44922-34.27344-2.4209-51.44141-3.00098
				c-8.76953-0.29492-17.55762,0.26953-26.29492,0.95898c-7.3125,0.57812-14.75098,0.54785-21.96387,1.96387
				c-2.85449,0.56055-2.22559,5.38574,0.68945,5.09766c15.17773-1.50488,30.18848-4.22168,45.30176-6.22363
				c15.80273-2.09473,31.72559-2.60449,47.57422-4.17188c3.27344-0.32324,3.40625-5.11719,0-5.18945
				c-28.78027-0.61328-57.57715-4.88867-86.23926-0.24805c0.46094,1.66797,0.9209,3.33594,1.38086,5.00488
				c12.33203-3.0957,25.04102-3.34473,37.6543-4.33887c6.69336-0.52832,13.3584-1.38281,20.05664-1.88184
				c5.73926-0.42676,11.61035-0.18066,17.27148-1.27832c2.25195-0.43652,2.47656-3.69141,0.62012-4.74414
				c-7.70703-4.36621-19.04102-4.28027-27.64746-4.7627C46.95508,7.73047,35.06934,8.64062,23.1709,9.05957
				c0.22949,1.69922,0.45898,3.39746,0.68945,5.09766c8.41797-1.54297,16.6416-4.07617,25.09375-5.41797
				c4.2168-0.66895,8.48242-1.05273,12.72949-1.47852c3.34375-0.33496,6.50977-0.13281,9.72363-1.2832
				c2.33594-0.83887,2.60449-4.28027,0-5.00586C66.00684-0.53027,60.40137-0.41895,54.8457-0.24609
				c-5.45703,0.16895-11.35059-0.30957-16.5166,1.72852C35.25293,2.69629,36.5918,7.71582,39.70801,6.4873L39.70801,6.4873z"/>
		</g>
		<path fill="#FFFFFF" d="M36.26172,60.50488V35.09473c0,0-0.75195-7.85352,6.31348-7.85352c0,0,6.3125-0.50195,6.3125,4.92773
			v7.85352h20.63574c0,0,5.23438,1.23242,4.77441,7.08398c0,0-0.61621,5.23633-6.00684,5.69824H49.04199v6.92871
			c0,0-0.25195,5.54297,4.77441,5.54297h14.32031c0,0,6.00684,0.1543,6.16113,6.77637c0,0-0.30859,5.69824-6.31543,6.16016h-14.0127
			C53.96973,78.21289,36.26172,77.24707,36.26172,60.50488z"/>
	</g>
</g>
<g id="Layer_6">
</g>
<g id="Twitter_Logo_Silhouette_designed_by_Elegant_Themes_from_Flaticon.com">
</g>
</svg>
