<?xml version="1.0" encoding="utf-8"?>
<!-- Generator: Adobe Illustrator 16.0.0, SVG Export Plug-In . SVG Version: 6.00 Build 0)  -->
<!DOCTYPE svg PUBLIC "-//W3C//DTD SVG 1.1//EN" "http://www.w3.org/Graphics/SVG/1.1/DTD/svg11.dtd">
<svg version="1.1" xmlns="http://www.w3.org/2000/svg" xmlns:xlink="http://www.w3.org/1999/xlink" x="0px" y="0px"
	 width="110.10742px" height="107.63379px" viewBox="0 0 110.10742 107.63379" enable-background="new 0 0 110.10742 107.63379"
	 xml:space="preserve">
<g id="Layer_1">
</g>
<g id="social_market">
</g>
<g id="set2">
</g>
<g id="Layer_5">
	<g>
		<g>
			<path fill="#ED2E32" d="M39.70898,8.28516c4.30469-1.69727,9.0332-1.3418,13.58008-1.49023
				c5.5918-0.17969,11.29297-0.53516,16.73828,0.98047c0-1.66797,0-3.33789,0-5.00586
				C66.7207,3.95703,63.2207,3.71484,59.76758,4.0625c-4.07617,0.4082-8.13867,0.88672-12.19336,1.4707
				c-8.45898,1.21875-16.68555,3.875-25.09375,5.41602c-2.90234,0.5332-2.19922,5.19922,0.69141,5.09766
				c10.62305-0.37305,21.23047-1.11914,31.86719-0.85352c5.50586,0.13867,11.06836,0.55664,16.52344,1.30469
				c3.96094,0.54297,8.80273,0.94531,12.33008,2.94336c0.20703-1.58008,0.41406-3.16211,0.62109-4.74414
				c-6.44141,1.24805-13.36523,0.87305-19.9043,1.4082c-6.55078,0.53516-13.07617,1.36133-19.63086,1.83984
				c-11.89648,0.87109-23.82812,1.33594-35.44922,4.25195c-3.30859,0.83203-1.84961,5.52734,1.37891,5.00586
				c28.14062-4.55664,56.60352-0.16992,84.85938,0.43164c0-1.73047,0-3.45898,0-5.18945
				c-15.19141,1.50195-30.44531,2.07031-45.60938,3.92188c-15.78906,1.92578-31.42969,4.9043-47.26758,6.47266
				c0.23047,1.69922,0.46094,3.39844,0.68945,5.09766C10.95117,36.49023,18.70117,36.5918,26.18164,36
				c8.75977-0.69141,17.53125-1.02734,26.31445-0.73047c16.48828,0.55664,32.90234,2.5,49.40625,2.93164
				c-0.22852-1.69922-0.45898-3.39844-0.68945-5.09766c-16.85742,2.38477-34.06641,2.14062-51.02148,3.70117
				c-16.17188,1.48438-32.31445,3.4043-48.16016,7.03516c-2.92969,0.67188-2.17383,5.02539,0.68945,5.09766
				c7.90234,0.19922,15.81055-1.72461,23.66602-2.43164c9.02148-0.8125,18.08594-1.14844,27.14062-1.2832
				c8.51953-0.125,17.00977,0.01562,25.51367,0.55273c8.53125,0.53906,18.16797,0.45508,26.26367,3.41016
				c0-1.66797,0-3.33594,0-5.00586c-3.76562,1.19336-7.6875,0.8125-11.58203,0.75977
				c-4.49414-0.05859-9.03906,0.32227-13.52734,0.52344c-9.13086,0.4082-18.26367,0.83203-27.39258,1.28906
				c-9.39258,0.4707-18.77148,1.18359-28.15234,1.83398c-7.57617,0.52344-15.47656,0.50586-22.78906,2.75195
				c-2.30664,0.70898-2.64648,4.48633,0,5.00586c3.48438,0.67969,6.83008,0.41602,10.34766,0.0918
				c4.45117-0.41211,8.99023-0.18945,13.45703-0.22656c9.62305-0.08398,19.24219-0.17188,28.86328,0.11719
				c9.51562,0.28516,19.02148,0.88477,28.5293,1.36328c3.72656,0.1875,7.40234,0.32617,11.12891,0.17383
				c3.85547-0.15625,8.42578-0.72266,12.0293,0.94531c0-1.49414,0-2.98828,0-4.48242
				c-5.94141,3.03906-14.58789,1.99219-21.125,2.57227c-9.20312,0.81641-18.42773,1.42578-27.65234,1.96484
				c-17.17383,1.00391-34.58398,1.8418-51.31836,6.10742c-2.80859,0.7168-2.26367,5.25977,0.68945,5.09766
				c18.01758-0.99023,35.95312-0.93359,53.98047-1.23047c7.09375-0.11719,14.18359-0.36328,21.28125-0.38867
				c3.2168-0.00977,6.43164,0.05859,9.64648,0.23633c2.82031,0.15625,10.38672-0.58789,11.83789,2.37891
				c0.51758-1.26953,1.03516-2.54102,1.55078-3.8125c-17.23438,6.56055-35.95312,2.00586-53.75781,3.99414
				c-7.31055,0.81641-14.61719,1.28516-21.94531,1.94531c-6.43164,0.58008-13.375,1.3418-19.02734,4.70117
				c-1.52734,0.91016-1.84766,3.66406,0,4.48242c9.69336,4.29102,23.60156,1.30859,33.59961,0.69141
				c8.83984-0.54688,17.71875-0.45117,26.57031-0.3418c7.87305,0.0957,17.35938-1.22656,24.87305,1.39648
				c-0.20703-1.58203-0.41406-3.16211-0.62109-4.74414c-4.48633,2.14844-12.23828,0.48633-17.10547,0.52734
				c-7.10938,0.06055-14.20898,0.36328-21.29102,0.99414c-12.8418,1.14453-25.50391,3.1875-38.13867,5.72852
				c-2.88477,0.58203-2.21484,5.21875,0.68945,5.09766c12.12695-0.50391,24.30469-0.08203,36.44727-0.36719
				c9.48242-0.22461,19.52734-1.2832,28.98242-0.16016c-0.23047-1.69922-0.45898-3.39844-0.68945-5.09766
				c-8.11523,1.57422-16.48828,1.26367-24.68945,2.13672c-9.43555,1.00391-19.08008,2.26562-28.34375,4.3418
				c-2.85352,0.64062-2.23242,5.24023,0.68945,5.09766c16.03125-0.77734,32.35742-3.18555,48.35938-0.8418
				c-0.20703-1.58203-0.41406-3.16406-0.62109-4.74414c-11.58594,5.95312-26.45117,5.18945-38.98828,7.95703
				c-3.02734,0.66992-2.07422,4.86914,0.68945,5.09766c10.57812,0.87891,20.35938,4.91602,30.83203,0.9043
				c3.0918-1.18359,1.75195-6.20312-1.37891-5.00586c-9.89258,3.78906-19.44141-0.25586-29.45312-1.08789
				c0.23242,1.69922,0.46094,3.39844,0.69141,5.09766c13.10742-2.89453,28.09375-2.24805,40.22656-8.48242
				c1.87109-0.96094,1.62305-4.41406-0.62109-4.74219c-16.52539-2.41797-33.17188-0.14453-49.73633,0.6582
				c0.23047,1.69922,0.46094,3.39844,0.68945,5.09766c9.68555-2.17188,19.79688-3.54102,29.6875-4.42383
				c7.7832-0.69531,15.64844-0.5625,23.3457-2.05664c3.12109-0.60547,1.97852-4.78125-0.68945-5.09766
				c-9.45508-1.12109-19.5-0.0625-28.98242,0.16016c-12.14258,0.28711-24.32031-0.13477-36.44727,0.36914
				c0.23047,1.69922,0.46094,3.39844,0.68945,5.09766c14.09375-2.83594,28.21484-5.00977,42.56641-6.00391
				c7.08203-0.49023,14.19336-0.55273,21.29102-0.5625c4.78906-0.00781,9.43359,0.93945,13.91797-1.20703
				c2.19141-1.04883,1.31055-4.07031-0.61914-4.74414c-5.82617-2.0332-12.00977-1.35547-18.07227-1.45508
				c-8.86133-0.14258-17.7207-0.27148-26.58594-0.10938c-8.81836,0.16016-17.60742,1.03711-26.41406,1.47266
				c-3.71875,0.18359-9.29883,0.38867-12.72852-1.13086c0,1.49414,0,2.98828,0,4.48242
				c6.00586-3.57227,13.82031-3.82617,20.60742-4.3418c7.23047-0.54883,14.41406-1.37891,21.62891-1.97461
				c17.07227-1.41016,34.72656,2.48828,51.25391-3.80078c1.63672-0.62305,2.33594-2.20898,1.55078-3.8125
				c-2.69531-5.50586-11.22656-4.59766-16.32031-4.94922c-8.32227-0.57617-16.73438-0.17383-25.0625,0.02539
				c-19.97266,0.47461-39.87695,0.25977-59.8457,1.35742c0.23047,1.69922,0.45898,3.39844,0.69141,5.09766
				c17.56836-4.47852,35.86133-5.07422,53.87891-6.15625c9.22852-0.55469,18.44531-1.24414,27.65039-2.08594
				c6.64453-0.60938,13.68555,0.20312,19.80469-2.92578c1.64453-0.83984,1.74805-3.67383,0-4.48242
				c-5.41211-2.50586-11.56836-1.74609-17.35938-1.55078c-9.52734,0.31836-19.25391-0.87109-28.77148-1.31641
				c-10.28516-0.48047-20.5625-0.57422-30.85742-0.49609c-4.81445,0.03516-9.62891,0.08984-14.44336,0.10938
				c-4.6543,0.01758-9.56445,1.16602-14.16406,0.26562c0,1.66797,0,3.33594,0,5.00586
				c8.07812-2.48047,17.07031-2.26367,25.44531-2.84961c9.36523-0.65234,18.73047-1.30859,28.10938-1.74414
				c9.08984-0.42383,18.17773-0.875,27.26758-1.26758c7.24805-0.31445,15.64453,0.91211,22.62109-1.29688
				c2.55273-0.80859,2.38867-4.13281,0-5.00586c-7.4043-2.70117-15.91797-2.70508-23.70117-3.3125
				c-9.17383-0.7168-18.32617-0.91016-27.52734-0.85352c-9.05664,0.05469-18.10742,0.44141-27.13477,1.14062
				c-8.48242,0.65625-17.10352,2.80664-25.59961,2.59375c0.23047,1.69727,0.46094,3.39648,0.68945,5.09766
				c16.70898-3.83008,33.7168-5.67188,50.76562-7.2168c16.11523-1.45703,32.38281-1.25195,48.41797-3.51953
				c2.99219-0.42383,2.11914-5.02539-0.69141-5.09766c-17.18359-0.44922-34.27344-2.42188-51.44141-3.00195
				c-8.76953-0.29492-17.55859,0.26953-26.29492,0.95898c-7.3125,0.57812-14.75195,0.54883-21.96484,1.96484
				c-2.85352,0.56055-2.22461,5.38477,0.68945,5.09766c15.17969-1.50586,30.18945-4.22266,45.30273-6.22461
				c15.80273-2.09375,31.72656-2.60352,47.57422-4.17188c3.27344-0.32227,3.40625-5.11719,0-5.18945
				c-28.7793-0.61328-57.57812-4.88867-86.23828-0.24805c0.45898,1.66797,0.91992,3.33594,1.37891,5.00586
				c12.33203-3.0957,25.04297-3.3457,37.6543-4.33984c6.69336-0.52734,13.35938-1.38281,20.05859-1.88086
				c5.73828-0.42773,11.60938-0.18164,17.27148-1.2793c2.25195-0.43555,2.47656-3.69141,0.61914-4.74414
				c-7.70703-4.36523-19.04102-4.2793-27.64844-4.76172c-11.9082-0.66797-23.79297,0.24219-35.69141,0.66016
				c0.22852,1.69922,0.45898,3.39844,0.68945,5.09766c8.41797-1.54297,16.64062-4.07617,25.09375-5.41797
				c4.2168-0.66992,8.48242-1.05273,12.73047-1.47852c3.34375-0.33398,6.50977-0.13281,9.72266-1.2832
				c2.33594-0.83789,2.60547-4.2793,0-5.00586c-5.40039-1.50195-11.00586-1.39062-16.56055-1.2168
				C49.38867,1.7207,43.49609,1.24219,38.33008,3.28125C35.25391,4.49414,36.59375,9.51367,39.70898,8.28516L39.70898,8.28516z"/>
			<path fill="#ED2E32" d="M39.70898,6.66797c4.30469-1.69727,9.0332-1.34375,13.58008-1.49219
				c5.5918-0.17969,11.29297-0.53516,16.73828,0.98047c0-1.66797,0-3.33594,0-5.00391
				C66.7207,2.33789,63.2207,2.09766,59.76758,2.44336c-4.07617,0.4082-8.13867,0.88672-12.19336,1.4707
				c-8.45898,1.2207-16.68555,3.87695-25.09375,5.41797c-2.90234,0.5332-2.19922,5.19922,0.69141,5.09766
				c10.62305-0.37305,21.23047-1.11914,31.86719-0.85352c5.50586,0.13672,11.06836,0.55664,16.52344,1.30469
				c3.96094,0.54297,8.80273,0.94336,12.33008,2.94336c0.20703-1.58203,0.41406-3.16211,0.62109-4.74414
				c-6.44141,1.24805-13.36523,0.87305-19.9043,1.40625c-6.55078,0.53711-13.07617,1.36133-19.63086,1.8418
				c-11.89648,0.86914-23.82812,1.33398-35.44922,4.25c-3.30859,0.83203-1.84961,5.52734,1.37891,5.00586
				c28.14062-4.55664,56.60352-0.16797,84.85938,0.43359c0-1.73047,0-3.45898,0-5.18945
				c-15.19141,1.50195-30.44531,2.07031-45.60938,3.91992c-15.78906,1.92773-31.42969,4.9043-47.26758,6.47461
				c0.23047,1.69922,0.46094,3.39648,0.68945,5.09766c7.37109-1.44727,15.12109-1.34766,22.60156-1.9375
				c8.75977-0.69336,17.53125-1.0293,26.31445-0.73242c16.48828,0.55664,32.90234,2.5,49.40625,2.93164
				c-0.22852-1.69922-0.45898-3.39648-0.68945-5.09766c-16.85742,2.38672-34.06641,2.14258-51.02148,3.70117
				c-16.17188,1.48633-32.31445,3.4043-48.16016,7.03516c-2.92969,0.67188-2.17383,5.02734,0.68945,5.09766
				c7.90234,0.19922,15.81055-1.72461,23.66602-2.43164c9.02148-0.81055,18.08594-1.14844,27.14062-1.28125
				c8.51953-0.125,17.00977,0.01367,25.51367,0.55273c8.53125,0.53906,18.16797,0.45508,26.26367,3.41016
				c0-1.66992,0-3.33789,0-5.00586c-3.76562,1.19336-7.6875,0.81055-11.58203,0.75977
				c-4.49414-0.05859-9.03906,0.32227-13.52734,0.52148c-9.13086,0.4082-18.26367,0.83203-27.39258,1.28906
				c-9.39258,0.47266-18.77148,1.18555-28.15234,1.83398c-7.57617,0.52539-15.47656,0.50781-22.78906,2.75195
				c-2.30664,0.70898-2.64648,4.48828,0,5.00586c3.48438,0.68164,6.83008,0.41797,10.34766,0.0918
				c4.45117-0.41016,8.99023-0.1875,13.45703-0.22656c9.62305-0.08203,19.24219-0.16992,28.86328,0.11914
				c9.51562,0.28516,19.02148,0.88281,28.5293,1.36133c3.72656,0.1875,7.40234,0.32617,11.12891,0.17578
				c3.85547-0.1582,8.42578-0.72461,12.0293,0.94336c0-1.49414,0-2.98828,0-4.48242
				c-5.94141,3.04102-14.58789,1.99414-21.125,2.57227c-9.20312,0.81641-18.42773,1.42773-27.65234,1.9668
				C40.26562,58.25,22.85547,59.08789,6.12109,63.35352c-2.80859,0.71484-2.26367,5.25977,0.68945,5.09766
				c18.01758-0.99023,35.95312-0.93555,53.98047-1.23047c7.09375-0.11719,14.18359-0.36523,21.28125-0.38867
				c3.2168-0.00977,6.43164,0.05859,9.64648,0.23633c2.82031,0.1543,10.38672-0.58789,11.83789,2.37695
				c0.51758-1.26953,1.03516-2.54102,1.55078-3.8125c-17.23438,6.56055-35.95312,2.00586-53.75781,3.99609
				c-7.31055,0.81641-14.61719,1.2832-21.94531,1.94336c-6.43164,0.58008-13.375,1.34375-19.02734,4.70312
				c-1.52734,0.9082-1.84766,3.66211,0,4.48242c9.69336,4.29102,23.60156,1.30859,33.59961,0.69141
				c8.83984-0.54883,17.71875-0.45117,26.57031-0.34375c7.87305,0.0957,17.35938-1.22656,24.87305,1.39648
				c-0.20703-1.58008-0.41406-3.16211-0.62109-4.74219c-4.48633,2.14844-12.23828,0.48438-17.10547,0.52539
				c-7.10938,0.0625-14.20898,0.36523-21.29102,0.99609c-12.8418,1.14453-25.50391,3.18555-38.13867,5.72852
				c-2.88477,0.58008-2.21484,5.21875,0.68945,5.09766c12.12695-0.50391,24.30469-0.08398,36.44727-0.36914
				c9.48242-0.22461,19.52734-1.2832,28.98242-0.16016c-0.23047-1.69922-0.45898-3.39844-0.68945-5.09766
				c-8.11523,1.57617-16.48828,1.26562-24.68945,2.13867c-9.43555,1.00391-19.08008,2.26367-28.34375,4.3418
				c-2.85352,0.64062-2.23242,5.24023,0.68945,5.09766c16.03125-0.77734,32.35742-3.18555,48.35938-0.84375
				c-0.20703-1.58203-0.41406-3.16211-0.62109-4.74219c-11.58594,5.95117-26.45117,5.18945-38.98828,7.95703
				c-3.02734,0.66797-2.07422,4.86914,0.68945,5.09766c10.57812,0.87891,20.35938,4.91406,30.83203,0.9043
				c3.0918-1.18555,1.75195-6.20508-1.37891-5.00586c-9.89258,3.78906-19.44141-0.25781-29.45312-1.08789
				c0.23242,1.69727,0.46094,3.39648,0.69141,5.09766c13.10742-2.89648,28.09375-2.24805,40.22656-8.48242
				c1.87109-0.96094,1.62305-4.41602-0.62109-4.74414c-16.52539-2.41797-33.17188-0.14258-49.73633,0.66016
				c0.23047,1.69727,0.46094,3.39648,0.68945,5.09766c9.68555-2.17383,19.79688-3.54102,29.6875-4.42383
				c7.7832-0.69531,15.64844-0.56445,23.3457-2.05664c3.12109-0.60742,1.97852-4.78125-0.68945-5.09766
				c-9.45508-1.12305-19.5-0.06445-28.98242,0.16016c-12.14258,0.28516-24.32031-0.13477-36.44727,0.36914
				c0.23047,1.69922,0.46094,3.39648,0.68945,5.09766c14.09375-2.83594,28.21484-5.01172,42.56641-6.00391
				c7.08203-0.49023,14.19336-0.55469,21.29102-0.56445c4.78906-0.00586,9.43359,0.94141,13.91797-1.20508
				c2.19141-1.05078,1.31055-4.07031-0.61914-4.74414c-5.82617-2.03516-12.00977-1.35742-18.07227-1.45508
				c-8.86133-0.14453-17.7207-0.27148-26.58594-0.11133C43.32227,76.0918,34.5332,76.9707,25.72656,77.4043
				c-3.71875,0.18359-9.29883,0.39062-12.72852-1.12891c0,1.49414,0,2.98828,0,4.48242
				c6.00586-3.57227,13.82031-3.82617,20.60742-4.34375c7.23047-0.54688,14.41406-1.37695,21.62891-1.97461
				c17.07227-1.4082,34.72656,2.49023,51.25391-3.80078c1.63672-0.62305,2.33594-2.20703,1.55078-3.8125
				c-2.69531-5.50391-11.22656-4.5957-16.32031-4.94727c-8.32227-0.57617-16.73438-0.17578-25.0625,0.02344
				c-19.97266,0.47656-39.87695,0.25977-59.8457,1.35742c0.23047,1.69922,0.45898,3.39844,0.69141,5.09766
				c17.56836-4.47656,35.86133-5.07422,53.87891-6.1543c9.22852-0.55469,18.44531-1.24609,27.65039-2.08789
				c6.64453-0.60742,13.68555,0.20508,19.80469-2.92578c1.64453-0.83984,1.74805-3.67383,0-4.48242
				c-5.41211-2.50391-11.56836-1.74414-17.35938-1.55078c-9.52734,0.32031-19.25391-0.86914-28.77148-1.31445
				c-10.28516-0.48242-20.5625-0.57422-30.85742-0.49805c-4.81445,0.03711-9.62891,0.08984-14.44336,0.10938
				c-4.6543,0.01953-9.56445,1.16602-14.16406,0.26562c0,1.66992,0,3.33789,0,5.00586
				c8.07812-2.48047,17.07031-2.26367,25.44531-2.84766c9.36523-0.65234,18.73047-1.31055,28.10938-1.74609
				c9.08984-0.42188,18.17773-0.875,27.26758-1.26758c7.24805-0.3125,15.64453,0.91211,22.62109-1.29492
				c2.55273-0.80859,2.38867-4.13477,0-5.00586c-7.4043-2.70312-15.91797-2.70703-23.70117-3.31445
				c-9.17383-0.7168-18.32617-0.9082-27.52734-0.85352c-9.05664,0.05664-18.10742,0.44336-27.13477,1.14258
				c-8.48242,0.6543-17.10352,2.80664-25.59961,2.5918c0.23047,1.69922,0.46094,3.39844,0.68945,5.09766
				c16.70898-3.83008,33.7168-5.67188,50.76562-7.21484c16.11523-1.45898,32.38281-1.25195,48.41797-3.52148
				c2.99219-0.42383,2.11914-5.02539-0.69141-5.09766c-17.18359-0.44922-34.27344-2.41992-51.44141-3
				c-8.76953-0.29688-17.55859,0.26758-26.29492,0.95898c-7.3125,0.57812-14.75195,0.54688-21.96484,1.96289
				c-2.85352,0.56055-2.22461,5.38672,0.68945,5.09766c15.17969-1.50391,30.18945-4.2207,45.30273-6.22461
				c15.80273-2.09375,31.72656-2.60352,47.57422-4.16992c3.27344-0.32422,3.40625-5.11719,0-5.18945
				c-28.7793-0.61328-57.57812-4.88867-86.23828-0.25c0.45898,1.66992,0.91992,3.33789,1.37891,5.00586
				c12.33203-3.0957,25.04297-3.34375,37.6543-4.33984c6.69336-0.52734,13.35938-1.38086,20.05859-1.88086
				c5.73828-0.42578,11.60938-0.18164,17.27148-1.27734c2.25195-0.4375,2.47656-3.69141,0.61914-4.74414
				C78.80469,8.97461,67.4707,9.06055,58.86328,8.57812c-11.9082-0.66797-23.79297,0.24219-35.69141,0.66211
				c0.22852,1.69727,0.45898,3.39648,0.68945,5.09766c8.41797-1.54297,16.64062-4.07617,25.09375-5.41797
				C53.17188,8.25,57.4375,7.86719,61.68555,7.44141c3.34375-0.33594,6.50977-0.13281,9.72266-1.28516
				c2.33594-0.83789,2.60547-4.2793,0-5.00391c-5.40039-1.50391-11.00586-1.39062-16.56055-1.21875
				C49.38867,0.10352,43.49609-0.375,38.33008,1.66211C35.25391,2.875,36.59375,7.89648,39.70898,6.66797L39.70898,6.66797z"/>
		</g>
		<path fill="#FFFFFF" d="M28.6582,73.37305c0,0-0.77734-16.65625,0.54492-19.84766c0,0,1.01172-4.58984,5.05664-5.60547
			c0,0,17.04688-2.02148,40.31641,0c0,0,4.51367,0.93555,5.13477,5.83789c0,0,1.86914,13.77734-0.07617,23.27148
			c0,0-0.54492,4.90234-6.14844,5.52539c0,0-22.17969,1.63672-38.36914,0C35.11719,82.55469,28.89258,82.47656,28.6582,73.37305z"/>
		<g>
			<polygon fill="#FFFFFF" points="43.05469,29.74609 40.57617,20.52344 36.76758,20.52344 41.21875,34.47461 41.21875,44.02148 
				44.70703,44.02148 44.70703,34.47461 48.97656,20.47656 45.53516,20.47656 			"/>
			<path fill="#FFFFFF" d="M66.96875,26.44141v13.44727c-2.69336,2.68945-2.80078,0.64258-2.80078,0.64258V26.53516h-3.07422
				l-0.04883,14.73047c0,1.59766,0.60352,2.19531,0.60352,2.19531c2.36914,2.36914,5.32031-1.32227,5.32031-1.32227v1.78906h3.12109
				V26.44141H66.96875z"/>
			<path fill="#FFFFFF" d="M53.70312,26.12305c-4.69922,0-4.55469,4.72656-4.55469,4.72656s-0.03516,4.68359-0.03516,9.04102
				c0,4.32617,4.58984,4.26758,4.58984,4.26758c4.81055,0,4.63281-4.49805,4.63281-4.49805v-9.13477
				C58.33594,25.81836,53.70312,26.12305,53.70312,26.12305z M54.99023,39.46289c0,0,0.13672,1.65039-1.16602,1.65039
				c0,0-1.49219,0.36523-1.49219-1.65039v-8.85938c0,0-0.06055-1.3418,1.36914-1.4082c0,0,1.25-0.05078,1.28906,1.44922V39.46289z"
				/>
		</g>
		<g>
			<path fill="#ED2B36" d="M42.9043,59.18945l3.19727-0.04492v14.35742c0,0-0.0918,2.25,2.78906-0.63086V59.14453h3.28711V76.9668
				h-3.24414v-1.88867c0,0-6.07422,5.44531-6.07422-1.03516S42.9043,59.18945,42.9043,59.18945z"/>
			<polygon fill="#ED2B36" points="35.09766,76.87695 35.09766,56.48828 31.31445,56.48828 31.31445,53.20508 42.43164,53.20508 
				42.43164,56.53516 38.6543,56.53516 38.6543,76.87695 			"/>
			<path fill="#ED2B36" d="M58.08594,60.82812v-7.59766h-3.23633v23.68945l3.23633,0.04492v-1.79883
				c5.88867,4.85352,6.11523-1.39258,6.11523-1.39258v-10.9668C63.79492,55.56836,58.08594,60.82812,58.08594,60.82812z
				 M61.00781,72.91797c0,0-0.31445,1.93164-2.9668,0.4043V62.625c0,0,2.9668-2.1582,2.9668,0.76562
				C61.00781,66.31055,61.00781,72.91797,61.00781,72.91797z"/>
			<path fill="#ED2B36" d="M76.28125,68.60742v-5.05859c0,0-0.25977-4.67188-4.66992-4.67188c0,0-4.83398-0.12891-4.83398,4.83203
				c0,4.96289,0,8.85547,0,8.85547s0.13086,4.47461,5.15625,4.47461c0,0,4.3125-0.16211,4.3125-3.89062v-2.49805h-3.20898v1.81836
				c0,0-0.09961,1.6543-1.42578,1.6543c0,0-1.6875,0.22656-1.6875-1.91406s0-3.60156,0-3.60156H76.28125z M69.95508,63.70898
				c0,0-0.03125-1.84766,1.49219-1.84766s1.6543,1.87891,1.6543,1.87891v2.14258h-3.17773L69.95508,63.70898z"/>
		</g>
	</g>
</g>
<g id="Layer_6">
</g>
<g id="Twitter_Logo_Silhouette_designed_by_Elegant_Themes_from_Flaticon.com">
</g>
</svg>
