<svg xmlns="http://www.w3.org/2000/svg" width="64" height="64" viewBox="0 0 64 64"><g><radialGradient id="a" cx="32" cy="32" r="32" gradientUnits="userSpaceOnUse"><stop offset="0" stop-color="#48669F"/><stop offset="1" stop-color="#3D5D7D"/></radialGradient><path d="M64 60c0 2.21-1.79 4-4 4H4c-2.21 0-4-1.79-4-4V4c0-2.21 1.79-4 4-4h56c2.21 0 4 1.79 4 4v56z" fill="url(#a)"/><path d="M45.067 24.43c-.255.97-.375 1.965-.548 2.952-.428 2.437-.88 4.872-1.27 7.317-.514 3.245-.815 6.514-.808 9.806 0 .372-.06.508-.477.502-2.015-.025-4.03-.016-6.043-.002-.354.002-.49-.06-.452-.46.145-1.458.25-2.92.373-4.383.008-.138.052-.276-.075-.432-.24.07-.296.306-.4.485-1.215 2.067-2.756 3.808-5.042 4.708-2.79 1.098-5.503 1.016-8.03-.776-.268-.192-.51-.423-.766-.636-2.092-2.353-2.625-5.183-2.47-8.205.252-4.79 1.856-9.043 5.218-12.526 2.384-2.476 5.358-3.944 8.712-4.666 1.53-.33 3.083-.494 4.64-.47 2.666.04 5.302.35 7.87 1.11.37.11.524.217.44.67-.327 1.663-.587 3.337-.873 5.006zM27.084 35.354c.033.657.247 1.267.535 1.847.714 1.444 2.19 1.968 3.663 1.315.872-.386 1.56-1.002 2.14-1.737 1.244-1.567 2.06-3.333 2.536-5.283.356-1.473.765-2.935.994-4.435.254-1.285.508-2.57.76-3.853.054-.267-.01-.41-.303-.49-2.2-.617-4.202-.24-5.963 1.223-2.352 1.954-3.607 4.544-4.232 7.473-.278 1.3-.406 2.616-.13 3.94z" fill-rule="evenodd" clip-rule="evenodd" fill="#fff"/></g></svg>