<svg xmlns="http://www.w3.org/2000/svg" width="64" height="64" viewBox="0 0 64 64"><g><path d="M64 60c0 2.21-1.79 4-4 4H4c-2.21 0-4-1.79-4-4V4c0-2.21 1.79-4 4-4h56c2.21 0 4 1.79 4 4v56z" fill="#E86324"/><path d="M18.795 34.793c-.863-.78-1.273-1.997-1.287-3.156.014-1.146.424-2.364 1.287-3.142.58-.51 1.43-.877 2.22-.935.525-.028.993.03 1.403.14 1.004.27 1.698.894 2.307 1.36l2.504-2.434c-.24-.424-.934-1.02-1.317-1.315-1.938-1.485-4.696-1.81-7.074-1.145-.384.1-.737.24-1.09.396-1.784.78-2.887 1.912-3.765 3.61-.935 1.795-.935 5.15 0 6.947.878 1.697 1.98 2.83 3.765 3.61.353.153.706.28 1.09.394 2.377.666 5.135.34 7.073-1.145.384-.31 1.076-.89 1.316-1.315l-2.505-2.435c-.608.47-1.303 1.09-2.307 1.36-.41.112-.878.17-1.402.14-.79-.057-1.64-.438-2.22-.932zm21.933-8.62c-.536-1.032-1.372-1.698-2.32-2.037-2.137-.778-4.853.057-6.255 1.896v-1.91h-4.287V39.08h4.287v-8.9c0-1.374 1.118-2.506 2.49-2.506 1.373 0 2.505 1.132 2.505 2.505v8.914h4.288V30.15c0-1.372 1.132-2.503 2.505-2.503s2.49 1.132 2.49 2.504V39.095h4.287v-9.876c0-2.986-1.57-4.557-3.507-5.08-1.952-.524-4.29.028-5.774 1.3-.27.227-.496.467-.708.736z" fill="#fff"/></g></svg>