<svg xmlns="http://www.w3.org/2000/svg" width="64" height="64" viewBox="0 0 64 64"><g><path d="M64 60c0 2.207-1.793 4-4 4H4c-2.207 0-4-1.793-4-4V4c0-2.207 1.793-4 4-4h56c2.207 0 4 1.793 4 4v56z" fill="#E02F2F"/><path d="M38 12H25.672c-5.64 0-10.95 3.957-10.95 8.906 0 5.057 3.845 8.988 9.583 8.988.398 0 .787-.09 1.168-.12-.377.712-.637 1.476-.637 2.31 0 1.406.754 2.527 1.707 3.46-.715 0-1.418.01-2.18.01C17.38 35.553 12 40 12 44.613c0 4.544 5.896 7.39 12.883 7.39 7.965 0 12.365-4.523 12.365-9.068 0-3.64-1.076-5.826-4.398-8.182-1.14-.803-3.31-2.76-3.31-3.912 0-1.348.382-2.012 2.413-3.6 2.078-1.625 3.553-3.563 3.553-6.223 0-3.163-1.36-7.02-4.006-7.02H36l2-2zm-4.14 30.148c.097.424.155.857.155 1.297 0 3.672-2.37 6.543-9.16 6.543-4.83 0-8.316-3.057-8.316-6.73 0-3.597 4.327-6.595 9.16-6.54 1.122.012 2.175.193 3.126.498 2.623 1.827 4.502 2.856 5.035 4.932zm-7.735-13.7c-3.242-.093-6.324-3.624-6.88-7.878-.56-4.26 1.614-7.518 4.854-7.422 3.24.1 6.323 3.516 6.882 7.77.56 4.258-1.615 7.63-4.857 7.53zM48 27.986v-6h-4v6h-6v4h6v6h4v-6h6v-4z" fill="#fff"/></g></svg>