<svg xmlns="http://www.w3.org/2000/svg" width="64" height="64" viewBox="0 0 64 64"><g><path d="M64 60c0 2.21-1.79 4-4 4H4c-2.21 0-4-1.79-4-4V4c0-2.21 1.79-4 4-4h56c2.21 0 4 1.79 4 4v56z" fill="#316198"/><path d="M43.667 15.643h-24c-2.26 0-4 1.74-4 4v24c0 2.258 1.74 4 4 4h24c2.258 0 4-1.742 4-4v-24c0-2.26-1.742-4-4-4zM31.69 25.357c3.55 0 6.425 2.787 6.425 6.227 0 3.436-2.876 6.225-6.425 6.225-3.547 0-6.424-2.79-6.424-6.226.002-3.44 2.88-6.227 6.424-6.227zm11.977 17.286c0 .7-.3 1-1 1h-22c-.7 0-1-.3-1-1v-14l2.493.542c-.268.87-.413 1.79-.413 2.745 0 5.318 4.454 9.634 9.943 9.634 5.49 0 9.943-4.314 9.943-9.634 0-.955-.145-1.875-.412-2.745l2.446-.542v14zm0-18c0 .553-.447 1-1 1h-4c-.553 0-1-.447-1-1v-4c0-.553.447-1 1-1h4c.553 0 1 .447 1 1v4z" fill="#fff"/></g></svg>