<svg xmlns="http://www.w3.org/2000/svg" width="64" height="64" viewBox="0 0 64 64"><g><path d="M64 60c0 2.21-1.79 4-4 4H4c-2.21 0-4-1.79-4-4V4c0-2.21 1.79-4 4-4h56c2.21 0 4 1.79 4 4v56z" fill="#88AB27"/><path d="M27.836 37.29c1.166.618 2.43.947 3.712 1.19.998.19 2.01.324 3.03.28 3.867-.167 7.417-1.325 10.604-3.523 1.16-.798 2.754-.278 3.085 1 .202.79-.067 1.66-.794 2.154-2.837 1.932-5.928 3.266-9.31 3.9-1.774.333-3.562.402-5.364.29-1.502-.09-2.938-.464-4.37-.872-1.665-.475-3.176-1.293-4.686-2.113-1.184-.788-2.356-1.595-3.424-2.544-1.416-1.257-2.682-2.65-3.743-4.22-.5-.74-.202-1.875.602-2.522.687-.553 1.71-.498 2.36.115.5.47.843 1.063 1.283 1.58.824.97 1.718 1.868 2.697 2.672 1.24 1.018 2.59 1.873 4.058 2.527.083.037.172.06.258.09zM27.064 26.777c-1.717-.007-3.146-1.4-3.11-3.097.04-1.682 1.274-3.18 3.15-3.144 1.813.035 3.115 1.348 3.115 3.15 0 1.772-1.234 3.094-3.156 3.09zM42.286 24.34c.45 1.097.44 2.158-.238 3.17-.982 1.464-3.14 1.804-4.518.71-.612-.575-1.044-1.238-1.164-2.1-.223-1.597.977-3.225 2.575-3.46 1.51-.22 2.577.433 3.346 1.68z" fill-rule="evenodd" clip-rule="evenodd" fill="#fff"/></g></svg>