<svg xmlns="http://www.w3.org/2000/svg" width="64" height="64" viewBox="0 0 64 64"><g><path d="M64 60c0 2.21-1.79 4-4 4H4c-2.21 0-4-1.79-4-4V4c0-2.21 1.79-4 4-4h56c2.21 0 4 1.79 4 4v56z" fill="#0D2636"/><path d="M47.345 41.826H36.15v-2.4c0-3.083 2.537-5.576 5.62-5.576 3.08 0 5.574 2.493 5.574 5.575v2.4zm-27.966-6.39c-2.222 0-3.99-1.768-3.99-3.988 0-2.222 1.77-3.99 3.99-3.99s3.988 1.77 3.988 3.99-1.768 3.988-3.99 3.988zm10.38-1.586c-2.63 0-4.807-2.175-4.807-4.804 0-2.675 2.177-4.804 4.806-4.804 2.673 0 4.803 2.13 4.803 4.804 0 2.628-2.13 4.804-4.804 4.804zm12.01-1.585c-3.082 0-5.62-2.54-5.62-5.622s2.538-5.62 5.62-5.62c3.082 0 5.62 2.538 5.62 5.62 0 3.082-2.538 5.622-5.62 5.622zm-18.402 9.56H15.39v-.77c0-2.22 1.768-4.033 3.988-4.033 2.176 0 3.99 1.813 3.99 4.034v.77zm6.39-6.39c2.63 0 4.805 2.18 4.805 4.806v1.587h-9.61V40.24c0-2.627 2.177-4.804 4.806-4.804z" fill="#fff"/></g></svg>