<svg xmlns="http://www.w3.org/2000/svg" width="64" height="64" viewBox="0 0 64 64"><g><path d="M64 60c0 2.21-1.79 4-4 4H4c-2.21 0-4-1.79-4-4V4c0-2.21 1.79-4 4-4h56c2.21 0 4 1.79 4 4v56z" fill="#CA2028"/><path d="M32.66 15.69c-8.733 0-13.138 6.262-13.138 11.484 0 3.16 1.197 5.973 3.764 7.02.42.174.798.007.92-.46.086-.32.286-1.135.376-1.474.123-.46.075-.622-.265-1.024-.74-.873-1.214-2.002-1.214-3.604 0-4.645 3.476-8.803 9.05-8.803 4.937 0 7.648 3.015 7.648 7.042 0 5.3-2.345 9.773-5.826 9.773-1.923 0-3.362-1.59-2.9-3.54.55-2.33 1.62-4.84 1.62-6.523 0-1.504-.808-2.76-2.478-2.76-1.966 0-3.545 2.035-3.545 4.758 0 1.735.587 2.91.587 2.91l-2.364 10.015c-.702 2.973-.105 6.616-.055 6.983.03.22.31.27.438.106.18-.237 2.523-3.126 3.317-6.016.227-.817 1.293-5.052 1.293-5.052.64 1.22 2.506 2.29 4.49 2.29 5.908 0 9.918-5.387 9.918-12.596 0-5.45-4.617-10.53-11.635-10.53z" fill="#fff"/></g></svg>