<svg xmlns="http://www.w3.org/2000/svg" width="64" height="64" viewBox="0 0 64 64"><g><path d="M64 60c0 2.21-1.79 4-4 4H4c-2.21 0-4-1.79-4-4V4c0-2.21 1.79-4 4-4h56c2.21 0 4 1.79 4 4v56z" fill="#E84621"/><path d="M25.514 31.583c1.36 0 2.474 1.115 2.474 2.473 0 1.36-1.114 2.44-2.474 2.44s-2.44-1.08-2.44-2.44c-.002-1.357 1.08-2.473 2.44-2.473zm12.305 0c-1.36 0-2.442 1.115-2.442 2.473 0 1.36 1.082 2.44 2.44 2.44s2.476-1.08 2.476-2.44c0-1.357-1.115-2.473-2.475-2.473zM24.78 40.433c-.557-.42-.627-1.185-.21-1.708.386-.557 1.187-.627 1.71-.21 1.394 1.08 3.626 1.674 5.403 1.674 1.743 0 3.976-.594 5.404-1.674.52-.418 1.29-.348 1.707.21.42.522.314 1.288-.208 1.707-1.813 1.43-4.64 2.23-6.903 2.23-2.3 0-5.09-.802-6.903-2.23zm18.06-13.447c-2.72-1.568-6.137-2.543-9.902-2.752l1.987-5.887 5.37 1.568c0 2.37 1.917 4.285 4.287 4.285s4.324-1.916 4.324-4.285c0-2.404-1.954-4.32-4.324-4.32-1.5 0-2.823.802-3.59 1.95l-6.52-1.88c-.628-.208-1.29.14-1.5.767l-2.614 7.803c-3.73.21-7.146 1.185-9.865 2.75-.873-.938-2.16-1.53-3.59-1.53-2.72 0-4.916 2.193-4.916 4.91 0 1.847 1.045 3.45 2.544 4.285-.068.42-.103.837-.103 1.256 0 6.443 7.74 11.67 17.257 11.67 9.482 0 17.223-5.227 17.223-11.67 0-.42-.035-.836-.104-1.256 1.534-.835 2.545-2.438 2.545-4.284 0-2.717-2.197-4.912-4.916-4.912-1.43 0-2.687.59-3.593 1.532zm-11.156-.315c8.122 0 14.747 4.112 14.747 9.234 0 5.085-6.624 9.195-14.746 9.195-8.157 0-14.78-4.11-14.78-9.196-.002-5.12 6.622-9.233 14.78-9.233zm16.35 5.54c-.697-1.393-1.744-2.682-3.103-3.797.418-.313.94-.523 1.5-.523 1.36 0 2.44 1.116 2.44 2.474 0 .732-.314 1.394-.836 1.846zM18.4 28.414c-1.358 1.115-2.405 2.404-3.103 3.797-.522-.452-.836-1.114-.836-1.845 0-1.358 1.117-2.474 2.44-2.474.595 0 1.118.21 1.5.524zm26.182-6.654c-1.01 0-1.847-.836-1.847-1.846 0-1.046.836-1.847 1.847-1.847 1.012 0 1.85.8 1.85 1.847 0 1.01-.838 1.846-1.85 1.846z" fill="#fff"/></g></svg>