<svg xmlns="http://www.w3.org/2000/svg" width="64" height="64" viewBox="0 0 64 64"><g><path d="M64 60c0 2.21-1.79 4-4 4H4c-2.21 0-4-1.79-4-4V4c0-2.21 1.79-4 4-4h56c2.21 0 4 1.79 4 4v56z" fill="#EF4E23"/><path d="M44.5 31.977v6c0 1.105-.895 2-2 2s-2-.895-2-2v-6l-3 1-3-1v6c0 4.418 3.582 8 8 8s8-3.582 8-8v-6h-6zM34.5 29.977l3-1 3 1v-4c0-4.418-3.582-8-8-8s-8 3.582-8 8v12c0 1.105-.895 2-2 2s-2-.895-2-2v-6h-6v6c0 4.418 3.582 8 8 8s8-3.582 8-8v-12c0-1.105.895-2 2-2s2 .895 2 2v4z" fill="#fff"/></g></svg>