<svg xmlns="http://www.w3.org/2000/svg" width="64" height="64" viewBox="0 0 64 64"><g><path d="M64 60c0 2.207-1.793 4-4 4H4c-2.207 0-4-1.793-4-4V4c0-2.207 1.793-4 4-4h56c2.207 0 4 1.793 4 4v56z" fill="#44546A"/><path d="M38.87 47.094c-1.28 0-2.413-.297-3.41-.895-.753-.446-1.46-1.387-1.46-2.2V28h10v-8H34V10h-8v4c0 4.418-3.582 8-8 8v6h6v16c0 2.053-.063 3.656.3 4.568.433 1.082.97 2.043 2.083 3.006 1.115.955 1.996 1.53 3.574 2.045 1.725.57 3.55.78 5.44.78 1.806 0 3.485-.182 5.04-.545S44.133 52.768 46 51.6v-7c-2.215 1.72-4.86 2.494-7.13 2.494z" fill="#fff"/></g></svg>