<svg xmlns="http://www.w3.org/2000/svg" width="64" height="64" viewBox="0 0 64 64"><g><path d="M64 60c0 2.207-1.793 4-4 4H4c-2.207 0-4-1.793-4-4V4c0-2.207 1.793-4 4-4h56c2.207 0 4 1.793 4 4v56z" fill="#55ACEE"/><path d="M51.975 19.787c-1.473.645-3.05 1.074-4.715 1.27 1.7-.995 3-2.577 3.61-4.462-1.58.922-3.34 1.594-5.208 1.957C44.166 16.982 42.035 16 39.676 16c-4.53 0-8.2 3.613-8.2 8.076 0 .627.07 1.25.208 1.844-6.813-.344-12.857-3.56-16.904-8.44-.703 1.192-1.11 2.58-1.11 4.063 0 2.797 1.452 5.27 3.647 6.72-1.342-.044-2.61-.407-3.713-1.013-.002.033-.002.068-.002.104 0 3.91 2.828 7.178 6.58 7.92-.686.18-1.41.285-2.162.285-.527 0-1.04-.05-1.54-.146 1.04 3.207 4.067 5.54 7.657 5.61-2.797 2.163-6.336 3.456-10.18 3.456-.66 0-1.314-.037-1.957-.113 3.63 2.29 7.94 3.627 12.574 3.627 15.082 0 23.332-12.31 23.332-22.982 0-.346-.01-.7-.023-1.04 1.6-1.144 2.992-2.566 4.092-4.185z" fill="#fff"/></g></svg>