<svg xmlns="http://www.w3.org/2000/svg" width="64" height="64" viewBox="0 0 64 64"><g><path d="M64 60c0 2.21-1.79 4-4 4H4c-2.21 0-4-1.79-4-4V4c0-2.21 1.79-4 4-4h56c2.21 0 4 1.79 4 4v56z" fill="#00B286"/><path d="M36.304 22.5c0-2.393 4.81-3.63 4.81.416-.015 2.22-.32 4.27-.81 6.146h5c.38-2.266.365-4.506.365-7.143 0-7.43-14.003-8.667-14.003.745 0 6.61 3.182 10.088 6.508 11.92-2.77 5.322-6.508 8.225-6.508 8.225-10.457-8.338-9.445-22.457-9.445-22.457h-4.557c.086 19.074 10.377 25.76 11.643 26.752s1.52.908 3.037.824c1.516-.083 4.975-3.47 9.19-9.905.407-.625.772-1.22 1.105-1.8 1.766.388 3.03.396 3.03.396v-4.046c-8.86-.826-9.366-8.256-9.366-10.074z" fill="#fff"/></g></svg>