<svg xmlns="http://www.w3.org/2000/svg" width="64" height="64" viewBox="0 0 64 64"><g><path d="M64 60c0 2.21-1.79 4-4 4H4c-2.21 0-4-1.79-4-4V4c0-2.21 1.79-4 4-4h56c2.21 0 4 1.79 4 4v56z" fill="#4C75A3"/><path d="M31.823 41.027h1.913s.577-.064.873-.38c.27-.294.262-.84.262-.84s-.037-2.567 1.154-2.946c1.174-.37 2.682 2.48 4.28 3.58 1.208.83 2.126.647 2.126.647l4.273-.06s2.236-.138 1.176-1.896c-.086-.144-.617-1.3-3.176-3.675-2.68-2.488-2.32-2.086.906-6.39 1.966-2.618 2.752-4.218 2.507-4.903-.234-.652-1.68-.48-1.68-.48l-4.814.03s-.355-.048-.62.11c-.258.154-.425.516-.425.516s-.762 2.027-1.777 3.752c-2.14 3.637-3 3.83-3.35 3.604-.813-.525-.61-2.115-.61-3.242 0-3.527.535-4.998-1.04-5.377-.524-.127-.91-.21-2.248-.225-1.716-.018-3.17.006-3.99.408-.55.27-.97.865-.713.9.317.043 1.037.195 1.42.715.49.67.475 2.178.475 2.178s.284 4.15-.663 4.665c-.646.354-1.537-.367-3.448-3.668-.98-1.69-1.717-3.56-1.717-3.56s-.143-.35-.396-.536c-.307-.226-.738-.298-.738-.298l-4.573.03s-.687.02-.938.317c-.226.265-.02.813-.02.813s3.58 8.375 7.634 12.596c3.718 3.873 7.937 3.617 7.937 3.617z" fill="#fff"/></g></svg>