<svg xmlns="http://www.w3.org/2000/svg" width="90" height="90" viewBox="0 0 90 90"><g><circle cx="48" cy="53" r="32" fill="#22303A"/><path d="M22.42 72.224C28.257 79.982 37.542 85 48 85c17.672 0 32-14.326 32-32 0-7.574-2.638-14.53-7.037-20.01L22.42 72.223z" fill="#091924"/><path d="M37.223 68.992h9.574l6.087-18.322h8.837l5.41-8.748H32.64l-2.513 4.58 2.512 4.168H43.31l-6.087 18.322z" fill="#fff"/><path d="M40.343 15.806s.81.37 1.275.8c.23.213.58.88.908 1.504.105 1.086 1.816 1.59 2.12 2.368.1.26.044.55-.28.898-2.35.44-4.754.79-6.957 1.453-.442.132-.876.277-1.302.438-.514.14-1.004.31-1.48.506-.48.198-.936.42-1.38.672-4.636 2.215-7.46 5.854-10.585 9.35-.316.24-.635.477-.957.714-.97-.107-1.18-.352-1.182-.655 0-.305.213-.672.094-1.025-.148-.443-.715-1.043-1.156-1.504-.262-.274-.48-.495-.54-.604-.163-.293-.962-2.822.288-3.973 0 0 .61.945 1.998.725.46-.074 1.008-.277 1.648-.69.818-1.538 2.7-1.89 4.473-3.01.384-.186.772-.36 1.167-.53 1.18-.504 2.408-.952 3.715-1.455.45-.228.89-.457 1.334-.684 2.215-1.14 4.398-2.287 6.914-3.51.385-.196.625-.314.625-.314l-.742-1.476z" fill="#F2F2F2"/><path d="M40.595 15.31c.25.117.488.21.766.398l.403.256.2.133.048.033.026.017.07.075.004.005.008.01.06.083c.162.23.33.406.484.687l.465.79.074.25c.067.065.014.122.108.205.032.04.06.08.086.12l.148.133c.083.09.23.183.348.278l.42.302c.16.13.305.212.48.383l.253.247c.09.12.174.254.25.39l.056.1.05.178.03.13c.026.188.006.52-.057.66-.058.142-.126.32-.203.42l-.237.312-.133.176-.29.06-2.078.415c-.687.15-1.4.248-2.06.425l-2.013.48-.504.12c-.072.018-.195.044-.224.056l-.25.085-1.005.342-.05.016-.957.33-.43.15-.487.238-.945.453-.96.502c-.32.166-.646.332-.915.525l-.853.556c-.29.17-.557.41-.835.617l-.825.646c-.516.48-1.074.906-1.573 1.413-.51.49-1.02.984-1.51 1.508-.99 1.028-1.96 2.103-2.952 3.16l-.048.05-.033.024-.98.693-.184.13-.193-.03c-.213-.03-.428-.068-.657-.13-.23-.085-.5-.14-.775-.473-.14-.165-.187-.402-.19-.576.023-.22.026-.218.055-.36.06-.257.103-.397.085-.463 0-.018 0-.035.004-.055v-.004c.043.104.01.024.018.045l-.008-.018-.016-.034-.03-.066c-.044-.084-.084-.187-.13-.257-.103-.125-.154-.233-.287-.385-.12-.144-.235-.29-.368-.432l-.194-.216-.228-.268-.19-.225-.095-.113-.024-.028-.013-.015-.006-.007-.002-.003-.04-.065-.03-.067c-.104-.257-.14-.427-.193-.64-.092-.408-.15-.82-.164-1.242-.01-.42.022-.85.143-1.273.06-.21.15-.418.26-.615.118-.197.267-.37.433-.53l.236-.228.22.285c.063.08.17.204.282.28.108.094.24.154.367.218.138.042.27.103.418.11.143.03.29.032.44.015l.195-.012.243-.066.485-.135.823-.432-.088.096c.14-.202.27-.417.426-.605.18-.167.34-.36.535-.5.383-.292.793-.528 1.206-.737l1.234-.6c.408-.195.796-.416 1.18-.64l.02-.012h.005l1.216-.543 1.23-.474 2.46-.948-.015.007c2.963-1.498 5.916-3.01 8.857-4.542l-.106.32c-.246-.49-.51-.975-1.024-1.332l.75-.747zm.802 2.084l-.206.1c-2.974 1.47-5.944 2.95-8.888 4.475l-.007.003-.008.003-2.45.974-1.224.487-1.185.544.023-.012c-.398.24-.8.474-1.214.677l-1.22.61c-.398.207-.777.433-1.116.698-.174.127-.304.294-.46.438-.13.165-.234.346-.355.516l-.056.08-.033.016-.96.515-.482.145-.24.072c-.147.034-.2.022-.306.036-.186.022-.374.025-.563-.01-.19-.008-.373-.08-.557-.137-.174-.08-.353-.162-.504-.284-.08-.055-.153-.12-.223-.19-.075-.07-.13-.135-.206-.237l.456.058c-.113.122-.212.25-.29.397-.074.15-.134.308-.174.478-.08.337-.09.702-.063 1.066.03.365.1.732.2 1.087.046.165.116.376.165.48l.033.067-.036-.06v.002l.004.003.006.006.013.014.025.027.1.108.203.215.378.385c.142.138.28.294.42.446.136.137.293.365.43.55.064.094.1.175.15.263l.034.065.018.032.01.016.025.062.003.015.043.237c.048.324-.04.575-.057.698-.017.048-.026.248-.032.223.015.018-.002-.01-.004-.028-.025-.02.103.052.242.082.154.034.327.055.504.073l-.376.1.933-.73-.082.073c.93-1.1 1.843-2.216 2.81-3.312.473-.554.976-1.09 1.483-1.623.496-.542 1.056-1.037 1.59-1.548.28-.244.576-.474.864-.71.296-.23.563-.484.89-.69l.95-.648c.318-.232.634-.4.95-.574l.946-.525c.378-.203.66-.335.997-.505l.487-.236c.267-.118.388-.14.59-.215l1.094-.37-.05.015 1.005-.337.25-.084c.14-.047.19-.05.29-.076l.528-.125 2.115-.498c.708-.183 1.398-.284 2.1-.4l2.096-.343-.42.23c.026-.037.056-.072.088-.106.038-.038.012-.04.036-.053.005-.02-.024.126.024.144l-.027-.13-.005-.032-.003-.016-.002-.008v-.006c.067.224.02.062.033.11l-.014-.01c-.02-.017-.025-.035-.03-.063l-.126-.126c-.07-.084-.23-.192-.338-.29l-.43-.332c-.155-.13-.302-.238-.458-.41l-.227-.244-.207-.32c-.072-.102-.127-.222-.16-.367-.04-.137-.072-.276-.1-.413l.075.25-.313-.648c-.047-.126-.13-.256-.218-.386zM19.603 31.43s.254-.042.69-.146c.43-.104 1.042-.27 1.753-.517 2.863-2.053 7.154-3.048 9.742-5.87-3.998 1.528-6.29 4.876-9.752 6.973-.797.495-1.26.834-1.35.79-.39-.186-1.22-1.336-1.22-1.336" fill="#ccc"/><path d="M13.903 20.847s-4.46-7.21-4.16-8.595c.297-1.387 3.533-7.375 5.71-8.124s3.796-.58 5.835.347c2.04.927 11.54 4.578 14.8 6.886 3.265 2.31 5.14 5.69 5.456 6.124 0 0-.615.384-1.602.98-2.256.443-4.262 1.356-6.082 2.535-.365.234-.72.48-1.07.734-.33.338-.684.658-1.053.958-.37.304-.756.59-1.156.864-2.85 1.516-4.966 2.692-7.83 4.096-.69.256-1.28.447-1.74.566-.462.118-.792.164-.966.127-.69-.148-.924-.708-.816-1.608.113-.898-.168-1.81-.793-3.218-.63-1.405-2.305-3.603-2.873-3.668-.57-.065-1.66.995-1.66.995z" fill="#B31116"/><path d="M29.487 24.207c.447-.3.8-.524 1.154-.808.353-.282.704-.626 1.142-1.16.332-.336.646-.675.96-1.006 1.57-1.653 3.1-3.12 5.34-3.847.606-.317 1.17-.608 1.62-.776.453-.172.785-.226.938-.074.264.27.262.58.092.894-.168.313-.506.633-.914.925-1.93 1.08-3.896 2.172-5.87 3.334-.394.23-.79.466-1.192.7-.395.168-.857.397-1.307.646-.452.25-.89.518-1.235.76-.458.26-.728.41-.728.41zM21.288 4.475s-2.922.78-3.11 1.955c-.188 1.172-.302 2.07-.11 3.644.186 1.576 1.814 8.22 1.814 8.22s-.46.408-.596.026-.764-2.474-1.54-4.562c-.776-2.085-1.546-7.793-.376-8.787 1.297-1.098 2.463-1.06 2.463-1.06l1.455.565z" fill="#800000"/><path d="M13.04 6.992s1.63-.905 2.148.025c.518.935.373 3.835-.598 4.832-.973.997-3.486 3.683-3.896 3.224-.215-.244-.64-1.36-.9-2.218-.22-.722.23-1.414.363-1.687.242-.494 2.883-4.178 2.883-4.178z" fill="#B82025"/><path d="M19.228 26.736s.682-.833 1.168-1.33c.486-.498 1.71-1.866 2.467-2.285.76-.422 4.484-3.792 4.576-3.97.167-.32.364-.734-.605-.005-.908.682-1.256 1.03-2.242 1.73-.984.698-2.053 1.49-2.76 1.998l-.986.7s.22-.76.32-1.073c.3-.97.395-1.937.182-3.038-.09-.458-1.208-.702-1.314-.34-.105.363-1.652 2.52-1.29 3.308.16.346-.226 1.387.136 2.174.578 1.246.346 2.132.346 2.132z" fill="#800000"/><radialGradient id="a" cx="333.78" cy="-261.982" r="3.538" gradientTransform="matrix(.875 -.485 .485 .875 -148.038 411.747)" gradientUnits="userSpaceOnUse"><stop offset="0" stop-color="#F2F2F2"/><stop offset="1" stop-color="#B3B3B3"/></radialGradient><path d="M13.644 22.44c-1.008-1.88-.332-3.857 1.373-4.804 1.707-.946 4.092-.667 4.76 1.362.613 1.856.377 3.872-1.328 4.818-1.71.947-3.887.345-4.806-1.376z" fill="url(#a)" stroke="#B3B3B3" stroke-width="2" stroke-miterlimit="10"/><linearGradient id="b" gradientUnits="userSpaceOnUse" x1="336.573" y1="-266.1" x2="353.041" y2="-266.1" gradientTransform="matrix(.875 -.485 .485 .875 -148.038 411.747)"><stop offset="0" stop-color="#F2F2F2"/><stop offset="1" stop-color="#B3B3B3"/></linearGradient><path d="M21.286 23.157s3.96-2.555 7.236-5.367c2.412-2.074 4.2-3.84 4.594-5.468.24-1-.664-2.984-.664-2.984L21.288 4.475s-3.086.064-3.602 2.303c-.603 2.623 3.6 16.38 3.6 16.38z" opacity=".3" fill="url(#b)"/><path fill="none" d="M0 0h90v90H0z"/></g></svg>