<svg xmlns="http://www.w3.org/2000/svg" width="66.719" height="60.53" viewBox="0 0 66.719 60.53"><g><g><g><g><path d="M21.906 16.583l-2.813-3.438s.88-2.344 3.14-4.26C12.767 4.657-.248 10.032.004 6.494c.56-7.8 16.96-9.888 23.57 1.126 1.327-.77 3.142-1.126 5.175-1.184l3.142 3.63c2.757-.994 5.73-1.537 8.83-1.537 14.358 0 26 11.64 26 26s-11.642 26-26 26-26-11.642-26-26c0-6.96 2.733-13.28 7.186-17.947zM1.02 6.44C.897 8.142 12.58 4.1 22.815 8.09 18.894 1.278 10.402.82 9.62.862c-.78.043-8.17.717-8.6 5.578z" fill="#E02F2F"/><path d="M36.667 24.317l-1.194 3.72 4.566 4.626.07-6.5-3.443-1.846zm.487 1.206L36.4 27.66l2.964 3.333-.183-4.455-2.026-1.015zm7.79-1.133l-3.474 1.785-.043 6.5 4.646-4.547-1.128-3.738zm5.803 5.904L47.03 29.1 42.4 33.667l6.5.07 1.845-3.442zm-.072 8.278l-1.784-3.474-6.5-.043 4.547 4.646 3.738-1.128zm-5.904 5.802l1.195-3.718L41.4 36.03l-.07 6.5 3.44 1.844zm-8.278-.072l3.475-1.784.043-6.5-4.646 4.546 1.128 3.738zm-5.802-5.905l3.718 1.194 4.627-4.564-6.5-.07-1.845 3.44zm.073-8.277l1.784 3.474 6.5.043L34.5 28.99l-3.737 1.13zm13.675-4.533l-2.045.98-.26 4.45 3.02-3.28-.715-2.15zm5.104 5.194l-2.138-.753-3.333 2.964 4.457-.18 1.015-2.03zm-.063 7.284l-.98-2.044-4.453-.26 3.28 3.02 2.152-.716zm-5.197 5.105l.754-2.14-2.964-3.332.183 4.457 2.027 1.014zM37 43.104l2.045-.98.26-4.45-3.02 3.278.715 2.152zm-5.104-5.194l2.138.755 3.333-2.965-4.456.184-1.014 2.027zm.063-7.282l.978 2.045 4.453.26-3.28-3.02-2.15.715z" fill="#fff" fill-opacity=".3"/><path d="M40.72 14.53c.552 0 1-.447 1-1s-.448-1-1-1-1 .447-1 1 .446 1 1 1zm14.05 5.82c.392.392 1.025.392 1.416 0 .39-.39.39-1.022 0-1.413-.39-.39-1.024-.39-1.415 0s-.39 1.023 0 1.414zm5.822 14.053c0 .552.447 1 1 1 .552 0 1-.448 1-1 0-.553-.448-1-1-1-.553 0-1 .448-1 1zm-5.82 14.05c-.392.392-.392 1.025 0 1.415.39.39 1.023.39 1.414 0 .39-.39.39-1.023 0-1.414-.39-.39-1.025-.39-1.415 0zm-14.053 5.82c-.554 0-1 .45-1 1 0 .554.446 1 1 1s1-.446 1-1c0-.55-.45-1-1-1zm-14.053-5.82c-.39-.39-1.024-.39-1.415 0-.39.392-.39 1.025 0 1.415.39.39 1.024.39 1.415 0 .39-.39.39-1.023 0-1.414zm-5.82-14.05c0-.553-.448-1-1-1-.553 0-1 .447-1 1 0 .552.447 1 1 1 .55 0 1-.448 1-1zm5.82-14.052c.39-.39.39-1.022 0-1.413s-1.024-.39-1.415 0c-.39.39-.39 1.023 0 1.414.39.39 1.024.39 1.415 0z" fill="#fff" fill-opacity=".3"/><path d="M33.006 28.054l.06.06s.708.708 1.415 0 0-1.413 0-1.413l-.06-.06v-4.914s0-1-1-1-1 1-1 1v2.914l-1.505-1.506v-2.457s0-.5-.5-.5-.5.5-.5.5v1.457l-1.09-1.09s-.708-.708-1.415 0 0 1.413 0 1.413l1.09 1.09h-1.457s-.5 0-.5.5.5.5.5.5H29.5l1.506 1.507h-2.914s-1 0-1 1 1 1 1 1h4.914zm-2.195 7.3h.087s1 0 1-1-1-1-1-1h-.086l-3.474-3.477s-.707-.707-1.414 0c-.707.708 0 1.415 0 1.415l2.06 2.06h-2.128l-1.736-1.737s-.354-.354-.707 0 0 .707 0 .707l1.03 1.03h-1.543s-1 0-1 1 1 1 1 1h1.543l-1.03 1.03s-.353.354 0 .707.708 0 .708 0l1.736-1.737h2.13l-2.062 2.06s-.707.708 0 1.415 1.414 0 1.414 0l3.475-3.475zm3.61 6.71l.06-.06s.708-.708 0-1.415-1.413 0-1.413 0l-.06.06H28.09s-1 0-1 1 1 1 1 1h2.914L29.5 44.155h-2.457s-.5 0-.5.5.5.5.5.5H28.5l-1.09 1.092s-.707.707 0 1.414 1.414 0 1.414 0l1.09-1.09v1.457s0 .5.5.5.5-.5.5-.5V45.57l1.506-1.505v2.914s0 1 1 1 1-1 1-1v-4.915zm7.3 2.196v-.086s0-1-1-1-1 1-1 1v.086l-3.476 3.475s-.707.707 0 1.414 1.414 0 1.414 0l2.06-2.062v2.13l-1.736 1.736s-.354.354 0 .707.707 0 .707 0l1.03-1.03v1.544s0 1 1 1 1-1 1-1V50.63l1.03 1.03s.353.355.706 0 0-.706 0-.706l-1.737-1.737v-2.13l2.06 2.062s.707.707 1.414 0c.707-.708 0-1.415 0-1.415L41.72 44.26zm6.712-3.61l-.06-.06s-.708-.708-1.415 0 0 1.414 0 1.414l.06.06v4.915s0 1 1 1 1-1 1-1v-2.915l1.506 1.505v2.457s0 .5.5.5.5-.5.5-.5V46.57l1.09 1.09s.708.708 1.415 0 0-1.413 0-1.413l-1.09-1.092h1.457s.5 0 .5-.5-.5-.5-.5-.5h-2.458l-1.505-1.505h2.914s1 0 1-1-1-1-1-1h-4.914zm2.195-7.297h-.086s-1 0-1 1 1 1 1 1h.087l3.475 3.475s.707.707 1.414 0 0-1.414 0-1.414l-2.06-2.06h2.128l1.736 1.735s.354.353.707 0 0-.708 0-.708l-1.03-1.03h1.544s1 0 1-1-1-1-1-1H57l1.03-1.03s.353-.354 0-.707-.708 0-.708 0l-1.736 1.738h-2.13l2.062-2.06s.707-.708 0-1.416c-.707-.707-1.414 0-1.414 0l-3.475 3.476zm-3.61-6.713l-.06.06s-.707.707 0 1.414 1.414 0 1.414 0l.062-.06h4.914s1 0 1-1-1-1-1-1h-2.914l1.505-1.507h2.458s.5 0 .5-.5-.5-.5-.5-.5h-1.458l1.09-1.09s.708-.708 0-1.415-1.413 0-1.413 0l-1.09 1.09v-1.456s0-.5-.5-.5-.5.5-.5.5v2.457l-1.506 1.506v-2.915s0-1-1-1-1 1-1 1v4.915zm-7.298-2.196v.086s0 1 1 1 1-1 1-1v-.086l3.474-3.475s.707-.708 0-1.415-1.414 0-1.414 0l-2.06 2.06v-2.128l1.736-1.737s.354-.354 0-.707-.707 0-.707 0l-1.03 1.03V16.53s0-1-1-1-1 1-1 1v1.543l-1.03-1.03s-.355-.354-.708 0 0 .707 0 .707l1.737 1.737v2.13l-2.062-2.062s-.707-.707-1.414 0 0 1.414 0 1.414l3.475 3.474z" fill="#fff" fill-opacity=".3"/></g></g><g><path d="M38.953 32.25c.85-.853.923-2.034.923-2.7 0-2.66-1.59-6.8-4.657-6.8-.962 0-1.996.48-2.59 1.22-.626.777-.812 1.773-.812 2.734 0 2.477 1.44 6.58 4.62 6.58.924 0 1.922-.444 2.515-1.035zm-1.073 7.02c-.296-.036-.48-.036-.85-.036-.333 0-2.33.074-3.88.592-.814.295-3.18 1.182-3.18 3.807 0 2.623 2.55 4.508 6.505 4.508 3.548 0 5.433-1.698 5.433-3.99 0-1.886-1.22-2.883-4.028-4.88zm10.84-3.74h-4v-2h4v-4h2v4h4v2h-4v4h-2v-4zm-8.216-12.67c.85.703 2.625 2.18 2.625 4.99 0 2.734-1.554 4.028-3.106 5.248-.48.48-1.035.998-1.035 1.81 0 .814.554 1.26.96 1.59l1.33 1.034c1.628 1.367 3.105 2.625 3.105 5.176 0 3.473-3.363 6.984-9.72 6.984-5.358 0-7.946-2.55-7.946-5.285 0-1.33.665-3.215 2.846-4.51 2.29-1.404 5.396-1.587 7.058-1.7-.517-.665-1.107-1.368-1.107-2.512 0-.628.185-1 .37-1.442-.408.037-.814.074-1.185.074-3.916 0-6.134-2.92-6.134-5.803 0-1.7.775-3.585 2.364-4.952 2.107-1.736 4.62-2.032 6.615-2.032h7.613l-2.365 1.33h-2.29z" fill="#fff"/></g></g></g></svg>