<svg xmlns="http://www.w3.org/2000/svg" width="66.719" height="60.53" viewBox="0 0 66.719 60.53"><g><g><g><g><path d="M21.906 16.583l-2.813-3.438s.88-2.344 3.14-4.26C12.768 4.657-.246 10.032.004 6.494c.56-7.8 16.96-9.888 23.57 1.126 1.327-.77 3.142-1.126 5.175-1.184l3.143 3.63c2.757-.994 5.73-1.537 8.83-1.537 14.358 0 26 11.64 26 26s-11.642 26-26 26-26-11.642-26-26c0-6.96 2.733-13.28 7.186-17.947zM1.02 6.44C.897 8.142 12.58 4.1 22.815 8.09 18.894 1.278 10.402.82 9.62.862c-.778.043-8.17.717-8.6 5.578z" fill="#E84621"/><path d="M37.668 24.317l-1.195 3.72 4.566 4.626.07-6.5-3.442-1.846zm.486 1.205l-.754 2.14 2.965 3.33-.184-4.454-2.026-1.016zm7.79-1.132l-3.474 1.785-.043 6.5 4.646-4.547-1.128-3.738zm5.804 5.904l-3.72-1.193-4.626 4.566 6.5.07 1.846-3.442zm-.072 8.278l-1.785-3.474-6.5-.043L47.94 39.7l3.738-1.128zm-5.905 5.802l1.194-3.718-4.566-4.626-.07 6.5 3.443 1.844zm-8.278-.072l3.475-1.784.043-6.5-4.646 4.546 1.128 3.738zm-5.8-5.905l3.716 1.194 4.627-4.564-6.5-.07-1.844 3.44zm.072-8.277l1.783 3.474 6.5.043-4.545-4.646-3.738 1.13zm13.674-4.533l-2.045.98-.26 4.45 3.02-3.28-.715-2.15zm5.105 5.194l-2.14-.753-3.33 2.964 4.454-.18 1.016-2.03zm-.064 7.284l-.98-2.044-4.453-.26 3.28 3.02 2.152-.716zm-5.197 5.105l.754-2.14-2.963-3.332.182 4.457 2.027 1.014zM38 43.104l2.045-.98.262-4.45-3.02 3.278.713 2.152zm-5.104-5.194l2.137.755 3.334-2.965-4.457.184-1.014 2.027zm.063-7.282l.978 2.045 4.453.26-3.278-3.02-2.153.715z" fill="#fff" fill-opacity=".3"/><path d="M41.72 14.53c.552 0 1-.447 1-1s-.448-1-1-1-1 .447-1 1 .446 1 1 1zm14.05 5.82c.392.392 1.024.392 1.415 0s.39-1.022 0-1.413-1.023-.39-1.414 0-.39 1.023 0 1.414zm5.822 14.053c0 .552.447 1 1 1s1-.448 1-1c0-.553-.447-1-1-1s-1 .448-1 1zm-5.82 14.05c-.392.392-.392 1.025 0 1.415.39.39 1.022.39 1.413 0 .39-.39.39-1.023 0-1.414s-1.023-.39-1.414 0zm-14.053 5.82c-.554 0-1 .45-1 1 0 .554.446 1 1 1s1-.446 1-1c0-.55-.45-1-1-1zm-14.052-5.82c-.39-.39-1.025-.39-1.416 0-.39.392-.39 1.025 0 1.415.39.39 1.025.39 1.416 0 .39-.39.39-1.023 0-1.414zm-5.822-14.05c0-.553-.447-1-1-1-.55 0-1 .447-1 1 0 .552.45 1 1 1 .552 0 1-.448 1-1zm5.822-14.052c.39-.39.39-1.022 0-1.413s-1.025-.39-1.416 0c-.39.39-.39 1.023 0 1.414.39.39 1.025.39 1.416 0z" fill="#fff" fill-opacity=".3"/><path d="M34.006 28.054l.06.06s.708.708 1.415 0 0-1.413 0-1.413l-.06-.06v-4.914s0-1-1-1-1 1-1 1v2.914l-1.504-1.506v-2.457s0-.5-.5-.5-.5.5-.5.5v1.457l-1.092-1.09s-.707-.708-1.414 0 0 1.413 0 1.413l1.092 1.09h-1.46s-.5 0-.5.5.5.5.5.5h2.46l1.504 1.507h-2.914s-1 0-1 1 1 1 1 1h4.914zm-2.195 7.3h.087s1 0 1-1-1-1-1-1h-.086l-3.474-3.477s-.707-.707-1.414 0c-.707.708 0 1.415 0 1.415l2.06 2.06h-2.128l-1.736-1.737s-.354-.354-.707 0 0 .707 0 .707l1.03 1.03h-1.543s-1 0-1 1 1 1 1 1h1.543l-1.03 1.03s-.353.354 0 .707.708 0 .708 0l1.736-1.737h2.13l-2.062 2.06s-.707.708 0 1.415 1.414 0 1.414 0l3.475-3.475zm3.61 6.71l.06-.06s.708-.708 0-1.415-1.413 0-1.413 0l-.06.06H29.09s-1 0-1 1 1 1 1 1h2.914l-1.504 1.505h-2.46s-.5 0-.5.5.5.5.5.5h1.46l-1.092 1.092s-.707.707 0 1.414 1.414 0 1.414 0l1.092-1.09v1.457s0 .5.5.5.5-.5.5-.5V45.57l1.504-1.505v2.914s0 1 1 1 1-1 1-1v-4.915zm7.3 2.196v-.086s0-1-1-1-1 1-1 1v.086l-3.476 3.475s-.707.707 0 1.414 1.414 0 1.414 0l2.06-2.062v2.13l-1.735 1.736s-.354.354 0 .707.707 0 .707 0l1.03-1.03v1.544s0 1 1 1 1-1 1-1V50.63l1.03 1.03s.354.355.707 0 0-.706 0-.706l-1.738-1.737v-2.13l2.06 2.062s.707.707 1.414 0c.707-.708 0-1.415 0-1.415L42.72 44.26zm6.712-3.61l-.06-.06s-.708-.708-1.415 0 0 1.414 0 1.414l.06.06v4.915s0 1 1 1 1-1 1-1v-2.915l1.507 1.505v2.457s0 .5.5.5.5-.5.5-.5V46.57l1.09 1.09s.707.708 1.414 0 0-1.413 0-1.413l-1.09-1.092h1.457s.5 0 .5-.5-.5-.5-.5-.5h-2.457l-1.506-1.505h2.914s1 0 1-1-1-1-1-1h-4.914zm2.195-7.297h-.086s-1 0-1 1 1 1 1 1h.087l3.475 3.475s.707.707 1.414 0 0-1.414 0-1.414l-2.06-2.06h2.128l1.736 1.735s.354.353.707 0 0-.708 0-.708l-1.03-1.03h1.544s1 0 1-1-1-1-1-1H58l1.03-1.03s.353-.354 0-.707-.708 0-.708 0l-1.736 1.738h-2.13l2.062-2.06s.707-.708 0-1.416c-.707-.707-1.414 0-1.414 0l-3.475 3.476zm-3.61-6.713l-.06.06s-.707.707 0 1.414 1.414 0 1.414 0l.062-.06h4.914s1 0 1-1-1-1-1-1h-2.914l1.506-1.507h2.457s.5 0 .5-.5-.5-.5-.5-.5h-1.457l1.09-1.09s.707-.708 0-1.415-1.414 0-1.414 0l-1.09 1.09v-1.456s0-.5-.5-.5-.5.5-.5.5v2.457l-1.506 1.506v-2.915s0-1-1-1-1 1-1 1v4.915zm-7.298-2.196v.086s0 1 1 1 1-1 1-1v-.086l3.474-3.475s.707-.708 0-1.415-1.414 0-1.414 0l-2.06 2.06v-2.128l1.737-1.737s.354-.354 0-.707-.707 0-.707 0l-1.03 1.03V16.53s0-1-1-1-1 1-1 1v1.543l-1.03-1.03s-.354-.354-.707 0 0 .707 0 .707l1.736 1.737v2.13l-2.062-2.062s-.707-.707-1.414 0 0 1.414 0 1.414l3.475 3.474z" fill="#fff" fill-opacity=".3"/></g></g><g><g><path d="M57.713 31.753v.002c.004.07.006.143.006.212 0 .787-.25 1.544-.665 2.186-.39.6-.924 1.104-1.54 1.444.038.313.062.63.062.943 0 1.695-.578 3.36-1.582 4.695h-.002c-1.86 2.503-4.71 3.98-7.592 4.723l-.003.002c-1.535.377-3.12.57-4.703.57-2.36 0-4.72-.43-6.92-1.324v-.003h-.003c-2.282-.952-4.456-2.466-5.79-4.684-.717-1.185-1.11-2.572-1.11-3.968 0-.315.02-.632.063-.944-.602-.342-1.12-.828-1.508-1.407-.412-.622-.674-1.352-.707-2.122V32.065c0-1.08.465-2.103 1.184-2.857.72-.754 1.705-1.246 2.76-1.246h.043c.11-.008.223-.012.334-.012.528 0 1.06.086 1.563.282l.004.002h.002c.43.185.86.406 1.24.712.123-.064.258-.14.41-.197 2.31-1.386 4.996-1.92 7.615-2.075.02-1.313.182-2.688.814-3.89.524-1 1.438-1.778 2.528-2.048l.004-.002.006-.002c.414-.08.832-.118 1.248-.118 1.105 0 2.2.265 3.223.68.45-.692 1.1-1.232 1.856-1.535l.006-.004.008-.003c.445-.14.916-.223 1.387-.223.498 0 1 .092 1.47.305v-.002c0 .002.003.002.003.002l.008.004c.674.26 1.244.747 1.648 1.35.406.607.645 1.333.645 2.08 0 .138-.007.275-.022.413l-.002.003c0 .002 0 .005-.002.007-.078.965-.56 1.813-1.244 2.416-.688.604-1.578.97-2.492.97-.146 0-.295-.008-.44-.027-.907-.07-1.753-.514-2.374-1.174s-1.023-1.542-1.023-2.493c0-.046.005-.094.007-.14-.852-.383-1.754-.7-2.652-.7-.13 0-.26.008-.39.02-.673.066-1.298.496-1.6 1.113v.002c-.462.906-.554 1.967-.567 3.018 2.578.17 5.17.797 7.443 2.12h.005l.033.02c.043.026.123.07.195.108.156-.128.32-.26.51-.373.69-.465 1.506-.696 2.322-.696.363 0 .727.046 1.078.137l.016.005c.003 0 .007.003.013.003.832.215 1.584.698 2.15 1.35.566.654.947 1.48 1.02 2.38v-.002zm-4.164 4.86c0-1.167-.417-2.34-1.09-3.284-1.343-1.893-3.427-3.126-5.595-3.814l-.015-.005c-.416-.13-.836-.243-1.26-.34-1.266-.294-2.564-.44-3.86-.44-1.743 0-3.485.262-5.153.782-2.166.696-4.258 1.922-5.598 3.82v.002c-.68.947-1.077 2.124-1.077 3.296 0 .43.053.862.166 1.282.244.942.72 1.783 1.338 2.516.617.734 1.373 1.36 2.17 1.87.178.11.354.217.535.32 2.313 1.308 4.977 1.88 7.62 1.88.448 0 .9-.016 1.343-.05 2.664-.222 5.338-1.017 7.5-2.644v-.002c.69-.515 1.326-1.138 1.83-1.848.506-.71.877-1.502 1.04-2.363l.003-.002c.066-.32.1-.646.1-.974zm-3.43-13.4c0 .036.003.072.005.108v.008c.018.453.23.875.55 1.187.323.313.75.505 1.187.507h.012c.03.003.063.003.094.003.438 0 .873-.19 1.2-.502.33-.313.544-.736.562-1.193l.002-.002v-.005c.002-.034.004-.067.004-.104 0-.472-.217-.92-.56-1.252-.337-.332-.794-.538-1.243-.536-.145 0-.29.02-.43.064H51.5l-.007.002c-.37.098-.717.33-.967.637-.253.307-.405.684-.405 1.08zM31.1 30.208c-.344-.162-.7-.278-1.053-.276-.06 0-.117.004-.178.01h-.016c-.506.016-1.016.238-1.398.596s-.637.838-.656 1.37v.003l-.002.004c-.003.043-.005.086-.005.127 0 .328.1.645.27.933.124.214.286.41.472.58.59-1.31 1.513-2.422 2.566-3.346zm24.552 1.76c0-.282-.064-.564-.205-.827l-.004-.004v-.004c-.187-.39-.48-.687-.837-.888-.354-.202-.77-.306-1.186-.306-.377 0-.752.086-1.084.254 1.057.93 1.984 2.048 2.584 3.363.193-.17.357-.38.48-.61.164-.3.253-.64.253-.977z" fill="#fff"/><path d="M47.248 38.68c-.162-.094-.35-.15-.55-.15-.16 0-.325.04-.474.128-1.398.732-3.045 1.134-4.678 1.134-1.227 0-2.443-.228-3.547-.702l-.007-.003-.006-.002c-.166-.06-.355-.187-.563-.308-.105-.06-.215-.12-.338-.162-.12-.046-.254-.077-.396-.077-.117 0-.242.023-.363.072l-.02.007c-.19.064-.342.182-.44.322-.1.144-.15.31-.15.478 0 .15.042.302.126.438.08.13.203.243.363.32 1.578.933 3.436 1.356 5.3 1.354 1.68 0 3.372-.342 4.878-.963l.008-.005.008-.004c.197-.103.463-.195.71-.33.124-.07.243-.148.347-.252.104-.103.186-.23.232-.38.02-.066.028-.13.028-.195 0-.122-.035-.24-.092-.343-.08-.158-.218-.286-.378-.378z" fill="#fff"/><path d="M36.72 32.53c-1.105 0-2 .888-2 2 0 1.104.888 2 2 2 1.104 0 2-.888 2-2 0-1.104-.888-2-2-2zm10 0c-1.105 0-2 .888-2 2 0 1.104.888 2 2 2 1.104 0 2-.888 2-2 0-1.104-.888-2-2-2z" fill="#fff"/></g></g></g></g></svg>