<svg xmlns="http://www.w3.org/2000/svg" width="66.719" height="60.53" viewBox="0 0 66.719 60.53"><g><g><g><g><path d="M21.906 16.583l-2.813-3.438s.88-2.344 3.14-4.26C12.768 4.657-.246 10.032.004 6.494c.56-7.8 16.96-9.888 23.57 1.126 1.327-.77 3.142-1.126 5.175-1.184l3.143 3.63c2.757-.994 5.73-1.537 8.83-1.537 14.358 0 26 11.64 26 26s-11.642 26-26 26-26-11.642-26-26c0-6.96 2.733-13.28 7.186-17.947zM1.02 6.44C.897 8.142 12.58 4.1 22.815 8.09 18.894 1.278 10.402.82 9.62.862c-.778.043-8.17.717-8.6 5.578z" fill="#B81E00"/><path d="M36.668 24.317l-1.195 3.72 4.566 4.626.07-6.5-3.442-1.846zm.486 1.206L36.4 27.66l2.965 3.333-.184-4.455-2.026-1.015zm7.79-1.133l-3.474 1.785-.043 6.5 4.646-4.547-1.128-3.738zm5.804 5.904l-3.72-1.193-4.626 4.566 6.5.07 1.846-3.442zm-.072 8.278l-1.785-3.474-6.5-.043L46.94 39.7l3.738-1.128zm-5.905 5.802l1.194-3.718-4.566-4.626-.07 6.5 3.443 1.844zm-8.278-.072l3.475-1.784.043-6.5-4.646 4.546 1.128 3.738zm-5.8-5.905l3.716 1.194 4.627-4.564-6.5-.07-1.844 3.44zm.072-8.277l1.783 3.474 6.5.043-4.545-4.646-3.738 1.13zm13.674-4.533l-2.045.98-.26 4.45 3.02-3.28-.715-2.15zm5.105 5.194l-2.14-.753-3.33 2.964 4.454-.18 1.016-2.03zm-.064 7.284l-.98-2.044-4.453-.26 3.28 3.02 2.152-.716zm-5.197 5.105l.754-2.14-2.963-3.332.182 4.457 2.027 1.014zM37 43.104l2.045-.98.262-4.45-3.02 3.278.713 2.152zm-5.104-5.194l2.137.755 3.334-2.965-4.457.184-1.014 2.027zm.063-7.282l.978 2.045 4.453.26-3.278-3.02-2.153.715z" fill="#fff" fill-opacity=".3"/><path d="M40.72 14.53c.552 0 1-.447 1-1s-.448-1-1-1-1 .447-1 1 .446 1 1 1zm14.05 5.82c.392.392 1.024.392 1.415 0s.39-1.022 0-1.413-1.023-.39-1.414 0-.39 1.023 0 1.414zm5.822 14.053c0 .552.447 1 1 1s1-.448 1-1c0-.553-.447-1-1-1s-1 .448-1 1zm-5.82 14.05c-.392.392-.392 1.025 0 1.415.39.39 1.022.39 1.413 0 .39-.39.39-1.023 0-1.414s-1.023-.39-1.414 0zm-14.053 5.82c-.554 0-1 .45-1 1 0 .554.446 1 1 1s1-.446 1-1c0-.55-.45-1-1-1zm-14.052-5.82c-.39-.39-1.025-.39-1.416 0-.39.392-.39 1.025 0 1.415.39.39 1.025.39 1.416 0 .39-.39.39-1.023 0-1.414zm-5.822-14.05c0-.553-.447-1-1-1-.55 0-1 .447-1 1 0 .552.45 1 1 1 .552 0 1-.448 1-1zm5.822-14.052c.39-.39.39-1.022 0-1.413s-1.025-.39-1.416 0c-.39.39-.39 1.023 0 1.414.39.39 1.025.39 1.416 0z" fill="#fff" fill-opacity=".3"/><path d="M33.006 28.054l.06.06s.708.708 1.415 0 0-1.413 0-1.413l-.06-.06v-4.914s0-1-1-1-1 1-1 1v2.914l-1.504-1.506v-2.457s0-.5-.5-.5-.5.5-.5.5v1.457l-1.092-1.09s-.707-.708-1.414 0 0 1.413 0 1.413l1.092 1.09h-1.46s-.5 0-.5.5.5.5.5.5h2.46l1.504 1.507h-2.914s-1 0-1 1 1 1 1 1h4.914zm-2.195 7.3h.087s1 0 1-1-1-1-1-1h-.086l-3.474-3.477s-.707-.707-1.414 0c-.707.708 0 1.415 0 1.415l2.06 2.06h-2.128l-1.736-1.737s-.354-.354-.707 0 0 .707 0 .707l1.03 1.03h-1.543s-1 0-1 1 1 1 1 1h1.543l-1.03 1.03s-.353.354 0 .707.708 0 .708 0l1.736-1.737h2.13l-2.062 2.06s-.707.708 0 1.415 1.414 0 1.414 0l3.475-3.475zm3.61 6.71l.06-.06s.708-.708 0-1.415-1.413 0-1.413 0l-.06.06H28.09s-1 0-1 1 1 1 1 1h2.914l-1.504 1.505h-2.46s-.5 0-.5.5.5.5.5.5h1.46l-1.092 1.092s-.707.707 0 1.414 1.414 0 1.414 0l1.092-1.09v1.457s0 .5.5.5.5-.5.5-.5V45.57l1.504-1.505v2.914s0 1 1 1 1-1 1-1v-4.915zm7.3 2.196v-.086s0-1-1-1-1 1-1 1v.086l-3.476 3.475s-.707.707 0 1.414 1.414 0 1.414 0l2.06-2.062v2.13l-1.735 1.736s-.354.354 0 .707.707 0 .707 0l1.03-1.03v1.544s0 1 1 1 1-1 1-1V50.63l1.03 1.03s.354.355.707 0 0-.706 0-.706l-1.738-1.737v-2.13l2.06 2.062s.707.707 1.414 0c.707-.708 0-1.415 0-1.415L41.72 44.26zm6.712-3.61l-.06-.06s-.708-.708-1.415 0 0 1.414 0 1.414l.06.06v4.915s0 1 1 1 1-1 1-1v-2.915l1.507 1.505v2.457s0 .5.5.5.5-.5.5-.5V46.57l1.09 1.09s.707.708 1.414 0 0-1.413 0-1.413l-1.09-1.092h1.457s.5 0 .5-.5-.5-.5-.5-.5h-2.457l-1.506-1.505h2.914s1 0 1-1-1-1-1-1h-4.914zm2.195-7.297h-.086s-1 0-1 1 1 1 1 1h.087l3.475 3.475s.707.707 1.414 0 0-1.414 0-1.414l-2.06-2.06h2.128l1.736 1.735s.354.353.707 0 0-.708 0-.708l-1.03-1.03h1.544s1 0 1-1-1-1-1-1H57l1.03-1.03s.353-.354 0-.707-.708 0-.708 0l-1.736 1.738h-2.13l2.062-2.06s.707-.708 0-1.416c-.707-.707-1.414 0-1.414 0l-3.475 3.476zm-3.61-6.713l-.06.06s-.707.707 0 1.414 1.414 0 1.414 0l.062-.06h4.914s1 0 1-1-1-1-1-1h-2.914l1.506-1.507h2.457s.5 0 .5-.5-.5-.5-.5-.5h-1.457l1.09-1.09s.707-.708 0-1.415-1.414 0-1.414 0l-1.09 1.09v-1.456s0-.5-.5-.5-.5.5-.5.5v2.457l-1.506 1.506v-2.915s0-1-1-1-1 1-1 1v4.915zm-7.298-2.196v.086s0 1 1 1 1-1 1-1v-.086l3.474-3.475s.707-.708 0-1.415-1.414 0-1.414 0l-2.06 2.06v-2.128l1.737-1.737s.354-.354 0-.707-.707 0-.707 0l-1.03 1.03V16.53s0-1-1-1-1 1-1 1v1.543l-1.03-1.03s-.354-.354-.707 0 0 .707 0 .707l1.736 1.737v2.13l-2.062-2.062s-.707-.707-1.414 0 0 1.414 0 1.414l3.475 3.474z" fill="#fff" fill-opacity=".3"/></g></g><g><g><path d="M50.873 33.53h-20.31c-3.228 0-5.845 2.383-5.845 5.59v5.6c0 3.208 2.617 5.81 5.846 5.81h20.31c3.228 0 5.845-2.6 5.845-5.81v-5.555c0-3.208-2.618-5.635-5.847-5.635z" fill="#fff"/><path d="M34.547 38.083h-1.96v9.05h-1.892v-9.05h-1.957v-1.54h5.81v1.54zm5.016 9.438h-1.678v-.856c-.313.317-.633.56-.97.723-.337.17-.66.25-.976.25-.392 0-.68-.115-.88-.35-.195-.234-.295-.58-.295-1.047v-6.533h1.68V45.7c0 .186.035.318.104.4.07.085.187.124.345.124.12 0 .28-.054.467-.163.19-.11.363-.25.52-.42v-5.935h1.68v7.816zm7.037-1.828c0 .55-.13.976-.395 1.27-.262.297-.645.657-1.143.657-.33 0-1.094-.056-1.35-.17-.256-.114-.498-.288-.72-.53v.6h-1.696V36.714h1.697v3.626c.23-.235.47-.418.72-.54.257-.127.985-.188 1.247-.188.53 0 .938-.05 1.217.283.28.334.422.82.422 1.46v4.337zm6.107-2.02h-3.213v1.473c0 .41.055.696.164.856.113.16.3.237.57.237.277 0 .473-.066.584-.202.11-.136.166-.43.166-.892v-.355h1.73v.4c0 .802-.21 1.405-.634 1.813-.418.403-1.047.605-1.885.605-.755 0-1.347-.214-1.778-.645-.43-.426-.648-1.018-.648-1.77v-3.51c0-.676.238-1.23.713-1.657.477-.427 1.086-.64 1.84-.64.77 0 1.36.198 1.773.593.412.396.617.964.617 1.704v1.993zm-2.463-2.92c-.27 0-.46.07-.576.216-.117.137-.174.37-.174.7v.79h1.484v-.79c0-.33-.06-.564-.176-.7-.114-.147-.304-.217-.558-.217zm-6.547.102c-.12 0-.238.023-.355.075-.117.05-.232.132-.346.238v4.867c.135.126.268.222.396.278.13.054.264.084.406.084.207 0 .828-.056.924-.168.096-.11.146-.288.146-.538v-4.035c0-.266-.06-.465-.178-.602-.12-.134-.766-.2-.993-.2z" fill="#B81E00"/><path d="M45.807 31.59c.342 0 .695-.1 1.057-.288.367-.192.717-.474 1.05-.84v.996h1.823v-9.006h-1.824v6.836c-.168.196-.357.357-.56.484-.206.127-.376.19-.51.19-.17 0-.296-.048-.37-.146-.076-.095-.12-.248-.12-.46v-6.904h-1.817v7.527c0 .535.107.937.318 1.202.214.27.53.407.953.407zm-5.364.096c.828 0 1.477-.22 1.95-.657.472-.442.708-1.043.708-1.814v-4.654c0-.685-.24-1.25-.72-1.685-.482-.434-1.102-.652-1.855-.652-.828 0-1.488.206-1.98.62-.49.413-.733.967-.733 1.666v4.67c0 .767.238 1.372.717 1.826.478.452 1.115.68 1.913.68zm-.755-7.244c0-.196.068-.354.207-.478.14-.12.32-.18.543-.18.24 0 .436.06.584.18.148.124.223.28.223.478v4.906c0 .24-.072.432-.22.57s-.34.206-.59.206c-.24 0-.425-.065-.554-.204-.128-.135-.192-.324-.192-.572v-4.906zm-6.465 7.016h2.053v-5.783l2.39-7.145h-2.087l-1.27 4.88h-.13l-1.334-4.88H30.78l2.442 7.372v5.556z" fill="#fff"/></g></g></g></g></svg>