<?xml version="1.0" encoding="utf-8"?>
<!-- Generator: Adobe Illustrator 16.0.0, SVG Export Plug-In . SVG Version: 6.00 Build 0)  -->
<!DOCTYPE svg PUBLIC "-//W3C//DTD SVG 1.1//EN" "http://www.w3.org/Graphics/SVG/1.1/DTD/svg11.dtd">
<svg version="1.1" xmlns="http://www.w3.org/2000/svg" xmlns:xlink="http://www.w3.org/1999/xlink" x="0px" y="0px"
	 width="107.39258px" height="107.33789px" viewBox="0 0 107.39258 107.33789" enable-background="new 0 0 107.39258 107.33789"
	 xml:space="preserve">
<g id="Layer_1">
</g>
<g id="social_market">
</g>
<g id="set2">
</g>
<g id="Layer_5">
</g>
<g id="Layer_6">
	<g>
		<circle fill="none" stroke="#323031" stroke-miterlimit="10" cx="53.69629" cy="53.66895" r="53.24805"/>
		<g>
			<path fill="#323031" d="M82.01562,55.6377c-0.36035,1.0127-0.9375,2.05078-1.6875,2.80762
				c-7.2793,7.36426-14.60547,14.68262-21.93945,21.98535c-2.68945,2.67285-6.85938,2.66602-9.55273-0.01074
				c-7.33691-7.30566-14.6543-14.62695-21.95801-21.96777c-2.68164-2.69043-2.69336-6.85742-0.0166-9.54883
				c7.30371-7.33691,14.62305-14.65625,21.95898-21.96484c2.61523-2.60352,6.73633-2.73633,9.34766-0.21484
				c3.41309,3.29102,6.71191,6.69531,10.06445,10.05273C63.25,41.75,58.30664,46.68066,53.32812,51.6377
				c-2.11523-2.10742-4.27832-4.2666-6.43945-6.42969c-2.72852-2.73145-5.68945-2.73535-8.41406-0.01562
				c-1.29395,1.29395-2.59375,2.58008-3.88086,3.88281c-2.25488,2.28125-2.27734,5.42871-0.0166,7.70215
				c4.96973,4.99707,9.95312,9.99121,14.94336,14.97168c2.33496,2.33105,5.46777,2.31641,7.82129-0.03711
				c7.38965-7.38379,14.76953-14.77148,22.14941-22.15918c0.23145-0.23047,0.42285-0.51074,0.61328-0.75
				C81.98926,50.13281,82.88477,53.19141,82.01562,55.6377z M53.49805,56.62891c-0.125-0.00684-0.25391-0.01855-0.38281-0.03223
				c-0.18555-0.27344-0.33789-0.58105-0.56543-0.80859c-2.80957-2.83203-5.62988-5.65918-8.4541-8.47559
				c-1.01367-1.0127-2.04785-1.0166-3.05957-0.01855c-1.36621,1.3457-2.72168,2.71289-4.07715,4.07227
				c-1.06836,1.07812-1.08008,2.06055-0.02148,3.11914c4.93555,4.95312,9.875,9.90234,14.81641,14.8457
				c1.01953,1.02148,2.05273,1.0332,3.06641,0.02148C63.81934,60.35645,72.8125,51.3584,81.7998,42.35449
				c0.9873-0.98828,0.97168-1.98438-0.01758-2.98828c-1.28027-1.30566-2.58301-2.5957-3.87598-3.89062
				c-1.3418-1.34375-2.22266-1.34375-3.57031,0.00781c-6.75,6.74609-13.48828,13.49414-20.23145,20.25
				C53.85742,55.9873,53.69824,56.33496,53.49805,56.62891z"/>
		</g>
	</g>
</g>
<g id="Twitter_Logo_Silhouette_designed_by_Elegant_Themes_from_Flaticon.com">
</g>
</svg>
