<?xml version="1.0" encoding="utf-8"?>
<!-- Generator: Adobe Illustrator 16.0.0, SVG Export Plug-In . SVG Version: 6.00 Build 0)  -->
<!DOCTYPE svg PUBLIC "-//W3C//DTD SVG 1.1//EN" "http://www.w3.org/Graphics/SVG/1.1/DTD/svg11.dtd">
<svg version="1.1" xmlns="http://www.w3.org/2000/svg" xmlns:xlink="http://www.w3.org/1999/xlink" x="0px" y="0px"
	 width="107.39258px" height="107.33789px" viewBox="0 0 107.39258 107.33789" enable-background="new 0 0 107.39258 107.33789"
	 xml:space="preserve">
<g id="Layer_1">
</g>
<g id="social_market">
</g>
<g id="set2">
</g>
<g id="Layer_5">
</g>
<g id="Layer_6">
	<g>
		<circle fill="none" stroke="#323031" stroke-miterlimit="10" cx="53.66309" cy="53.66895" r="53.24805"/>
		<g>
			<g>
				<g>
					<path fill="#323031" d="M56.07324,31.47559H42.32812c-6.15918,0-11.95801,4.66992-11.95801,10.07812
						c0,5.52539,4.2002,9.98828,10.4707,9.98828l1.27441-0.03906c-0.40723,0.77734-0.69922,1.6543-0.69922,2.56641
						c0,1.53711,0.82715,2.78125,1.87109,3.79688l-2.38379,0.02539c-7.63379-0.00391-13.50781,4.86328-13.50781,9.90039
						c0,4.9668,6.44238,8.07031,14.07324,8.07031c8.7002,0,13.50781-4.93945,13.50781-9.90234
						c0-3.98047-1.17578-6.36719-4.80762-8.93555c-1.24023-0.87891-3.61816-3.01758-3.61816-4.27539
						c0-1.47266,0.41992-2.19922,2.63965-3.93359c2.27246-1.77539,3.88184-4.27344,3.88184-7.17773
						c0-3.45703-1.54004-6.82812-4.43262-7.9375h4.35742L56.07324,31.47559z M51.27637,65.10449
						c0.1084,0.46094,0.16699,0.92969,0.16699,1.41992c0,4.01562-2.58398,7.14648-10.00098,7.14648
						c-5.27734,0-9.08594-3.33789-9.08594-7.34961c0-3.93164,4.72559-7.20117,10.00195-7.14844
						c1.23145,0.01562,2.38086,0.20898,3.4209,0.54688C48.64258,61.70801,50.69824,62.83301,51.27637,65.10449z M42.82812,50.13965
						c-3.54297-0.10547-6.9082-3.96289-7.51953-8.61328c-0.61035-4.65234,1.7627-8.21094,5.30273-8.10547
						s6.9082,3.83789,7.51855,8.48828C48.74414,46.56152,46.36719,50.24512,42.82812,50.13965z"/>
					<polygon fill="#323031" points="70.08008,41.21777 70.08008,31.47559 66.79688,31.47559 66.79688,41.21777 56.94629,41.21777 
						56.94629,44.50098 66.79688,44.50098 66.79688,54.45996 70.08008,54.45996 70.08008,44.50098 79.93066,44.50098 
						79.93066,41.21777 					"/>
				</g>
			</g>
		</g>
	</g>
</g>
<g id="Twitter_Logo_Silhouette_designed_by_Elegant_Themes_from_Flaticon.com">
</g>
</svg>
