<?xml version="1.0" encoding="utf-8"?>
<!-- Generator: Adobe Illustrator 16.0.0, SVG Export Plug-In . SVG Version: 6.00 Build 0)  -->
<!DOCTYPE svg PUBLIC "-//W3C//DTD SVG 1.1//EN" "http://www.w3.org/Graphics/SVG/1.1/DTD/svg11.dtd">
<svg version="1.1" xmlns="http://www.w3.org/2000/svg" xmlns:xlink="http://www.w3.org/1999/xlink" x="0px" y="0px"
	 width="107.39258px" height="107.33789px" viewBox="0 0 107.39258 107.33789" enable-background="new 0 0 107.39258 107.33789"
	 xml:space="preserve">
<g id="Layer_1">
</g>
<g id="social_market">
</g>
<g id="set2">
</g>
<g id="Layer_5">
</g>
<g id="Layer_6">
	<g>
		<circle fill="none" stroke="#323031" stroke-miterlimit="10" cx="53.66309" cy="53.66895" r="53.24805"/>
		<g>
			<path fill="#323031" d="M70.87891,30.03613H36.44727c-3.53809,0-6.41797,2.87891-6.41797,6.41602v34.43164
				c0,3.53906,2.87988,6.41797,6.41797,6.41797h34.43164c3.53809,0,6.41797-2.87891,6.41797-6.41797V36.45215
				C77.29688,32.91504,74.41699,30.03613,70.87891,30.03613z M53.66309,65.21582c-5.82812,0-10.57031-4.74219-10.57031-10.57031
				c0-5.83008,4.74219-10.57031,10.57031-10.57031S64.2334,48.81543,64.2334,54.64551
				C64.2334,60.47363,59.49121,65.21582,53.66309,65.21582z M73.29395,46.84277h-9.5498
				c-2.41113-2.88672-6.03516-4.72656-10.08105-4.72656s-7.66992,1.83984-10.08105,4.72656h-9.5498v-9.17969
				c0-2.33203,1.89746-4.23047,4.22949-4.23047h30.80273c2.33203,0,4.22949,1.89844,4.22949,4.23047V46.84277L73.29395,46.84277z"/>
			<path fill="#323031" d="M53.66309,46.87305c-3.74707,0-6.7959,3.04883-6.7959,6.7959s3.04883,6.7959,6.7959,6.7959
				s6.7959-3.04883,6.7959-6.7959S57.41016,46.87305,53.66309,46.87305z"/>
			<path fill="#323031" d="M55.70703,49.92871h-4.08984c-0.93457,0-1.69434,0.76074-1.69434,1.69531v4.08984
				c0,0.93555,0.75977,1.69531,1.69434,1.69531h4.08984c0.93555,0,1.69629-0.75977,1.69629-1.69531v-4.08984
				C57.40332,50.68945,56.64258,49.92871,55.70703,49.92871z"/>
		</g>
	</g>
</g>
<g id="Twitter_Logo_Silhouette_designed_by_Elegant_Themes_from_Flaticon.com">
</g>
</svg>
