<?xml version="1.0" encoding="utf-8"?>
<!-- Generator: Adobe Illustrator 16.0.0, SVG Export Plug-In . SVG Version: 6.00 Build 0)  -->
<!DOCTYPE svg PUBLIC "-//W3C//DTD SVG 1.1//EN" "http://www.w3.org/Graphics/SVG/1.1/DTD/svg11.dtd">
<svg version="1.1" xmlns="http://www.w3.org/2000/svg" xmlns:xlink="http://www.w3.org/1999/xlink" x="0px" y="0px"
	 width="107.39258px" height="107.33789px" viewBox="0 0 107.39258 107.33789" enable-background="new 0 0 107.39258 107.33789"
	 xml:space="preserve">
<g id="Layer_1">
</g>
<g id="social_market">
</g>
<g id="set2">
</g>
<g id="Layer_5">
</g>
<g id="Layer_6">
	<g>
		<circle fill="none" stroke="#323031" stroke-miterlimit="10" cx="53.69629" cy="53.58008" r="53.24707"/>
		<g>
			<g>
				<path fill="#323031" d="M83.02832,60.73535c-1.19531-1.71289-3.5498-2.13379-5.2627-0.94043
					C50.125,79.06055,31.35547,52.88281,30.57031,51.75879c-1.19043-1.71094-3.54297-2.13672-5.25586-0.9502
					c-1.71875,1.18945-2.14648,3.54297-0.95703,5.26172c0.41797,0.60352,10.42773,14.81836,27.16211,17.83398
					c2.06738,0.37305,4.14062,0.55859,6.2168,0.55859c8.10938,0,16.27539-2.83398,24.35156-8.46387
					C83.80176,64.80469,84.22266,62.44922,83.02832,60.73535z"/>
				<circle fill="#323031" cx="66.95117" cy="42.85791" r="6.02588"/>
				<circle fill="#323031" cx="44.0293" cy="38.72314" r="6.02588"/>
			</g>
		</g>
	</g>
</g>
<g id="Twitter_Logo_Silhouette_designed_by_Elegant_Themes_from_Flaticon.com">
</g>
</svg>
