<?xml version="1.0" encoding="utf-8"?>
<!-- Generator: Adobe Illustrator 16.0.0, SVG Export Plug-In . SVG Version: 6.00 Build 0)  -->
<!DOCTYPE svg PUBLIC "-//W3C//DTD SVG 1.1//EN" "http://www.w3.org/Graphics/SVG/1.1/DTD/svg11.dtd">
<svg version="1.1" xmlns="http://www.w3.org/2000/svg" xmlns:xlink="http://www.w3.org/1999/xlink" x="0px" y="0px"
	 width="107.39258px" height="107.33789px" viewBox="0 0 107.39258 107.33789" enable-background="new 0 0 107.39258 107.33789"
	 xml:space="preserve">
<g id="Layer_1">
</g>
<g id="social_market">
</g>
<g id="set2">
</g>
<g id="Layer_5">
</g>
<g id="Layer_6">
	<g>
		<circle fill="none" stroke="#323031" stroke-miterlimit="10" cx="53.66309" cy="53.58008" r="53.24805"/>
		<g>
			<path id="Myspace__x28_alt_x29__3_" fill="#323031" d="M66.08594,44.49023c-5.03125,0-9.11133-4.07031-9.11133-9.08887
				s4.08008-9.09082,9.11133-9.09082c5.0293,0,9.10938,4.07227,9.10938,9.09082S71.11523,44.49023,66.08594,44.49023
				L66.08594,44.49023z M58.63281,53.24902c0-5.02148-4.07812-9.08887-9.11133-9.08887s-9.10938,4.06738-9.10938,9.08887
				c0,0.20605,0.01562,0.40527,0.03125,0.60645h-0.03125v15.75391h18.2207V53.85547h-0.0332
				C58.61523,53.6543,58.63281,53.45508,58.63281,53.24902L58.63281,53.24902z M49.52148,42.94531
				c3.68945,0,6.67969-2.98242,6.67969-6.66406c0-3.67871-2.99219-6.66406-6.67969-6.66406s-6.67969,2.98535-6.67969,6.66406
				C42.8418,39.96289,45.83398,42.94531,49.52148,42.94531L49.52148,42.94531z M78.50781,58.53906
				c0-6.84766-5.56055-12.39648-12.42188-12.39648s-12.42188,5.54785-12.42188,12.39648c0,0.2793,0.02148,0.55176,0.03906,0.82422
				h-0.03906v21.48633h24.84375V59.36328H78.4668C78.48633,59.09082,78.50781,58.81836,78.50781,58.53906L78.50781,58.53906z
				 M36.27148,43.16797c-4.11914,0-7.45312,3.32715-7.45312,7.43555c0,0.16797,0.01172,0.33203,0.02344,0.49805h-0.02344v12.89062
				h14.90625V51.10156h-0.02539c0.01172-0.16504,0.02539-0.33008,0.02539-0.49609
				C43.72461,46.49512,40.38867,43.16797,36.27148,43.16797L36.27148,43.16797z M36.27148,42.17676
				c3.01758,0,5.46484-2.44238,5.46484-5.4541s-2.44727-5.45312-5.46484-5.45312s-5.4668,2.44141-5.4668,5.45312
				S33.25195,42.17676,36.27148,42.17676L36.27148,42.17676z"/>
		</g>
	</g>
</g>
<g id="Twitter_Logo_Silhouette_designed_by_Elegant_Themes_from_Flaticon.com">
</g>
</svg>
