<?xml version="1.0" encoding="utf-8"?>
<!-- Generator: Adobe Illustrator 16.0.0, SVG Export Plug-In . SVG Version: 6.00 Build 0)  -->
<!DOCTYPE svg PUBLIC "-//W3C//DTD SVG 1.1//EN" "http://www.w3.org/Graphics/SVG/1.1/DTD/svg11.dtd">
<svg version="1.1" xmlns="http://www.w3.org/2000/svg" xmlns:xlink="http://www.w3.org/1999/xlink" x="0px" y="0px"
	 width="107.39258px" height="107.33789px" viewBox="0 0 107.39258 107.33789" enable-background="new 0 0 107.39258 107.33789"
	 xml:space="preserve">
<g id="Layer_1">
</g>
<g id="social_market">
</g>
<g id="set2">
</g>
<g id="Layer_5">
</g>
<g id="Layer_6">
	<g>
		<circle fill="none" stroke="#323031" stroke-miterlimit="10" cx="53.66309" cy="53.58008" r="53.24805"/>
		<g>
			<g>
				<g>
					<path fill="#323031" d="M77.44629,39.84766c-1.69141-12.22754-13.875-18.45312-26.87695-16.99609
						c-10.2793,1.15234-20.52734,9.46289-20.95312,21.34766c-0.25977,7.25391,1.79883,12.69531,8.70117,14.22656
						c2.99023-5.29004-0.96289-6.44727-1.58008-10.2793c-2.5332-15.66211,18.06641-26.35742,28.85547-15.41406
						c7.4707,7.58008,2.54883,30.88281-9.48633,28.45898c-11.52734-2.31348,5.64648-20.86328-3.55273-24.50293
						c-7.48047-2.96191-11.45117,9.0498-7.9043,15.02051c-2.08203,10.26758-6.55859,19.93555-4.74609,32.80859
						c5.87695-4.26953,7.86133-12.43359,9.48633-20.95215c2.95508,1.79785,4.53711,3.6582,8.30273,3.94824
						C71.58301,68.5918,79.35254,53.64648,77.44629,39.84766z"/>
				</g>
			</g>
		</g>
	</g>
</g>
<g id="Twitter_Logo_Silhouette_designed_by_Elegant_Themes_from_Flaticon.com">
</g>
</svg>
