<?xml version="1.0" encoding="utf-8"?>
<!-- Generator: Adobe Illustrator 16.0.0, SVG Export Plug-In . SVG Version: 6.00 Build 0)  -->
<!DOCTYPE svg PUBLIC "-//W3C//DTD SVG 1.1//EN" "http://www.w3.org/Graphics/SVG/1.1/DTD/svg11.dtd">
<svg version="1.1" xmlns="http://www.w3.org/2000/svg" xmlns:xlink="http://www.w3.org/1999/xlink" x="0px" y="0px"
	 width="107.39258px" height="107.33789px" viewBox="0 0 107.39258 107.33789" enable-background="new 0 0 107.39258 107.33789"
	 xml:space="preserve">
<g id="Layer_1">
</g>
<g id="social_market">
</g>
<g id="set2">
</g>
<g id="Layer_5">
</g>
<g id="Layer_6">
	<g>
		<circle fill="none" stroke="#323031" stroke-miterlimit="10" cx="53.66309" cy="53.58008" r="53.24805"/>
		<g>
			<path fill="#323031" d="M60.97266,46.07031h7.91309v-3.48242c0-6.55469-5.33203-11.88867-11.8877-11.88867
				s-11.8877,5.33398-11.8877,11.88867v21.98438c0,2.19141-1.7832,3.97461-3.97461,3.97461s-3.97363-1.7832-3.97363-3.97461V54.3125
				h-7.91406v10.25977c0,6.55469,5.33203,11.88867,11.8877,11.88867s11.88867-5.33398,11.88867-11.88867V42.58789
				c0-2.19141,1.78223-3.97461,3.97363-3.97461s3.97461,1.7832,3.97461,3.97461V46.07031z"/>
			<path fill="#323031" d="M76.73047,54.4375v10.13477c0,2.19141-1.78223,3.97461-3.97363,3.97461s-3.97461-1.7832-3.97461-3.97461
				V54.3125h-7.91406v10.25977c0,6.55469,5.33301,11.88867,11.88867,11.88867s11.8877-5.33398,11.8877-11.88867V54.4375H76.73047z"
				/>
		</g>
	</g>
</g>
<g id="Twitter_Logo_Silhouette_designed_by_Elegant_Themes_from_Flaticon.com">
</g>
</svg>
