<?xml version="1.0" encoding="utf-8"?>
<!-- Generator: Adobe Illustrator 16.0.0, SVG Export Plug-In . SVG Version: 6.00 Build 0)  -->
<!DOCTYPE svg PUBLIC "-//W3C//DTD SVG 1.1//EN" "http://www.w3.org/Graphics/SVG/1.1/DTD/svg11.dtd">
<svg version="1.1" xmlns="http://www.w3.org/2000/svg" xmlns:xlink="http://www.w3.org/1999/xlink" x="0px" y="0px"
	 width="107.39258px" height="107.33789px" viewBox="0 0 107.39258 107.33789" enable-background="new 0 0 107.39258 107.33789"
	 xml:space="preserve">
<g id="Layer_1">
</g>
<g id="social_market">
</g>
<g id="set2">
</g>
<g id="Layer_5">
</g>
<g id="Layer_6">
	<g>
		<circle fill="none" stroke="#323031" stroke-miterlimit="10" cx="53.66309" cy="53.58008" r="53.24805"/>
		<g>
			<g>
				<path fill="#323031" d="M80.29102,50.36133c0.97949-1.26562,1.75684-2.2832,2.33105-3.04883
					C86.75781,41.81641,88.55078,38.30273,88,36.77148l-0.21582-0.35742C87.6416,36.19922,87.27051,36,86.67383,35.82031
					c-0.59863-0.17969-1.3623-0.20703-2.29395-0.08789l-10.32715,0.07031c-0.23926-0.02344-0.47754-0.01562-0.7168,0.01758
					c-0.24023,0.03711-0.39453,0.07422-0.4668,0.10742c-0.07324,0.03711-0.13184,0.06641-0.18066,0.0918l-0.1416,0.10547
					c-0.12109,0.07227-0.25098,0.19727-0.39453,0.37695s-0.2627,0.38867-0.35938,0.62695
					c-1.12305,2.89258-2.40137,5.58203-3.83691,8.07031c-0.88379,1.48047-1.69727,2.76562-2.4375,3.85352
					s-1.3623,1.88867-1.86426,2.40039c-0.50195,0.51562-0.95605,0.92969-1.36328,1.23828
					c-0.40625,0.3125-0.71582,0.44336-0.93066,0.39453c-0.21582-0.04688-0.41895-0.0957-0.60938-0.14258
					c-0.33496-0.2168-0.60449-0.50781-0.80664-0.87891c-0.2041-0.36914-0.34082-0.83594-0.41406-1.39844
					c-0.07129-0.56055-0.11426-1.04688-0.125-1.45312c-0.01172-0.40625-0.00488-0.97852,0.01953-1.7207
					c0.02344-0.74219,0.03418-1.24219,0.03418-1.50586c0-0.9082,0.01953-1.89258,0.05469-2.95898
					c0.03613-1.0625,0.06543-1.90625,0.08984-2.52734c0.02344-0.62109,0.03516-1.2793,0.03516-1.97266
					c0-0.69141-0.04102-1.23633-0.12695-1.63086c-0.08203-0.39453-0.20898-0.77734-0.37402-1.14648
					c-0.16895-0.37109-0.41309-0.6582-0.73633-0.86133s-0.72363-0.36328-1.20117-0.48438
					c-1.26758-0.28711-2.88086-0.44141-4.84082-0.4668c-4.44727-0.04492-7.30273,0.24219-8.57031,0.86133
					c-0.50195,0.26367-0.95605,0.62109-1.36328,1.07617c-0.42871,0.52734-0.48828,0.81445-0.17773,0.85938
					c1.43457,0.2168,2.4502,0.73047,3.04785,1.54492l0.21582,0.42773c0.16602,0.3125,0.33301,0.86133,0.50098,1.65039
					s0.27441,1.66016,0.32422,2.61719c0.11914,1.74609,0.11914,3.23828,0,4.48242c-0.12012,1.24414-0.2334,2.21094-0.3418,2.9043
					c-0.10742,0.69141-0.26953,1.25391-0.4834,1.68359c-0.21484,0.43164-0.3584,0.69336-0.43164,0.79102
					c-0.07031,0.09375-0.13086,0.1543-0.17773,0.17773c-0.31152,0.11914-0.63281,0.17969-0.96875,0.17969
					c-0.33496,0-0.74023-0.16797-1.21973-0.50391c-0.47754-0.33203-0.97363-0.79297-1.48633-1.37891
					c-0.51562-0.58398-1.09375-1.4043-1.73926-2.45703c-0.64648-1.05078-1.31641-2.29492-2.00977-3.72852l-0.57227-1.04102
					c-0.3584-0.66797-0.84766-1.64258-1.46973-2.91992c-0.62207-1.2793-1.17188-2.51562-1.64941-3.71094
					c-0.19141-0.50195-0.47852-0.88477-0.86133-1.14844l-0.17871-0.10742c-0.11914-0.0957-0.31055-0.19727-0.57324-0.30469
					c-0.26465-0.10742-0.53711-0.18555-0.8252-0.23438l-9.8252,0.07227c-1.00293,0-1.68555,0.22656-2.04297,0.68359
					l-0.14355,0.21289c-0.07227,0.12109-0.1084,0.3125-0.1084,0.57422c0,0.26367,0.07227,0.58594,0.21582,0.96875
					c1.43457,3.37109,2.99414,6.62109,4.67871,9.75195c1.68652,3.13086,3.15039,5.6543,4.39355,7.56641
					c1.24219,1.91406,2.50977,3.71875,3.7998,5.41602c1.29199,1.69727,2.14648,2.7832,2.56445,3.26172
					c0.41797,0.47656,0.74609,0.83594,0.98535,1.07617l0.89551,0.86133c0.57422,0.57422,1.41895,1.25977,2.5293,2.06055
					c1.11133,0.80078,2.3418,1.5918,3.69434,2.36523c1.34961,0.77734,2.92188,1.41016,4.71387,1.90234
					c1.79297,0.48828,3.53711,0.6875,5.23438,0.58984h4.12402c0.83691-0.07031,1.4707-0.33203,1.90039-0.78711l0.14355-0.17969
					c0.09473-0.14258,0.18457-0.36328,0.26953-0.66211c0.08203-0.29883,0.12598-0.62891,0.12598-0.98633
					c-0.02539-1.0293,0.05371-1.95703,0.23242-2.7793c0.17871-0.82422,0.38184-1.44531,0.60938-1.86523
					c0.22656-0.41797,0.48438-0.76953,0.77246-1.05859c0.28516-0.28711,0.48828-0.45898,0.6084-0.51758
					c0.11914-0.05859,0.21582-0.10156,0.28711-0.12695c0.57227-0.19141,1.24805-0.00586,2.02539,0.55664
					c0.77637,0.5625,1.50684,1.25586,2.1875,2.08008s1.5,1.75,2.45605,2.77734s1.79297,1.79297,2.50879,2.29492l0.71875,0.43164
					c0.47852,0.28711,1.09766,0.55078,1.86426,0.78906c0.76465,0.23828,1.43555,0.29883,2.00781,0.17969l9.17969-0.14453
					c0.90723,0,1.61328-0.14844,2.11523-0.44727c0.50098-0.29883,0.80078-0.62891,0.89648-0.98633
					c0.0957-0.35938,0.10156-0.76367,0.01758-1.21875c-0.08301-0.45312-0.16797-0.77148-0.25-0.94922
					c-0.08301-0.17969-0.16211-0.33008-0.2334-0.44922c-1.19629-2.15039-3.47852-4.79297-6.84961-7.92383l-0.07129-0.07227
					l-0.03613-0.03516l-0.03613-0.03516h-0.03516c-1.53027-1.45898-2.49707-2.4375-2.90332-2.94141
					c-0.74121-0.95508-0.91016-1.92383-0.50293-2.90234C77.35156,54.31836,78.42676,52.75195,80.29102,50.36133z"/>
			</g>
		</g>
	</g>
</g>
<g id="Twitter_Logo_Silhouette_designed_by_Elegant_Themes_from_Flaticon.com">
</g>
</svg>
