<svg xmlns="http://www.w3.org/2000/svg" width="64" height="64" viewBox="0 0 64 64"><g><radialGradient id="a" cx="32" cy="32" r="32" gradientUnits="userSpaceOnUse"><stop offset="0" stop-color="#48669F"/><stop offset="1" stop-color="#3D5D7D"/></radialGradient><circle cx="32" cy="32" r="32" fill-rule="evenodd" clip-rule="evenodd" fill="url(#a)"/><path d="M44.898 24.024c-.285 1.073-.416 2.173-.607 3.264-.47 2.696-.973 5.388-1.402 8.09-.57 3.59-.902 7.205-.892 10.845 0 .412-.07.563-.53.557-2.226-.027-4.454-.02-6.68-.004-.394.004-.542-.065-.5-.506.16-1.614.276-3.232.41-4.85.013-.15.06-.304-.08-.475-.265.074-.327.336-.442.534-1.343 2.285-3.05 4.21-5.575 5.203-3.086 1.215-6.087 1.125-8.88-.857-.298-.213-.566-.467-.847-.703-2.316-2.603-2.903-5.73-2.73-9.072.278-5.295 2.05-10 5.767-13.85 2.64-2.736 5.925-4.36 9.634-5.158 1.693-.366 3.41-.546 5.132-.52 2.946.045 5.86.386 8.7 1.228.41.122.582.238.484.74-.36 1.838-.648 3.69-.962 5.534zM25.01 36.104c.037.727.274 1.4.593 2.043.792 1.596 2.424 2.173 4.05 1.453.963-.428 1.727-1.108 2.37-1.92 1.373-1.734 2.274-3.687 2.8-5.844.398-1.63.85-3.244 1.103-4.903.28-1.42.56-2.84.842-4.26.06-.295-.014-.454-.336-.543-2.437-.68-4.648-.264-6.596 1.354-2.6 2.16-3.987 5.024-4.68 8.262-.306 1.438-.45 2.893-.145 4.358z" fill-rule="evenodd" clip-rule="evenodd" fill="#FEFEFE"/></g></svg>