<svg xmlns="http://www.w3.org/2000/svg" width="64" height="64" viewBox="0 0 64 64"><g><circle cx="32" cy="32" r="32" fill="#E86324"/><path d="M16.592 35.675c-1.007-.91-1.486-2.33-1.503-3.682.016-1.338.495-2.758 1.502-3.666.676-.594 1.667-1.023 2.592-1.09.61-.033 1.156.033 1.635.165 1.17.314 1.98 1.04 2.69 1.585l2.923-2.84c-.28-.495-1.09-1.19-1.536-1.535-2.262-1.734-5.48-2.113-8.255-1.337-.446.116-.858.28-1.27.462-2.082.908-3.37 2.23-4.393 4.21-1.09 2.097-1.09 6.01 0 8.107 1.022 1.98 2.31 3.302 4.39 4.21.414.182.826.33 1.272.462 2.774.776 5.993.397 8.255-1.337.446-.364 1.255-1.04 1.536-1.536l-2.923-2.84c-.71.545-1.52 1.27-2.69 1.585-.48.13-1.024.197-1.636.164-.925-.067-1.916-.512-2.592-1.09zM42.184 25.62c-.627-1.207-1.602-1.983-2.708-2.38-2.493-.907-5.663.067-7.298 2.213v-2.23h-5.002v17.453h5.002V30.29c0-1.6 1.305-2.92 2.907-2.92s2.922 1.32 2.922 2.92v10.403h5.003V30.257c0-1.6 1.32-2.92 2.923-2.92 1.6 0 2.906 1.32 2.906 2.92v10.436h5V29.17c0-3.485-1.83-5.318-4.093-5.93-2.278-.61-5.004.034-6.737 1.52-.315.264-.578.545-.826.86z" fill="#fff"/></g></svg>