<svg xmlns="http://www.w3.org/2000/svg" width="64" height="64" viewBox="0 0 64 64"><g><path d="M64 32c0 17.674-14.326 32-32 32S0 49.674 0 32C0 14.328 14.326 0 32 0s32 14.328 32 32z" fill="#F0F0F1"/><path d="M32.517 31.944c0 4.642-3.765 8.407-8.405 8.407-4.645 0-8.41-3.765-8.41-8.406 0-4.643 3.766-8.408 8.41-8.408 4.64 0 8.405 3.765 8.405 8.408z" fill="#3A5FA9"/><path d="M52.368 31.944c0 4.642-3.763 8.407-8.406 8.407-4.643 0-8.41-3.765-8.41-8.406 0-4.643 3.768-8.408 8.41-8.408 4.643 0 8.406 3.765 8.406 8.408z" fill="#E60E79"/></g></svg>