<svg xmlns="http://www.w3.org/2000/svg" width="64" height="64" viewBox="0 0 64 64"><g><circle cx="32" cy="32" r="32" fill="#F94877"/><path d="M23.078 15.22c-.562 0-1.104.224-1.502.62-.397.396-.62.937-.622 1.498l-.052 31.32c-.003.873.55 1.673 1.366 1.984s1.762.08 2.342-.573l9.284-10.46h6.62c.482 0 .953-.165 1.33-.467s.638-.723.742-1.192l4.46-20.076c.14-.625-.013-1.284-.41-1.784-.4-.5-1.01-.795-1.65-.798l-21.905-.072h-.002zm2.472 3.8h.004l16.29.053c.22 0 .438.106.574.277.138.172.19.407.143.622l-1.014 4.554c-.072.324-.39.577-.72.576h-7.588c-.338-.004-.82-.01-.965.44-.137.422-.56 2.155-.56 2.496s.138.672.38.91c.24.238.57.373.907.37h6.568c.222 0 .44.104.577.276.137.172.192.407.144.623l-1.077 4.825c-.07.324-.388.578-.72.578h-5.58c-.36 0-.713.158-.955.43l-.04.04-7.122 8.148c.005-.014 0-24.48 0-24.48 0-.386.367-.737.754-.737z" fill="#fff"/></g></svg>