<svg xmlns="http://www.w3.org/2000/svg" width="64" height="64" viewBox="0 0 64 64"><g><path d="M64 32c0 17.673-14.327 32-32 32S0 49.673 0 32 14.327 0 32 0s32 14.327 32 32z" fill="#316198"/><path d="M18.214 13.34h28.228c2.68 0 4.874 2.192 4.874 4.875v28.228c0 2.68-2.193 4.872-4.874 4.872H18.214c-2.682 0-4.876-2.19-4.876-4.872V18.215c0-2.683 2.194-4.875 4.876-4.875zm22.79 4.218c-.94 0-1.71.77-1.71 1.712v4.09c0 .942.77 1.712 1.71 1.712h4.292c.94 0 1.71-.77 1.71-1.71V19.27c0-.94-.77-1.712-1.71-1.712h-4.29zm6.018 11.84H43.68c.316 1.035.487 2.126.487 3.262 0 6.314-5.286 11.436-11.805 11.436-6.52 0-11.807-5.12-11.807-11.436 0-1.136.174-2.227.49-3.26H17.56V45.44c0 .83.678 1.507 1.51 1.507h26.445c.83 0 1.508-.677 1.508-1.508V29.4zm-14.66-4.543c-4.212 0-7.627 3.307-7.627 7.39 0 4.08 3.415 7.39 7.628 7.39 4.212 0 7.627-3.31 7.627-7.39 0-4.083-3.415-7.39-7.627-7.39z" fill="#fff"/></g></svg>