<svg xmlns="http://www.w3.org/2000/svg" width="64" height="64" viewBox="0 0 64 64"><g><circle cx="32" cy="32" r="32" fill="#E71E27"/><path d="M43.984 17.27c-.336-1.155-1.388-4.963-2.418-5.332-1.833 0-3.485-.015-5.333 0-.652.004-2.683 3.44-2.918 4-1.284 3.085-1.75 4.794-2.667 8-.964 3.387-1.878 6.96-2.667 10.666-.35-.592-1.093-2.217-1.332-2.666-1.746-3.344-2.25-5.996-4-9.333-1.76-3.358-1.548-4.624-5.333-4-.94.152-3.133.944-4 1.333-.43.195-1.334 1-1.334 2.667 0 7.833 0 15.166 1.335 22.666.817 5.35.224 5.96 5.333 4 .255-.1-.254.108 0 0 2.667-1.333 4.208-1.347 4-2.665-.366-2.285-1.036-5.707-1.333-8 .106-.01-.107.008 0 0 1.333 0 3.855 4.127 5.333 6.666 1.214 2.07 2.667 2.667 4 2.667 5.333 0 6.667-1.332 6.667-2.666s-.058-4.313 0-5.333c0-2.666-.125-9.71 0-10.665 2.313 7.395 4.518 14.208 6.666 21.333.374 1.244 2.593 1.723 3.92 1.332 2.417 0 4.388-.87 4.084-1.918-2.67-9.185-3.69-14.958-5.336-22.083-.934-4.07-1.33-5.333-2.664-10.666z" fill="#fff"/></g></svg>