<svg xmlns="http://www.w3.org/2000/svg" width="64" height="64" viewBox="0 0 64 64"><g><path d="M32.03 64C49.6 64 64 49.602 64 32.03 64 14.397 49.602 0 32.03 0 14.397 0 0 14.398 0 32.03 0 49.6 14.398 64 32.03 64z" fill="#0D2636"/><path d="M51.98 43.988h-14v-3.004c0-3.854 3.174-6.974 7.03-6.974 3.853 0 6.97 3.12 6.97 6.974v3.004zm-34.974-7.993c-2.777 0-4.988-2.21-4.988-4.987 0-2.778 2.21-4.99 4.988-4.99s4.99 2.212 4.99 4.99c0 2.776-2.213 4.987-4.99 4.987zm12.98-1.984c-3.287 0-6.01-2.72-6.01-6.007 0-3.344 2.723-6.008 6.01-6.008 3.345 0 6.01 2.664 6.01 6.008 0 3.288-2.665 6.008-6.01 6.008zm15.024-1.98c-3.855 0-7.03-3.177-7.03-7.032 0-3.854 3.175-7.028 7.03-7.028 3.854 0 7.028 3.174 7.028 7.028 0 3.856-3.175 7.03-7.028 7.03zM21.995 43.987h-9.978v-.963c0-2.778 2.21-5.046 4.988-5.046 2.72 0 4.99 2.267 4.99 5.045v.963zm7.992-7.993c3.287 0 6.008 2.723 6.008 6.01v1.983H23.978v-1.984c0-3.286 2.72-6.01 6.01-6.01z" fill="#fff"/></g></svg>