<svg xmlns="http://www.w3.org/2000/svg" width="64" height="64.004" viewBox="0 0 64 64.004"><path d="M32 0C14.328 0 0 14.326 0 32.003c0 13.104 7.877 24.36 19.155 29.31-.092-2.238-.018-4.92.557-7.347l4.116-17.444s-1.025-2.04-1.025-5.058c0-4.74 2.755-8.284 6.178-8.284 2.907 0 4.314 2.182 4.314 4.802 0 2.924-1.868 7.3-2.825 11.354-.802 3.394 1.704 6.162 5.046 6.162 6.063 0 10.146-7.784 10.146-17.013 0-7.012-4.724-12.26-13.313-12.26-9.707 0-15.754 7.237-15.754 15.324 0 2.787.822 4.754 2.108 6.275.594.7.676.98.46 1.782-.15.593-.5 2.007-.65 2.567-.212.814-.87 1.102-1.602.8-4.472-1.82-6.55-6.718-6.55-12.223 0-9.087 7.662-19.99 22.87-19.99 12.215 0 20.262 8.84 20.262 18.332 0 12.555-6.983 21.932-17.27 21.932-3.458 0-6.71-1.867-7.816-3.983 0 0-1.862 7.375-2.25 8.795-.683 2.463-2.012 4.933-3.223 6.855 2.872.85 5.914 1.313 9.064 1.313 17.673 0 32-14.324 32-32S49.673 0 32 0z" fill="#CA2028"/></svg>