<svg xmlns="http://www.w3.org/2000/svg" width="64" height="64" viewBox="0 0 64 64"><g><path d="M32 64c17.673 0 32-14.326 32-32C64 14.327 49.673 0 32 0S0 14.327 0 32c0 17.674 14.327 32 32 32z" fill="#E84621"/><path d="M51.915 29.58v.005c.007.087.008.175.008.26 0 .97-.306 1.9-.818 2.69-.48.74-1.137 1.358-1.896 1.778.05.385.077.775.077 1.162-.002 2.086-.712 4.135-1.947 5.777v.002h-.003c-2.286 3.08-5.798 4.895-9.344 5.81l-.003.005c-1.89.462-3.84.7-5.79.7-2.905 0-5.81-.53-8.517-1.63v-.005h-.003c-2.81-1.172-5.484-3.033-7.126-5.762-.883-1.46-1.367-3.168-1.367-4.883 0-.39.024-.777.076-1.162-.74-.422-1.38-1.02-1.854-1.733-.51-.767-.83-1.664-.87-2.613v-.016c0-1.328.57-2.59 1.455-3.516.888-.93 2.098-1.535 3.396-1.535h.056c.136-.01.273-.015.41-.015.652 0 1.306.107 1.926.348l.004.003.004.002c.528.226 1.056.498 1.526.875.15-.08.317-.172.502-.242 2.846-1.706 6.15-2.364 9.373-2.553.03-1.616.226-3.31 1.003-4.79.648-1.23 1.775-2.187 3.115-2.52H35.32c.51-.103 1.024-.148 1.536-.148 1.36 0 2.707.327 3.965.836.56-.852 1.355-1.516 2.287-1.89l.01-.004.01-.002c.547-.173 1.125-.273 1.707-.273.612 0 1.23.113 1.808.376v-.002c0 .002.003.002.003.002.004 0 .008.004.01.004.83.323 1.53.92 2.03 1.664.5.746.79 1.64.79 2.56 0 .168-.008.337-.028.507v.005c0 .004 0 .006-.003.01-.096 1.187-.69 2.228-1.53 2.972-.847.746-1.943 1.196-3.068 1.196-.18 0-.362-.01-.544-.034-1.115-.088-2.155-.634-2.92-1.448-.766-.81-1.26-1.896-1.26-3.066 0-.057.005-.114.008-.172-1.05-.47-2.16-.862-3.266-.862-.16 0-.318.01-.48.026-.827.08-1.597.608-1.97 1.367v.003c-.565 1.116-.678 2.42-.696 3.715 3.172.208 6.362.98 9.162 2.608h.004l.04.024c.052.032.15.087.24.134.192-.157.395-.32.627-.46.85-.57 1.855-.856 2.86-.856.446 0 .894.058 1.327.17l.02.006c.005 0 .01.003.016.003v.002c1.024.265 1.95.858 2.648 1.662.697.805 1.167 1.822 1.26 2.926v.002h-.005zm-5.125 5.984c0-1.438-.512-2.88-1.34-4.042-1.653-2.33-4.22-3.848-6.885-4.694l-.02-.006c-.512-.16-1.03-.3-1.55-.42-1.56-.36-3.157-.54-4.754-.54-2.144 0-4.288.322-6.34.964-2.667.856-5.24 2.364-6.89 4.7v.003c-.835 1.166-1.324 2.613-1.324 4.056 0 .53.065 1.06.203 1.578h.002c.3 1.158.887 2.193 1.646 3.096.76.904 1.69 1.674 2.67 2.303.22.135.436.266.66.393 2.846 1.61 6.125 2.314 9.38 2.314.55 0 1.104-.02 1.65-.06 3.28-.274 6.57-1.255 9.23-3.255l.002-.002c.847-.635 1.632-1.4 2.25-2.275.625-.87 1.08-1.848 1.284-2.908v-.004c.086-.397.126-.797.126-1.202zm-4.217-16.492c0 .043 0 .087.005.133v.008c.02.558.28 1.076.676 1.46.397.384.925.62 1.46.624H44.727c.04.002.078.002.117.002.54 0 1.075-.234 1.478-.617.404-.383.67-.906.69-1.47v-.003c.005-.044.007-.085.007-.128 0-.58-.27-1.133-.688-1.542-.417-.408-.978-.662-1.532-.66-.18 0-.354.024-.53.08h-.004l-.005.003c-.455.12-.884.405-1.192.782-.307.378-.495.842-.495 1.327zM19.16 27.68c-.425-.2-.863-.344-1.296-.34-.072 0-.146.004-.22.012h-.02c-.622.018-1.25.292-1.722.733-.47.44-.783 1.03-.807 1.684v.006l-.003.005c-.004.055-.005.106-.005.157 0 .402.122.793.328 1.147.153.263.354.504.582.713.73-1.612 1.865-2.98 3.162-4.117zm30.218 2.166c0-.35-.08-.695-.253-1.02l-.004-.004v-.005c-.232-.482-.594-.845-1.03-1.094-.438-.248-.95-.375-1.462-.375-.463 0-.925.104-1.334.313 1.303 1.146 2.443 2.522 3.183 4.14.237-.21.44-.466.59-.75.2-.373.31-.79.31-1.204zm-10.344 8.26c-.198-.114-.43-.183-.675-.183-.197 0-.402.05-.584.154-1.722.902-3.748 1.396-5.758 1.396-1.508 0-3.008-.28-4.365-.865l-.008-.002-.008-.004c-.203-.072-.438-.23-.692-.377-.13-.074-.263-.146-.414-.2-.147-.056-.312-.095-.486-.095-.146 0-.3.03-.45.09-.007.002-.015.004-.022.008h.002c-.237.078-.422.223-.542.395-.125.18-.185.387-.185.59 0 .188.05.37.153.54.098.16.25.3.446.394 1.94 1.148 4.23 1.67 6.522 1.668 2.07 0 4.15-.42 6.005-1.186l.01-.007.01-.004c.244-.128.568-.24.874-.407.15-.086.3-.184.426-.31s.23-.284.288-.468v-.002c.024-.08.034-.16.034-.24 0-.15-.04-.293-.11-.422-.103-.193-.273-.35-.47-.465zm-12.957-7.567c-1.36 0-2.463 1.09-2.463 2.46 0 1.36 1.094 2.46 2.463 2.46 1.36 0 2.462-1.09 2.462-2.46 0-1.36-1.095-2.46-2.463-2.46zm12.31 0c-1.36 0-2.464 1.09-2.464 2.46 0 1.36 1.093 2.46 2.463 2.46 1.36 0 2.46-1.09 2.46-2.46 0-1.36-1.093-2.46-2.46-2.46z" fill="#fff"/></g></svg>