<svg xmlns="http://www.w3.org/2000/svg" width="64" height="64" viewBox="0 0 64 64"><g><circle cx="32" cy="32" r="32" fill="#CF2200"/><path d="M41.903 39.29H40.03l.008-1.087c0-.483.397-.88.883-.88h.12c.486 0 .886.397.886.88l-.023 1.088zm-7.027-2.33c-.475 0-.863.32-.863.71v5.292c0 .39.39.71.863.71.478 0 .866-.32.866-.71V37.67c0-.392-.388-.71-.866-.71zM46.288 34v10.067c0 2.415-2.095 4.39-4.654 4.39h-19.14c-2.56 0-4.653-1.975-4.653-4.39V34c0-2.416 2.095-4.393 4.655-4.393h19.14c2.558 0 4.653 1.977 4.653 4.392zM23.77 45.16V34.555h2.374v-1.57l-6.324-.01v1.545l1.974.006V45.16h1.98-.003zm7.114-9.026h-1.98v5.664c0 .82.05 1.23-.003 1.374-.16.438-.883.905-1.164.047-.048-.15-.006-.605-.007-1.383l-.01-5.703h-1.966l.006 5.613c0 .86-.02 1.502.007 1.794.048.516.03 1.116.51 1.458.89.642 2.595-.096 3.02-1.012l-.003 1.17h1.59v-9.022zm6.328 6.486l-.005-4.714c0-1.796-1.345-2.873-3.17-1.42l.008-3.504-1.976.004-.01 12.096 1.624-.024.147-.753c2.08 1.905 3.385.6 3.382-1.685zm6.19-.625l-1.483.008c0 .06-.005.127-.005.2v.828c0 .443-.366.805-.81.805h-.292c-.445 0-.81-.36-.81-.804v-2.176h3.395v-1.278c0-.935-.024-1.868-.102-2.402-.242-1.69-2.614-1.957-3.813-1.093-.376.272-.663.633-.83 1.12-.168.484-.252 1.148-.252 1.99v2.812c.003 4.672 5.68 4.012 5.002-.007zm-7.608-15.26c.103.25.26.45.476.602.213.15.484.225.81.225.285 0 .538-.077.758-.235.22-.158.404-.395.555-.71l-.037.776h2.205v-9.377h-1.735v7.298c0 .396-.325.72-.723.72-.396 0-.723-.324-.723-.72v-7.298h-1.813v6.324c0 .806.015 1.343.038 1.615.025.27.087.53.19.78zm-6.682-5.295c0-.9.075-1.603.225-2.11.15-.504.42-.91.81-1.216.39-.308.89-.462 1.495-.462.51 0 .947.1 1.313.296.367.197.65.454.846.77.2.317.337.643.41.977.073.338.11.848.11 1.535v2.372c0 .87-.035 1.51-.104 1.915-.066.407-.21.786-.434 1.14-.22.35-.505.612-.85.78-.348.168-.746.25-1.196.25-.502 0-.925-.068-1.274-.213s-.62-.36-.813-.65c-.195-.29-.332-.64-.415-1.052-.083-.41-.122-1.026-.122-1.85V21.44zm1.728 3.725c0 .53.395.965.876.965.482 0 .875-.434.875-.965v-4.99c0-.53-.392-.965-.874-.965-.48 0-.876.434-.876.964v4.99zm-6.103 2.52h2.08l.004-7.19 2.46-6.16h-2.276l-1.307 4.575-1.325-4.588H22.12l2.615 6.177.004 7.187h-.003z" fill="#fff"/></g></svg>