<svg xmlns="http://www.w3.org/2000/svg" width="50" height="50" viewBox="0 0 50 50"><g><path fill-rule="evenodd" clip-rule="evenodd" fill="#fff" d="M0 0h50v50H0z"/><radialGradient id="a" cx="25" cy="25" r="13.734" gradientUnits="userSpaceOnUse"><stop offset="0" stop-color="#48669F"/><stop offset="1" stop-color="#3D5D7D"/></radialGradient><path d="M37.567 17.787c-.255.97-.375 1.965-.548 2.952-.428 2.436-.88 4.87-1.27 7.316-.514 3.247-.815 6.515-.808 9.807 0 .372-.06.51-.477.503-2.015-.025-4.03-.017-6.043-.002-.354.002-.49-.06-.452-.46.145-1.458.25-2.922.373-4.384.008-.137.052-.275-.075-.432-.24.068-.296.305-.4.484-1.215 2.068-2.756 3.81-5.042 4.708-2.79 1.098-5.503 1.017-8.03-.776-.268-.19-.51-.423-.766-.635-2.092-2.356-2.625-5.185-2.47-8.208.252-4.79 1.856-9.043 5.218-12.525 2.384-2.475 5.358-3.943 8.712-4.665 1.53-.33 3.083-.494 4.64-.47 2.666.04 5.302.35 7.87 1.11.37.11.524.217.44.67-.327 1.662-.587 3.336-.873 5.005zM19.584 28.71c.033.658.247 1.268.535 1.85.714 1.442 2.19 1.965 3.663 1.312.872-.386 1.56-1 2.14-1.737 1.244-1.566 2.06-3.332 2.536-5.283.356-1.473.765-2.935.994-4.435.254-1.285.508-2.57.76-3.853.054-.267-.01-.41-.303-.49-2.2-.617-4.202-.24-5.963 1.223-2.352 1.954-3.607 4.544-4.232 7.473-.278 1.3-.406 2.617-.13 3.94z" fill-rule="evenodd" clip-rule="evenodd" fill="url(#a)"/><path fill-rule="evenodd" clip-rule="evenodd" fill="none" d="M9 9h32v32H9z"/><path d="M46.33 30.13l-1.136.305-.764-.44 1.254-.337c.132-.036.21-.172.175-.305-.036-.132-.173-.21-.305-.176l-1.734.465-.655-.38c-.022-.012-.046-.02-.07-.026l.698-.308c.09-.04.148-.13.148-.227 0-.098-.057-.187-.147-.227l-.7-.31c.025-.006.05-.014.072-.027l.656-.38 1.735.466c.02.006.043.008.064.008.108 0 .21-.072.238-.184.037-.133-.043-.27-.175-.305l-1.254-.335.763-.44 1.136.304c.02.005.042.007.062.007.11 0 .21-.072.24-.184.036-.133-.043-.27-.176-.305l-.654-.176.627-.362c.118-.07.16-.22.09-.34-.068-.118-.22-.16-.34-.09l-.626.363.175-.655c.034-.132-.044-.27-.177-.304-.133-.035-.27.043-.305.176l-.304 1.135-.765.44.335-1.254c.035-.13-.044-.267-.176-.303-.134-.036-.27.043-.306.176l-.465 1.735-.657.38c-.02.012-.04.027-.06.044l.085-.757c.01-.1-.038-.192-.123-.242-.086-.05-.19-.044-.27.015l-.618.45c.007-.022.012-.048.012-.073v-.76l1.27-1.27c.096-.096.096-.253 0-.35-.1-.098-.255-.098-.353 0l-.918.917V24.8l.83-.83c.097-.098.097-.256 0-.353-.098-.096-.255-.096-.352 0l-.48.48v-.726c0-.136-.11-.248-.248-.248-.137 0-.248.11-.248.25v.724l-.48-.48c-.096-.096-.254-.096-.352 0-.097.098-.097.256 0 .353l.83.83v.882l-.917-.918c-.098-.097-.254-.097-.352 0-.096.097-.096.254 0 .352l1.27 1.27v.76c0 .024.005.048.012.07l-.614-.45c-.08-.058-.186-.063-.27-.014-.087.05-.135.144-.124.24l.082.763c-.017-.02-.037-.034-.06-.048l-.657-.38-.465-1.734c-.035-.132-.173-.21-.304-.176-.132.036-.21.172-.176.304l.336 1.255-.765-.44-.3-1.135c-.035-.132-.17-.21-.304-.176-.13.036-.21.172-.175.304l.175.655-.627-.363c-.12-.068-.27-.027-.34.09-.068.12-.027.27.092.34l.627.362-.654.176c-.133.035-.21.172-.176.305.03.11.13.184.24.184.02 0 .042-.002.064-.008l1.135-.306.766.44-1.254.337c-.133.037-.212.173-.177.306.03.11.13.184.24.184.022 0 .043-.002.064-.008l1.733-.465.657.38c.02.012.044.02.067.026l-.696.307c-.09.04-.146.13-.146.228s.057.187.147.228l.7.31c-.023.005-.048.014-.07.027l-.657.38-1.734-.466c-.133-.035-.27.044-.306.176-.035.133.043.27.177.305l1.255.336-.765.44-1.135-.303c-.132-.035-.27.044-.305.177-.035.132.043.27.176.305l.654.175-.627.362c-.12.067-.16.22-.092.34.048.08.13.123.218.123.04 0 .084-.01.123-.033l.628-.362-.175.654c-.035.133.044.27.176.305.02.006.042.008.063.008.11 0 .21-.072.24-.184l.304-1.134.765-.44-.336 1.253c-.035.132.044.268.177.304.02.006.043.008.063.008.11 0 .21-.073.24-.184l.464-1.734.657-.38c.022-.013.042-.028.058-.046l-.083.758c-.01.097.038.19.123.242.085.05.19.043.27-.016l.62-.45c-.008.022-.013.048-.013.075v.758l-1.27 1.27c-.097.098-.097.255 0 .352.05.05.112.072.176.072s.127-.024.176-.073l.918-.918v.88l-.83.83c-.098.098-.098.256 0 .353.048.048.11.073.176.073.063 0 .126-.025.176-.073l.48-.48v.726c0 .138.11.248.247.248.14 0 .25-.11.25-.25v-.724l.48.48c.096.096.253.096.35 0 .098-.098.098-.256 0-.354l-.83-.83v-.883l.918.918c.098.097.254.097.352 0 .097-.097.097-.254 0-.352l-1.27-1.27v-.758c0-.025-.004-.05-.012-.074l.615.452c.044.03.096.048.146.048.042 0 .085-.01.124-.033.085-.05.133-.145.123-.242l-.082-.76c.016.02.036.034.06.048l.655.38.465 1.733c.03.11.13.184.24.184.02 0 .043-.002.064-.008.13-.035.21-.172.175-.305l-.336-1.254.764.44L45.25 32c.03.11.13.184.24.184.02 0 .043-.002.064-.008.133-.035.21-.172.176-.305l-.175-.653.627.362c.04.02.082.032.124.032.086 0 .17-.044.215-.124.07-.12.03-.27-.09-.34l-.627-.362.654-.175c.133-.035.212-.172.176-.304-.034-.132-.172-.21-.303-.175zm-3.87-1.157c-.1.043-.16.146-.148.254l.073.672-.546-.4c-.044-.032-.097-.048-.147-.048-.052 0-.104.016-.146.048l-.547.396.073-.67c.013-.108-.047-.21-.146-.256l-.617-.272.618-.272c.1-.043.158-.146.146-.254l-.072-.672.545.4c.088.063.206.063.293 0l.546-.398-.073.67c-.012.11.048.212.146.256l.616.272-.617.273z" fill="#ccc"/><path d="M19.096 15.214l-.855.23-.574-.334.944-.253c.1-.027.16-.13.132-.23-.026-.1-.13-.158-.23-.13l-1.306.35-.494-.286c-.018-.01-.035-.016-.053-.02l.524-.23c.067-.03.112-.1.112-.172 0-.074-.044-.142-.112-.17l-.526-.234c.018-.004.036-.01.054-.02l.494-.287 1.307.35c.017.004.032.006.05.006.08 0 .157-.055.18-.14.027-.1-.033-.202-.133-.228l-.944-.253.575-.333.856.228c.016.004.033.007.05.007.082 0 .157-.055.18-.14.027-.1-.032-.202-.133-.228l-.493-.132.473-.273c.09-.052.12-.167.068-.256-.05-.09-.164-.12-.254-.07l-.473.274.132-.494c.026-.1-.032-.202-.133-.23-.1-.025-.203.034-.23.133l-.228.854-.576.333.253-.945c.027-.1-.032-.202-.132-.23-.1-.026-.202.034-.23.134l-.35 1.307-.495.286c-.016.01-.03.02-.044.033l.062-.57c.008-.074-.028-.146-.093-.183s-.145-.033-.205.01l-.465.34c.005-.017.01-.036.01-.055v-.572l.955-.956c.073-.073.073-.192 0-.265-.073-.073-.19-.073-.265 0l-.69.692V11.2l.624-.627c.073-.073.073-.192 0-.266-.073-.072-.19-.072-.265 0l-.36.36v-.545c0-.104-.085-.188-.19-.188-.102 0-.186.084-.186.188v.546l-.36-.36c-.073-.074-.192-.074-.266 0s-.073.19 0 .264l.626.626v.665l-.69-.692c-.074-.072-.192-.072-.266 0-.073.074-.073.193 0 .266l.956.956v.572c0 .02.003.037.008.054l-.462-.34c-.06-.042-.14-.047-.204-.01-.065.037-.1.108-.093.182l.062.574c-.013-.014-.028-.026-.045-.036l-.495-.286-.35-1.307c-.026-.1-.13-.16-.23-.133-.1.027-.16.13-.132.23l.253.944-.576-.333-.23-.855c-.025-.1-.128-.16-.228-.132-.1.027-.158.13-.132.23l.132.493-.473-.274c-.09-.052-.205-.02-.257.07s-.02.203.07.255l.47.274-.492.132c-.1.027-.157.13-.13.23.02.083.097.138.18.138.017 0 .032-.002.05-.007l.853-.23.576.334-.945.254c-.1.027-.16.13-.133.23.023.082.098.138.182.138.016 0 .03-.002.048-.006l1.307-.35.494.286c.016.01.033.016.05.02l-.523.23c-.067.03-.11.098-.11.173 0 .073.042.14.11.17l.528.234c-.02.002-.037.01-.055.02l-.494.285-1.308-.35c-.1-.026-.202.033-.23.132-.026.1.033.203.134.23l.944.252-.576.332-.854-.23c-.1-.026-.203.034-.23.134-.025.1.033.202.133.23l.493.13-.472.274c-.09.052-.12.167-.07.256.036.06.1.094.164.094.03 0 .063-.008.093-.025l.474-.273-.132.494c-.026.1.033.203.132.23.018.003.032.005.05.005.082 0 .158-.054.18-.138l.23-.855.575-.333-.254.945c-.027.1.033.202.133.228.015.004.03.006.047.006.082 0 .158-.055.18-.138l.35-1.307.496-.287c.017-.01.032-.02.044-.034l-.063.57c-.008.072.028.144.092.182.064.037.145.033.204-.01l.466-.34c-.005.017-.01.036-.01.056v.572l-.955.956c-.072.073-.072.192 0 .265.037.038.085.056.133.056s.096-.018.133-.055l.69-.69v.665l-.627.625c-.074.073-.074.192 0 .266.036.036.084.055.132.055s.096-.018.133-.054l.36-.36v.545c0 .105.084.19.187.19.104 0 .188-.084.188-.19v-.545l.36.36c.073.074.19.074.265 0 .073-.072.073-.19 0-.265l-.625-.625v-.666l.69.69c.074.074.192.074.266 0s.073-.19 0-.264l-.956-.956v-.572c0-.02-.003-.037-.01-.055l.464.34c.033.023.072.036.11.036.032 0 .065-.01.095-.026.062-.037.1-.11.092-.182l-.063-.572c.01.014.026.026.043.035l.495.286.35 1.308c.023.083.1.138.182.138.016 0 .032 0 .048-.006.1-.027.16-.13.133-.23l-.252-.944.576.333.23.854c.02.083.098.14.18.14.016 0 .033-.003.05-.008.1-.026.158-.13.132-.23l-.132-.493.473.273c.03.017.062.025.093.025.065 0 .13-.032.162-.093.053-.09.02-.204-.068-.256l-.473-.272.494-.132c.1-.027.16-.13.133-.23-.028-.1-.132-.16-.23-.132zm-2.916-.873c-.075.033-.12.11-.11.192l.055.506-.41-.3c-.034-.025-.073-.037-.112-.037s-.077.013-.11.037l-.41.3.055-.506c.01-.08-.035-.157-.11-.19l-.465-.206.465-.205c.075-.034.12-.11.11-.192l-.054-.506.41.3c.066.05.155.05.22 0l.412-.3-.055.507c-.008.08.037.158.11.19l.466.207-.466.204z" fill="#ccc"/></g></svg>