<svg xmlns="http://www.w3.org/2000/svg" width="50" height="50" viewBox="0 0 50 50"><g><path fill-rule="evenodd" clip-rule="evenodd" fill="#fff" d="M0 0h50v50H0z"/><path d="M14.886 27.412c-.662-.597-.977-1.53-.986-2.417.01-.878.324-1.81.986-2.407.444-.39 1.095-.672 1.7-.716.4-.02.76.022 1.074.108.77.207 1.3.684 1.767 1.04l1.918-1.863c-.184-.325-.713-.78-1.008-1.007-1.484-1.14-3.598-1.388-5.42-.878-.292.076-.563.185-.833.303-1.367.596-2.212 1.463-2.884 2.764-.715 1.375-.715 3.945 0 5.32.672 1.3 1.517 2.168 2.884 2.766.27.118.54.216.834.303 1.82.508 3.935.26 5.42-.88.294-.236.823-.682 1.007-1.008l-1.918-1.864c-.466.358-.997.835-1.767 1.04-.313.088-.673.13-1.074.11-.606-.045-1.256-.337-1.7-.716zm16.8-6.6c-.41-.793-1.05-1.302-1.777-1.562-1.64-.596-3.72.043-4.793 1.453V19.24h-3.283v11.457h3.283V23.88c0-1.053.856-1.92 1.91-1.92 1.05 0 1.917.867 1.917 1.92v6.828h3.284v-6.85c0-1.052.867-1.92 1.918-1.92 1.052 0 1.908.868 1.908 1.92v6.85h3.283V23.144c0-2.29-1.203-3.492-2.687-3.893-1.495-.4-3.284.022-4.423.998-.205.173-.378.356-.54.563z" fill="#E86324"/><path fill-rule="evenodd" clip-rule="evenodd" fill="none" d="M9 9h32v32H9z"/><path d="M15.248 34.51l-1.136.304-.764-.44 1.254-.337c.132-.036.21-.172.175-.305s-.172-.21-.304-.176l-1.734.465-.657-.378c-.022-.014-.046-.022-.07-.027l.698-.308c.09-.04.15-.13.15-.228s-.06-.19-.15-.228l-.698-.31c.024-.006.05-.015.07-.027l.657-.38 1.733.465c.02.006.043.01.064.01.11 0 .21-.074.24-.186.036-.133-.044-.268-.176-.304l-1.253-.336.764-.442 1.137.305c.02.006.043.01.063.01.11 0 .21-.074.24-.186.036-.132-.043-.27-.176-.304l-.654-.175.627-.36c.12-.07.16-.222.09-.34-.067-.12-.22-.16-.338-.093l-.628.363.175-.654c.035-.133-.043-.27-.176-.305s-.27.044-.304.177l-.304 1.135-.762.442.336-1.254c.035-.133-.044-.27-.176-.305-.133-.035-.27.043-.305.176l-.465 1.735-.656.38c-.02.013-.04.028-.06.045l.085-.757c.01-.1-.04-.193-.124-.242-.086-.05-.19-.043-.27.015l-.618.45c.007-.022.012-.047.012-.073v-.758l1.27-1.27c.097-.098.097-.255 0-.352-.098-.098-.254-.098-.352 0l-.918.918v-.883l.83-.83c.098-.098.098-.256 0-.354-.097-.096-.254-.096-.35 0l-.48.48v-.723c0-.138-.11-.25-.25-.25-.136 0-.247.112-.247.25v.726l-.48-.48c-.096-.096-.254-.096-.352 0-.096.098-.096.256 0 .353l.832.83v.883l-.918-.918c-.098-.098-.254-.098-.352 0-.097.097-.097.254 0 .352l1.27 1.27v.758c0 .025.004.05.01.072l-.613-.45c-.08-.058-.187-.063-.272-.015-.086.05-.134.145-.123.242l.082.762c-.017-.02-.037-.035-.06-.05l-.657-.38-.464-1.734c-.035-.133-.173-.21-.304-.176-.133.035-.212.172-.177.305l.336 1.255-.764-.44-.304-1.136c-.036-.134-.172-.212-.305-.177-.132.035-.21.172-.176.305l.176.654-.627-.363c-.12-.07-.272-.028-.34.09-.07.12-.028.272.09.34l.63.362-.654.175c-.133.035-.21.172-.176.305.03.11.13.185.24.185.02 0 .042-.003.064-.01l1.135-.304.764.442-1.254.336c-.133.037-.212.173-.177.305.03.11.13.185.24.185.022 0 .043-.003.064-.01l1.734-.463.658.38c.02.012.044.02.067.025l-.696.307c-.09.04-.148.128-.148.228 0 .098.057.187.147.227l.7.31c-.025.005-.05.015-.073.028l-.656.38-1.733-.466c-.132-.035-.27.043-.305.176-.034.13.044.267.178.303l1.254.336-.765.44-1.136-.304c-.132-.035-.27.043-.305.176s.042.27.175.305l.655.175-.627.36c-.12.07-.16.222-.092.34.048.08.13.126.218.126.04 0 .084-.01.123-.032l.628-.363-.175.654c-.035.132.044.27.176.304.02.006.042.008.063.008.11 0 .21-.072.24-.184l.304-1.135.765-.44-.336 1.253c-.035.133.044.27.177.305.02.007.043.01.063.01.11 0 .21-.073.24-.185l.464-1.735.657-.38c.022-.012.042-.027.058-.045l-.083.757c-.01.098.038.192.123.242.085.05.19.043.27-.015l.62-.453c-.008.024-.013.05-.013.076v.76l-1.27 1.268c-.097.1-.097.257 0 .353.05.05.112.073.176.073s.127-.024.176-.073l.918-.918v.884l-.83.83c-.098.096-.098.254 0 .352.048.047.11.072.176.072.063 0 .126-.025.176-.072l.48-.48v.726c0 .138.11.25.247.25.14 0 .25-.112.25-.25v-.725l.48.48c.096.095.253.095.35 0 .098-.1.098-.257 0-.354l-.83-.83v-.885l.918.918c.098.098.254.098.352 0 .097-.096.097-.254 0-.352l-1.27-1.268v-.76c0-.024-.004-.05-.012-.073l.615.45c.044.03.096.05.146.05.042 0 .085-.013.124-.034.085-.05.133-.145.123-.242l-.082-.76c.016.018.036.034.06.047l.655.38.465 1.734c.03.11.13.184.24.184.02 0 .043-.002.064-.008.13-.035.21-.172.175-.305l-.335-1.253.765.44.304 1.136c.028.11.13.185.24.185.02 0 .042-.003.063-.01.133-.034.21-.17.176-.304l-.176-.655.627.363c.04.02.083.033.125.033.086 0 .17-.044.215-.124.07-.12.028-.27-.09-.34l-.628-.36.654-.177c.133-.036.212-.173.176-.306-.035-.132-.173-.21-.304-.175zm-3.87-1.16c-.1.044-.16.147-.148.255l.073.672-.546-.398c-.043-.034-.096-.05-.146-.05-.05 0-.103.016-.145.05l-.546.396.072-.67c.013-.108-.047-.212-.146-.256l-.617-.272.617-.272c.1-.044.158-.146.146-.254l-.073-.674.545.4c.088.064.206.064.293 0l.546-.398-.073.672c-.01.107.05.21.147.254l.617.273-.617.27z" fill="#ccc"/><path d="M38.007 15.065l-.855.23-.575-.333.944-.254c.1-.027.16-.13.133-.23-.026-.1-.13-.158-.23-.13l-1.306.35-.494-.286c-.018-.01-.035-.017-.053-.02l.525-.232c.067-.03.112-.098.112-.172s-.044-.142-.112-.17l-.526-.234c.017-.004.035-.01.053-.02l.494-.286 1.307.35c.017.005.032.007.05.007.08 0 .157-.055.18-.14.027-.1-.033-.202-.133-.228l-.943-.253.575-.333.855.23c.016.004.033.006.05.006.082 0 .157-.055.18-.14.027-.1-.032-.202-.133-.228l-.493-.132.474-.273c.09-.052.12-.166.068-.256-.05-.09-.165-.12-.255-.068l-.473.272.132-.494c.026-.1-.032-.2-.133-.23-.1-.025-.203.034-.23.134l-.228.854-.576.333.252-.946c.026-.1-.033-.202-.133-.23-.1-.025-.203.033-.23.134l-.35 1.307-.496.286c-.016.01-.03.022-.044.034l.063-.57c.008-.074-.028-.145-.093-.182s-.144-.033-.204.01l-.465.34c.006-.017.01-.035.01-.055v-.572l.956-.956c.073-.074.073-.193 0-.266-.073-.073-.19-.073-.265 0l-.69.69v-.664l.625-.626c.073-.072.073-.192 0-.266-.073-.072-.19-.072-.265 0l-.36.36v-.545c0-.104-.084-.188-.188-.188-.103 0-.187.084-.187.188v.546l-.36-.362c-.073-.072-.192-.072-.266 0-.074.073-.074.193 0 .266l.625.626v.665l-.69-.69c-.074-.074-.192-.074-.266 0-.074.07-.074.19 0 .264l.955.955v.572c0 .02.003.037.008.054l-.462-.338c-.06-.044-.14-.05-.203-.012-.065.037-.1.11-.093.183l.062.573c-.013-.014-.028-.025-.045-.035l-.494-.285-.35-1.307c-.026-.1-.13-.16-.23-.133-.1.026-.16.13-.132.23l.253.944-.576-.334-.228-.854c-.026-.1-.13-.16-.23-.133-.098.026-.157.128-.13.228l.13.494-.472-.273c-.09-.053-.204-.022-.256.067-.052.09-.02.204.07.256l.47.273-.492.132c-.1.026-.158.13-.132.23.022.083.098.138.18.138.018 0 .033-.002.05-.006l.854-.23.576.334-.944.253c-.1.026-.16.13-.133.23.023.083.098.138.182.138.016 0 .03-.002.048-.006l1.307-.352.495.286c.016.01.033.016.05.02l-.523.23c-.068.03-.11.098-.11.172s.04.14.11.172l.527.232c-.02.004-.038.012-.056.02l-.494.286-1.307-.35c-.1-.027-.202.032-.23.132-.026.1.033.202.134.23l.944.253-.575.333-.854-.23c-.1-.026-.202.033-.228.134-.026.1.032.2.132.23l.493.13-.472.273c-.09.053-.12.167-.07.256.036.06.1.094.164.094.03 0 .062-.008.092-.024l.473-.273-.132.493c-.026.1.033.203.132.23.018.004.032.006.05.006.082 0 .158-.056.18-.14l.23-.854.575-.332-.253.944c-.027.1.033.202.133.23.016.003.032.005.048.005.082 0 .158-.055.18-.14l.35-1.306.496-.286c.017-.01.032-.02.044-.035l-.063.57c-.008.072.028.144.092.182.064.037.145.032.204-.01l.467-.34c-.005.017-.01.036-.01.056v.57l-.955.957c-.073.073-.073.192 0 .266.036.037.084.056.132.056s.096-.02.133-.055l.69-.69v.664l-.627.627c-.073.074-.073.193 0 .267.037.036.085.055.133.055s.096-.02.133-.055l.36-.36V18c0 .104.084.188.187.188.104 0 .188-.084.188-.188v-.546l.36.36c.074.074.192.074.266 0s.073-.19 0-.265l-.625-.625v-.665l.692.692c.073.072.19.072.265 0 .073-.073.073-.192 0-.266l-.956-.956v-.57c0-.02-.002-.038-.008-.057l.463.34c.033.023.072.036.11.036.032 0 .065-.01.095-.026.063-.037.1-.11.093-.182l-.062-.572c.013.014.028.025.045.035l.495.285.35 1.307c.023.084.1.14.182.14.016 0 .032-.003.048-.007.1-.027.16-.13.133-.23l-.253-.943.576.332.23.854c.02.083.098.14.18.14.016 0 .033-.003.05-.008.1-.026.158-.13.132-.23l-.132-.492.473.273c.028.017.06.024.092.024.065 0 .13-.032.162-.093.053-.09.02-.203-.068-.256l-.473-.27.493-.133c.1-.027.16-.13.133-.23-.03-.1-.134-.16-.233-.132zm-2.916-.873c-.074.032-.12.11-.11.19l.056.507-.41-.302c-.034-.023-.073-.036-.112-.036s-.077.013-.11.036l-.41.3.055-.506c.01-.08-.036-.158-.11-.19l-.466-.207.465-.205c.074-.033.12-.11.11-.19l-.055-.507.41.3c.066.05.155.05.22 0l.412-.3-.057.507c-.01.08.036.16.11.192l.465.205-.464.205z" fill="#ccc"/></g></svg>