<svg xmlns="http://www.w3.org/2000/svg" width="50" height="50" viewBox="0 0 50 50"><g><path fill-rule="evenodd" clip-rule="evenodd" fill="#fff" d="M0 0h50v50H0z"/><path d="M26.963 37.566V26.57h4.713l.785-4.712h-5.497v-2.356c0-1.57.787-2.356 2.356-2.356h2.355v-4.712h-3.927c-3.927 0-5.498 2.356-5.498 6.283v3.14h-4.712v4.713h4.712v10.996h4.713z" fill="#3B5998"/><path fill-rule="evenodd" clip-rule="evenodd" fill="none" d="M9 9h32v32H9z"/><path d="M19.23 33.958l-1.137.305-.764-.44 1.253-.337c.132-.036.21-.172.175-.305-.035-.132-.172-.21-.304-.175l-1.734.465-.656-.38c-.022-.013-.046-.02-.07-.026l.698-.308c.09-.04.148-.13.148-.228s-.058-.188-.148-.227l-.7-.31c.025-.005.05-.014.072-.026l.656-.38 1.734.465c.02.005.043.008.064.008.11 0 .21-.073.24-.185.036-.133-.044-.268-.176-.304l-1.254-.337.764-.442 1.136.306c.02.006.043.01.063.01.11 0 .21-.074.24-.186.037-.133-.042-.27-.175-.305l-.654-.175.628-.362c.12-.07.16-.22.09-.34-.067-.12-.22-.16-.338-.092l-.627.363.175-.655c.035-.133-.043-.27-.176-.305s-.27.043-.305.176l-.304 1.135-.765.442.336-1.254c.035-.133-.044-.27-.176-.305-.133-.035-.27.043-.305.176l-.465 1.733-.656.38c-.02.013-.04.028-.06.045l.085-.757c.01-.098-.038-.192-.123-.24-.086-.05-.19-.045-.27.013l-.618.45c.007-.022.012-.047.012-.073v-.758l1.27-1.27c.097-.098.097-.255 0-.352-.098-.098-.254-.098-.352 0l-.918.918v-.883l.83-.83c.098-.098.098-.256 0-.354-.097-.095-.254-.095-.35 0l-.48.48v-.725c0-.138-.11-.25-.25-.25-.136 0-.247.112-.247.25v.726l-.478-.478c-.097-.097-.255-.097-.353 0-.098.097-.098.255 0 .352l.83.83v.884l-.918-.918c-.098-.098-.254-.098-.352 0-.097.097-.097.254 0 .352l1.27 1.27v.758c0 .025.004.05.01.072l-.613-.45c-.08-.058-.186-.063-.27-.015-.087.05-.135.145-.124.242l.082.76c-.017-.02-.037-.034-.06-.048l-.657-.38-.464-1.733c-.035-.134-.173-.212-.304-.177-.133.035-.212.172-.177.305l.336 1.254-.766-.44-.304-1.136c-.036-.133-.172-.21-.305-.176-.132.035-.21.172-.176.305l.174.654-.627-.364c-.12-.068-.27-.027-.34.092-.068.12-.027.27.092.34l.626.362-.654.175c-.133.035-.21.172-.176.305.03.11.13.185.24.185.02 0 .042-.003.064-.01l1.135-.304.765.443-1.254.336c-.133.035-.212.17-.177.303.03.11.13.185.24.185.02 0 .042-.003.063-.01l1.734-.463.657.38c.02.012.044.02.067.025l-.695.307c-.09.04-.147.13-.147.23 0 .097.057.186.147.226l.7.31c-.024.005-.05.015-.072.028l-.656.38-1.734-.465c-.132-.035-.27.043-.305.176-.035.134.043.27.177.306l1.254.336-.766.44-1.135-.304c-.133-.035-.27.043-.306.176s.043.27.176.305l.654.175-.627.36c-.12.07-.16.222-.092.34.047.08.13.126.217.126.04 0 .084-.01.123-.032l.627-.363-.175.654c-.035.132.044.27.176.304.022.006.043.008.064.008.11 0 .21-.072.24-.184l.304-1.135.766-.44-.336 1.253c-.035.133.044.27.177.305.02.007.043.01.063.01.11 0 .21-.073.24-.185l.464-1.734.657-.378c.023-.013.043-.028.06-.046l-.084.757c-.01.098.038.192.123.242.084.05.19.043.27-.015l.618-.452c-.007.024-.012.05-.012.076v.76l-1.27 1.268c-.097.098-.097.256 0 .352.05.05.112.073.176.073s.127-.024.176-.073l.918-.918v.884l-.83.83c-.098.097-.098.255 0 .353.048.047.11.072.176.072.063 0 .126-.025.176-.072l.48-.48v.726c0 .137.11.248.247.248.138 0 .25-.11.25-.25v-.724l.478.48c.097.095.254.095.35 0 .1-.1.1-.257 0-.354l-.83-.83v-.884l.92.918c.097.098.253.098.35 0 .098-.096.098-.254 0-.352l-1.27-1.27v-.758c0-.025-.003-.05-.01-.074l.614.45c.044.032.096.05.146.05.043 0 .086-.012.125-.033.085-.05.133-.145.123-.242l-.08-.76c.015.018.035.034.058.047l.656.38.465 1.733c.03.11.13.184.24.184.02 0 .042-.003.063-.01.132-.034.21-.17.176-.304l-.337-1.254.765.44.304 1.136c.03.11.13.185.24.185.02 0 .043-.003.064-.01.133-.034.21-.17.176-.304l-.175-.655.627.363c.04.02.082.033.124.033.086 0 .17-.044.215-.124.07-.12.028-.27-.09-.34l-.628-.36.654-.177c.132-.036.21-.173.175-.306-.027-.133-.165-.21-.296-.176zM15.357 32.8c-.1.043-.16.146-.147.254l.074.672-.546-.398c-.043-.033-.096-.05-.146-.05-.052 0-.104.017-.146.05l-.546.397.073-.67c.013-.108-.047-.212-.146-.256l-.617-.273.618-.272c.1-.044.158-.146.146-.254l-.072-.672.545.4c.088.064.206.064.293 0l.546-.398-.073.672c-.012.107.048.21.146.254l.616.273-.618.27z" fill="#ccc"/><path d="M23.353 10.072l-.856.228-.575-.332.944-.254c.1-.027.16-.13.132-.23-.026-.1-.13-.158-.23-.13l-1.306.35-.494-.286c-.018-.01-.035-.017-.053-.02l.525-.232c.067-.03.112-.098.112-.172s-.044-.142-.112-.17l-.526-.234c.018-.004.036-.01.054-.02l.494-.286 1.307.35c.016.005.03.007.048.007.082 0 .158-.054.18-.138.028-.1-.032-.203-.132-.23l-.944-.252.575-.333.855.23c.016.003.033.005.05.005.082 0 .157-.055.18-.14.027-.1-.032-.202-.133-.228l-.494-.132.473-.273c.09-.053.12-.167.067-.257-.05-.09-.165-.12-.255-.068l-.472.272.132-.494c.026-.1-.032-.2-.133-.23-.1-.025-.204.034-.23.134l-.23.854-.575.334.253-.945c.026-.1-.033-.203-.133-.23-.1-.026-.202.032-.23.133l-.35 1.307-.495.286c-.016.01-.03.02-.044.033l.063-.57c.007-.075-.03-.146-.094-.183s-.144-.033-.204.01l-.465.34c.005-.017.01-.035.01-.055V7.25L21 6.294c.073-.073.073-.192 0-.265-.073-.074-.19-.074-.265 0l-.69.69v-.665l.625-.626c.073-.073.073-.193 0-.267-.073-.072-.19-.072-.265 0l-.36.36V4.98c0-.105-.084-.19-.188-.19s-.188.085-.188.19v.545l-.36-.36c-.073-.073-.192-.073-.266 0-.073.072-.073.192 0 .265l.626.626v.664l-.692-.69c-.073-.074-.19-.074-.265 0-.073.07-.073.19 0 .264l.956.956v.572c0 .02.004.037.01.054l-.463-.34c-.06-.043-.14-.048-.204-.01-.065.036-.1.108-.093.182l.062.573c-.013-.013-.028-.024-.045-.034l-.495-.286-.35-1.307c-.026-.1-.13-.16-.23-.133-.1.026-.16.13-.132.23l.253.944-.576-.333-.23-.853c-.025-.1-.128-.16-.228-.133-.1.027-.16.13-.133.23l.132.493-.474-.273c-.09-.052-.204-.02-.256.068-.052.09-.02.204.07.256l.47.273-.492.133c-.1.026-.158.13-.132.23.022.083.098.138.18.138.018 0 .033 0 .05-.005l.854-.23.576.334-.944.252c-.1.026-.16.13-.133.23.022.083.097.138.18.138.017 0 .032-.002.05-.006l1.306-.35.495.285c.017.008.034.015.052.02l-.524.23c-.068.03-.11.097-.11.17s.04.142.11.173l.527.232c-.02.005-.037.013-.055.022l-.494.285-1.307-.35c-.1-.027-.203.032-.23.132-.027.1.032.202.133.23l.944.253-.576.333-.853-.23c-.1-.026-.203.033-.23.134-.025.1.033.2.133.23l.493.13-.472.273c-.09.053-.12.167-.068.256.035.06.098.094.163.094.03 0 .063-.008.093-.024l.473-.273-.13.493c-.027.1.032.203.13.23.02.004.033.006.05.006.083 0 .16-.057.18-.14l.23-.855.576-.332-.253.944c-.027.1.033.202.133.23.016.003.032.005.048.005.082 0 .158-.055.18-.14l.35-1.306.496-.285c.017-.01.032-.02.044-.034l-.063.57c-.007.073.03.145.093.183.064.036.145.03.204-.012l.466-.34c-.005.018-.01.037-.01.057v.57l-.955.957c-.073.073-.073.192 0 .266.036.036.084.055.132.055s.096-.02.133-.055l.69-.692v.665l-.625.627c-.073.073-.073.192 0 .266.037.036.085.055.133.055s.097-.02.134-.055l.36-.36v.545c0 .104.084.188.187.188.105 0 .19-.084.19-.188v-.546l.36.36c.072.074.19.074.264 0s.073-.19 0-.265l-.625-.626v-.664l.69.692c.073.072.19.072.265 0 .073-.073.073-.192 0-.266l-.956-.956v-.57c0-.02-.004-.038-.01-.057l.463.338c.033.024.072.037.11.037.032 0 .065-.008.095-.025.063-.037.1-.11.093-.182l-.062-.572c.012.014.027.025.044.035l.495.286.35 1.307c.023.084.1.14.182.14.015 0 .03-.003.047-.007.1-.027.16-.13.133-.23l-.253-.943.576.332.23.855c.02.083.098.14.18.14.016 0 .033-.003.05-.008.1-.026.158-.13.132-.23l-.132-.492.473.273c.03.017.062.024.093.024.064 0 .128-.033.16-.094.054-.09.022-.203-.067-.256l-.473-.272.493-.132c.1-.027.16-.13.133-.23-.03-.1-.134-.16-.233-.13zM20.437 9.2c-.075.03-.12.11-.11.19l.055.506-.412-.3c-.033-.024-.072-.037-.11-.037s-.078.012-.11.035l-.412.3.056-.506c.01-.082-.035-.16-.11-.192l-.465-.206.464-.205c.075-.033.12-.11.11-.19l-.054-.507.41.3c.066.05.155.05.22 0l.412-.3-.055.507c-.01.08.036.16.11.192l.465.204-.465.205z" fill="#ccc"/></g></svg>