<svg xmlns="http://www.w3.org/2000/svg" width="50" height="50" viewBox="0 0 50 50"><g><path fill-rule="evenodd" clip-rule="evenodd" fill="#fff" d="M0 0h50v50H0z"/><circle cx="16.563" cy="25" r="6.563" fill="#0063DB"/><circle cx="33.438" cy="25" r="6.563" fill="#FF0084"/><path fill-rule="evenodd" clip-rule="evenodd" fill="none" d="M9 9h32v32H9z"/><path d="M13.914 37.227l-1.136.305-.764-.44 1.254-.337c.132-.037.21-.172.175-.305s-.172-.21-.304-.176l-1.735.465-.656-.38c-.023-.014-.047-.023-.07-.027l.697-.31c.09-.038.148-.128.148-.226s-.058-.188-.148-.227l-.7-.31c.025-.007.05-.015.072-.028l.655-.38 1.734.466c.02.006.042.008.063.008.11 0 .21-.072.24-.184.036-.133-.044-.268-.176-.305l-1.254-.336.764-.44 1.136.305c.02.006.043.008.063.008.11 0 .21-.072.24-.184.036-.134-.043-.27-.176-.306l-.654-.176.627-.36c.12-.07.16-.222.09-.34-.067-.12-.22-.16-.338-.093l-.627.363.175-.654c.035-.133-.043-.27-.176-.305s-.27.042-.305.175l-.304 1.135-.765.44.336-1.253c.034-.133-.045-.27-.177-.305-.133-.035-.27.043-.305.176l-.465 1.734-.653.38-.06.046.085-.756c.01-.1-.038-.193-.123-.242-.086-.05-.19-.045-.27.014l-.618.45c.007-.022.012-.048.012-.073v-.757l1.27-1.27c.097-.098.097-.256 0-.352-.098-.097-.254-.097-.352 0l-.918.92v-.884l.83-.832c.098-.096.098-.254 0-.352-.097-.096-.254-.096-.35 0l-.48.48v-.727c0-.137-.11-.248-.25-.248-.136 0-.247.11-.247.248v.727l-.48-.48c-.097-.096-.255-.096-.353 0-.097.098-.097.256 0 .352l.83.832v.883l-.917-.92c-.098-.097-.254-.097-.352 0-.097.097-.097.255 0 .353l1.27 1.27v.758c0 .026.004.05.01.073l-.613-.45c-.08-.058-.186-.064-.27-.015-.087.05-.135.145-.124.242l.083.762c-.017-.02-.037-.035-.06-.05l-.657-.378-.464-1.734c-.035-.133-.173-.21-.304-.176-.133.035-.212.172-.177.305l.337 1.253-.765-.44-.302-1.137c-.036-.133-.172-.21-.305-.176-.132.035-.21.172-.176.305l.174.654-.627-.364c-.12-.068-.27-.027-.34.092-.068.12-.027.27.092.34l.626.36-.654.177c-.133.035-.21.172-.176.305.03.11.13.184.24.184.02 0 .042-.002.064-.008l1.135-.305.765.442-1.254.336c-.133.037-.212.172-.177.305.03.11.13.184.24.184.02 0 .042-.002.063-.008l1.734-.466.657.38c.02.013.044.02.067.026l-.695.307c-.09.04-.147.13-.147.23 0 .097.057.185.147.226l.7.31c-.024.005-.05.015-.072.028l-.656.38-1.734-.465c-.132-.035-.27.043-.305.176-.035.134.043.27.177.306l1.255.334-.765.44-1.135-.304c-.132-.035-.27.043-.305.176s.043.27.176.305l.655.176-.627.36c-.12.07-.16.222-.092.34.047.08.13.126.217.126.04 0 .084-.013.123-.034l.627-.363-.175.654c-.035.133.044.27.176.305.022.006.043.008.064.008.11 0 .21-.072.24-.184l.304-1.135.765-.44-.336 1.254c-.034.133.045.27.178.305.02.005.043.007.063.007.11 0 .21-.072.24-.184l.465-1.734.657-.38c.022-.014.042-.03.058-.047l-.082.757c-.01.098.038.19.123.242.086.05.192.043.272-.016l.618-.45c-.007.022-.012.048-.012.075v.76l-1.27 1.27c-.097.097-.097.255 0 .35.05.05.112.073.176.073s.127-.023.176-.072l.918-.917v.883l-.83.83c-.098.098-.098.256 0 .354.048.047.11.072.176.072.063 0 .126-.025.176-.072l.48-.48v.725c0 .14.11.25.247.25.138 0 .25-.11.25-.25V40.4l.478.48c.097.096.254.096.35 0 .1-.098.1-.256 0-.354l-.83-.83v-.883l.92.918c.097.1.253.1.35 0 .098-.095.098-.253 0-.35l-1.27-1.27v-.76c0-.024-.003-.05-.01-.073l.614.45c.043.032.095.05.145.05.043 0 .086-.012.125-.033.085-.05.133-.145.123-.242l-.082-.76c.017.018.037.033.06.047l.656.378.465 1.734c.03.11.13.184.24.184.022 0 .044-.002.065-.008.132-.035.21-.172.176-.305l-.335-1.254.765.44.304 1.135c.03.11.13.184.24.184.02 0 .043-.003.064-.01.133-.034.21-.17.176-.304l-.175-.654.626.363c.04.02.082.033.124.033.086 0 .17-.045.215-.125.07-.12.028-.27-.09-.34l-.628-.36.654-.177c.134-.035.213-.172.177-.305-.034-.13-.172-.21-.303-.173zm-3.87-1.16c-.1.044-.16.147-.148.255l.073.672-.547-.398c-.043-.033-.096-.05-.146-.05-.052 0-.104.017-.146.05l-.545.396.073-.67c.013-.107-.047-.21-.146-.256l-.617-.27.618-.274c.1-.043.158-.146.146-.254l-.073-.672.545.4c.088.064.206.064.293 0l.546-.398-.074.672c-.012.107.048.21.146.254l.617.273-.617.27z" fill="#ccc"/><path d="M28.256 15.58l-.856.23-.575-.333.944-.254c.1-.027.158-.13.13-.23-.025-.1-.128-.158-.228-.13l-1.307.35-.494-.286c-.017-.01-.034-.017-.052-.02l.525-.232c.067-.03.112-.098.112-.172s-.044-.142-.112-.17l-.526-.234c.018-.005.036-.01.054-.02l.495-.287 1.307.35c.017.005.032.007.05.007.08 0 .157-.055.18-.14.027-.1-.033-.202-.133-.228l-.945-.253.575-.334.855.23c.016.003.033.005.05.005.082 0 .157-.054.18-.138.027-.1-.032-.203-.133-.23l-.493-.13.472-.274c.09-.052.12-.166.068-.256-.05-.09-.165-.12-.255-.068l-.473.273.132-.494c.026-.1-.032-.2-.133-.23-.1-.025-.202.034-.228.134l-.23.854-.575.334.253-.945c.026-.1-.033-.203-.133-.23-.1-.026-.202.032-.23.133l-.35 1.307-.495.286c-.016.01-.03.02-.044.033l.063-.57c.01-.075-.027-.146-.092-.183s-.144-.033-.204.01l-.465.34c.004-.017.008-.035.008-.055v-.572l.956-.956c.073-.073.073-.192 0-.265-.073-.074-.19-.074-.265 0l-.692.69v-.665l.625-.626c.073-.073.073-.193 0-.267-.073-.072-.19-.072-.265 0l-.36.36v-.545c0-.104-.084-.188-.188-.188-.103 0-.187.084-.187.188v.546l-.36-.36c-.073-.073-.192-.073-.266 0-.073.072-.073.192 0 .265l.626.625v.665l-.69-.69c-.074-.074-.192-.074-.266 0-.073.07-.073.19 0 .264l.956.956v.572c0 .02.003.037.008.054l-.46-.34c-.062-.043-.142-.048-.205-.01-.065.036-.1.108-.093.182l.062.573c-.013-.013-.028-.024-.045-.034l-.496-.286-.35-1.307c-.026-.1-.13-.16-.23-.133-.1.026-.16.13-.132.23l.253.944-.576-.333-.23-.853c-.026-.1-.13-.16-.23-.133-.098.027-.157.13-.13.23l.13.493-.472-.273c-.09-.052-.204-.02-.256.068-.052.09-.02.204.07.256l.47.273-.492.133c-.1.026-.158.13-.132.23.022.083.098.138.18.138.018 0 .033 0 .05-.005l.854-.23.576.334-.944.252c-.1.026-.16.13-.133.23.024.083.1.138.183.138.016 0 .03-.002.048-.006l1.308-.35.495.285c.016.008.033.015.05.02l-.523.23c-.068.03-.11.097-.11.17s.04.142.11.173l.527.232c-.02.004-.037.012-.055.02l-.494.286-1.307-.35c-.1-.026-.2.033-.228.133-.027.1.032.202.133.23l.944.253-.577.332-.854-.23c-.1-.026-.204.033-.23.134-.026.1.032.2.132.23l.493.13-.472.273c-.09.053-.12.167-.07.256.036.062.1.095.164.095.03 0 .063-.008.093-.024l.473-.272-.132.493c-.025.1.034.204.133.23.018.005.032.007.05.007.082 0 .158-.056.18-.14l.23-.854.575-.332-.253.945c-.027.1.033.202.133.23.016.003.032.005.048.005.082 0 .158-.055.18-.14l.35-1.306.496-.285c.017-.01.032-.022.044-.036l-.063.57c-.008.073.028.145.092.183.064.037.145.032.204-.01l.465-.34c-.005.017-.01.036-.01.056v.57l-.955.957c-.073.073-.073.192 0 .266.036.036.084.055.132.055s.096-.018.133-.054l.69-.692v.665l-.625.625c-.073.073-.073.192 0 .266.037.037.085.056.133.056s.096-.02.133-.055l.36-.36v.546c0 .104.084.188.187.188.104 0 .188-.084.188-.188v-.546l.36.36c.074.074.192.074.266 0s.073-.19 0-.265l-.626-.625v-.665l.69.692c.074.072.192.072.266 0 .073-.073.073-.192 0-.266l-.956-.955v-.57c0-.02-.003-.038-.01-.057l.464.34c.033.023.072.036.11.036.032 0 .065-.008.095-.025.062-.038.1-.11.092-.183l-.063-.572c.01.014.026.025.043.035l.495.285.35 1.307c.023.084.1.14.182.14.016 0 .032-.003.048-.007.1-.027.16-.13.133-.23l-.252-.943.576.332.23.855c.02.082.098.138.18.138.016 0 .033-.002.05-.007.1-.025.158-.13.132-.228l-.132-.493.473.272c.03.017.062.024.093.024.065 0 .13-.033.162-.094.053-.09.02-.203-.068-.256l-.473-.272.494-.132c.1-.027.16-.13.133-.23-.028-.1-.132-.16-.23-.13zm-2.916-.872c-.075.032-.12.11-.11.19l.055.507-.41-.3c-.034-.024-.073-.037-.112-.037s-.077.013-.11.036l-.41.3.055-.506c.01-.08-.035-.158-.11-.19l-.467-.208.466-.205c.075-.033.12-.11.11-.19l-.054-.507.41.3c.066.05.155.05.22 0l.412-.3-.055.507c-.01.08.035.16.11.192l.464.205-.464.206z" fill="#ccc"/></g></svg>