<svg xmlns="http://www.w3.org/2000/svg" width="50" height="50" viewBox="0 0 50 50"><g><path fill-rule="evenodd" clip-rule="evenodd" fill="#fff" d="M0 0h50v50H0z"/><path d="M17.117 12.167c-.405 0-.797.16-1.084.447s-.45.677-.45 1.082L15.548 36.3c-.002.632.396 1.21.986 1.435.59.225 1.27.06 1.69-.414l6.7-7.548h4.78c.347 0 .687-.12.957-.338.27-.217.46-.52.537-.86l3.22-14.49c.1-.45-.01-.928-.298-1.29-.29-.36-.73-.573-1.19-.574l-15.812-.052zM18.9 14.91h.004l11.757.038c.16 0 .317.076.416.2.1.124.14.293.103.448l-.732 3.288c-.053.234-.28.416-.52.416h-5.479c-.244-.002-.592-.007-.697.318-.1.305-.404 1.556-.404 1.8 0 .248.1.486.273.66.174.17.412.267.655.265h4.742c.16 0 .316.076.416.2.1.124.14.293.104.45l-.776 3.48c-.052.235-.28.42-.52.42h-4.028c-.26 0-.514.113-.688.31l-.03.03-5.14 5.88c.004-.01 0-17.67 0-17.67 0-.28.264-.533.542-.533z" fill="#F94877"/><path fill-rule="evenodd" clip-rule="evenodd" fill="none" d="M9 9h32v32H9z"/><path d="M38.432 35.975l-1.136.305-.764-.44 1.254-.337c.132-.037.21-.172.175-.305-.034-.133-.17-.21-.303-.176l-1.734.465-.656-.38c-.022-.013-.046-.022-.07-.026l.698-.308c.09-.04.148-.13.148-.227s-.058-.188-.148-.227l-.7-.31c.025-.007.05-.015.072-.028l.656-.38 1.734.466c.02.006.043.008.064.008.11 0 .21-.072.24-.184.037-.133-.043-.268-.175-.305l-1.254-.336.765-.442 1.136.305c.022.006.044.008.064.008.11 0 .21-.07.24-.183.036-.133-.043-.27-.176-.305l-.654-.176.627-.36c.12-.07.16-.222.092-.34-.068-.12-.22-.16-.34-.093l-.626.363.175-.654c.036-.133-.042-.27-.175-.305s-.27.043-.305.176l-.304 1.135-.765.44.337-1.253c.035-.133-.044-.27-.176-.305-.132-.035-.27.043-.304.176l-.465 1.734-.655.38c-.02.013-.04.028-.06.044l.085-.756c.01-.1-.038-.193-.123-.242-.086-.05-.19-.045-.27.014l-.618.45c.006-.022.01-.048.01-.073v-.757l1.27-1.27c.098-.098.098-.256 0-.352-.097-.098-.253-.098-.35 0l-.92.918v-.883l.83-.832c.1-.095.1-.253 0-.35-.096-.097-.253-.097-.35 0l-.48.48v-.728c0-.137-.11-.248-.248-.248-.137 0-.248.11-.248.248v.727l-.48-.48c-.096-.097-.254-.097-.352 0-.097.097-.097.255 0 .35l.83.833v.883l-.917-.918c-.098-.098-.254-.098-.352 0-.097.096-.097.254 0 .352l1.27 1.27v.758c0 .025.004.05.01.072l-.613-.45c-.08-.058-.186-.064-.27-.015-.087.05-.135.145-.124.242l.082.762c-.017-.02-.037-.036-.06-.05l-.657-.38-.463-1.733c-.035-.133-.173-.21-.304-.176-.133.036-.212.173-.177.306l.336 1.254-.765-.44-.304-1.136c-.036-.133-.172-.21-.305-.176-.132.035-.21.172-.176.305l.175.654-.627-.363c-.12-.068-.27-.027-.34.092-.068.12-.027.27.092.34l.627.36-.655.177c-.133.035-.21.172-.176.305.03.11.13.184.24.184.02 0 .04-.002.063-.008l1.135-.305.765.44-1.254.336c-.134.037-.213.172-.178.305.03.112.13.185.24.185.022 0 .043-.002.064-.008l1.734-.465.657.38c.02.013.044.02.067.026l-.696.307c-.09.04-.147.13-.147.23 0 .097.058.185.148.226l.7.31c-.024.006-.05.016-.072.03l-.656.378-1.734-.465c-.132-.035-.27.043-.305.176-.034.132.044.267.178.304l1.254.336-.765.44-1.135-.304c-.132-.035-.27.043-.305.176s.043.27.176.305l.654.176-.627.36c-.12.07-.16.222-.092.34.047.08.13.126.217.126.04 0 .084-.013.123-.034l.627-.363-.175.654c-.035.133.044.27.176.305.022.006.043.008.064.008.11 0 .21-.072.24-.184l.304-1.135.765-.44-.337 1.254c-.035.133.044.27.177.305.02.005.043.007.063.007.11 0 .21-.072.24-.184l.464-1.734.657-.38c.022-.014.042-.03.058-.047l-.083.758c-.01.1.037.192.122.243.085.05.19.043.27-.016l.62-.45c-.008.022-.013.048-.013.075v.758l-1.27 1.27c-.098.098-.098.256 0 .352.048.05.11.072.175.072s.127-.023.176-.072l.92-.918v.883l-.832.83c-.097.098-.097.256 0 .354.05.048.112.073.177.073.063 0 .126-.025.176-.072l.48-.48v.726c0 .14.11.25.248.25s.25-.11.25-.25v-.725l.478.48c.097.097.254.097.35 0 .1-.097.1-.255 0-.353l-.83-.83v-.883l.92.918c.097.098.253.098.35 0 .098-.096.098-.254 0-.352l-1.27-1.27v-.76c0-.025-.003-.05-.01-.074l.614.45c.044.032.096.05.146.05.043 0 .086-.012.125-.033.086-.05.134-.145.124-.242l-.082-.76c.016.02.036.034.06.048l.655.38.465 1.733c.03.112.13.185.24.185.02 0 .043-.002.064-.008.132-.035.21-.172.176-.305l-.336-1.254.765.44.305 1.136c.03.11.13.184.24.184.02 0 .043-.002.064-.008.132-.035.21-.172.175-.305l-.175-.654.627.364c.04.02.082.033.124.033.087 0 .17-.045.216-.125.07-.12.028-.27-.09-.34l-.628-.36.654-.177c.133-.035.212-.172.176-.305-.028-.132-.165-.21-.296-.175zm-3.87-1.16c-.1.044-.16.147-.148.255l.073.672-.546-.398c-.042-.033-.095-.05-.145-.05-.052 0-.104.017-.146.05l-.547.396.073-.67c.013-.107-.047-.21-.146-.256l-.617-.27.618-.274c.1-.043.16-.146.147-.254l-.072-.672.545.4c.088.064.206.064.293 0l.546-.398-.074.672c-.012.107.048.21.146.254l.617.273-.62.27z" fill="#ccc"/><path d="M14.518 18.038l-.855.23-.575-.333.944-.254c.1-.026.16-.128.132-.228-.026-.1-.13-.16-.23-.132l-1.306.35-.494-.285c-.018-.01-.035-.017-.053-.02l.526-.232c.067-.03.112-.098.112-.172s-.044-.14-.112-.17l-.526-.233c.018-.004.036-.01.054-.02l.494-.286 1.307.352c.017.004.032.006.05.006.08 0 .157-.055.18-.14.027-.1-.033-.202-.133-.228l-.944-.253.575-.333.855.23c.016.003.033.005.05.005.082 0 .157-.056.18-.14.027-.1-.032-.203-.133-.23l-.493-.13.473-.274c.09-.052.12-.166.068-.256-.05-.09-.165-.12-.255-.068l-.473.273.132-.494c.026-.1-.032-.2-.133-.228-.1-.026-.203.033-.23.133l-.228.854-.576.332.253-.945c.026-.1-.033-.202-.133-.23-.1-.025-.202.033-.23.134l-.35 1.308-.495.286c-.016.01-.03.02-.044.033l.064-.57c.008-.074-.028-.145-.093-.182s-.143-.033-.203.01l-.465.34c.005-.017.01-.035.01-.055v-.572l.955-.956c.073-.073.073-.192 0-.265-.073-.073-.19-.073-.265 0l-.69.69v-.664l.624-.626c.073-.072.073-.192 0-.266-.073-.07-.19-.07-.265 0l-.36.362v-.546c0-.104-.083-.188-.187-.188-.103 0-.187.084-.187.188v.546l-.36-.36c-.073-.073-.192-.073-.266 0-.073.072-.073.192 0 .265l.626.626v.665l-.69-.69c-.074-.074-.192-.074-.266 0-.073.07-.073.19 0 .264l.956.956v.572c0 .02.003.037.008.054l-.462-.34c-.06-.043-.14-.048-.204-.01-.065.036-.1.108-.093.182l.062.573c-.013-.015-.028-.026-.045-.036l-.495-.286-.35-1.307c-.026-.1-.13-.158-.23-.132-.1.026-.16.13-.132.23l.253.944-.576-.333-.23-.855c-.025-.1-.128-.16-.228-.133-.1.027-.158.13-.132.23l.132.493-.472-.275c-.09-.052-.204-.02-.256.068-.052.09-.02.204.07.256l.47.273-.492.132c-.1.025-.158.13-.132.228.022.084.098.14.18.14.018 0 .033-.003.05-.007l.854-.228.576.333-.944.253c-.1.026-.16.13-.133.23.023.083.098.138.182.138.016 0 .03-.002.048-.006l1.307-.35.495.285c.016.01.033.016.05.02l-.523.23c-.068.03-.11.098-.11.172s.04.14.11.172l.527.23c-.018.005-.036.013-.054.022l-.494.285-1.307-.35c-.1-.027-.202.032-.23.132-.026.1.033.2.134.228l.943.254-.576.332-.854-.23c-.1-.026-.203.033-.23.134-.025.1.033.2.133.23l.493.13-.473.273c-.09.054-.12.168-.07.257.036.06.1.094.164.094.032 0 .064-.007.094-.023l.473-.273-.132.493c-.026.1.033.203.132.23.018.004.032.006.05.006.082 0 .158-.056.18-.14l.23-.854.575-.333-.253.944c-.028.102.032.203.132.23.016.004.032.006.048.006.082 0 .158-.055.18-.14l.35-1.306.496-.285c.017-.01.032-.02.044-.035l-.063.57c-.008.073.028.145.092.183.063.037.144.032.203-.01l.466-.34c-.006.017-.01.036-.01.056v.57l-.956.956c-.073.073-.073.192 0 .266.036.036.084.055.132.055s.096-.02.133-.055l.69-.692v.665l-.626.626c-.073.074-.073.193 0 .267.037.036.085.055.133.055s.096-.02.133-.055l.36-.36v.545c0 .104.084.188.187.188.104 0 .188-.084.188-.188v-.546l.36.36c.073.074.19.074.265 0s.073-.19 0-.265l-.625-.625v-.665l.69.692c.074.072.192.072.266 0 .074-.073.074-.192 0-.266l-.955-.956v-.57c0-.02-.003-.038-.01-.057l.464.34c.032.023.07.036.11.036.03 0 .064-.01.094-.026.063-.037.1-.11.093-.182l-.063-.572c.012.014.027.025.044.035l.495.285.35 1.307c.023.084.1.14.182.14.016 0 .032-.003.048-.007.1-.027.16-.13.133-.23l-.253-.943.576.332.228.854c.022.083.1.14.182.14.015 0 .032-.003.048-.008.1-.026.16-.13.133-.23l-.13-.492.472.273c.03.017.062.024.093.024.065 0 .13-.032.162-.093.053-.09.02-.203-.068-.256l-.474-.27.493-.133c.1-.027.16-.13.132-.23-.03-.097-.135-.157-.234-.13zm-2.916-.873c-.075.032-.12.11-.11.19l.055.507-.41-.3c-.034-.024-.073-.037-.112-.037s-.077.013-.11.036l-.41.3.055-.505c.01-.08-.035-.158-.11-.19l-.465-.207.465-.205c.075-.033.12-.11.11-.19l-.054-.507.41.3c.066.05.155.05.22 0l.412-.3-.055.507c-.01.08.036.16.11.192l.465.205-.466.205z" fill="#ccc"/></g></svg>