<svg xmlns="http://www.w3.org/2000/svg" width="50" height="50" viewBox="0 0 50 50"><g><path fill-rule="evenodd" clip-rule="evenodd" fill="#fff" d="M0 0h50v50H0z"/><g fill="#E02F2F"><path d="M25.363 27.063c-.767-.54-2.23-1.858-2.23-2.633 0-.907.26-1.354 1.625-2.42 1.4-1.095 2.39-2.888 2.39-4.678 0-2.13-.948-3.435-2.728-5.144h2.686L29 11.333h-8.468c-3.796 0-7.367 2.872-7.367 6.202 0 3.405 2.587 6.15 6.45 6.15.268 0 .528-.005.784-.023-.252.48-.43 1.02-.43 1.58 0 .946.508 1.713 1.15 2.34-.484 0-.955.014-1.467.014-4.703 0-8.32 2.993-8.32 6.1 0 3.057 3.967 4.972 8.668 4.972 5.36 0 8.32-3.042 8.32-6.1.002-2.454-.72-3.922-2.957-5.505zM20.84 22.82c-2.183-.065-4.255-2.44-4.632-5.304-.376-2.866 1.086-5.058 3.267-4.994 2.182.067 4.254 2.365 4.632 5.23.375 2.866-1.088 5.133-3.268 5.068zm-.856 14.493c-3.25 0-5.598-2.056-5.598-4.527 0-2.42 2.91-4.438 6.162-4.402.758.008 1.465.13 2.105.338 1.766 1.228 3.03 1.922 3.39 3.318.064.283.103.576.103.873 0 2.47-1.59 4.4-6.162 4.4zM34.396 23.292v-4.27h-1.708v4.27h-4.27V25h4.27v4.27h1.708V25h4.27v-1.708z"/></g><path fill-rule="evenodd" clip-rule="evenodd" fill="none" d="M9 9h32v32H9z"/><path d="M13.766 26.227l-1.136.305-.764-.44 1.254-.336c.132-.036.21-.172.175-.305-.035-.132-.172-.21-.304-.175l-1.733.465-.656-.38c-.02-.013-.045-.02-.068-.026l.697-.308c.09-.04.147-.13.147-.228s-.058-.188-.148-.227l-.7-.31c.024-.005.05-.014.07-.026l.657-.38 1.734.465c.022.005.044.008.065.008.11 0 .21-.073.24-.185.036-.133-.044-.268-.176-.304l-1.255-.337.764-.442 1.135.306c.02.006.043.01.063.01.11 0 .21-.074.24-.186.036-.133-.043-.27-.176-.305l-.654-.175.627-.362c.12-.07.16-.22.09-.34-.067-.12-.22-.16-.338-.092l-.627.363.175-.655c.035-.133-.043-.27-.176-.305s-.27.043-.306.176l-.304 1.135-.765.442.336-1.254c.036-.133-.043-.27-.175-.305-.133-.035-.27.043-.305.176l-.465 1.733-.656.38c-.022.013-.042.028-.06.045l.084-.757c.01-.098-.038-.192-.123-.24-.085-.05-.19-.045-.27.013l-.617.45c.007-.022.012-.047.012-.073v-.758l1.27-1.27c.097-.098.097-.255 0-.352-.098-.098-.254-.098-.352 0l-.916.92v-.883l.83-.83c.098-.098.098-.256 0-.354-.097-.096-.254-.096-.35 0l-.48.48v-.726c0-.138-.11-.25-.25-.25-.136 0-.247.112-.247.25v.726l-.48-.48c-.096-.096-.254-.096-.352 0-.097.098-.097.256 0 .353l.83.83v.884l-.917-.918c-.097-.098-.253-.098-.35 0-.098.097-.098.254 0 .352l1.27 1.27v.758c0 .025.003.05.01.072l-.614-.45c-.08-.058-.186-.063-.27-.015-.087.048-.135.144-.124.24l.082.763c-.017-.02-.037-.035-.06-.05l-.657-.378-.463-1.735c-.035-.133-.173-.21-.304-.176-.133.035-.212.172-.177.305l.336 1.253-.766-.44-.304-1.136c-.036-.133-.172-.21-.305-.176-.132.036-.21.173-.176.306l.174.654-.627-.363c-.12-.068-.27-.027-.34.092-.068.118-.027.27.092.34l.626.36-.654.176c-.132.034-.21.17-.174.304.03.11.13.185.24.185.02 0 .042-.003.064-.01l1.135-.304.765.443-1.254.336c-.133.035-.212.17-.177.303.032.11.132.185.242.185.02 0 .042-.003.063-.01L7 23.856l.657.38c.02.012.044.02.067.025l-.696.307c-.09.04-.147.13-.147.23 0 .097.058.186.148.226l.7.31c-.024.005-.05.015-.072.028L7 25.74l-1.734-.466c-.132-.035-.27.043-.305.176-.034.133.044.27.178.305l1.254.335-.765.44-1.135-.304c-.132-.035-.27.043-.305.176s.043.27.176.305l.654.176-.627.36c-.12.07-.16.222-.092.34.047.08.13.126.217.126.04 0 .084-.013.123-.034l.627-.363-.175.654c-.035.133.044.27.176.305.022.006.043.008.064.008.11 0 .21-.072.24-.184l.304-1.135.766-.44-.336 1.254c-.035.133.044.27.177.305.022.005.044.007.064.007.11 0 .21-.072.24-.184l.464-1.734.657-.38c.022-.012.042-.027.058-.045l-.083.755c-.01.098.038.193.123.242s.19.043.27-.014l.62-.453c-.008.025-.013.05-.013.076v.76l-1.27 1.27c-.097.097-.097.255 0 .35.05.05.112.075.176.075s.127-.025.176-.074l.918-.917v.885l-.83.83c-.098.096-.098.254 0 .352.048.047.11.072.176.072.063 0 .126-.025.176-.072l.478-.48v.725c0 .137.11.248.248.248s.25-.11.25-.248V29.4l.478.48c.097.095.254.095.35 0 .1-.1.1-.257 0-.353l-.83-.83v-.885l.92.918c.097.098.253.098.35 0 .098-.096.098-.254 0-.352l-1.27-1.268v-.76c0-.025-.003-.05-.01-.074l.614.45c.044.032.096.05.146.05.043 0 .086-.012.125-.033.086-.05.134-.145.124-.242l-.082-.758c.016.018.036.034.06.047l.655.377.465 1.734c.03.112.13.185.24.185.02 0 .043-.002.064-.008.132-.035.21-.172.176-.305l-.336-1.254.765.44.305 1.136c.03.11.13.186.24.186.02 0 .043-.004.064-.01.132-.035.21-.172.175-.305l-.175-.654.627.364c.04.02.082.033.124.033.087 0 .17-.045.216-.125.07-.12.028-.27-.09-.34l-.628-.36.654-.177c.133-.035.212-.172.176-.305-.034-.13-.172-.21-.302-.173zm-3.87-1.158c-.1.042-.16.145-.148.253l.073.672-.545-.398c-.043-.033-.096-.05-.146-.05-.053 0-.105.017-.147.05l-.546.397.073-.67c.013-.108-.047-.212-.146-.256l-.617-.272.618-.272c.1-.044.158-.146.146-.254l-.07-.673.544.4c.088.064.206.064.293 0l.546-.398-.075.67c-.012.107.048.21.146.254l.617.273-.615.272z" fill="#ccc"/><path d="M38.157 13.92l-.855.228-.575-.332.944-.254c.1-.027.16-.13.133-.23-.026-.1-.13-.158-.23-.13l-1.306.35-.494-.286c-.018-.01-.035-.017-.053-.02l.525-.232c.067-.03.112-.098.112-.172s-.044-.142-.112-.17l-.526-.234c.017-.004.035-.01.053-.02l.494-.286 1.307.35c.017.005.032.007.05.007.08 0 .157-.056.18-.14.027-.1-.033-.203-.133-.23l-.943-.252.575-.333.855.23c.016.003.033.005.05.005.082 0 .157-.055.18-.14.027-.1-.032-.202-.133-.228l-.493-.132.474-.273c.09-.052.12-.166.068-.256-.05-.088-.165-.12-.255-.067l-.473.273.132-.494c.026-.1-.032-.2-.133-.23-.1-.025-.203.034-.23.134l-.228.854-.576.333.252-.945c.026-.1-.033-.202-.133-.23-.1-.025-.203.033-.23.134l-.35 1.307-.496.285c-.016.01-.03.02-.044.033l.063-.57c.008-.074-.028-.145-.093-.182s-.144-.033-.204.01l-.465.34c.006-.017.01-.035.01-.055v-.57l.956-.957c.073-.073.073-.192 0-.265-.073-.073-.19-.073-.265 0l-.69.69v-.665l.625-.626c.073-.072.073-.192 0-.266-.073-.07-.19-.07-.265 0l-.36.362v-.545c0-.104-.084-.188-.188-.188-.103 0-.187.083-.187.187v.546l-.36-.36c-.073-.073-.192-.073-.266 0-.074.072-.074.192 0 .265l.625.626v.665l-.69-.692c-.074-.073-.192-.073-.266 0-.074.072-.074.19 0 .265l.955.956v.57c0 .02.003.038.008.055l-.462-.34c-.06-.043-.14-.048-.203-.01-.065.036-.1.108-.093.182l.062.573c-.013-.014-.028-.025-.045-.035l-.494-.286-.35-1.308c-.026-.1-.13-.16-.23-.133-.1.025-.16.13-.132.228l.253.945-.576-.333-.228-.854c-.026-.1-.13-.16-.23-.133-.098.027-.157.13-.13.23l.13.493-.472-.273c-.09-.052-.204-.02-.256.068-.052.09-.02.205.07.257l.47.273-.492.132c-.1.026-.158.13-.132.23.022.083.098.138.18.138.018 0 .033-.002.05-.006l.854-.23.576.334-.944.253c-.1.027-.16.13-.133.23.023.084.098.14.182.14.016 0 .03-.003.048-.007l1.307-.35.495.285c.016.01.033.016.05.02l-.523.23c-.068.03-.11.098-.11.172s.04.14.11.172l.527.232c-.02.004-.038.012-.056.02l-.494.286-1.307-.35c-.1-.027-.202.032-.23.132-.026.1.033.202.134.23l.944.253-.575.332-.854-.23c-.1-.026-.202.033-.228.134-.026.1.032.202.132.23l.493.132-.472.272c-.09.053-.12.167-.07.256.036.06.1.094.164.094.03 0 .062-.008.092-.024l.473-.273-.132.493c-.026.1.033.203.132.23.018.004.032.006.05.006.082 0 .158-.056.18-.14l.23-.854.575-.332-.253.944c-.027.1.033.202.133.23.016.003.032.005.048.005.082 0 .158-.056.18-.14l.35-1.307.496-.285c.017-.01.032-.02.044-.035l-.063.57c-.008.073.028.145.092.183.064.037.145.032.204-.01l.467-.34c-.005.017-.01.036-.01.056v.57l-.955.957c-.073.072-.073.19 0 .265.036.036.084.055.132.055s.096-.02.133-.055l.69-.692v.665l-.625.626c-.073.073-.073.192 0 .266.037.036.085.055.133.055s.096-.02.133-.055l.36-.36v.545c0 .104.084.188.187.188.104 0 .188-.084.188-.188v-.546l.36.36c.073.073.19.073.265 0s.073-.192 0-.266l-.625-.626v-.665l.69.692c.074.072.192.072.266 0 .072-.073.072-.192 0-.266l-.957-.957v-.57c0-.02-.003-.038-.01-.057l.464.34c.033.023.072.036.11.036.032 0 .065-.008.095-.025.063-.037.1-.11.093-.182l-.063-.572c.012.014.027.025.044.035l.495.285.352 1.307c.022.084.098.14.18.14.017 0 .033-.003.05-.007.1-.027.158-.13.132-.23l-.253-.943.577.332.23.855c.02.083.098.14.18.14.016 0 .033-.003.05-.008.1-.027.158-.13.132-.23l-.133-.493.473.273c.03.017.062.024.093.024.065 0 .13-.033.162-.094.053-.09.02-.203-.068-.256l-.473-.272.493-.132c.1-.027.16-.13.133-.23-.03-.098-.133-.158-.233-.13zm-2.916-.874c-.074.032-.12.11-.11.19l.056.507-.41-.3c-.034-.024-.073-.037-.112-.037s-.077.013-.11.036l-.41.3.055-.506c.01-.08-.036-.158-.11-.19l-.466-.207.465-.206c.074-.033.12-.11.11-.19l-.055-.507.41.3c.066.05.155.05.22 0l.412-.3-.055.507c-.01.08.036.16.11.192l.465.205-.466.206z" fill="#ccc"/></g></svg>