<svg xmlns="http://www.w3.org/2000/svg" width="50" height="50" viewBox="0 0 50 50"><g><path fill-rule="evenodd" clip-rule="evenodd" fill="#fff" d="M0 0h50v50H0z"/><g fill="#007BB5"><path d="M11.048 18.896h6.104V38.95h-6.104zM31.98 18.896c-3.49 0-4.46 1.144-5.235 2.616v-2.616H20.64V38.95h6.104V27.616c0-1.743 0-3.487 3.052-3.487s3.052 1.744 3.052 3.487V38.95h6.104V27.616c0-5.23-.872-8.72-6.973-8.72z"/><circle cx="14.101" cy="14.1" r="3.052"/></g><path fill-rule="evenodd" clip-rule="evenodd" fill="none" d="M9 9h32v32H9z"/><path d="M11.832 33.814l-1.136.305-.764-.442 1.254-.336c.132-.037.21-.172.175-.305-.034-.133-.17-.21-.303-.176l-1.734.466-.656-.38c-.022-.013-.046-.022-.07-.026l.698-.31c.09-.038.148-.128.148-.226s-.058-.188-.148-.227l-.7-.31c.025-.007.05-.015.072-.028l.656-.38 1.734.465c.02.006.043.008.064.008.11 0 .21-.072.24-.184.037-.134-.043-.27-.175-.306l-1.252-.334.764-.44 1.136.304c.02.006.043.008.063.008.11 0 .21-.072.24-.184.036-.133-.043-.27-.176-.305l-.654-.176.627-.36c.12-.07.16-.222.09-.34-.067-.12-.22-.16-.338-.093l-.627.363.175-.654c.035-.133-.043-.27-.176-.305s-.27.043-.305.176l-.304 1.135-.764.44.336-1.254c.035-.133-.044-.27-.176-.305-.133-.034-.27.044-.305.177l-.466 1.734-.656.38-.06.045.085-.756c.01-.1-.038-.194-.123-.243-.086-.05-.19-.045-.27.014l-.618.452c.007-.023.012-.05.012-.074v-.758l1.27-1.27c.097-.098.097-.256 0-.352-.098-.098-.254-.098-.352 0l-.918.918v-.883l.83-.832c.098-.095.098-.253 0-.35-.097-.097-.254-.097-.35 0l-.48.48v-.728c0-.137-.11-.248-.25-.248-.136 0-.247.11-.247.248v.727l-.48-.48c-.096-.097-.254-.097-.352 0-.097.097-.097.255 0 .35l.83.833v.883l-.917-.918c-.098-.098-.254-.098-.352 0-.097.096-.097.254 0 .352l1.27 1.27v.758c0 .025.004.05.01.072l-.613-.45c-.08-.058-.186-.064-.27-.015-.087.05-.135.145-.124.242l.08.762c-.016-.02-.036-.036-.06-.05l-.656-.38-.464-1.733c-.035-.133-.173-.21-.304-.176-.133.036-.212.173-.177.306l.335 1.254-.765-.44-.304-1.136c-.036-.133-.172-.21-.305-.176-.13.035-.21.172-.175.305l.175.654-.627-.363c-.12-.068-.27-.027-.34.092-.068.12-.027.27.092.34l.627.36-.652.177c-.133.035-.21.172-.176.305.03.11.13.184.24.184.02 0 .042-.002.064-.008l1.135-.305.765.44-1.254.336c-.133.037-.212.172-.177.305.03.112.13.185.24.185.022 0 .043-.002.064-.008l1.735-.465.657.38c.02.013.044.02.067.026l-.697.307c-.09.04-.147.13-.147.23 0 .097.057.185.147.226l.7.31c-.024.006-.05.016-.072.03l-.655.378-1.734-.465c-.13-.035-.268.043-.304.176-.035.132.043.267.177.304l1.254.336-.765.44-1.135-.304c-.132-.035-.27.043-.305.176s.043.27.176.305l.654.176-.627.36c-.12.07-.16.222-.092.34.047.08.13.126.217.126.04 0 .084-.013.123-.034l.63-.366-.176.654c-.035.133.044.27.176.305.022.005.043.007.064.007.11 0 .21-.072.24-.184l.304-1.135.766-.44-.336 1.253c-.035.134.044.27.177.306.02.006.043.008.063.008.11 0 .21-.072.24-.184l.464-1.734.657-.38c.023-.013.043-.028.06-.046l-.084.758c-.01.098.038.19.123.242.084.05.19.043.27-.016l.618-.45c-.007.022-.012.048-.012.075v.757l-1.27 1.27c-.097.098-.097.256 0 .352.05.048.112.07.176.07s.127-.022.176-.07l.918-.92v.883l-.83.83c-.098.098-.098.256 0 .354.048.047.11.072.176.072.063 0 .126-.026.176-.073l.48-.48v.725c0 .14.11.25.247.25.138 0 .25-.11.25-.25v-.725l.478.48c.097.096.254.096.35 0 .1-.098.1-.256 0-.354l-.83-.83V35.4l.92.918c.097.098.253.098.35 0 .098-.096.098-.254 0-.352l-1.27-1.27v-.758c0-.025-.003-.05-.01-.074l.614.45c.044.032.096.05.146.05.043 0 .086-.012.125-.033.085-.05.133-.144.123-.24l-.08-.76c.015.017.035.032.058.046l.656.38.465 1.733c.03.11.13.183.24.183.02 0 .042-.002.063-.008.132-.035.21-.172.176-.305l-.337-1.254.765.44.304 1.136c.03.11.13.184.24.184.02 0 .043-.002.064-.008.133-.035.21-.172.176-.305l-.174-.653.627.363c.04.02.082.033.124.033.085 0 .17-.045.214-.125.07-.118.028-.27-.09-.34l-.628-.36.654-.176c.133-.035.212-.172.176-.305-.035-.133-.173-.21-.304-.176zm-3.87-1.158c-.1.043-.16.146-.148.254l.073.672-.546-.398c-.042-.033-.095-.05-.145-.05-.052 0-.104.017-.146.05l-.548.396.073-.67c.013-.107-.047-.21-.146-.256l-.618-.27.618-.274c.1-.043.158-.146.146-.254l-.072-.672.545.4c.087.064.205.064.292 0l.546-.398-.073.672c-.012.107.048.21.146.254l.618.273-.617.27z" fill="#ccc"/><path d="M27.013 14.522l-.855.23-.575-.333.944-.255c.1-.027.16-.13.132-.23-.027-.1-.13-.158-.23-.13l-1.307.35-.494-.286c-.02-.01-.036-.018-.054-.022l.525-.23c.068-.03.113-.1.113-.173s-.044-.142-.112-.17l-.525-.234c.018-.003.036-.01.054-.02l.493-.285 1.307.35c.017.005.032.007.05.007.08 0 .157-.055.18-.14.027-.1-.033-.202-.133-.228l-.944-.253.575-.332.855.23c.016.003.033.005.05.005.082 0 .157-.055.18-.14.027-.1-.032-.202-.133-.228l-.493-.132.473-.273c.09-.052.12-.166.068-.256-.05-.09-.165-.12-.255-.068l-.473.273.132-.495c.026-.1-.032-.2-.133-.23-.1-.025-.204.034-.23.134l-.23.853-.575.333.253-.945c.026-.1-.033-.2-.133-.228-.1-.026-.202.032-.23.133l-.35 1.307-.495.286c-.016.01-.03.02-.044.033l.063-.57c.007-.073-.03-.144-.094-.18s-.144-.034-.204.01l-.465.34c.005-.018.01-.036.01-.056V11.7l.955-.956c.073-.073.073-.192 0-.265-.073-.074-.19-.074-.265 0l-.69.69v-.665l.624-.626c.074-.073.074-.193 0-.267-.072-.072-.19-.072-.264 0l-.36.36V9.43c0-.104-.084-.188-.188-.188-.103 0-.187.084-.187.188v.546l-.36-.36c-.072-.073-.19-.073-.265 0-.073.072-.073.192 0 .265l.626.627v.665l-.69-.69c-.073-.074-.19-.074-.265 0-.073.07-.073.19 0 .264l.956.956v.572c0 .02.004.037.01.054l-.463-.34c-.06-.043-.14-.048-.204-.01-.065.036-.1.108-.093.182l.062.573c-.013-.014-.028-.025-.045-.035l-.495-.286-.35-1.307c-.026-.1-.13-.16-.23-.133-.1.026-.16.13-.132.23l.253.944-.576-.333-.23-.854c-.025-.1-.128-.16-.228-.134-.1.027-.16.13-.133.23l.132.493-.474-.274c-.09-.052-.204-.02-.256.068-.052.09-.02.204.07.256l.47.273-.492.132c-.1.026-.158.13-.132.23.022.083.098.138.18.138.018 0 .033-.002.05-.006l.854-.23.576.334-.944.254c-.1.026-.16.13-.133.23.022.083.097.138.18.138.017 0 .032-.002.05-.006l1.306-.35.495.285c.017.01.034.017.052.02l-.524.23c-.068.032-.11.1-.11.173s.04.14.11.172l.527.232c-.02.004-.037.012-.055.02l-.494.286-1.307-.35c-.1-.027-.203.032-.23.132-.027.1.032.202.133.23l.944.253-.576.332-.853-.23c-.1-.026-.203.033-.23.134-.025.1.033.2.133.23l.493.13-.472.273c-.09.053-.12.167-.068.256.035.06.098.094.163.094.03 0 .063-.008.093-.024l.473-.273-.13.493c-.027.1.032.203.13.23.02.004.033.006.05.006.083 0 .16-.057.18-.14l.23-.855.576-.332-.253.944c-.027.1.033.202.133.23.016.003.032.005.048.005.082 0 .158-.055.18-.14l.35-1.306.496-.285c.017-.01.032-.02.044-.034l-.063.57c-.007.073.03.145.093.183.064.036.145.03.204-.012l.466-.34c-.005.018-.01.037-.01.057v.57l-.955.957c-.073.073-.073.192 0 .266.036.036.084.055.132.055s.096-.02.133-.055l.69-.692v.665l-.625.627c-.073.073-.073.192 0 .266.037.036.085.055.133.055s.097-.02.134-.055l.36-.36v.545c0 .104.084.188.187.188.105 0 .19-.084.19-.188v-.546l.36.36c.072.074.19.074.264 0s.073-.19 0-.265l-.625-.626v-.664l.69.692c.073.072.19.072.265 0 .073-.073.073-.192 0-.266l-.956-.956v-.57c0-.02-.004-.038-.01-.057l.463.338c.033.024.072.037.11.037.032 0 .065-.008.095-.025.063-.037.1-.11.093-.182l-.062-.572c.012.014.027.025.044.035l.495.286.35 1.307c.023.084.1.14.182.14.015 0 .03-.003.047-.007.1-.027.16-.13.133-.23l-.253-.943.576.332.23.855c.02.083.098.14.18.14.016 0 .033-.003.05-.008.1-.026.158-.13.132-.23l-.135-.492.473.273c.03.017.062.024.093.024.065 0 .13-.033.162-.094.053-.09.02-.203-.068-.256l-.473-.272.493-.132c.1-.027.16-.13.133-.23-.027-.098-.13-.158-.23-.13zm-2.916-.873c-.075.03-.12.11-.11.19l.055.506-.41-.3c-.034-.024-.073-.037-.112-.037s-.077.012-.11.035l-.41.3.055-.506c.01-.082-.035-.16-.11-.192l-.465-.206.465-.205c.075-.033.12-.11.11-.19l-.054-.507.41.3c.067.05.156.05.222 0l.41-.3-.054.507c-.01.08.036.16.11.192l.465.204-.466.205z" fill="#ccc"/></g></svg>