<svg xmlns="http://www.w3.org/2000/svg" width="50" height="50" viewBox="0 0 50 50"><g><path fill-rule="evenodd" clip-rule="evenodd" fill="#fff" d="M0 0h50v50H0z"/><path d="M33.362 14.726c-.235-.807-.968-3.463-1.687-3.72-1.28 0-2.433-.01-3.72 0-.456.002-1.872 2.4-2.036 2.79-.897 2.152-1.223 3.345-1.862 5.58-.673 2.363-1.31 4.857-1.86 7.44-.245-.41-.763-1.545-.93-1.858-1.22-2.333-1.57-4.183-2.79-6.51-1.23-2.344-1.08-3.227-3.72-2.792-.657.106-2.187.66-2.79.93-.3.137-.932.698-.932 1.86 0 5.466 0 10.58.93 15.813.57 3.728.156 4.155 3.72 2.788.18-.068-.177.075 0 0 1.86-.93 2.937-.94 2.79-1.86-.254-1.593-.722-3.98-.93-5.58.075-.007-.074.007 0 0 .93 0 2.69 2.88 3.722 4.65.847 1.442 1.86 1.86 2.79 1.86 3.72 0 4.65-.93 4.65-1.86s-.04-3.01 0-3.72c0-1.86-.087-6.775 0-7.44 1.613 5.16 3.152 9.91 4.65 14.882.26.867 1.81 1.2 2.733.93 1.688 0 3.063-.608 2.85-1.34-1.86-6.405-2.573-10.434-3.722-15.403-.65-2.84-.926-3.72-1.856-7.44z" fill="#E71E27"/><path fill-rule="evenodd" clip-rule="evenodd" fill="none" d="M9 9h32v32H9z"/><path d="M13.194 35.707l-1.136.305-.764-.44 1.254-.337c.132-.037.21-.172.175-.305s-.172-.21-.304-.176l-1.735.465-.656-.38c-.023-.014-.047-.023-.07-.027l.697-.31c.09-.038.148-.128.148-.226s-.058-.188-.148-.227l-.7-.31c.025-.006.05-.014.072-.027l.655-.38 1.734.466c.02.005.042.007.063.007.11 0 .21-.072.24-.184.036-.133-.044-.268-.176-.305l-1.254-.336.764-.44 1.136.304c.02.006.043.008.063.008.11 0 .21-.072.24-.184.036-.133-.043-.27-.176-.305l-.654-.176.627-.362c.12-.07.16-.22.09-.34-.067-.12-.22-.16-.338-.092l-.625.364.175-.654c.035-.133-.043-.27-.176-.305s-.27.044-.306.177l-.304 1.135-.765.44.336-1.253c.036-.134-.043-.27-.175-.306-.133-.035-.27.043-.305.176l-.465 1.734-.655.38c-.02.013-.04.028-.06.044l.085-.756c.01-.1-.038-.193-.123-.242-.086-.05-.19-.045-.27.014l-.618.45c.007-.022.012-.048.012-.073v-.757l1.27-1.27c.097-.098.097-.256 0-.352-.098-.097-.254-.097-.352 0l-.918.92v-.883l.83-.832c.098-.096.098-.254 0-.352-.097-.096-.254-.096-.35 0l-.48.48v-.727c0-.137-.11-.248-.25-.248-.136 0-.247.11-.247.248v.727l-.48-.48c-.097-.096-.255-.096-.353 0-.097.098-.097.256 0 .352l.83.832v.883l-.917-.918c-.098-.098-.254-.098-.352 0-.097.096-.097.254 0 .352l1.27 1.27v.758c0 .025.004.05.01.072l-.613-.45c-.08-.058-.186-.064-.27-.015-.087.048-.135.144-.124.24l.083.763c-.017-.02-.037-.035-.06-.05l-.657-.378-.463-1.735c-.035-.133-.173-.21-.304-.176-.134.035-.213.172-.178.305l.336 1.253-.765-.44L5 30.976c-.036-.133-.172-.21-.305-.176-.132.036-.21.173-.176.306l.174.654-.627-.363c-.12-.068-.27-.027-.34.092-.068.118-.027.27.092.34l.626.36-.654.176c-.133.034-.21.17-.176.304.03.11.13.184.24.184.02 0 .042-.002.064-.008l1.135-.305.765.442-1.254.336c-.133.037-.212.172-.177.305.03.11.13.184.24.184.02 0 .042-.002.063-.008l1.734-.466.657.38c.02.013.044.02.067.026l-.695.307c-.09.04-.147.13-.147.23 0 .097.057.185.147.226l.7.31c-.024.005-.05.015-.072.028l-.656.38-1.734-.465c-.132-.035-.27.043-.305.176-.035.134.043.27.177.306l1.255.334-.765.44-1.135-.304c-.132-.035-.27.043-.305.176s.043.27.176.305l.655.176-.627.36c-.12.07-.16.222-.092.34.047.08.13.126.217.126.04 0 .084-.013.123-.034l.627-.363-.173.654c-.035.133.044.27.176.305.022.006.043.008.064.008.11 0 .21-.072.24-.184l.304-1.135.764-.44-.336 1.254c-.035.133.044.27.177.305.02.005.042.007.062.007.11 0 .21-.072.24-.184l.464-1.734.657-.38c.022-.014.042-.03.058-.047l-.08.757c-.01.098.037.19.122.242.085.05.19.043.27-.016l.62-.45c-.008.022-.013.048-.013.075v.76l-1.27 1.27c-.098.097-.098.255 0 .35.048.05.11.073.175.073s.127-.023.176-.072l.92-.917v.883l-.832.83c-.097.098-.097.256 0 .354.05.047.112.072.177.072.063 0 .126-.025.176-.072l.48-.48v.725c0 .14.11.25.248.25s.25-.11.25-.25v-.725l.478.48c.097.096.254.096.35 0 .1-.098.1-.256 0-.354l-.83-.83v-.883l.92.918c.097.1.253.1.35 0 .098-.095.098-.253 0-.35l-1.27-1.27v-.76c0-.024-.003-.05-.01-.073l.614.45c.044.032.096.05.146.05.043 0 .086-.012.125-.033.086-.05.134-.145.124-.242l-.082-.76c.016.018.036.033.06.047l.655.378.465 1.734c.03.11.13.184.24.184.02 0 .043-.002.064-.008.132-.035.21-.172.176-.305L11.046 36l.765.44.305 1.136c.03.11.13.184.24.184.02 0 .043-.002.064-.008.132-.035.21-.172.175-.305l-.175-.654.627.363c.04.02.082.033.124.033.087 0 .17-.046.216-.126.07-.12.028-.27-.09-.34l-.628-.36.654-.177c.133-.035.212-.172.176-.305-.035-.132-.173-.21-.304-.175zm-3.87-1.158c-.1.042-.16.145-.148.253l.073.672-.547-.398c-.043-.033-.096-.05-.146-.05-.052 0-.104.017-.146.05l-.545.396.073-.67c.013-.107-.047-.21-.146-.256l-.617-.27.618-.274c.1-.043.158-.146.146-.254l-.073-.673.545.4c.088.064.206.064.293 0l.546-.398-.073.67c-.012.107.048.21.146.254l.617.273-.617.272z" fill="#ccc"/><path d="M25.872 11.872l-.855.228-.575-.332.944-.254c.1-.027.16-.13.132-.23-.026-.1-.13-.158-.23-.13l-1.306.35-.494-.286c-.018-.01-.035-.017-.053-.02l.525-.232c.067-.03.112-.098.112-.172s-.044-.142-.112-.17l-.526-.234c.018-.004.036-.01.054-.02l.494-.286 1.307.35c.016.005.03.007.048.007.082 0 .158-.054.18-.138.028-.1-.032-.203-.132-.23l-.944-.252.575-.333.855.23c.016.003.033.005.05.005.082 0 .157-.055.18-.14.027-.1-.032-.202-.133-.228l-.494-.132.473-.273c.09-.053.12-.167.067-.257-.05-.09-.165-.12-.255-.068l-.473.273.13-.494c.027-.1-.03-.2-.132-.23-.1-.025-.203.034-.23.134l-.228.854-.576.333.253-.945c.026-.1-.033-.202-.133-.23-.1-.025-.202.033-.23.134l-.35 1.307-.494.285c-.016.01-.03.02-.044.033l.063-.57c.007-.074-.03-.145-.094-.182s-.144-.033-.204.01l-.465.34c.005-.017.01-.035.01-.055v-.57l.955-.957c.073-.073.073-.192 0-.265-.073-.073-.19-.073-.265 0l-.69.692v-.665l.624-.626c.074-.073.074-.193 0-.267-.072-.072-.19-.072-.264 0l-.36.36V6.78c0-.105-.084-.19-.188-.19-.103 0-.187.085-.187.19v.545l-.36-.36c-.072-.073-.19-.073-.265 0-.073.072-.073.192 0 .265l.626.626v.664l-.69-.69c-.073-.074-.19-.074-.265 0-.073.07-.073.19 0 .264l.956.956v.572c0 .02.004.037.01.054l-.463-.34c-.06-.043-.14-.048-.204-.01-.065.036-.1.108-.093.182l.062.573c-.013-.013-.028-.024-.045-.034l-.495-.286-.35-1.307c-.026-.1-.13-.16-.23-.133-.1.026-.16.13-.132.23l.253.944-.576-.333-.23-.853c-.025-.1-.128-.16-.228-.133-.1.027-.16.13-.133.23l.132.493-.474-.273c-.09-.052-.204-.02-.256.068-.052.09-.02.204.07.256l.47.273-.492.133c-.1.026-.158.13-.132.23.022.083.098.138.18.138.018 0 .033 0 .05-.005l.854-.23.576.334-.944.252c-.1.026-.16.13-.133.23.022.083.097.138.18.138.017 0 .032-.002.05-.006l1.306-.35.495.285c.017.008.034.015.052.02l-.524.23c-.068.03-.11.097-.11.17s.04.142.11.173l.527.232c-.02.004-.037.012-.055.02l-.494.286-1.307-.35c-.1-.026-.203.033-.23.133-.027.1.032.202.133.23l.944.253-.577.334-.854-.23c-.1-.026-.203.033-.23.134-.025.1.033.2.133.23l.492.13-.472.273c-.09.053-.12.167-.07.256.036.06.1.094.164.094.03 0 .063-.008.093-.024l.473-.273-.132.493c-.026.1.033.203.132.23.018.004.032.006.05.006.082 0 .158-.057.18-.14l.23-.855.575-.332-.253.944c-.027.1.033.202.133.23.016.003.032.005.048.005.082 0 .158-.055.18-.14l.35-1.306.496-.285c.016-.01.03-.02.043-.034l-.063.57c-.008.073.028.145.092.183.064.036.145.03.204-.012l.466-.34c-.005.018-.01.037-.01.057v.57l-.955.957c-.073.073-.073.192 0 .266.036.036.084.055.132.055s.095-.02.132-.055l.69-.692v.665l-.625.627c-.073.073-.073.192 0 .266.037.036.085.055.133.055s.096-.02.133-.055l.36-.36v.545c0 .104.084.188.187.188.104 0 .188-.084.188-.188v-.546l.36.36c.073.074.19.074.265 0s.073-.19 0-.265l-.625-.626v-.664l.69.692c.074.072.192.072.266 0 .073-.073.073-.192 0-.266l-.956-.956v-.57c0-.02-.003-.038-.01-.057l.464.338c.033.024.072.037.11.037.032 0 .065-.008.095-.025.063-.037.1-.11.093-.182l-.063-.572c.012.014.027.025.044.035l.496.286.35 1.307c.023.084.1.14.182.14.016 0 .032-.003.048-.007.1-.027.16-.13.133-.23l-.254-.943.576.332.23.855c.02.083.098.14.18.14.016 0 .033-.003.05-.008.1-.026.158-.13.132-.23l-.132-.492.473.273c.03.017.062.024.093.024.065 0 .13-.033.162-.094.053-.09.02-.203-.068-.256l-.473-.272.492-.132c.1-.027.16-.13.133-.23-.03-.1-.133-.16-.233-.13zM22.956 11c-.075.03-.12.11-.11.19l.055.506-.41-.3c-.033-.024-.072-.037-.11-.037s-.078.012-.11.035l-.412.3.056-.506c.01-.082-.035-.16-.11-.192l-.465-.206.464-.205c.075-.033.12-.11.11-.19l-.054-.507.41.3c.066.05.155.05.22 0l.412-.3-.055.507c-.01.08.036.16.11.192l.465.204-.466.205z" fill="#ccc"/></g></svg>