<svg xmlns="http://www.w3.org/2000/svg" width="50" height="50" viewBox="0 0 50 50"><g><path fill-rule="evenodd" clip-rule="evenodd" fill="#fff" d="M0 0h50v50H0z"/><g fill-rule="evenodd" clip-rule="evenodd"><g fill="#88AB27"><path d="M21.206 29.816c.983.52 2.05.798 3.13 1.004.844.16 1.697.27 2.558.235 3.264-.142 6.26-1.118 8.948-2.973.98-.674 2.323-.235 2.603.843.17.668-.057 1.4-.67 1.818-2.394 1.63-5 2.755-7.854 3.29-1.497.28-3.005.34-4.526.245-1.267-.077-2.478-.39-3.686-.735-1.405-.4-2.68-1.092-3.954-1.783-1-.667-1.99-1.347-2.89-2.147-1.195-1.063-2.263-2.237-3.158-3.56-.42-.627-.17-1.585.508-2.13.58-.467 1.444-.42 1.992.096.42.395.71.895 1.082 1.332.696.82 1.45 1.576 2.276 2.255 1.046.86 2.185 1.58 3.424 2.133.07.03.145.05.218.076zM20.555 20.945c-1.448-.006-2.655-1.182-2.624-2.613.033-1.42 1.076-2.683 2.66-2.652 1.528.03 2.627 1.138 2.627 2.66 0 1.492-1.04 2.607-2.662 2.605zM33.397 18.888c.38.925.373 1.82-.2 2.675-.83 1.235-2.65 1.522-3.813.6-.517-.485-.88-1.044-.98-1.77-.19-1.35.822-2.722 2.172-2.92 1.274-.187 2.173.363 2.82 1.415z"/></g><path fill="none" d="M9 9h32v32H9z"/></g><path d="M18.254 37.48l-1.136.305-.764-.44 1.254-.337c.132-.036.21-.172.175-.305s-.172-.21-.304-.176l-1.735.465-.656-.38c-.023-.013-.047-.02-.07-.026l.697-.308c.09-.04.148-.13.148-.228s-.058-.188-.148-.227l-.7-.31c.025-.006.05-.015.072-.027l.655-.38 1.734.465c.02.007.042.01.063.01.11 0 .21-.073.24-.185.036-.133-.044-.268-.176-.304l-1.254-.335.764-.442 1.136.305c.02.006.043.01.063.01.11 0 .21-.074.24-.186.036-.133-.043-.27-.176-.305l-.654-.175.627-.362c.12-.07.16-.22.09-.34-.067-.12-.22-.16-.338-.092l-.627.363.175-.653c.035-.133-.043-.27-.176-.305s-.27.043-.305.176l-.304 1.135-.765.44.336-1.253c.034-.133-.045-.27-.177-.305-.133-.035-.27.043-.305.176l-.465 1.735-.656.38c-.02.013-.04.028-.06.045l.085-.757c.01-.1-.038-.193-.123-.242-.087-.05-.192-.043-.272.015l-.617.45c.008-.022.013-.047.013-.073v-.758l1.27-1.27c.097-.098.097-.255 0-.352-.098-.098-.254-.098-.352 0l-.917.918v-.88l.83-.83c.098-.098.098-.256 0-.354-.097-.096-.254-.096-.35 0l-.48.48v-.726c0-.138-.11-.25-.25-.25-.136 0-.247.112-.247.25v.726l-.48-.48c-.096-.096-.254-.096-.352 0-.097.098-.097.256 0 .353l.83.83v.883l-.917-.918c-.098-.098-.254-.098-.352 0-.097.097-.097.254 0 .352l1.27 1.27v.758c0 .025.004.05.01.072l-.613-.45c-.08-.058-.186-.063-.27-.015-.087.05-.135.145-.124.242l.082.762c-.017-.02-.037-.035-.06-.05l-.657-.378-.464-1.734c-.036-.133-.174-.21-.305-.176-.133.035-.212.172-.177.305l.336 1.254-.765-.44-.3-1.137c-.036-.133-.172-.21-.305-.176-.132.035-.21.172-.176.305l.174.653-.627-.363c-.12-.068-.27-.027-.34.092-.068.12-.027.27.092.34l.626.362-.654.175c-.133.034-.21.17-.176.304.03.11.13.185.24.185.02 0 .042-.004.064-.01l1.135-.305.765.442-1.254.336c-.133.036-.212.172-.177.304.03.11.13.185.24.185.02 0 .042-.003.063-.01l1.734-.463.657.378c.02.013.044.02.067.026l-.695.307c-.09.04-.147.13-.147.23 0 .098.057.187.147.227l.7.31c-.024.005-.05.015-.072.028l-.656.38-1.734-.466c-.132-.036-.27.042-.305.175-.035.133.043.27.177.305l1.254.336-.766.44-1.134-.306c-.132-.035-.27.043-.305.176s.043.27.176.305l.655.177-.627.36c-.12.07-.16.222-.092.34.047.08.13.126.217.126.04 0 .084-.012.123-.033l.627-.363-.175.654c-.035.134.044.27.176.306.022.006.043.008.064.008.11 0 .21-.072.24-.184l.304-1.135.765-.44-.336 1.253c-.034.133.045.27.178.305.02.006.043.008.063.008.11 0 .21-.07.24-.183l.465-1.734.657-.38c.022-.012.042-.027.058-.045l-.083.757c-.01.098.038.192.123.242.085.05.19.043.27-.015l.62-.452c-.008.024-.013.05-.013.076v.76l-1.27 1.268c-.097.098-.097.256 0 .352.05.05.112.073.176.073s.127-.025.176-.074l.917-.918v.884l-.83.83c-.098.097-.098.255 0 .353.048.047.11.072.176.072.063 0 .126-.025.176-.072l.478-.48v.726c0 .14.11.25.248.25s.25-.11.25-.25v-.724l.478.48c.097.095.254.095.35 0 .1-.1.1-.257 0-.354l-.83-.83v-.884l.92.918c.097.098.253.098.35 0 .098-.096.098-.254 0-.352l-1.27-1.27v-.758c0-.025-.003-.05-.01-.074l.614.45c.044.032.096.05.146.05.043 0 .086-.012.125-.033.084-.05.132-.146.122-.243l-.082-.76c.016.018.036.034.06.047l.655.38.465 1.733c.03.11.13.184.24.184.02 0 .043 0 .064-.007.132-.035.21-.172.176-.305l-.336-1.254.765.44.303 1.136c.03.11.13.185.24.185.02 0 .043-.003.064-.01.133-.034.21-.17.176-.304l-.175-.653.627.363c.04.02.082.033.124.033.085 0 .17-.045.214-.125.07-.12.028-.27-.09-.34l-.628-.36.654-.177c.133-.034.212-.17.176-.304-.034-.133-.17-.21-.302-.176zm-3.87-1.158c-.1.043-.16.146-.148.254l.073.672-.547-.398c-.043-.033-.096-.05-.146-.05-.052 0-.104.017-.146.05l-.545.397.073-.67c.013-.108-.047-.212-.146-.256l-.617-.27.618-.273c.1-.044.158-.146.146-.254l-.073-.673.545.4c.088.064.206.064.293 0l.546-.398-.072.672c-.012.107.048.21.146.254l.616.273-.617.272z" fill="#ccc"/><path d="M42.582 21.226l-.855.23-.575-.333.944-.254c.1-.028.16-.13.132-.23-.026-.1-.13-.16-.23-.132l-1.306.35-.494-.285c-.018-.01-.035-.017-.053-.02l.525-.232c.067-.028.112-.097.112-.17s-.044-.143-.112-.172l-.526-.233c.018-.004.036-.01.054-.02l.494-.286 1.307.35c.016.004.03.006.048.006.082 0 .158-.055.18-.14.028-.1-.032-.202-.132-.228l-.944-.253.575-.333.855.23c.016.003.033.005.05.005.082 0 .157-.055.18-.14.027-.1-.032-.202-.133-.228l-.494-.133.473-.273c.09-.052.12-.166.067-.256-.05-.09-.165-.12-.255-.068l-.473.273.13-.494c.027-.1-.03-.202-.132-.23-.1-.026-.203.033-.23.133l-.228.854-.576.333.253-.945c.026-.1-.033-.202-.133-.23-.1-.025-.202.033-.23.134l-.35 1.306-.495.286c-.017.01-.03.02-.045.033l.063-.57c.008-.074-.028-.145-.093-.182s-.144-.033-.204.01l-.464.34c.005-.017.01-.035.01-.055v-.572l.955-.956c.074-.073.074-.192 0-.265-.072-.073-.19-.073-.264 0l-.69.69v-.664l.624-.625c.073-.072.073-.192 0-.266-.073-.073-.19-.073-.265 0l-.36.36v-.546c0-.104-.084-.188-.188-.188-.103 0-.187.084-.187.188v.546l-.36-.36c-.073-.073-.192-.073-.266 0-.073.072-.073.192 0 .265l.626.626v.666l-.69-.69c-.074-.074-.192-.074-.266 0-.073.07-.073.19 0 .264l.956.956v.572c0 .02.003.037.008.054l-.462-.34c-.06-.043-.14-.048-.204-.01-.065.036-.1.108-.093.182l.06.573c-.012-.014-.027-.025-.044-.035l-.495-.286-.35-1.307c-.025-.102-.13-.16-.228-.134-.1.026-.16.13-.133.23l.252.944-.576-.333-.23-.854c-.025-.1-.128-.16-.228-.133-.1.027-.158.13-.132.23l.132.493-.473-.273c-.09-.052-.204-.02-.256.068-.053.09-.022.204.068.256l.472.273-.493.132c-.1.025-.158.13-.132.228.022.084.098.14.18.14.018 0 .033-.003.05-.007l.854-.228.575.333-.944.253c-.1.026-.16.13-.132.23.023.083.098.138.182.138.016 0 .03-.002.048-.006l1.307-.35.495.285c.016.01.033.016.05.02l-.523.23c-.068.03-.11.098-.11.172s.04.14.11.172l.527.23c-.02.005-.037.013-.055.022l-.495.285-1.307-.35c-.1-.027-.202.032-.23.132-.026.1.033.2.134.228l.944.254-.576.332-.854-.23c-.1-.026-.203.033-.23.134-.025.1.033.2.133.23l.492.13-.472.273c-.09.054-.12.168-.07.257.036.06.1.094.164.094.03 0 .063-.007.093-.023l.473-.273-.132.493c-.026.1.033.203.132.23.018.004.032.006.05.006.082 0 .158-.056.18-.14l.23-.854.575-.333-.253.944c-.027.102.033.203.133.23.016.004.032.006.048.006.082 0 .158-.055.18-.14l.35-1.306.496-.285c.016-.01.03-.02.043-.035l-.063.57c-.008.073.028.145.092.183.064.037.145.032.204-.01l.466-.34c-.005.017-.01.036-.01.056v.57l-.955.956c-.073.073-.073.192 0 .266.036.036.084.055.132.055s.095-.02.132-.055l.69-.692v.665l-.625.626c-.073.074-.073.193 0 .267.037.036.085.055.133.055s.096-.02.133-.055l.36-.36v.545c0 .104.084.188.187.188.104 0 .188-.084.188-.188v-.546l.36.36c.073.074.19.074.265 0s.073-.19 0-.265l-.625-.625v-.665l.69.692c.074.072.192.072.266 0 .073-.073.073-.192 0-.266l-.956-.956v-.57c0-.02-.003-.038-.01-.057l.464.34c.033.023.072.036.11.036.032 0 .065-.01.095-.026.063-.037.1-.11.093-.182l-.063-.572c.012.014.027.025.044.035l.496.285.35 1.307c.023.084.1.14.182.14.016 0 .032-.003.048-.007.1-.027.16-.13.133-.23l-.254-.943.576.332.23.854c.02.083.098.14.18.14.016 0 .033-.003.05-.008.1-.026.158-.13.132-.23l-.132-.492.473.273c.03.017.062.024.093.024.065 0 .13-.032.162-.093.053-.09.02-.203-.068-.256l-.473-.27.492-.133c.1-.027.16-.13.133-.23-.03-.1-.133-.16-.233-.13zm-2.916-.873c-.075.032-.12.11-.11.19l.055.507-.41-.3c-.033-.024-.072-.037-.11-.037s-.078.013-.11.036l-.412.3.056-.507c.01-.08-.035-.158-.11-.19l-.465-.207.464-.205c.075-.032.12-.108.11-.19l-.054-.506.41.3c.066.05.155.05.22 0l.412-.3-.055.507c-.01.082.036.16.11.193l.465.205-.466.205z" fill="#ccc"/></g></svg>