<svg xmlns="http://www.w3.org/2000/svg" width="50" height="50" viewBox="0 0 50 50"><g><path fill-rule="evenodd" clip-rule="evenodd" fill="#fff" d="M0 0h50v50H0z"/><path d="M39.037 34.152h-9.85V32.04c0-2.713 2.232-4.907 4.945-4.907 2.71 0 4.904 2.194 4.904 4.906v2.112zM14.432 28.53c-1.954 0-3.51-1.557-3.51-3.51 0-1.955 1.556-3.51 3.51-3.51s3.51 1.555 3.51 3.51c0 1.954-1.556 3.51-3.51 3.51zm9.132-1.397c-2.313 0-4.23-1.913-4.23-4.226 0-2.354 1.916-4.227 4.23-4.227 2.353 0 4.227 1.874 4.227 4.227 0 2.313-1.873 4.226-4.226 4.226zm10.57-1.394c-2.714 0-4.947-2.235-4.947-4.947 0-2.71 2.233-4.944 4.946-4.944 2.71 0 4.944 2.232 4.944 4.943 0 2.71-2.233 4.946-4.944 4.946zM17.94 34.15h-7.018v-.678c0-1.955 1.555-3.55 3.51-3.55 1.913 0 3.51 1.595 3.51 3.55v.678zm5.624-5.623c2.312 0 4.227 1.914 4.227 4.226v1.396h-8.454v-1.396c0-2.312 1.915-4.227 4.228-4.227z" fill="#0D2636"/><path fill-rule="evenodd" clip-rule="evenodd" fill="none" d="M9 9h32v32H9z"/><path d="M21.388 16.73l-1.136.304-.764-.44 1.254-.337c.132-.037.21-.172.175-.305s-.172-.21-.304-.176l-1.734.465-.657-.378c-.022-.014-.046-.023-.07-.027l.698-.31c.09-.038.15-.128.15-.226s-.06-.19-.15-.228l-.698-.31c.024-.007.05-.015.07-.028l.657-.38 1.733.466c.02.006.043.008.064.008.11 0 .21-.072.24-.184.036-.133-.044-.268-.176-.305l-1.253-.337.764-.44 1.137.304c.02.006.043.008.063.008.11 0 .21-.072.24-.184.036-.132-.043-.27-.176-.304l-.654-.176.627-.36c.12-.07.16-.222.09-.34-.067-.12-.22-.16-.338-.093l-.628.363.175-.654c.035-.133-.043-.27-.176-.305s-.27.044-.304.177l-.304 1.135-.765.44.336-1.253c.035-.134-.044-.27-.176-.306-.133-.035-.27.043-.305.176l-.465 1.734-.656.38c-.02.013-.04.028-.058.044l.084-.756c.01-.1-.038-.193-.123-.242-.086-.05-.19-.045-.27.014l-.618.45c.007-.022.012-.048.012-.073v-.757l1.27-1.27c.097-.098.097-.256 0-.352-.098-.097-.254-.097-.352 0l-.918.92v-.884l.83-.832c.098-.096.098-.254 0-.352-.097-.096-.254-.096-.35 0l-.48.48V9.97c0-.137-.11-.248-.25-.248-.136 0-.247.11-.247.248v.727l-.48-.48c-.096-.096-.254-.096-.352 0-.097.098-.097.256 0 .352l.83.83v.884l-.917-.918c-.097-.098-.253-.098-.35 0-.098.096-.098.254 0 .352l1.27 1.27v.758c0 .025.003.05.01.072l-.614-.45c-.08-.058-.186-.064-.27-.015-.087.05-.135.145-.124.242l.082.762c-.017-.02-.037-.035-.06-.05l-.657-.378-.464-1.735c-.035-.133-.173-.21-.304-.176-.134.034-.213.17-.178.304l.336 1.254-.765-.44L13.19 12c-.037-.133-.173-.21-.306-.176-.132.035-.21.172-.176.305l.175.655-.627-.363c-.12-.068-.27-.027-.34.092-.068.12-.027.27.092.34l.627.36-.654.177c-.132.036-.21.173-.175.306.03.11.13.184.24.184.02 0 .042-.002.064-.008l1.134-.305.765.44-1.255.337c-.133.037-.212.172-.177.305.03.11.13.183.24.183.022 0 .043-.002.064-.008l1.734-.465.657.38c.02.013.044.02.067.026l-.696.307c-.09.04-.147.13-.147.23 0 .097.057.185.147.226l.7.308c-.024.006-.05.016-.072.03l-.656.378-1.734-.465c-.132-.034-.27.044-.305.177-.035.133.043.268.177.305l1.254.336-.765.44-1.135-.304c-.132-.035-.27.043-.305.176s.043.27.176.305l.653.176-.627.362c-.12.068-.16.22-.092.34.047.08.13.125.217.125.042 0 .085-.012.124-.033l.627-.363-.174.655c-.035.133.044.27.176.305.022.006.043.008.064.008.11 0 .21-.072.24-.184l.304-1.135.765-.442-.336 1.254c-.036.133.043.27.176.305.02.006.043.008.063.008.108 0 .21-.072.24-.184l.463-1.733.657-.38c.022-.013.042-.028.058-.046l-.083.76c-.01.097.038.19.123.24.085.05.19.044.27-.015l.62-.45c-.008.022-.013.048-.013.075v.758l-1.27 1.27c-.097.098-.097.256 0 .352.05.05.112.072.176.072s.128-.023.177-.072l.918-.918v.883l-.83.83c-.098.098-.098.256 0 .354.048.046.11.07.176.07.064 0 .127-.024.177-.07l.48-.48v.724c0 .14.11.25.247.25.138 0 .25-.11.25-.25v-.725l.478.48c.097.095.254.095.35 0 .1-.1.1-.257 0-.355l-.83-.83v-.883l.92.918c.097.098.253.098.35 0 .098-.096.098-.254 0-.352l-1.27-1.27v-.758c0-.025-.003-.05-.01-.074l.614.45c.044.032.096.05.146.05.043 0 .086-.012.125-.033.085-.05.133-.145.123-.242l-.082-.76c.016.02.036.034.06.048l.655.38.465 1.733c.03.112.13.185.24.185.02 0 .043-.002.064-.008.132-.035.21-.172.176-.305l-.336-1.254.765.44.304 1.136c.03.11.13.184.24.184.022 0 .044-.002.065-.008.133-.035.21-.172.176-.305l-.174-.654.627.364c.04.02.082.033.124.033.086 0 .17-.045.215-.125.07-.12.028-.27-.09-.34l-.628-.36.654-.177c.133-.035.212-.172.176-.305-.028-.138-.165-.216-.296-.18zm-3.87-1.16c-.1.044-.16.147-.148.255l.073.672-.546-.398c-.043-.034-.096-.05-.146-.05-.05 0-.103.016-.145.05l-.546.395.072-.67c.013-.107-.047-.21-.146-.256l-.617-.272.617-.273c.1-.043.158-.146.146-.254l-.072-.67.546.4c.088.063.206.063.293 0l.545-.4-.073.673c-.012.107.048.21.146.254l.617.273-.618.27z" fill="#ccc"/><path d="M33.064 13.268l-.855.23-.576-.333.944-.254c.1-.026.16-.128.132-.228-.026-.1-.13-.16-.23-.132l-1.306.35-.494-.285c-.018-.01-.035-.017-.053-.02l.525-.232c.067-.03.112-.098.112-.172s-.044-.14-.112-.17l-.526-.233c.018-.004.036-.01.054-.02l.494-.286 1.307.352c.018.004.033.006.05.006.082 0 .158-.055.18-.14.028-.1-.032-.202-.132-.228l-.944-.253.575-.333.854.23c.016.003.033.005.05.005.082 0 .157-.056.18-.14.027-.1-.032-.203-.133-.23l-.492-.13.473-.274c.09-.052.122-.166.07-.256-.052-.09-.166-.12-.256-.068l-.473.273.133-.494c.026-.1-.032-.2-.133-.228-.1-.026-.203.033-.23.133l-.228.854-.576.332.253-.945c.025-.1-.034-.202-.134-.23-.1-.025-.202.033-.23.134l-.35 1.308-.495.286c-.015.01-.03.02-.043.033l.063-.57c.008-.074-.028-.145-.093-.182s-.144-.033-.204.01l-.465.34c.005-.017.01-.035.01-.055v-.572l.955-.956c.073-.073.073-.192 0-.265-.073-.073-.19-.073-.265 0l-.69.69v-.666l.624-.625c.073-.072.073-.192 0-.266-.073-.073-.19-.073-.265 0l-.36.36v-.545c0-.104-.084-.188-.188-.188s-.188.084-.188.188v.546l-.36-.36c-.073-.072-.192-.072-.266 0-.073.073-.073.193 0 .266l.626.626v.665l-.69-.69c-.074-.074-.192-.074-.266 0-.073.07-.073.19 0 .264l.956.957v.572c0 .018.003.036.008.053l-.462-.34c-.06-.043-.14-.048-.204-.01-.065.036-.1.108-.093.182l.063.573c-.013-.014-.028-.025-.045-.035l-.495-.286-.35-1.307c-.026-.1-.13-.16-.23-.133-.1.026-.16.13-.132.23l.254.944-.576-.332-.23-.854c-.025-.1-.128-.16-.228-.133-.1.028-.158.13-.132.23l.132.494-.473-.273c-.09-.05-.204-.02-.256.07-.05.09-.02.203.07.255l.472.273-.493.132c-.1.026-.16.13-.133.23.022.083.098.138.18.138.018 0 .033-.002.05-.006l.854-.23.577.334-.944.253c-.1.025-.16.13-.133.228.023.084.098.14.182.14.016 0 .03-.003.048-.007l1.307-.35.495.286c.016.01.033.016.05.02l-.523.23c-.07.03-.112.098-.112.172s.042.14.11.172l.528.232c-.02.004-.037.012-.055.02l-.493.286-1.307-.35c-.1-.027-.202.032-.23.132-.026.1.033.202.134.23l.944.253-.576.332-.854-.23c-.1-.026-.203.033-.23.134-.025.098.033.2.133.228l.494.132-.472.272c-.09.053-.12.167-.07.256.036.06.1.094.164.094.03 0 .063-.008.093-.024l.472-.273-.132.493c-.026.1.033.203.132.23.018.004.032.006.05.006.082 0 .158-.056.18-.14l.23-.854.575-.332-.253.944c-.027.1.033.202.133.23.016.003.032.005.048.005.082 0 .158-.055.18-.14l.35-1.306.496-.284c.018-.01.033-.02.045-.035l-.063.57c-.008.074.028.146.092.184.064.037.145.032.204-.01l.466-.34c-.005.017-.01.036-.01.056v.57l-.955.957c-.074.073-.074.192 0 .266.035.036.083.055.13.055s.097-.02.134-.055l.69-.692v.666l-.625.626c-.074.073-.074.192 0 .266.036.036.084.055.132.055s.096-.02.133-.055l.36-.36v.545c0 .104.084.188.187.188.104 0 .188-.083.188-.187v-.546l.36.36c.073.074.19.074.265 0s.073-.19 0-.265l-.625-.626v-.665l.69.693c.074.072.192.072.266 0 .073-.073.073-.192 0-.266l-.956-.956v-.57c0-.02-.003-.037-.01-.056l.464.34c.033.023.072.036.11.036.032 0 .065-.008.095-.025.062-.037.1-.11.092-.182l-.063-.572c.01.015.026.026.043.036l.495.285.35 1.308c.023.084.1.14.182.14.016 0 .032-.003.048-.007.1-.026.16-.128.133-.228l-.252-.944.576.332.23.855c.02.083.098.14.18.14.016 0 .033-.003.05-.008.1-.026.158-.13.132-.23l-.132-.492.473.273c.03.017.062.024.093.024.065 0 .13-.033.162-.094.053-.09.02-.203-.068-.256l-.473-.272.494-.132c.1-.027.16-.13.133-.23-.03-.098-.133-.158-.233-.13zm-2.916-.873c-.075.032-.12.11-.11.19l.055.507-.41-.3c-.034-.024-.073-.037-.112-.037s-.076.013-.108.036l-.412.3.056-.505c.01-.08-.035-.158-.11-.19l-.465-.207.466-.205c.075-.033.12-.11.11-.19l-.054-.507.41.3c.066.05.155.05.22 0l.412-.3-.055.507c-.01.08.035.16.11.192l.464.205-.466.205z" fill="#ccc"/></g></svg>