<svg xmlns="http://www.w3.org/2000/svg" width="50" height="50" viewBox="0 0 50 50"><g><path fill-rule="evenodd" clip-rule="evenodd" fill="#fff" d="M0 0h50v50H0z"/><path d="M25.66 10.938c-7.676 0-11.547 5.502-11.547 10.092 0 2.778 1.053 5.25 3.308 6.17.372.152.703.006.812-.403.074-.283.25-1 .33-1.297.107-.405.064-.546-.233-.9-.652-.767-1.067-1.76-1.067-3.168 0-4.082 3.054-7.737 7.953-7.737 4.34 0 6.722 2.65 6.722 6.19 0 4.66-2.062 8.59-5.12 8.59-1.69 0-2.956-1.396-2.55-3.11.484-2.048 1.425-4.256 1.425-5.735 0-1.322-.71-2.424-2.178-2.424-1.73 0-3.116 1.787-3.116 4.18 0 1.526.515 2.558.515 2.558l-2.08 8.803c-.615 2.613-.092 5.814-.047 6.138.025.192.272.238.384.094.16-.21 2.22-2.75 2.917-5.288.198-.718 1.136-4.44 1.136-4.44.562 1.072 2.202 2.014 3.946 2.014 5.192 0 8.717-4.734 8.717-11.07-.003-4.796-4.063-9.258-10.23-9.258z" fill="#CA2028"/><path fill-rule="evenodd" clip-rule="evenodd" fill="none" d="M9 9h32v32H9z"/><path d="M18.54 34.48l-1.137.305-.764-.44 1.253-.337c.132-.037.21-.172.175-.305s-.172-.21-.304-.176l-1.734.465-.656-.38c-.022-.013-.046-.022-.07-.026l.698-.31c.09-.038.148-.128.148-.226s-.058-.188-.148-.227l-.7-.31c.025-.007.05-.015.072-.028l.656-.38 1.734.466c.02.007.043.01.064.01.11 0 .21-.073.24-.185.036-.133-.044-.268-.176-.305l-1.254-.336.764-.44 1.136.304c.02.006.043.008.063.008.11 0 .21-.072.24-.184.037-.133-.042-.27-.175-.305l-.654-.176.628-.36c.12-.07.16-.22.09-.34-.067-.12-.22-.16-.338-.092l-.627.363.175-.653c.035-.133-.043-.27-.176-.305s-.27.043-.305.176l-.304 1.135-.765.44.336-1.253c.035-.133-.044-.27-.176-.305-.133-.035-.27.043-.305.176l-.465 1.735-.656.38c-.02.013-.04.028-.06.044l.085-.757c.01-.1-.038-.193-.123-.242-.086-.05-.19-.044-.27.015l-.618.45c.007-.022.012-.048.012-.073v-.758l1.27-1.27c.097-.098.097-.256 0-.352-.098-.098-.254-.098-.352 0l-.918.918v-.88l.83-.832c.098-.096.098-.254 0-.352-.097-.096-.254-.096-.35 0l-.48.48v-.727c0-.138-.11-.25-.25-.25-.136 0-.247.112-.247.25v.726l-.478-.48c-.097-.096-.255-.096-.353 0-.098.098-.098.256 0 .352l.83.832v.883l-.918-.918c-.098-.098-.254-.098-.352 0-.097.096-.097.254 0 .352l1.27 1.27v.758c0 .025.004.05.01.072l-.613-.45c-.08-.058-.186-.064-.27-.015-.087.05-.135.145-.124.242l.082.762c-.017-.02-.037-.035-.06-.05l-.657-.378-.464-1.734c-.035-.133-.173-.21-.304-.176-.133.035-.212.172-.177.305l.336 1.254-.766-.44-.304-1.136c-.036-.132-.172-.21-.305-.175-.132.035-.21.172-.176.305l.174.654-.622-.364c-.12-.068-.27-.027-.34.092-.068.12-.027.27.092.34l.627.36-.653.177c-.133.034-.21.17-.176.304.03.11.13.184.24.184.022 0 .043-.002.065-.008l1.135-.305.765.44-1.254.337c-.132.037-.21.172-.176.305.03.11.13.184.24.184.022 0 .043 0 .064-.007l1.734-.465.657.38c.02.013.043.02.066.026l-.696.307c-.09.04-.147.13-.147.23 0 .098.057.186.147.227l.7.31c-.024.005-.05.015-.072.028l-.656.38-1.734-.466c-.132-.036-.27.042-.305.175-.035.133.043.268.177.305l1.254.336-.764.44-1.134-.306c-.132-.035-.27.043-.305.176s.044.27.177.305l.654.177-.626.36c-.12.07-.16.222-.092.34.047.08.13.126.217.126.04 0 .083-.012.122-.033l.627-.363-.176.654c-.035.134.044.27.176.306.022.006.043.008.064.008.11 0 .21-.072.24-.184l.304-1.135.765-.44-.336 1.253c-.035.133.044.27.177.305.02.006.043.008.063.008.11 0 .21-.07.24-.183l.464-1.734.658-.38c.022-.013.042-.028.058-.046l-.083.758c-.01.098.038.19.123.242.085.05.19.043.27-.016l.62-.45c-.008.023-.013.05-.013.076v.758l-1.27 1.27c-.097.098-.097.256 0 .352.05.05.112.072.176.072s.126-.023.175-.072l.918-.918v.883l-.83.83c-.098.1-.098.257 0 .355.048.047.11.072.176.072.062 0 .125-.025.175-.072l.48-.48v.725c0 .14.11.25.247.25.138 0 .25-.11.25-.25v-.725l.478.48c.097.096.254.096.35 0 .1-.098.1-.256 0-.354l-.83-.83v-.882l.92.918c.097.098.253.098.35 0 .098-.096.098-.254 0-.352l-1.27-1.27v-.758c0-.025-.003-.05-.01-.074l.614.45c.044.032.096.05.146.05.043 0 .086-.012.125-.033.085-.052.133-.146.123-.243l-.082-.76c.016.018.036.033.06.047l.655.38.466 1.733c.03.11.13.184.24.184.02 0 .043 0 .064-.007.132-.035.21-.172.176-.305l-.336-1.254.765.44.304 1.136c.028.11.13.184.24.184.02 0 .042-.002.063-.008.133-.035.21-.172.176-.305l-.176-.653.627.363c.04.02.083.033.125.033.086 0 .17-.045.215-.125.07-.12.028-.27-.09-.34l-.628-.36.654-.177c.133-.034.212-.17.176-.304-.034-.133-.172-.21-.303-.176zm-3.872-1.158c-.1.043-.16.146-.147.254l.074.672-.546-.398c-.043-.033-.096-.05-.146-.05-.052 0-.104.017-.146.05l-.546.396.073-.67c.013-.107-.047-.21-.146-.256l-.617-.27.618-.274c.1-.043.158-.146.146-.254l-.072-.672.545.4c.088.064.206.064.293 0l.546-.398-.073.672c-.012.107.048.21.146.254l.616.273-.618.272z" fill="#ccc"/><path d="M38.532 9.365l-.855.23-.575-.333.944-.254c.1-.027.16-.13.132-.23-.026-.1-.13-.158-.23-.13l-1.306.35-.494-.288c-.018-.01-.035-.017-.053-.02l.525-.232c.067-.03.112-.098.112-.172s-.044-.142-.112-.17l-.526-.234c.018-.004.036-.01.054-.02l.494-.286 1.307.35c.016.005.03.007.048.007.082 0 .158-.055.18-.14.028-.1-.032-.202-.132-.228l-.944-.253.575-.333.855.228c.016.004.033.006.05.006.082 0 .157-.055.18-.14.027-.1-.032-.202-.133-.228l-.494-.132.473-.273c.09-.05.12-.165.067-.255-.05-.09-.165-.12-.255-.068l-.473.273.13-.494c.027-.1-.03-.2-.132-.23-.1-.025-.203.034-.23.134l-.228.855-.576.333.253-.945c.026-.1-.033-.202-.133-.23-.1-.025-.202.033-.23.134l-.35 1.307-.494.285c-.016.01-.03.02-.044.032l.063-.57c.007-.074-.03-.145-.094-.182s-.144-.033-.204.01l-.465.34c.005-.017.01-.035.01-.055v-.573l.955-.956c.073-.073.073-.192 0-.265-.073-.072-.19-.072-.265 0l-.69.692v-.664l.624-.626c.074-.072.074-.192 0-.266-.072-.072-.19-.072-.264 0l-.36.36v-.544c0-.104-.084-.188-.188-.188-.103 0-.187.084-.187.188v.546l-.36-.36c-.072-.073-.19-.073-.265 0-.073.072-.073.192 0 .265l.626.626v.664l-.69-.692c-.073-.073-.19-.073-.265 0-.073.072-.073.19 0 .265l.956.956v.572c0 .02.004.037.01.054l-.463-.34c-.06-.044-.14-.05-.204-.012-.065.037-.1.11-.092.182l.063.573c-.013-.014-.028-.025-.045-.035l-.495-.286-.35-1.307c-.026-.1-.13-.16-.23-.133-.1.026-.16.13-.132.23l.254.944-.576-.333-.23-.853c-.026-.1-.13-.16-.23-.133-.098.027-.157.13-.13.23l.13.493-.472-.273c-.09-.052-.204-.02-.256.068-.052.09-.02.204.07.256l.47.274-.492.132c-.1.026-.158.13-.132.23.022.083.098.138.18.138.018 0 .033-.002.05-.006l.854-.23.576.334-.944.253c-.1.026-.16.13-.133.23.022.083.097.138.18.138.017 0 .032-.002.05-.006l1.306-.35.495.285c.017.01.034.016.052.02l-.524.23c-.068.03-.11.098-.11.172s.04.14.11.172l.527.232c-.02.004-.037.012-.055.02l-.494.286-1.307-.35c-.1-.027-.203.032-.23.132-.027.1.032.202.133.23l.944.253-.577.333-.854-.23c-.1-.026-.203.033-.23.134-.025.1.033.2.133.23l.492.13-.472.273c-.09.053-.12.167-.07.256.036.06.1.094.164.094.03 0 .063-.008.093-.024l.473-.273-.132.493c-.026.1.033.203.132.23.018.004.032.006.05.006.082 0 .158-.056.18-.14l.23-.854.575-.332-.253.944c-.027.1.033.202.133.23.016.003.032.005.048.005.082 0 .158-.055.18-.14l.35-1.306.496-.286c.016-.01.03-.02.043-.035l-.063.57c-.008.072.028.144.092.182.064.037.145.032.204-.01l.466-.34c-.005.017-.01.036-.01.056v.57l-.955.957c-.073.073-.073.192 0 .266.036.037.084.056.132.056s.095-.02.132-.055l.69-.69v.664l-.625.626c-.073.073-.073.192 0 .266.037.036.085.055.133.055s.096-.018.133-.054l.36-.36v.544c0 .104.084.188.187.188.104 0 .188-.084.188-.188v-.546l.36.36c.073.074.19.074.265 0s.073-.19 0-.265l-.625-.627v-.665l.69.692c.074.072.192.072.266 0 .073-.073.073-.192 0-.266l-.956-.956v-.57c0-.02-.003-.037-.01-.056l.464.34c.033.023.072.036.11.036.032 0 .065-.008.095-.025.063-.037.1-.11.093-.182L35.916 9c.012.014.027.025.044.035l.495.285.35 1.307c.023.084.1.14.182.14.016 0 .032-.003.048-.007.1-.027.16-.13.133-.23l-.253-.943.576.332.23.854c.022.083.1.14.182.14.015 0 .032-.003.048-.008.1-.026.16-.13.133-.23l-.132-.492.474.273c.03.017.062.024.093.024.065 0 .13-.032.162-.093.052-.09.02-.203-.07-.256l-.472-.27.493-.133c.102-.027.16-.13.134-.23-.03-.1-.132-.16-.232-.132zm-2.916-.873c-.075.032-.12.11-.11.19l.055.507-.41-.302c-.033-.023-.072-.036-.11-.036s-.078.013-.11.036l-.412.3.056-.506c.01-.08-.035-.158-.11-.19L34 8.284l.464-.205c.075-.033.12-.11.11-.19l-.054-.507.41.3c.066.05.155.05.22 0l.412-.3-.055.507c-.01.08.036.16.11.192l.465.205-.466.205z" fill="#ccc"/></g></svg>