<svg xmlns="http://www.w3.org/2000/svg" width="50" height="50" viewBox="0 0 50 50"><g><path fill-rule="evenodd" clip-rule="evenodd" fill="#fff" d="M0 0h50v50H0z"/><path d="M20.388 25c1.02 0 1.854.836 1.854 1.854 0 1.02-.835 1.828-1.854 1.828s-1.83-.81-1.83-1.828S19.37 25 20.39 25zm9.223 0c-1.02 0-1.828.836-1.828 1.854 0 1.02.81 1.828 1.83 1.828 1.018 0 1.853-.81 1.853-1.828S30.63 25 29.61 25z" fill="#E1584B"/><path d="M19.84 31.633c-.42-.314-.472-.89-.157-1.28.287-.418.888-.47 1.28-.157 1.045.81 2.718 1.254 4.05 1.254 1.307 0 2.98-.443 4.05-1.254.392-.313.968-.26 1.28.156.313.393.235.967-.156 1.28-1.36 1.07-3.477 1.672-5.174 1.672-1.725 0-3.816-.6-5.174-1.67zm13.533-10.08c-2.037-1.174-4.6-1.905-7.42-2.062l1.49-4.412 4.022 1.175c0 1.776 1.438 3.212 3.214 3.212s3.24-1.436 3.24-3.212c0-1.802-1.464-3.238-3.24-3.238-1.125 0-2.117.6-2.69 1.462l-4.888-1.41c-.47-.156-.967.105-1.124.575l-1.96 5.85c-2.795.156-5.355.887-7.394 2.06-.653-.704-1.62-1.147-2.69-1.147-2.04 0-3.685 1.645-3.685 3.68 0 1.384.782 2.586 1.906 3.21-.053.315-.08.628-.08.942 0 4.83 5.802 8.746 12.936 8.746 7.106 0 12.908-3.916 12.908-8.746 0-.314-.026-.627-.078-.94 1.15-.626 1.907-1.828 1.907-3.21 0-2.038-1.647-3.682-3.686-3.682-1.07 0-2.01.444-2.69 1.15zm-8.36-.235c6.088 0 11.053 3.082 11.053 6.92 0 3.812-4.965 6.893-11.053 6.893-6.115 0-11.08-3.08-11.08-6.892 0-3.838 4.964-6.92 11.08-6.92zm12.254 4.152c-.52-1.044-1.306-2.01-2.325-2.846.313-.235.705-.392 1.124-.392 1.02 0 1.83.836 1.83 1.854 0 .548-.237 1.044-.63 1.384zm-22.21-2.846c-1.02.836-1.803 1.802-2.325 2.846-.392-.34-.627-.835-.627-1.383 0-1.02.836-1.854 1.83-1.854.443 0 .836.156 1.123.39zm19.623-4.987c-.757 0-1.384-.626-1.384-1.384 0-.784.627-1.384 1.384-1.384.758 0 1.386.6 1.386 1.383 0 .758-.628 1.384-1.386 1.384z" fill="#0D2636"/><path fill-rule="evenodd" clip-rule="evenodd" fill="none" d="M9 9h32v32H9z"/><path d="M15.504 39.338l-1.136.305-.764-.44 1.254-.337c.132-.037.21-.172.175-.305-.035-.132-.172-.21-.304-.175l-1.735.465-.656-.38c-.023-.013-.047-.022-.07-.026l.697-.31c.09-.038.148-.128.148-.226s-.058-.188-.148-.227l-.7-.31c.025-.006.05-.014.072-.027l.655-.38 1.734.466c.02.005.042.007.063.007.11 0 .21-.072.24-.184.036-.133-.044-.268-.176-.305l-1.254-.336.764-.44 1.136.304c.02.006.043.008.063.008.11 0 .21-.072.24-.184.036-.133-.043-.27-.176-.305l-.654-.176.627-.362c.12-.07.16-.22.09-.34-.067-.12-.22-.16-.338-.092l-.627.363.175-.655c.035-.133-.043-.27-.176-.305s-.27.043-.305.176l-.304 1.135-.765.442.336-1.254c.034-.133-.045-.27-.177-.305-.133-.035-.27.043-.305.176l-.465 1.733-.656.38c-.02.013-.04.028-.06.044l.085-.756c.01-.1-.038-.192-.123-.24-.087-.052-.192-.046-.272.013l-.617.45c.008-.022.013-.048.013-.073v-.758l1.27-1.27c.097-.098.097-.256 0-.352-.098-.098-.254-.098-.352 0l-.917.918v-.883l.83-.832c.098-.096.098-.254 0-.352-.097-.095-.254-.095-.35 0l-.48.48v-.726c0-.137-.11-.248-.25-.248-.136 0-.247.11-.247.248v.727l-.48-.48c-.096-.095-.254-.095-.352 0-.097.1-.097.257 0 .353l.83.832v.883l-.914-.915c-.098-.098-.254-.098-.352 0-.097.096-.097.254 0 .352l1.27 1.27v.758c0 .025.004.05.01.072l-.613-.45c-.08-.058-.186-.064-.27-.015-.087.05-.135.145-.124.242l.083.762c-.017-.02-.037-.035-.06-.05l-.657-.378-.464-1.734c-.035-.133-.173-.21-.304-.176-.133.035-.212.172-.177.305l.337 1.255-.765-.44-.302-1.138c-.036-.133-.172-.21-.305-.176-.132.036-.21.173-.176.306l.174.654-.627-.363c-.12-.068-.27-.027-.34.092-.068.118-.027.27.092.34l.626.36-.654.176c-.133.035-.21.172-.176.305.03.112.13.185.24.185.02 0 .042-.002.064-.008l1.135-.305.765.44-1.254.337c-.133.036-.212.17-.177.304.03.11.13.184.24.184.02 0 .042-.002.063-.008l1.734-.465.657.38c.02.013.044.02.067.026l-.695.308c-.09.04-.147.13-.147.23 0 .097.057.185.147.226l.7.31c-.024.005-.05.015-.072.028l-.655.378-1.734-.465c-.132-.035-.27.043-.305.176-.036.134.042.27.176.306l1.254.336-.765.44-1.135-.304c-.132-.035-.27.043-.305.176s.043.27.176.305l.655.175-.627.36c-.12.07-.16.222-.092.34.047.08.13.126.217.126.04 0 .084-.01.123-.032l.627-.363-.175.654c-.035.132.044.27.176.304.022.006.043.008.064.008.11 0 .21-.072.24-.184l.304-1.135.765-.44-.336 1.253c-.034.133.045.27.178.305.02.007.043.01.063.01.11 0 .21-.073.24-.185l.465-1.734.66-.38c.02-.014.04-.03.057-.047l-.083.758c-.01.1.037.192.122.243.085.05.19.043.27-.016l.62-.45c-.008.022-.013.048-.013.075v.758l-1.27 1.27c-.098.098-.098.256 0 .352.048.05.11.072.175.072s.127-.023.176-.072l.92-.918v.883l-.832.83c-.097.098-.097.256 0 .354.05.048.112.073.177.073.063 0 .126-.025.176-.072l.48-.48v.726c0 .14.11.25.248.25s.25-.11.25-.25v-.726l.478.48c.097.096.254.096.35 0 .1-.098.1-.256 0-.354l-.83-.83v-.883l.92.918c.097.1.253.1.35 0 .098-.095.098-.253 0-.35l-1.27-1.27v-.76c0-.024-.003-.05-.01-.073l.614.45c.044.032.096.05.146.05.043 0 .086-.012.125-.033.086-.05.134-.145.124-.242l-.082-.76c.016.018.036.033.06.047l.655.378.465 1.734c.03.11.13.184.24.184.02 0 .043-.002.064-.008.132-.035.21-.172.176-.305l-.336-1.254.765.44.305 1.135c.03.11.13.184.24.184.02 0 .043-.003.064-.01.132-.034.21-.17.175-.304l-.175-.654.627.363c.04.02.082.033.124.033.087 0 .17-.045.216-.125.07-.12.028-.27-.09-.34l-.628-.36.654-.177c.133-.035.212-.172.176-.305-.036-.13-.173-.207-.304-.172zm-3.87-1.158c-.1.043-.16.146-.148.254l.073.672-.547-.398c-.043-.033-.096-.05-.146-.05-.052 0-.104.017-.146.05l-.545.396.073-.67c.013-.107-.047-.21-.146-.256l-.617-.27.618-.274c.1-.043.158-.146.146-.254l-.073-.672.545.4c.088.064.206.064.293 0l.546-.398-.072.672c-.012.107.048.21.146.254l.617.273-.617.27z" fill="#ccc"/><path d="M23.49 16.03l-.854.23-.575-.332.945-.254c.1-.027.16-.13.132-.23-.026-.1-.13-.158-.23-.13l-1.306.35-.493-.286c-.018-.01-.035-.017-.053-.02l.525-.232c.066-.03.11-.098.11-.172s-.043-.142-.11-.17l-.527-.234c.018-.004.036-.01.054-.02l.494-.286 1.308.35c.017.005.032.007.05.007.08 0 .157-.054.18-.138.027-.1-.033-.203-.133-.23l-.944-.252.576-.333.855.23c.017.003.034.005.05.005.083 0 .158-.055.18-.14.028-.1-.03-.202-.132-.228l-.493-.132.473-.273c.09-.053.12-.167.068-.257-.05-.09-.165-.12-.255-.068l-.472.273.132-.494c.026-.1-.032-.2-.133-.23-.1-.025-.203.034-.23.134l-.228.854-.577.333.253-.945c.026-.1-.033-.202-.133-.23-.1-.025-.202.033-.23.134l-.35 1.307-.495.287c-.016.01-.03.02-.044.033l.063-.57c.008-.074-.028-.145-.093-.182s-.144-.033-.204.01l-.465.34c.005-.017.01-.035.01-.055v-.572l.955-.955c.073-.073.073-.192 0-.265-.073-.073-.19-.073-.265 0l-.69.69v-.664l.624-.626c.072-.072.072-.192 0-.266-.074-.072-.192-.072-.266 0l-.36.36v-.545c0-.105-.084-.19-.188-.19-.103 0-.187.085-.187.19v.545l-.36-.36c-.074-.073-.193-.073-.267 0-.073.072-.073.192 0 .265l.626.626v.665l-.692-.69c-.073-.073-.19-.073-.265 0-.073.072-.073.19 0 .265l.956.956v.573c0 .02.002.037.007.054l-.462-.34c-.06-.043-.14-.048-.204-.01-.064.036-.1.108-.092.182l.062.572c-.013-.014-.028-.025-.045-.035l-.495-.286-.35-1.306c-.026-.1-.13-.16-.23-.133-.1.027-.16.13-.132.23l.253.945-.575-.333-.23-.854c-.025-.1-.128-.16-.228-.133-.1.027-.158.13-.132.23l.132.493-.473-.273c-.09-.052-.204-.02-.256.068-.052.09-.02.204.07.256l.47.272-.492.132c-.1.026-.158.13-.132.23.022.083.098.138.18.138.018 0 .033-.002.05-.006l.854-.23.576.334-.944.253c-.1.026-.16.13-.133.23.023.083.098.138.182.138.015 0 .03 0 .047-.005l1.307-.35.495.285c.015.01.032.016.05.02l-.524.23c-.068.03-.11.098-.11.172s.04.14.11.172l.527.232c-.02.004-.037.012-.055.02l-.494.286-1.307-.35c-.1-.027-.202.032-.23.132-.026.1.033.202.134.23l.945.253-.576.332-.855-.23c-.1-.027-.203.032-.23.133-.025.1.033.2.133.23l.493.13-.47.273c-.092.053-.122.167-.07.256.035.06.098.094.163.094.03 0 .063-.008.093-.024l.473-.273-.133.492c-.026.1.033.203.132.23.017.004.03.006.048.006.083 0 .16-.056.18-.14l.23-.854.576-.332-.253.944c-.026.1.034.202.134.23.016.003.032.005.048.005.082 0 .158-.054.18-.138l.35-1.307.496-.285c.017-.01.032-.02.044-.035l-.063.57c-.01.073.027.145.09.183.065.037.146.032.205-.01l.466-.34c-.004.017-.008.036-.008.056v.57l-.956.957c-.073.074-.073.193 0 .267.036.036.084.055.132.055s.096-.02.133-.055l.692-.692v.665l-.626.626c-.073.073-.073.192 0 .266.037.036.085.055.133.055s.095-.02.132-.055l.36-.36v.545c0 .104.084.188.187.188s.187-.084.187-.188v-.546l.36.362c.073.073.19.073.265 0s.073-.192 0-.266l-.625-.626v-.665l.69.692c.074.072.192.072.266 0 .073-.073.073-.192 0-.266l-.956-.955v-.57c0-.02-.003-.038-.01-.057l.464.34c.034.023.073.036.11.036.033 0 .066-.008.096-.025.063-.038.1-.11.093-.183l-.064-.572c.012.014.027.025.044.035l.495.285.35 1.307c.023.084.1.14.182.14.016 0 .032-.003.048-.007.1-.027.16-.13.133-.23l-.253-.943.576.332.23.855c.022.082.1.138.182.138.015 0 .032-.002.048-.007.1-.025.16-.13.133-.228l-.132-.493.474.272c.03.017.062.024.093.024.065 0 .13-.033.162-.094.052-.09.02-.203-.07-.256l-.472-.272.493-.132c.102-.027.16-.13.134-.23-.03-.1-.133-.158-.233-.13zm-2.915-.872c-.075.032-.12.11-.11.19l.055.507-.41-.3c-.034-.024-.073-.037-.112-.037s-.077.013-.11.036l-.41.3.055-.506c.01-.08-.035-.158-.11-.19l-.465-.207.465-.204c.075-.033.12-.11.11-.19l-.054-.507.41.3c.065.05.154.05.22 0l.41-.3-.054.506c-.01.08.036.16.11.192l.465.205-.465.205z" fill="#ccc"/></g></svg>