<svg xmlns="http://www.w3.org/2000/svg" width="50" height="50" viewBox="0 0 50 50"><g><path fill-rule="evenodd" clip-rule="evenodd" fill="#fff" d="M0 0h50v50H0z"/><g fill="#EF4E23"><path d="M34.556 25v4.778c0 .88-.712 1.593-1.593 1.593-.88 0-1.592-.712-1.592-1.592V25l-2.39.796L26.594 25v4.778c0 3.518 2.853 6.37 6.37 6.37 3.52 0 6.37-2.853 6.37-6.37V25h-4.777zM26.593 23.407l2.39-.796 2.39.797V20.22c0-3.517-2.855-6.37-6.372-6.37-3.518 0-6.37 2.854-6.37 6.37v9.558c0 .88-.712 1.593-1.592 1.593-.88 0-1.593-.712-1.593-1.592V25h-4.778v4.778c0 3.518 2.853 6.37 6.37 6.37 3.52 0 6.37-2.853 6.37-6.37V20.22c0-.88.713-1.592 1.594-1.592s1.594.713 1.594 1.593v3.187z"/></g><path fill-rule="evenodd" clip-rule="evenodd" fill="none" d="M9 9h32v32H9z"/><path d="M15.996 22.563l-1.136.305-.764-.44 1.254-.337c.132-.035.21-.17.175-.304-.035-.133-.172-.21-.304-.176l-1.733.465-.656-.38c-.02-.013-.045-.02-.068-.026l.697-.31c.09-.04.147-.13.147-.227s-.058-.188-.148-.227l-.7-.31c.024-.006.05-.015.07-.027l.657-.38 1.734.464c.022.006.044.01.065.01.11 0 .21-.074.24-.186.036-.133-.044-.268-.176-.304l-1.255-.336.764-.442 1.135.305c.02.007.043.01.063.01.11 0 .21-.073.24-.185.036-.133-.043-.27-.176-.305l-.654-.175.627-.362c.12-.07.16-.22.09-.34-.067-.12-.22-.16-.338-.092l-.627.364.175-.654c.035-.133-.043-.27-.176-.305s-.27.043-.306.176l-.304 1.136-.765.44.336-1.253c.036-.133-.043-.27-.175-.305-.133-.035-.27.043-.305.176l-.465 1.734-.656.38c-.022.013-.042.028-.06.045l.084-.757c.01-.1-.038-.193-.123-.242-.085-.05-.19-.044-.27.014l-.617.45c.007-.022.012-.047.012-.073v-.758l1.27-1.27c.097-.098.097-.255 0-.352-.098-.098-.254-.098-.352 0l-.918.918v-.883l.83-.83c.098-.098.098-.256 0-.354-.097-.096-.254-.096-.35 0l-.48.48V15.8c0-.138-.11-.25-.25-.25-.136 0-.247.112-.247.25v.726l-.48-.48c-.096-.096-.254-.096-.352 0-.097.098-.097.256 0 .353l.83.83v.883l-.917-.918c-.1-.098-.255-.098-.353 0-.097.097-.097.254 0 .352l1.27 1.27v.758c0 .025.004.05.01.072l-.613-.45c-.08-.058-.186-.063-.27-.015-.087.05-.135.145-.124.242l.082.762c-.017-.02-.037-.035-.06-.05l-.657-.378-.464-1.734c-.034-.133-.172-.21-.303-.176-.133.035-.212.172-.177.305l.336 1.254-.765-.44-.303-1.136c-.03-.13-.167-.208-.3-.173-.132.035-.21.172-.176.305l.176.654-.627-.363c-.12-.068-.272-.027-.34.092-.07.12-.028.27.09.34l.628.362-.654.175c-.133.035-.21.172-.176.305.03.11.13.185.24.185.02 0 .042-.003.064-.01l1.135-.304.765.442-1.254.336c-.133.036-.212.172-.177.304.032.11.132.185.242.185.02 0 .042-.003.063-.01l1.734-.463.656.38c.02.012.044.02.067.025l-.696.307c-.09.04-.147.13-.147.23 0 .097.057.186.147.226l.7.31c-.024.005-.05.015-.072.028l-.655.377-1.734-.465c-.132-.035-.27.043-.305.176-.034.133.044.27.178.305l1.254.337-.765.44-1.135-.304c-.132-.035-.27.043-.305.176s.043.27.176.304l.654.176-.627.36c-.12.07-.16.222-.092.34.047.08.13.126.217.126.04 0 .084-.012.123-.033l.627-.363-.175.654c-.035.133.044.27.176.305.022.005.043.007.064.007.11 0 .21-.072.24-.184l.304-1.135.765-.44-.336 1.252c-.035.133.044.27.177.305.022.006.044.008.064.008.11 0 .21-.072.24-.184l.464-1.735.657-.38c.022-.012.042-.027.058-.045l-.083.757c-.01.098.038.192.123.242.085.048.19.042.27-.016l.62-.452c-.008.024-.013.05-.013.076v.76l-1.27 1.268c-.097.098-.097.256 0 .352.05.05.112.073.176.073s.127-.023.176-.072l.918-.918v.884l-.83.83c-.098.097-.098.255 0 .353.048.047.11.072.176.072.063 0 .126-.026.176-.073l.48-.48v.726c0 .138.11.25.247.25s.248-.112.248-.25v-.725l.48.48c.096.095.253.095.35 0 .098-.1.098-.257 0-.354l-.83-.83v-.884l.918.918c.098.098.254.098.352 0 .097-.096.097-.254 0-.352l-1.27-1.27v-.758c0-.025-.004-.05-.012-.074l.615.45c.045.032.097.05.147.05.043 0 .086-.012.125-.033.085-.05.133-.144.123-.24l-.082-.76c.016.017.036.033.06.046l.655.38.465 1.733c.03.11.13.183.24.183.02 0 .043-.002.064-.008.132-.035.21-.172.176-.305l-.336-1.254.765.44.304 1.136c.03.11.13.185.24.185.02 0 .043-.003.064-.01.133-.034.21-.17.176-.304l-.175-.654.628.362c.04.02.082.033.124.033.086 0 .17-.045.215-.125.07-.12.028-.27-.09-.34l-.627-.36.654-.176c.133-.035.212-.172.176-.305-.035-.134-.173-.212-.304-.177zm-3.87-1.158c-.1.043-.16.146-.148.254l.073.67-.545-.397c-.043-.033-.096-.05-.146-.05-.053 0-.105.017-.147.05l-.546.397.073-.67c.013-.108-.047-.212-.146-.256l-.617-.272.618-.272c.1-.044.158-.146.146-.254l-.07-.673.544.4c.088.064.206.064.293 0l.546-.398-.073.672c-.012.107.048.21.146.254l.617.274-.618.27z" fill="#ccc"/><path d="M39.452 15.74l-.855.23-.575-.332.944-.254c.1-.027.16-.13.132-.23-.026-.1-.13-.158-.23-.13l-1.306.35-.494-.286c-.018-.01-.035-.017-.053-.02l.525-.232c.067-.03.112-.098.112-.172s-.044-.142-.112-.17l-.526-.234c.018-.004.036-.01.054-.02l.494-.286 1.307.35c.016.005.03.007.048.007.082 0 .158-.054.18-.138.028-.1-.032-.203-.132-.23l-.944-.252.575-.333.855.23c.016.003.033.005.05.005.082 0 .157-.055.18-.14.027-.1-.032-.202-.133-.228l-.494-.132.473-.273c.09-.053.12-.167.067-.257-.05-.09-.165-.12-.255-.068l-.473.273.13-.494c.027-.1-.03-.2-.132-.23-.1-.025-.203.034-.23.134l-.228.854-.576.333.253-.945c.026-.1-.033-.202-.133-.23-.1-.025-.202.033-.23.134l-.35 1.307-.495.287c-.017.01-.03.02-.045.033l.063-.57c.008-.074-.028-.145-.093-.182s-.144-.033-.204.01l-.464.34c.005-.017.01-.035.01-.055v-.572l.955-.955c.074-.073.074-.192 0-.265-.072-.073-.19-.073-.264 0l-.69.69v-.664l.624-.626c.073-.072.073-.192 0-.266-.073-.072-.19-.072-.265 0l-.36.36v-.545c0-.105-.084-.19-.188-.19-.103 0-.187.085-.187.19v.545l-.36-.36c-.073-.073-.192-.073-.266 0-.073.072-.073.192 0 .265l.626.626v.665l-.69-.69c-.074-.073-.192-.073-.266 0-.073.072-.073.19 0 .265l.956.956v.573c0 .02.003.037.008.054l-.462-.34c-.06-.043-.14-.048-.204-.01-.065.036-.1.108-.093.182l.06.572c-.012-.014-.027-.025-.044-.035l-.495-.286-.35-1.306c-.025-.1-.13-.16-.228-.133-.1.027-.16.13-.133.23l.252.945-.576-.333-.23-.854c-.025-.1-.128-.16-.228-.133-.1.027-.158.13-.132.23l.132.493-.473-.273c-.09-.052-.204-.02-.256.068-.053.09-.022.204.068.256l.472.272-.493.132c-.1.026-.158.13-.132.23.022.083.098.138.18.138.018 0 .033-.002.05-.006l.854-.23.575.334-.944.253c-.1.026-.16.13-.132.23.023.083.098.138.182.138.016 0 .03 0 .048-.005l1.307-.35.495.285c.016.01.033.016.05.02l-.523.23c-.068.03-.11.098-.11.172s.04.14.11.172l.527.232c-.02.004-.037.012-.055.02l-.495.286-1.307-.35c-.1-.027-.202.032-.23.132-.026.1.033.202.134.23l.944.253-.576.333-.854-.23c-.1-.026-.203.033-.23.134-.025.1.033.2.133.23l.492.13-.472.273c-.09.053-.12.167-.07.256.036.06.1.094.164.094.03 0 .063-.008.093-.024l.473-.273-.132.493c-.026.1.033.203.132.23.018.004.032.006.05.006.082 0 .158-.057.18-.14l.23-.855.575-.332-.253.944c-.027.1.033.202.133.23.016.003.032.005.048.005.082 0 .158-.055.18-.14l.35-1.306.496-.285c.016-.01.03-.02.043-.034l-.063.57c-.008.073.028.145.092.183.064.036.145.03.204-.012l.466-.34c-.005.018-.01.037-.01.057v.57l-.955.957c-.073.073-.073.192 0 .266.036.036.084.055.132.055s.095-.02.132-.055l.69-.692v.665l-.625.627c-.073.073-.073.192 0 .266.037.036.085.055.133.055s.096-.02.133-.055l.36-.36v.545c0 .104.084.188.187.188.104 0 .188-.084.188-.188v-.546l.36.36c.073.074.19.074.265 0s.073-.19 0-.265l-.625-.626v-.664l.69.692c.074.072.192.072.266 0 .073-.073.073-.192 0-.266l-.956-.956v-.57c0-.02-.003-.038-.01-.057l.464.338c.033.024.072.037.11.037.032 0 .065-.008.095-.025.063-.037.1-.11.093-.182l-.063-.572c.012.014.027.025.044.035l.496.286.35 1.307c.023.084.1.14.182.14.016 0 .032-.003.048-.007.1-.027.16-.13.133-.23l-.254-.943.576.332.23.855c.02.083.098.14.18.14.016 0 .033-.003.05-.008.1-.026.158-.13.132-.23l-.132-.492.473.273c.03.017.062.024.093.024.065 0 .13-.033.162-.094.053-.09.02-.203-.068-.256l-.473-.272.492-.132c.1-.027.16-.13.133-.23-.03-.1-.133-.16-.233-.132zm-2.916-.872c-.075.032-.12.11-.11.19l.055.507-.41-.3c-.033-.024-.072-.037-.11-.037s-.078.013-.11.036l-.412.3.056-.506c.01-.08-.035-.158-.11-.19l-.465-.207.464-.204c.075-.033.12-.11.11-.19l-.054-.507.41.3c.066.05.155.05.22 0l.412-.3-.055.506c-.01.08.036.16.11.192l.465.205-.466.205z" fill="#ccc"/></g></svg>