<svg xmlns="http://www.w3.org/2000/svg" width="50" height="50" viewBox="0 0 50 50"><g><path fill-rule="evenodd" clip-rule="evenodd" fill="#fff" d="M0 0h50v50H0z"/><path d="M15.58 36.18h7.906l5.027-15.134h7.3l4.466-7.225H11.796L9.72 17.604l2.077 3.442h8.81L15.58 36.18z" fill="#010101"/><path fill-rule="evenodd" clip-rule="evenodd" fill="none" d="M9 9h32v32H9z"/><path d="M15.322 30.313l-1.136.305-.764-.44 1.254-.337c.132-.035.21-.17.175-.304-.034-.133-.17-.21-.303-.176l-1.734.465-.656-.38c-.022-.013-.046-.02-.07-.026l.698-.31c.09-.04.148-.13.148-.227s-.058-.188-.148-.227l-.7-.31c.025-.006.05-.015.072-.027l.656-.38 1.734.464c.02.006.043.01.064.01.11 0 .21-.074.24-.186.037-.133-.043-.268-.175-.304l-1.254-.336.765-.442 1.136.305c.022.007.044.01.064.01.11 0 .21-.073.24-.185.036-.133-.043-.27-.176-.305l-.654-.175.627-.362c.12-.07.16-.22.092-.34-.068-.12-.22-.16-.34-.092l-.626.364.175-.654c.036-.133-.042-.27-.175-.305s-.27.043-.305.176l-.304 1.136-.765.44.337-1.253c.035-.133-.044-.27-.176-.305-.132-.035-.27.043-.304.176l-.465 1.734-.655.38c-.02.013-.04.028-.06.045l.085-.757c.01-.1-.038-.193-.123-.242-.086-.05-.19-.044-.27.014l-.615.452c.007-.023.012-.048.012-.074v-.758l1.27-1.27c.097-.098.097-.255 0-.352-.098-.098-.254-.098-.352 0l-.918.918v-.883l.83-.83c.098-.097.098-.255 0-.353-.097-.096-.254-.096-.35 0l-.48.48v-.726c0-.137-.11-.248-.25-.248-.136 0-.247.11-.247.25v.725l-.48-.477c-.096-.097-.254-.097-.352 0-.097.097-.097.255 0 .352l.83.83v.884l-.917-.918c-.098-.098-.254-.098-.352 0-.097.097-.097.254 0 .352l1.27 1.27v.758c0 .025.004.05.01.072l-.613-.45c-.08-.058-.186-.063-.27-.015-.087.05-.135.145-.124.242l.08.762c-.016-.02-.036-.036-.06-.05l-.655-.38-.464-1.734c-.034-.133-.172-.21-.303-.176-.133.035-.212.172-.177.305l.336 1.254-.765-.442-.303-1.135c-.036-.133-.172-.21-.305-.176-.132.035-.21.172-.176.305l.175.654-.626-.363c-.12-.068-.27-.027-.34.092-.068.12-.027.27.092.34l.627.362-.653.174c-.133.036-.21.173-.176.306.03.11.13.185.24.185.02 0 .042-.002.064-.008l1.135-.305.765.442-1.254.335c-.133.036-.212.172-.177.304.03.11.13.184.24.184.022 0 .043-.003.064-.01l1.735-.463.657.38c.02.013.044.02.067.026l-.697.307c-.09.04-.147.13-.147.23 0 .097.057.186.147.226l.7.31c-.024.004-.05.014-.072.027l-.655.38-1.734-.466c-.13-.034-.268.044-.304.177-.035.133.043.27.177.305l1.254.336-.765.44-1.135-.304c-.132-.035-.27.043-.305.176s.043.27.176.305l.654.176-.625.36c-.12.07-.16.22-.092.34.047.08.13.125.217.125.04 0 .084-.012.123-.033l.627-.363-.175.653c-.035.133.044.27.176.305.022.006.043.008.064.008.11 0 .21-.072.24-.184l.304-1.135.766-.44-.336 1.252c-.035.132.044.27.177.304.02.006.043.008.063.008.11 0 .21-.072.24-.184l.464-1.734.657-.38c.023-.012.043-.027.06-.045l-.084.756c-.01.098.038.192.123.242.084.05.19.043.27-.015l.618-.452c-.007.025-.012.05-.012.077v.76l-1.27 1.268c-.097.098-.097.256 0 .352.05.05.112.073.176.073s.127-.024.176-.073l.918-.918v.883l-.83.83c-.098.097-.098.255 0 .353.048.047.11.072.176.072.063 0 .126-.025.176-.072l.48-.48v.726c0 .138.11.25.247.25.138 0 .25-.112.25-.25v-.725l.478.48c.097.095.254.095.35 0 .1-.1.1-.257 0-.354l-.83-.83V31.9l.92.917c.097.098.253.098.35 0 .098-.096.098-.254 0-.352l-1.27-1.27v-.758c0-.025-.003-.05-.01-.074l.614.45c.044.032.096.05.146.05.043 0 .086-.012.125-.033.085-.05.133-.145.123-.242l-.08-.76c.015.018.035.034.058.047l.656.38.465 1.733c.03.11.13.184.24.184.02 0 .042-.002.063-.008.132-.035.21-.172.176-.305l-.337-1.255.765.44.304 1.136c.03.112.13.186.24.186.02 0 .043-.003.064-.01.133-.034.21-.17.176-.304l-.175-.654.627.363c.04.022.082.034.124.034.086 0 .17-.045.215-.125.07-.12.028-.272-.09-.34l-.628-.362.654-.176c.132-.035.21-.172.175-.305-.034-.132-.172-.21-.303-.174zm-3.87-1.16c-.1.044-.16.147-.148.255l.073.672-.546-.398c-.042-.033-.095-.05-.145-.05-.052 0-.104.017-.146.05l-.547.397.073-.672c.013-.107-.047-.21-.146-.255l-.617-.272.618-.27c.1-.045.16-.147.147-.255l-.072-.673.545.4c.088.064.206.064.293 0l.546-.398-.074.672c-.012.107.048.21.146.254l.617.273-.62.27z" fill="#ccc"/><path d="M29.96 9.646l-.855.23-.575-.333.944-.254c.1-.028.16-.13.132-.23-.026-.1-.13-.16-.23-.132l-1.306.35-.494-.285c-.018-.01-.035-.017-.053-.02l.525-.232c.067-.028.112-.097.112-.17s-.044-.143-.112-.172l-.526-.233c.018-.004.036-.01.054-.02l.494-.286 1.307.35c.017.004.032.006.05.006.08 0 .157-.055.18-.14.027-.1-.033-.202-.133-.228l-.944-.253.575-.333.855.23c.016.003.033.005.05.005.082 0 .157-.055.18-.14.027-.1-.032-.202-.133-.228l-.493-.133.473-.273c.09-.052.12-.166.068-.256-.05-.09-.165-.12-.255-.068l-.473.273.132-.494c.025-.1-.033-.202-.134-.23-.1-.026-.203.033-.23.133l-.228.854-.576.333.253-.945c.026-.1-.033-.202-.133-.23-.1-.025-.202.033-.23.134l-.35 1.306-.495.286c-.016.01-.03.02-.044.033l.063-.57c.008-.074-.028-.145-.093-.182s-.144-.033-.204.01l-.466.34c.005-.017.01-.035.01-.055v-.575l.955-.956c.072-.073.072-.192 0-.265-.074-.073-.192-.073-.266 0l-.69.69V5.63l.624-.627c.073-.072.073-.192 0-.266-.073-.072-.19-.072-.265 0l-.36.36v-.544c0-.104-.084-.188-.188-.188-.103 0-.187.084-.187.188V5.1l-.36-.362c-.073-.072-.192-.072-.266 0-.073.073-.073.193 0 .266l.626.626v.665l-.69-.69c-.074-.074-.192-.074-.266 0-.073.07-.073.19 0 .264l.956.955v.572c0 .02.003.037.008.054l-.46-.34c-.062-.044-.142-.05-.205-.012-.064.037-.1.11-.092.183l.062.574c-.013-.014-.028-.025-.045-.035l-.495-.287-.35-1.306c-.026-.1-.13-.16-.23-.133-.1.026-.16.13-.132.23l.253.944-.575-.333-.23-.854c-.025-.1-.128-.16-.228-.132-.1.027-.158.13-.132.23l.132.493-.473-.272c-.09-.052-.204-.02-.256.068-.052.09-.02.204.07.256l.47.273-.492.132c-.1.026-.158.13-.132.23.022.083.098.138.18.138.018 0 .033-.002.05-.006l.854-.23.576.333-.944.253c-.1.026-.16.13-.133.23.023.083.098.138.182.138.015 0 .03-.002.047-.006l1.307-.35.495.285c.015.01.032.016.05.02l-.524.23c-.068.03-.11.098-.11.172s.04.14.11.172l.527.232c-.02.003-.037.01-.055.02l-.494.285-1.307-.35c-.1-.027-.202.032-.23.132-.027.102.032.204.133.23l.944.255-.576.332-.854-.23c-.1-.026-.203.033-.23.134-.025.1.033.2.133.23l.493.13-.472.273c-.09.054-.12.168-.07.257.036.06.1.094.164.094.03 0 .063-.007.093-.023l.473-.273-.132.493c-.026.1.033.203.132.23.018.004.032.006.05.006.082 0 .158-.056.18-.14l.23-.854.575-.333-.253.944c-.027.102.033.203.133.23.016.004.032.006.048.006.083 0 .16-.055.182-.14l.35-1.306.495-.285c.017-.01.032-.02.044-.035l-.062.57c-.008.073.028.145.092.183.064.037.145.032.204-.01l.466-.34c-.007.017-.01.037-.01.056v.57l-.957.956c-.073.073-.073.192 0 .266.036.036.084.055.132.055s.096-.02.133-.055l.69-.692v.665l-.625.626c-.073.074-.073.193 0 .267.037.036.085.055.133.055s.096-.02.133-.055l.36-.36v.545c0 .104.083.188.186.188.104 0 .188-.084.188-.188v-.546l.36.36c.073.074.19.074.265 0s.072-.19 0-.265l-.626-.625v-.665l.69.692c.074.072.192.072.266 0 .073-.073.073-.192 0-.266l-.956-.956v-.57c0-.02-.003-.038-.01-.057l.464.34c.033.023.072.036.11.036.032 0 .065-.01.095-.026.063-.037.1-.11.093-.182l-.062-.572c.012.014.027.025.044.035l.495.285.35 1.307c.023.084.1.14.182.14.016 0 .032-.003.048-.007.1-.027.16-.13.133-.23l-.253-.943.576.332.228.854c.022.083.1.14.182.14.015 0 .032-.003.048-.008.1-.026.16-.13.133-.23l-.13-.492.472.273c.03.017.062.024.093.024.065 0 .13-.032.162-.093.053-.09.02-.203-.068-.256l-.474-.27.493-.133c.1-.027.16-.13.132-.23-.03-.1-.132-.16-.232-.13zm-2.916-.874c-.075.032-.12.11-.11.19l.055.507-.412-.302c-.033-.023-.072-.036-.11-.036s-.078.013-.11.036l-.412.3.054-.505c.01-.08-.035-.158-.11-.19l-.465-.207.465-.206c.075-.033.12-.11.11-.19l-.054-.507.41.3c.066.05.155.05.22 0l.412-.3-.054.507c-.01.08.036.16.11.192l.465.205-.466.205z" fill="#ccc"/></g></svg>