<svg xmlns="http://www.w3.org/2000/svg" width="50" height="50" viewBox="0 0 50 50"><g><path fill-rule="evenodd" clip-rule="evenodd" fill="#fff" d="M0 0h50v50H0z"/><path d="M25.867 11.133v6.934H32.8V22.4h-6.933v6.935c0 1.61.152 2.902.324 3.36.172.456.487.82.953 1.096.616.37 1.317.556 2.11.556 1.406 0 3.042-.478 4.414-1.544v4.334c-1.155.723-2.48 1.17-3.443 1.396-.962.224-2.003.336-3.122.336-1.17 0-2.298-.13-3.368-.48-.977-.322-1.52-.678-2.21-1.27-.69-.595-1.025-1.19-1.29-1.86-.267-.666-.435-2.053-.435-3.323V22.4H16.33V18.07c1.11-.08 2.028-.395 2.804-1.054.78-.664 1.404-1.46 1.873-2.387.472-.93.522-2.066.522-3.493h4.335z" fill="#44546A"/><path fill-rule="evenodd" clip-rule="evenodd" fill="none" d="M9 9h32v32H9z"/><path d="M20 32.484l-1.137.305-.763-.442 1.254-.336c.132-.037.21-.172.175-.305-.036-.133-.173-.21-.305-.176l-1.734.466-.655-.38c-.022-.013-.046-.022-.07-.026l.698-.31c.09-.038.148-.128.148-.226s-.057-.188-.147-.227l-.7-.31c.025-.007.05-.015.072-.028l.656-.38 1.735.465c.02.006.043.008.064.008.108 0 .21-.072.238-.184.037-.134-.043-.27-.175-.306L18.1 29.76l.764-.44 1.136.304c.02.006.043.008.063.008.11 0 .21-.072.24-.184.036-.133-.043-.27-.176-.305l-.654-.176.627-.36c.12-.07.16-.222.09-.34-.067-.12-.22-.16-.338-.093l-.627.363.175-.654c.035-.133-.043-.27-.176-.305s-.27.043-.305.176l-.305 1.135-.765.44.336-1.254c.035-.133-.044-.27-.176-.305-.133-.034-.27.044-.305.177l-.465 1.734-.656.38-.06.045.085-.756c.01-.1-.04-.194-.124-.243-.086-.05-.19-.045-.27.014l-.618.452c.007-.023.012-.05.012-.074v-.758l1.27-1.27c.097-.098.097-.256 0-.352-.098-.098-.254-.098-.352 0l-.918.918v-.883l.83-.832c.098-.095.098-.253 0-.35-.097-.097-.254-.097-.35 0l-.48.48v-.728c0-.137-.11-.248-.25-.248-.136 0-.247.11-.247.248v.727l-.48-.48c-.096-.097-.254-.097-.352 0-.096.097-.096.255 0 .35l.832.833v.883l-.918-.918c-.098-.098-.254-.098-.352 0-.097.096-.097.254 0 .352l1.27 1.27v.758c0 .025.004.05.01.072l-.613-.45c-.08-.058-.187-.064-.272-.015-.086.05-.134.145-.123.242l.082.762c-.017-.02-.037-.036-.06-.05l-.657-.38-.464-1.733c-.035-.133-.173-.21-.304-.176-.133.036-.212.173-.177.306l.336 1.254-.764-.44-.304-1.136c-.036-.133-.172-.21-.305-.176-.132.035-.21.172-.176.305l.176.654-.627-.363c-.12-.068-.272-.027-.34.092-.07.12-.028.27.09.34l.628.36-.654.177c-.133.035-.21.172-.176.305.03.11.13.184.24.184.02 0 .042-.002.064-.008l1.135-.305.765.44-1.254.336c-.133.037-.212.172-.177.305.032.112.132.185.242.185.02 0 .042-.002.063-.008l1.734-.465.656.38c.02.013.044.02.067.026l-.696.307c-.09.04-.147.13-.147.23 0 .097.057.185.147.226l.7.31c-.024.006-.05.016-.072.03l-.656.378-1.735-.465c-.132-.035-.27.043-.305.176-.035.132.043.267.177.304l1.254.336-.764.44-1.135-.304c-.13-.035-.27.043-.304.176s.043.27.176.305l.654.176-.627.36c-.12.07-.16.222-.093.34.047.08.13.126.217.126.04 0 .084-.013.123-.034l.627-.363-.175.654c-.036.133.043.27.175.305.022.006.043.008.064.008.11 0 .21-.072.24-.184l.303-1.135.765-.44-.336 1.254c-.035.133.044.27.177.305.02.005.042.007.062.007.11 0 .21-.072.24-.184l.464-1.734.657-.38c.022-.014.042-.03.058-.047l-.082.758c-.01.1.038.192.123.243.086.05.192.043.272-.016l.618-.45c-.007.022-.012.048-.012.075v.758l-1.27 1.27c-.097.098-.097.256 0 .352.05.05.112.072.176.072s.127-.023.176-.072l.918-.918v.883l-.83.83c-.098.098-.098.256 0 .354.048.048.11.073.176.073.063 0 .126-.025.176-.072l.48-.48v.726c0 .14.11.25.247.25.138 0 .25-.11.25-.25v-.725l.478.48c.097.097.254.097.35 0 .1-.097.1-.255 0-.353l-.83-.83v-.887l.92.918c.097.098.253.098.35 0 .098-.096.098-.254 0-.352l-1.27-1.27v-.758c0-.025-.003-.05-.01-.074l.614.45c.043.032.095.05.145.05.043 0 .086-.012.125-.033.085-.05.133-.144.123-.24l-.077-.76c.016.018.036.033.06.047l.655.38.466 1.733c.03.11.13.184.24.184.02 0 .043-.002.064-.008.132-.035.21-.172.176-.305l-.336-1.253.765.44.304 1.136c.028.11.13.184.24.184.02 0 .042-.002.063-.008.133-.036.21-.173.176-.306l-.176-.654.627.363c.04.02.083.033.125.033.086 0 .17-.045.215-.125.07-.118.028-.27-.09-.34l-.628-.36.654-.176c.133-.035.212-.172.176-.305-.034-.133-.172-.21-.303-.176zm-3.872-1.158c-.1.043-.16.146-.147.254l.074.672-.546-.398c-.043-.033-.096-.05-.146-.05-.052 0-.104.017-.146.05l-.546.396.073-.67c.013-.107-.047-.21-.146-.256l-.617-.27.618-.274c.1-.043.158-.146.146-.254l-.072-.672.545.4c.088.064.206.064.293 0l.546-.398-.073.672c-.012.107.048.21.146.254l.616.273-.618.27z" fill="#ccc"/><path d="M34.205 13.978l-.855.23-.575-.333.944-.254c.1-.026.158-.128.13-.228-.025-.1-.128-.16-.228-.132l-1.307.35-.494-.285c-.017-.01-.034-.017-.052-.02l.525-.232c.067-.03.112-.098.112-.172s-.044-.14-.112-.17l-.526-.233c.018-.004.036-.01.054-.02l.495-.286 1.307.352c.017.004.032.006.05.006.08 0 .157-.055.18-.14.027-.1-.033-.202-.133-.228l-.945-.253.575-.333.855.23c.016.003.033.005.05.005.082 0 .157-.056.18-.14.027-.1-.032-.203-.133-.23l-.493-.13.472-.274c.09-.052.12-.166.068-.256-.05-.09-.165-.12-.255-.068l-.473.273.132-.494c.026-.1-.032-.2-.133-.228-.1-.026-.202.033-.228.133l-.23.854-.575.332.253-.945c.026-.1-.033-.202-.133-.23-.1-.025-.202.033-.23.134l-.35 1.308-.495.286c-.016.01-.03.02-.044.033l.063-.57c.01-.074-.027-.145-.092-.182s-.144-.033-.204.01l-.465.34c.004-.017.008-.035.008-.055v-.572l.956-.956c.073-.073.073-.192 0-.265-.073-.073-.19-.073-.265 0l-.692.69v-.666l.625-.625c.073-.072.073-.192 0-.266-.073-.073-.19-.073-.265 0l-.36.36v-.545c0-.104-.084-.188-.188-.188-.103 0-.187.084-.187.188v.546l-.36-.36c-.073-.072-.192-.072-.266 0-.073.073-.073.193 0 .266l.626.626v.665l-.69-.69c-.074-.074-.192-.074-.266 0-.073.07-.073.19 0 .264l.956.957v.572c0 .018.003.036.008.053l-.46-.34c-.062-.043-.142-.048-.205-.01-.065.036-.1.108-.093.182l.062.573c-.013-.014-.028-.025-.045-.035l-.496-.286-.35-1.307c-.026-.1-.13-.16-.23-.133-.1.026-.16.13-.132.23l.253.944-.576-.332-.23-.854c-.026-.1-.13-.16-.23-.133-.098.028-.157.13-.13.23l.13.494-.472-.273c-.09-.05-.204-.02-.256.07-.052.09-.02.203.07.255l.47.273-.492.132c-.1.026-.158.13-.132.23.022.083.098.138.18.138.018 0 .033-.002.05-.006l.854-.23.576.334-.944.253c-.1.025-.16.13-.133.228.024.084.1.14.183.14.016 0 .03-.003.048-.007l1.308-.35.495.286c.016.01.033.016.05.02l-.523.23c-.068.03-.11.098-.11.172s.04.14.11.172l.527.232c-.02.004-.037.012-.055.02l-.494.286-1.307-.35c-.1-.027-.2.032-.228.132-.027.1.032.202.133.23l.944.253-.577.332-.854-.23c-.1-.026-.204.033-.23.134-.026.098.032.2.132.228l.493.132-.472.272c-.09.053-.12.167-.07.256.036.06.1.094.164.094.03 0 .063-.008.093-.024l.473-.273-.132.493c-.025.1.034.203.133.23.018.004.032.006.05.006.082 0 .158-.056.18-.14l.23-.854.575-.332-.253.944c-.027.1.033.202.133.23.016.003.032.005.048.005.082 0 .158-.055.18-.14l.35-1.306.496-.284c.017-.01.032-.02.044-.035l-.063.57c-.008.074.028.146.092.184.064.037.145.032.204-.01l.465-.34c-.005.017-.01.036-.01.056v.57l-.955.957c-.073.073-.073.192 0 .266.036.036.084.055.132.055s.096-.02.133-.055l.69-.692v.666l-.625.626c-.073.073-.073.192 0 .266.037.036.085.055.133.055s.096-.02.133-.055l.36-.36v.545c0 .104.084.188.187.188.104 0 .188-.083.188-.187v-.546l.36.36c.074.074.192.074.266 0s.073-.19 0-.265l-.625-.626v-.665l.692.693c.073.072.19.072.265 0 .073-.073.073-.192 0-.266l-.956-.956v-.57c0-.02-.002-.037-.008-.056l.463.34c.033.023.072.036.11.036.032 0 .065-.008.095-.025.063-.037.1-.11.093-.182l-.063-.572c.012.015.027.026.044.036l.495.285.35 1.308c.022.084.098.14.18.14.017 0 .033-.003.05-.007.1-.026.158-.128.132-.228l-.253-.944.575.332.23.855c.02.083.098.14.18.14.016 0 .033-.003.05-.008.1-.026.158-.13.132-.23l-.132-.492.473.273c.03.017.062.024.093.024.066 0 .13-.033.163-.094.053-.09.02-.203-.068-.256l-.473-.272.493-.132c.1-.027.16-.13.133-.23-.03-.098-.133-.158-.233-.13zm-2.916-.874c-.076.032-.12.11-.112.19l.056.507-.41-.3c-.034-.023-.073-.036-.112-.036s-.077.013-.11.036l-.41.3.055-.506c.01-.08-.035-.158-.11-.19l-.465-.207.465-.205c.075-.033.12-.11.11-.19l-.054-.507.41.3c.066.05.155.05.22 0l.412-.3-.055.507c-.01.08.036.16.11.192l.465.205-.466.204z" fill="#ccc"/></g></svg>