<svg xmlns="http://www.w3.org/2000/svg" width="50" height="50" viewBox="0 0 50 50"><g><path fill-rule="evenodd" clip-rule="evenodd" fill="#fff" d="M0 0h50v50H0z"/><path d="M39 16.315c-1.03.457-2.137.767-3.3.904 1.186-.712 2.1-1.838 2.527-3.178-1.11.657-2.34 1.137-3.647 1.393-1.05-1.116-2.543-1.813-4.195-1.813-3.172 0-5.744 2.57-5.744 5.744 0 .45.053.89.15 1.31-4.775-.24-9.01-2.527-11.842-6.002-.494.85-.777 1.835-.777 2.888 0 1.994 1.016 3.75 2.556 4.782-.94-.03-1.825-.288-2.6-.72v.072c0 2.785 1.978 5.106 4.606 5.635-.482.13-.99.202-1.513.202-.374 0-.73-.036-1.08-.102.728 2.28 2.852 3.94 5.363 3.988-1.965 1.54-4.44 2.46-7.133 2.46-.464 0-.922-.026-1.37-.08 2.542 1.628 5.562 2.58 8.806 2.58 10.564 0 16.345-8.754 16.345-16.345 0-.25-.008-.5-.018-.746 1.123-.808 2.097-1.818 2.868-2.972z" fill="#55ACEE"/><path fill-rule="evenodd" clip-rule="evenodd" fill="none" d="M9 9h32v32H9z"/><path d="M16.687 38.495l-1.136.305-.763-.44 1.254-.337c.133-.037.212-.172.176-.305-.035-.133-.172-.21-.304-.176l-1.734.465-.656-.38c-.022-.013-.046-.022-.07-.026l.698-.308c.09-.04.148-.13.148-.227s-.058-.188-.148-.227l-.7-.31c.025-.007.05-.015.072-.028l.656-.38 1.734.466c.02.006.043.008.064.008.11 0 .21-.072.24-.184.036-.133-.044-.268-.176-.305l-1.254-.336.764-.442 1.136.305c.02.006.043.008.063.008.11 0 .21-.07.24-.183.035-.133-.044-.27-.177-.305l-.654-.176.626-.36c.12-.07.16-.222.09-.34-.067-.12-.22-.16-.338-.093l-.627.363.176-.654c.035-.133-.043-.27-.176-.305s-.27.043-.305.176l-.304 1.135-.764.44.336-1.253c.035-.133-.044-.27-.176-.305-.133-.035-.27.043-.305.176l-.464 1.734-.656.38c-.02.013-.04.028-.06.044l.085-.756c.01-.1-.038-.193-.123-.242-.086-.05-.19-.045-.27.014l-.618.45c.007-.022.012-.048.012-.073v-.758l1.27-1.27c.097-.1.097-.257 0-.353-.098-.098-.254-.098-.352 0l-.918.918v-.883l.83-.832c.098-.096.098-.254 0-.352-.097-.096-.254-.096-.35 0l-.48.48v-.727c0-.136-.11-.247-.25-.247-.136 0-.247.11-.247.248v.728l-.48-.48c-.097-.096-.255-.096-.353 0-.097.098-.097.256 0 .352l.83.832v.883l-.917-.918c-.098-.098-.254-.098-.352 0-.097.096-.097.254 0 .352l1.27 1.27v.757c0 .025.004.05.01.072l-.613-.452c-.08-.057-.186-.063-.27-.014-.087.05-.135.145-.124.242l.083.762c-.017-.02-.037-.035-.06-.05l-.657-.378-.464-1.734c-.035-.133-.173-.21-.304-.176-.133.035-.212.172-.177.305l.337 1.254-.765-.442-.304-1.135c-.036-.133-.172-.21-.305-.176-.132.035-.21.172-.176.305l.175.654-.622-.36c-.12-.07-.27-.028-.34.09-.068.12-.027.27.092.34l.627.362-.655.176c-.133.035-.21.172-.176.305.03.11.13.183.24.183.02 0 .04-.002.063-.008l1.135-.305.765.44-1.254.337c-.134.037-.213.172-.178.305.03.11.13.184.24.184.022 0 .043-.002.064-.008l1.734-.465.657.38c.02.013.044.02.067.026l-.696.306c-.09.04-.147.13-.147.23 0 .097.058.185.148.226l.7.31c-.024.005-.05.015-.072.028l-.656.38-1.734-.466c-.132-.035-.27.043-.305.176-.034.133.044.268.178.305l1.254.336-.764.44-1.135-.305c-.132-.035-.27.043-.305.176s.043.27.176.306l.654.176-.627.36c-.12.07-.16.222-.09.34.046.08.13.126.216.126.04 0 .084-.012.123-.033l.626-.363-.175.654c-.034.133.045.27.177.305.022.007.043.01.064.01.11 0 .212-.073.24-.185l.305-1.135.765-.44-.336 1.253c-.035.133.044.27.177.305.022.006.044.008.064.008.11 0 .21-.072.24-.184l.464-1.734.657-.38c.022-.013.042-.028.058-.046l-.083.758c-.01.098.038.19.123.242.085.05.19.043.27-.016l.62-.45c-.008.022-.013.048-.013.075v.76l-1.27 1.27c-.097.097-.097.255 0 .35.05.05.112.073.176.073s.127-.023.176-.072l.918-.917v.883l-.83.83c-.098.098-.098.256 0 .354.048.047.11.072.176.072.063 0 .126-.025.176-.072l.48-.48v.725c0 .14.11.25.247.25s.248-.11.248-.25v-.725l.48.48c.096.096.253.096.35 0 .098-.098.098-.256 0-.354l-.83-.83v-.883l.918.918c.098.1.254.1.352 0 .097-.095.097-.253 0-.35l-1.27-1.27v-.76c0-.025-.004-.05-.012-.074l.615.45c.045.032.097.05.147.05.043 0 .086-.012.125-.033.085-.05.133-.145.123-.242l-.082-.76c.016.02.036.034.06.048l.655.38.465 1.733c.03.112.13.185.24.185.02 0 .043-.002.064-.008.132-.035.21-.172.176-.305l-.336-1.254.765.44.304 1.136c.03.11.13.184.24.184.02 0 .043-.002.064-.008.133-.035.21-.172.176-.305l-.175-.654.628.364c.04.02.082.033.124.033.086 0 .17-.045.215-.125.07-.12.028-.27-.09-.34l-.628-.36.653-.177c.133-.035.212-.172.176-.305-.035-.132-.173-.21-.303-.175zm-3.872-1.158c-.1.043-.16.146-.147.254l.073.673-.545-.398c-.043-.033-.096-.05-.146-.05-.053 0-.105.017-.147.05l-.546.396.073-.67c.013-.106-.047-.21-.146-.255l-.617-.27.618-.274c.1-.042.158-.145.146-.253l-.07-.672.544.4c.088.064.206.064.293 0l.546-.398-.073.672c-.012.106.048.21.146.253l.617.273-.618.27z" fill="#ccc"/><path d="M25.627 14.416l-.855.23-.575-.333.944-.254c.1-.028.16-.13.133-.23-.026-.1-.13-.16-.23-.132l-1.306.35-.494-.285c-.018-.01-.035-.017-.053-.02l.525-.232c.067-.028.112-.097.112-.17s-.044-.143-.112-.172l-.526-.233c.017-.004.035-.01.053-.02l.494-.286 1.307.35c.017.004.032.006.05.006.08 0 .157-.055.18-.14.027-.1-.033-.202-.133-.228l-.943-.253.575-.333.855.23c.016.003.033.005.05.005.082 0 .157-.055.18-.14.027-.1-.032-.202-.133-.228l-.493-.133.474-.273c.09-.052.12-.166.068-.256-.05-.09-.165-.12-.255-.068l-.473.273.132-.494c.026-.1-.032-.202-.133-.23-.1-.026-.203.033-.23.133l-.228.854-.576.333.252-.945c.026-.1-.033-.202-.133-.23-.1-.025-.203.033-.23.134l-.35 1.306-.496.286c-.016.01-.03.02-.044.033l.063-.57c.008-.074-.028-.145-.093-.182s-.144-.033-.204.01l-.465.34c.006-.017.01-.035.01-.055v-.572l.956-.956c.073-.073.073-.192 0-.265-.073-.073-.19-.073-.265 0l-.69.69v-.664l.625-.625c.073-.072.073-.192 0-.266-.073-.073-.19-.073-.265 0l-.36.36v-.547c0-.104-.084-.188-.188-.188-.103 0-.187.084-.187.188v.546l-.36-.362c-.073-.072-.192-.072-.266 0-.074.073-.074.193 0 .266l.625.626v.665l-.69-.69c-.074-.074-.192-.074-.266 0-.074.07-.074.19 0 .264l.955.955v.572c0 .02.003.037.008.054l-.462-.338c-.06-.044-.14-.05-.203-.012-.065.037-.1.11-.093.183l.062.573c-.013-.014-.028-.025-.045-.035l-.494-.285-.35-1.307c-.026-.1-.13-.16-.23-.133-.1.026-.16.13-.132.23l.253.944-.576-.334-.228-.854c-.026-.1-.13-.16-.23-.133-.098.026-.157.128-.13.228l.13.494-.472-.273c-.09-.053-.204-.022-.256.067-.052.09-.02.204.07.256l.47.273-.492.132c-.1.026-.158.13-.132.23.022.083.098.138.18.138.018 0 .033-.002.05-.006l.854-.23.576.334-.944.253c-.1.026-.16.13-.133.23.023.083.098.138.182.138.016 0 .03-.002.048-.006l1.307-.352.495.286c.016.01.033.016.05.02l-.523.23c-.068.03-.11.098-.11.172s.04.14.11.172l.527.232c-.02.004-.038.012-.056.02l-.494.286-1.307-.35c-.1-.027-.202.032-.23.132-.026.1.033.202.134.23l.944.253-.575.333-.854-.23c-.1-.026-.202.033-.228.134-.026.1.032.2.132.23l.493.13-.472.273c-.09.053-.12.167-.07.256.036.06.1.094.164.094.03 0 .062-.008.092-.024l.473-.273-.132.493c-.026.1.033.203.132.23.018.004.032.006.05.006.082 0 .158-.056.18-.14l.23-.854.575-.332-.253.944c-.027.1.033.202.133.23.016.003.032.005.048.005.082 0 .158-.055.18-.14l.35-1.306.496-.286c.017-.01.032-.02.044-.035l-.063.57c-.008.072.028.144.092.182.064.037.145.032.204-.01l.467-.34c-.005.017-.01.036-.01.056v.57l-.955.957c-.073.073-.073.192 0 .266.036.037.084.056.132.056s.096-.02.133-.055l.69-.69v.664l-.625.626c-.073.073-.073.192 0 .266.037.036.085.055.133.055s.096-.018.133-.054l.36-.36v.545c0 .105.084.19.187.19.104 0 .188-.085.188-.19v-.545l.36.36c.073.074.19.074.265 0s.073-.19 0-.265l-.625-.626v-.664l.69.692c.074.072.192.072.266 0 .072-.073.072-.192 0-.266l-.957-.956v-.57c0-.02-.003-.037-.01-.056l.464.34c.033.023.072.036.11.036.032 0 .065-.008.095-.025.063-.037.1-.11.093-.182l-.063-.572c.012.015.027.026.044.036l.495.285.352 1.308c.022.084.098.14.18.14.017 0 .033-.003.05-.007.1-.026.158-.128.132-.228l-.253-.944.577.332.23.855c.02.083.098.14.18.14.016 0 .033-.003.05-.008.1-.026.158-.13.132-.23l-.133-.492.473.273c.03.017.062.024.093.024.065 0 .13-.033.162-.094.053-.09.02-.203-.068-.256l-.473-.272.493-.132c.1-.027.16-.13.133-.23-.03-.1-.133-.16-.233-.132zm-2.916-.873c-.074.032-.12.11-.11.19l.056.507-.41-.3c-.034-.024-.073-.037-.112-.037s-.077.013-.11.036l-.41.3.055-.507c.01-.08-.036-.158-.11-.19l-.466-.207.465-.205c.074-.032.12-.108.11-.19l-.055-.506.41.3c.066.05.155.05.22 0l.412-.3-.055.507c-.01.082.036.16.11.193l.465.205-.466.205z" fill="#ccc"/></g></svg>