<svg xmlns="http://www.w3.org/2000/svg" width="50" height="50" viewBox="0 0 50 50"><g><path fill-rule="evenodd" clip-rule="evenodd" fill="#fff" d="M0 0h50v50H0z"/><path d="M29.085 16.65c0-2.106 4.236-3.2 4.236.366-.012 1.956-.28 3.763-.712 5.414h4.405c.335-1.994.32-3.967.32-6.29C37.336 9.596 25 8.506 25 16.798c0 5.82 2.803 8.885 5.733 10.5C28.29 31.987 25 34.543 25 34.543 15.788 27.2 16.68 14.76 16.68 14.76h-4.015c.076 16.803 9.142 22.692 10.257 23.566 1.114.874 1.338.802 2.676.728 1.335-.072 4.382-3.056 8.097-8.725.357-.552.68-1.077.972-1.588 1.556.34 2.67.35 2.67.35v-3.565c-7.807-.73-8.252-7.273-8.252-8.876z" fill="#00B286"/><path fill-rule="evenodd" clip-rule="evenodd" fill="none" d="M9 9h32v32H9z"/><path d="M15.895 34.563l-1.136.305-.765-.44 1.254-.337c.13-.036.21-.17.174-.304-.035-.133-.172-.21-.304-.176l-1.734.465-.656-.38c-.022-.013-.046-.022-.07-.026l.698-.31c.09-.04.148-.13.148-.227s-.058-.188-.148-.227l-.7-.31c.025-.007.05-.015.072-.028l.656-.38 1.734.466c.02.006.043.008.064.008.11 0 .21-.072.24-.184.036-.133-.044-.268-.176-.305l-1.254-.336.764-.44 1.136.304c.02.007.043.01.063.01.11 0 .21-.073.24-.185.036-.133-.043-.27-.176-.305l-.653-.176.627-.36c.12-.07.16-.222.09-.34-.067-.12-.22-.16-.338-.093l-.627.364.174-.654c.035-.133-.043-.27-.176-.305s-.27.043-.305.176l-.304 1.136-.766.44.336-1.253c.035-.133-.044-.27-.176-.305-.133-.035-.27.043-.305.176l-.466 1.734-.654.382-.06.045.085-.756c.01-.1-.038-.194-.123-.243-.086-.05-.19-.045-.27.014l-.618.452c.007-.023.012-.05.012-.074v-.758l1.27-1.27c.097-.098.097-.256 0-.352-.098-.098-.254-.098-.352 0l-.918.918v-.883l.83-.832c.098-.095.098-.253 0-.35-.097-.097-.254-.097-.35 0l-.48.48V27.8c0-.137-.11-.248-.25-.248-.136 0-.247.11-.247.248v.727l-.48-.48c-.097-.097-.255-.097-.353 0-.097.097-.097.255 0 .35l.83.833v.883l-.917-.918c-.098-.098-.254-.098-.352 0-.097.096-.097.254 0 .352l1.27 1.27v.758c0 .025.004.05.01.072l-.613-.45c-.08-.058-.186-.064-.27-.015-.087.05-.135.145-.124.242l.083.762c-.017-.02-.037-.036-.06-.05l-.657-.38-.464-1.733c-.035-.133-.173-.21-.304-.176-.133.036-.212.173-.177.306l.337 1.254-.765-.44-.302-1.137c-.036-.133-.172-.21-.305-.176-.132.035-.21.172-.176.305l.174.654-.627-.363c-.12-.068-.27-.027-.34.092-.068.12-.027.27.092.34l.626.36-.654.177c-.133.035-.21.172-.176.305.03.11.13.184.24.184.02 0 .042 0 .064-.007l1.135-.305.765.44-1.254.337c-.133.037-.212.172-.177.305.03.11.13.184.24.184.02 0 .042-.002.063-.008l1.734-.465.657.38c.02.014.044.02.067.027l-.695.307c-.09.04-.147.13-.147.23 0 .097.057.185.147.226l.7.31c-.024.005-.05.015-.072.028l-.656.38-1.732-.468c-.132-.035-.27.043-.305.176-.035.133.043.268.177.305l1.254.337-.764.44-1.135-.304c-.13-.035-.27.043-.304.176s.043.27.176.304l.654.176-.626.36c-.12.07-.16.222-.092.34.047.08.13.126.217.126.04 0 .084-.012.123-.033l.627-.363-.175.654c-.035.133.044.27.176.305.022.005.043.007.064.007.11 0 .21-.072.24-.184l.304-1.135.765-.44-.337 1.252c-.035.133.044.27.177.305.02.006.043.008.063.008.11 0 .21-.072.24-.184l.464-1.735.657-.38c.022-.013.042-.028.058-.046l-.083.757c-.01.098.037.19.122.242.085.048.19.042.27-.017l.62-.45c-.008.022-.013.048-.013.075v.758l-1.27 1.27c-.098.098-.098.256 0 .352.048.05.11.072.175.072s.127-.023.176-.072l.92-.918v.883l-.832.83c-.097.098-.097.256 0 .354.05.047.112.072.177.072.063 0 .126-.026.176-.073l.48-.48v.725c0 .14.11.25.248.25s.25-.11.25-.25v-.725l.478.48c.097.096.254.096.35 0 .1-.098.1-.256 0-.354l-.83-.83v-.883l.92.918c.097.098.253.098.35 0 .098-.096.098-.254 0-.352l-1.27-1.27v-.758c0-.025-.003-.05-.01-.074l.614.45c.044.032.096.05.146.05.043 0 .086-.012.125-.033.086-.05.134-.144.124-.24l-.082-.76c.016.017.036.032.06.046l.655.38.465 1.733c.03.11.13.183.24.183.02 0 .043-.002.064-.008.132-.035.21-.172.176-.305l-.336-1.254.765.44.305 1.136c.03.11.13.184.24.184.02 0 .043-.002.064-.008.132-.035.21-.172.175-.305l-.175-.654.627.362c.04.02.082.033.124.033.087 0 .17-.045.216-.125.07-.12.028-.27-.09-.34l-.628-.36.654-.177c.133-.035.212-.172.176-.305-.035-.132-.173-.21-.303-.175zm-3.872-1.158c-.1.043-.16.146-.147.254l.073.67-.547-.397c-.043-.033-.096-.05-.146-.05-.052 0-.104.017-.146.05l-.545.396.073-.67c.013-.108-.047-.212-.146-.257l-.617-.27.618-.274c.1-.044.158-.147.146-.255l-.073-.672.545.4c.088.064.206.064.293 0l.546-.398-.072.672c-.012.107.048.21.146.254l.617.274-.617.27z" fill="#ccc"/><path d="M24.1 11.41l-.855.228-.575-.332.944-.254c.1-.027.16-.13.132-.23-.026-.1-.13-.158-.23-.13l-1.306.35-.494-.286c-.018-.01-.035-.017-.053-.02l.525-.232c.067-.03.112-.098.112-.172s-.044-.142-.112-.17l-.526-.234c.018-.004.036-.01.054-.02l.494-.286 1.307.35c.017.005.032.007.05.007.08 0 .157-.056.18-.14.027-.1-.033-.203-.133-.23l-.944-.252.575-.333.855.228c.016.004.033.006.05.006.082 0 .157-.056.18-.14.027-.1-.032-.203-.133-.23l-.493-.13.473-.274c.09-.052.12-.166.068-.256-.05-.09-.165-.12-.255-.068l-.473.273.132-.494c.025-.1-.033-.2-.134-.228-.1-.026-.203.033-.23.133l-.228.854-.576.332.253-.945c.026-.1-.033-.202-.133-.23-.1-.025-.202.033-.23.134l-.35 1.308-.495.286c-.016.01-.03.02-.044.033l.063-.57c.008-.074-.028-.145-.093-.182s-.144-.033-.204.01l-.466.34c.005-.017.01-.035.01-.055v-.573l.955-.956c.072-.072.072-.19 0-.264-.074-.073-.192-.073-.266 0l-.69.69v-.663l.624-.626c.073-.072.073-.192 0-.266-.073-.07-.19-.07-.265 0l-.36.362v-.546c0-.104-.084-.188-.188-.188-.103 0-.187.084-.187.188v.546l-.36-.36c-.073-.073-.192-.073-.266 0-.073.072-.073.192 0 .265l.626.626v.665l-.69-.69c-.074-.074-.192-.074-.266 0-.073.07-.073.19 0 .264l.956.956v.572c0 .02.003.037.008.054l-.462-.34c-.06-.043-.14-.048-.204-.01-.065.036-.1.108-.093.182l.062.573c-.014-.015-.03-.026-.046-.036l-.495-.286-.35-1.308c-.026-.1-.13-.16-.23-.133-.1.026-.16.13-.132.23l.253.944-.575-.332-.23-.854c-.025-.1-.128-.16-.228-.133-.1.028-.158.13-.132.23l.132.494-.473-.273c-.09-.05-.204-.02-.256.07-.052.09-.02.203.07.255l.47.273-.492.132c-.1.026-.158.13-.132.23.022.083.098.138.18.138.018 0 .033-.002.05-.006l.854-.23.576.334-.944.253c-.1.025-.16.13-.133.228.023.084.098.14.182.14.015 0 .03-.003.047-.007l1.307-.35.495.286c.015.01.032.016.05.02l-.524.23c-.068.03-.11.098-.11.172s.04.14.11.172l.527.232c-.02.004-.037.012-.055.02l-.494.286-1.307-.35c-.1-.027-.202.032-.23.132-.026.1.033.202.134.23l.945.253-.576.332-.855-.23c-.1-.026-.203.033-.23.134-.025.098.033.2.133.228l.493.132-.47.272c-.092.053-.122.167-.07.256.035.06.098.094.163.094.03 0 .063-.008.093-.024l.473-.273-.133.493c-.026.1.033.203.132.23.017.004.03.006.048.006.083 0 .16-.056.18-.14l.23-.854.576-.332-.253.944c-.026.1.034.202.134.23.016.003.032.005.048.005.082 0 .158-.055.18-.14l.35-1.306.496-.284c.017-.01.032-.02.044-.035l-.063.57c-.01.074.027.146.09.184.065.037.146.032.205-.01l.466-.34c-.004.017-.008.036-.008.056v.57l-.956.957c-.073.073-.073.192 0 .266.036.036.084.055.132.055s.096-.02.133-.055l.692-.692v.666l-.626.626c-.073.073-.073.192 0 .266.037.036.085.055.133.055s.095-.02.132-.055l.36-.36v.545c0 .104.084.188.187.188s.187-.083.187-.187v-.546l.36.36c.073.074.19.074.265 0s.073-.19 0-.265l-.625-.626V12.6l.69.693c.074.072.192.072.266 0 .073-.073.073-.192 0-.266l-.956-.956v-.57c0-.02-.003-.037-.01-.056l.464.34c.034.023.073.036.11.036.033 0 .066-.008.096-.025.063-.037.1-.11.093-.182l-.064-.572c.012.015.027.026.044.036l.495.285.35 1.308c.023.084.1.14.182.14.016 0 .032-.003.048-.007.1-.026.16-.128.133-.228l-.253-.944.576.332.23.855c.022.083.1.14.182.14.015 0 .032-.003.048-.008.1-.026.16-.13.133-.23l-.132-.492.474.273c.03.017.062.024.093.024.065 0 .13-.033.162-.094.052-.09.02-.203-.07-.256l-.472-.272.493-.132c.102-.027.16-.13.134-.23-.03-.097-.135-.156-.234-.13zm-2.916-.874c-.075.032-.12.11-.11.19l.055.507-.412-.3c-.033-.024-.072-.037-.11-.037s-.078.013-.11.036l-.412.3.056-.506c.01-.08-.035-.158-.11-.19l-.465-.207.465-.206c.075-.033.12-.11.11-.19l-.054-.507.41.3c.066.05.155.05.22 0l.412-.3-.055.507c-.01.08.036.16.11.192l.465.205-.466.206z" fill="#ccc"/></g></svg>