<svg xmlns="http://www.w3.org/2000/svg" width="50" height="50" viewBox="0 0 50 50"><g><path fill-rule="evenodd" clip-rule="evenodd" fill="#fff" d="M0 0h50v50H0z"/><path d="M24.692 33.1h1.712s.517-.058.78-.342c.244-.26.236-.75.236-.75s-.033-2.298 1.033-2.636c1.05-.333 2.4 2.22 3.83 3.2 1.08.744 1.903.582 1.903.582l3.824-.055s2.002-.124 1.053-1.697c-.078-.128-.554-1.164-2.844-3.29-2.4-2.227-2.078-1.866.81-5.716 1.76-2.345 2.464-3.775 2.244-4.39-.21-.584-1.504-.43-1.504-.43l-4.307.028s-.318-.045-.556.097c-.23.14-.38.46-.38.46s-.682 1.816-1.59 3.36c-1.918 3.255-2.686 3.428-2.998 3.225-.73-.47-.548-1.893-.548-2.902 0-3.157.48-4.472-.933-4.813-.47-.112-.814-.188-2.012-.2-1.535-.016-2.836.006-3.572.366-.49.24-.867.773-.637.806.284.038.928.174 1.27.64.44.6.426 1.948.426 1.948s.254 3.714-.594 4.175c-.578.316-1.376-.33-3.086-3.283-.876-1.513-1.536-3.187-1.536-3.187s-.128-.312-.355-.48c-.275-.202-.66-.266-.66-.266l-4.094.026s-.612.02-.837.285c-.202.238-.017.73-.017.73s3.204 7.496 6.83 11.272c3.33 3.466 7.106 3.238 7.106 3.238z" fill="#4C75A3"/><path fill-rule="evenodd" clip-rule="evenodd" fill="none" d="M9 9h32v32H9z"/><path d="M13.145 28.32l-1.136.305-.765-.44 1.254-.337c.13-.037.21-.172.174-.305-.035-.133-.172-.21-.304-.176l-1.734.465-.656-.38c-.022-.013-.046-.022-.07-.026l.698-.31c.09-.038.148-.128.148-.226s-.058-.188-.148-.227l-.7-.31c.025-.007.05-.015.072-.028l.656-.38 1.734.466c.02.007.043.01.064.01.11 0 .21-.073.24-.185.036-.133-.044-.268-.176-.305l-1.254-.336.764-.44 1.136.304c.02.006.043.008.063.008.11 0 .21-.072.24-.184.036-.133-.043-.27-.176-.305l-.653-.176.627-.36c.12-.07.16-.22.09-.34-.067-.12-.22-.16-.338-.092l-.627.363.174-.653c.035-.133-.043-.27-.176-.305s-.27.043-.305.176l-.304 1.135-.766.44.336-1.253c.035-.133-.044-.27-.176-.305-.133-.035-.27.043-.305.176l-.466 1.735-.654.38-.06.046.085-.755c.01-.1-.038-.193-.123-.242-.086-.05-.19-.045-.27.014l-.618.45c.007-.022.012-.048.012-.073v-.758l1.27-1.27c.097-.098.097-.256 0-.352-.098-.098-.254-.098-.352 0l-.918.918v-.882l.83-.832c.098-.096.098-.254 0-.352-.097-.096-.254-.096-.35 0l-.48.48v-.727c0-.138-.11-.25-.25-.25-.136 0-.247.112-.247.25v.726l-.48-.48c-.097-.096-.255-.096-.353 0-.097.098-.097.256 0 .352l.83.832v.883l-.917-.918c-.098-.098-.254-.098-.352 0-.097.096-.097.254 0 .352l1.27 1.27v.758c0 .025.004.05.01.072l-.613-.45c-.08-.058-.186-.064-.27-.015-.087.05-.135.145-.124.242l.083.762c-.017-.02-.037-.035-.06-.05l-.657-.378-.464-1.734c-.035-.133-.173-.21-.304-.176-.133.035-.212.172-.177.305l.337 1.254-.765-.44-.302-1.137c-.036-.133-.172-.21-.305-.176-.132.035-.21.172-.176.305l.174.653-.626-.363c-.12-.068-.27-.027-.34.092-.068.12-.027.27.092.34l.627.36-.654.177c-.133.034-.21.17-.176.304.03.11.13.184.24.184.02 0 .042-.002.064-.008l1.136-.305.765.44-1.253.337c-.133.037-.212.172-.177.305.03.11.13.184.24.184.022 0 .043 0 .064-.007l1.734-.465.657.38c.02.013.044.02.067.026l-.695.306c-.09.04-.147.13-.147.23 0 .097.057.185.147.226l.7.31c-.024.005-.05.015-.072.028l-.656.38-1.735-.466c-.132-.035-.27.043-.305.176-.035.133.043.268.177.305l1.254.335-.764.44-1.135-.305c-.13-.035-.27.043-.304.176s.043.27.176.305l.654.177-.626.36c-.12.07-.16.222-.092.34.047.08.13.126.217.126.04 0 .084-.012.123-.033l.627-.363-.175.654c-.035.134.044.27.176.306.022.006.043.008.064.008.11 0 .21-.072.24-.184l.304-1.135.765-.44-.337 1.253c-.036.132.044.27.176.304.02.006.042.008.062.008.11 0 .21-.072.24-.184l.464-1.734.657-.38c.022-.013.042-.028.058-.046l-.082.758c-.01.098.038.19.123.242.086.05.192.043.272-.016l.618-.45c-.007.022-.012.048-.012.075v.758l-1.27 1.27c-.097.098-.097.256 0 .352.05.05.112.072.176.072s.127-.023.176-.072l.918-.918v.883l-.83.83c-.098.098-.098.256 0 .354.048.047.11.072.176.072.063 0 .126-.025.176-.072l.48-.48v.725c0 .138.11.25.247.25.138 0 .25-.112.25-.25v-.726l.478.48c.097.096.254.096.35 0 .1-.098.1-.256 0-.354l-.83-.83v-.883l.92.918c.097.098.253.098.35 0 .098-.096.098-.254 0-.352l-1.27-1.27v-.758c0-.025-.003-.05-.01-.074l.614.452c.043.03.095.05.145.05.043 0 .086-.013.125-.034.085-.05.133-.145.123-.242l-.082-.76c.017.018.037.033.06.047l.656.38.465 1.733c.03.11.13.184.24.184.022 0 .044-.002.065-.008.132-.035.21-.172.176-.305l-.335-1.254.765.44.304 1.136c.03.11.13.183.24.183.02 0 .043-.002.064-.008.133-.035.21-.172.176-.305l-.175-.654.626.363c.04.02.082.032.124.032.086 0 .17-.045.215-.125.07-.12.028-.27-.09-.34l-.628-.36.654-.177c.134-.035.213-.172.177-.305-.034-.132-.172-.21-.302-.175zm-3.872-1.158c-.1.043-.16.146-.147.254l.073.672-.547-.398c-.043-.033-.096-.05-.146-.05-.052 0-.104.017-.146.05l-.545.396.073-.67c.013-.107-.047-.21-.146-.256l-.617-.27.618-.274c.1-.043.158-.146.146-.254l-.073-.672.545.4c.088.064.206.064.293 0l.545-.4-.073.673c-.012.107.048.21.146.254l.617.273-.617.272z" fill="#ccc"/><path d="M34.2 14.135l-.856.23-.575-.333.943-.254c.1-.027.16-.13.132-.23-.026-.1-.13-.158-.23-.13l-1.306.35-.495-.286c-.018-.01-.035-.017-.053-.02l.525-.232c.067-.03.112-.098.112-.172s-.045-.142-.113-.17l-.526-.234c.02-.004.037-.01.055-.02l.494-.286 1.306.35c.017.005.032.007.05.007.08 0 .157-.055.18-.14.027-.1-.033-.202-.133-.228l-.944-.253.574-.333.855.23c.015.004.032.006.048.006.083 0 .158-.055.18-.14.028-.1-.03-.202-.132-.228l-.493-.132.473-.273c.09-.052.12-.166.068-.256-.05-.09-.165-.12-.255-.068l-.474.272.132-.494c.026-.1-.032-.2-.133-.23-.1-.025-.203.034-.23.134l-.228.854-.576.333.254-.946c.026-.1-.033-.202-.133-.23-.1-.025-.2.033-.228.134l-.35 1.307-.496.286c-.016.01-.03.022-.044.034l.063-.57c.008-.074-.028-.145-.093-.182s-.144-.033-.204.01l-.465.34c.005-.017.01-.035.01-.055v-.572l.955-.956c.073-.074.073-.193 0-.266-.073-.073-.19-.073-.265 0l-.69.69v-.664l.624-.626c.073-.072.073-.192 0-.266-.073-.072-.19-.072-.265 0l-.36.36v-.546c0-.104-.084-.188-.188-.188-.103 0-.187.084-.187.188v.546l-.36-.36c-.073-.073-.192-.073-.266 0-.072.072-.072.192 0 .265l.627.626v.664l-.69-.69c-.074-.074-.192-.074-.266 0-.072.07-.072.19 0 .264l.957.956v.572c0 .02.003.037.008.054l-.46-.34c-.062-.044-.142-.05-.205-.012-.065.037-.1.11-.093.183l.062.574c-.014-.014-.03-.025-.046-.035l-.495-.287-.35-1.307c-.027-.1-.13-.16-.23-.133-.1.026-.16.13-.133.23l.253.944-.576-.333-.23-.854c-.025-.1-.128-.16-.228-.133-.1.027-.158.13-.132.23l.132.493-.473-.273c-.09-.052-.204-.02-.256.068-.052.09-.02.204.07.256l.47.274-.492.132c-.1.026-.158.13-.132.23.022.083.098.138.18.138.018 0 .033-.002.05-.006l.854-.23.576.334-.944.253c-.1.026-.16.13-.134.23.023.083.098.138.182.138.016 0 .03-.002.048-.006l1.307-.35.495.285c.016.01.033.016.05.02l-.523.23c-.068.03-.11.098-.11.172s.04.14.11.172l.527.232c-.02.004-.037.012-.055.02l-.494.286-1.307-.35c-.1-.027-.202.032-.23.132-.026.1.033.202.134.23l.944.253-.576.33-.854-.228c-.1-.027-.203.032-.23.133-.025.1.033.2.133.23l.493.13-.473.275c-.09.053-.12.167-.07.256.036.06.1.094.164.094.032 0 .064-.008.094-.024l.473-.273-.132.493c-.026.1.033.203.132.23.018.004.032.006.05.006.082 0 .158-.056.18-.14l.23-.854.575-.332-.254.944c-.027.1.033.202.133.23.017.003.033.005.05.005.08 0 .157-.055.18-.14l.35-1.306.495-.286c.017-.01.032-.02.044-.035l-.064.57c-.008.072.028.144.092.182.064.037.145.032.204-.01l.466-.34c-.005.017-.01.036-.01.056v.572l-.955.956c-.073.073-.073.192 0 .266.036.036.084.055.132.055s.096-.02.133-.055l.69-.692v.665l-.625.626c-.073.074-.073.193 0 .267.037.036.085.055.133.055s.096-.02.133-.055l.36-.36v.545c0 .104.083.188.186.188.104 0 .188-.084.188-.188v-.546l.36.36c.073.074.19.074.265 0s.072-.19 0-.265l-.626-.625v-.665l.69.692c.074.072.192.072.266 0 .073-.073.073-.192 0-.266l-.956-.956v-.57c0-.02-.003-.038-.01-.057l.464.34c.033.023.072.036.11.036.032 0 .065-.01.095-.026.063-.037.1-.11.093-.182l-.063-.572c.012.014.027.025.044.035l.495.285.35 1.307c.023.084.1.14.182.14.016 0 .032-.003.048-.007.1-.027.16-.13.133-.23l-.253-.943.576.332.23.854c.02.083.098.14.18.14.016 0 .033-.003.05-.008.1-.026.158-.13.132-.23l-.132-.492.473.273c.03.017.063.024.094.024.065 0 .13-.032.162-.093.053-.09.02-.203-.068-.256l-.473-.27.493-.133c.1-.027.16-.13.133-.23-.028-.1-.13-.16-.23-.132zm-2.917-.873c-.075.032-.12.11-.11.19l.055.507-.41-.302c-.034-.023-.073-.036-.112-.036s-.077.013-.11.036l-.41.3.055-.506c.01-.08-.034-.158-.11-.19l-.464-.207.465-.205c.076-.033.12-.11.112-.19l-.055-.507.41.3c.066.05.155.05.22 0l.412-.3-.056.507c-.01.08.036.16.11.192l.465.205-.467.205z" fill="#ccc"/></g></svg>