<svg xmlns="http://www.w3.org/2000/svg" width="50" height="50" viewBox="0 0 50 50"><g><path fill-rule="evenodd" clip-rule="evenodd" fill="#fff" d="M0 0h50v50H0z"/><g fill="#CF2200"><path d="M33.712 24.363H16.288c-2.77 0-5.016 2.248-5.016 5.017v4.03c0 2.77 2.245 5.017 5.016 5.017h17.424c2.77 0 5.016-2.247 5.016-5.017v-4.03c0-2.77-2.246-5.017-5.016-5.017zM19.948 27.5h-1.62v8.05h-1.565V27.5h-1.618v-1.368h4.804v1.37zm4.576 8.05h-1.388v-.76c-.258.28-.524.496-.802.642-.278.15-.546.22-.807.22-.323 0-.562-.1-.726-.31-.16-.208-.243-.516-.243-.93V28.6h1.39v5.33c0 .165.03.283.085.355.06.076.155.11.286.11.1 0 .23-.048.386-.145.157-.1.3-.222.432-.374V28.6h1.388v6.95zm5.04-1.434c0 .49-.108.868-.326 1.13s-.534.394-.943.394c-.274 0-.517-.05-.728-.15-.212-.102-.412-.257-.594-.472v.533h-1.405v-9.418h1.405v3.033c.188-.21.387-.373.594-.48.213-.113.426-.166.642-.166.438 0 .773.145 1.005.44.232.297.35.73.35 1.3v3.856zm4.817-1.873h-2.656v1.31c0 .365.045.62.136.76.093.144.25.213.472.213.23 0 .39-.06.482-.18.09-.12.138-.384.138-.793v-.315h1.43v.355c0 .713-.174 1.25-.524 1.61-.346.36-.865.538-1.558.538-.623 0-1.113-.19-1.47-.57-.356-.38-.538-.906-.538-1.576v-3.122c0-.6.198-1.094.593-1.474.392-.38.897-.567 1.52-.567.636 0 1.125.176 1.466.527s.513.856.513 1.515v1.77zM32.344 29.645c-.22 0-.38.063-.476.192-.098.122-.145.33-.145.622v.702h1.228v-.703c0-.292-.048-.502-.145-.623-.094-.13-.25-.192-.46-.192zM27.554 29.62c-.098 0-.197.023-.294.068s-.192.118-.286.213v4.33c.11.11.222.198.33.247.106.048.217.075.335.075.17 0 .294-.05.374-.15.08-.098.12-.255.12-.478v-3.59c0-.235-.048-.412-.146-.533-.102-.118-.247-.18-.434-.18zM18.57 21.95h1.76v-4.305l2.048-6.073H20.59l-1.09 4.15h-.11l-1.145-4.15h-1.77l2.094 6.267zM24.763 22.143c.712 0 1.27-.187 1.675-.56.404-.374.606-.886.606-1.54V16.09c0-.584-.207-1.064-.618-1.435-.414-.368-.944-.555-1.593-.555-.71 0-1.275.177-1.697.527-.42.352-.63.822-.63 1.417v3.968c0 .65.204 1.166.615 1.552.41.385.96.58 1.643.58zm-.648-6.157c0-.166.06-.3.176-.405.123-.103.277-.152.47-.152.205 0 .373.05.5.153.128.106.19.24.19.406v4.172c0 .204-.062.366-.187.483s-.293.176-.504.176c-.208 0-.367-.056-.48-.174-.11-.114-.166-.276-.166-.485v-4.17zM29.403 22.062c.295 0 .597-.084.907-.245.314-.164.615-.402.9-.715v.85h1.563v-7.656H31.21v5.81c-.145.167-.308.304-.48.412-.177.108-.323.16-.438.16-.146 0-.254-.04-.317-.122-.064-.08-.1-.212-.1-.39v-5.87H28.31v6.397c0 .456.092.798.272 1.024.187.23.457.345.82.345z"/></g><path fill-rule="evenodd" clip-rule="evenodd" fill="none" d="M9 9h32v32H9z"/><path d="M15.187 20.15l-1.136.305-.763-.44 1.254-.337c.133-.037.212-.172.176-.305-.035-.133-.172-.21-.304-.176l-1.734.465-.656-.38c-.022-.013-.046-.022-.07-.026l.698-.31c.09-.038.148-.128.148-.226s-.058-.188-.148-.227l-.7-.31c.025-.007.05-.015.072-.028l.656-.38 1.734.466c.02.007.043.01.064.01.11 0 .21-.073.24-.185.036-.133-.044-.268-.176-.305l-1.254-.336.764-.44 1.136.304c.02.006.043.008.063.008.11 0 .21-.072.24-.184.035-.133-.044-.27-.177-.305l-.654-.176.626-.36c.12-.07.16-.22.09-.34-.067-.12-.22-.16-.338-.092l-.627.363.176-.653c.035-.133-.043-.27-.176-.305s-.27.043-.305.176l-.304 1.135-.764.44.336-1.253c.035-.133-.044-.27-.176-.305-.133-.035-.27.043-.305.176l-.464 1.735-.656.38c-.02.013-.04.028-.06.044l.085-.757c.01-.1-.038-.193-.123-.242-.086-.05-.19-.044-.27.015l-.618.45c.007-.022.012-.048.012-.073v-.758l1.27-1.27c.097-.098.097-.256 0-.352-.098-.098-.254-.098-.352 0l-.918.918v-.88l.83-.832c.098-.096.098-.254 0-.352-.097-.096-.254-.096-.35 0l-.48.48v-.727c0-.138-.11-.25-.25-.25-.136 0-.247.112-.247.25v.726l-.48-.48c-.097-.096-.255-.096-.353 0-.097.098-.097.256 0 .352l.83.832v.883l-.917-.918c-.098-.098-.254-.098-.352 0-.097.096-.097.254 0 .352l1.27 1.27v.758c0 .025.004.05.01.072l-.613-.45c-.08-.058-.186-.064-.27-.015-.087.05-.135.145-.124.242l.083.762c-.017-.02-.037-.035-.06-.05l-.657-.378-.464-1.734c-.035-.133-.173-.21-.304-.176-.133.035-.212.172-.177.305l.337 1.254-.765-.44-.3-1.137c-.036-.133-.172-.21-.305-.176-.132.035-.21.172-.176.305l.176.653-.626-.363c-.12-.068-.27-.027-.34.092-.068.12-.027.27.092.34l.627.36-.655.177c-.133.034-.21.17-.176.304.03.11.13.184.24.184.02 0 .04-.002.063-.008l1.135-.305.765.44-1.254.337c-.134.037-.213.172-.178.305.03.11.13.184.24.184.022 0 .043 0 .064-.007l1.734-.465.657.38c.02.013.044.02.067.026l-.695.306c-.09.04-.148.13-.148.23 0 .097.057.185.147.226l.7.31c-.025.005-.05.015-.073.028l-.656.38-1.733-.466c-.132-.035-.27.043-.305.176-.035.133.043.268.177.305l1.253.335-.765.44-1.135-.305c-.132-.035-.27.043-.305.176s.043.27.176.305l.654.177-.627.36c-.12.07-.16.222-.09.34.046.08.13.126.216.126.04 0 .084-.012.123-.033l.626-.363-.175.654c-.034.134.045.27.177.306.022.006.043.008.064.008.11 0 .212-.072.24-.184l.305-1.135.765-.44-.336 1.253c-.035.133.044.27.177.305.022.006.044.008.064.008.11 0 .21-.07.24-.183l.464-1.734.657-.38c.022-.013.042-.028.058-.046l-.083.758c-.01.098.038.19.123.242.085.05.19.043.27-.016l.62-.45c-.008.023-.013.05-.013.076v.758l-1.27 1.27c-.097.098-.097.256 0 .352.05.05.112.072.176.072s.127-.023.176-.072l.918-.918v.883l-.83.83c-.098.1-.098.257 0 .355.048.047.11.072.176.072.063 0 .126-.025.176-.072l.48-.48v.725c0 .14.11.25.247.25s.248-.11.248-.25v-.725l.48.48c.096.096.253.096.35 0 .098-.098.098-.256 0-.354l-.83-.83v-.882l.918.918c.098.098.254.098.352 0 .097-.096.097-.254 0-.352l-1.27-1.27v-.758c0-.025-.004-.05-.012-.074l.615.45c.045.032.097.05.147.05.043 0 .086-.012.125-.033.085-.052.133-.146.123-.243l-.082-.76c.016.018.036.033.06.047l.655.38.465 1.733c.03.11.13.184.24.184.02 0 .043 0 .064-.007.132-.035.21-.172.176-.305l-.336-1.254.765.44.304 1.136c.03.11.13.184.24.184.02 0 .043-.002.064-.008.133-.035.21-.172.176-.305l-.175-.653.628.363c.04.02.082.033.124.033.086 0 .17-.045.215-.125.07-.12.028-.27-.09-.34l-.628-.36.653-.177c.133-.034.212-.17.176-.304-.035-.133-.173-.21-.303-.176zm-3.872-1.158c-.1.043-.16.146-.147.254l.073.672-.545-.398c-.043-.033-.096-.05-.146-.05-.053 0-.105.017-.147.05l-.546.396.073-.67c.013-.107-.047-.21-.146-.256l-.617-.27.618-.274c.1-.043.158-.146.146-.254l-.072-.672.545.4c.088.064.206.064.293 0l.546-.398-.073.672c-.013.107.047.21.145.254l.617.273-.617.272z" fill="#ccc"/><path d="M31.7 10.644l-.856.23-.575-.333.943-.253c.1-.027.16-.13.132-.23-.026-.1-.13-.158-.23-.13l-1.306.35-.495-.286c-.018-.01-.035-.016-.053-.02l.525-.23c.068-.032.113-.1.113-.175s-.044-.142-.112-.17l-.526-.234c.018-.003.036-.01.054-.02l.494-.285 1.307.35c.017.005.032.007.05.007.08 0 .157-.055.18-.14.027-.1-.033-.202-.133-.228l-.944-.253.575-.332.855.23c.016.003.033.005.05.005.082 0 .157-.055.18-.14.027-.1-.032-.202-.133-.228l-.493-.132.473-.273c.09-.052.12-.166.068-.256-.05-.09-.165-.12-.255-.068l-.473.273.132-.495c.025-.1-.033-.2-.134-.23-.1-.025-.203.034-.23.134l-.228.853-.576.333.253-.945c.026-.1-.033-.2-.133-.228-.1-.026-.202.032-.23.133l-.35 1.307-.495.286c-.016.01-.03.02-.044.033l.063-.57c.008-.073-.028-.144-.093-.18s-.143-.035-.203.01l-.465.34c.005-.02.01-.037.01-.057V7.82l.955-.955c.073-.073.073-.192 0-.265-.073-.073-.19-.073-.265 0l-.69.69v-.663L29.018 6c.072-.07.072-.19 0-.265-.074-.072-.192-.072-.266 0l-.36.36v-.544c0-.103-.084-.187-.188-.187-.103 0-.187.084-.187.188v.547l-.36-.36c-.074-.073-.193-.073-.267 0-.073.072-.073.192 0 .265l.626.626v.665l-.692-.69c-.073-.074-.19-.074-.265 0-.073.07-.073.19 0 .264l.956.956v.572c0 .02.002.037.007.054l-.462-.34c-.06-.044-.14-.05-.204-.012-.064.037-.1.11-.092.183l.062.574c-.013-.014-.028-.025-.045-.035l-.495-.287-.35-1.307c-.026-.1-.13-.16-.23-.133-.1.026-.16.13-.132.23l.253.944-.575-.333-.23-.854c-.025-.1-.128-.16-.228-.133-.1.027-.158.13-.132.23l.132.493-.473-.273c-.09-.052-.204-.02-.256.068-.052.09-.02.204.07.256l.47.274-.492.132c-.1.026-.158.13-.132.23.022.083.098.138.18.138.018 0 .033-.002.05-.006l.854-.23.576.334-.944.253c-.1.026-.16.13-.133.23.023.083.098.138.182.138.015 0 .03-.002.047-.006l1.307-.35.495.285c.015.01.032.016.05.02l-.524.23c-.068.03-.11.098-.11.172s.04.14.11.172l.527.232c-.02.004-.037.012-.055.02l-.494.286-1.307-.35c-.1-.027-.202.032-.23.132-.026.1.033.202.134.23l.945.253-.576.33-.855-.228c-.1-.027-.203.032-.23.133-.025.1.033.2.133.23l.493.13-.47.273c-.092.053-.122.167-.07.256.035.06.098.094.163.094.03 0 .063-.008.093-.024l.473-.273-.133.494c-.026.1.033.203.132.23.017.004.03.006.048.006.083 0 .16-.056.18-.14l.23-.854.576-.332-.253.944c-.026.1.034.202.134.23.016.003.032.005.048.005.082 0 .158-.055.18-.14l.35-1.306.496-.285c.017-.01.032-.02.044-.035l-.063.57c-.01.073.027.145.09.183.065.037.146.032.205-.01l.466-.34c-.004.017-.008.036-.008.056v.57l-.956.957c-.073.073-.073.192 0 .266.036.035.084.054.132.054s.096-.02.133-.055l.692-.693v.665l-.626.626c-.073.073-.073.192 0 .266.037.036.085.055.133.055s.095-.02.132-.056l.36-.36v.545c0 .103.084.187.187.187s.187-.084.187-.188v-.547l.36.36c.073.074.19.074.265 0s.073-.19 0-.265l-.625-.626v-.665l.69.692c.074.07.192.07.266 0 .073-.074.073-.193 0-.267l-.956-.956v-.57c0-.02-.003-.038-.01-.057l.464.34c.034.023.073.036.11.036.033 0 .066-.008.096-.025.063-.036.1-.108.093-.18l-.064-.573c.012.014.027.025.044.035l.495.285.35 1.307c.023.084.1.14.182.14.016 0 .032-.003.048-.007.1-.027.16-.13.133-.23l-.253-.943.576.332.23.855c.022.084.1.14.182.14.015 0 .032-.002.048-.007.1-.026.16-.13.133-.23l-.132-.492.474.274c.03.017.062.024.093.024.065 0 .13-.033.162-.094.052-.09.02-.203-.07-.256l-.472-.272.493-.132c.102-.027.16-.13.134-.23-.032-.098-.135-.158-.235-.13zm-2.917-.873c-.075.033-.12.11-.11.192l.055.506-.41-.3c-.034-.024-.073-.037-.112-.037s-.077.014-.11.037l-.41.3.055-.506c.01-.08-.034-.157-.11-.19l-.464-.206.465-.205c.076-.034.12-.11.112-.192l-.055-.506.41.3c.066.05.155.05.22 0l.412-.3-.056.507c-.01.08.036.158.11.19l.465.206-.467.205z" fill="#ccc"/></g></svg>