<svg xmlns="http://www.w3.org/2000/svg" width="78.167" height="78.167" viewBox="0 0 78.167 78.167"><g><g fill="#E86324"><path d="M56.39 9.454c16.216 9.353 21.733 30.016 12.315 46.12C59.288 71.68 38.48 77.16 22.263 67.806S.528 37.79 9.946 21.686C19.366 5.582 40.17.102 56.39 9.455z"/><g><path d="M59.898 14.095c2.262-.187 6.958.886 6.412 2.67-.447 1.076-5.14-.377-6.55-.852-.438-.15-.564-1.574-.217-1.78.114-.016.233-.03.355-.038zM61.23 13.844c-.003.31-.26.56-.573.557-.313-.003-.564-.26-.56-.57.003-.31.26-.56.575-.557.31.003.563.26.558.57zM62.663 13.892c-.004.31-.262.56-.575.557s-.564-.262-.56-.572.26-.56.573-.557c.315.004.566.26.563.572zM64.002 14.175c-.005.312-.263.56-.575.557-.312-.004-.564-.26-.56-.57.004-.312.262-.56.575-.557.31.003.565.26.56.57zM65.25 14.605c-.005.312-.263.56-.576.557-.313-.004-.564-.26-.56-.57.003-.312.262-.562.574-.557.315.003.565.26.56.57zM66.403 15.33c-.004.313-.263.562-.574.558-.314-.004-.565-.26-.563-.57.005-.312.263-.562.575-.558.314.004.565.26.56.57zM67.134 16.525c-.003.312-.262.56-.575.557s-.564-.26-.56-.57c.003-.313.26-.562.574-.558s.565.26.56.57zM66.17 17.4c-.005.313-.264.562-.577.558-.313-.003-.564-.26-.56-.57.003-.312.263-.56.574-.557.315.005.565.26.562.57zM64.737 17.324c-.005.312-.262.56-.575.558-.313-.004-.564-.26-.56-.57.003-.313.262-.562.573-.558.316.004.565.26.562.57zM63.188 17.068c-.004.31-.262.56-.574.557-.313-.004-.564-.26-.56-.57.004-.313.262-.563.575-.558.312.004.562.26.558.57zM61.853 16.665c-.005.312-.263.56-.576.557-.313-.004-.564-.26-.56-.57s.26-.56.575-.557c.312.004.563.26.56.57z"/></g><g><path d="M60.075 13.937c2.673-.76 8.57-.583 8.345 1.688-.277 1.4-6.266.765-8.074.527-.56-.074-1.054-1.756-.687-2.086.134-.045.273-.087.415-.13zM61.618 13.32c.068.373-.18.734-.557.804-.376.07-.74-.18-.81-.553s.18-.734.557-.804.74.18.81.553zM63.35 13.037c.067.375-.18.736-.56.806-.375.07-.74-.18-.81-.553-.068-.375.182-.736.558-.806.377-.068.74.18.812.553zM65.024 13.063c.07.374-.18.734-.556.803-.378.07-.74-.178-.81-.553-.07-.374.18-.734.556-.804.38-.07.74.178.81.553zM66.625 13.283c.07.375-.18.735-.556.805s-.74-.18-.812-.553c-.07-.374.18-.735.56-.805.375-.07.74.18.807.553zM68.187 13.882c.07.374-.18.734-.557.805-.377.07-.74-.18-.81-.554-.07-.374.18-.734.558-.804.376-.07.738.178.81.552zM69.352 15.144c.07.374-.18.734-.56.804-.375.07-.74-.18-.81-.553s.182-.734.558-.804c.377-.07.74.18.812.554zM68.4 16.425c.07.374-.18.735-.556.805-.378.07-.74-.18-.81-.554-.07-.374.18-.734.556-.804s.74.18.81.553zM66.663 16.67c.07.375-.18.735-.557.805-.376.07-.74-.18-.81-.553s.18-.735.557-.804c.377-.07.74.18.81.553zM64.743 16.73c.07.373-.18.733-.558.803-.376.07-.74-.18-.81-.553s.18-.735.557-.805c.38-.068.74.18.81.554zM63.04 16.563c.07.374-.18.735-.557.805-.377.07-.74-.18-.81-.553-.07-.375.18-.735.556-.806.376-.07.74.178.81.553z"/></g><g><path d="M67.146 25.762c2.107-1.758 7.513-3.96 8.23-1.814.318 1.376-5.354 3.2-7.087 3.71-.537.157-1.668-1.167-1.47-1.61.103-.098.212-.193.326-.286zM68.29 24.586c.215.31.135.736-.18.95-.31.213-.74.135-.955-.177-.216-.31-.136-.737.178-.95.313-.214.74-.135.956.176zM69.74 23.638c.216.31.136.736-.176.95-.315.215-.743.135-.958-.175-.216-.31-.136-.737.178-.95.312-.214.74-.136.956.175zM71.267 22.988c.215.31.136.737-.178.95-.314.214-.742.135-.958-.176-.215-.31-.136-.737.178-.95.312-.213.74-.134.957.176zM72.804 22.547c.217.31.137.736-.177.95-.312.214-.742.136-.956-.175-.215-.31-.135-.736.177-.95.312-.215.743-.135.957.175zM74.46 22.463c.215.31.135.737-.18.95-.312.214-.74.136-.955-.175-.216-.312-.137-.736.176-.95.314-.215.743-.136.96.175zM76.024 23.138c.214.31.136.737-.178.95-.312.214-.742.136-.956-.176-.216-.31-.136-.736.176-.95.314-.214.744-.135.958.176zM75.687 24.678c.215.31.134.737-.18.95-.31.214-.74.135-.955-.176-.217-.31-.136-.737.177-.95.31-.214.74-.135.957.176zM74.214 25.596c.216.31.136.736-.176.95-.313.214-.742.135-.958-.175-.216-.31-.136-.736.178-.95.312-.214.74-.135.956.176zM72.5 26.42c.215.31.136.735-.177.948-.313.214-.742.135-.958-.176-.214-.31-.136-.737.178-.95.312-.214.74-.135.958.177zM70.894 26.95c.215.31.136.736-.178.95-.313.213-.74.134-.957-.177-.216-.31-.137-.736.176-.95.313-.212.742-.134.958.176z"/></g><g><path d="M65.487 17.75c2.267.117 6.772 1.812 5.99 3.506-.59 1.008-5.042-1.063-6.376-1.725-.412-.204-.342-1.633.028-1.792.117 0 .235.005.36.01zM66.843 17.68c-.047.308-.337.52-.646.474-.31-.045-.523-.333-.477-.64.046-.31.336-.52.645-.475.31.045.524.332.478.64zM68.253 17.92c-.046.308-.334.52-.645.475-.31-.047-.523-.334-.478-.642s.336-.52.646-.475c.31.046.524.334.477.642zM69.543 18.38c-.047.308-.337.52-.646.475s-.524-.333-.477-.64c.046-.31.335-.52.645-.476.31.046.524.333.478.64zM70.72 18.975c-.047.308-.337.52-.646.475-.31-.047-.523-.333-.477-.64.046-.31.334-.522.645-.476s.524.333.478.64zM71.763 19.85c-.046.307-.334.52-.645.473-.31-.045-.523-.333-.478-.64.046-.308.336-.52.646-.475.31.046.524.333.477.64zM72.325 21.13c-.047.308-.337.52-.646.475-.31-.046-.525-.334-.48-.64.047-.31.337-.522.646-.475.31.045.525.333.48.64zM71.248 21.87c-.046.307-.335.52-.645.473s-.524-.333-.478-.64c.046-.308.336-.52.646-.475.31.046.524.334.478.64zM69.842 21.6c-.048.308-.336.52-.646.474-.31-.045-.522-.333-.476-.64.046-.308.334-.52.645-.475.31.045.523.333.477.64zM68.343 21.138c-.046.308-.336.52-.646.474-.31-.045-.522-.333-.477-.64.047-.31.335-.522.645-.475.31.046.525.333.478.64zM67.072 20.56c-.046.308-.337.52-.645.474-.312-.045-.524-.333-.48-.64.048-.308.338-.52.646-.475.31.045.525.332.48.64z"/></g><g><path d="M69.848 27.416c2.266.12 6.773 1.813 5.988 3.508-.587 1.006-5.04-1.064-6.374-1.726-.413-.206-.344-1.633.026-1.794.116 0 .236.006.36.012zM71.202 27.347c-.047.308-.336.52-.645.475-.31-.047-.524-.333-.48-.64.048-.31.337-.522.646-.476.31.046.525.333.48.64zM72.614 27.586c-.046.31-.336.52-.646.475-.31-.046-.523-.333-.476-.64.046-.31.334-.52.645-.475.307.046.524.334.477.64zM73.9 28.048c-.046.308-.335.52-.645.474-.31-.047-.524-.333-.478-.64.046-.31.336-.522.646-.476.31.046.524.335.477.642zM75.08 28.642c-.048.308-.337.52-.646.475-.31-.046-.524-.334-.48-.642.048-.308.337-.52.646-.474.31.047.525.335.48.642zM76.124 29.516c-.046.307-.336.52-.646.474-.31-.046-.522-.333-.477-.64.047-.308.336-.52.646-.475s.525.333.478.64zM76.685 30.798c-.047.308-.335.52-.645.474-.31-.046-.525-.333-.477-.642.044-.307.334-.52.645-.474.31.046.523.334.477.642zM75.607 31.536c-.046.307-.334.52-.645.474-.31-.046-.524-.333-.478-.64.046-.31.336-.522.646-.475.31.045.525.334.477.64zM74.2 31.267c-.045.308-.335.52-.645.475-.31-.046-.524-.333-.477-.64.046-.31.334-.52.645-.476.31.047.524.334.477.64zM72.702 30.805c-.046.308-.336.52-.646.475-.308-.046-.522-.334-.476-.642.046-.308.334-.52.646-.475.308.047.523.334.476.642zM71.432 30.227c-.046.308-.336.52-.646.475-.31-.047-.523-.334-.477-.64.045-.31.333-.522.644-.476.31.046.524.333.478.64z"/></g><g><path d="M70.605 29.933c2.114.824 5.85 3.845 4.567 5.207-.88.77-4.445-2.59-5.5-3.638-.326-.323.195-1.657.596-1.69.11.035.223.077.337.12zM71.914 30.292c-.144.277-.483.388-.765.248-.278-.142-.392-.48-.25-.758.143-.277.485-.39.765-.248.278.142.39.48.25.758zM73.176 30.962c-.142.277-.484.39-.762.248-.28-.142-.392-.48-.25-.758.142-.277.484-.39.764-.248.28.142.39.48.248.758zM74.252 31.804c-.142.276-.483.388-.763.247s-.392-.48-.25-.757c.143-.277.483-.39.763-.247.28.14.39.48.25.758zM75.18 32.736c-.14.277-.483.39-.763.248-.28-.142-.39-.48-.25-.758.143-.277.484-.39.764-.248.28.142.39.482.25.758zM75.894 33.894c-.143.277-.484.39-.764.247-.28-.14-.39-.48-.248-.756.142-.278.484-.39.762-.248.28.14.39.48.25.758zM76.02 35.286c-.144.276-.485.388-.765.247s-.39-.48-.248-.758c.14-.277.482-.39.762-.248.278.142.39.48.25.76zM74.76 35.648c-.14.277-.483.39-.762.248-.28-.14-.39-.48-.25-.758.144-.277.485-.388.763-.248.282.142.393.48.25.758zM73.512 34.952c-.142.277-.483.39-.763.247-.28-.142-.392-.48-.25-.758.14-.277.484-.388.763-.248.28.14.39.48.25.758zM72.237 34.044c-.143.276-.483.388-.764.247-.28-.14-.39-.48-.248-.757.142-.277.482-.39.762-.248.28.142.392.48.25.76zM71.216 33.097c-.142.276-.484.388-.764.247s-.392-.48-.25-.758c.143-.277.484-.39.764-.247.28.14.39.48.25.757z"/></g><g><path d="M72.483 35.643c2.145.735 6.007 3.597 4.782 5.012-.845.807-4.55-2.403-5.647-3.404-.34-.31.123-1.663.524-1.714.112.03.226.068.34.107zM73.805 35.947c-.13.283-.467.408-.752.28-.284-.13-.41-.465-.28-.747.13-.283.467-.408.752-.28.283.13.41.464.28.747zM75.096 36.564c-.13.282-.468.407-.753.278-.285-.128-.41-.464-.28-.747.13-.282.468-.407.75-.278.286.13.413.465.283.747zM76.206 37.36c-.13.282-.467.408-.752.278-.286-.13-.41-.464-.28-.746.13-.283.466-.408.75-.28.285.13.412.466.282.748zM77.17 38.254c-.128.282-.466.407-.75.278-.284-.128-.41-.464-.28-.747.13-.282.466-.407.75-.278.286.128.413.465.28.747zM77.934 39.38c-.13.283-.468.408-.75.278-.286-.13-.413-.463-.282-.746.13-.283.466-.408.75-.278.286.13.41.463.282.746zM78.116 40.766c-.13.283-.467.407-.752.278-.283-.13-.41-.463-.28-.746.13-.283.467-.408.752-.28.284.13.41.464.28.748zM76.877 41.18c-.13.284-.468.408-.753.28-.283-.13-.41-.466-.28-.747.13-.283.468-.408.753-.28.283.13.41.464.28.748zM75.6 40.536c-.13.283-.468.41-.752.28-.285-.13-.412-.465-.28-.747.13-.284.465-.41.75-.28.285.13.41.464.28.746zM74.286 39.682c-.13.283-.467.408-.752.28-.284-.13-.41-.465-.28-.748.13-.283.468-.408.752-.28.283.13.41.465.28.748zM73.227 38.777c-.13.282-.467.408-.753.28-.285-.13-.41-.465-.28-.748.13-.283.468-.408.75-.28.285.13.412.465.283.747z"/></g><g><path d="M70.425 39.798c1.518 1.677 3.5 6.037 1.74 6.687-1.133.298-2.81-4.292-3.282-5.695-.146-.435.92-1.396 1.295-1.25.082.082.164.168.247.258zM71.432 40.7c-.25.187-.607.133-.794-.116s-.133-.604.12-.788c.25-.186.606-.133.793.117.185.25.133.604-.118.788zM72.26 41.862c-.25.185-.607.132-.794-.118s-.133-.604.12-.788c.25-.185.606-.133.79.118.187.25.135.603-.116.788zM72.843 43.092c-.253.186-.607.132-.794-.118s-.136-.603.117-.788c.252-.185.607-.132.793.117.188.25.134.604-.117.79zM73.253 44.34c-.252.184-.607.13-.796-.12-.185-.25-.132-.602.12-.788.25-.184.607-.132.793.118.187.25.135.603-.117.79zM73.37 45.69c-.253.185-.607.132-.794-.118s-.134-.603.118-.79c.252-.183.607-.13.793.12.187.25.135.603-.117.788zM72.854 46.99c-.252.186-.607.133-.795-.117-.187-.25-.134-.604.117-.788.252-.186.61-.133.794.116.19.252.134.606-.116.79zM71.567 46.758c-.25.184-.607.132-.794-.118-.187-.25-.133-.604.118-.788.253-.186.608-.133.796.117.185.25.133.602-.12.788zM70.763 45.58c-.252.185-.607.13-.793-.118-.187-.25-.134-.604.12-.788.25-.186.606-.133.79.117.187.25.136.605-.117.79zM70.03 44.2c-.25.186-.606.133-.793-.117-.186-.25-.133-.604.12-.79.25-.184.606-.13.793.12s.132.603-.12.787zM69.544 42.9c-.25.185-.607.132-.794-.118-.185-.25-.133-.604.118-.788.252-.187.608-.132.795.117.187.25.133.605-.12.79z"/></g><g><path d="M72.335 39.79c2.226 1.65 5.654 6.42 3.695 7.617-1.29.626-4.404-4.49-5.308-6.064-.28-.487.77-1.895 1.257-1.806.117.078.234.163.355.252zM73.764 40.634c-.26.282-.7.303-.982.047-.284-.255-.306-.692-.046-.974.256-.282.696-.303.98-.047.283.255.305.693.048.974zM75.036 41.832c-.258.28-.7.303-.98.047-.285-.258-.307-.694-.05-.977.26-.28.7-.302.98-.046.287.256.307.694.05.975zM76.03 43.172c-.258.28-.697.303-.98.047-.284-.258-.306-.694-.048-.976.26-.282.698-.304.982-.048.284.257.305.694.046.976zM76.823 44.57c-.26.283-.7.305-.982.048-.283-.256-.305-.692-.046-.975.258-.282.697-.303.98-.047.285.257.307.694.05.975zM77.287 46.168c-.258.28-.698.303-.982.047-.284-.257-.304-.694-.046-.976s.697-.304.98-.048c.284.257.305.694.047.976zM76.98 47.852c-.258.28-.698.303-.982.046-.284-.256-.304-.692-.046-.975.257-.282.696-.302.98-.046.284.256.305.693.048.975zM75.378 47.876c-.258.282-.697.303-.98.047-.284-.256-.306-.693-.048-.976.257-.28.698-.302.982-.046.283.257.305.694.046.976zM74.13 46.65c-.257.283-.698.304-.98.048-.285-.256-.307-.693-.048-.976.258-.28.697-.302.98-.046.284.257.306.694.047.975zM72.92 45.168c-.256.282-.697.303-.98.047-.284-.256-.306-.693-.047-.976.256-.282.697-.304.98-.047.284.256.306.693.048.975zM72.024 43.722c-.258.28-.7.303-.982.046-.284-.256-.305-.692-.047-.975.258-.28.697-.303.98-.047.285.257.306.693.05.976z"/></g><g><path d="M67.76 51.394c2.682.603 7.72 3.543 6.434 5.41-.91 1.083-5.808-2.297-7.263-3.358-.45-.33-.073-2.023.403-2.137.137.02.28.05.426.084zM69.392 51.586c-.12.357-.51.554-.87.435-.36-.116-.557-.503-.438-.86.118-.36.51-.555.87-.437.36.117.557.505.438.863zM71.03 52.16c-.12.357-.51.553-.87.435-.36-.118-.558-.505-.44-.864.12-.356.51-.552.87-.434.362.12.557.505.44.863zM72.473 52.973c-.117.357-.507.553-.868.435-.36-.117-.557-.504-.44-.863.12-.358.51-.554.87-.436.36.117.556.503.438.863zM73.76 53.922c-.12.358-.51.553-.87.436-.36-.118-.558-.506-.44-.863.12-.357.51-.554.87-.436.36.117.556.503.44.862zM74.826 55.18c-.12.357-.508.553-.868.435-.36-.118-.557-.505-.438-.863.12-.357.508-.554.868-.435.36.117.558.503.438.862zM75.233 56.824c-.12.358-.51.553-.87.436-.36-.118-.557-.506-.438-.863.12-.357.51-.553.87-.436.36.12.557.507.438.864zM73.793 57.488c-.117.357-.508.553-.868.435-.36-.117-.557-.505-.438-.862.12-.356.51-.552.868-.435.36.118.558.506.438.863zM72.167 56.88c-.118.36-.51.555-.87.437-.358-.118-.556-.505-.437-.863.12-.358.51-.553.87-.436.36.118.556.505.437.863zM70.47 56.023c-.117.358-.508.553-.867.436-.36-.12-.56-.507-.44-.864.12-.358.51-.553.87-.436.36.118.558.506.438.863zM69.072 55.074c-.118.357-.51.554-.868.436-.36-.12-.56-.505-.44-.863s.51-.553.87-.436c.36.12.556.507.438.864z"/></g><g><path d="M71.197 45.325c1.276 1.863 2.646 6.45.813 6.857-1.163.146-2.198-4.63-2.475-6.083-.085-.452 1.103-1.262 1.454-1.064.07.092.138.188.207.29zM72.07 46.355c-.27.15-.618.05-.77-.224-.148-.27-.048-.614.227-.765.274-.15.62-.05.77.224.15.272.05.615-.226.765zM72.735 47.615c-.275.15-.62.05-.77-.223-.15-.27-.05-.615.224-.766.274-.148.62-.05.77.224s.05.616-.225.765zM73.146 48.913c-.275.15-.62.05-.77-.224-.15-.272-.05-.616.224-.766.275-.15.62-.05.77.224s.05.616-.224.765zM73.38 50.203c-.273.15-.62.05-.77-.223-.15-.272-.05-.616.225-.766.274-.148.62-.05.77.223.15.274.05.616-.224.766zM73.313 51.56c-.276.148-.622.05-.77-.225-.152-.272-.05-.616.224-.766.275-.15.62-.05.77.223.15.272.05.615-.224.766zM72.624 52.777c-.273.15-.62.05-.77-.223s-.05-.615.225-.766c.274-.15.62-.05.77.224.15.272.05.616-.226.765zM71.38 52.373c-.273.15-.62.05-.77-.223-.15-.273-.05-.616.225-.766s.62-.05.77.224c.152.273.05.616-.224.765zM70.745 51.098c-.274.15-.62.05-.77-.223-.15-.273-.05-.616.224-.766s.62-.05.77.223c.15.272.05.616-.225.765zM70.21 49.634c-.275.15-.62.05-.772-.223-.15-.273-.05-.615.226-.765.274-.15.62-.05.77.223s.05.616-.225.766zM69.903 48.28c-.274.148-.62.048-.77-.225-.15-.272-.05-.616.225-.766.274-.15.62-.05.77.223.15.273.05.617-.225.766z"/></g><g><path d="M67.368 53.855c1.277 1.863 2.646 6.452.814 6.857-1.164.145-2.2-4.63-2.477-6.084-.085-.45 1.103-1.26 1.454-1.063.07.093.14.19.208.29zM68.244 54.886c-.274.15-.62.05-.77-.224-.152-.272-.05-.616.224-.766.274-.148.62-.05.77.223.15.273.05.615-.224.766zM68.905 56.146c-.272.15-.62.05-.77-.223-.15-.27-.05-.616.225-.766.273-.148.62-.05.77.224.15.274.05.617-.225.766zM69.315 57.443c-.273.15-.62.05-.77-.224s-.05-.617.225-.766c.273-.15.62-.05.77.223.152.274.05.617-.225.766zM69.552 58.734c-.274.148-.62.05-.77-.224-.15-.272-.05-.616.225-.766.274-.148.62-.05.77.224.15.273.05.617-.225.766zM69.484 60.09c-.274.148-.62.048-.77-.225-.15-.272-.05-.616.225-.765.273-.15.618-.05.77.223.148.274.05.616-.226.766zM68.796 61.308c-.274.15-.62.05-.77-.223-.152-.273-.05-.616.224-.766s.62-.05.77.223c.15.272.05.615-.224.765zM67.554 60.904c-.275.148-.62.05-.77-.224s-.05-.616.224-.765c.275-.15.62-.05.77.223.15.273.05.617-.224.766zM66.917 59.63c-.275.148-.62.048-.77-.225-.15-.272-.052-.615.223-.765.275-.15.62-.05.77.223.15.273.05.616-.223.766zM66.38 58.164c-.274.15-.62.05-.77-.223-.15-.272-.05-.615.224-.765.274-.15.62-.05.77.223.15.273.05.617-.224.766zM66.074 56.81c-.274.15-.62.05-.77-.223-.15-.272-.05-.616.224-.766s.62-.048.77.224c.15.273.05.616-.224.766z"/></g><g><path d="M64.207 57.85c.618 2.168.46 6.95-1.41 6.76-1.148-.226-.612-5.082-.413-6.547.063-.455 1.447-.85 1.72-.554.035.108.07.222.103.34zM64.71 59.1c-.307.057-.603-.147-.66-.452-.056-.307.15-.6.458-.655.307-.057.604.146.66.452.056.306-.15.6-.457.656zM64.938 60.505c-.308.057-.604-.147-.66-.453-.055-.307.148-.6.457-.656.31-.055.604.147.66.454.055.305-.15.6-.457.655zM64.915 61.864c-.31.056-.604-.148-.66-.453-.058-.306.148-.6.456-.655.31-.055.605.147.66.454.06.305-.148.6-.455.654zM64.728 63.162c-.308.056-.604-.147-.66-.453s.15-.602.457-.656c.31-.057.604.147.66.453s-.15.6-.457.655zM64.23 64.427c-.306.056-.602-.147-.66-.454-.054-.305.15-.6.458-.655.31-.056.604.148.66.454.057.305-.148.6-.457.655zM63.192 65.367c-.31.056-.604-.147-.66-.453-.056-.306.148-.6.456-.656.31-.055.604.148.66.454s-.147.6-.456.655zM62.14 64.595c-.308.056-.603-.148-.66-.454s.148-.6.457-.654.605.147.66.453c.055.304-.148.598-.456.655zM61.943 63.185c-.31.056-.604-.147-.66-.454-.056-.304.147-.6.456-.654s.603.148.66.453c.055.305-.15.6-.457.655zM61.9 61.627c-.31.056-.605-.147-.66-.454-.056-.306.147-.6.456-.655s.604.147.66.454c.056.305-.148.6-.457.655zM62.042 60.246c-.31.056-.604-.147-.66-.453-.057-.306.148-.6.456-.655.308-.057.604.147.66.453.056.306-.15.6-.456.656z"/></g><g><path d="M60.767 62.79c.71 2.14.75 6.924-1.123 6.813-1.158-.18-.828-5.052-.69-6.525.044-.457 1.41-.91 1.694-.624.04.108.08.218.12.335zM61.323 64.02c-.306.067-.61-.123-.68-.427-.068-.303.123-.605.428-.674.307-.068.612.122.682.425.067.302-.124.605-.43.674zM61.61 65.412c-.306.068-.61-.122-.68-.426-.07-.303.123-.604.428-.673.306-.07.61.12.68.425s-.123.605-.428.674zM61.643 66.77c-.306.07-.61-.122-.68-.425-.068-.304.124-.605.43-.674.306-.068.61.122.68.427.068.303-.125.605-.43.674zM61.51 68.076c-.304.07-.61-.122-.677-.425-.07-.304.123-.605.43-.674s.607.122.678.426c.07.304-.124.606-.43.674zM61.07 69.36c-.306.067-.61-.123-.68-.427-.07-.303.123-.604.43-.674.306-.07.61.12.677.425.07.303-.12.606-.427.674zM60.07 70.344c-.307.068-.61-.123-.68-.427-.07-.303.124-.605.43-.673.305-.068.61.122.678.425.07.303-.123.604-.43.674zM58.987 69.614c-.306.068-.61-.122-.68-.426-.068-.303.123-.605.428-.674.306-.068.61.122.68.426.068.303-.123.606-.428.674zM58.73 68.214c-.307.068-.612-.123-.68-.425-.07-.304.123-.607.43-.676s.608.123.678.427c.068.304-.124.606-.43.674zM58.62 66.658c-.306.07-.61-.12-.68-.425-.068-.303.124-.604.43-.674.305-.07.61.12.68.425.068.303-.125.605-.43.673zM58.703 65.274c-.306.068-.61-.122-.68-.426-.068-.303.124-.605.43-.674s.61.122.68.426c.068.303-.124.606-.43.674z"/></g><g><path d="M57.487 63.703c-.357 2.226-2.525 6.5-4.142 5.548-.945-.687 1.595-4.866 2.396-6.113.25-.387 1.675-.168 1.794.216-.013.114-.027.23-.047.35zM57.414 65.05c-.304-.078-.486-.386-.407-.688.078-.3.39-.48.692-.404.3.08.483.387.406.688-.08.3-.388.482-.692.404zM57.025 66.42c-.303-.08-.485-.387-.407-.69.078-.3.39-.48.692-.403.302.078.485.387.407.688-.078.3-.388.482-.692.404zM56.43 67.643c-.304-.078-.485-.387-.408-.688.08-.3.39-.482.692-.404.304.08.485.387.407.688-.078.3-.388.483-.69.405zM55.712 68.743c-.305-.078-.486-.387-.408-.688.08-.3.39-.48.69-.404.305.08.487.388.408.69s-.388.48-.69.403zM54.726 69.683c-.302-.078-.485-.387-.406-.687.078-.3.39-.482.69-.404.304.078.485.386.407.687-.077.3-.39.48-.69.403zM53.384 70.103c-.303-.078-.485-.386-.406-.687.078-.3.39-.482.69-.405.304.08.487.388.407.69-.078.3-.388.48-.69.403zM52.757 68.963c-.304-.078-.486-.387-.407-.688.08-.302.39-.482.692-.404.303.078.484.387.407.688-.08.3-.39.482-.693.405zM53.175 67.6c-.304-.077-.487-.385-.407-.687.077-.3.39-.482.69-.404.303.077.486.385.407.687-.078.3-.388.48-.69.404zM53.794 66.168c-.303-.078-.485-.386-.406-.687.077-.3.39-.48.69-.403.303.08.485.387.407.687-.078.3-.388.483-.69.404zM54.505 64.976c-.302-.08-.485-.387-.406-.688.077-.3.39-.482.69-.404.303.077.486.386.408.687-.08.3-.388.484-.693.406z"/></g><g><path d="M58.696 65.174c.105 2.757-1.474 8.402-3.642 7.644-1.302-.602.746-6.225 1.41-7.912.207-.522 1.968-.598 2.204-.166.014.14.02.283.028.434zM58.933 66.808c-.384-.02-.677-.35-.653-.73.02-.38.35-.67.732-.647.382.022.677.35.653.73-.02.377-.35.67-.732.648zM58.794 68.543c-.383-.02-.676-.348-.654-.728.023-.38.352-.672.734-.65.383.022.676.35.654.73s-.35.67-.734.648zM58.372 70.154c-.383-.02-.676-.35-.654-.73s.352-.67.734-.648c.382.02.675.35.653.73s-.35.67-.733.648zM57.773 71.646c-.383-.02-.676-.35-.654-.728.02-.38.35-.672.733-.65.382.022.675.35.653.73-.02.38-.35.67-.733.648zM56.815 73.008c-.383-.02-.676-.348-.654-.73.023-.38.353-.67.735-.648.383.022.676.35.652.73-.02.38-.35.67-.732.648zM55.304 73.83c-.382-.02-.675-.35-.653-.73.024-.38.353-.67.735-.648.382.022.675.35.653.73-.02.38-.35.67-.734.648zM54.277 72.608c-.383-.02-.676-.348-.652-.73.02-.38.35-.67.733-.647.383.022.676.35.652.73-.02.38-.35.67-.733.648zM54.45 70.875c-.38-.02-.674-.35-.652-.73.02-.38.352-.67.734-.648.382.02.675.35.653.73s-.35.67-.734.648zM54.853 69.01c-.383-.023-.676-.35-.654-.73.022-.38.35-.672.733-.65s.676.35.654.73-.352.67-.734.65zM55.42 67.406c-.38-.022-.676-.35-.652-.73.02-.38.352-.67.734-.647.382.02.675.347.653.728-.023.38-.35.67-.734.648z"/></g><g><path d="M46.73 68.936c1.216 2.452 2.08 8.19-.188 8.37-1.422-.02-1.852-5.928-1.938-7.72-.025-.556 1.538-1.328 1.927-1.033.07.12.137.25.2.383zM47.607 70.318c-.354.133-.753-.045-.887-.397s.045-.747.4-.88c.355-.134.753.044.888.396.135.353-.044.75-.4.882zM48.188 71.943c-.354.134-.752-.045-.887-.397s.046-.747.4-.88c.355-.135.755.044.888.396.136.353-.044.748-.4.88zM48.462 73.57c-.356.134-.754-.046-.89-.397-.133-.353.046-.747.402-.88.354-.135.753.043.887.396.135.35-.044.747-.398.88zM48.525 75.16c-.354.133-.753-.046-.887-.398-.135-.353.044-.748.4-.882.354-.133.753.045.887.398.136.352-.045.747-.4.88zM48.212 76.774c-.354.133-.752-.045-.887-.397-.134-.353.045-.747.4-.88s.752.043.888.396c.132.353-.047.748-.4.88zM47.18 78.123c-.355.133-.753-.045-.888-.397-.134-.354.045-.748.4-.88.355-.135.753.043.888.395.134.354-.045.75-.4.883zM45.755 77.43c-.355.133-.754-.045-.887-.398-.135-.352.045-.747.4-.88.354-.134.752.044.887.396.134.352-.045.747-.4.88zM45.208 75.79c-.354.135-.753-.044-.887-.396-.134-.352.046-.748.4-.88.354-.135.753.044.888.396.133.353-.045.747-.4.88zM44.813 73.942c-.355.134-.753-.044-.89-.397-.133-.353.048-.748.402-.88.354-.135.752.043.887.396.135.354-.044.75-.4.882zM44.676 72.266c-.354.134-.753-.045-.887-.397-.137-.354.044-.748.398-.882s.753.044.887.396c.136.352-.045.748-.4.882z"/></g><g><path d="M53.646 67.775c-.657 2.158-3.388 6.1-4.857 4.94-.847-.808 2.24-4.608 3.205-5.735.3-.35 1.68.058 1.747.452-.03.113-.06.226-.096.343zM53.39 69.1c-.29-.118-.428-.448-.31-.735.12-.288.45-.426.74-.308s.43.448.31.735c-.118.288-.45.426-.74.308zM52.82 70.403c-.29-.117-.43-.447-.31-.734.118-.29.45-.427.74-.31s.428.45.31.735c-.12.29-.45.427-.74.308zM52.062 71.536c-.29-.118-.43-.448-.31-.735.118-.286.45-.425.74-.307s.428.448.31.735c-.117.29-.45.426-.74.308zM51.2 72.53c-.29-.118-.428-.448-.31-.735.12-.288.45-.426.74-.308.288.117.427.447.31.735-.12.288-.45.426-.74.308zM50.097 73.33c-.29-.12-.43-.448-.31-.736.118-.288.45-.425.738-.308.29.118.43.447.312.735-.12.29-.452.427-.74.31zM48.708 73.565c-.29-.12-.428-.448-.31-.736.12-.29.452-.427.74-.31.29.12.43.448.31.736-.118.29-.45.427-.74.31zM48.243 72.35c-.29-.117-.43-.448-.31-.734.118-.288.45-.426.74-.308.29.117.428.447.31.735-.117.287-.45.425-.74.307zM48.84 71.058c-.288-.118-.427-.448-.308-.735.117-.288.45-.426.74-.308s.428.447.31.735c-.118.287-.45.426-.74.308zM49.65 69.722c-.288-.117-.43-.447-.31-.735.12-.287.452-.426.74-.307.29.117.43.447.312.734-.12.288-.452.426-.74.308zM50.52 68.635c-.29-.118-.43-.448-.31-.735.118-.287.45-.426.74-.307.29.117.43.446.31.734-.118.288-.45.426-.74.308z"/></g><g><path d="M44.56 70.184c-.656 2.156-3.39 6.1-4.858 4.938-.845-.806 2.24-4.608 3.206-5.736.3-.348 1.68.06 1.747.454-.03.112-.06.225-.096.344zM44.303 71.507c-.288-.118-.427-.448-.31-.735.12-.288.45-.426.74-.308s.43.447.31.735c-.118.286-.45.424-.74.307zM43.732 72.81c-.29-.116-.43-.446-.31-.733.118-.288.45-.426.74-.31.29.12.428.45.31.736-.118.288-.45.426-.74.308zM42.976 73.942c-.29-.117-.43-.447-.313-.734.12-.288.452-.426.742-.307.288.118.43.448.31.735-.118.29-.45.427-.74.307zM42.113 74.938c-.29-.12-.43-.45-.31-.735.118-.29.45-.427.74-.308.29.117.428.447.31.734-.12.287-.452.425-.74.308zM41.01 75.736c-.29-.118-.43-.448-.312-.735.12-.287.45-.425.74-.307.29.117.43.447.31.735-.118.288-.45.426-.74.308zM39.622 75.972c-.29-.117-.43-.448-.31-.735.118-.287.45-.426.74-.308.29.116.43.446.31.734-.118.287-.45.426-.74.308zM39.157 74.757c-.29-.118-.43-.447-.31-.734.118-.29.45-.426.74-.31.29.12.428.45.31.736-.12.287-.452.426-.74.307zM39.755 73.465c-.29-.118-.43-.448-.31-.735.118-.29.452-.426.74-.308.29.117.43.447.31.735-.12.287-.45.426-.74.308zM40.564 72.13c-.29-.118-.43-.448-.31-.736.12-.287.45-.425.74-.308.29.118.43.448.31.735-.117.29-.45.427-.74.31zM41.432 71.042c-.288-.118-.428-.448-.31-.735.12-.288.45-.426.74-.308s.43.447.31.734c-.12.288-.45.426-.74.308z"/></g><g><path d="M39.445 70.253c-1.31 1.842-5.155 4.725-6.183 3.162-.543-1.03 3.596-3.668 4.868-4.436.396-.238 1.575.582 1.513.978-.06.097-.128.195-.198.295zM38.78 71.43c-.237-.203-.264-.56-.06-.796.204-.234.564-.262.8-.06.237.203.266.56.062.796-.205.234-.564.262-.802.06zM37.824 72.487c-.237-.202-.264-.56-.06-.795.205-.234.564-.262.8-.06.237.203.266.56.062.796-.205.236-.564.262-.802.06zM36.745 73.323c-.238-.202-.264-.56-.06-.794.204-.236.564-.264.8-.06.237.2.265.56.062.794-.205.236-.565.262-.802.06zM35.612 73.997c-.238-.203-.265-.56-.06-.795.204-.236.563-.263.8-.06.238.202.265.56.06.794-.204.237-.563.263-.8.06zM34.31 74.408c-.237-.202-.264-.56-.06-.795.205-.235.563-.262.8-.06.238.203.266.56.06.796-.203.234-.562.26-.8.058zM32.92 74.196c-.237-.202-.265-.56-.062-.795.205-.234.564-.26.803-.06.236.204.265.562.06.796-.204.236-.564.263-.8.06zM32.864 72.898c-.238-.203-.265-.56-.06-.795.204-.235.563-.262.8-.06.238.203.265.56.06.796-.204.234-.563.26-.8.058zM33.843 71.86c-.238-.204-.264-.56-.06-.796.204-.235.562-.262.8-.06.237.203.265.56.06.795-.204.236-.563.263-.8.06zM35.036 70.847c-.237-.202-.266-.56-.06-.795.203-.235.562-.262.8-.06.237.203.266.56.06.795s-.563.263-.8.06zM36.205 70.088c-.237-.203-.264-.56-.06-.795.205-.236.563-.263.8-.06.237.202.265.56.062.795-.205.236-.565.262-.802.06z"/></g><g><path d="M33.412 70.703c-1.23 1.894-4.948 4.934-6.04 3.417-.588-1.007 3.436-3.816 4.676-4.636.385-.254 1.598.517 1.553.915-.058.098-.12.2-.188.303zM32.8 71.905c-.245-.192-.287-.548-.092-.792.192-.244.55-.285.795-.093.247.192.29.548.095.792-.195.244-.553.286-.798.093zM31.89 73.003c-.246-.193-.288-.55-.095-.793.194-.243.552-.285.8-.092.244.192.285.547.092.79-.196.245-.55.287-.798.095zM30.847 73.884c-.246-.193-.29-.55-.095-.792.194-.245.552-.285.798-.094.245.193.288.55.094.792-.195.244-.553.286-.797.094zM29.742 74.602c-.247-.192-.288-.547-.095-.79.195-.245.553-.287.798-.094.245.192.288.547.094.792-.195.243-.553.285-.798.092zM28.458 75.067c-.246-.192-.287-.548-.093-.792s.552-.285.797-.093.288.548.095.793c-.195.244-.553.285-.8.092zM27.06 74.914c-.246-.192-.287-.547-.094-.79.195-.245.553-.287.798-.094.245.19.286.547.093.79s-.55.287-.796.094zM26.95 73.62c-.246-.193-.288-.55-.094-.792.193-.244.55-.286.796-.094.247.193.288.55.095.792-.195.245-.553.286-.798.094zM27.884 72.54c-.245-.192-.287-.547-.093-.792.195-.243.553-.284.797-.092.247.192.29.547.094.79-.192.245-.55.287-.796.094zM29.032 71.48c-.244-.194-.288-.55-.094-.793.196-.244.553-.286.8-.093.244.192.286.548.092.79-.194.246-.552.288-.798.095zM30.17 70.672c-.246-.192-.288-.548-.093-.792.193-.243.552-.285.797-.093.245.193.287.548.093.792-.194.243-.55.284-.798.092z"/></g><g><path d="M28.896 67.45c-2.07.92-6.86 1.45-6.94-.41.063-1.163 4.976-1.335 6.466-1.352.46-.004 1.056 1.3.8 1.61-.106.052-.212.102-.326.152zM27.722 68.125c-.1-.294.06-.614.356-.714s.62.06.72.355c.1.295-.06.614-.357.714-.295.1-.618-.06-.718-.355zM26.354 68.552c-.1-.296.062-.615.357-.715.297-.1.62.06.72.354.1.296-.06.615-.356.715-.298.1-.62-.06-.72-.353zM24.997 68.724c-.1-.294.06-.614.357-.714.297-.1.62.06.72.354.098.295-.062.614-.358.714s-.62-.06-.72-.354zM23.677 68.73c-.1-.297.06-.616.356-.716.296-.1.618.06.72.354.1.294-.062.615-.357.714-.298.1-.62-.06-.72-.353zM22.346 68.424c-.1-.296.06-.615.356-.715.296-.1.62.06.72.353.1.296-.062.616-.357.714-.298.1-.62-.06-.72-.353zM21.26 67.537c-.1-.296.058-.615.355-.715.296-.1.618.06.72.354s-.062.614-.357.714c-.298.1-.62-.06-.72-.353zM21.876 66.392c-.1-.295.062-.615.357-.714.296-.1.62.06.72.354.1.295-.06.615-.357.715-.296.098-.618-.06-.72-.355zM23.253 65.994c-.1-.295.06-.615.356-.714.297-.1.62.06.717.354.103.295-.06.615-.355.714-.297.1-.62-.06-.72-.354zM24.8 65.728c-.1-.296.06-.615.355-.715.297-.1.62.06.72.354.1.295-.06.616-.356.714-.298.1-.62-.06-.72-.352zM26.195 65.666c-.1-.294.06-.614.356-.714.297-.1.62.06.72.354s-.06.615-.356.714c-.296.1-.618-.058-.72-.354z"/></g><g><path d="M28.318 69.26c-2.27 1.594-7.893 3.368-8.437 1.15-.204-1.412 5.66-2.783 7.444-3.152.554-.115 1.58 1.31 1.344 1.742-.108.087-.226.172-.35.26zM27.07 70.35c-.192-.33-.076-.753.255-.943.334-.188.76-.074.95.256.19.33.075.752-.257.942-.333.19-.76.074-.95-.256zM25.53 71.184c-.19-.33-.075-.753.256-.942.334-.188.76-.074.95.256.19.33.074.752-.257.942-.333.19-.76.074-.95-.256zM23.94 71.713c-.19-.33-.075-.753.258-.942s.757-.073.948.256c.19.33.075.753-.258.942-.33.19-.756.075-.948-.255zM22.355 72.03c-.19-.33-.075-.753.257-.942.334-.19.76-.075.95.255.19.33.074.753-.26.942s-.755.074-.947-.256zM20.683 71.98c-.19-.33-.074-.754.26-.943.33-.19.756-.075.947.256.19.33.075.752-.258.942-.333.19-.76.074-.95-.256zM19.165 71.17c-.19-.33-.076-.752.256-.94.334-.19.76-.076.95.255.19.33.074.752-.257.942-.332.188-.757.074-.948-.256zM19.634 69.65c-.19-.33-.076-.754.256-.943.333-.19.76-.074.95.256.19.33.075.752-.258.94-.332.192-.757.076-.948-.254zM21.19 68.846c-.19-.33-.076-.752.258-.94.332-.19.758-.076.95.254.188.33.072.753-.26.942-.33.19-.757.074-.948-.256zM22.983 68.16c-.19-.33-.074-.754.257-.943.333-.188.76-.075.948.255.19.33.078.754-.256.942-.332.19-.758.075-.95-.255zM24.646 67.756c-.19-.33-.074-.752.258-.94.33-.19.757-.076.948.254.19.33.075.753-.257.942s-.758.075-.95-.256z"/></g><g><path d="M18.233 60.803c-1.402 2.35-5.77 6.206-7.162 4.418-.757-1.192 3.986-4.78 5.45-5.83.456-.325 1.963.552 1.926 1.036-.064.123-.135.25-.213.377zM17.546 62.287c-.306-.222-.373-.65-.148-.955.222-.305.654-.372.96-.148.308.222.374.65.15.955-.224.302-.654.37-.962.147zM16.493 63.66c-.307-.223-.374-.65-.15-.956.225-.305.655-.372.962-.15.308.224.373.65.15.956-.224.304-.654.37-.962.15zM15.27 64.773c-.306-.222-.374-.65-.148-.955.224-.304.654-.37.96-.148.308.222.376.65.152.955-.226.304-.657.37-.963.148zM13.965 65.695c-.306-.222-.373-.65-.148-.954.222-.304.654-.37.96-.148s.376.65.15.955c-.224.305-.655.37-.962.148zM12.432 66.318c-.306-.222-.373-.65-.15-.954.225-.305.656-.37.963-.15.308.224.374.652.15.956-.224.305-.656.37-.963.148zM10.73 66.196c-.307-.222-.373-.65-.15-.955.225-.303.655-.37.964-.147.305.222.373.65.147.955-.222.305-.652.372-.96.148zM10.536 64.633c-.305-.222-.373-.65-.15-.954s.656-.373.963-.15c.305.222.373.65.15.955s-.656.37-.964.148zM11.62 63.282c-.308-.222-.374-.65-.15-.955.224-.304.653-.37.962-.148.306.22.373.65.15.954s-.656.37-.963.148zM12.962 61.943c-.307-.223-.373-.65-.15-.955s.656-.37.962-.148c.307.222.375.65.15.955-.225.304-.655.37-.962.148zM14.3 60.913c-.305-.222-.372-.65-.148-.954.224-.306.655-.373.962-.15.308.223.374.65.15.955-.224.303-.657.37-.963.148z"/></g><g><path d="M23.364 66.482c-2.18.633-6.997.517-6.822-1.34.22-1.144 5.11-.654 6.59-.47.46.06.87 1.43.572 1.7-.11.04-.223.076-.34.11zM22.106 66.993c-.06-.306.145-.6.45-.66.31-.058.606.144.665.45.06.304-.142.6-.45.658s-.605-.14-.664-.447zM20.694 67.23c-.06-.305.144-.6.452-.658.307-.06.604.142.663.447.06.305-.145.6-.45.66-.308.057-.607-.143-.666-.45zM19.327 67.22c-.06-.305.143-.6.45-.66.307-.058.605.143.664.448s-.144.6-.45.66c-.307.058-.606-.143-.663-.448zM18.018 67.047c-.06-.306.144-.602.45-.66.31-.06.604.144.664.448.06.306-.143.6-.45.66-.308.057-.606-.143-.664-.448zM16.74 66.566c-.06-.306.144-.602.45-.66.31-.06.606.142.663.447.06.305-.142.602-.45.66-.306.06-.604-.142-.663-.447zM15.782 65.54c-.06-.305.145-.6.452-.66s.604.144.663.448c.06.306-.142.603-.45.66-.308.06-.604-.142-.665-.447zM16.552 64.49c-.06-.306.145-.603.45-.66.31-.06.606.143.665.448.06.305-.143.6-.45.66-.307.058-.607-.143-.665-.45zM17.97 64.28c-.06-.305.144-.6.45-.66s.606.144.665.448c.06.306-.143.602-.45.66-.308.06-.605-.14-.665-.447zM19.54 64.224c-.06-.306.143-.6.45-.66.307-.058.605.143.664.448.06.305-.145.602-.452.66-.306.058-.604-.143-.663-.448zM20.93 64.352c-.06-.306.144-.602.45-.66.308-.058.607.144.664.45.06.304-.144.6-.45.658-.308.057-.607-.143-.663-.448z"/></g><g><path d="M16.366 60.24c-2.178.635-6.996.518-6.82-1.34.218-1.143 5.113-.653 6.59-.468.457.06.868 1.43.572 1.7-.11.04-.224.075-.342.11zM15.11 60.752c-.06-.305.144-.6.452-.66.306-.058.604.144.663.45s-.144.6-.45.658c-.308.058-.606-.142-.665-.448zM13.698 60.99c-.06-.305.143-.602.45-.66.308-.058.605.144.664.45s-.142.6-.45.658c-.308.058-.604-.142-.664-.448zM12.33 60.98c-.06-.306.144-.602.45-.66s.604.143.665.447c.06.306-.144.602-.452.66-.306.058-.604-.143-.663-.448zM11.02 60.806c-.06-.306.145-.6.45-.66.31-.058.607.144.666.448.06.306-.144.602-.45.66-.31.06-.607-.144-.665-.448zM9.744 60.324c-.06-.306.144-.6.45-.66s.605.144.664.45c.06.304-.143.6-.45.658-.307.06-.605-.142-.664-.448zM8.786 59.3c-.06-.306.144-.6.452-.66.307-.058.604.144.663.448.062.306-.143.602-.45.66-.306.06-.605-.144-.664-.448zM9.556 58.25c-.06-.306.144-.602.452-.66.307-.06.604.142.663.446.06.306-.143.602-.45.66-.308.06-.606-.142-.664-.447zM10.973 58.04c-.06-.306.144-.6.452-.66.307-.058.604.144.663.448.06.306-.144.6-.45.66s-.607-.143-.665-.448zM12.54 57.983c-.058-.306.145-.6.453-.66.307-.058.604.143.663.448s-.144.602-.45.66c-.307.06-.604-.14-.665-.447zM13.934 58.11c-.06-.305.142-.6.45-.66.307-.058.604.143.663.448s-.142.603-.45.66c-.307.06-.605-.142-.663-.448z"/></g><g><path d="M13.51 56.025c-2.267-.08-6.8-1.703-6.044-3.41.57-1.017 5.06.984 6.4 1.624.418.196.37 1.627.003 1.79-.115.003-.235 0-.36-.005zM12.157 56.118c.042-.31.327-.525.637-.484.312.04.53.325.49.633-.043.308-.328.525-.64.484-.31-.04-.528-.324-.487-.632zM10.74 55.9c.043-.308.328-.524.64-.483.31.04.527.325.487.633-.042.31-.327.524-.638.484s-.53-.325-.49-.634zM9.446 55.46c.04-.308.327-.524.637-.483.312.04.53.325.49.633-.043.31-.328.525-.64.485-.31-.042-.527-.326-.487-.634zM8.26 54.886c.04-.31.327-.525.638-.484.31.04.53.325.487.633-.04.31-.327.525-.638.485-.31-.04-.528-.327-.486-.634zM7.2 54.028c.042-.31.328-.525.64-.484s.526.324.487.634c-.042.307-.327.524-.638.484-.312-.04-.53-.326-.49-.634zM6.62 52.757c.04-.31.326-.526.637-.484.31.04.528.323.486.633-.04.308-.326.525-.637.484-.31-.04-.528-.326-.486-.633zM7.684 52c.042-.308.327-.525.637-.483.313.04.53.324.49.632-.042.308-.328.525-.64.484-.31-.042-.528-.325-.486-.633zM9.095 52.247c.04-.31.327-.525.64-.484.31.04.527.324.486.633-.04.308-.326.525-.637.484-.31-.04-.528-.325-.488-.633zM10.602 52.685c.04-.31.327-.525.637-.485.31.042.53.326.486.634-.04.31-.327.525-.637.484-.312-.042-.53-.325-.488-.633zM11.882 53.242c.04-.308.324-.526.637-.484.31.04.527.325.485.633-.04.31-.326.526-.637.485-.31-.04-.528-.324-.486-.633z"/></g><g><path d="M9.835 51.258c-2.27.01-6.865-1.42-6.184-3.157.53-1.037 5.097.772 6.465 1.355.426.182.44 1.61.08 1.792-.116.007-.237.01-.36.01zM8.487 51.404c.027-.31.304-.538.617-.51.31.027.54.302.513.612-.03.31-.306.538-.616.51-.312-.028-.542-.302-.513-.612zM7.063 51.246c.027-.31.304-.538.615-.51.313.026.543.302.516.61-.028.31-.306.54-.617.512s-.543-.302-.514-.612zM5.75 50.86c.03-.31.307-.538.616-.51.313.028.543.303.516.61-.03.31-.306.54-.617.512s-.54-.302-.514-.612zM4.54 50.335c.03-.31.305-.54.617-.51.312.027.542.302.514.612-.026.31-.304.538-.616.51-.31-.027-.542-.302-.513-.612zM3.447 49.523c.028-.31.304-.54.615-.51.312.027.543.302.514.61-.027.31-.304.54-.615.512-.313-.028-.542-.303-.513-.612zM2.812 48.275c.028-.31.306-.54.617-.51.31.028.54.302.51.612-.026.31-.303.538-.614.51-.31-.027-.544-.302-.514-.612zM3.844 47.477c.028-.31.304-.54.615-.51.31.026.542.302.514.61-.03.31-.305.54-.616.51-.312-.026-.544-.3-.514-.61zM5.264 47.663c.028-.31.304-.538.617-.51.313.028.542.302.515.612-.028.31-.306.54-.617.51-.312-.027-.542-.302-.514-.612zM6.788 48.04c.027-.31.303-.54.616-.512.312.028.542.303.514.612-.03.31-.306.538-.616.51-.313-.027-.542-.3-.514-.61zM8.09 48.543c.027-.31.304-.54.616-.51.312.026.54.3.514.61-.03.31-.306.54-.617.51-.313-.026-.543-.3-.514-.61z"/></g><g><path d="M9.315 46.05c-1.92-1.198-5.03-4.855-3.515-5.957 1.007-.595 3.883 3.364 4.725 4.585.26.38-.5 1.594-.9 1.554-.102-.056-.203-.117-.31-.182zM8.097 45.456c.19-.246.548-.292.797-.103.247.19.294.544.103.79-.19.247-.548.292-.796.104-.247-.19-.293-.544-.103-.79zM6.98 44.564c.192-.246.55-.292.797-.103.25.19.295.546.104.792s-.547.292-.795.102-.294-.543-.104-.79zM6.08 43.54c.192-.246.55-.292.8-.103.247.19.292.544.1.79-.188.247-.547.292-.795.104-.248-.19-.295-.544-.104-.79zM5.345 42.453c.19-.247.55-.293.795-.103.248.19.295.543.104.79-.19.246-.547.292-.796.103-.25-.19-.295-.545-.103-.79zM4.86 41.185c.19-.247.547-.293.795-.103.25.19.293.544.104.79-.192.246-.548.29-.796.103-.25-.19-.295-.544-.104-.79zM4.997 39.793c.19-.246.548-.292.796-.103.248.19.294.545.104.79-.19.247-.548.293-.796.104-.247-.19-.294-.544-.103-.79zM6.3 39.668c.19-.246.548-.293.795-.103.248.19.295.544.104.79-.192.247-.55.292-.797.103-.248-.19-.294-.544-.103-.79zM7.396 40.582c.19-.246.55-.292.798-.103.246.19.293.544.102.79-.19.246-.548.292-.796.103-.247-.19-.293-.544-.104-.79zM8.48 41.71c.19-.246.548-.292.796-.103s.295.545.104.79c-.19.246-.547.293-.796.104-.248-.19-.294-.544-.103-.79zM9.308 42.83c.19-.247.547-.293.796-.104.248.19.294.544.103.79-.19.247-.547.292-.797.104-.247-.19-.294-.545-.102-.79z"/></g><g><path d="M7.48 46.58c-2.596-.986-7.207-4.642-5.652-6.325 1.067-.953 5.472 3.122 6.776 4.392.404.393-.22 2.03-.71 2.078-.136-.044-.272-.093-.413-.146zM5.875 46.153c.17-.34.587-.48.93-.312.345.17.485.585.314.927-.17.34-.588.48-.933.312-.343-.17-.483-.586-.312-.927zM4.32 45.348c.17-.34.587-.48.932-.312.342.17.483.583.313.925-.17.342-.587.48-.93.313-.346-.17-.486-.585-.315-.925zM2.994 44.33c.17-.342.587-.48.932-.313.342.17.483.585.313.926s-.588.48-.932.312c-.345-.17-.485-.584-.314-.926zM1.847 43.197c.17-.34.588-.48.932-.312.34.17.483.585.312.925-.17.342-.587.48-.932.313-.345-.17-.484-.585-.313-.926zM.96 41.79c.17-.342.588-.48.932-.313s.484.583.313.925c-.17.34-.587.48-.932.312-.342-.17-.483-.583-.313-.924zM.792 40.086c.17-.34.588-.48.932-.312.342.17.484.584.313.926-.17.34-.588.48-.932.312-.344-.17-.485-.585-.313-.926zM2.325 39.628c.17-.342.59-.48.93-.313.346.17.485.584.316.925-.17.34-.59.48-.93.312-.344-.17-.485-.583-.315-.924zM3.864 40.467c.17-.342.587-.48.93-.313.344.17.485.584.314.925-.17.34-.588.48-.932.31-.343-.168-.484-.582-.312-.923zM5.436 41.564c.17-.342.587-.48.93-.312.345.17.485.584.314.925-.17.34-.588.48-.932.312s-.484-.585-.312-.926zM6.696 42.712c.17-.34.588-.48.932-.31.344.167.484.582.313.923-.17.34-.587.48-.93.312-.343-.17-.485-.583-.314-.925z"/></g><g><path d="M8.688 34.173c-2.748.15-8.403-1.31-7.682-3.454.58-1.29 6.22.63 7.913 1.256.523.194.625 1.926.2 2.164-.14.014-.285.026-.432.033zM7.062 34.433c.016-.377.337-.67.716-.655.38.016.676.335.66.71-.015.378-.338.672-.716.656-.38-.016-.675-.334-.66-.71zM5.33 34.326c.015-.377.335-.67.714-.655.38.017.676.336.66.712s-.336.67-.715.655c-.382-.016-.677-.334-.66-.71zM3.716 33.937c.016-.376.336-.67.715-.655.38.016.677.334.66.71-.014.38-.336.672-.714.656-.38-.016-.676-.335-.66-.71zM2.218 33.373c.016-.377.337-.67.716-.655.38.015.674.333.66.71-.016.378-.338.67-.716.655-.38-.016-.675-.334-.66-.71zM.845 32.453c.015-.377.336-.67.715-.655.38.017.676.335.66.712-.016.376-.336.67-.715.654-.38-.015-.676-.333-.66-.71zM0 30.98c.017-.377.337-.67.716-.654.38.016.676.334.66.71-.017.377-.338.67-.717.655-.38-.013-.677-.333-.66-.71zM1.202 29.95c.016-.376.336-.67.716-.654.38.016.675.335.66.71-.016.378-.338.67-.718.656-.38-.016-.673-.334-.658-.71zM2.934 30.094c.016-.377.337-.67.716-.655s.676.333.658.71c-.016.377-.336.67-.715.655-.38-.016-.676-.334-.66-.71zM4.802 30.457c.016-.375.336-.67.715-.654.38.016.674.335.658.712-.015.376-.336.67-.715.653-.38-.015-.674-.334-.658-.71zM6.408 30.99c.016-.377.336-.67.716-.654.38.015.676.334.66.71-.016.377-.338.67-.718.655-.378-.014-.673-.333-.658-.71z"/></g><g><path d="M7.05 40.943C5.31 39.5 2.73 35.458 4.38 34.57c1.078-.456 3.39 3.854 4.055 5.178.207.41-.713 1.512-1.104 1.418-.094-.07-.186-.143-.28-.223zM5.924 40.192c.222-.22.583-.217.802.005.22.222.218.58-.006.797-.222.22-.58.217-.802-.005-.22-.22-.218-.58.006-.798zM4.94 39.16c.222-.22.58-.217.802.005.22.22.218.578-.007.797-.222.218-.58.216-.8-.005-.22-.222-.218-.58.005-.798zM4.188 38.023c.222-.22.583-.217.802.005.22.222.22.58-.004.797-.225.22-.584.217-.804-.005s-.216-.58.006-.797zM3.604 36.847c.223-.22.583-.216.804.005.22.22.218.578-.007.798-.22.218-.58.215-.8-.006-.22-.222-.217-.58.004-.797zM3.298 35.524c.222-.217.583-.215.802.006.22.22.218.578-.005.796-.223.22-.582.217-.803-.005-.22-.22-.218-.577.006-.796zM3.623 34.165c.222-.22.583-.216.802.005.22.222.22.58-.004.797-.222.22-.582.217-.803-.005-.22-.222-.216-.58.006-.797zM4.93 34.216c.223-.22.584-.216.803.005.22.223.217.58-.005.8-.224.217-.583.215-.804-.007-.218-.222-.217-.58.007-.797zM5.894 35.27c.223-.218.582-.216.803.006.22.22.218.578-.006.796-.22.22-.58.216-.8-.005s-.22-.58.004-.798zM6.813 36.532c.225-.218.584-.216.804.006.22.22.217.58-.005.797-.224.22-.583.216-.802-.006-.223-.222-.22-.58.003-.798zM7.48 37.752c.224-.22.583-.216.803.006.22.22.216.578-.006.797-.222.218-.583.216-.802-.006-.22-.222-.218-.58.004-.798z"/></g><g><path d="M8.384 31.7c-1.742-1.446-4.322-5.487-2.673-6.375 1.08-.456 3.393 3.854 4.06 5.178.206.41-.715 1.512-1.106 1.418-.094-.07-.186-.142-.28-.22zM7.257 30.947c.223-.22.582-.216.802.005.22.222.218.58-.006.798-.224.218-.583.216-.802-.006-.22-.222-.22-.58.005-.797zM6.272 29.914c.223-.22.583-.216.802.006.22.222.22.578-.005.797-.224.218-.583.216-.804-.006-.218-.22-.215-.577.006-.796zM5.52 28.777c.223-.218.582-.215.803.005.22.223.218.58-.004.798-.226.218-.585.216-.805-.005-.22-.22-.217-.58.006-.798zM4.938 27.6c.223-.217.583-.214.802.006.22.222.218.58-.005.798-.223.218-.582.216-.803-.006-.22-.22-.217-.58.006-.797zM4.632 26.28c.222-.22.583-.217.802.004.22.222.218.58-.006.798-.223.218-.583.216-.802-.006-.22-.222-.218-.578.006-.797zM4.956 24.92c.223-.22.582-.216.803.005.22.222.217.58-.005.798-.225.218-.584.216-.804-.007-.22-.22-.217-.578.006-.796zM6.263 24.97c.223-.218.584-.215.804.006.22.222.218.58-.006.798-.22.218-.58.216-.8-.007-.222-.22-.22-.58.003-.796zM7.228 26.024c.222-.22.58-.216.803.005.22.22.218.578-.005.797-.223.218-.583.215-.804-.006-.218-.22-.217-.577.008-.796zM8.146 27.287c.224-.218.583-.216.804.005.22.223.217.58-.007.798-.222.22-.583.216-.802-.006-.22-.222-.217-.58.006-.797zM8.813 28.507c.224-.22.585-.216.804.005.22.222.217.58-.007.798-.222.218-.583.216-.802-.006s-.217-.58.005-.797z"/></g><g><path d="M10.323 27c-1.19-1.92-2.355-6.562-.507-6.887 1.17-.094 1.99 4.723 2.202 6.187.064.453-1.158 1.21-1.5.998-.066-.095-.13-.194-.195-.3zM9.494 25.933c.28-.137.62-.02.76.257.14.28.022.618-.26.755-.28.138-.62.02-.76-.257-.136-.28-.02-.618.26-.755zM8.888 24.644c.28-.138.623-.02.76.257.14.28.023.618-.258.757-.28.136-.622.02-.76-.258-.14-.28-.023-.62.258-.756zM8.536 23.33c.28-.138.622-.022.76.256.138.28.022.618-.258.755-.28.14-.622.023-.76-.255-.14-.28-.022-.617.258-.755zM8.357 22.03c.28-.137.623-.022.76.257.138.28.023.618-.257.755-.282.138-.623.022-.76-.257-.14-.28-.023-.617.257-.755zM8.487 20.68c.28-.137.62-.02.76.258.138.278.02.616-.26.754-.28.137-.62.022-.76-.257s-.02-.62.26-.754zM9.228 19.492c.28-.138.623-.02.762.257.137.278.02.616-.26.754-.28.137-.623.02-.76-.257-.14-.28-.024-.618.258-.755zM10.452 19.95c.28-.138.623-.02.76.257.14.28.023.618-.258.756-.28.137-.623.02-.76-.258-.138-.278-.023-.618.258-.755zM11.03 21.252c.282-.137.623-.02.76.257.14.278.023.617-.258.754-.28.138-.62.022-.76-.257-.138-.278-.02-.617.26-.755zM11.502 22.74c.28-.138.62-.022.76.256.138.28.022.617-.26.755-.28.138-.62.023-.76-.256-.137-.278-.02-.618.26-.754zM11.747 24.105c.28-.138.62-.02.76.257.138.28.022.617-.26.754-.28.138-.62.022-.76-.257-.138-.28-.02-.618.26-.755z"/></g><g><path d="M12.27 21.313c-1.27-1.866-2.63-6.457-.797-6.86 1.165-.14 2.19 4.636 2.463 6.09.082.45-1.107 1.26-1.457 1.06-.07-.09-.14-.19-.21-.29zM11.398 20.28c.274-.146.62-.046.77.227s.048.616-.227.765c-.273.15-.62.048-.77-.225-.15-.273-.048-.616.228-.766zM10.738 19.02c.274-.148.62-.048.77.225.15.272.05.616-.228.766-.274.148-.618.05-.77-.226-.148-.272-.046-.616.228-.764zM10.33 17.722c.276-.148.62-.048.772.226.15.27.048.615-.23.764-.273.15-.617.05-.77-.225-.147-.274-.045-.617.23-.765zM10.1 16.43c.274-.148.62-.047.77.226.15.273.048.616-.227.765-.274.15-.62.05-.77-.224-.15-.274-.05-.617.226-.765zM10.17 15.075c.275-.148.62-.048.77.226.15.273.05.617-.226.766s-.62.048-.77-.225c-.15-.273-.048-.615.227-.765zM10.86 13.858c.276-.15.62-.048.77.225.15.273.048.616-.226.765-.275.15-.62.048-.77-.225-.15-.273-.048-.616.226-.765zM12.104 14.265c.276-.148.62-.048.77.226.15.274.05.617-.226.765-.275.15-.62.05-.77-.224-.15-.273-.05-.616.226-.765zM12.737 15.542c.274-.148.62-.048.77.226.15.272.048.615-.227.764-.275.15-.62.05-.77-.225-.15-.274-.047-.617.227-.765zM13.27 17.008c.275-.148.62-.048.77.225.15.273.05.616-.226.766-.274.147-.62.047-.77-.227-.15-.273-.05-.617.227-.765zM13.57 18.362c.277-.148.622-.048.772.226.15.272.048.615-.227.765-.275.148-.62.048-.77-.226-.15-.273-.048-.615.226-.765z"/></g><g><path d="M16.27 18.424c-.256-2.24.68-6.933 2.493-6.446 1.095.41-.224 5.113-.658 6.528-.134.438-1.567.606-1.786.27-.02-.113-.034-.23-.05-.352zM15.98 17.108c.31-.006.57.243.576.553.006.313-.244.57-.56.575-.31.006-.57-.243-.575-.553-.006-.31.244-.568.56-.574zM15.98 15.687c.314-.006.573.242.578.554.006.312-.243.568-.556.574-.314.005-.573-.242-.578-.554-.005-.31.245-.57.557-.573zM16.226 14.35c.314-.007.572.24.578.553s-.245.568-.557.573c-.313.006-.572-.243-.578-.554-.006-.31.244-.568.556-.572zM16.622 13.098c.313-.006.572.242.578.553.004.312-.245.57-.56.575-.312.005-.57-.243-.577-.554-.004-.31.246-.566.56-.572zM17.317 11.93c.312-.006.57.243.576.554.007.31-.243.568-.558.573-.312.006-.57-.243-.577-.554s.245-.567.56-.573zM18.497 11.168c.312-.007.572.242.576.553.005.313-.245.57-.557.575-.313.006-.572-.243-.578-.554s.246-.567.56-.572zM19.408 12.1c.313-.005.572.242.577.554.006.31-.244.567-.557.574-.313.004-.572-.243-.578-.555-.004-.31.245-.568.558-.573zM19.374 13.522c.312-.005.572.243.577.554.007.31-.242.567-.556.573s-.572-.243-.578-.554c-.006-.31.246-.568.558-.574zM19.163 15.067c.313-.006.572.242.578.553.006.31-.244.568-.558.573-.313.006-.57-.242-.576-.553-.005-.31.245-.568.557-.573zM18.8 16.406c.312-.005.57.243.578.554.004.31-.246.568-.56.573-.312.007-.57-.242-.576-.553-.006-.31.244-.568.557-.574z"/></g><g><path d="M14.708 17.33c-.846-2.628-.848-8.488 1.446-8.334 1.416.233.96 6.195.776 8-.058.558-1.735 1.098-2.078.746-.05-.133-.096-.267-.144-.412zM14.04 15.82c.375-.082.746.155.826.527.082.372-.155.74-.53.82-.374.08-.746-.155-.826-.528-.082-.37.155-.74.53-.82zM13.704 14.11c.375-.08.745.156.826.528.082.372-.155.74-.53.82-.374.08-.746-.155-.828-.527-.08-.37.157-.74.532-.82zM13.677 12.445c.374-.08.744.156.826.528s-.157.74-.532.82c-.373.082-.744-.155-.825-.527s.157-.74.532-.82zM13.85 10.85c.376-.08.747.156.827.528.082.37-.157.74-.53.82-.376.08-.746-.156-.826-.527-.082-.372.158-.74.53-.82zM14.405 9.282c.373-.08.745.156.827.528.08.37-.157.74-.532.82s-.745-.155-.826-.528c-.082-.37.157-.74.53-.82zM15.64 8.088c.375-.08.744.156.826.527.082.373-.157.74-.532.82-.374.082-.744-.155-.826-.527-.083-.37.157-.74.532-.82zM16.96 8.99c.373-.08.742.156.824.53.082.37-.157.74-.53.82-.375.08-.746-.157-.828-.528-.08-.373.157-.74.534-.82zM17.26 10.708c.374-.08.745.156.825.528.082.372-.157.74-.53.82-.375.082-.746-.155-.828-.527-.08-.373.16-.74.532-.822zM17.376 12.613c.375-.08.746.156.826.527.082.373-.157.74-.53.82-.376.082-.746-.154-.827-.527-.08-.37.156-.74.53-.82zM17.26 14.31c.375-.082.747.154.83.527.08.37-.16.74-.534.82-.374.08-.744-.156-.826-.527-.083-.373.156-.74.53-.82z"/></g><g><path d="M24.574 11.39c-.796-2.618-.698-8.42 1.57-8.23 1.398.254.848 6.15.635 7.933-.068.553-1.737 1.06-2.072.706-.046-.133-.09-.27-.134-.41zM23.938 9.882c.372-.074.735.166.81.536s-.168.73-.54.805c-.373.073-.735-.168-.81-.537-.076-.37.167-.73.54-.804zM23.634 8.184c.37-.074.734.167.81.536.074.37-.168.73-.54.804-.373.074-.735-.166-.81-.536-.075-.37.167-.73.54-.804zM23.634 6.535c.373-.074.735.167.81.537.075.37-.168.73-.54.803-.373.074-.735-.166-.81-.536-.073-.37.168-.732.54-.805zM23.833 4.957c.37-.073.735.167.81.536.073.37-.167.73-.54.805-.373.073-.735-.167-.81-.537-.074-.368.168-.73.54-.803zM24.408 3.414c.373-.073.735.166.81.536.075.37-.168.73-.54.805-.372.073-.735-.167-.81-.537s.168-.73.54-.804zM25.65 2.253c.372-.074.734.166.81.536.073.368-.168.728-.54.803-.372.074-.736-.166-.81-.536s.167-.73.54-.804zM26.94 3.17c.373-.075.735.165.81.535.075.37-.17.73-.54.804-.372.073-.735-.167-.81-.537-.074-.37.168-.73.54-.804zM27.21 4.874c.37-.073.735.167.81.536.074.37-.168.73-.54.805-.373.073-.735-.167-.81-.537-.075-.37.168-.73.54-.804zM27.295 6.762c.37-.074.733.167.808.537.076.368-.166.728-.54.802-.37.074-.733-.166-.81-.535-.073-.37.17-.732.542-.805zM27.15 8.438c.372-.074.736.166.81.536.075.37-.167.73-.54.805-.37.072-.734-.17-.81-.538-.072-.37.17-.73.54-.804z"/></g><g><path d="M18.872 13.48c.05-2.255 1.617-6.78 3.346-6.055 1.033.553-.916 5.038-1.54 6.38-.193.418-1.634.392-1.805.028-.003-.114-.005-.232 0-.354zM18.76 12.136c.313.037.534.317.497.627-.037.308-.318.53-.63.492-.31-.036-.534-.316-.495-.626.035-.31.317-.53.63-.494zM18.958 10.728c.312.035.533.316.498.625-.037.31-.32.53-.63.494-.313-.037-.534-.317-.497-.627.036-.308.317-.53.628-.492zM19.384 9.435c.31.037.533.317.496.626s-.32.53-.63.494c-.312-.036-.534-.316-.497-.626.035-.31.32-.53.63-.493zM19.945 8.248c.312.036.533.316.496.625-.036.31-.318.53-.628.493-.312-.036-.534-.316-.498-.625.038-.308.32-.53.63-.492zM20.793 7.184c.31.037.534.317.497.626-.037.31-.32.53-.63.494-.312-.037-.534-.317-.498-.627.036-.308.32-.53.63-.493zM22.065 6.588c.312.037.533.317.496.626s-.317.53-.628.493c-.312-.036-.533-.317-.498-.626.038-.308.32-.528.63-.492zM22.84 7.634c.313.036.536.317.5.626s-.32.53-.632.494c-.31-.037-.533-.318-.496-.626.037-.31.32-.53.63-.494zM22.614 9.04c.312.035.533.316.496.625-.036.31-.318.53-.63.493-.31-.037-.534-.317-.497-.626s.322-.53.63-.493zM22.194 10.54c.31.037.534.317.497.627-.036.31-.318.53-.628.493-.312-.037-.535-.317-.498-.626s.32-.53.63-.493zM21.652 11.82c.31.035.533.315.496.625-.037.31-.32.53-.63.493s-.534-.317-.497-.626.32-.53.632-.493z"/></g><g><path d="M26.978 8.74c.05-2.253 1.615-6.778 3.346-6.052 1.032.552-.916 5.037-1.54 6.38-.194.416-1.635.39-1.806.027-.004-.115-.005-.232 0-.355zM26.864 7.397c.312.036.533.316.498.626-.037.31-.32.53-.63.493-.31-.036-.534-.317-.497-.626.036-.308.32-.53.63-.493zM27.063 5.988c.31.037.533.318.496.626-.038.31-.32.53-.63.494-.312-.036-.535-.317-.498-.626s.32-.53.63-.494zM27.487 4.696c.31.036.533.317.497.626s-.32.53-.63.493c-.31-.037-.535-.317-.498-.626s.322-.53.63-.494zM28.05 3.51c.31.036.534.316.497.626-.037.31-.32.53-.63.493-.313-.038-.534-.318-.5-.627.04-.31.322-.53.633-.493zM28.897 2.445c.31.037.533.318.498.626-.037.31-.32.532-.633.495-.31-.037-.533-.317-.495-.626.037-.31.32-.53.63-.495zM30.17 1.85c.31.036.533.317.496.626s-.32.53-.63.493-.533-.317-.496-.627c.037-.31.32-.53.63-.493zM30.946 2.896c.312.036.533.317.497.626-.037.31-.32.53-.63.493-.31-.036-.535-.317-.498-.626s.32-.532.63-.494zM30.718 4.3c.313.037.534.317.497.627-.036.31-.32.53-.63.493-.31-.037-.533-.317-.496-.627.036-.308.318-.528.628-.493zM30.3 5.803c.31.036.532.316.496.625-.036.31-.32.53-.63.494-.312-.036-.533-.317-.496-.626.036-.31.32-.53.63-.493zM29.756 7.08c.312.037.534.318.498.627-.038.31-.32.53-.63.494-.313-.036-.534-.316-.497-.626.035-.307.32-.53.63-.493z"/></g><g><path d="M31.886 7.312c.764-2.123 3.688-5.924 5.1-4.693.802.848-2.472 4.49-3.493 5.57-.314.334-1.673-.143-1.72-.54.033-.112.07-.223.113-.338zM32.205 6.002c.283.132.407.47.274.75-.136.28-.474.402-.757.27-.283-.132-.407-.468-.273-.75.133-.28.473-.402.755-.27zM32.842 4.728c.282.132.405.47.272.75-.134.28-.472.402-.755.27-.285-.132-.407-.468-.274-.75s.472-.402.756-.27zM33.654 3.635c.284.132.407.468.273.75-.133.28-.472.4-.755.27s-.405-.468-.272-.75c.133-.28.472-.402.754-.27zM34.567 2.685c.282.132.404.47.27.75-.132.28-.47.402-.755.27-.283-.132-.404-.47-.27-.75s.472-.403.755-.27zM35.708 1.94c.284.133.406.47.273.75s-.47.403-.755.27c-.282-.13-.405-.468-.272-.75.134-.28.472-.4.755-.27zM37.105 1.774c.284.132.405.47.273.75-.135.28-.472.403-.755.27-.283-.132-.406-.468-.272-.75.134-.28.472-.4.755-.27zM37.51 3.01c.284.133.405.47.272.75-.134.282-.472.403-.755.27-.282-.13-.406-.468-.273-.75.134-.28.474-.4.756-.27zM36.847 4.272c.283.132.405.47.273.75-.135.28-.473.402-.756.27-.282-.132-.406-.468-.273-.75.136-.28.474-.4.757-.27zM35.97 5.566c.285.132.408.47.273.75-.132.28-.472.402-.755.27-.282-.132-.405-.468-.27-.75.13-.28.47-.4.753-.27zM35.05 6.608c.282.133.406.47.273.75-.135.282-.473.402-.756.27s-.405-.468-.273-.75c.135-.28.474-.4.756-.27z"/></g><g><path d="M37.423 6.673c.78-2.478 3.96-6.995 5.645-5.646.966.938-2.626 5.29-3.747 6.58-.348.4-1.936-.082-2.007-.538.03-.13.07-.26.11-.397zM37.73 5.15c.333.14.49.522.35.852-.14.33-.522.485-.855.348-.332-.14-.49-.52-.35-.85.14-.33.523-.487.856-.35zM38.4 3.653c.332.14.49.52.35.85-.14.33-.52.487-.854.35s-.49-.522-.352-.85c.14-.33.523-.488.857-.35zM39.284 2.356c.334.14.49.52.35.85-.14.33-.523.487-.855.35-.333-.14-.49-.522-.35-.852.137-.33.522-.486.854-.348zM40.287 1.22c.33.14.49.52.35.85-.14.33-.524.486-.855.348-.333-.138-.49-.52-.35-.85.138-.332.522-.487.855-.348zM41.565.31c.333.138.49.52.352.85-.14.33-.524.486-.857.348-.333-.14-.488-.52-.35-.85.14-.332.522-.488.855-.35zM43.166.05c.333.14.49.52.35.85-.14.33-.522.487-.855.35s-.49-.52-.35-.85c.14-.333.523-.488.856-.35zM43.692 1.454c.33.14.488.52.35.85-.14.33-.524.486-.857.348-.33-.14-.488-.52-.35-.85s.523-.487.857-.348zM42.99 2.938c.332.138.49.52.35.85-.14.33-.523.486-.855.348-.333-.138-.49-.52-.352-.85.14-.33.524-.486.857-.348zM42.045 4.47c.332.138.49.52.35.85-.14.33-.523.485-.856.348-.333-.14-.49-.52-.35-.85.138-.332.522-.488.855-.348zM41.033 5.714c.333.138.49.52.35.85-.138.33-.522.486-.855.348-.33-.14-.488-.52-.35-.85.14-.33.524-.487.855-.348z"/></g><g><path d="M41.32 6.514c1.377-1.79 5.33-4.53 6.296-2.932.505 1.05-3.73 3.534-5.03 4.254-.403.222-1.553-.642-1.476-1.035.067-.094.136-.19.21-.286zM42.028 5.363c.23.212.242.57.03.797s-.573.24-.803.03c-.23-.212-.242-.57-.03-.797.213-.228.573-.24.803-.03zM43.024 4.34c.23.213.242.57.03.798s-.573.24-.803.03c-.228-.212-.243-.57-.028-.797.214-.226.573-.24.802-.03zM44.133 3.545c.23.212.244.57.03.797-.213.228-.572.24-.803.03-.23-.212-.242-.57-.03-.797s.573-.24.803-.03zM45.29 2.915c.23.21.245.57.032.797s-.573.24-.802.03c-.23-.213-.244-.57-.03-.797.212-.228.573-.24.8-.03zM46.608 2.552c.23.212.243.57.03.797-.212.227-.573.24-.802.03-.23-.214-.243-.57-.03-.798.213-.228.572-.24.802-.03zM47.99 2.815c.23.212.243.568.03.797-.213.228-.573.24-.802.03-.23-.213-.243-.57-.03-.797.213-.228.573-.24.802-.03zM47.996 4.115c.23.21.243.568.03.796-.212.23-.573.242-.8.03-.23-.21-.245-.568-.032-.796s.574-.24.802-.03zM46.98 5.116c.228.212.242.57.03.797-.214.23-.573.24-.803.03-.23-.212-.243-.57-.03-.797.213-.228.573-.24.802-.03zM45.75 6.085c.23.21.24.568.028.797-.213.227-.572.24-.802.03-.228-.213-.242-.57-.03-.798.214-.227.574-.24.803-.03zM44.553 6.8c.228.212.242.57.03.796-.214.23-.574.242-.803.03-.23-.21-.244-.568-.03-.796.212-.228.573-.24.803-.03z"/></g><g><path d="M46.58 6.57c1.876-1.27 6.496-2.627 6.906-.81.145 1.157-4.663 2.184-6.13 2.458-.45.085-1.267-1.094-1.07-1.443.094-.07.193-.137.293-.206zM47.616 5.7c.15.27.05.614-.225.764-.273.15-.62.05-.77-.223-.15-.27-.05-.615.226-.765s.62-.048.77.224zM48.886 5.042c.15.272.05.616-.224.766-.274.148-.62.048-.77-.224-.152-.273-.052-.616.224-.766.275-.15.62-.048.77.224zM50.192 4.635c.15.272.05.616-.226.766s-.62.05-.77-.223-.05-.615.224-.765c.275-.15.62-.05.772.223zM51.49 4.4c.15.272.05.616-.224.766-.274.15-.62.05-.77-.224s-.05-.615.224-.765c.275-.15.62-.05.77.223zM52.856 4.47c.15.27.05.615-.225.764-.273.15-.62.05-.77-.223s-.05-.615.226-.765.62-.05.77.224zM54.083 5.15c.15.273.05.617-.224.767s-.62.05-.772-.224-.05-.615.226-.765c.274-.15.62-.05.77.223zM53.676 6.387c.15.272.05.616-.224.766-.274.148-.62.048-.77-.224-.15-.273-.05-.617.225-.767s.62-.05.77.224zM52.393 7.02c.15.27.05.614-.226.764-.273.15-.62.05-.77-.224-.15-.27-.05-.615.225-.765.274-.15.62-.05.77.224zM50.917 7.55c.15.273.05.616-.226.766s-.62.05-.77-.223c-.15-.273-.05-.616.225-.766.276-.15.623-.05.772.224zM49.554 7.854c.15.273.05.616-.225.765-.276.15-.622.05-.772-.224-.15-.272-.05-.616.225-.765.275-.15.62-.05.77.224z"/></g><g><path d="M52.89 8.89c1.822-1.342 6.38-2.894 6.867-1.093.19 1.148-4.568 2.376-6.018 2.71-.452.104-1.315-1.04-1.133-1.397.09-.074.183-.147.284-.22zM53.89 7.98c.16.265.074.612-.193.772s-.617.074-.78-.19-.074-.614.194-.775c.268-.16.617-.074.78.192zM55.13 7.27c.162.266.076.612-.192.773-.267.16-.617.075-.78-.19-.16-.268-.074-.613.194-.774.266-.162.618-.077.778.19zM56.418 6.81c.16.265.075.612-.193.772-.267.16-.616.075-.778-.19-.162-.267-.076-.613.192-.774.265-.16.616-.076.778.19zM57.707 6.52c.16.267.075.613-.192.774-.27.16-.62.075-.78-.19-.16-.267-.076-.614.192-.775.267-.162.618-.076.78.19zM59.07 6.53c.163.268.077.614-.19.775-.268.16-.618.074-.78-.19-.16-.267-.073-.614.193-.775.27-.16.616-.074.778.19zM60.327 7.163c.162.266.075.612-.19.773-.27.16-.62.075-.78-.19-.16-.267-.076-.614.19-.774.27-.16.618-.076.78.19zM59.974 8.413c.162.267.076.613-.192.774-.27.16-.618.075-.78-.19-.16-.267-.074-.613.194-.774.266-.16.616-.076.778.19zM58.717 9.1c.162.265.075.61-.192.772-.27.16-.617.075-.78-.19s-.076-.614.192-.774c.268-.162.618-.076.78.19zM57.266 9.692c.162.266.075.612-.192.773-.27.16-.62.075-.78-.19-.16-.267-.074-.614.192-.774.268-.16.618-.075.78.192zM55.917 10.05c.16.268.073.614-.193.775-.27.16-.618.075-.78-.19-.162-.267-.075-.613.192-.774.268-.16.617-.075.78.19z"/></g><g><path d="M58.196 14.287c.765-2.122 3.688-5.925 5.1-4.693.803.85-2.473 4.492-3.492 5.57-.315.334-1.674-.143-1.723-.54.035-.11.074-.223.116-.337zM58.517 12.978c.283.132.405.468.27.75-.132.28-.47.402-.753.27-.283-.132-.406-.47-.273-.75.136-.28.472-.403.757-.27zM59.15 11.703c.285.132.407.468.274.75s-.472.4-.754.27c-.284-.132-.406-.468-.273-.75.135-.28.473-.402.754-.27zM59.966 10.61c.284.13.406.468.273.75-.136.28-.474.402-.757.27-.282-.132-.405-.47-.27-.75.132-.28.47-.402.753-.27zM60.876 9.66c.283.132.407.468.273.75-.134.28-.474.402-.756.27-.283-.132-.407-.468-.272-.75.133-.282.472-.403.754-.27zM62.02 8.916c.284.133.406.47.272.75-.133.282-.473.403-.755.27-.283-.132-.405-.468-.272-.75.133-.28.47-.402.756-.27zM63.417 8.75c.282.132.404.47.27.75s-.47.402-.753.27c-.283-.13-.405-.467-.273-.748.134-.283.474-.404.757-.272zM63.82 9.985c.285.133.405.47.272.75-.133.282-.472.403-.756.272-.282-.133-.404-.47-.27-.75.132-.282.472-.403.755-.272zM63.158 11.248c.284.132.405.468.27.75-.132.28-.47.402-.753.27-.284-.132-.405-.468-.273-.75.133-.28.472-.402.756-.27zM62.282 12.54c.284.134.406.47.27.75-.132.282-.47.403-.753.272-.283-.132-.407-.47-.274-.75.135-.282.473-.403.756-.27zM61.36 13.584c.283.133.405.47.272.75-.132.28-.472.403-.755.27-.283-.13-.406-.467-.27-.75.132-.28.47-.403.753-.27z"/></g></g><path d="M25.88 41.876c-.864-.78-1.274-1.996-1.288-3.156.014-1.146.424-2.363 1.287-3.142.58-.51 1.43-.877 2.22-.935.524-.028.992.03 1.402.142 1.004.27 1.698.893 2.307 1.358l2.503-2.434c-.24-.425-.933-1.02-1.316-1.316-1.938-1.486-4.696-1.812-7.074-1.146-.383.1-.736.24-1.09.396-1.783.778-2.886 1.91-3.764 3.608-.936 1.796-.936 5.15 0 6.947.877 1.696 1.98 2.83 3.764 3.608.353.155.706.282 1.09.395 2.377.665 5.135.34 7.073-1.146.384-.31 1.076-.89 1.316-1.316l-2.504-2.433c-.61.468-1.304 1.09-2.308 1.36-.41.11-.878.17-1.402.14-.79-.055-1.64-.437-2.22-.93zm21.932-8.618c-.536-1.033-1.372-1.7-2.32-2.038-2.137-.778-4.853.057-6.255 1.896v-1.91H34.95v14.957h4.287v-8.9c0-1.373 1.118-2.506 2.49-2.506 1.373 0 2.505 1.133 2.505 2.505v8.915h4.288v-8.943c0-1.372 1.132-2.504 2.505-2.504 1.372 0 2.49 1.132 2.49 2.504v8.943H57.8V36.3c0-2.985-1.568-4.557-3.506-5.08-1.952-.523-4.29.028-5.774 1.302-.27.226-.496.466-.708.736z" fill="#fff"/></g></svg>