<svg xmlns="http://www.w3.org/2000/svg" width="78.167" height="78.167" viewBox="0 0 78.167 78.167"><g><g fill="#007BB5"><path d="M56.39 9.454c16.216 9.353 21.733 30.016 12.315 46.122C59.288 71.68 38.48 77.16 22.263 67.808 6.046 58.454.528 37.79 9.946 21.686 19.366 5.58 40.17.1 56.39 9.454z"/><g><path d="M59.898 14.094c2.262-.187 6.958.886 6.412 2.67-.447 1.076-5.14-.377-6.55-.852-.438-.15-.564-1.574-.217-1.78.114-.015.233-.028.355-.038zM61.23 13.843c-.003.31-.26.56-.573.557-.313-.004-.564-.26-.56-.57.003-.312.26-.562.575-.558.31.004.563.26.558.57zM62.663 13.892c-.004.31-.262.56-.575.556s-.564-.26-.56-.57.26-.562.573-.558c.315.004.566.26.563.572zM64.002 14.175c-.005.312-.263.56-.575.557-.312-.004-.564-.26-.56-.57.004-.313.262-.562.575-.558.31.004.565.26.56.57zM65.25 14.605c-.005.312-.263.56-.576.557-.313-.004-.564-.26-.56-.57.003-.312.262-.562.574-.557.315.003.565.26.56.57zM66.403 15.33c-.004.312-.263.56-.574.557-.314-.004-.565-.26-.563-.57.005-.312.263-.562.575-.558.314.004.565.26.56.57zM67.134 16.525c-.003.312-.262.56-.575.557s-.564-.26-.56-.57c.003-.313.26-.562.574-.558s.565.26.56.57zM66.17 17.4c-.005.312-.264.562-.577.558-.313-.003-.564-.26-.56-.57.003-.312.263-.56.574-.557.315.005.565.26.562.57zM64.737 17.324c-.005.31-.262.56-.575.557-.313-.003-.564-.26-.56-.57.003-.312.262-.56.573-.557.316.005.565.26.562.57zM63.188 17.068c-.004.31-.262.56-.574.557-.313-.004-.564-.26-.56-.57.004-.312.262-.562.575-.557.312.003.562.26.558.57zM61.853 16.665c-.005.312-.263.56-.576.557-.313-.004-.564-.26-.56-.57.005-.31.26-.56.575-.557.312.004.563.26.56.57z"/></g><g><path d="M60.075 13.937c2.673-.76 8.57-.583 8.345 1.688-.277 1.4-6.266.765-8.074.527-.56-.074-1.054-1.756-.687-2.086.134-.045.273-.088.415-.13zM61.618 13.32c.068.373-.18.734-.557.803-.376.07-.74-.18-.81-.553s.18-.735.557-.804c.378-.07.74.18.81.553zM63.35 13.037c.067.375-.18.736-.56.805-.375.07-.74-.18-.81-.553-.068-.376.182-.737.558-.806.377-.068.74.18.812.553zM65.024 13.062c.07.374-.18.735-.556.803-.378.07-.74-.178-.81-.553-.07-.374.18-.735.556-.804.38-.07.74.18.81.554zM66.625 13.283c.07.375-.18.735-.556.804s-.74-.178-.812-.553c-.07-.374.18-.735.56-.804.375-.07.74.18.807.553zM68.187 13.882c.07.374-.18.734-.557.804-.377.07-.74-.18-.81-.553-.07-.374.18-.735.558-.804.376-.07.738.178.81.552zM69.352 15.143c.07.375-.18.735-.56.804-.375.07-.74-.18-.81-.553s.182-.735.558-.804c.377-.07.74.18.812.553zM68.4 16.425c.07.374-.18.735-.556.804-.378.068-.74-.18-.81-.554-.07-.375.18-.735.556-.804s.74.18.81.553zM66.663 16.67c.07.374-.18.735-.557.804-.376.07-.74-.18-.81-.553s.18-.734.557-.803c.377-.07.74.18.81.553zM64.743 16.73c.07.373-.18.734-.558.803-.376.07-.74-.178-.81-.552-.07-.374.18-.734.557-.804.38-.07.74.178.81.553zM63.04 16.562c.07.375-.18.735-.557.805-.377.07-.74-.18-.81-.553-.07-.375.18-.735.556-.805.376-.07.74.178.81.552z"/></g><g><path d="M67.146 25.76c2.107-1.757 7.513-3.958 8.23-1.813.318 1.376-5.354 3.2-7.087 3.71-.537.156-1.668-1.168-1.47-1.612.103-.095.212-.19.326-.284zM68.29 24.585c.215.31.135.736-.18.95-.31.214-.74.135-.955-.176-.216-.31-.136-.737.178-.95.313-.214.74-.135.956.175zM69.74 23.637c.216.31.136.737-.176.95-.315.215-.743.135-.958-.175-.216-.31-.136-.737.178-.95.312-.213.74-.135.956.175zM71.267 22.988c.215.31.136.737-.178.95-.314.215-.742.136-.958-.175-.215-.31-.136-.737.178-.95.312-.214.74-.135.957.175zM72.804 22.547c.217.31.137.736-.177.95-.312.214-.742.136-.956-.175-.215-.31-.135-.736.177-.95.312-.215.743-.135.957.175zM74.46 22.463c.215.31.135.737-.18.95-.312.214-.74.136-.955-.175-.216-.31-.137-.736.176-.95.314-.215.743-.136.96.175zM76.024 23.137c.214.31.136.737-.178.95-.312.215-.742.136-.956-.175-.216-.31-.136-.736.176-.95.314-.214.744-.135.958.175zM75.687 24.677c.215.31.134.737-.18.95-.31.214-.74.136-.955-.175-.217-.31-.136-.737.177-.95.31-.214.74-.135.957.175zM74.214 25.596c.216.31.136.736-.176.95-.313.214-.742.135-.958-.175-.216-.31-.136-.736.178-.95.312-.214.74-.135.956.176zM72.5 26.418c.215.31.136.736-.177.95-.313.214-.742.135-.958-.176-.214-.31-.136-.737.178-.95.312-.214.74-.135.958.176zM70.894 26.95c.215.31.136.736-.178.95-.313.214-.74.135-.957-.176-.216-.31-.137-.736.176-.95.313-.214.742-.135.958.175z"/></g><g><path d="M65.487 17.75c2.267.117 6.772 1.812 5.99 3.506-.59 1.007-5.042-1.063-6.376-1.725-.412-.204-.342-1.633.028-1.792.117 0 .235.005.36.01zM66.843 17.68c-.047.307-.337.52-.646.474-.31-.045-.523-.333-.477-.64.046-.308.336-.52.645-.474.31.044.524.332.478.64zM68.253 17.92c-.046.307-.334.52-.645.474-.31-.046-.523-.334-.478-.64.046-.31.336-.522.646-.476.31.046.524.334.477.64zM69.543 18.38c-.047.308-.337.52-.646.474-.31-.046-.524-.333-.477-.64.046-.31.335-.52.645-.475.31.046.524.333.478.64zM70.72 18.975c-.047.308-.337.52-.646.474-.31-.047-.523-.334-.477-.642.046-.308.334-.52.645-.475.31.047.524.334.478.642zM71.763 19.85c-.046.306-.334.52-.645.473-.31-.045-.523-.333-.478-.64.046-.308.336-.52.646-.475.31.045.524.333.477.64zM72.325 21.13c-.047.307-.337.52-.646.474-.31-.046-.525-.333-.48-.64.047-.31.337-.52.646-.474.31.045.525.333.48.64zM71.248 21.87c-.046.307-.335.52-.645.472-.31-.045-.524-.333-.478-.64.046-.308.336-.52.646-.475.31.047.524.335.478.642zM69.842 21.6c-.048.307-.336.52-.646.473-.31-.045-.522-.333-.476-.64.046-.308.334-.52.645-.475.31.047.523.334.477.642zM68.343 21.137c-.046.308-.336.52-.646.474-.31-.044-.522-.332-.477-.64.047-.308.335-.52.645-.474.31.047.525.334.478.64zM67.072 20.56c-.046.307-.337.52-.645.474-.312-.045-.524-.333-.48-.64.048-.308.338-.52.646-.475.31.044.525.332.48.64z"/></g><g><path d="M69.848 27.416c2.266.12 6.773 1.813 5.988 3.507-.587 1.006-5.04-1.064-6.374-1.726-.413-.206-.344-1.633.026-1.793.116 0 .236.006.36.012zM71.202 27.347c-.047.308-.336.52-.645.474-.31-.045-.524-.332-.48-.64.048-.308.337-.52.646-.474.31.045.525.333.48.64zM72.614 27.585c-.046.31-.336.52-.646.475-.31-.046-.523-.333-.476-.64.046-.31.334-.52.645-.475.307.046.524.334.477.64zM73.9 28.047c-.046.308-.335.52-.645.474-.31-.045-.524-.332-.478-.64.046-.307.336-.52.646-.475.31.047.524.336.477.642zM75.08 28.64c-.048.31-.337.522-.646.476-.31-.046-.524-.334-.48-.642.048-.308.337-.52.646-.474.31.047.525.334.48.64zM76.124 29.516c-.046.307-.336.52-.646.474-.31-.046-.522-.333-.477-.64.047-.308.336-.52.646-.474.31.044.525.332.478.64zM76.685 30.797c-.047.308-.335.52-.645.474-.31-.045-.525-.332-.477-.64.044-.308.334-.52.645-.475.31.047.523.335.477.642zM75.607 31.536c-.046.307-.334.52-.645.474-.31-.045-.524-.333-.478-.64.046-.308.336-.52.646-.475.31.045.525.333.477.64zM74.2 31.267c-.045.308-.335.52-.645.474-.31-.045-.524-.332-.477-.64.046-.308.334-.52.645-.474.31.046.524.334.477.64zM72.702 30.804c-.046.308-.336.52-.646.475-.308-.047-.522-.334-.476-.642.046-.308.334-.52.646-.475.308.046.523.334.476.64zM71.432 30.227c-.046.308-.336.52-.646.474-.31-.045-.523-.333-.477-.64.045-.308.333-.52.644-.474.31.045.524.333.478.64z"/></g><g><path d="M70.605 29.933c2.114.824 5.85 3.845 4.567 5.207-.88.77-4.445-2.59-5.5-3.637-.326-.323.195-1.657.596-1.69.11.033.223.075.337.12zM71.914 30.292c-.144.277-.483.388-.765.248-.278-.14-.392-.48-.25-.758.143-.277.485-.39.765-.248.278.14.39.48.25.758zM73.176 30.962c-.142.277-.484.388-.762.248-.28-.14-.392-.48-.25-.758s.484-.39.764-.248.39.48.248.758zM74.252 31.803c-.142.277-.483.388-.763.248s-.392-.48-.25-.757c.143-.278.483-.39.763-.248.28.142.39.48.25.758zM75.18 32.737c-.14.276-.483.39-.763.247s-.39-.48-.25-.758c.143-.277.484-.388.764-.248.28.142.39.48.25.76zM75.894 33.893c-.143.277-.484.39-.764.248s-.39-.48-.248-.757c.142-.277.484-.39.762-.248.28.14.39.48.25.758zM76.02 35.286c-.144.277-.485.388-.765.248-.28-.142-.39-.482-.248-.76.14-.276.482-.388.762-.246.278.14.39.48.25.758zM74.76 35.65c-.14.275-.483.388-.762.246-.28-.14-.39-.48-.25-.758.144-.277.485-.388.763-.247.282.142.393.482.25.76zM73.512 34.952c-.142.277-.483.39-.763.248s-.392-.48-.25-.758c.14-.277.484-.388.763-.248.28.14.39.48.25.758zM72.237 34.043c-.143.277-.483.388-.764.248-.28-.14-.39-.48-.248-.758.142-.277.482-.39.762-.247.28.14.392.48.25.758zM71.216 33.096c-.142.277-.484.39-.764.248-.28-.142-.392-.48-.25-.758.143-.278.484-.39.764-.248.28.14.39.48.25.758z"/></g><g><path d="M72.483 35.643c2.145.734 6.007 3.596 4.782 5.012-.845.807-4.55-2.405-5.647-3.405-.34-.31.123-1.665.524-1.716.112.03.226.07.34.11zM73.805 35.947c-.13.283-.467.408-.752.28-.284-.13-.41-.465-.28-.747.13-.283.467-.408.752-.28.283.13.41.465.28.747zM75.096 36.564c-.13.282-.468.407-.753.278-.285-.128-.41-.463-.28-.746.13-.283.468-.408.75-.28.286.13.413.466.283.748zM76.206 37.36c-.13.283-.467.408-.752.28-.286-.13-.41-.466-.28-.747.13-.283.466-.408.75-.28.285.13.412.465.282.747zM77.17 38.253c-.128.282-.466.407-.75.278-.284-.127-.41-.462-.28-.745.13-.283.466-.408.75-.28s.413.466.28.748zM77.934 39.38c-.13.282-.468.407-.75.278-.286-.13-.413-.464-.282-.747.13-.28.466-.406.75-.277.286.13.41.463.282.746zM78.116 40.766c-.13.283-.467.407-.752.278-.283-.13-.41-.463-.28-.746.13-.283.467-.41.752-.28.284.13.41.465.28.748zM76.877 41.18c-.13.284-.468.41-.753.28-.283-.13-.41-.465-.28-.747.13-.283.468-.408.753-.28.283.13.41.464.28.748zM75.6 40.536c-.13.283-.468.41-.752.28-.285-.13-.412-.465-.28-.747.13-.285.465-.41.75-.28s.41.464.28.746zM74.286 39.68c-.13.284-.467.41-.752.28-.284-.13-.41-.464-.28-.747.13-.283.468-.408.752-.28.283.13.41.466.28.748zM73.227 38.778c-.13.28-.467.408-.753.28-.285-.13-.41-.466-.28-.75.13-.28.468-.405.75-.278.285.13.412.465.283.748z"/></g><g><path d="M70.425 39.797c1.518 1.677 3.5 6.038 1.74 6.688-1.133.297-2.81-4.293-3.282-5.695-.146-.436.92-1.398 1.295-1.25.082.082.164.168.247.257zM71.432 40.702c-.25.185-.607.13-.794-.118s-.133-.603.12-.79c.25-.185.606-.132.793.118.185.25.133.605-.118.79zM72.26 41.862c-.25.186-.607.132-.794-.118-.187-.25-.133-.604.12-.788.25-.185.606-.133.79.118.187.25.135.603-.116.788zM72.843 43.093c-.253.185-.607.13-.794-.12s-.136-.602.117-.786c.252-.186.607-.133.793.117.188.25.134.603-.117.79zM73.253 44.34c-.252.184-.607.13-.796-.118-.185-.25-.132-.604.12-.79.25-.184.607-.132.793.118.187.25.135.603-.117.79zM73.37 45.69c-.253.185-.607.132-.794-.117-.187-.25-.134-.604.118-.79.252-.184.607-.132.793.118.187.25.135.605-.117.79zM72.854 46.99c-.252.186-.607.133-.795-.116-.187-.25-.134-.604.117-.79.252-.185.61-.132.794.118.19.25.134.604-.116.79zM71.567 46.758c-.25.185-.607.132-.794-.118s-.133-.604.118-.788c.253-.185.608-.132.796.117.185.25.133.603-.12.788zM70.763 45.58c-.252.185-.607.132-.793-.118-.187-.25-.134-.604.12-.788.25-.185.606-.133.79.118.187.25.136.603-.117.787zM70.03 44.2c-.25.186-.606.133-.793-.117-.186-.25-.133-.604.12-.79.25-.183.606-.13.793.12s.132.604-.12.787zM69.544 42.9c-.25.185-.607.132-.794-.118-.185-.25-.133-.604.118-.788.252-.187.608-.132.795.117.187.25.133.606-.12.79z"/></g><g><path d="M72.335 39.79c2.226 1.653 5.654 6.42 3.695 7.618-1.29.627-4.404-4.49-5.308-6.064-.28-.487.77-1.895 1.257-1.805.117.075.234.16.355.25zM73.764 40.634c-.26.282-.7.303-.982.047-.284-.255-.306-.693-.046-.974.256-.28.696-.303.98-.047.283.255.305.693.048.974zM75.036 41.832c-.258.282-.7.304-.98.048-.285-.258-.307-.694-.05-.977.26-.28.7-.302.98-.046.287.257.307.694.05.975zM76.03 43.173c-.258.28-.697.302-.98.046-.284-.258-.306-.694-.048-.976.26-.282.698-.304.982-.048.284.257.305.694.046.977zM76.823 44.57c-.26.284-.7.305-.982.048-.283-.256-.305-.692-.046-.975.258-.28.697-.303.98-.047.285.257.307.694.05.975zM77.287 46.168c-.258.28-.698.303-.982.047-.284-.257-.304-.694-.046-.976s.697-.304.98-.048c.284.257.305.694.047.976zM76.98 47.853c-.258.28-.698.302-.982.045-.284-.256-.304-.692-.046-.975.257-.28.696-.302.98-.045.284.256.305.692.048.975zM75.378 47.876c-.258.282-.697.303-.98.047-.284-.256-.306-.693-.048-.976.257-.28.698-.302.982-.046.283.257.305.695.046.976zM74.13 46.65c-.257.283-.698.304-.98.048-.285-.256-.307-.693-.048-.975.258-.282.697-.303.98-.047.284.257.306.694.047.975zM72.92 45.168c-.256.282-.697.303-.98.047-.284-.256-.306-.693-.047-.976.256-.282.697-.304.98-.047.284.256.306.693.048.975zM72.024 43.722c-.258.28-.7.303-.982.046-.284-.255-.305-.692-.047-.975.258-.28.697-.302.98-.046.285.256.306.693.05.975z"/></g><g><path d="M67.76 51.394c2.682.604 7.72 3.543 6.434 5.41-.91 1.084-5.808-2.297-7.263-3.358-.45-.33-.073-2.023.403-2.137.137.02.28.05.426.084zM69.392 51.586c-.12.358-.51.554-.87.435-.36-.116-.557-.503-.438-.86.118-.36.51-.555.87-.437.36.118.557.505.438.863zM71.03 52.16c-.12.357-.51.553-.87.435-.36-.118-.558-.504-.44-.863.12-.357.51-.553.87-.436.362.12.557.506.44.863zM72.473 52.973c-.117.357-.507.553-.868.435-.36-.117-.557-.504-.44-.863.12-.357.51-.553.87-.436.36.118.556.504.438.863zM73.76 53.922c-.12.358-.51.553-.87.436-.36-.118-.558-.505-.44-.862.12-.358.51-.555.87-.436.36.117.556.503.44.862zM74.826 55.18c-.12.357-.508.554-.868.435-.36-.118-.557-.504-.438-.863.12-.357.508-.553.868-.435.36.117.558.504.438.862zM75.233 56.825c-.12.357-.51.553-.87.436-.36-.118-.557-.505-.438-.862.12-.358.51-.554.87-.437.36.12.557.506.438.865zM73.793 57.49c-.117.356-.508.552-.868.433-.36-.117-.557-.504-.438-.863.12-.357.51-.553.868-.436.36.12.558.506.438.865zM72.167 56.88c-.118.36-.51.555-.87.436-.358-.117-.556-.504-.437-.86.12-.36.51-.555.87-.437.36.116.556.502.437.86zM70.47 56.023c-.117.358-.508.554-.867.437-.36-.12-.56-.506-.44-.864.12-.358.51-.553.87-.435.36.118.558.506.438.863zM69.072 55.074c-.118.358-.51.554-.868.437-.36-.118-.56-.505-.44-.863s.51-.553.87-.435c.36.117.556.505.438.862z"/></g><g><path d="M71.197 45.325c1.276 1.863 2.646 6.45.813 6.857-1.163.146-2.198-4.63-2.475-6.082-.085-.452 1.103-1.262 1.454-1.064.07.092.138.188.207.29zM72.07 46.355c-.27.15-.618.05-.77-.224-.148-.27-.048-.614.227-.765.274-.148.62-.05.77.224.15.272.05.616-.226.765zM72.735 47.616c-.275.15-.62.05-.77-.223-.15-.272-.05-.615.224-.766.274-.15.62-.05.77.223s.05.616-.225.766zM73.146 48.913c-.275.15-.62.05-.77-.223-.15-.272-.05-.615.224-.766.275-.15.62-.05.77.225.15.27.05.615-.224.763zM73.38 50.204c-.273.148-.62.05-.77-.223-.15-.272-.05-.616.225-.765.274-.15.62-.05.77.223.15.273.05.616-.224.766zM73.313 51.56c-.276.148-.622.05-.77-.225-.152-.272-.05-.615.224-.766.275-.15.62-.05.77.224.15.27.05.615-.224.766zM72.624 52.777c-.273.15-.62.05-.77-.223s-.05-.615.225-.765c.274-.15.62-.052.77.222.15.272.05.616-.226.765zM71.38 52.374c-.273.148-.62.05-.77-.224-.15-.272-.05-.616.225-.766s.62-.05.77.224c.152.273.05.616-.224.766zM70.745 51.1c-.274.147-.62.048-.77-.225-.15-.272-.05-.616.224-.766s.62-.05.77.223c.15.272.05.616-.225.766zM70.21 49.634c-.275.15-.62.05-.772-.223-.15-.272-.05-.615.226-.765.274-.15.62-.05.77.223.15.274.05.616-.225.766zM69.903 48.28c-.274.148-.62.05-.77-.225-.15-.272-.05-.615.225-.766.274-.15.62-.05.77.224.15.272.05.616-.225.765z"/></g><g><path d="M67.368 53.856c1.277 1.863 2.646 6.45.814 6.857-1.164.143-2.2-4.63-2.477-6.084-.085-.452 1.103-1.26 1.454-1.064.07.093.14.19.208.29zM68.244 54.886c-.274.15-.62.05-.77-.223-.152-.273-.05-.617.224-.766.274-.15.62-.05.77.223.15.273.05.615-.224.766zM68.905 56.146c-.272.15-.62.05-.77-.223s-.05-.615.225-.766c.273-.148.62-.05.77.225.15.272.05.615-.225.764zM69.315 57.444c-.273.148-.62.05-.77-.225s-.05-.616.225-.765c.273-.15.62-.05.77.223.152.272.05.616-.225.766zM69.552 58.735c-.274.148-.62.05-.77-.225-.15-.273-.05-.615.225-.766.274-.148.62-.05.77.223.15.274.05.618-.225.768zM69.484 60.09c-.274.147-.62.048-.77-.224-.15-.273-.05-.617.225-.766.273-.15.618-.05.77.223.148.274.05.617-.226.766zM68.796 61.308c-.274.148-.62.05-.77-.223-.152-.273-.05-.617.224-.766s.62-.05.77.222c.15.273.05.617-.224.766zM67.554 60.903c-.275.15-.62.05-.77-.223s-.05-.615.224-.766c.275-.148.62-.05.77.223.15.274.05.618-.224.766zM66.917 59.628c-.275.15-.62.05-.77-.223-.15-.27-.052-.615.223-.766.275-.15.62-.05.77.222.15.274.05.617-.223.766zM66.38 58.163c-.274.15-.62.05-.77-.223-.15-.27-.05-.615.224-.766.274-.148.62-.05.77.223.15.274.05.618-.224.766zM66.074 56.81c-.274.15-.62.05-.77-.223-.15-.273-.05-.615.224-.766.274-.148.62-.048.77.224.15.273.05.617-.224.766z"/></g><g><path d="M64.207 57.85c.618 2.167.46 6.95-1.41 6.76-1.148-.226-.612-5.08-.413-6.548.063-.453 1.447-.85 1.72-.553.035.108.07.22.103.34zM64.71 59.1c-.307.056-.603-.147-.66-.452-.056-.307.15-.6.458-.656.307-.055.604.148.66.453.056.306-.15.6-.457.656zM64.938 60.505c-.308.057-.604-.146-.66-.453-.055-.307.148-.6.457-.656.31-.055.604.148.66.453.055.305-.15.598-.457.655zM64.915 61.864c-.31.055-.604-.148-.66-.453-.058-.306.148-.6.456-.655.31-.055.605.148.66.453.06.307-.148.602-.455.656zM64.728 63.163c-.308.055-.604-.148-.66-.453-.055-.307.15-.602.457-.656.31-.057.604.146.66.453s-.15.6-.457.656zM64.23 64.427c-.306.057-.602-.148-.66-.453-.054-.307.15-.6.458-.656.31-.055.604.148.66.455.057.304-.148.597-.457.654zM63.192 65.366c-.31.057-.604-.146-.66-.45-.056-.308.148-.603.456-.657.31-.058.604.147.66.452.056.307-.147.6-.456.654zM62.14 64.595c-.308.055-.603-.148-.66-.455-.055-.305.148-.598.457-.654s.605.148.66.453c.055.305-.148.598-.456.655zM61.943 63.185c-.31.057-.604-.148-.66-.453-.056-.307.147-.6.456-.656.308-.055.603.148.66.453.055.305-.15.598-.457.655zM61.9 61.626c-.31.057-.605-.146-.66-.453-.056-.307.147-.6.456-.654.31-.058.604.145.66.452.056.304-.148.6-.457.654zM62.042 60.247c-.31.055-.604-.148-.66-.453-.057-.307.148-.602.456-.656.308-.057.604.146.66.453.056.306-.15.6-.456.657z"/></g><g><path d="M60.767 62.79c.71 2.14.75 6.924-1.123 6.813-1.158-.18-.828-5.05-.69-6.525.044-.455 1.41-.91 1.694-.623.04.107.08.218.12.335zM61.323 64.02c-.306.067-.61-.122-.68-.427-.068-.303.123-.605.428-.674.307-.07.612.122.682.425.067.302-.124.605-.43.674zM61.61 65.41c-.306.07-.61-.12-.68-.425-.07-.303.123-.604.428-.672.306-.07.61.12.68.426.068.302-.123.603-.428.67zM61.643 66.77c-.306.07-.61-.12-.68-.425-.068-.303.124-.605.43-.674s.61.124.68.427c.068.302-.125.605-.43.674zM61.51 68.075c-.304.07-.61-.12-.677-.424-.07-.304.123-.606.43-.673.305-.068.607.12.678.424.07.306-.124.61-.43.675zM61.07 69.36c-.306.068-.61-.123-.68-.426-.07-.303.123-.605.43-.674.306-.068.61.12.677.426.07.303-.12.604-.427.674zM60.07 70.343c-.307.068-.61-.12-.68-.426-.07-.303.124-.605.43-.674.305-.068.61.123.678.426.07.302-.123.604-.43.673zM58.987 69.614c-.306.068-.61-.12-.68-.426-.068-.303.123-.605.428-.674.306-.068.61.12.68.426.068.303-.123.606-.428.674zM58.73 68.214c-.307.068-.612-.123-.68-.426-.07-.303.123-.605.43-.674s.608.123.678.426c.068.303-.124.606-.43.674zM58.62 66.66c-.306.067-.61-.124-.68-.427s.124-.605.43-.674c.305-.07.61.12.68.425.068.303-.125.606-.43.674zM58.703 65.274c-.306.068-.61-.123-.68-.426-.068-.303.124-.605.43-.674s.61.12.68.426c.068.303-.124.606-.43.674z"/></g><g><path d="M57.487 63.702c-.357 2.227-2.525 6.5-4.142 5.55-.945-.69 1.595-4.868 2.396-6.114.25-.387 1.675-.168 1.794.215-.013.113-.027.23-.047.35zM57.414 65.05c-.304-.078-.486-.387-.407-.688.078-.3.39-.48.692-.404.3.078.483.387.406.688-.08.3-.388.482-.692.404zM57.025 66.42c-.303-.08-.485-.386-.407-.69.078-.3.39-.48.692-.403s.485.387.407.688c-.078.3-.388.482-.692.404zM56.43 67.642c-.304-.076-.485-.385-.408-.686.08-.3.39-.482.692-.406.304.08.485.387.407.688-.078.302-.388.482-.69.404zM55.712 68.743c-.305-.078-.486-.387-.408-.688.08-.3.39-.482.69-.404.305.08.487.388.408.69s-.388.48-.69.403zM54.726 69.683c-.302-.078-.485-.387-.406-.688.078-.3.39-.48.69-.404.304.08.485.388.407.69-.077.3-.39.48-.69.403zM53.384 70.103c-.303-.078-.485-.387-.406-.688.078-.3.39-.48.69-.404.304.08.487.388.407.69-.078.3-.388.48-.69.403zM52.757 68.962c-.304-.078-.486-.385-.407-.686.08-.303.39-.484.692-.406.303.078.484.387.407.688-.08.3-.39.482-.693.404zM53.175 67.6c-.304-.077-.487-.386-.407-.687.077-.3.39-.482.69-.404.303.077.486.384.407.687-.078.3-.388.482-.69.404zM53.794 66.17c-.303-.08-.485-.388-.406-.69.077-.3.39-.48.69-.403.303.078.485.387.407.688s-.388.482-.69.404zM54.505 64.976c-.302-.078-.485-.387-.406-.688.077-.3.39-.482.69-.404.303.078.486.387.408.688-.08.3-.388.482-.693.404z"/></g><g><path d="M58.696 65.173c.105 2.758-1.474 8.404-3.642 7.645-1.302-.602.746-6.225 1.41-7.912.207-.523 1.968-.598 2.204-.166.014.14.02.282.028.433zM58.933 66.808c-.384-.02-.677-.35-.653-.73.02-.38.35-.67.732-.648.382.02.677.35.653.73-.02.378-.35.67-.732.648zM58.794 68.544c-.383-.023-.676-.35-.654-.73.023-.38.352-.67.734-.65.383.024.676.35.654.73-.02.38-.35.67-.734.65zM58.372 70.155c-.383-.02-.676-.35-.654-.73.02-.38.352-.67.734-.65.382.022.675.35.653.73s-.35.672-.733.65zM57.773 71.646c-.383-.02-.676-.348-.654-.73.02-.378.35-.67.733-.647.382.02.675.347.653.728s-.35.67-.733.648zM56.815 73.01c-.383-.022-.676-.35-.654-.73.023-.38.353-.672.735-.65s.676.35.652.73c-.02.38-.35.67-.732.65zM55.304 73.83c-.382-.02-.675-.35-.653-.73.024-.378.353-.67.735-.647.382.023.675.35.653.73s-.35.67-.734.648zM54.277 72.608c-.383-.02-.676-.348-.652-.73.02-.378.35-.67.733-.647.383.022.676.35.652.73-.02.38-.35.672-.733.648zM54.45 70.874c-.38-.02-.674-.348-.652-.73.02-.378.352-.67.734-.647.382.02.675.348.653.73s-.35.67-.734.647zM54.853 69.01c-.383-.022-.676-.35-.654-.73.022-.38.35-.672.733-.65.383.023.676.35.654.73-.022.38-.352.67-.734.65zM55.42 67.407c-.38-.023-.676-.35-.652-.73.02-.38.352-.67.734-.648.382.02.675.347.653.728-.023.378-.35.67-.734.65z"/></g><g><path d="M46.73 68.935c1.216 2.453 2.08 8.19-.188 8.37-1.422-.02-1.852-5.927-1.938-7.718-.025-.557 1.538-1.33 1.927-1.033.07.12.137.248.2.38zM47.607 70.317c-.354.135-.753-.045-.887-.396s.045-.747.4-.88c.355-.135.753.045.888.396.135.352-.044.75-.4.88zM48.188 71.944c-.354.133-.752-.045-.887-.398s.046-.748.4-.88c.355-.134.755.044.888.395.136.355-.044.75-.4.884zM48.462 73.57c-.356.134-.754-.046-.89-.397-.133-.354.046-.748.402-.88.354-.136.753.042.887.395s-.044.75-.398.88zM48.525 75.16c-.354.132-.753-.046-.887-.4-.135-.35.044-.745.4-.88.354-.133.753.045.887.398.136.352-.045.746-.4.88zM48.212 76.774c-.354.133-.752-.045-.887-.396-.134-.354.045-.748.4-.88.353-.136.752.042.888.395.132.352-.047.75-.4.88zM47.18 78.122c-.355.135-.753-.045-.888-.396-.134-.354.045-.748.4-.88.355-.136.753.044.888.395.134.353-.045.75-.4.882zM45.755 77.43c-.355.134-.754-.044-.887-.397-.135-.354.045-.748.4-.883.354-.13.752.045.887.398.134.353-.045.748-.4.88zM45.208 75.79c-.354.135-.753-.043-.887-.396-.134-.352.046-.748.4-.88s.753.044.888.395c.133.353-.045.747-.4.88zM44.813 73.942c-.355.133-.753-.045-.89-.398-.133-.352.048-.746.402-.88.354-.134.752.044.887.397.135.353-.044.75-.4.882zM44.676 72.267c-.354.133-.753-.045-.887-.398-.137-.355.044-.75.398-.882s.753.043.887.396c.136.353-.045.748-.4.883z"/></g><g><path d="M53.646 67.776c-.657 2.156-3.388 6.1-4.857 4.94-.847-.81 2.24-4.61 3.205-5.737.3-.35 1.68.058 1.747.452-.03.114-.06.225-.096.344zM53.39 69.1c-.29-.118-.428-.448-.31-.735.12-.287.45-.426.74-.31.29.12.43.45.31.737-.118.287-.45.426-.74.31zM52.82 70.403c-.29-.117-.43-.447-.31-.734.118-.288.45-.427.74-.31.29.12.428.45.31.736-.12.288-.45.426-.74.307zM52.062 71.536c-.29-.117-.43-.447-.31-.736.118-.285.45-.424.74-.307.29.12.428.447.31.736-.117.287-.45.423-.74.306zM51.2 72.53c-.29-.117-.428-.447-.31-.736.12-.287.45-.426.74-.307.288.117.427.447.31.734-.12.29-.45.427-.74.31zM50.097 73.33c-.29-.118-.43-.448-.31-.737.118-.287.45-.424.738-.307.29.12.43.447.312.734-.12.29-.452.426-.74.31zM48.708 73.565c-.29-.12-.428-.45-.31-.736.12-.29.452-.427.74-.308.29.117.43.447.31.734-.118.288-.45.427-.74.31zM48.243 72.35c-.29-.116-.43-.448-.31-.735.118-.287.45-.426.74-.307.29.117.428.447.31.734-.117.29-.45.426-.74.31zM48.84 71.058c-.288-.117-.427-.447-.308-.736.117-.287.45-.426.74-.307s.428.447.31.734c-.118.286-.45.425-.74.308zM49.65 69.722c-.288-.117-.43-.447-.31-.734.12-.29.452-.426.74-.31.29.118.43.448.312.737-.12.287-.452.426-.74.307zM50.52 68.636c-.29-.12-.43-.45-.31-.736.118-.287.45-.426.74-.307.29.117.43.447.31.734-.118.287-.45.426-.74.31z"/></g><g><path d="M44.56 70.185c-.656 2.154-3.39 6.098-4.858 4.938-.845-.807 2.24-4.607 3.206-5.736.3-.348 1.68.06 1.747.455-.03.11-.06.223-.096.343zM44.303 71.507c-.288-.12-.427-.447-.31-.736.12-.286.45-.423.74-.306.29.117.43.447.31.736-.118.285-.45.424-.74.307zM43.732 72.812c-.29-.12-.43-.45-.31-.736.118-.287.45-.424.74-.307s.428.446.31.733-.45.426-.74.31zM42.976 73.942c-.29-.117-.43-.447-.313-.734.12-.287.452-.426.742-.307.288.118.43.448.31.735-.118.288-.45.427-.74.307zM42.113 74.937c-.29-.117-.43-.447-.31-.734.118-.29.45-.426.74-.31.29.12.428.448.31.737-.12.287-.452.424-.74.307zM41.01 75.735c-.29-.117-.43-.447-.312-.734.12-.286.45-.425.74-.308.29.12.43.45.31.736s-.45.426-.74.307zM39.622 75.972c-.29-.117-.43-.45-.31-.736.118-.287.45-.424.74-.307s.43.446.31.733c-.118.29-.45.426-.74.31zM39.157 74.757c-.29-.117-.43-.447-.31-.734.118-.29.45-.426.74-.31.29.12.428.45.31.737-.12.287-.452.426-.74.307zM39.755 73.464c-.29-.117-.43-.447-.31-.734.118-.29.452-.426.74-.31.29.12.43.448.31.737-.12.287-.45.426-.74.307zM40.564 72.13c-.29-.12-.43-.45-.31-.736s.45-.424.74-.307.43.447.31.734c-.117.288-.45.427-.74.31zM41.432 71.042c-.288-.117-.428-.447-.31-.736.12-.287.45-.426.74-.307.29.116.43.446.31.735-.12.287-.45.424-.74.307z"/></g><g><path d="M39.445 70.253c-1.31 1.842-5.155 4.725-6.183 3.162-.543-1.03 3.596-3.668 4.868-4.436.396-.24 1.575.58 1.513.978-.06.098-.128.195-.198.295zM38.78 71.43c-.237-.204-.264-.56-.06-.796.204-.234.564-.262.8-.06.237.204.266.56.062.796-.205.234-.564.262-.802.06zM37.824 72.487c-.237-.203-.264-.56-.06-.795.205-.234.564-.262.8-.06.237.204.266.56.062.796-.205.235-.564.262-.802.06zM36.745 73.323c-.238-.203-.264-.56-.06-.793.204-.236.564-.264.8-.06.237.202.265.558.062.794-.205.237-.565.262-.802.06zM35.612 73.997c-.238-.203-.265-.56-.06-.795.204-.236.563-.262.8-.06.238.202.265.56.06.794-.204.237-.563.264-.8.06zM34.31 74.41c-.237-.204-.264-.562-.06-.796.205-.236.563-.264.8-.06.238.202.266.558.06.794-.203.237-.562.262-.8.06zM32.92 74.196c-.237-.203-.265-.56-.062-.795.205-.233.564-.26.803-.058.236.2.265.56.06.795-.204.235-.564.262-.8.06zM32.864 72.897c-.238-.203-.265-.56-.06-.793.204-.236.563-.264.8-.06.238.202.265.558.06.794-.204.237-.563.263-.8.06zM33.843 71.858c-.238-.2-.264-.56-.06-.795.204-.234.562-.26.8-.06.237.204.265.56.06.796-.204.236-.563.262-.8.058zM35.036 70.847c-.237-.203-.266-.56-.06-.795.203-.236.562-.262.8-.06s.266.56.06.794c-.204.236-.563.264-.8.06zM36.205 70.087c-.237-.203-.264-.56-.06-.795.205-.236.563-.262.8-.06s.265.56.062.796c-.205.235-.565.262-.802.06z"/></g><g><path d="M33.412 70.704c-1.23 1.893-4.948 4.934-6.04 3.416-.588-1.008 3.436-3.816 4.676-4.635.385-.254 1.598.516 1.553.914-.058.1-.12.2-.188.304zM32.8 71.905c-.245-.193-.287-.55-.092-.793.192-.242.55-.285.795-.092.247.193.29.55.095.79-.195.246-.553.287-.798.095zM31.89 73.003c-.246-.193-.288-.55-.095-.793.194-.244.552-.285.8-.092.244.19.285.547.092.79-.196.245-.55.286-.798.095zM30.847 73.884c-.246-.193-.29-.55-.095-.793s.552-.284.798-.09c.245.19.288.546.094.79s-.553.285-.797.094zM29.742 74.603c-.247-.193-.288-.55-.095-.793.195-.242.553-.285.798-.092s.288.547.094.79-.553.286-.798.095zM28.458 75.067c-.246-.193-.287-.55-.093-.79.194-.245.552-.286.797-.095.245.193.288.55.095.793-.195.245-.553.284-.8.092zM27.06 74.915c-.246-.193-.287-.55-.094-.79.195-.247.553-.288.798-.095.245.19.286.547.093.79s-.55.286-.796.095zM26.95 73.62c-.246-.193-.288-.55-.094-.793.193-.242.55-.285.796-.092.247.193.288.547.095.79-.195.246-.553.287-.798.095zM27.884 72.54c-.245-.193-.287-.547-.093-.79s.553-.286.797-.095c.247.193.29.55.094.793-.192.242-.55.285-.796.092zM29.032 71.48c-.244-.194-.288-.55-.094-.794.196-.244.553-.285.8-.092.244.19.286.547.092.79s-.552.29-.798.095zM30.17 70.673c-.246-.193-.288-.55-.093-.793.193-.244.552-.285.797-.092.245.19.287.547.093.79-.194.245-.55.286-.798.095z"/></g><g><path d="M28.896 67.45c-2.07.92-6.86 1.45-6.94-.41.063-1.164 4.976-1.336 6.466-1.352.46-.004 1.056 1.3.8 1.61-.106.05-.212.1-.326.152zM27.722 68.126c-.1-.295.06-.615.356-.715s.62.06.72.356c.1.293-.06.613-.357.713-.295.1-.618-.06-.718-.354zM26.354 68.552c-.1-.295.062-.615.357-.715s.62.06.72.355c.1.293-.06.613-.356.713-.298.1-.62-.06-.72-.353zM24.997 68.724c-.1-.295.06-.615.357-.713.297-.1.62.06.72.355.098.295-.062.615-.358.715-.297.097-.62-.06-.72-.356zM23.677 68.728c-.1-.295.06-.615.356-.715.296-.1.618.06.72.355s-.062.615-.357.713c-.298.1-.62-.058-.72-.352zM22.346 68.423c-.1-.295.06-.615.356-.715.296-.098.62.06.72.355.1.295-.062.615-.357.713-.298.1-.62-.058-.72-.353zM21.26 67.536c-.1-.295.058-.615.355-.715.296-.097.618.062.72.356s-.062.615-.357.715c-.298.1-.62-.06-.72-.354zM21.876 66.392c-.1-.295.062-.615.357-.713.296-.1.62.058.72.35.1.298-.06.616-.357.716-.296.1-.618-.06-.72-.354zM23.253 65.993c-.1-.293.06-.615.356-.713.297-.1.62.06.717.354.103.295-.06.615-.355.715s-.62-.062-.72-.357zM24.8 65.728c-.1-.295.06-.615.355-.715.297-.1.62.06.72.354.1.295-.06.615-.356.715-.298.1-.62-.06-.72-.354zM26.195 65.667c-.1-.295.06-.615.356-.715.297-.1.62.06.72.355.1.293-.06.613-.356.713-.296.1-.618-.058-.72-.353z"/></g><g><path d="M28.318 69.26c-2.27 1.595-7.893 3.368-8.437 1.15-.204-1.413 5.66-2.782 7.444-3.153.554-.113 1.58 1.31 1.344 1.742-.108.087-.226.173-.35.26zM27.07 70.35c-.192-.33-.076-.753.255-.942.334-.19.76-.076.95.254.19.33.075.754-.257.943-.333.19-.76.074-.95-.256zM25.53 71.185c-.19-.33-.075-.754.256-.943.334-.188.76-.074.95.256.19.33.074.752-.257.94-.333.19-.76.077-.95-.253zM23.94 71.712c-.19-.33-.075-.752.258-.94s.757-.075.948.255c.19.33.075.752-.258.94-.33.19-.756.075-.948-.255zM22.355 72.03c-.19-.33-.075-.754.257-.943.334-.188.76-.074.95.256.19.33.074.752-.26.94-.33.193-.755.077-.947-.253zM20.683 71.978c-.19-.33-.074-.752.26-.94.33-.19.756-.075.947.255.19.33.075.752-.258.94s-.76.075-.95-.255zM19.165 71.17c-.19-.33-.076-.753.256-.94.334-.19.76-.076.95.256.19.33.074.752-.257.94-.332.19-.757.075-.948-.255zM19.634 69.65c-.19-.33-.076-.753.256-.942.333-.19.76-.076.95.256.19.33.075.752-.258.94-.332.19-.757.075-.948-.255zM21.19 68.847c-.19-.33-.076-.754.258-.943.332-.188.758-.074.95.256.188.33.072.754-.26.94-.33.19-.757.077-.948-.253zM22.983 68.16c-.19-.33-.074-.753.257-.942.333-.19.76-.076.948.254.19.332.078.754-.256.943-.332.19-.758.074-.95-.256zM24.646 67.755c-.19-.33-.074-.75.258-.94.33-.19.757-.075.948.255.19.33.075.752-.257.943-.332.19-.758.074-.95-.258z"/></g><g><path d="M18.233 60.802c-1.402 2.352-5.77 6.207-7.162 4.418-.757-1.193 3.986-4.78 5.45-5.83.456-.326 1.963.553 1.926 1.037-.064.12-.135.248-.213.375zM17.546 62.288c-.306-.223-.373-.652-.148-.955.222-.305.654-.373.96-.15s.374.652.15.955c-.224.304-.654.37-.962.15zM16.493 63.66c-.307-.224-.374-.65-.15-.956.225-.305.655-.37.962-.148.308.22.373.648.15.953-.224.303-.654.372-.962.15zM15.27 64.772c-.306-.22-.374-.648-.148-.953.224-.306.654-.374.96-.15.308.222.376.65.152.954-.226.305-.657.373-.963.148zM13.965 65.696c-.306-.223-.373-.65-.148-.955.222-.304.654-.37.96-.15.308.224.376.65.15.956-.224.305-.655.373-.962.15zM12.432 66.32c-.306-.224-.373-.653-.15-.956.225-.305.656-.37.963-.15.308.223.374.652.15.955-.224.304-.656.372-.963.15zM10.73 66.196c-.307-.22-.373-.65-.15-.955.225-.302.655-.37.964-.147.305.223.373.65.147.955-.222.305-.652.37-.96.148zM10.536 64.634c-.305-.223-.373-.65-.15-.955s.656-.372.963-.15c.305.222.373.65.15.954s-.656.37-.964.15zM11.62 63.282c-.308-.22-.374-.65-.15-.955s.653-.37.962-.148c.306.222.373.65.15.954s-.656.37-.963.148zM12.962 61.944c-.307-.225-.373-.652-.15-.957.225-.303.656-.37.962-.148.307.222.375.65.15.954-.225.305-.655.37-.962.15zM14.3 60.913c-.305-.223-.372-.65-.148-.955s.655-.37.962-.148c.308.223.374.65.15.955-.224.304-.657.37-.963.148z"/></g><g><path d="M23.364 66.48c-2.18.634-6.997.52-6.822-1.337.22-1.145 5.11-.656 6.59-.47.46.058.87 1.43.572 1.7-.11.038-.223.075-.34.108zM22.106 66.993c-.06-.305.145-.602.45-.66.31-.06.606.145.665.45s-.142.6-.45.657-.605-.142-.664-.447zM20.694 67.23c-.06-.304.144-.6.452-.66.307-.058.604.144.663.448.06.307-.145.602-.45.66-.308.06-.607-.142-.666-.447zM19.327 67.22c-.06-.305.143-.6.45-.658.307-.06.605.14.664.447.06.304-.144.6-.45.657-.307.06-.606-.143-.663-.447zM18.018 67.046c-.06-.305.144-.6.45-.66.31-.057.604.145.664.45.06.304-.143.6-.45.66-.308.056-.606-.143-.664-.45zM16.74 66.565c-.06-.305.144-.602.45-.66.31-.06.606.143.663.447.06.307-.142.602-.45.66-.306.06-.604-.14-.663-.447zM15.782 65.54c-.06-.305.145-.6.452-.658s.604.14.663.447c.06.304-.142.6-.45.66s-.604-.143-.665-.45zM16.552 64.49c-.06-.306.145-.603.45-.66.31-.058.606.144.665.448s-.143.602-.45.66c-.307.06-.607-.144-.665-.45zM17.97 64.282c-.06-.307.144-.602.45-.66s.606.14.665.447c.06.304-.143.6-.45.66-.308.058-.605-.143-.665-.448zM19.54 64.224c-.06-.305.143-.602.45-.66.307-.06.605.143.664.447.06.308-.145.603-.452.66-.306.06-.604-.142-.663-.446zM20.93 64.35c-.06-.304.144-.6.45-.657.308-.06.607.143.664.447.06.305-.144.602-.45.66-.308.056-.607-.143-.663-.45z"/></g><g><path d="M16.366 60.24c-2.178.634-6.996.517-6.82-1.34.218-1.142 5.113-.653 6.59-.468.457.06.868 1.43.572 1.7-.11.04-.224.076-.342.11zM15.11 60.753c-.06-.307.144-.602.452-.66.306-.06.604.143.663.447.06.307-.144.602-.45.66-.308.06-.606-.142-.665-.447zM13.698 60.99c-.06-.306.143-.6.45-.66.308-.058.605.144.664.448.06.307-.142.602-.45.66s-.604-.142-.664-.447zM12.33 60.98c-.06-.308.144-.603.45-.66s.604.142.665.446c.06.305-.144.602-.452.66-.306.06-.604-.142-.663-.447zM11.02 60.806c-.06-.305.145-.602.45-.66.31-.06.607.143.666.45.06.304-.144.6-.45.657-.31.06-.607-.143-.665-.447zM9.744 60.325c-.06-.307.144-.602.45-.66s.605.143.664.447c.06.307-.143.602-.45.66-.307.06-.605-.142-.664-.447zM8.786 59.3c-.06-.305.144-.602.452-.66.307-.057.604.143.663.45.062.304-.143.6-.45.657-.306.06-.605-.143-.664-.447zM9.556 58.25c-.06-.306.144-.603.452-.66.307-.06.604.142.663.446.06.307-.143.602-.45.66-.308.06-.606-.142-.664-.447zM10.973 58.04c-.06-.307.144-.602.452-.66.307-.06.604.143.663.45.06.304-.144.6-.45.657s-.607-.142-.665-.447zM12.54 57.983c-.058-.305.145-.602.453-.66.307-.06.604.143.663.447.06.307-.144.602-.45.66s-.604-.142-.665-.447zM13.934 58.11c-.06-.305.142-.6.45-.658.307-.06.604.14.663.447.06.304-.142.6-.45.657-.307.06-.605-.142-.663-.447z"/></g><g><path d="M13.51 56.026c-2.267-.082-6.8-1.703-6.044-3.41.57-1.018 5.06.983 6.4 1.623.418.196.37 1.627.003 1.79-.115.004-.235 0-.36-.004zM12.157 56.118c.042-.31.327-.525.637-.484.312.04.53.325.49.633-.043.31-.328.525-.64.484-.31-.04-.528-.323-.487-.632zM10.74 55.9c.043-.308.328-.524.64-.483.31.04.527.325.487.633-.042.31-.327.525-.638.484s-.53-.324-.49-.633zM9.446 55.462c.04-.31.327-.526.637-.484.312.04.53.324.49.632-.043.31-.328.526-.64.485-.31-.042-.527-.326-.487-.633zM8.26 54.886c.04-.31.327-.525.638-.484.31.04.53.325.487.633-.04.31-.327.525-.638.485-.31-.04-.528-.326-.486-.634zM7.2 54.028c.042-.31.328-.525.64-.484s.526.324.487.634c-.042.307-.327.524-.638.484-.312-.04-.53-.325-.49-.634zM6.62 52.757c.04-.31.326-.525.637-.484.31.04.528.324.486.633-.04.308-.326.525-.637.484-.31-.04-.528-.326-.486-.633zM7.684 52c.042-.308.327-.524.637-.483.313.04.53.324.49.633-.042.31-.328.525-.64.484s-.528-.325-.486-.633zM9.095 52.247c.04-.31.327-.525.64-.484.31.04.527.324.486.633-.04.31-.326.525-.637.484-.31-.04-.528-.325-.488-.633zM10.602 52.685c.04-.31.327-.525.637-.484.31.042.53.327.486.634-.04.31-.327.525-.637.484-.312-.042-.53-.325-.488-.633zM11.882 53.242c.04-.308.324-.526.637-.483.31.04.527.323.485.632-.04.31-.326.525-.637.484-.31-.04-.528-.325-.486-.634z"/></g><g><path d="M9.835 51.258c-2.27.01-6.865-1.42-6.184-3.157.53-1.037 5.097.772 6.465 1.355.426.182.44 1.61.08 1.792-.116.007-.237.01-.36.01zM8.487 51.405c.027-.31.304-.54.617-.51.31.027.54.3.513.61-.03.31-.306.54-.616.51-.312-.026-.542-.3-.513-.61zM7.063 51.246c.027-.31.304-.538.615-.51.313.026.543.302.516.61-.028.31-.306.54-.617.512-.31-.027-.543-.302-.514-.612zM5.75 50.86c.03-.31.307-.538.616-.51.313.028.543.303.516.61-.03.31-.306.54-.617.512s-.54-.302-.514-.612zM4.54 50.335c.03-.31.305-.54.617-.51.312.027.542.303.514.612-.026.31-.304.538-.616.51-.31-.027-.542-.302-.513-.612zM3.447 49.523c.028-.31.304-.54.615-.51.312.027.543.302.514.612-.027.31-.304.537-.615.51-.313-.028-.542-.302-.513-.612zM2.812 48.276c.028-.31.306-.54.617-.51s.54.3.51.61c-.026.31-.303.54-.614.51-.31-.026-.544-.3-.514-.61zM3.844 47.477c.028-.31.304-.538.615-.51s.542.302.514.61c-.03.31-.305.54-.616.512s-.544-.304-.514-.613zM5.264 47.663c.028-.31.304-.538.617-.51.313.028.542.303.515.612-.028.31-.306.54-.617.51s-.542-.3-.514-.612zM6.788 48.04c.027-.31.303-.54.616-.512.312.028.542.303.514.613-.03.31-.306.538-.616.51-.313-.027-.542-.3-.514-.61zM8.09 48.543c.027-.31.304-.54.616-.51.312.026.54.302.514.61-.03.31-.306.54-.617.512-.313-.027-.543-.302-.514-.612z"/></g><g><path d="M9.315 46.05c-1.92-1.198-5.03-4.855-3.515-5.957 1.007-.595 3.883 3.365 4.725 4.586.26.377-.5 1.593-.9 1.552-.102-.055-.203-.117-.31-.182zM8.097 45.456c.19-.246.548-.292.797-.103.247.19.294.544.103.79-.19.247-.548.293-.796.104-.247-.19-.293-.544-.103-.79zM6.98 44.565c.192-.246.55-.293.797-.104.25.19.295.546.104.792s-.547.292-.795.102-.294-.542-.104-.79zM6.08 43.54c.192-.246.55-.292.8-.103.247.19.292.544.1.79-.188.247-.547.293-.795.104-.248-.19-.295-.544-.104-.79zM5.345 42.453c.19-.247.55-.293.795-.103.248.19.295.543.104.79-.19.246-.547.292-.796.103-.25-.19-.295-.545-.103-.79zM4.86 41.185c.19-.246.547-.293.795-.103.25.19.293.544.104.79-.192.246-.548.29-.796.104-.25-.192-.295-.545-.104-.79zM4.997 39.793c.19-.246.548-.293.796-.104.248.19.294.544.104.79-.19.247-.548.293-.796.104-.247-.19-.294-.544-.103-.79zM6.3 39.667c.19-.246.548-.292.795-.103.248.19.295.545.104.79-.192.248-.55.293-.797.104-.248-.19-.294-.544-.103-.79zM7.396 40.583c.19-.246.55-.293.798-.104.246.19.293.544.102.79-.19.246-.548.293-.796.104-.247-.19-.293-.545-.104-.79zM8.48 41.71c.19-.246.548-.292.796-.102s.295.544.104.79c-.19.245-.547.292-.796.103-.248-.188-.294-.544-.103-.79zM9.308 42.83c.19-.247.547-.293.796-.104.248.19.294.544.103.79-.19.247-.547.293-.797.104-.247-.19-.294-.545-.102-.79z"/></g><g><path d="M7.48 46.58c-2.596-.985-7.207-4.642-5.652-6.325 1.067-.954 5.472 3.123 6.776 4.392.404.393-.22 2.032-.71 2.078-.136-.044-.272-.093-.413-.146zM5.875 46.153c.17-.34.587-.48.93-.31s.485.583.314.924c-.17.34-.588.48-.933.312-.343-.17-.483-.585-.312-.927zM4.32 45.348c.17-.34.587-.48.932-.312.342.17.483.584.313.926-.17.34-.587.48-.93.31-.346-.17-.486-.584-.315-.924zM2.994 44.33c.17-.34.587-.48.932-.312.342.17.483.584.313.925s-.588.48-.932.312c-.345-.17-.485-.584-.314-.926zM1.847 43.198c.17-.342.588-.48.932-.313.34.17.483.585.312.925-.17.342-.587.48-.932.313-.345-.17-.484-.585-.313-.925zM.96 41.79c.17-.342.588-.48.932-.313.344.17.484.584.313.926-.17.34-.587.48-.932.31-.342-.167-.483-.582-.313-.923zM.792 40.087c.17-.342.588-.48.932-.313.342.17.484.584.313.926-.17.34-.588.48-.932.312s-.485-.585-.313-.925zM2.325 39.627c.17-.342.59-.48.93-.313.346.17.485.584.316.926-.17.34-.59.48-.93.31-.344-.167-.485-.582-.315-.923zM3.864 40.467c.17-.342.587-.482.93-.313.344.17.485.584.314.925-.17.34-.588.48-.932.312s-.484-.584-.312-.925zM5.436 41.564c.17-.34.587-.48.93-.312.345.17.485.584.314.925-.17.34-.588.48-.932.312-.344-.17-.484-.585-.312-.926zM6.696 42.712c.17-.34.588-.48.932-.31.344.167.484.583.313.923-.17.342-.587.482-.93.313-.343-.17-.485-.584-.314-.926z"/></g><g><path d="M8.688 34.172c-2.748.15-8.403-1.31-7.682-3.454.58-1.29 6.22.63 7.913 1.257.523.194.625 1.926.2 2.164-.14.015-.285.027-.432.032zM7.062 34.432c.016-.377.337-.67.716-.654.38.015.676.334.66.71-.015.378-.338.67-.716.655-.38-.016-.675-.334-.66-.71zM5.33 34.326c.015-.376.335-.67.714-.655.38.017.676.336.66.712-.016.377-.336.67-.715.655-.382-.016-.677-.334-.66-.71zM3.716 33.936c.016-.376.336-.67.715-.654.38.016.677.334.66.71-.014.378-.336.67-.714.655-.38-.016-.676-.334-.66-.71zM2.218 33.373c.016-.377.337-.67.716-.655.38.016.674.334.66.71-.016.378-.338.67-.716.655-.38-.016-.675-.334-.66-.71zM.845 32.454c.015-.377.336-.67.715-.656.38.016.676.335.66.712-.016.375-.336.67-.715.654-.38-.015-.676-.333-.66-.71zM0 30.98c.017-.377.337-.67.716-.654.38.015.676.333.66.71-.017.377-.338.67-.717.655-.38-.014-.677-.333-.66-.71zM1.202 29.95c.016-.375.336-.67.716-.654.38.016.675.334.66.71-.016.377-.338.67-.718.656-.38-.016-.673-.334-.658-.71zM2.934 30.094c.016-.377.337-.67.716-.655s.676.333.658.71c-.016.376-.336.67-.715.655-.38-.016-.676-.335-.66-.71zM4.802 30.457c.016-.375.336-.67.715-.655.38.016.674.335.658.712-.015.376-.336.67-.715.654-.38-.015-.674-.334-.658-.71zM6.408 30.99c.016-.377.336-.67.716-.654.38.015.676.334.66.71-.016.376-.338.67-.718.654-.378-.014-.673-.333-.658-.71z"/></g><g><path d="M7.05 40.944C5.31 39.5 2.73 35.457 4.38 34.57c1.078-.456 3.39 3.854 4.055 5.178.207.412-.713 1.513-1.104 1.418-.094-.07-.186-.143-.28-.222zM5.924 40.192c.222-.22.583-.217.802.006.22.22.218.578-.006.797-.222.218-.58.216-.802-.006-.22-.22-.218-.58.006-.798zM4.94 39.16c.222-.22.58-.216.802.005.22.22.218.578-.007.797-.222.218-.58.216-.8-.005-.22-.222-.218-.58.005-.798zM4.188 38.024c.222-.22.583-.217.802.004.22.223.22.58-.004.797-.225.22-.584.217-.804-.005s-.216-.58.006-.796zM3.604 36.846c.223-.22.583-.216.804.006.22.22.218.578-.007.797-.22.218-.58.214-.8-.007-.22-.22-.217-.578.004-.797zM3.298 35.524c.222-.218.583-.215.802.006.22.22.218.578-.005.797s-.582.216-.803-.006c-.22-.22-.218-.577.006-.796zM3.623 34.165c.222-.22.583-.215.802.006.22.222.22.58-.004.798-.222.218-.582.216-.803-.006-.22-.22-.216-.58.006-.797zM4.93 34.215c.223-.218.584-.215.803.006s.217.58-.005.798c-.224.22-.583.216-.804-.006-.218-.22-.217-.578.007-.797zM5.894 35.268c.223-.217.582-.215.803.007.22.22.218.578-.006.796-.22.22-.58.218-.8-.004-.222-.22-.22-.58.004-.798zM6.813 36.532c.225-.218.584-.215.804.006s.217.58-.005.797c-.224.22-.583.217-.802-.006-.223-.222-.22-.58.003-.798zM7.48 37.752c.224-.22.583-.217.803.005.22.22.216.58-.006.798-.222.217-.583.215-.802-.007-.22-.22-.218-.578.004-.796z"/></g><g><path d="M8.384 31.7c-1.742-1.446-4.322-5.487-2.673-6.375 1.08-.456 3.393 3.854 4.06 5.178.206.41-.715 1.512-1.106 1.418-.094-.07-.186-.142-.28-.22zM7.257 30.947c.223-.22.582-.216.802.005s.218.58-.006.797-.583.215-.802-.006c-.22-.222-.22-.58.005-.797zM6.272 29.914c.223-.22.583-.216.802.005.22.22.22.578-.005.796-.224.218-.583.216-.804-.005-.218-.22-.215-.578.006-.796zM5.52 28.777c.223-.217.582-.215.803.005.22.222.218.58-.004.797-.226.217-.585.215-.805-.005-.22-.222-.217-.58.006-.798zM4.938 27.6c.223-.218.583-.215.802.005.22.222.218.58-.005.797s-.582.216-.803-.005-.217-.58.006-.797zM4.632 26.28c.222-.22.583-.216.802.004.22.22.218.58-.006.797-.223.22-.583.217-.802-.004-.22-.222-.218-.578.006-.797zM4.956 24.92c.223-.22.582-.217.803.004s.217.58-.005.797c-.225.22-.584.217-.804-.005-.22-.22-.217-.577.006-.796zM6.263 24.97c.223-.218.584-.216.804.005s.218.58-.006.797c-.22.218-.58.216-.8-.006-.222-.22-.22-.578.003-.796zM7.228 26.024c.222-.22.58-.216.803.004.22.22.218.58-.005.798-.223.217-.583.215-.804-.006-.218-.22-.217-.577.008-.796zM8.146 27.287c.224-.218.583-.216.804.005.22.222.217.58-.007.797-.222.218-.583.215-.802-.006-.22-.222-.217-.58.006-.797zM8.813 28.506c.224-.218.585-.216.804.005.22.222.217.58-.007.798-.222.218-.583.216-.802-.005-.22-.22-.217-.578.005-.797z"/></g><g><path d="M10.323 27c-1.19-1.92-2.355-6.562-.507-6.887 1.17-.094 1.99 4.723 2.202 6.187.064.454-1.158 1.21-1.5.998-.066-.095-.13-.195-.195-.3zM9.494 25.933c.28-.137.62-.02.76.257.14.28.022.618-.26.755-.28.137-.62.02-.76-.257-.136-.28-.02-.618.26-.755zM8.888 24.643c.28-.137.623-.02.76.257.14.28.023.618-.258.756-.28.136-.622.02-.76-.258-.14-.278-.023-.617.258-.755zM8.536 23.33c.28-.137.622-.022.76.256.138.28.022.618-.258.755-.28.14-.622.023-.76-.255-.14-.28-.022-.618.258-.755zM8.357 22.03c.28-.137.623-.022.76.257.138.28.023.618-.257.755-.282.137-.623.022-.76-.257-.14-.28-.023-.618.257-.755zM8.487 20.68c.28-.137.62-.022.76.257.138.278.02.617-.26.754s-.62.023-.76-.256-.02-.618.26-.754zM9.228 19.492c.28-.137.623-.02.762.257.137.278.02.617-.26.754s-.623.02-.76-.257c-.14-.28-.024-.618.258-.755zM10.452 19.95c.28-.137.623-.02.76.257.14.28.023.62-.258.756-.28.137-.623.02-.76-.258-.138-.28-.023-.618.258-.755zM11.03 21.252c.282-.137.623-.02.76.257.14.278.023.617-.258.754-.28.137-.62.022-.76-.257-.138-.28-.02-.617.26-.755zM11.502 22.74c.28-.138.62-.022.76.256.138.28.022.617-.26.754-.28.137-.62.022-.76-.257-.137-.278-.02-.617.26-.753zM11.747 24.105c.28-.137.62-.02.76.257.138.28.022.618-.26.754-.28.138-.62.022-.76-.256-.138-.28-.02-.618.26-.755z"/></g><g><path d="M12.27 21.313c-1.27-1.866-2.63-6.457-.797-6.86 1.165-.14 2.19 4.635 2.463 6.09.082.45-1.107 1.258-1.457 1.06-.07-.092-.14-.19-.21-.29zM11.398 20.28c.274-.147.62-.046.77.226.15.273.048.616-.227.765s-.62.05-.77-.224c-.15-.272-.048-.616.228-.765zM10.738 19.02c.274-.15.62-.05.77.224.15.272.05.616-.228.765-.274.147-.618.047-.77-.227-.148-.272-.046-.615.228-.764zM10.33 17.722c.276-.15.62-.048.772.225.15.272.048.615-.23.764-.273.15-.617.05-.77-.224-.147-.273-.045-.616.23-.764zM10.1 16.43c.274-.15.62-.048.77.225.15.273.048.616-.227.765s-.62.048-.77-.225-.05-.616.226-.765zM10.17 15.075c.275-.15.62-.048.77.225s.05.616-.226.765c-.274.148-.62.048-.77-.225-.15-.273-.048-.616.227-.765zM10.86 13.858c.276-.15.62-.048.77.225.15.273.048.616-.226.765-.275.15-.62.048-.77-.225-.15-.273-.048-.617.226-.765zM12.104 14.265c.276-.148.62-.048.77.225.15.273.05.616-.226.764-.275.15-.62.05-.77-.224-.15-.273-.05-.616.226-.765zM12.737 15.542c.274-.148.62-.047.77.226.15.273.048.616-.227.764-.275.15-.62.05-.77-.224-.15-.275-.047-.618.227-.766zM13.27 17.007c.275-.148.62-.048.77.225.15.273.05.616-.226.765s-.62.048-.77-.225c-.15-.272-.05-.616.227-.765zM13.57 18.362c.277-.15.622-.048.772.225.15.273.048.615-.227.765-.275.15-.62.048-.77-.225-.15-.273-.048-.616.226-.765z"/></g><g><path d="M16.27 18.424c-.256-2.24.68-6.933 2.493-6.447 1.095.41-.224 5.114-.658 6.53-.134.437-1.567.605-1.786.27-.02-.114-.034-.23-.05-.353zM15.98 17.108c.31-.006.57.243.576.553.006.313-.244.57-.56.575-.31.006-.57-.243-.575-.553-.006-.31.244-.568.56-.574zM15.98 15.686c.314-.005.573.243.578.554.006.31-.243.568-.556.573-.314.005-.573-.242-.578-.553-.005-.31.245-.57.557-.574zM16.226 14.35c.314-.007.572.24.578.552.006.312-.245.568-.557.574-.313.005-.572-.243-.578-.554-.006-.31.244-.568.556-.573zM16.622 13.098c.313-.006.572.242.578.553.004.312-.245.57-.56.575-.312.005-.57-.243-.577-.553-.004-.313.246-.57.56-.574zM17.317 11.93c.312-.006.57.242.576.553.007.31-.243.568-.558.574-.312.005-.57-.243-.577-.554s.245-.567.56-.574zM18.497 11.167c.312-.006.572.242.576.553.005.312-.245.568-.557.575-.313.005-.572-.243-.578-.554-.005-.31.246-.567.56-.573zM19.408 12.1c.313-.006.572.242.577.553.006.31-.244.567-.557.574-.313.004-.572-.243-.578-.555-.004-.31.245-.567.558-.573zM19.374 13.522c.312-.005.572.243.577.553.007.31-.242.568-.556.574-.313.004-.572-.244-.578-.554-.006-.31.246-.568.558-.574zM19.163 15.067c.313-.005.572.243.578.553.006.31-.244.568-.558.573-.313.006-.57-.242-.576-.553-.005-.31.245-.568.557-.573zM18.8 16.406c.312-.005.57.243.578.553.004.31-.246.567-.56.573-.312.006-.57-.242-.576-.553-.006-.31.244-.568.557-.574z"/></g><g><path d="M14.708 17.33c-.846-2.627-.848-8.488 1.446-8.333 1.416.233.96 6.195.776 8-.058.557-1.735 1.098-2.078.746-.05-.134-.096-.27-.144-.413zM14.04 15.82c.375-.082.746.155.826.527.082.372-.155.74-.53.82-.374.08-.746-.156-.826-.528-.082-.372.155-.74.53-.82zM13.704 14.11c.375-.08.745.157.826.528.082.372-.155.74-.53.82-.374.082-.746-.155-.828-.527-.08-.37.157-.74.532-.82zM13.677 12.445c.374-.08.744.156.826.528.082.373-.157.74-.532.82-.373.082-.744-.155-.825-.527-.082-.37.157-.74.532-.82zM13.85 10.85c.376-.082.747.155.827.527.082.372-.157.74-.53.82-.376.082-.746-.155-.826-.527-.082-.372.158-.74.53-.82zM14.405 9.282c.373-.08.745.156.827.528.08.37-.157.74-.532.82s-.745-.156-.826-.528c-.082-.37.157-.74.53-.82zM15.64 8.088c.375-.08.744.156.826.527.082.373-.157.74-.532.82-.374.082-.744-.156-.826-.527s.157-.74.532-.82zM16.96 8.99c.373-.08.742.157.824.53.082.37-.157.74-.53.82-.375.08-.746-.157-.828-.528-.08-.373.157-.74.534-.82zM17.26 10.708c.374-.08.745.156.825.528.082.372-.157.74-.53.82-.375.082-.746-.155-.828-.527-.08-.373.16-.74.532-.822zM17.376 12.613c.375-.08.746.156.826.527.082.373-.157.74-.53.82-.376.082-.746-.155-.827-.527-.08-.37.156-.74.53-.82zM17.26 14.308c.375-.08.747.156.83.528.08.372-.16.74-.534.82-.374.082-.744-.155-.826-.527-.083-.373.156-.74.53-.822z"/></g><g><path d="M24.574 11.388c-.796-2.617-.698-8.418 1.57-8.228 1.398.253.848 6.15.635 7.932-.068.552-1.737 1.06-2.072.706-.046-.13-.09-.27-.134-.41zM23.938 9.88c.372-.073.735.168.81.538.074.37-.168.73-.54.804-.373.073-.735-.167-.81-.537-.076-.37.167-.73.54-.804zM23.634 8.184c.37-.074.734.167.81.536.074.37-.168.73-.54.804-.373.074-.735-.167-.81-.537-.075-.37.167-.73.54-.803zM23.634 6.535c.373-.074.735.167.81.537.075.37-.168.73-.54.803-.373.074-.735-.167-.81-.537-.073-.37.168-.73.54-.803zM23.833 4.957c.37-.073.735.167.81.537.073.37-.167.73-.54.804-.373.073-.735-.167-.81-.537-.074-.368.168-.73.54-.803zM24.408 3.414c.373-.073.735.167.81.537.075.37-.168.73-.54.805-.372.073-.735-.167-.81-.537-.074-.37.168-.73.54-.804zM25.65 2.252c.372-.074.734.167.81.536.073.37-.168.73-.54.804-.372.074-.736-.167-.81-.537-.075-.368.167-.73.54-.803zM26.94 3.168c.373-.074.735.167.81.537.075.37-.17.73-.54.804-.372.073-.735-.168-.81-.537-.074-.37.168-.73.54-.805zM27.21 4.874c.37-.074.735.167.81.536.074.37-.168.73-.54.804-.373.074-.735-.167-.81-.537-.075-.37.168-.73.54-.803zM27.295 6.762c.37-.074.733.167.808.537.076.368-.166.728-.54.802-.37.074-.733-.167-.81-.536-.073-.37.17-.73.542-.804zM27.15 8.438c.372-.074.736.167.81.537.075.37-.167.73-.54.804-.37.072-.734-.168-.81-.538-.072-.37.17-.73.54-.804z"/></g><g><path d="M18.872 13.48c.05-2.255 1.617-6.78 3.346-6.055 1.033.553-.916 5.04-1.54 6.38-.193.418-1.634.392-1.805.03-.003-.117-.005-.235 0-.356zM18.76 12.135c.313.037.534.317.497.627-.037.308-.318.53-.63.493-.31-.037-.534-.317-.495-.626.035-.31.317-.53.63-.495zM18.958 10.727c.312.036.533.317.498.625-.037.31-.32.53-.63.494-.313-.037-.534-.317-.497-.626.036-.308.317-.53.628-.493zM19.384 9.434c.31.037.533.318.496.626-.037.31-.32.53-.63.494-.312-.036-.534-.317-.497-.626.035-.31.32-.53.63-.494zM19.945 8.248c.312.036.533.317.496.625-.036.31-.318.53-.628.493-.312-.036-.534-.317-.498-.625.038-.308.32-.53.63-.492zM20.793 7.184c.31.037.534.317.497.626-.037.31-.32.53-.63.494-.312-.037-.534-.317-.498-.626.036-.31.32-.53.63-.494zM22.065 6.587c.312.037.533.318.496.626-.036.31-.317.53-.628.494-.312-.036-.533-.318-.498-.626.038-.308.32-.53.63-.493zM22.84 7.634c.313.036.536.317.5.626-.038.31-.32.53-.632.494-.31-.037-.533-.318-.496-.626.037-.31.32-.53.63-.494zM22.614 9.04c.312.035.533.317.496.625-.036.31-.318.53-.63.494-.31-.038-.534-.32-.497-.627.038-.31.322-.53.63-.494zM22.194 10.54c.31.037.534.318.497.627-.036.31-.318.53-.628.494-.312-.036-.535-.317-.498-.625.038-.31.32-.532.63-.494zM21.652 11.82c.31.036.533.316.496.625-.037.308-.32.53-.63.493s-.534-.317-.497-.626.32-.53.632-.493z"/></g><g><path d="M26.978 8.74c.05-2.253 1.615-6.778 3.346-6.052 1.032.552-.916 5.038-1.54 6.38-.194.417-1.635.39-1.806.028-.004-.116-.005-.233 0-.356zM26.864 7.397c.312.036.533.317.498.626-.037.31-.32.53-.63.494-.31-.036-.534-.318-.497-.626.036-.308.32-.53.63-.493zM27.063 5.988c.31.037.533.318.496.626-.038.31-.32.53-.63.494-.312-.036-.535-.317-.498-.626.038-.31.32-.53.63-.494zM27.487 4.696c.31.037.533.318.497.626-.036.308-.32.53-.63.493-.31-.037-.535-.317-.498-.626s.322-.53.63-.494zM28.05 3.51c.31.035.534.316.497.625-.037.31-.32.53-.63.494-.313-.038-.534-.32-.5-.627.04-.31.322-.53.633-.494zM28.897 2.445c.31.037.533.318.498.626-.037.31-.32.532-.633.495-.31-.037-.533-.317-.495-.626.037-.31.32-.53.63-.495zM30.17 1.85c.31.035.533.317.496.625-.037.31-.32.53-.63.494s-.533-.318-.496-.627c.037-.31.32-.53.63-.494zM30.946 2.895c.312.037.533.317.497.626-.037.31-.32.53-.63.494-.31-.036-.535-.317-.498-.626.038-.308.32-.53.63-.493zM30.718 4.3c.313.037.534.317.497.627-.036.308-.32.53-.63.493-.31-.037-.533-.317-.496-.626.036-.31.318-.53.628-.494zM30.3 5.802c.31.037.532.317.496.625-.036.31-.32.53-.63.494-.312-.036-.533-.316-.496-.625.036-.308.32-.53.63-.493zM29.756 7.08c.312.037.534.318.498.627-.038.31-.32.53-.63.494-.313-.036-.534-.316-.497-.625.035-.31.32-.53.63-.494z"/></g><g><path d="M31.886 7.312c.764-2.123 3.688-5.924 5.1-4.693.802.847-2.472 4.49-3.493 5.57-.314.334-1.673-.143-1.72-.54.033-.112.07-.224.113-.338zM32.205 6c.283.133.407.47.274.75-.136.282-.474.404-.757.27-.283-.13-.407-.467-.273-.75.133-.28.473-.4.755-.27zM32.842 4.728c.282.132.405.468.272.75-.134.28-.472.402-.755.27-.285-.13-.407-.468-.274-.75.133-.28.472-.403.756-.27zM33.654 3.634c.284.132.407.468.273.75-.133.28-.472.402-.755.27s-.406-.467-.272-.75c.133-.28.472-.402.754-.27zM34.567 2.684c.282.132.404.47.27.75-.132.282-.47.403-.755.27-.283-.13-.404-.467-.27-.75.132-.28.472-.402.755-.27zM35.708 1.94c.284.133.406.47.273.75-.133.282-.47.404-.755.272-.282-.132-.405-.47-.272-.75.134-.282.472-.403.755-.27zM37.105 1.774c.284.132.405.468.273.75-.135.28-.472.403-.755.27-.283-.132-.406-.468-.272-.75.134-.28.472-.4.755-.27zM37.51 3.01c.284.132.405.468.272.75-.134.282-.472.403-.755.27-.282-.13-.406-.467-.273-.75.134-.28.474-.402.756-.27zM36.847 4.272c.283.132.405.468.273.75-.135.282-.473.403-.756.27-.282-.132-.406-.468-.273-.75.136-.28.474-.402.757-.27zM35.97 5.566c.285.132.408.47.273.75-.132.282-.472.402-.755.27-.282-.132-.405-.468-.27-.75.13-.28.47-.402.753-.27zM35.05 6.608c.282.132.406.47.273.75-.135.282-.473.402-.756.27-.283-.13-.405-.468-.273-.75.135-.28.474-.4.756-.27z"/></g><g><path d="M37.423 6.673c.78-2.478 3.96-6.996 5.645-5.646.966.938-2.626 5.29-3.747 6.58-.348.4-1.936-.082-2.007-.538.03-.13.07-.26.11-.397zM37.73 5.15c.333.14.49.522.35.852-.14.33-.522.486-.855.348-.332-.14-.49-.52-.35-.85.14-.332.523-.488.856-.35zM38.4 3.653c.332.14.49.52.35.85-.14.33-.52.486-.854.348-.333-.137-.49-.52-.352-.85.14-.33.523-.485.857-.347zM39.284 2.356c.334.138.49.52.35.85-.14.33-.523.486-.855.348-.333-.14-.49-.52-.35-.85.137-.33.522-.486.854-.348zM40.287 1.22c.33.138.49.52.35.85-.14.33-.524.486-.855.347-.333-.138-.49-.52-.35-.85.138-.33.522-.486.855-.348zM41.565.31c.333.138.49.52.352.85-.14.33-.524.486-.857.347-.333-.14-.488-.52-.35-.85.14-.33.522-.487.855-.348zM43.166.05c.333.138.49.52.35.85-.14.33-.522.487-.855.348-.332-.14-.49-.52-.35-.85.14-.33.523-.486.856-.348zM43.692 1.454c.33.14.488.52.35.85-.14.33-.524.487-.857.348-.33-.14-.488-.52-.35-.85s.523-.487.857-.348zM42.99 2.938c.332.138.49.52.35.85-.14.33-.523.487-.855.348-.333-.138-.49-.52-.352-.85.14-.33.524-.487.857-.348zM42.045 4.47c.332.137.49.52.35.85-.14.33-.523.485-.856.347-.333-.14-.49-.52-.35-.85.138-.33.522-.487.855-.348zM41.033 5.714c.333.138.49.52.35.85-.138.33-.522.486-.855.348-.33-.14-.488-.52-.35-.85.14-.33.524-.487.855-.348z"/></g><g><path d="M41.32 6.513c1.377-1.79 5.33-4.53 6.296-2.93.505 1.048-3.73 3.533-5.03 4.253-.403.222-1.553-.642-1.476-1.035.067-.094.136-.19.21-.287zM42.028 5.363c.23.212.242.57.03.797-.214.228-.573.242-.803.03-.23-.21-.242-.57-.03-.796.213-.23.573-.242.803-.03zM43.024 4.34c.23.212.242.57.03.797-.214.228-.573.24-.803.03-.228-.212-.243-.57-.028-.797.214-.227.573-.24.802-.03zM44.133 3.545c.23.212.244.57.03.796-.213.23-.572.242-.803.03-.23-.21-.242-.568-.03-.796s.573-.24.803-.03zM45.29 2.915c.23.21.245.57.032.797-.213.228-.573.24-.802.03-.23-.213-.244-.57-.03-.797.212-.228.573-.24.8-.03zM46.608 2.552c.23.21.243.57.03.796-.212.228-.573.24-.802.03-.23-.212-.243-.57-.03-.797.213-.226.572-.24.802-.028zM47.99 2.815c.23.21.243.568.03.796-.213.23-.573.242-.802.03-.23-.21-.243-.57-.03-.796.213-.227.573-.24.802-.03zM47.996 4.115c.23.21.243.568.03.796-.212.23-.573.242-.8.03-.23-.21-.245-.568-.032-.796.213-.227.574-.24.802-.03zM46.98 5.116c.228.21.242.57.03.796-.214.23-.573.242-.803.03-.23-.212-.243-.57-.03-.796.213-.228.573-.24.802-.03zM45.75 6.084c.23.21.24.568.028.797-.213.228-.572.242-.802.03-.228-.21-.242-.568-.03-.796.214-.227.574-.24.803-.03zM44.553 6.8c.228.21.242.568.03.795-.214.23-.574.242-.803.03-.23-.21-.244-.568-.03-.796.212-.23.573-.242.803-.03z"/></g><g><path d="M46.58 6.57c1.876-1.27 6.496-2.627 6.906-.808.145 1.156-4.663 2.183-6.13 2.457-.45.084-1.267-1.094-1.07-1.444.094-.07.193-.138.293-.207zM47.616 5.7c.15.27.05.614-.225.764-.273.15-.62.05-.77-.223-.15-.272-.05-.615.226-.765s.62-.05.77.224zM48.886 5.042c.15.273.05.616-.224.766-.274.15-.62.048-.77-.224-.152-.273-.052-.616.224-.765.275-.15.62-.05.77.222zM50.192 4.634c.15.273.05.616-.226.766s-.62.05-.77-.224c-.15-.272-.05-.615.224-.765.275-.148.62-.048.772.224zM51.49 4.4c.15.273.05.616-.224.766-.274.15-.62.05-.77-.224-.15-.272-.05-.615.224-.765.275-.15.62-.05.77.223zM52.856 4.47c.15.27.05.615-.225.764-.273.15-.62.05-.77-.223-.15-.272-.05-.615.226-.765.274-.15.62-.05.77.224zM54.083 5.15c.15.274.05.617-.224.767s-.62.05-.772-.224c-.15-.272-.05-.615.226-.765.274-.15.62-.05.77.223zM53.676 6.386c.15.273.05.616-.224.766-.274.15-.62.048-.77-.224-.15-.272-.05-.616.225-.765.274-.15.62-.05.77.223zM52.393 7.02c.15.27.05.614-.226.764-.273.15-.62.05-.77-.224-.15-.272-.05-.615.225-.765.274-.15.62-.05.77.224zM50.917 7.55c.15.273.05.615-.226.765-.273.15-.62.05-.77-.223-.15-.273-.05-.616.225-.766.276-.15.623-.05.772.224zM49.554 7.854c.15.273.05.616-.225.765-.276.15-.622.048-.772-.224-.15-.273-.05-.616.225-.765.275-.15.62-.05.77.224z"/></g><g><path d="M52.89 8.89c1.822-1.342 6.38-2.894 6.867-1.093.19 1.15-4.568 2.376-6.018 2.71-.452.104-1.315-1.04-1.133-1.397.09-.074.183-.147.284-.22zM53.89 7.98c.16.265.074.612-.193.772-.268.16-.617.075-.78-.19-.16-.267-.074-.614.194-.775.268-.16.617-.075.78.192zM55.13 7.27c.162.265.076.612-.192.772-.267.16-.617.076-.78-.19-.16-.267-.074-.613.194-.774.266-.16.618-.075.778.19zM56.418 6.81c.16.264.075.612-.193.772-.267.16-.616.075-.778-.19-.162-.267-.076-.614.192-.775.265-.16.616-.075.778.192zM57.707 6.52c.16.266.075.613-.192.774-.27.16-.62.075-.78-.19-.16-.267-.076-.614.192-.775.267-.162.618-.077.78.19zM59.07 6.53c.163.267.077.614-.19.775-.268.16-.618.075-.78-.19-.162-.267-.074-.615.193-.775.27-.16.616-.075.778.19zM60.327 7.163c.162.266.075.613-.19.774-.27.16-.62.075-.78-.192-.16-.265-.076-.613.19-.773.27-.16.618-.076.78.19zM59.974 8.413c.162.266.076.613-.192.774-.27.16-.618.075-.78-.19-.16-.267-.074-.614.194-.775.266-.16.616-.075.778.19zM58.717 9.098c.162.266.075.613-.192.773-.27.162-.617.076-.78-.19-.16-.266-.076-.613.192-.773.268-.16.618-.075.78.19zM57.266 9.692c.162.266.075.613-.192.774-.27.16-.62.075-.78-.192-.16-.265-.074-.613.192-.773.268-.16.618-.075.78.192zM55.917 10.05c.16.267.073.614-.193.775-.27.16-.618.075-.78-.19-.162-.267-.075-.614.192-.775.268-.16.617-.075.78.19z"/></g><g><path d="M58.196 14.287c.765-2.122 3.688-5.924 5.1-4.693.803.848-2.473 4.492-3.492 5.57-.315.333-1.674-.143-1.723-.54.035-.11.074-.223.116-.337zM58.517 12.977c.283.132.405.468.27.75-.132.282-.47.403-.753.27-.283-.13-.406-.468-.273-.75.136-.28.472-.402.757-.27zM59.15 11.703c.285.132.407.468.274.75-.133.28-.472.402-.754.27-.284-.13-.406-.467-.273-.75.135-.28.473-.402.754-.27zM59.966 10.61c.284.13.406.468.273.75-.136.28-.474.402-.757.27-.282-.132-.405-.47-.27-.75.132-.28.47-.402.753-.27zM60.876 9.66c.283.132.407.468.273.75-.134.28-.474.402-.756.27-.283-.132-.407-.468-.272-.75.133-.282.472-.403.754-.27zM62.02 8.916c.284.133.406.47.272.75-.133.282-.473.403-.755.27-.283-.132-.405-.468-.272-.75.133-.28.47-.402.756-.27zM63.417 8.75c.282.132.404.468.27.75-.132.282-.47.403-.753.27-.283-.13-.405-.467-.273-.75.134-.28.474-.402.757-.27zM63.82 9.985c.285.133.405.47.272.75s-.472.402-.756.27c-.282-.132-.404-.468-.27-.75.132-.28.472-.4.755-.27zM63.158 11.248c.284.132.405.468.27.75-.132.282-.47.403-.753.27-.284-.13-.405-.467-.273-.748.133-.283.472-.404.756-.272zM62.282 12.54c.284.134.406.47.27.75-.132.282-.47.403-.753.27-.283-.13-.407-.467-.274-.75.135-.28.473-.4.756-.27zM61.36 13.584c.283.133.405.47.272.75-.132.28-.472.402-.755.27-.283-.132-.406-.468-.27-.75.132-.28.47-.403.753-.27z"/></g></g><path fill="#fff" d="M24.426 30.004h6.737v23.58h-6.737zM47.16 30.004c-4.7 0-5.507 1.714-5.892 3.37v-3.37H34.53v23.58h6.738V40.11c0-2.185 1.184-3.37 3.368-3.37 2.132 0 3.368 1.16 3.368 3.37v13.474h6.737v-11.79c.002-6.737-.877-11.79-7.58-11.79z"/><circle cx="27.795" cy="24.952" r="3.368" fill="#fff"/></g></svg>