<svg xmlns="http://www.w3.org/2000/svg" width="78.167" height="78.167" viewBox="0 0 78.167 78.167"><g><g fill="#CF2200"><path d="M56.39 9.454c16.216 9.353 21.733 30.016 12.315 46.12C59.288 71.68 38.48 77.16 22.263 67.808 6.046 58.453.528 37.79 9.946 21.687 19.366 5.58 40.17.1 56.39 9.453z"/><g><path d="M59.898 14.094c2.262-.187 6.958.887 6.412 2.67-.447 1.076-5.14-.377-6.55-.852-.438-.148-.564-1.574-.217-1.78.114-.015.233-.028.355-.038zM61.23 13.843c-.003.31-.26.56-.573.557-.313-.004-.564-.26-.56-.57.003-.312.26-.562.575-.558.31.004.563.26.558.57zM62.663 13.89c-.004.312-.262.562-.575.558s-.564-.26-.56-.57.26-.56.573-.557c.315.005.566.26.563.57zM64.002 14.174c-.005.313-.263.56-.575.557-.312-.003-.564-.26-.56-.57.004-.31.262-.56.575-.556.31.004.565.26.56.57zM65.25 14.605c-.005.312-.263.56-.576.557-.313-.004-.564-.26-.56-.57.003-.312.262-.562.574-.556.315.002.565.257.56.57zM66.403 15.33c-.004.313-.263.562-.574.558-.314-.004-.565-.26-.563-.57.005-.31.263-.56.575-.557.314.004.565.26.56.57zM67.134 16.525c-.003.312-.262.56-.575.557s-.564-.26-.56-.57c.003-.312.26-.562.574-.558s.565.26.56.57zM66.17 17.4c-.005.313-.264.562-.577.558-.313-.003-.564-.26-.56-.57.003-.31.263-.56.574-.557.315.004.565.26.562.57zM64.737 17.325c-.005.31-.262.56-.575.557s-.564-.26-.56-.57c.003-.313.262-.56.573-.557.316.003.565.26.562.57zM63.188 17.068c-.004.31-.262.56-.574.557-.313-.004-.564-.26-.56-.57.004-.312.262-.562.575-.558.312.003.562.26.558.57zM61.853 16.665c-.005.313-.263.56-.576.557-.313-.004-.564-.26-.56-.57s.26-.56.575-.557c.312.003.563.26.56.57z"/></g><g><path d="M60.075 13.936c2.673-.758 8.57-.582 8.345 1.69-.277 1.397-6.266.763-8.074.525-.56-.072-1.054-1.755-.687-2.085.134-.045.273-.087.415-.13zM61.618 13.32c.068.374-.18.734-.557.804-.376.07-.74-.18-.81-.553s.18-.734.557-.804c.378-.068.74.18.81.553zM63.35 13.038c.067.375-.18.735-.56.805-.375.07-.74-.18-.81-.553-.068-.375.182-.736.558-.805.377-.068.74.18.812.553zM65.024 13.062c.07.374-.18.735-.556.804-.378.07-.74-.178-.81-.553-.07-.375.18-.735.556-.805.38-.07.74.18.81.554zM66.625 13.284c.07.375-.18.734-.556.804s-.74-.18-.812-.553c-.07-.374.18-.735.56-.804.375-.07.74.18.807.554zM68.187 13.88c.07.375-.18.735-.557.806-.377.07-.74-.18-.81-.553-.07-.375.18-.735.558-.805.376-.07.738.18.81.553zM69.352 15.143c.07.375-.18.734-.56.805-.375.068-.74-.18-.81-.553-.068-.375.182-.735.558-.805.377-.07.74.178.812.553zM68.4 16.424c.07.374-.18.736-.556.805-.378.068-.74-.18-.81-.554-.07-.375.18-.735.556-.805s.74.18.81.554zM66.663 16.67c.07.374-.18.734-.557.805-.376.068-.74-.18-.81-.553-.07-.375.18-.736.557-.805.377-.07.74.18.81.553zM64.743 16.73c.07.373-.18.733-.558.803-.376.07-.74-.18-.81-.552-.07-.374.18-.735.557-.805.38-.068.74.18.81.554zM63.04 16.562c.07.374-.18.735-.557.805-.377.07-.74-.18-.81-.553-.07-.374.18-.735.556-.806.376-.068.74.18.81.554z"/></g><g><path d="M67.146 25.76c2.107-1.757 7.513-3.96 8.23-1.812.318 1.375-5.354 3.2-7.087 3.71-.537.156-1.668-1.168-1.47-1.612.103-.096.212-.19.326-.285zM68.29 24.585c.215.31.135.736-.18.95-.31.213-.74.135-.955-.176s-.136-.737.178-.95c.313-.214.74-.135.956.175zM69.74 23.637c.216.31.136.736-.176.95-.315.215-.743.136-.958-.175-.216-.31-.136-.736.178-.95.312-.213.74-.135.956.175zM71.267 22.988c.215.31.136.737-.178.95-.314.215-.742.135-.958-.176-.215-.31-.136-.736.178-.95.312-.214.74-.134.957.176zM72.804 22.547c.217.31.137.736-.177.95-.312.214-.742.135-.956-.176-.215-.31-.135-.735.177-.95.312-.213.743-.133.957.177zM74.46 22.463c.215.31.135.736-.18.95-.312.214-.74.135-.955-.176-.216-.312-.137-.736.176-.95.314-.214.743-.135.96.176zM76.024 23.137c.214.31.136.737-.178.95-.312.214-.742.136-.956-.175-.216-.31-.136-.736.176-.95.314-.213.744-.135.958.175zM75.687 24.677c.215.31.134.737-.18.95-.31.214-.74.135-.955-.176-.217-.31-.136-.735.177-.95.31-.212.74-.133.957.177zM74.214 25.596c.216.31.136.736-.176.95-.313.214-.742.134-.958-.176-.216-.312-.136-.737.178-.95.312-.214.74-.135.956.176zM72.5 26.418c.215.31.136.736-.177.95-.313.214-.742.134-.958-.177-.214-.31-.136-.735.178-.95.312-.212.74-.133.958.178zM70.894 26.95c.215.31.136.736-.178.95-.313.214-.74.134-.957-.177-.216-.31-.137-.736.176-.95.313-.213.742-.134.958.176z"/></g><g><path d="M65.487 17.75c2.267.118 6.772 1.812 5.99 3.507-.59 1.007-5.042-1.063-6.376-1.725-.412-.205-.342-1.635.028-1.793.117 0 .235.003.36.01zM66.843 17.68c-.047.307-.337.52-.646.473-.31-.045-.523-.332-.477-.64.046-.308.336-.52.645-.474.31.044.524.332.478.64zM68.253 17.92c-.046.307-.334.52-.645.474-.31-.046-.523-.334-.478-.642.046-.307.336-.52.646-.475.31.048.524.335.477.642zM69.543 18.38c-.047.308-.337.52-.646.474-.31-.046-.524-.333-.477-.64.046-.31.335-.52.645-.476.31.048.524.335.478.643zM70.72 18.975c-.047.307-.337.52-.646.474-.31-.047-.523-.334-.477-.642.046-.308.334-.52.645-.475s.524.334.478.642zM71.763 19.848c-.046.308-.334.52-.645.475-.31-.046-.523-.334-.478-.64.046-.31.336-.522.646-.476.31.046.524.335.477.64zM72.325 21.13c-.047.307-.337.52-.646.474-.31-.046-.525-.334-.48-.64.047-.31.337-.52.646-.475.31.046.525.333.48.64zM71.248 21.87c-.046.307-.335.52-.645.473-.31-.045-.524-.333-.478-.64.046-.308.336-.52.646-.475.31.046.524.333.478.642zM69.842 21.6c-.048.307-.336.52-.646.473-.31-.045-.522-.332-.476-.64.046-.308.334-.52.645-.474.31.044.523.332.477.64zM68.343 21.137c-.046.308-.336.52-.646.475-.31-.046-.522-.334-.477-.64.047-.31.335-.522.645-.476.31.047.525.334.478.64zM67.072 20.56c-.046.307-.337.52-.645.474-.312-.046-.524-.334-.48-.64.048-.31.338-.522.646-.476.31.046.525.334.48.64z"/></g><g><path d="M69.848 27.417c2.266.118 6.773 1.813 5.988 3.507-.587 1.007-5.04-1.063-6.374-1.726-.413-.205-.344-1.633.026-1.793.116 0 .236.005.36.012zM71.202 27.346c-.047.31-.336.52-.645.475-.31-.046-.524-.332-.48-.64.048-.308.337-.52.646-.475.31.046.525.335.48.64zM72.614 27.585c-.046.31-.336.52-.646.475-.31-.046-.523-.333-.476-.642.046-.307.334-.52.645-.474.307.047.524.335.477.64zM73.9 28.047c-.046.308-.335.52-.645.474-.31-.045-.524-.332-.478-.64.046-.308.336-.52.646-.475.31.047.524.336.477.642zM75.08 28.64c-.048.31-.337.522-.646.476-.31-.046-.524-.334-.48-.64.048-.31.337-.52.646-.476.31.047.525.334.48.64zM76.124 29.516c-.046.307-.336.52-.646.473-.31-.046-.522-.334-.477-.642.047-.307.336-.52.646-.473.31.045.525.333.478.64zM76.685 30.797c-.047.308-.335.52-.645.475-.31-.047-.525-.334-.477-.643.044-.308.334-.52.645-.474.31.046.523.335.477.64zM75.607 31.536c-.046.307-.334.52-.645.474-.31-.046-.524-.333-.478-.64.046-.31.336-.522.646-.475.31.045.525.333.477.64zM74.2 31.266c-.045.31-.335.52-.645.475-.31-.045-.524-.332-.477-.64.046-.308.334-.52.645-.475.31.047.524.334.477.64zM72.702 30.804c-.046.308-.336.52-.646.475-.308-.047-.522-.334-.476-.643.046-.307.334-.52.646-.475.308.047.523.335.476.642zM71.432 30.227c-.046.307-.336.52-.646.474-.31-.045-.523-.333-.477-.64.045-.308.333-.52.644-.474.31.045.524.332.478.64z"/></g><g><path d="M70.605 29.932c2.114.824 5.85 3.846 4.567 5.207-.88.77-4.445-2.592-5.5-3.638-.326-.324.195-1.658.596-1.69.11.034.223.076.337.12zM71.914 30.292c-.144.277-.483.39-.765.248-.278-.14-.392-.48-.25-.758.143-.277.485-.39.765-.248.278.14.39.48.25.758zM73.176 30.96c-.142.278-.484.39-.762.25-.28-.142-.392-.48-.25-.76s.484-.388.764-.247c.28.142.39.48.248.758zM74.252 31.803c-.142.277-.483.39-.763.248-.28-.14-.392-.48-.25-.757.143-.278.483-.39.763-.248.28.14.39.48.25.758zM75.18 32.737c-.14.276-.483.39-.763.247s-.39-.48-.25-.758c.143-.276.484-.388.764-.247s.39.48.25.757zM75.894 33.893c-.143.277-.484.39-.764.248s-.39-.48-.248-.757c.142-.277.484-.39.762-.248.28.14.39.48.25.758zM76.02 35.286c-.144.277-.485.388-.765.248-.28-.142-.39-.482-.248-.76.14-.276.482-.388.762-.246.278.14.39.48.25.758zM74.76 35.65c-.14.275-.483.388-.762.246-.28-.14-.39-.48-.25-.758.144-.277.485-.388.763-.247.282.142.393.482.25.76zM73.512 34.952c-.142.277-.483.39-.763.248s-.392-.48-.25-.758c.14-.277.484-.388.763-.248.28.14.39.48.25.758zM72.237 34.043c-.143.277-.483.388-.764.248-.28-.14-.39-.48-.248-.758.142-.277.482-.39.762-.247.28.14.392.48.25.758zM71.216 33.096c-.142.277-.484.39-.764.248-.28-.142-.392-.48-.25-.758.143-.277.484-.39.764-.248s.39.48.25.758z"/></g><g><path d="M72.483 35.643c2.145.734 6.007 3.596 4.782 5.01-.845.808-4.55-2.403-5.647-3.403-.34-.31.123-1.665.524-1.716.112.03.226.07.34.11zM73.805 35.947c-.13.283-.467.408-.752.28-.284-.13-.41-.465-.28-.747.13-.283.467-.408.752-.28.283.13.41.465.28.747zM75.096 36.564c-.13.282-.468.407-.753.278-.285-.128-.41-.463-.28-.746.13-.283.468-.408.75-.28.286.13.413.466.283.748zM76.206 37.36c-.13.283-.467.408-.752.28-.286-.13-.41-.466-.28-.747.13-.283.466-.408.75-.28.285.13.412.465.282.747zM77.17 38.253c-.128.282-.466.407-.75.278-.284-.127-.41-.462-.28-.745.13-.283.466-.408.75-.28s.413.466.28.748zM77.934 39.38c-.13.282-.468.407-.75.278-.286-.13-.413-.464-.282-.747.13-.28.466-.406.75-.277.286.13.41.463.282.746zM78.116 40.766c-.13.283-.467.406-.752.277-.283-.13-.41-.463-.28-.746.13-.283.467-.408.752-.28.284.13.41.465.28.75zM76.877 41.18c-.13.283-.468.408-.753.28-.283-.13-.41-.466-.28-.747.13-.283.468-.408.753-.28.283.13.41.463.28.747zM75.6 40.535c-.13.283-.468.41-.752.28-.285-.13-.412-.464-.28-.747.13-.283.465-.408.75-.28s.41.466.28.747zM74.286 39.68c-.13.284-.467.41-.752.28-.284-.13-.41-.464-.28-.747.13-.283.468-.408.752-.28.283.13.41.466.28.748zM73.227 38.778c-.13.28-.467.408-.753.28-.285-.13-.41-.466-.28-.75.13-.28.468-.405.75-.278.285.13.412.465.283.748z"/></g><g><path d="M70.425 39.797c1.518 1.677 3.5 6.037 1.74 6.687-1.133.297-2.81-4.293-3.282-5.695-.146-.437.92-1.398 1.295-1.25.082.082.164.168.247.257zM71.432 40.7c-.25.187-.607.132-.794-.116-.187-.25-.133-.603.12-.79.25-.185.606-.132.793.118.185.25.133.604-.118.79zM72.26 41.86c-.25.187-.607.134-.794-.116s-.133-.604.12-.79c.25-.183.606-.132.79.12.187.248.135.602-.116.787zM72.843 43.092c-.253.186-.607.13-.794-.12s-.136-.6.117-.786c.252-.186.607-.133.793.117.188.25.134.603-.117.79zM73.253 44.338c-.252.186-.607.133-.796-.117-.185-.25-.132-.603.12-.788.25-.184.607-.133.793.117.187.25.135.602-.117.788zM73.37 45.69c-.253.185-.607.132-.794-.118s-.134-.604.118-.79c.252-.183.607-.132.793.118.187.25.135.604-.117.79zM72.854 46.99c-.252.186-.607.133-.795-.117-.187-.25-.134-.604.117-.79.252-.185.61-.132.794.118.19.25.134.605-.116.79zM71.567 46.758c-.25.184-.607.13-.794-.12s-.133-.603.118-.786c.253-.186.608-.133.796.117.185.25.133.602-.12.788zM70.763 45.578c-.252.186-.607.133-.793-.117-.187-.25-.134-.603.12-.786.25-.186.606-.133.79.117.187.25.136.605-.117.788zM70.03 44.2c-.25.185-.606.132-.793-.118-.186-.25-.133-.604.12-.79.25-.183.606-.13.793.12s.132.604-.12.787zM69.544 42.9c-.25.184-.607.13-.794-.12-.185-.247-.133-.603.118-.786.252-.188.608-.133.795.117s.133.605-.12.79z"/></g><g><path d="M72.335 39.79c2.226 1.652 5.654 6.42 3.695 7.617-1.29.627-4.404-4.49-5.308-6.064-.28-.486.77-1.894 1.257-1.804.117.075.234.16.355.25zM73.764 40.633c-.26.283-.7.303-.982.047-.284-.256-.306-.693-.046-.974.256-.28.696-.303.98-.047.283.255.305.692.048.973zM75.036 41.832c-.258.28-.7.303-.98.047-.285-.26-.307-.694-.05-.978.26-.28.7-.3.98-.045.287.256.307.694.05.975zM76.03 43.172c-.258.28-.697.303-.98.047-.284-.26-.306-.694-.048-.976.26-.283.698-.305.982-.05.284.26.305.695.046.978zM76.823 44.57c-.26.283-.7.305-.982.047-.283-.256-.305-.69-.046-.975.258-.28.697-.303.98-.047.285.257.307.694.05.975zM77.287 46.168c-.258.28-.698.303-.982.047-.284-.258-.304-.695-.046-.977s.697-.303.98-.047c.284.26.305.695.047.978zM76.98 47.852c-.258.28-.698.303-.982.045-.284-.256-.304-.69-.046-.975.257-.28.696-.3.98-.045.284.256.305.693.048.975zM75.378 47.875c-.258.283-.697.303-.98.047-.284-.256-.306-.693-.048-.975.257-.28.698-.303.982-.047.283.256.305.694.046.975zM74.13 46.65c-.257.283-.698.303-.98.047-.285-.256-.307-.693-.048-.975.258-.28.697-.303.98-.047.284.257.306.694.047.975zM72.92 45.168c-.256.28-.697.303-.98.047-.284-.256-.306-.693-.047-.977.256-.28.697-.303.98-.045.284.256.306.692.048.975zM72.024 43.72c-.258.282-.7.304-.982.048-.284-.256-.305-.693-.047-.975s.697-.303.98-.047c.285.256.306.693.05.975z"/></g><g><path d="M67.76 51.393c2.682.604 7.72 3.543 6.434 5.41-.91 1.084-5.808-2.297-7.263-3.357-.45-.33-.073-2.023.403-2.137.137.02.28.05.426.083zM69.392 51.586c-.12.357-.51.553-.87.434-.36-.117-.557-.504-.438-.86.118-.36.51-.556.87-.437.36.117.557.504.438.863zM71.03 52.158c-.12.36-.51.555-.87.436-.36-.117-.558-.504-.44-.863.12-.356.51-.552.87-.435.362.12.557.506.44.863zM72.473 52.973c-.117.357-.507.553-.868.434-.36-.117-.557-.504-.44-.863.12-.357.51-.553.87-.436.36.12.556.505.438.865zM73.76 53.922c-.12.357-.51.553-.87.436-.36-.12-.558-.506-.44-.863.12-.357.51-.555.87-.436.36.116.556.503.44.862zM74.826 55.178c-.12.36-.508.555-.868.436-.36-.117-.557-.504-.438-.863.12-.356.508-.552.868-.433.36.117.558.503.438.86zM75.233 56.824c-.12.357-.51.553-.87.436-.36-.12-.557-.506-.438-.863.12-.357.51-.553.87-.436.36.118.557.507.438.864zM73.793 57.488c-.117.357-.508.553-.868.434-.36-.117-.557-.504-.438-.86.12-.358.51-.554.868-.437.36.117.558.506.438.863zM72.167 56.88c-.118.358-.51.554-.87.437-.358-.12-.556-.506-.437-.863.12-.36.51-.553.87-.436.36.117.556.505.437.863zM70.47 56.023c-.117.357-.508.553-.867.436-.36-.12-.56-.507-.44-.864.12-.36.51-.553.87-.436.36.117.558.506.438.863zM69.072 55.074c-.118.357-.51.553-.868.436-.36-.12-.56-.506-.44-.863.12-.36.51-.553.87-.436.36.118.556.507.438.864z"/></g><g><path d="M71.197 45.324c1.276 1.863 2.646 6.45.813 6.857-1.163.147-2.198-4.628-2.475-6.08-.085-.452 1.103-1.263 1.454-1.065.07.092.138.188.207.29zM72.07 46.355c-.27.148-.618.05-.77-.225-.148-.27-.048-.615.227-.766.274-.148.62-.05.77.225.15.27.05.615-.226.765zM72.735 47.615c-.275.15-.62.05-.77-.223-.15-.27-.05-.615.224-.766.274-.148.62-.05.77.223.15.273.05.615-.225.765zM73.146 48.912c-.275.15-.62.05-.77-.223-.15-.272-.05-.616.224-.767.275-.148.62-.05.77.225.15.272.05.616-.224.764zM73.38 50.203c-.273.148-.62.05-.77-.223-.15-.273-.05-.617.225-.766s.62-.05.77.223c.15.274.05.616-.224.766zM73.313 51.56c-.276.147-.622.048-.77-.226-.152-.27-.05-.615.224-.766.275-.148.62-.05.77.225.15.27.05.615-.224.766zM72.624 52.777c-.273.148-.62.05-.77-.223-.15-.273-.05-.615.225-.766.274-.15.62-.05.77.223.15.273.05.617-.226.767zM71.38 52.373c-.273.148-.62.05-.77-.223-.15-.273-.05-.617.225-.766.274-.15.62-.05.77.223.152.274.05.616-.224.766zM70.745 51.098c-.274.148-.62.05-.77-.223-.15-.273-.05-.617.224-.766.273-.15.62-.052.77.222.15.273.05.617-.225.766zM70.21 49.633c-.275.15-.62.05-.772-.223-.15-.273-.05-.615.226-.766s.62-.05.77.223c.15.274.05.617-.225.766zM69.903 48.28c-.274.147-.62.048-.77-.226-.15-.27-.05-.615.225-.766.274-.148.62-.047.77.225.15.272.05.616-.225.766z"/></g><g><path d="M67.368 53.855c1.277 1.863 2.646 6.45.814 6.857-1.164.145-2.2-4.63-2.477-6.084-.085-.45 1.103-1.26 1.454-1.063.07.093.14.19.208.29zM68.244 54.885c-.274.15-.62.05-.77-.223-.152-.273-.05-.617.224-.766s.62-.05.77.223c.15.273.05.614-.224.765zM68.905 56.145c-.272.15-.62.05-.77-.223-.15-.27-.05-.615.225-.766.273-.148.62-.05.77.225.15.274.05.616-.225.765zM69.315 57.443c-.273.148-.62.05-.77-.225-.15-.27-.05-.615.225-.764.273-.15.62-.05.77.223.152.274.05.616-.225.766zM69.552 58.734c-.274.148-.62.05-.77-.225-.15-.272-.05-.616.225-.767.274-.148.62-.05.77.225.15.272.05.616-.225.766zM69.484 60.088c-.274.15-.62.05-.77-.223-.15-.273-.05-.617.225-.766.273-.15.618-.05.77.222.148.274.05.617-.226.766zM68.796 61.307c-.274.15-.62.05-.77-.223-.152-.273-.05-.615.224-.766.274-.148.62-.05.77.225.15.27.05.615-.224.764zM67.554 60.904c-.275.148-.62.05-.77-.225-.152-.272-.05-.616.224-.765.275-.15.62-.05.77.223.15.272.05.616-.224.766zM66.917 59.63c-.275.147-.62.048-.77-.226-.15-.27-.052-.615.223-.764.275-.15.62-.05.77.223.15.272.05.616-.223.766zM66.38 58.164c-.274.148-.62.05-.77-.223-.15-.272-.05-.616.224-.765.274-.15.62-.05.77.223.15.272.05.616-.224.766zM66.074 56.81c-.274.15-.62.05-.77-.224-.15-.27-.05-.615.224-.766.274-.148.62-.05.77.223.15.273.05.617-.224.766z"/></g><g><path d="M64.207 57.848c.618 2.17.46 6.953-1.41 6.762-1.148-.227-.612-5.082-.413-6.547.063-.455 1.447-.852 1.72-.555.035.11.07.224.103.34zM64.71 59.1c-.307.057-.603-.148-.66-.453-.056-.307.15-.6.458-.654.307-.057.604.146.66.45.056.307-.15.602-.457.657zM64.938 60.504c-.308.057-.604-.146-.66-.453-.055-.306.148-.6.457-.655.31-.055.604.148.66.455.055.304-.15.6-.457.654zM64.915 61.863c-.31.057-.604-.148-.66-.453-.058-.307.148-.6.456-.656.31-.055.605.148.66.455.06.304-.148.6-.455.653zM64.728 63.162c-.308.055-.604-.148-.66-.453-.055-.308.15-.603.457-.657.31-.057.604.148.66.453.055.307-.15.6-.457.656zM64.23 64.426c-.306.057-.602-.146-.66-.453-.054-.305.15-.6.458-.656.31-.055.604.148.66.455.057.304-.148.6-.457.654zM63.192 65.367c-.31.055-.604-.148-.66-.453-.056-.307.148-.602.456-.656.31-.055.604.148.66.453.056.308-.147.6-.456.657zM62.14 64.594c-.308.057-.603-.148-.66-.453-.055-.306.148-.6.457-.655.31-.055.605.148.66.453.055.306-.148.6-.456.656zM61.943 63.184c-.31.057-.604-.146-.66-.453-.056-.304.147-.6.456-.655.308-.055.603.148.66.453.055.306-.15.6-.457.656zM61.9 61.627c-.31.055-.605-.148-.66-.455-.056-.305.147-.6.456-.654.31-.057.604.146.66.453s-.148.6-.457.657zM62.042 60.246c-.31.055-.604-.148-.66-.453-.057-.307.148-.6.456-.656s.604.148.66.453c.056.306-.15.6-.456.656z"/></g><g><path d="M60.767 62.79c.71 2.138.75 6.923-1.123 6.813-1.158-.18-.828-5.053-.69-6.525.044-.457 1.41-.91 1.694-.625.04.108.08.22.12.336zM61.323 64.018c-.306.068-.61-.12-.68-.426-.068-.303.123-.605.428-.674.307-.066.612.123.682.426.067.302-.124.605-.43.674zM61.61 65.412c-.306.068-.61-.123-.68-.426s.123-.605.428-.674c.306-.07.61.12.68.426.068.303-.123.604-.428.674zM61.643 66.77c-.306.07-.61-.122-.68-.425-.068-.305.124-.605.43-.674.306-.07.61.122.68.427.068.303-.125.604-.43.674zM61.51 68.076c-.304.068-.61-.123-.677-.426-.07-.305.123-.605.43-.674s.607.12.678.426c.07.303-.124.606-.43.674zM61.07 69.36c-.306.067-.61-.124-.68-.427-.07-.303.123-.605.43-.674.306-.07.61.12.677.425.07.303-.12.606-.427.674zM60.07 70.344c-.307.068-.61-.123-.68-.428-.07-.303.124-.605.43-.672.305-.068.61.12.678.424.07.305-.123.605-.43.676zM58.987 69.613c-.306.068-.61-.12-.68-.426-.068-.303.123-.605.428-.674.306-.068.61.123.68.426s-.123.605-.428.673zM58.73 68.213c-.307.068-.612-.123-.68-.424-.07-.304.123-.608.43-.677s.608.123.678.428c.068.304-.124.605-.43.673zM58.62 66.658c-.306.068-.61-.12-.68-.426-.068-.303.124-.604.43-.674.305-.068.61.123.68.426s-.125.606-.43.674zM58.703 65.273c-.306.068-.61-.12-.68-.426-.068-.303.124-.605.43-.674s.61.123.68.426-.124.605-.43.673z"/></g><g><path d="M57.487 63.703c-.357 2.225-2.525 6.498-4.142 5.547-.945-.688 1.595-4.867 2.396-6.113.25-.387 1.675-.168 1.794.215-.013.115-.027.23-.047.35zM57.414 65.05c-.304-.08-.486-.386-.407-.69.078-.3.39-.48.692-.403.3.08.483.387.406.69-.08.3-.388.48-.692.402zM57.025 66.418c-.303-.078-.485-.385-.407-.688.078-.3.39-.48.692-.404.302.078.485.387.407.688-.078.3-.388.482-.692.404zM56.43 67.643c-.304-.078-.485-.387-.408-.688.08-.3.39-.482.692-.404.304.08.485.386.407.687-.078.302-.388.484-.69.406zM55.712 68.742c-.305-.078-.486-.387-.408-.688.08-.3.39-.48.69-.404.305.078.487.387.408.688s-.388.482-.69.404zM54.726 69.682c-.302-.078-.485-.387-.406-.686.078-.3.39-.482.69-.404.304.078.485.385.407.686-.077.3-.39.482-.69.404zM53.384 70.102c-.303-.078-.485-.385-.406-.686.078-.3.39-.482.69-.406.304.08.487.387.407.69-.078.298-.388.48-.69.402zM52.757 68.963c-.304-.078-.486-.387-.407-.688.08-.303.39-.482.692-.404.303.077.484.386.407.687-.08.3-.39.482-.693.406zM53.175 67.6c-.304-.078-.487-.385-.407-.688.077-.3.39-.482.69-.404.303.078.486.387.407.688-.078.3-.388.482-.69.404zM53.794 66.168c-.303-.078-.485-.387-.406-.688.077-.3.39-.482.69-.404.303.08.485.387.407.688s-.388.482-.69.404zM54.505 64.975c-.302-.078-.485-.387-.406-.688.077-.3.39-.482.69-.404.303.078.486.387.408.688-.08.3-.388.483-.693.405z"/></g><g><path d="M58.696 65.174c.105 2.756-1.474 8.402-3.642 7.643-1.302-.602.746-6.225 1.41-7.912.207-.52 1.968-.598 2.204-.166.014.14.02.283.028.434zM58.933 66.807c-.384-.02-.677-.348-.653-.73.02-.38.35-.67.732-.647.382.02.677.348.653.73-.02.377-.35.668-.732.647zM58.794 68.543c-.383-.02-.676-.348-.654-.73.023-.38.352-.67.734-.647.383.02.676.348.654.73-.02.377-.35.668-.734.647zM58.372 70.154c-.383-.02-.676-.35-.654-.73.02-.38.352-.67.734-.65.382.022.675.35.653.73-.02.38-.35.672-.733.65zM57.773 71.645c-.383-.02-.676-.348-.654-.727.02-.38.35-.672.733-.65.382.02.675.35.653.73-.02.38-.35.67-.733.647zM56.815 73.008c-.383-.02-.676-.348-.654-.73.023-.38.353-.67.735-.65.383.024.676.35.652.73-.02.38-.35.67-.732.65zM55.304 73.83c-.382-.02-.675-.35-.653-.73.024-.38.353-.67.735-.65.382.024.675.35.653.73-.02.38-.35.672-.734.65zM54.277 72.607c-.383-.02-.676-.348-.652-.73.02-.378.35-.67.733-.647.383.02.676.348.652.73-.02.378-.35.67-.733.647zM54.45 70.875c-.38-.02-.674-.35-.652-.73.02-.38.352-.67.734-.65.382.022.675.35.653.73-.02.38-.35.67-.734.65zM54.853 69.008c-.383-.02-.676-.35-.654-.73.022-.38.35-.67.733-.65.383.024.676.35.654.73-.022.38-.352.67-.734.65zM55.42 67.406c-.38-.023-.676-.35-.652-.73.02-.38.352-.67.734-.648.382.02.675.348.653.73-.023.38-.35.67-.734.648z"/></g><g><path d="M46.73 68.936c1.216 2.45 2.08 8.19-.188 8.37-1.422-.022-1.852-5.93-1.938-7.72-.025-.557 1.538-1.328 1.927-1.033.07.12.137.248.2.383zM47.607 70.318c-.354.133-.753-.045-.887-.398-.134-.352.045-.748.4-.88.355-.134.753.044.888.395.135.354-.044.75-.4.883zM48.188 71.943c-.354.133-.752-.045-.887-.398-.134-.352.046-.746.4-.88.355-.134.755.044.888.397.136.352-.044.747-.4.88zM48.462 73.568c-.356.135-.754-.045-.89-.396-.133-.352.046-.746.402-.88.354-.134.753.044.887.397.135.35-.044.746-.398.878zM48.525 75.158c-.354.135-.753-.045-.887-.396-.135-.354.044-.748.4-.883.354-.134.753.044.887.397.136.352-.045.748-.4.88zM48.212 76.773c-.354.133-.752-.045-.887-.396-.134-.354.045-.748.4-.88.353-.136.752.042.888.395.132.354-.047.75-.4.88zM47.18 78.123c-.355.133-.753-.045-.888-.398-.134-.354.045-.748.4-.88.355-.134.753.044.888.395.134.354-.045.75-.4.883zM45.755 77.428c-.355.135-.754-.043-.887-.396-.135-.352.045-.748.4-.88.354-.134.752.044.887.395.134.353-.045.748-.4.88zM45.208 75.79c-.354.134-.753-.044-.887-.397-.134-.352.046-.748.4-.88s.753.044.888.397c.133.352-.045.746-.4.88zM44.813 73.94c-.355.136-.753-.042-.89-.395-.133-.354.048-.748.402-.88.354-.136.752.042.887.395.135.354-.044.75-.4.88zM44.676 72.266c-.354.133-.753-.045-.887-.398-.137-.352.044-.746.398-.88.354-.134.753.044.887.395.136.353-.045.748-.4.883z"/></g><g><path d="M53.646 67.775c-.657 2.158-3.388 6.1-4.857 4.94-.847-.808 2.24-4.608 3.205-5.735.3-.352 1.68.057 1.747.45-.03.115-.06.228-.096.345zM53.39 69.1c-.29-.12-.428-.45-.31-.736.12-.287.45-.426.74-.307.29.117.43.447.31.734-.118.29-.45.427-.74.31zM52.82 70.402c-.29-.117-.43-.447-.31-.734.118-.287.45-.426.74-.307.29.118.428.448.31.735-.12.29-.45.426-.74.307zM52.062 71.535c-.29-.117-.43-.447-.31-.734.118-.286.45-.425.74-.308.29.12.428.45.31.736-.117.288-.45.426-.74.307zM51.2 72.53c-.29-.118-.428-.448-.31-.735.12-.29.45-.426.74-.31.288.118.427.448.31.737-.12.288-.45.426-.74.307zM50.097 73.328c-.29-.117-.43-.447-.31-.734.118-.29.45-.426.738-.31.29.12.43.448.312.737-.12.29-.452.427-.74.308zM48.708 73.564c-.29-.12-.428-.447-.31-.736.12-.287.452-.426.74-.307.29.118.43.448.31.735-.118.29-.45.427-.74.31zM48.243 72.35c-.29-.117-.43-.45-.31-.734.118-.29.45-.426.74-.31s.428.448.31.737c-.117.287-.45.424-.74.307zM48.84 71.057c-.288-.117-.427-.447-.308-.734.117-.29.45-.426.74-.31.29.12.428.448.31.737-.118.287-.45.426-.74.307zM49.65 69.72c-.288-.116-.43-.446-.31-.733s.452-.426.74-.307c.29.117.43.447.312.734-.12.287-.452.426-.74.307zM50.52 68.635c-.29-.12-.43-.45-.31-.736.118-.288.45-.427.74-.308.29.117.43.447.31.734-.118.29-.45.426-.74.31z"/></g><g><path d="M44.56 70.184c-.656 2.156-3.39 6.098-4.858 4.938-.845-.805 2.24-4.607 3.206-5.736.3-.348 1.68.06 1.747.455-.03.11-.06.224-.096.344zM44.303 71.506c-.288-.117-.427-.447-.31-.734.12-.29.45-.426.74-.31.29.12.43.448.31.737-.118.286-.45.423-.74.306zM43.732 72.81c-.29-.116-.43-.446-.31-.733.118-.29.45-.426.74-.31.29.12.428.448.31.735-.118.29-.45.426-.74.31zM42.976 73.94c-.29-.116-.43-.446-.313-.733.12-.287.452-.426.742-.307.288.117.43.447.31.734-.118.29-.45.427-.74.307zM42.113 74.938c-.29-.12-.43-.45-.31-.736.118-.29.45-.426.74-.307.29.117.428.447.31.734-.12.286-.452.425-.74.308zM41.01 75.736c-.29-.12-.43-.45-.312-.736.12-.287.45-.426.74-.307.29.117.43.447.31.734s-.45.427-.74.31zM39.622 75.97c-.29-.116-.43-.446-.31-.733.118-.287.45-.426.74-.31s.43.448.31.737c-.118.287-.45.426-.74.307zM39.157 74.756c-.29-.117-.43-.447-.31-.734.118-.29.45-.426.74-.31.29.12.428.45.31.737-.12.286-.452.425-.74.306zM39.755 73.465c-.29-.12-.43-.45-.31-.736.118-.29.452-.427.74-.308.29.117.43.447.31.734s-.45.426-.74.31zM40.564 72.13c-.29-.118-.43-.448-.31-.737.12-.287.45-.424.74-.307s.43.447.31.734c-.117.29-.45.426-.74.31zM41.432 71.04c-.288-.116-.428-.446-.31-.733.12-.29.45-.426.74-.31.29.12.43.45.31.737s-.45.426-.74.307z"/></g><g><path d="M39.445 70.252c-1.31 1.842-5.155 4.725-6.183 3.162-.543-1.03 3.596-3.668 4.868-4.436.396-.236 1.575.584 1.513.98-.06.097-.128.194-.198.294zM38.78 71.428c-.237-.2-.264-.56-.06-.795.204-.234.564-.262.8-.06.237.204.266.56.062.796-.205.234-.564.26-.802.058zM37.824 72.486c-.237-.2-.264-.56-.06-.795.205-.233.564-.26.8-.058.237.203.266.56.062.795-.205.237-.564.262-.802.06zM36.745 73.322c-.238-.2-.264-.56-.06-.793.204-.237.564-.265.8-.062.237.203.265.56.062.795-.205.237-.565.262-.802.06zM35.612 73.996c-.238-.203-.265-.56-.06-.795.204-.235.563-.26.8-.058.238.2.265.56.06.793-.204.237-.563.264-.8.06zM34.31 74.408c-.237-.203-.264-.56-.06-.795.205-.236.563-.262.8-.06.238.202.266.56.06.796-.203.234-.562.26-.8.058zM32.92 74.195c-.237-.2-.265-.56-.062-.795.205-.234.564-.262.803-.06.236.204.265.562.06.796-.204.235-.564.262-.8.06zM32.864 72.898c-.238-.203-.265-.56-.06-.795.204-.236.563-.262.8-.06.238.202.265.56.06.796-.204.234-.563.26-.8.058zM33.843 71.86c-.238-.204-.264-.56-.06-.796.204-.236.562-.262.8-.06.237.202.265.56.06.794-.204.237-.563.265-.8.06zM35.036 70.846c-.237-.2-.266-.56-.06-.795.203-.233.562-.26.8-.058s.266.56.06.795c-.204.234-.563.262-.8.06zM36.205 70.088c-.237-.203-.264-.56-.06-.795.205-.236.563-.264.8-.06s.265.558.062.794c-.205.237-.565.262-.802.06z"/></g><g><path d="M33.412 70.703c-1.23 1.893-4.948 4.934-6.04 3.416-.588-1.007 3.436-3.817 4.676-4.636.385-.254 1.598.516 1.553.914-.058.1-.12.202-.188.305zM32.8 71.904c-.245-.19-.287-.547-.092-.79.192-.245.55-.286.795-.095.247.192.29.548.095.792-.195.243-.553.286-.798.092zM31.89 73.002c-.246-.193-.288-.55-.095-.793.194-.243.552-.286.8-.093.244.193.285.547.092.79-.196.245-.55.288-.798.095zM30.847 73.883c-.246-.193-.29-.55-.095-.79.194-.247.552-.286.798-.095.245.193.288.55.094.79-.195.245-.553.288-.797.095zM29.742 74.602c-.247-.193-.288-.547-.095-.79.195-.245.553-.288.798-.095s.288.547.094.793c-.195.242-.553.285-.798.092zM28.458 75.066c-.246-.19-.287-.547-.093-.79s.552-.286.797-.095c.245.194.288.55.095.794-.195.245-.553.286-.8.092zM27.06 74.914c-.246-.193-.287-.547-.094-.79.195-.245.553-.288.798-.095.245.19.286.546.093.79s-.55.287-.796.094zM26.95 73.62c-.246-.194-.288-.55-.094-.792.193-.244.55-.287.796-.094.247.193.288.55.095.79-.195.246-.553.287-.798.095zM27.884 72.54c-.245-.192-.287-.548-.093-.792s.553-.285.797-.092c.247.19.29.547.094.79-.192.245-.55.286-.796.093zM29.032 71.48c-.244-.194-.288-.55-.094-.792.196-.244.553-.287.8-.094.244.193.286.55.092.79-.194.245-.552.288-.798.095zM30.17 70.672c-.246-.193-.288-.55-.093-.793.193-.243.552-.286.797-.093s.287.547.093.79c-.194.245-.55.286-.798.095z"/></g><g><path d="M28.896 67.45c-2.07.92-6.86 1.45-6.94-.41.063-1.163 4.976-1.335 6.466-1.353.46-.004 1.056 1.3.8 1.61-.106.053-.212.103-.326.152zM27.722 68.125c-.1-.295.06-.615.356-.715s.62.06.72.355c.1.295-.06.613-.357.713-.295.1-.618-.058-.718-.353zM26.354 68.55c-.1-.294.062-.614.357-.714.297-.098.62.06.72.355.1.296-.06.614-.356.714-.298.1-.62-.058-.72-.353zM24.997 68.723c-.1-.293.06-.613.357-.713s.62.06.72.354c.098.295-.062.615-.358.715s-.62-.062-.72-.357zM23.677 68.73c-.1-.298.06-.616.356-.716.296-.1.618.06.72.354s-.062.615-.357.715c-.298.1-.62-.062-.72-.354zM22.346 68.424c-.1-.297.06-.615.356-.715s.62.058.72.353c.1.295-.062.615-.357.713-.298.1-.62-.06-.72-.352zM21.26 67.537c-.1-.297.058-.615.355-.715.296-.1.618.06.72.354s-.062.615-.357.715c-.298.098-.62-.06-.72-.353zM21.876 66.39c-.1-.294.062-.614.357-.712.296-.1.62.06.72.354.1.295-.06.615-.357.715-.296.097-.618-.06-.72-.356zM23.253 65.994c-.1-.295.06-.615.356-.715.297-.1.62.058.717.353.103.295-.06.615-.355.715s-.62-.06-.72-.354zM24.8 65.727c-.1-.295.06-.615.355-.715.297-.098.62.06.72.354.1.295-.06.617-.356.715-.298.1-.62-.06-.72-.353zM26.195 65.666c-.1-.295.06-.615.356-.715.297-.097.62.062.72.356s-.06.615-.356.713c-.296.1-.618-.06-.72-.354z"/></g><g><path d="M28.318 69.26c-2.27 1.594-7.893 3.367-8.437 1.148-.204-1.41 5.66-2.78 7.444-3.15.554-.115 1.58 1.31 1.344 1.742-.108.086-.226.172-.35.26zM27.07 70.348c-.192-.33-.076-.752.255-.94.334-.19.76-.075.95.255.19.33.075.752-.257.94-.333.19-.76.075-.95-.255zM25.53 71.184c-.19-.33-.075-.754.256-.943.334-.187.76-.073.95.257.19.33.074.752-.257.943-.333.19-.76.074-.95-.256zM23.94 71.713c-.19-.332-.075-.754.258-.943s.757-.074.948.256c.19.33.075.752-.258.94-.33.19-.756.077-.948-.253zM22.355 72.03c-.19-.33-.075-.753.257-.942.334-.19.76-.076.95.254.19.332.074.754-.26.943s-.755.074-.947-.256zM20.683 71.98c-.19-.33-.074-.755.26-.944.33-.19.756-.074.947.256.19.33.075.752-.258.943-.333.19-.76.074-.95-.256zM19.165 71.17c-.19-.33-.076-.752.256-.94.334-.19.76-.077.95.255.19.33.074.752-.257.94-.332.19-.757.075-.948-.255zM19.634 69.648c-.19-.33-.076-.752.256-.94.333-.19.76-.075.95.255.19.33.075.752-.258.94-.332.19-.757.076-.948-.255zM21.19 68.846c-.19-.33-.076-.752.258-.94.332-.19.758-.077.95.253.188.33.072.753-.26.942-.33.19-.757.074-.948-.256zM22.983 68.158c-.19-.33-.074-.752.257-.94.333-.19.76-.077.948.253.19.333.078.755-.256.944-.332.19-.758.074-.95-.256zM24.646 67.756c-.19-.33-.074-.752.258-.94.33-.19.757-.077.948.253.19.33.075.753-.257.942s-.758.074-.95-.256z"/></g><g><path d="M18.233 60.803c-1.402 2.35-5.77 6.205-7.162 4.418-.757-1.192 3.986-4.782 5.45-5.83.456-.325 1.963.552 1.926 1.036-.064.123-.135.248-.213.377zM17.546 62.287c-.306-.223-.373-.65-.148-.955.222-.305.654-.373.96-.148.308.22.374.65.15.955-.224.3-.654.37-.962.147zM16.493 63.658c-.307-.22-.374-.65-.15-.955.225-.305.655-.37.962-.148.308.223.373.65.15.955-.224.304-.654.37-.962.148zM15.27 64.773c-.306-.223-.374-.65-.148-.955.224-.305.654-.37.96-.148.308.22.376.65.152.955-.226.303-.657.37-.963.148zM13.965 65.695c-.306-.223-.373-.65-.148-.955.222-.305.654-.37.96-.148s.376.65.15.955c-.224.305-.655.37-.962.148zM12.432 66.318c-.306-.223-.373-.65-.15-.955s.656-.37.963-.148c.308.223.374.65.15.955-.224.305-.656.37-.963.148zM10.73 66.195c-.307-.22-.373-.65-.15-.955.225-.303.655-.37.964-.148.305.223.373.65.147.955-.222.305-.652.373-.96.148zM10.536 64.633c-.305-.223-.373-.65-.15-.955s.656-.37.963-.148c.305.22.373.65.15.955s-.656.37-.964.148zM11.62 63.28c-.308-.22-.374-.65-.15-.954.224-.303.653-.37.962-.148.306.223.373.65.15.955s-.656.37-.963.148zM12.962 61.943c-.307-.223-.373-.65-.15-.955s.656-.37.962-.148c.307.22.375.65.15.955-.225.303-.655.37-.962.148zM14.3 60.912c-.305-.22-.372-.65-.148-.953.224-.306.655-.374.962-.15.308.222.374.65.15.954-.224.304-.657.37-.963.148z"/></g><g><path d="M23.364 66.482c-2.18.633-6.997.516-6.822-1.34.22-1.145 5.11-.654 6.59-.47.46.058.87 1.43.572 1.7-.11.038-.223.075-.34.11zM22.106 66.992c-.06-.305.145-.6.45-.658.31-.06.606.143.665.447s-.142.603-.45.66-.605-.14-.664-.448zM20.694 67.23c-.06-.305.144-.6.452-.658.307-.06.604.14.663.447.06.304-.145.6-.45.66-.308.056-.607-.143-.666-.45zM19.327 67.22c-.06-.306.143-.6.45-.66.307-.058.605.142.664.448.06.305-.144.6-.45.66-.307.057-.606-.143-.663-.45zM18.018 67.047c-.06-.307.144-.602.45-.66.31-.06.604.143.664.447.06.307-.143.602-.45.66-.308.057-.606-.142-.664-.447zM16.74 66.566c-.06-.307.144-.602.45-.66.31-.06.606.14.663.447.06.305-.142.602-.45.66-.306.06-.604-.142-.663-.447zM15.782 65.54c-.06-.306.145-.6.452-.66s.604.144.663.448-.142.602-.45.66-.604-.142-.665-.447zM16.552 64.488c-.06-.305.145-.602.45-.658.31-.06.606.143.665.447s-.143.602-.45.66c-.307.06-.607-.142-.665-.45zM17.97 64.28c-.06-.306.144-.6.45-.66s.606.144.665.448-.143.602-.45.66c-.308.06-.605-.142-.665-.447zM19.54 64.223c-.06-.305.143-.6.45-.658.307-.06.605.14.664.447.06.305-.145.602-.452.66-.306.058-.604-.143-.663-.45zM20.93 64.352c-.06-.307.144-.602.45-.66.308-.06.607.143.664.45.06.304-.144.6-.45.657-.308.057-.607-.144-.663-.448z"/></g><g><path d="M16.366 60.24c-2.178.635-6.996.518-6.82-1.34.218-1.143 5.113-.654 6.59-.47.457.06.868 1.43.572 1.702-.11.038-.224.075-.342.108zM15.11 60.752c-.06-.305.144-.602.452-.66.306-.06.604.143.663.45.06.304-.144.6-.45.657-.308.058-.606-.143-.665-.448zM13.698 60.99c-.06-.305.143-.602.45-.66.308-.06.605.143.664.45.06.304-.142.6-.45.657s-.604-.142-.664-.447zM12.33 60.98c-.06-.306.144-.603.45-.66s.604.142.665.446c.06.307-.144.602-.452.66-.306.058-.604-.143-.663-.447zM11.02 60.805c-.06-.305.145-.6.45-.658.31-.06.607.143.666.447s-.144.602-.45.66c-.31.06-.607-.145-.665-.45zM9.744 60.324c-.06-.307.144-.602.45-.66s.605.143.664.45c.06.304-.143.6-.45.657-.307.06-.605-.14-.664-.446zM8.786 59.3c-.06-.306.144-.6.452-.66.307-.058.604.144.663.448.062.305-.143.602-.45.66-.306.06-.605-.144-.664-.45zM9.556 58.248c-.06-.305.144-.6.452-.658.307-.06.604.14.663.445.06.307-.143.602-.45.66-.308.06-.606-.142-.664-.447zM10.973 58.04c-.06-.306.144-.6.452-.66.307-.058.604.144.663.448s-.144.6-.45.658-.607-.142-.665-.447zM12.54 57.982c-.058-.305.145-.6.453-.66.307-.057.604.143.663.45.06.304-.144.6-.45.66-.307.056-.604-.143-.665-.45zM13.934 58.11c-.06-.306.142-.6.45-.66.307-.058.604.142.663.448.06.305-.142.602-.45.66-.307.06-.605-.142-.663-.45z"/></g><g><path d="M13.51 56.025c-2.267-.082-6.8-1.703-6.044-3.41.57-1.018 5.06.984 6.4 1.623.418.197.37 1.63.003 1.793-.115.003-.235 0-.36-.005zM12.157 56.117c.042-.31.327-.525.637-.484.312.04.53.326.49.633-.043.31-.328.525-.64.484-.31-.04-.528-.324-.487-.633zM10.74 55.9c.043-.31.328-.525.64-.484.31.04.527.326.487.633-.042.308-.327.524-.638.483-.31-.04-.53-.324-.49-.633zM9.446 55.46c.04-.308.327-.524.637-.483.312.04.53.324.49.633-.043.31-.328.525-.64.484-.31-.04-.527-.326-.487-.633zM8.26 54.885c.04-.31.327-.525.638-.484.31.042.53.327.487.634-.04.31-.327.525-.638.486-.31-.04-.528-.327-.486-.635zM7.2 54.027c.042-.31.328-.525.64-.484s.526.324.487.635c-.042.306-.327.523-.638.484-.312-.04-.53-.326-.49-.635zM6.62 52.756c.04-.31.326-.525.637-.484.31.04.528.324.486.633-.04.31-.326.525-.637.484-.31-.042-.528-.326-.486-.634zM7.684 52c.042-.31.327-.525.637-.484.313.04.53.324.49.633-.042.308-.328.524-.64.483s-.528-.324-.486-.633zM9.095 52.246c.04-.31.327-.525.64-.484.31.04.527.324.486.633-.04.31-.326.525-.637.484-.31-.042-.528-.325-.488-.634zM10.602 52.684c.04-.31.327-.525.637-.484.31.04.53.326.486.633-.04.31-.327.525-.637.484-.312-.042-.53-.325-.488-.633zM11.882 53.242c.04-.31.324-.527.637-.484.31.04.527.324.485.633-.04.31-.326.526-.637.485-.31-.04-.528-.324-.486-.633z"/></g><g><path d="M9.835 51.258c-2.27.01-6.865-1.42-6.184-3.158.53-1.037 5.097.77 6.465 1.355.426.182.44 1.61.08 1.79-.116.01-.237.01-.36.013zM8.487 51.404c.027-.31.304-.54.617-.51.31.027.54.3.513.61-.03.31-.306.54-.616.51-.312-.026-.542-.3-.513-.61zM7.063 51.246c.027-.31.304-.54.615-.512.313.027.543.303.516.613-.028.31-.306.54-.617.51-.31-.027-.543-.302-.514-.61zM5.75 50.86c.03-.31.307-.538.616-.51.313.028.543.302.516.61-.03.31-.306.54-.617.512-.312-.03-.54-.302-.514-.613zM4.54 50.334c.03-.31.305-.54.617-.51.312.027.542.303.514.613-.026.31-.304.537-.616.51-.31-.027-.542-.302-.513-.613zM3.447 49.523c.028-.31.304-.54.615-.512s.543.304.514.614c-.027.31-.304.537-.615.51-.313-.027-.542-.302-.513-.61zM2.812 48.275c.028-.31.306-.54.617-.51.31.027.54.3.51.61-.026.31-.303.54-.614.51-.31-.026-.544-.3-.514-.61zM3.844 47.477c.028-.31.304-.54.615-.512s.542.303.514.613c-.03.31-.305.537-.616.51s-.544-.303-.514-.61zM5.264 47.662c.028-.31.304-.537.617-.51.313.03.542.303.515.613-.028.31-.306.54-.617.51-.312-.027-.542-.302-.514-.613zM6.788 48.04c.027-.312.303-.54.616-.513.312.03.542.303.514.613-.03.31-.306.537-.616.51-.313-.027-.542-.302-.514-.61zM8.09 48.543c.027-.31.304-.54.616-.512.312.028.54.304.514.614-.03.31-.306.537-.617.51-.313-.027-.543-.302-.514-.61z"/></g><g><path d="M9.315 46.05c-1.92-1.198-5.03-4.856-3.515-5.958 1.007-.594 3.883 3.365 4.725 4.586.26.38-.5 1.594-.9 1.553-.102-.054-.203-.115-.31-.18zM8.097 45.455c.19-.246.548-.29.797-.102.247.19.294.543.103.79-.19.247-.548.292-.796.103-.247-.19-.293-.543-.103-.79zM6.98 44.564c.192-.246.55-.293.797-.104.25.19.295.545.104.79s-.547.294-.795.103c-.248-.19-.294-.542-.104-.79zM6.08 43.54c.192-.247.55-.292.8-.103.247.19.292.543.1.79-.188.247-.547.292-.795.103s-.295-.545-.104-.79zM5.345 42.453c.19-.248.55-.293.795-.104.248.188.295.542.104.79-.19.246-.547.29-.796.102-.25-.19-.295-.545-.103-.79zM4.86 41.184c.19-.246.547-.293.795-.102.25.19.293.543.104.79-.192.245-.548.29-.796.103-.25-.192-.295-.545-.104-.79zM4.997 39.793c.19-.246.548-.293.796-.104.248.19.294.543.104.79-.19.246-.548.293-.796.104-.247-.19-.294-.545-.103-.79zM6.3 39.667c.19-.246.548-.292.795-.103.248.19.295.544.104.79s-.55.292-.797.103c-.248-.19-.294-.543-.103-.79zM7.396 40.582c.19-.246.55-.293.798-.104.246.19.293.545.102.79-.19.247-.548.294-.796.105-.247-.19-.293-.545-.104-.79zM8.48 41.71c.19-.247.548-.292.796-.103s.295.545.104.79c-.19.245-.547.292-.796.103-.248-.19-.294-.545-.103-.79zM9.308 42.828c.19-.246.547-.29.796-.102.248.19.294.543.103.79-.19.247-.547.292-.797.103-.247-.19-.294-.546-.102-.792z"/></g><g><path d="M7.48 46.578c-2.596-.984-7.207-4.64-5.652-6.324 1.067-.953 5.472 3.123 6.776 4.393.404.393-.22 2.03-.71 2.078-.136-.045-.272-.094-.413-.147zM5.875 46.152c.17-.34.587-.48.93-.31s.485.583.314.925c-.17.34-.588.48-.933.31-.343-.17-.483-.583-.312-.925zM4.32 45.348c.17-.342.587-.48.932-.313.342.17.483.584.313.926-.17.34-.587.48-.93.312-.346-.17-.486-.584-.315-.924zM2.994 44.328c.17-.34.587-.48.932-.31.342.17.483.583.313.925-.172.34-.588.48-.932.31-.345-.167-.485-.583-.314-.925zM1.847 43.197c.17-.342.588-.48.932-.313.34.17.483.586.312.926-.17.342-.587.48-.932.313-.345-.17-.484-.586-.313-.926zM.96 41.79c.17-.343.588-.48.932-.314.344.17.484.584.313.926-.17.34-.587.48-.932.31-.342-.167-.483-.58-.313-.923zM.792 40.086c.17-.34.588-.48.932-.312.342.17.484.583.313.925-.17.34-.588.48-.932.312-.344-.17-.485-.586-.313-.926zM2.325 39.627c.17-.342.59-.48.93-.313.346.17.485.584.316.925-.17.34-.59.48-.93.31-.344-.167-.485-.582-.315-.923zM3.864 40.467c.17-.342.587-.482.93-.313.344.17.485.584.314.924-.17.342-.588.482-.932.313s-.484-.583-.312-.923zM5.436 41.564c.17-.342.587-.482.93-.313s.485.585.314.927c-.17.34-.588.48-.932.31-.344-.167-.484-.583-.312-.923zM6.696 42.71c.17-.34.588-.48.932-.31.344.168.484.584.313.924-.17.342-.587.482-.93.313-.343-.17-.485-.584-.314-.926z"/></g><g><path d="M8.688 34.172c-2.748.15-8.403-1.31-7.682-3.454.58-1.29 6.22.63 7.913 1.257.523.194.625 1.926.2 2.164-.14.015-.285.027-.432.032zM7.062 34.432c.016-.377.337-.67.716-.654.38.015.676.334.66.71-.015.378-.338.67-.716.655-.38-.016-.675-.334-.66-.71zM5.33 34.326c.015-.376.335-.67.714-.655.38.017.676.336.66.712-.016.377-.336.67-.715.655-.382-.016-.677-.334-.66-.71zM3.716 33.936c.016-.376.336-.67.715-.654.38.016.677.334.66.71-.014.378-.336.67-.714.655-.38-.016-.676-.334-.66-.71zM2.218 33.373c.016-.377.337-.67.716-.655.38.016.674.334.66.71-.016.378-.338.67-.716.655-.38-.016-.675-.334-.66-.71zM.845 32.454c.015-.377.336-.67.715-.656.38.017.676.336.66.713-.016.376-.336.67-.715.655-.38-.016-.676-.334-.66-.71zM0 30.98c.017-.376.337-.67.716-.653.38.015.676.333.66.71-.017.376-.338.67-.717.655-.38-.016-.677-.335-.66-.71zM1.202 29.95c.016-.375.336-.67.716-.654.38.016.675.335.66.71-.016.378-.338.67-.718.656-.38-.016-.673-.334-.658-.71zM2.934 30.094c.016-.377.337-.672.716-.656s.676.334.658.71c-.016.378-.336.673-.715.656-.38-.015-.676-.334-.66-.71zM4.802 30.458c.016-.376.336-.67.715-.655.38.016.674.335.658.712-.015.377-.336.67-.715.654s-.674-.336-.658-.712zM6.408 30.99c.016-.377.336-.67.716-.653.38.014.676.334.66.71s-.338.67-.718.654c-.378-.014-.673-.333-.658-.71z"/></g><g><path d="M7.05 40.943c-1.74-1.444-4.32-5.486-2.67-6.375 1.078-.455 3.39 3.855 4.055 5.18.207.41-.713 1.51-1.104 1.417-.094-.07-.186-.142-.28-.222zM5.924 40.19c.222-.217.583-.215.802.007.22.22.218.578-.006.797-.222.22-.58.217-.802-.006-.22-.22-.218-.578.006-.797zM4.94 39.16c.222-.22.58-.216.802.005.22.22.218.578-.007.797-.222.218-.58.216-.8-.005-.22-.222-.218-.58.005-.798zM4.188 38.024c.222-.22.583-.217.802.004.22.223.22.58-.004.797-.225.22-.584.217-.804-.005s-.216-.58.006-.796zM3.604 36.846c.223-.22.583-.216.804.006.22.22.218.578-.007.797-.22.218-.58.214-.8-.007-.22-.22-.217-.578.004-.797zM3.298 35.524c.222-.218.583-.215.802.006.22.22.218.578-.005.797s-.582.216-.803-.006c-.22-.22-.218-.577.006-.796zM3.623 34.165c.222-.22.583-.215.802.006.22.222.22.58-.004.798-.222.218-.582.216-.803-.006-.22-.22-.216-.58.006-.797zM4.93 34.215c.223-.218.584-.215.803.006s.217.58-.005.798c-.224.22-.583.216-.804-.006-.218-.22-.217-.578.007-.797zM5.894 35.268c.223-.217.582-.215.803.007.22.22.218.578-.006.796-.22.22-.58.218-.8-.004-.222-.22-.22-.58.004-.798zM6.813 36.532c.225-.218.584-.215.804.006s.217.58-.005.797c-.224.22-.583.217-.802-.006-.223-.222-.22-.58.003-.798zM7.48 37.752c.224-.22.583-.217.803.005.22.22.216.58-.006.798-.222.217-.583.215-.802-.007-.22-.22-.218-.578.004-.796z"/></g><g><path d="M8.384 31.7c-1.742-1.446-4.322-5.487-2.673-6.375 1.08-.455 3.393 3.854 4.06 5.178.206.41-.715 1.512-1.106 1.418-.094-.07-.186-.142-.28-.22zM7.257 30.948c.223-.22.582-.217.802.004.22.222.218.58-.006.798s-.583.216-.802-.005c-.22-.223-.22-.58.005-.797zM6.272 29.915c.223-.22.583-.217.802.005.22.222.22.58-.005.797-.224.218-.583.216-.804-.005-.218-.22-.215-.58.006-.797zM5.52 28.777c.223-.218.582-.215.803.005.22.223.218.58-.004.798-.226.218-.585.216-.805-.005-.22-.222-.217-.578.006-.798zM4.938 27.6c.223-.218.583-.215.802.006.22.22.218.578-.005.797s-.582.216-.803-.006c-.22-.22-.217-.578.006-.797zM4.632 26.28c.222-.22.583-.217.802.004.22.222.218.58-.006.798-.223.218-.583.216-.802-.005-.22-.223-.218-.58.006-.798zM4.956 24.92c.223-.22.582-.217.803.004.22.222.217.58-.005.798-.225.218-.584.216-.804-.007-.22-.22-.217-.578.006-.796zM6.263 24.97c.223-.218.584-.216.804.005.22.222.218.58-.006.798-.22.218-.58.216-.8-.007-.222-.22-.22-.578.003-.796zM7.228 26.024c.222-.22.58-.215.803.005.22.22.218.578-.005.797-.223.218-.583.215-.804-.006-.218-.22-.217-.577.008-.796zM8.146 27.288c.224-.22.583-.217.804.004.22.223.217.58-.007.798-.222.22-.583.216-.802-.005-.22-.223-.217-.58.006-.797zM8.813 28.506c.224-.22.585-.216.804.006.22.22.217.578-.007.797-.222.218-.583.215-.802-.007s-.217-.578.005-.797z"/></g><g><path d="M10.323 27c-1.19-1.92-2.355-6.562-.507-6.887 1.17-.094 1.99 4.723 2.202 6.187.064.453-1.158 1.21-1.5.998-.066-.094-.13-.195-.195-.3zM9.494 25.932c.28-.137.62-.02.76.258.14.28.022.617-.26.754-.28.138-.62.02-.76-.256-.136-.28-.02-.618.26-.756zM8.888 24.643c.28-.137.623-.02.76.257.14.28.023.618-.258.756-.28.136-.622.02-.76-.258-.14-.278-.023-.617.258-.755zM8.536 23.33c.28-.138.622-.022.76.257.138.28.022.617-.258.754-.28.14-.622.024-.76-.255s-.022-.618.258-.755zM8.357 22.03c.28-.137.623-.02.76.258.138.278.023.617-.257.754-.282.138-.623.022-.76-.256-.14-.28-.023-.62.257-.756zM8.487 20.68c.28-.137.62-.022.76.257.138.278.02.616-.26.754s-.62.023-.76-.256-.02-.617.26-.754zM9.228 19.492c.28-.138.623-.02.762.257.137.278.02.616-.26.754s-.623.02-.76-.257c-.14-.28-.024-.618.258-.755zM10.452 19.95c.28-.137.623-.02.76.257.14.28.023.618-.258.756-.28.138-.623.02-.76-.258-.138-.28-.023-.62.258-.755zM11.03 21.252c.282-.138.623-.02.76.256.14.28.023.618-.258.756-.28.137-.62.02-.76-.258-.138-.278-.02-.617.26-.754zM11.502 22.74c.28-.138.62-.022.76.257.138.28.022.617-.26.754-.28.138-.62.023-.76-.256-.137-.28-.02-.62.26-.754zM11.747 24.105c.28-.138.62-.02.76.257.138.28.022.617-.26.754-.28.14-.62.022-.76-.256-.138-.28-.02-.617.26-.755z"/></g><g><path d="M12.27 21.313c-1.27-1.865-2.63-6.457-.797-6.86 1.165-.14 2.19 4.636 2.463 6.09.082.45-1.107 1.26-1.457 1.06-.07-.092-.14-.188-.21-.29zM11.398 20.282c.274-.148.62-.047.77.225.15.273.048.616-.227.766-.273.148-.62.047-.77-.226-.15-.273-.048-.617.228-.765zM10.738 19.02c.274-.15.62-.05.77.225.15.27.05.615-.228.765-.274.147-.618.048-.77-.226-.148-.273-.046-.616.228-.765zM10.33 17.72c.276-.147.62-.046.772.227.15.272.048.615-.23.765-.273.148-.617.048-.77-.226-.147-.273-.045-.616.23-.765zM10.1 16.43c.274-.148.62-.048.77.225.15.273.048.616-.227.766-.274.15-.62.048-.77-.225s-.05-.616.226-.765zM10.17 15.075c.275-.148.62-.047.77.226s.05.617-.226.766-.62.05-.77-.225c-.15-.273-.048-.616.227-.765zM10.86 13.858c.276-.148.62-.048.77.225.15.273.048.616-.226.766-.275.147-.62.046-.77-.227-.15-.273-.048-.617.226-.765zM12.104 14.264c.276-.148.62-.047.77.226.15.273.05.616-.226.765-.275.15-.62.05-.77-.225-.15-.274-.05-.616.226-.766zM12.737 15.542c.274-.148.62-.047.77.226.15.272.048.616-.227.764-.275.15-.62.05-.77-.224-.15-.275-.047-.618.227-.766zM13.27 17.007c.275-.148.62-.048.77.226.15.272.05.615-.226.765s-.62.048-.77-.226c-.15-.272-.05-.615.227-.765zM13.57 18.362c.277-.148.622-.047.772.226.15.272.048.615-.227.765-.275.148-.62.048-.77-.225-.15-.274-.048-.617.226-.766z"/></g><g><path d="M16.27 18.424c-.256-2.24.68-6.934 2.493-6.447 1.095.41-.224 5.113-.658 6.53-.134.437-1.567.604-1.786.27-.02-.114-.034-.232-.05-.353zM15.98 17.108c.31-.006.57.244.576.553.006.314-.244.57-.56.575-.31.006-.57-.242-.575-.553-.006-.31.244-.568.56-.574zM15.98 15.686c.314-.006.573.242.578.554.006.31-.243.567-.556.573-.314.006-.573-.242-.578-.553-.005-.31.245-.568.557-.574zM16.226 14.35c.314-.008.572.24.578.552s-.245.568-.557.573c-.313.006-.572-.242-.578-.553-.006-.31.244-.568.556-.573zM16.622 13.098c.313-.007.572.24.578.553.004.312-.245.57-.56.574-.312.005-.57-.243-.577-.554-.004-.31.246-.567.56-.572zM17.317 11.93c.312-.006.57.242.576.553.007.31-.243.568-.558.574-.312.005-.57-.244-.577-.555s.245-.566.56-.573zM18.497 11.167c.312-.007.572.242.576.553.005.312-.245.568-.557.575-.313.005-.572-.244-.578-.555s.246-.568.56-.573zM19.408 12.1c.313-.006.572.242.577.553.006.31-.244.568-.557.574-.313.004-.572-.243-.578-.555-.004-.31.245-.567.558-.573zM19.374 13.522c.312-.005.572.243.577.554.007.312-.242.567-.556.573s-.572-.243-.578-.554c-.006-.31.246-.568.558-.574zM19.163 15.067c.313-.006.572.242.578.553.006.31-.244.568-.558.574-.313.006-.57-.242-.576-.553-.005-.31.245-.567.557-.573zM18.8 16.407c.312-.006.57.242.578.553.004.31-.246.568-.56.574-.312.006-.57-.242-.576-.553-.006-.312.244-.568.557-.573z"/></g><g><path d="M14.708 17.33c-.846-2.628-.848-8.487 1.446-8.333 1.416.232.96 6.195.776 7.998-.058.56-1.735 1.1-2.078.747-.05-.133-.096-.268-.144-.412zM14.04 15.82c.375-.08.746.155.826.528.082.37-.155.74-.53.82-.374.08-.746-.156-.826-.53-.082-.37.155-.74.53-.82zM13.704 14.11c.375-.08.745.156.826.528.082.372-.155.74-.53.82-.374.08-.746-.155-.828-.527-.08-.37.157-.74.532-.82zM13.677 12.446c.374-.08.744.156.826.527.082.373-.157.74-.532.82-.373.082-.744-.155-.825-.527-.082-.37.157-.74.532-.82zM13.85 10.85c.376-.082.747.155.827.527.082.37-.157.74-.53.82-.376.08-.746-.156-.826-.527-.082-.373.158-.74.53-.82zM14.405 9.282c.373-.08.745.156.827.53.08.37-.157.737-.532.82-.375.08-.745-.157-.826-.53-.082-.37.157-.74.53-.82zM15.64 8.088c.375-.082.744.155.826.527s-.157.74-.532.82c-.374.082-.744-.156-.826-.527-.083-.37.157-.74.532-.82zM16.96 8.99c.373-.08.742.157.824.53s-.157.74-.53.82c-.375.08-.746-.156-.828-.528-.08-.372.157-.74.534-.82zM17.26 10.708c.374-.08.745.156.825.53.082.37-.157.74-.53.82-.375.08-.746-.157-.828-.528-.08-.373.16-.74.532-.822zM17.376 12.614c.375-.082.746.155.826.527.082.373-.157.74-.53.82-.376.083-.746-.154-.827-.526s.156-.74.53-.82zM17.26 14.308c.375-.08.747.155.83.528.08.37-.16.74-.534.82-.374.08-.744-.156-.826-.527-.083-.374.156-.74.53-.822z"/></g><g><path d="M24.574 11.388c-.796-2.617-.698-8.42 1.57-8.228 1.398.253.848 6.15.635 7.932-.068.553-1.737 1.06-2.072.706-.046-.13-.09-.268-.134-.41zM23.938 9.88c.372-.073.735.167.81.538.074.37-.168.73-.54.804-.373.073-.735-.167-.81-.536-.076-.37.167-.73.54-.805zM23.634 8.184c.37-.074.734.166.81.535.074.37-.168.73-.54.804-.373.074-.735-.167-.81-.537-.075-.37.167-.73.54-.803zM23.634 6.536c.373-.074.735.166.81.536.075.37-.168.73-.54.804-.373.074-.735-.167-.81-.537-.073-.37.168-.732.54-.804zM23.833 4.957c.37-.073.735.167.81.536.073.37-.167.73-.54.805-.373.073-.735-.167-.81-.537-.074-.37.168-.73.54-.803zM24.408 3.414c.373-.073.735.167.81.536.075.37-.168.73-.54.805-.372.073-.735-.167-.81-.537-.074-.37.168-.73.54-.804zM25.65 2.252c.372-.074.734.166.81.536.073.37-.168.73-.54.804-.372.074-.736-.166-.81-.536s.167-.73.54-.804zM26.94 3.168c.373-.074.735.166.81.537.075.37-.17.73-.54.803-.372.074-.735-.166-.81-.535s.168-.73.54-.805zM27.21 4.874c.37-.073.735.167.81.537.074.37-.168.73-.54.805-.373.073-.735-.167-.81-.536-.075-.372.168-.732.54-.806zM27.295 6.762c.37-.074.733.166.808.536.076.37-.166.73-.54.804-.37.074-.733-.167-.81-.536-.073-.37.17-.732.542-.804zM27.15 8.438c.372-.074.736.166.81.537.075.37-.167.73-.54.804-.37.072-.734-.168-.81-.537-.072-.37.17-.73.54-.805z"/></g><g><path d="M18.872 13.48c.05-2.255 1.617-6.78 3.346-6.055 1.033.554-.916 5.038-1.54 6.38-.193.418-1.634.392-1.805.03-.003-.117-.005-.235 0-.356zM18.76 12.135c.313.037.534.317.497.627-.037.31-.318.53-.63.492-.31-.036-.534-.316-.495-.626.035-.307.317-.53.63-.493zM18.958 10.727c.312.035.533.316.498.625-.037.31-.32.53-.63.494-.313-.037-.534-.316-.497-.627.036-.308.317-.53.628-.493zM19.384 9.434c.31.037.533.318.496.626-.037.31-.32.53-.63.493-.312-.035-.534-.316-.497-.625.035-.308.32-.53.63-.494zM19.945 8.248c.312.036.533.317.496.626s-.318.53-.628.492c-.312-.035-.534-.316-.498-.625.038-.308.32-.53.63-.492zM20.793 7.184c.31.036.534.316.497.625-.037.31-.32.53-.63.493-.312-.037-.534-.316-.498-.627.036-.307.32-.53.63-.492zM22.065 6.587c.312.037.533.317.496.626s-.317.53-.628.494c-.312-.037-.533-.318-.498-.627.038-.308.32-.53.63-.493zM22.84 7.633c.313.037.536.317.5.627-.038.31-.32.53-.632.493-.31-.037-.533-.317-.496-.626s.32-.53.63-.494zM22.614 9.04c.312.035.533.316.496.625-.036.31-.318.53-.63.494-.31-.038-.534-.32-.497-.628s.322-.53.63-.493zM22.194 10.54c.31.037.534.318.497.627s-.318.53-.628.494c-.312-.036-.535-.317-.498-.626s.32-.53.63-.493zM21.652 11.82c.31.036.533.315.496.626-.037.308-.32.53-.63.492-.31-.035-.534-.316-.497-.625s.32-.53.632-.494z"/></g><g><path d="M26.978 8.74c.05-2.253 1.615-6.778 3.346-6.052 1.032.553-.916 5.037-1.54 6.38-.194.417-1.635.392-1.806.028-.004-.116-.005-.233 0-.355zM26.864 7.397c.312.036.533.316.498.626-.037.31-.32.53-.63.493-.31-.035-.534-.317-.497-.625.036-.307.32-.53.63-.493zM27.063 5.99c.31.036.533.316.496.624-.038.31-.32.53-.63.494-.312-.036-.535-.316-.498-.626.038-.31.32-.53.63-.493zM27.487 4.696c.31.037.533.318.497.627-.036.308-.32.53-.63.492s-.535-.316-.498-.625.322-.53.63-.494zM28.05 3.51c.31.035.534.316.497.625s-.32.53-.63.494c-.313-.038-.534-.32-.5-.628.04-.308.322-.53.633-.493zM28.897 2.446c.31.037.533.317.498.625-.037.31-.32.532-.633.495-.31-.037-.533-.316-.495-.626.037-.31.32-.53.63-.494zM30.17 1.85c.31.035.533.316.496.625s-.32.53-.63.494c-.31-.038-.533-.318-.496-.628.037-.308.32-.53.63-.493zM30.946 2.895c.312.037.533.317.497.626-.037.31-.32.53-.63.494-.31-.036-.535-.316-.498-.626.038-.307.32-.53.63-.493zM30.718 4.3c.313.036.534.317.497.626-.036.31-.32.53-.63.493-.31-.037-.533-.318-.496-.627s.318-.53.628-.494zM30.3 5.802c.31.036.532.317.496.626s-.32.53-.63.494c-.312-.037-.533-.318-.496-.627.036-.308.32-.53.63-.493zM29.756 7.08c.312.038.534.318.498.628-.038.31-.32.53-.63.493-.313-.036-.534-.316-.497-.625.035-.31.32-.53.63-.494z"/></g><g><path d="M31.886 7.31c.764-2.122 3.688-5.923 5.1-4.692.802.85-2.472 4.492-3.493 5.57-.314.335-1.673-.142-1.72-.54.033-.11.07-.222.113-.337zM32.205 6c.283.133.407.47.274.75-.136.28-.474.404-.757.272s-.407-.47-.273-.75c.133-.28.473-.402.755-.27zM32.842 4.727c.282.133.405.47.272.75-.134.28-.472.402-.755.27-.285-.13-.407-.468-.274-.75.133-.28.472-.402.756-.27zM33.654 3.634c.284.132.407.468.273.75-.133.28-.472.4-.755.27-.283-.133-.406-.47-.272-.75.133-.28.472-.402.754-.27zM34.567 2.684c.282.132.404.47.27.75s-.47.402-.755.27c-.283-.13-.404-.467-.27-.748.132-.283.472-.405.755-.272zM35.708 1.94c.284.133.406.47.273.75s-.47.404-.755.27c-.282-.132-.405-.468-.272-.75.134-.28.472-.4.755-.27zM37.105 1.774c.284.133.405.47.273.75-.135.28-.472.403-.755.27-.283-.132-.406-.468-.272-.75.134-.28.472-.4.755-.27zM37.51 3.01c.284.132.405.47.272.75-.134.28-.472.402-.755.27-.282-.13-.406-.467-.273-.748.134-.282.474-.404.756-.272zM36.847 4.272c.283.133.405.47.273.75-.135.28-.473.402-.756.27-.282-.132-.406-.468-.273-.75.136-.28.474-.402.757-.27zM35.97 5.566c.285.132.408.47.273.75-.132.282-.472.402-.755.27-.282-.132-.405-.468-.27-.75.13-.28.47-.402.753-.27zM35.05 6.608c.282.133.406.47.273.75-.135.282-.473.402-.756.27-.283-.132-.405-.468-.273-.75.135-.28.474-.4.756-.27z"/></g><g><path d="M37.423 6.672c.78-2.478 3.96-6.995 5.645-5.646.966.94-2.626 5.29-3.747 6.58-.348.4-1.936-.082-2.007-.538.03-.128.07-.26.11-.396zM37.73 5.15c.333.14.49.522.35.852-.14.33-.522.485-.855.348-.332-.14-.49-.52-.35-.85.14-.332.523-.488.856-.35zM38.4 3.653c.332.14.49.52.35.85-.14.332-.52.487-.854.35-.333-.14-.49-.522-.352-.85.14-.332.523-.49.857-.35zM39.284 2.356c.334.14.49.52.35.85-.14.33-.523.487-.855.35-.333-.14-.49-.522-.35-.852.137-.33.522-.487.854-.348zM40.287 1.22c.33.138.49.52.35.85-.14.33-.524.485-.855.347-.333-.138-.49-.52-.35-.85s.522-.486.855-.348zM41.565.31c.333.138.49.52.352.85-.14.33-.524.485-.857.347s-.488-.52-.35-.85c.14-.33.522-.487.855-.348zM43.166.05c.333.138.49.52.35.85-.14.33-.522.487-.855.348-.332-.14-.49-.52-.35-.85.14-.33.523-.486.856-.348zM43.692 1.454c.33.14.488.52.35.85-.14.33-.524.486-.857.348-.33-.14-.488-.52-.35-.85s.523-.487.857-.348zM42.99 2.938c.332.14.49.52.35.85-.14.33-.523.486-.855.348-.333-.138-.49-.52-.352-.85.14-.33.524-.487.857-.348zM42.045 4.47c.332.138.49.52.35.85-.14.33-.523.485-.856.347-.333-.14-.49-.52-.35-.85.138-.33.522-.487.855-.348zM41.033 5.713c.333.14.49.52.35.85-.138.33-.522.486-.855.348-.33-.138-.488-.52-.35-.85.14-.33.524-.485.855-.347z"/></g><g><path d="M41.32 6.513c1.377-1.79 5.33-4.53 6.296-2.93.505 1.048-3.73 3.532-5.03 4.253-.403.22-1.553-.643-1.476-1.035.067-.094.136-.19.21-.287zM42.028 5.363c.23.212.242.57.03.797s-.573.24-.803.03c-.23-.212-.242-.57-.03-.797.213-.228.573-.24.803-.03zM43.024 4.34c.23.213.242.57.03.797-.214.23-.573.24-.803.03-.228-.212-.243-.57-.028-.797.214-.227.573-.24.802-.03zM44.133 3.545c.23.21.244.568.03.796-.213.23-.572.242-.803.03-.23-.21-.242-.568-.03-.796s.573-.24.803-.03zM45.29 2.915c.23.21.245.57.032.797-.213.23-.573.24-.802.03-.23-.212-.244-.57-.03-.797s.573-.24.8-.03zM46.608 2.55c.23.213.243.57.03.798-.212.23-.573.24-.802.03-.23-.212-.243-.57-.03-.797.213-.226.572-.24.802-.03zM47.99 2.815c.23.212.243.568.03.797-.213.228-.573.24-.802.03-.23-.212-.243-.57-.03-.797s.573-.24.802-.03zM47.996 4.115c.23.21.243.568.03.796-.212.23-.573.243-.8.03-.23-.21-.245-.568-.032-.796s.574-.24.802-.03zM46.98 5.116c.228.212.242.57.03.797-.214.23-.573.242-.803.03s-.243-.57-.03-.796c.213-.23.573-.242.802-.03zM45.75 6.084c.23.21.24.568.028.797-.213.228-.572.242-.802.03-.228-.21-.242-.568-.03-.797.214-.226.574-.24.803-.03zM44.553 6.8c.228.21.242.568.03.796-.214.23-.574.24-.803.03-.23-.212-.244-.57-.03-.797.212-.23.573-.242.803-.03z"/></g><g><path d="M46.58 6.57c1.876-1.27 6.496-2.627 6.906-.808.145 1.156-4.663 2.182-6.13 2.456-.45.085-1.267-1.093-1.07-1.442.094-.07.193-.14.293-.207zM47.616 5.7c.15.27.05.615-.225.764-.273.15-.62.05-.77-.223-.15-.27-.05-.614.226-.765.274-.148.62-.05.77.225zM48.886 5.042c.15.273.05.616-.224.766-.274.148-.62.05-.77-.224-.152-.272-.052-.616.224-.765.275-.152.62-.05.77.222zM50.192 4.634c.15.272.05.616-.226.766s-.62.05-.77-.224c-.15-.27-.05-.615.224-.765s.62-.048.772.224zM51.49 4.4c.15.272.05.616-.224.766-.274.15-.62.05-.77-.224-.15-.27-.05-.615.224-.765s.62-.05.77.223zM52.856 4.47c.15.27.05.614-.225.763-.273.15-.62.05-.77-.223s-.05-.615.226-.766c.274-.15.62-.048.77.225zM54.083 5.15c.15.274.05.617-.224.767s-.62.05-.772-.224-.05-.615.226-.765c.274-.15.62-.05.77.223zM53.676 6.386c.15.272.05.616-.224.766s-.62.048-.77-.224c-.15-.27-.05-.616.225-.766.274-.148.62-.048.77.224zM52.393 7.018c.15.272.05.615-.226.766-.273.15-.62.05-.77-.225-.15-.272-.05-.616.225-.765.274-.15.62-.05.77.223zM50.917 7.55c.15.272.05.615-.226.765-.273.15-.62.05-.77-.223-.15-.273-.05-.615.225-.766.276-.15.623-.048.772.224zM49.554 7.854c.15.272.05.615-.225.764-.276.15-.622.05-.772-.223-.15-.272-.05-.615.225-.764.275-.15.62-.05.77.224z"/></g><g><path d="M52.89 8.89c1.822-1.343 6.38-2.894 6.867-1.094.19 1.15-4.568 2.376-6.018 2.71-.452.104-1.315-1.04-1.133-1.396.09-.074.183-.147.284-.22zM53.89 7.98c.16.265.074.612-.193.772s-.617.074-.78-.19-.074-.614.194-.774c.268-.16.617-.076.78.19zM55.13 7.27c.162.266.076.61-.192.772-.267.16-.617.075-.78-.19-.16-.268-.074-.613.194-.774.266-.16.618-.076.778.19zM56.418 6.81c.16.264.075.612-.193.772-.267.16-.616.074-.778-.19s-.076-.614.192-.775c.265-.16.616-.075.778.192zM57.707 6.52c.16.266.075.612-.192.773-.27.16-.62.075-.78-.19-.16-.267-.076-.614.192-.774.267-.162.618-.077.78.19zM59.07 6.532c.163.266.077.612-.19.773-.268.16-.618.074-.78-.19-.162-.267-.074-.615.193-.775.27-.16.616-.075.778.192zM60.327 7.163c.162.266.075.613-.19.773-.27.16-.62.076-.78-.19-.16-.267-.076-.614.19-.774.27-.16.618-.075.78.19zM59.974 8.413c.162.267.076.613-.192.775-.27.16-.618.074-.78-.19-.16-.268-.074-.614.194-.775.266-.162.616-.076.778.19zM58.717 9.098c.162.266.075.613-.192.773-.27.162-.617.076-.78-.19-.16-.266-.076-.613.192-.773.268-.16.618-.074.78.19zM57.266 9.692c.162.266.075.613-.192.773-.27.16-.62.075-.78-.19-.16-.267-.074-.614.192-.774.268-.16.618-.076.78.192zM55.917 10.05c.16.267.073.614-.193.774-.27.16-.618.075-.78-.19-.162-.267-.075-.613.192-.774.268-.16.617-.074.78.19z"/></g><g><path d="M58.196 14.287c.765-2.122 3.688-5.925 5.1-4.692.803.848-2.473 4.492-3.492 5.57-.315.333-1.674-.144-1.723-.54.035-.112.074-.224.116-.338zM58.517 12.977c.283.132.405.47.27.75-.132.28-.47.402-.753.27-.283-.132-.406-.47-.273-.75.136-.28.472-.403.757-.27zM59.15 11.703c.285.132.407.468.274.75s-.472.4-.754.27c-.284-.133-.406-.47-.273-.75.135-.28.473-.402.754-.27zM59.966 10.61c.284.13.406.47.273.75-.136.28-.474.402-.757.27-.282-.132-.405-.47-.27-.75.132-.282.47-.403.753-.27zM60.876 9.66c.283.132.407.468.273.75-.134.28-.474.402-.756.27-.283-.132-.407-.468-.272-.75.133-.28.472-.402.754-.27zM62.02 8.917c.284.133.406.47.272.75-.133.28-.473.402-.755.27-.283-.132-.405-.468-.272-.75s.47-.403.756-.27zM63.417 8.75c.282.13.404.468.27.75-.132.28-.47.402-.753.27-.283-.13-.405-.468-.273-.75.134-.28.474-.402.757-.27zM63.82 9.985c.285.133.405.47.272.75-.133.282-.472.403-.756.272-.282-.133-.404-.47-.27-.75s.472-.403.755-.272zM63.158 11.248c.284.132.405.468.27.75-.132.28-.47.403-.753.27-.284-.133-.405-.47-.273-.75.133-.28.472-.402.756-.27zM62.282 12.54c.284.134.406.47.27.752-.132.28-.47.402-.753.27-.283-.132-.407-.47-.274-.75.135-.282.473-.403.756-.27zM61.36 13.584c.283.133.405.47.272.75-.132.28-.472.402-.755.27-.283-.132-.406-.468-.27-.75.132-.28.47-.402.753-.27z"/></g></g><path d="M48.905 38.318H28.597c-3.23 0-5.846 2.622-5.846 5.848v4.697c0 3.23 2.618 5.848 5.847 5.848h20.31c3.228 0 5.845-2.618 5.845-5.847v-4.697c0-3.227-2.618-5.848-5.847-5.848zm-16.042 3.66h-1.888v9.382H29.15v-9.383h-1.887V40.38h5.6v1.597zm5.333 9.38H36.58v-.888c-.302.328-.612.58-.936.748-.324.176-.636.258-.94.258-.376 0-.654-.12-.846-.36-.188-.243-.284-.603-.284-1.087v-6.77h1.618v6.212c0 .19.036.33.1.414.07.088.182.13.334.13.117 0 .268-.058.45-.17.184-.116.35-.26.503-.437v-6.153h1.616v8.102zm5.875-1.672c0 .572-.126 1.014-.38 1.318-.253.307-.622.46-1.1.46-.32 0-.602-.06-.848-.18-.247-.116-.48-.296-.692-.548v.62h-1.638V40.382h1.638v3.536c.22-.244.45-.436.692-.563.248-.13.496-.19.748-.19.512 0 .902.17 1.172.515.27.346.406.852.406 1.514v4.494h.003zm5.615-2.182h-3.097v1.525c0 .425.052.722.158.886.108.166.29.248.55.248.268 0 .454-.07.562-.21.104-.142.16-.448.16-.925v-.368h1.666v.414c0 .83-.202 1.457-.61 1.88-.403.417-1.01.624-1.816.624-.726 0-1.298-.22-1.714-.666-.414-.443-.626-1.057-.626-1.836v-3.64c0-.7.23-1.274.69-1.718.457-.44 1.046-.66 1.77-.66.743 0 1.313.203 1.71.613s.597.998.597 1.766v2.064zM47.31 44.475c-.257 0-.44.072-.554.225-.114.143-.168.385-.168.725v.82h1.43v-.82c0-.34-.057-.584-.17-.725-.11-.15-.29-.225-.537-.225zM41.728 44.447c-.114 0-.23.025-.343.078-.113.053-.224.14-.334.248v5.045c.13.13.26.232.385.29s.254.087.392.087c.2 0 .344-.06.438-.174.092-.114.14-.298.14-.558V45.28c0-.275-.056-.482-.17-.623-.12-.14-.29-.21-.507-.21zM31.256 35.505h2.05v-5.017l2.39-7.078H33.61l-1.27 4.836h-.13L30.88 23.41h-2.065l2.443 7.304zM38.475 35.73c.83 0 1.48-.217 1.952-.652.47-.436.706-1.03.706-1.795v-4.61c0-.677-.24-1.237-.72-1.67-.483-.43-1.102-.645-1.856-.645-.828 0-1.487.205-1.98.615-.488.408-.734.957-.734 1.65v4.625c0 .76.24 1.36.718 1.81s1.118.672 1.915.672zm-.755-7.176c0-.193.07-.35.205-.473.142-.118.32-.177.545-.177.24 0 .436.06.584.178.148.124.223.28.223.474v4.863c0 .238-.073.426-.22.563-.146.137-.34.205-.587.205-.24 0-.427-.066-.558-.203-.128-.133-.193-.322-.193-.566v-4.862zM43.884 35.636c.343 0 .694-.098 1.057-.287.367-.19.718-.47 1.05-.833v.988h1.823v-8.922H45.99v6.773c-.17.193-.358.352-.56.48-.207.124-.377.187-.51.187-.172 0-.297-.047-.37-.145-.076-.092-.118-.246-.118-.455v-6.84h-1.82v7.457c0 .53.107.93.318 1.193.216.268.53.403.954.403z" fill="#fff"/></g></svg>