<svg xmlns="http://www.w3.org/2000/svg" width="64" height="64" viewBox="0 0 64 64"><g><radialGradient id="a" cx="32" cy="32" r="32" gradientUnits="userSpaceOnUse"><stop offset="0" stop-color="#48669F"/><stop offset="1" stop-color="#3D5D7D"/></radialGradient><path fill="url(#a)" d="M0 0h54.4L64 9.6V64H9.6L0 54.4z"/><path fill="#4D6A8A" d="M54.4 0L64 9.6h-9.6z"/><path fill="#344E6B" d="M54.4 9.6l9.6 9.598V9.6z"/><path fill="#4D6A8A" d="M9.6 64L0 54.4h9.6z"/><path fill="#344E6B" d="M19.198 64L9.6 54.4V64z"/><path d="M43.678 25.01c-.25.94-.365 1.906-.533 2.86-.412 2.363-.853 4.722-1.23 7.09-.5 3.146-.79 6.313-.78 9.5 0 .362-.06.494-.464.49-1.95-.025-3.902-.02-5.853-.005-.344.004-.475-.057-.437-.442.14-1.415.24-2.833.358-4.25.01-.13.052-.266-.068-.415-.234.064-.287.294-.39.468-1.177 2.003-2.67 3.69-4.884 4.56-2.704 1.064-5.333.985-7.78-.75-.26-.188-.497-.41-.742-.617-2.03-2.28-2.544-5.022-2.392-7.95.243-4.64 1.796-8.762 5.052-12.136 2.313-2.396 5.19-3.82 8.44-4.52 1.485-.32 2.99-.478 4.5-.455 2.58.038 5.134.338 7.62 1.075.36.106.51.21.426.648-.315 1.61-.568 3.232-.842 4.848zM26.253 35.597c.03.637.24 1.227.52 1.79.693 1.397 2.123 1.903 3.548 1.272.844-.374 1.513-.97 2.076-1.682 1.203-1.52 1.993-3.23 2.455-5.12.35-1.428.744-2.843.967-4.296.244-1.245.49-2.49.736-3.733.053-.26-.012-.397-.294-.476-2.136-.595-4.074-.23-5.78 1.19-2.277 1.892-3.494 4.4-4.1 7.237-.27 1.26-.394 2.535-.127 3.82z" fill-rule="evenodd" clip-rule="evenodd" fill="#FEFEFE"/><path d="M26.77 37.386c.695 1.397 2.125 1.903 3.55 1.272.843-.374 1.512-.97 2.075-1.682 1.203-1.52 1.993-3.23 2.455-5.12.35-1.428.743-2.843.966-4.296.244-1.245.49-2.49.736-3.733.053-.26-.012-.397-.294-.476-2.135-.595-4.073-.23-5.78 1.19-2.276 1.892-3.493 4.4-4.098 7.237-.27 1.26-.395 2.534-.128 3.818.032.637.24 1.227.52 1.79zM64 63.918V39.556l-19.375-19.68-.086.02c.007.07 0 .16-.02.268-.315 1.61-.568 3.23-.843 4.848-.25.94-.365 1.905-.533 2.86-.412 2.362-.853 4.72-1.23 7.09-.5 3.145-.79 6.312-.78 9.5 0 .36-.06.493-.464.488-1.95-.024-3.903-.018-5.854-.004-.344.004-.475-.057-.437-.442.14-1.415.24-2.833.357-4.25.01-.13.052-.266-.068-.415-.235.063-.288.293-.39.467-1.178 2.003-2.672 3.69-4.885 4.56-2.704 1.064-5.333.985-7.78-.75-.202-.145-.385-.314-.573-.477L41.188 64 64 63.918z" fill="#344E6B"/></g></svg>