<svg xmlns="http://www.w3.org/2000/svg" width="64" height="64" viewBox="0 0 64 64"><g><path fill="#E86324" d="M0 0h54.4L64 9.6V64H9.6L0 54.4z"/><path fill="#F58236" d="M54.4 0L64 9.6h-9.6z"/><path fill="#B44D26" d="M54.4 9.6l9.6 9.598V9.6z"/><path fill="#F58236" d="M9.6 64L0 54.4h9.6z"/><path fill="#B44D26" d="M19.198 64L9.6 54.4V64z"/><path d="M14.36 36.205c-1.15-1.04-1.7-2.665-1.72-4.215.02-1.53.568-3.155 1.72-4.194.775-.68 1.91-1.172 2.968-1.248.698-.037 1.322.038 1.87.19 1.342.358 2.268 1.19 3.08 1.813l3.345-3.25c-.32-.566-1.247-1.36-1.758-1.756-2.59-1.984-6.273-2.42-9.447-1.53-.51.132-.982.32-1.455.528-2.38 1.04-3.855 2.55-5.026 4.818-1.248 2.4-1.248 6.877 0 9.277 1.17 2.268 2.646 3.78 5.026 4.818.473.208.944.378 1.455.53 3.174.887 6.858.452 9.447-1.532.51-.414 1.437-1.19 1.758-1.757l-3.345-3.25c-.813.624-1.738 1.455-3.08 1.814-.548.15-1.172.227-1.87.188-1.058-.073-2.192-.582-2.967-1.243zm29.29-11.508c-.72-1.38-1.834-2.268-3.1-2.722-2.854-1.04-6.482.075-8.353 2.532v-2.55H26.47V41.93h5.727V30.045c0-1.834 1.493-3.345 3.326-3.345s3.344 1.51 3.344 3.344V41.95h5.726V30.006c0-1.833 1.512-3.345 3.346-3.345 1.83 0 3.324 1.512 3.324 3.344V41.95h5.725V28.76c0-3.987-2.098-6.085-4.686-6.784-2.608-.7-5.727.038-7.71 1.738-.36.303-.66.624-.945.983z" fill="#fff"/><path d="M32.198 24.508c.36-.49.794-.906 1.267-1.285l-1.267-1.266v2.55zM34.485 64H64V32.443l-8.88-8.86c1.133 1.133 1.87 2.833 1.87 5.177V41.947h-5.726V30.007c0-1.833-1.492-3.345-3.324-3.345-1.834 0-3.346 1.513-3.346 3.346v11.941H38.87V30.042c0-1.832-1.512-3.344-3.344-3.344-1.834 0-3.326 1.512-3.326 3.344v11.886h-5.726V26.15l-.85-.85-3.346 3.25c-.813-.623-1.738-1.454-3.08-1.813-.547-.15-1.17-.227-1.87-.19-1.058.077-2.192.568-2.967 1.25-1.153 1.038-1.7 2.663-1.72 4.193.02 1.55.566 3.175 1.72 4.215.773.66 1.908 1.17 2.966 1.246.7.04 1.323-.036 1.87-.187 1.342-.36 2.268-1.19 3.08-1.815l3.346 3.25c-.32.568-1.248 1.344-1.758 1.758-2.59 1.984-6.273 2.42-9.448 1.53-.51-.15-.982-.32-1.454-.528-1.19-.51-2.154-1.153-2.967-1.946L34.485 64z" fill="#B44D26"/></g></svg>