<svg xmlns="http://www.w3.org/2000/svg" width="64" height="64" viewBox="0 0 64 64"><g><path fill="#4C64A2" d="M0 0h54.4L64 9.6V64H9.6L0 54.4z"/><path fill="#7288BE" d="M54.4 0L64 9.6h-9.6z"/><path fill="#2B437F" d="M54.4 9.6l9.6 9.598v-9.6z"/><path fill="#7288BE" d="M9.6 64L0 54.4h9.6z"/><path fill="#2B437F" d="M19.198 64L9.6 54.4V64z"/><path d="M35.335 10.41c-4.497.606-7.974 4.46-7.974 9.11v6.687h-6.688v7.785h6.69v19.672h7.973v-19.67h6.67l.927-7.786h-7.597v-5.536c0-1.682 1.36-3.042 3.023-3.042h4.97V10.6l-4.346-.207c-1.17-.056-2.476-.132-3.647.018z" fill="#fff"/><path d="M27.36 40.663v-6.67h-6.688l6.69 6.67zM50.68 64H64V31.272l-20.672-20.67v7.028h-4.97c-1.663 0-3.023 1.36-3.023 3.042v5.536h7.597l-.926 7.785h-6.67v19.672H27.36L37.68 64h13z" fill="#2B437F"/></g></svg>