<svg xmlns="http://www.w3.org/2000/svg" width="64" height="64" viewBox="0 0 64 64"><g><path fill="#DCDCDD" d="M0 0h54.4L64 9.6V64H9.6L0 54.4z"/><path fill="#F1F1F2" d="M54.4 0L64 9.6h-9.6z"/><path fill="#DCDCDD" d="M54.4 9.6l9.6 9.598V9.6z"/><path fill="#F1F1F2" d="M9.6 64L0 54.4h9.6z"/><path fill="#DCDCDD" d="M19.198 64L9.6 54.4V64z"/><path d="M37.055 23.733c4.553-4.554 11.96-4.554 16.515 0 4.573 4.572 4.573 11.96 0 16.532-4.554 4.556-11.962 4.556-16.515 0-4.573-4.572-4.573-11.96 0-16.532z" fill="#E60E79"/><path d="M10.43 23.733c4.555-4.554 11.962-4.554 16.516 0 4.554 4.572 4.554 11.96 0 16.532-4.554 4.556-11.96 4.556-16.515 0-4.573-4.572-4.573-11.96 0-16.532z" fill="#3D6CB4"/><path d="M34.164 64H64V34.163l-10.43-10.43c4.572 4.572 4.572 11.96 0 16.533-1.89 1.89-4.29 3.005-6.766 3.326-3.477.435-7.086-.68-9.75-3.326-2.664-2.664-3.78-6.292-3.326-9.75l-6.783-6.783c4.554 4.572 4.554 11.96 0 16.533-4.554 4.555-11.96 4.555-16.515 0L34.164 64z" fill="#C8C8C9"/></g></svg>