<svg xmlns="http://www.w3.org/2000/svg" width="64" height="64" viewBox="0 0 64 64"><g><path fill="#D12027" d="M0 0h54.4L64 9.6V64H9.6L0 54.4z"/><path fill="#ED5F57" d="M54.4 0L64 9.6h-9.6z"/><path fill="#9D1C20" d="M54.4 9.6l9.6 9.598v-9.6z"/><path fill="#ED5F57" d="M9.6 64L0 54.4h9.6z"/><path fill="#9D1C20" d="M19.198 64L9.6 54.4V64z"/><path d="M38.434 28.95h4.97v-4.99h2.532v4.99h4.97v2.512h-4.97v4.987h-2.532V31.46h-4.97V28.95zm-4.82 5.97c-.868-.68-1.83-1.38-2.758-2.192-1.304-1.134-.85-2.777.492-3.893 1.21-1.002 2.626-2.098 3.344-3.23 2.192-3.42 1.19-8.202-2.172-10.715h3.003l3.307-2.23H28.477c-7.56 0-13.228 3.062-12.755 10.355.32 5.064 4.705 7.823 10.108 7.218-1.133 1.91-.358 3.836.983 5.387-13.983.283-15.57 8.52-12.264 12.338 2.135 2.476 5.913 3.44 9.824 3.363 4.63-.093 9.524-1.756 11.716-5.044 1.87-2.835 3.138-6.934-2.475-11.357zm-3.08-15.004c1.324 3.477 1.04 7.635-2.493 8.786-4.023 1.304-7.047-2.796-7.69-6.878-.47-2.93.23-5.838 2.95-6.84 3.21-1.17 5.95 1.57 7.235 4.932zM17.745 42.1c.717-4.006 5.365-5.045 10.826-5.045 2.116 1.586 4.347 3.117 5.178 4.818.66 1.323.51 3.212-.586 4.667-1.342 1.776-3.686 2.42-5.857 2.55-4.063.266-7.483-1.435-8.92-3.38-.793-1.097-.887-2.325-.642-3.61z" fill="#fff"/><path d="M30.573 64H64V37.83L38.83 12.66l-3.307 2.23H32.52c3.363 2.512 4.365 7.293 2.173 10.713-.718 1.134-2.135 2.23-3.345 3.23-1.342 1.116-1.795 2.76-.49 3.894.925.813 1.89 1.512 2.758 2.19 5.612 4.424 4.346 8.523 2.476 11.357-2.19 3.288-7.086 4.95-11.716 5.045-3.477.075-6.858-.68-9.07-2.59L30.574 64zm-3.268-14.91c2.173-.13 4.516-.773 5.857-2.55 1.096-1.455 1.247-3.344.586-4.667-.83-1.7-3.062-3.232-5.178-4.818-5.46 0-10.11 1.04-10.827 5.045-.245 1.285-.15 2.514.643 3.61 1.435 1.945 4.856 3.645 8.92 3.38zM20.35 21.825c.644 4.082 3.667 8.182 7.69 6.878 3.534-1.15 3.818-5.31 2.495-8.786-1.284-3.363-4.024-6.104-7.236-4.932-2.722 1.002-3.42 3.912-2.95 6.84zm23.053 9.638h-4.97V28.95h4.97v-4.99h2.532v4.99h4.97v2.512h-4.97v4.987h-2.532V31.46z" fill="#9D1C20"/></g></svg>