<svg xmlns="http://www.w3.org/2000/svg" width="67.557" height="64.021" viewBox="0 0 67.557 64.021"><g><path fill="#007BB5" d="M0 0h54.4L64 9.6V64H9.6L0 54.4z"/><path fill="#278FC0" d="M54.4 0L64 9.6h-9.6z"/><path fill="#006797" d="M54.4 9.6l9.6 9.598V9.6z"/><path fill="#278FC0" d="M9.6 64L0 54.4h9.6z"/><path fill="#006797" d="M19.198 64L9.6 54.4V64zM23.285 25.237l-3.687-3.718 4.406-4.126 8.51 8.364 1.847-1.6 3.413 3.463 6.938-2.002 19.235 19.527L64 64l-26.04.02L18.5 44.267l2.598-2.154 2.187-16.875"/><path fill="#fff" d="M18.527 24.137h6.163v20.25h-6.163zM39.66 24.137c-3.524 0-4.502 1.155-5.285 2.642v-2.643h-6.163v20.25h6.163V32.94c0-1.76 0-3.52 3.082-3.52 3.08 0 3.08 1.76 3.08 3.52v11.446h6.164V32.94c0-5.282-.88-8.803-7.04-8.803z"/><circle cx="21.609" cy="19.294" r="3.082" fill="#fff"/><path d="M67.557 61.383M24.05 17.217" fill="none" stroke="#ED1C24" stroke-width=".25" stroke-miterlimit="10"/></g></svg>