<svg xmlns="http://www.w3.org/2000/svg" width="64" height="64.008" viewBox="0 0 64 64.008"><g><path fill="#E71E27" d="M0 0h54.4L64 9.6V64H9.6L0 54.4z"/><path fill="#EB4148" d="M54.4 0L64 9.6h-9.6z"/><path fill="#C11921" d="M54.4 9.6l9.6 9.598V9.6z"/><path fill="#EB4148" d="M9.6 64L0 54.4h9.6z"/><path fill="#C11921" d="M19.2 64l-9.6-9.6V64zM37.48 64.008l-19.033-19.32 4.697-24.965 8.98 9.117 8.325-14.303 23.51 23.867V64z"/><path d="M42.055 18.558c-.268-.922-1.105-3.96-1.928-4.252-1.46 0-2.78-.013-4.252 0-.52.002-2.14 2.743-2.326 3.188-1.025 2.46-1.396 3.822-2.127 6.378-.77 2.7-1.497 5.55-2.126 8.504-.28-.473-.872-1.768-1.063-2.126-1.393-2.666-1.794-4.78-3.19-7.44-1.402-2.678-1.232-3.688-4.25-3.19-.75.122-2.498.753-3.19 1.064-.342.156-1.062.797-1.062 2.126 0 6.245 0 12.09 1.063 18.07.65 4.263.178 4.75 4.252 3.188.203-.08-.203.086 0 0 2.126-1.063 3.354-1.074 3.188-2.125-.292-1.822-.826-4.55-1.063-6.378.085-.008-.086.007 0 0 1.063 0 3.073 3.29 4.252 5.314.968 1.648 2.126 2.125 3.188 2.125 4.25 0 5.316-1.063 5.316-2.126s-.047-3.44 0-4.254c0-2.125-.1-7.742 0-8.502 1.844 5.896 3.602 11.327 5.314 17.008.297.99 2.066 1.373 3.123 1.062 1.928 0 3.498-.694 3.258-1.53-2.13-7.32-2.943-11.924-4.256-17.603-.743-3.244-1.06-4.25-2.122-8.502z" fill="#fff"/></g></svg>