<svg xmlns="http://www.w3.org/2000/svg" width="64" height="64" viewBox="0 0 64 64"><g><path fill="#88AB27" d="M0 0h54.4L64 9.6V64H9.6L0 54.4z"/><path fill="#9AB848" d="M54.4 0L64 9.6h-9.6z"/><path fill="#718F21" d="M54.4 9.6l9.6 9.598V9.6z"/><path fill="#9AB848" d="M9.6 64L0 54.4h9.6z"/><path fill="#718F21" d="M19.198 64L9.6 54.4V64z"/><path d="M31.964 17.938" fill="none" stroke="#ED1C24" stroke-width=".25" stroke-miterlimit="10"/><path fill="#718F21" d="M63.987 64V44.807l-22.2-22.537-4.43 4.296 8.903 9.037-.916.67L29.49 20.177l-4.558 4.274L38.14 37.86l-4.702 1.19-13.688-6.688-1.77.713 30.416 30.88z"/><path d="M28.003 36.008c1.166.617 2.43.946 3.712 1.19.998.19 2.01.322 3.03.28 3.868-.17 7.417-1.327 10.604-3.524 1.16-.8 2.753-.28 3.085.998.2.79-.068 1.66-.795 2.156-2.836 1.93-5.928 3.265-9.31 3.898-1.774.334-3.562.402-5.364.29-1.5-.09-2.937-.463-4.368-.87-1.666-.477-3.177-1.295-4.687-2.114-1.185-.79-2.356-1.597-3.424-2.546-1.416-1.258-2.682-2.65-3.743-4.22-.5-.74-.202-1.876.602-2.523.688-.553 1.712-.497 2.36.114.5.47.844 1.063 1.284 1.58.823.97 1.717 1.867 2.696 2.672 1.24 1.018 2.59 1.872 4.058 2.527.085.04.173.062.26.09zM27.232 25.493c-1.717-.007-3.146-1.4-3.11-3.097.04-1.683 1.274-3.18 3.15-3.144 1.813.035 3.115 1.348 3.115 3.15 0 1.773-1.233 3.094-3.155 3.09zM42.453 23.056c.45 1.098.44 2.158-.238 3.17-.982 1.465-3.14 1.805-4.518.71-.61-.573-1.043-1.236-1.164-2.1-.223-1.596.977-3.224 2.576-3.458 1.51-.22 2.574.432 3.343 1.678z" fill-rule="evenodd" clip-rule="evenodd" fill="#fff"/></g></svg>