<svg xmlns="http://www.w3.org/2000/svg" width="64" height="64" viewBox="0 0 64 64"><g><path fill="#262C31" d="M0 0h54.4L64 9.6V64H9.6L0 54.4z"/><path fill="#5E6267" d="M54.4 0L64 9.6h-9.6z"/><path fill="#101417" d="M54.4 9.6l9.6 9.598v-9.6z"/><path fill="#5E6267" d="M9.6 64L0 54.4h9.6z"/><path fill="#101417" d="M19.198 64L9.6 54.4V64z"/><path d="M38.963 41.627v3.346h14.7v-3.346c0-4.043-3.287-7.33-7.35-7.33-4.062 0-7.35 3.287-7.35 7.33zm2.514-10.922c2.664 2.684 7.01 2.684 9.674 0 2.685-2.664 2.685-6.99 0-9.674-2.663-2.663-7.01-2.663-9.673 0-2.664 2.684-2.664 7.01 0 9.675zM12.34 33.56c2.135 2.134 5.61 2.134 7.746 0 2.136-2.136 2.136-5.595 0-7.747-2.135-2.137-5.61-2.137-7.747 0-2.136 2.152-2.136 5.61 0 7.746zm-2.004 8.748v2.665H22.09v-2.665c0-3.25-2.627-5.878-5.877-5.878s-5.877 2.628-5.877 5.878zM26.17 32.142c2.4 2.4 6.313 2.4 8.712 0 2.4-2.42 2.4-6.312 0-8.71-2.4-2.42-6.312-2.42-8.71 0-2.4 2.398-2.4 6.29 0 8.71zm-2.248 9.825v3.006H37.15v-3.006c0-3.646-2.968-6.613-6.614-6.613-3.666 0-6.614 2.966-6.614 6.613z" fill="#fff"/><path d="M29.364 64H64V33.88L51.15 21.03c2.684 2.684 2.684 7.01 0 9.675-2.04 2.04-5.025 2.53-7.52 1.456-.794-.32-1.512-.812-2.154-1.455-.643-.623-1.115-1.36-1.455-2.135l-5.14-5.14c2.4 2.4 2.4 6.292 0 8.71-2.06 2.06-5.215 2.345-7.596.87-.396-.245-.774-.53-1.114-.87-.34-.34-.624-.717-.87-1.113l-5.215-5.215c2.136 2.152 2.136 5.61 0 7.746-2.135 2.135-5.612 2.135-7.747 0l2.948 2.948c.302-.058.604-.077.926-.077 3.25 0 5.876 2.627 5.876 5.877V44.97H10.336L29.364 64zm7.785-21.125v2.098H23.92v-3.006c0-3.362 2.494-6.14 5.744-6.557.284-.037.567-.057.87-.057 3.645 0 6.613 2.967 6.613 6.613v.91zm2.078 2.098h-.265v-3.346c0-3.873 3.004-7.028 6.803-7.313.19-.02.36-.02.55-.02 4.06 0 7.35 3.29 7.35 7.332V44.973H39.227z" fill="#101417"/></g></svg>