<svg xmlns="http://www.w3.org/2000/svg" width="64" height="64" viewBox="0 0 64 64"><g><path fill="#CA202D" d="M0 0h54.4L64 9.6V64H9.6L0 54.4z"/><path fill="#E64A5B" d="M54.4 0L64 9.6h-9.6z"/><path fill="#A11D21" d="M54.4 9.6l9.6 9.598V9.6z"/><path fill="#E64A5B" d="M9.6 64L0 54.4h9.6z"/><path fill="#A11D21" d="M19.198 64L9.6 54.4V64zM33.125 23.847c0 3.91-5.84 12.68 1.38 13.453 7.18.774 11.223-15.136 5.29-20.142-1.645-1.38-3.893-2.495-6.84-2.495-5.234 0-8.41 1.55-11.188 5.726-1.455 2.17-2.286 6.536-1.058 9.257 1.15 2.608 1.964 1.305 1.076 4.46-.17.586-.265 1.34-.926 1.34-.813 0-1.966-.812-2.457-1.245l-.113-.113 5.31 5.31c.662-3.006 1.285-6.086 2.136-8.92.19-.643-.832-1.397-.832-4.063 0-7.56 8.22-8.504 8.22-2.57zM29.213 38.85c-.34 1.454-.813 3.174-1.152 4.572-.02.113-.056.227-.094.36-.756 2.815-2.532 7.085-5.216 9.807-.037.036-.15.094-.264.074-.02-.02-.038-.02-.057-.038L32.802 64H64V34.334L44.254 14.588c1.285 1.284 2.154 2.173 3.06 3.93 3.365 6.576.7 17.516-5.725 21.39-3.23 1.946-8.41 2.59-11.338-.132-.397-.378-.982-1.172-1.04-.926z"/><path d="M15.23 25.944c0 3.174 1 6.31 3.174 8.257.49.436 1.644 1.248 2.457 1.248.662 0 .757-.756.927-1.34.888-3.157.075-1.854-1.077-4.462-1.23-2.72-.397-7.086 1.058-9.258 2.778-4.176 5.952-5.726 11.187-5.726 2.948 0 5.196 1.114 6.84 2.495 5.934 5.006 1.89 20.916-5.29 20.142-7.22-.775-1.38-9.543-1.38-13.454 0-5.934-8.22-4.99-8.22 2.57 0 2.664 1.02 3.42.832 4.062-1.115 3.723-1.833 7.898-2.815 11.734-1.002 3.97-.926 7.237-.586 11.243 0 .037.057.17.15.208.114.02.228-.038.265-.075 2.798-2.835 4.612-7.37 5.312-10.167.34-1.397.813-3.117 1.152-4.57.057-.246.643.548 1.04.925 2.928 2.72 8.105 2.078 11.336.133 6.425-3.875 9.09-14.814 5.726-21.39-.963-1.853-1.87-2.722-3.268-4.14-5.537-5.61-17.574-5.27-23.47.322-3.137 2.987-5.35 6.388-5.35 11.244z" fill="#fff"/></g></svg>