<svg xmlns="http://www.w3.org/2000/svg" width="64" height="64" viewBox="0 0 64 64"><g><path fill="#D0E3F5" d="M0 0h54.4L64 9.6V64H9.6L0 54.4z"/><path fill="#EFF8FD" d="M54.4 0L64 9.6h-9.6z"/><path fill="#95B2D0" d="M54.4 9.6l9.6 9.598V9.6z"/><path fill="#EFF8FD" d="M9.6 64L0 54.4h9.6z"/><path fill="#95B2D0" d="M19.198 64L9.6 54.4V64zM44.916 46.124c-3.326 2.23-7.9 3.61-12.926 3.61-1.682 0-3.325-.152-4.894-.454-3.06-.567-5.8-1.683-8.012-3.156-.567-.378-1.077-.774-1.568-1.19L36.582 64H64V30.498L49.186 15.683c.89.89 1.436 2.098 1.436 3.44s-.547 2.55-1.436 3.42c-.87.888-2.078 1.417-3.42 1.417s-2.55-.53-3.44-1.418c-.868-.87-1.416-2.078-1.416-3.42v-.188L34.9 17.29l-1.568 6.953c4.043.188 7.73 1.285 10.62 2.967.395-.32.83-.605 1.32-.813.758-.34 1.59-.53 2.478-.53 1.512 0 2.89.55 3.892 1.42 1.04.926 1.683 2.21 1.683 3.627 0 1.134-.416 2.19-1.115 3.042-.49.586-1.134 1.078-1.852 1.418.095.53.133 1.06.133 1.605 0 3.59-2.136 6.838-5.574 9.144zM13.586 35.77l.057-.396c-.53-.246-1.002-.586-1.417-.964l1.36 1.36z"/><path d="M25.34 33.71c1.36 0 2.475 1.096 2.475 2.456 0 1.38-1.114 2.475-2.475 2.475-1.36 0-2.476-1.094-2.476-2.474 0-1.36 1.115-2.456 2.476-2.456zm13.32 0c-1.36 0-2.475 1.096-2.475 2.456 0 1.38 1.115 2.475 2.475 2.475s2.476-1.094 2.476-2.474c0-1.36-1.115-2.456-2.476-2.456z" fill="#EF3F23"/><path d="M24.508 44.027c-.49-.34-.586-1.02-.227-1.512.34-.473 1.022-.586 1.493-.228.89.643 1.814 1.077 2.815 1.343 1.04.283 2.174.396 3.4.396 1.248 0 2.382-.113 3.42-.396 1.003-.266 1.93-.7 2.798-1.343.49-.358 1.172-.245 1.512.228.358.49.265 1.17-.227 1.512-1.096.813-2.267 1.36-3.533 1.7-1.228.32-2.53.474-3.968.474-1.418 0-2.722-.15-3.95-.472-1.265-.34-2.436-.888-3.532-1.7zm21.258-29.76c1.342 0 2.55.548 3.42 1.417.89.888 1.436 2.098 1.436 3.438 0 1.342-.547 2.552-1.436 3.42-.87.89-2.078 1.418-3.42 1.418s-2.55-.53-3.44-1.417c-.868-.87-1.416-2.08-1.416-3.42v-.19L34.9 17.29l-1.568 6.953c4.043.188 7.73 1.285 10.62 2.967.395-.32.83-.605 1.32-.813.758-.34 1.59-.53 2.478-.53 1.512 0 2.89.55 3.892 1.42 1.04.926 1.683 2.21 1.683 3.627 0 1.134-.416 2.192-1.115 3.042-.49.587-1.134 1.078-1.852 1.42.095.527.133 1.057.133 1.604 0 3.59-2.135 6.84-5.573 9.145-3.326 2.23-7.9 3.61-12.925 3.61-5.008 0-9.58-1.38-12.906-3.61-3.44-2.305-5.574-5.555-5.574-9.145 0-.548.038-1.077.132-1.605-.718-.34-1.36-.832-1.852-1.42-.7-.85-1.114-1.907-1.114-3.04 0-1.418.642-2.702 1.68-3.63 1.003-.868 2.383-1.417 3.895-1.417.888 0 1.72.19 2.476.53.49.207.925.49 1.32.812 3.005-1.757 6.86-2.854 11.093-2.985l1.776-7.937c.112-.49.34-.85.717-1.096.378-.246.813-.265 1.322-.133l6.52 1.794c.226-.435.51-.83.85-1.172.885-.868 2.094-1.416 3.436-1.416zm1.888 2.947c-.472-.49-1.152-.774-1.89-.774-.736 0-1.417.283-1.907.774-.473.49-.775 1.153-.775 1.908 0 .737.303 1.398.775 1.89.49.49 1.17.794 1.908.794.736 0 1.417-.303 1.89-.794.49-.49.793-1.152.793-1.89 0-.755-.302-1.417-.794-1.908zm-1.795 11.3c1.738 1.34 3.08 2.966 3.854 4.742.32-.19.604-.414.832-.698.396-.453.623-1.04.623-1.645 0-.774-.36-1.474-.946-2.003-.623-.547-1.512-.888-2.476-.888-.586 0-1.114.132-1.605.34-.094.038-.188.095-.284.152zm-31.575 4.742c.775-1.775 2.098-3.4 3.854-4.742-.095-.057-.19-.113-.303-.15-.473-.21-1.002-.34-1.588-.34-.983 0-1.853.34-2.476.887-.586.53-.945 1.23-.945 2.004 0 .604.226 1.19.623 1.645.228.282.51.506.832.696zm29.42-3.647c-2.966-2.004-7.123-3.23-11.715-3.23s-8.73 1.227-11.696 3.23c-2.853 1.907-4.63 4.515-4.63 7.368 0 2.834 1.777 5.442 4.63 7.35 2.967 2.004 7.104 3.232 11.696 3.232s8.75-1.228 11.716-3.23c2.853-1.91 4.63-4.518 4.63-7.352 0-2.853-1.777-5.46-4.63-7.37z" fill="#010101"/><path d="M45.766 21.806c.736 0 1.417-.303 1.89-.794.49-.49.793-1.152.793-1.89 0-.755-.303-1.417-.795-1.908-.472-.49-1.152-.774-1.89-.774-.736 0-1.417.283-1.907.774-.473.49-.775 1.153-.775 1.908 0 .737.303 1.398.775 1.89.49.49 1.17.794 1.908.794zm-31.48 11.45c.774-1.775 2.097-3.4 3.853-4.742-.095-.057-.19-.113-.303-.15-.473-.21-1.002-.34-1.588-.34-.983 0-1.853.34-2.476.887-.586.53-.945 1.23-.945 2.004 0 .604.226 1.19.623 1.645.228.282.51.506.832.696zm29.42-3.647c-2.967-2.004-7.124-3.23-11.716-3.23s-8.73 1.227-11.696 3.23c-2.853 1.907-4.63 4.515-4.63 7.368 0 2.834 1.777 5.442 4.63 7.35 2.967 2.004 7.104 3.232 11.696 3.232s8.75-1.228 11.716-3.23c2.853-1.91 4.63-4.518 4.63-7.352 0-2.853-1.777-5.46-4.63-7.37zm-18.366 4.1c1.36 0 2.475 1.096 2.475 2.456 0 1.38-1.114 2.475-2.475 2.475-1.36 0-2.476-1.094-2.476-2.474 0-1.36 1.115-2.456 2.476-2.456zm-1.06 8.806c.34-.473 1.022-.586 1.493-.228.89.643 1.814 1.077 2.815 1.343 1.04.284 2.174.397 3.4.397 1.248 0 2.382-.113 3.42-.396 1.003-.265 1.93-.7 2.798-1.342.49-.358 1.172-.245 1.512.228.358.49.265 1.17-.227 1.512-1.096.813-2.267 1.36-3.533 1.7-1.228.32-2.53.474-3.968.474-1.418 0-2.722-.152-3.95-.473-1.266-.343-2.438-.89-3.533-1.702-.49-.34-.585-1.022-.226-1.512zm11.906-6.35c0-1.36 1.115-2.456 2.475-2.456 1.362 0 2.477 1.096 2.477 2.456 0 1.38-1.114 2.475-2.476 2.475-1.36 0-2.474-1.094-2.474-2.474zm9.673-7.652c1.738 1.34 3.08 2.966 3.854 4.742.32-.19.604-.414.832-.698.396-.453.623-1.04.623-1.645 0-.774-.36-1.474-.946-2.003-.623-.547-1.512-.888-2.476-.888-.586 0-1.114.132-1.605.34-.094.038-.188.095-.284.152z" fill="#fff"/></g></svg>