<svg xmlns="http://www.w3.org/2000/svg" width="64" height="64" viewBox="0 0 64 64"><g><path fill="#E7422B" d="M0 0h54.4L64 9.6V64H9.6L0 54.4z"/><path fill="#EE6952" d="M54.4 0L64 9.6h-9.6z"/><path fill="#C32326" d="M54.4 9.6l9.6 9.598V9.6z"/><path fill="#EE6952" d="M9.6 64L0 54.4h9.6z"/><path fill="#C32326" d="M19.198 64l-9.6-9.6V64z"/><path d="M29.628 34.54V25.19c0-1.304 1.058-2.382 2.362-2.382 1.322 0 2.38 1.078 2.38 2.382v2.588l2.93 1.38 4.346-1.342v-2.626c0-5.33-4.327-9.638-9.656-9.638-5.31 0-9.637 4.31-9.637 9.638v13.625c0 1.303-1.058 2.38-2.38 2.38-1.305 0-2.38-1.077-2.38-2.38V32.67h-7.256v6.143c0 5.31 4.308 9.637 9.636 9.637s9.656-4.328 9.656-9.637l-.002-4.272zm4.743 0V38.813c0 5.31 4.33 9.637 9.657 9.637s9.637-4.33 9.637-9.638V32.67h-7.256v6.142c0 1.303-1.077 2.38-2.38 2.38-1.323 0-2.382-1.077-2.382-2.38V32.69L37.3 34.05l-2.93-1.38v1.87z" fill="#fff"/><path d="M28.42 43.48c-1.645 2.967-4.82 4.97-8.448 4.97-2.607 0-4.988-1.04-6.727-2.74L31.537 64H64V42.988L53.664 32.67V38.813c0 5.31-4.31 9.637-9.637 9.637s-9.656-4.33-9.656-9.638V32.67l2.93 1.38 4.347-1.36v6.122c0 1.304 1.06 2.38 2.38 2.38 1.305 0 2.382-1.076 2.382-2.38v-6.14h6.687L39.114 18.668c1.567 1.72 2.532 4.005 2.532 6.52V27.813L37.3 29.158l-2.93-1.38V25.19c0-1.305-1.06-2.383-2.38-2.383-1.304 0-2.362 1.078-2.362 2.382V38.81c0 1.68-.453 3.288-1.21 4.667zm-8.447-2.288c1.323 0 2.38-1.077 2.38-2.38v-1.398l-4.76-4.743v6.143c0 1.302 1.076 2.38 2.38 2.38z" fill="#C32326"/></g></svg>