<svg xmlns="http://www.w3.org/2000/svg" width="64" height="64" viewBox="0 0 64 64"><g><path fill="#262C31" d="M0 0h54.4L64 9.6V64H9.6L0 54.4z"/><path fill="#494E55" d="M54.4 0L64 9.6h-9.6z"/><path fill="#101417" d="M54.4 9.6l9.6 9.598V9.6z"/><path fill="#494E55" d="M9.6 64L0 54.4h9.6z"/><path fill="#101417" d="M19.198 64L9.6 54.4V64z"/><path fill="#fff" d="M18.63 47.863h11.225l7.124-21.447h10.354l6.33-10.28H13.282l-2.947 5.386 2.947 4.894h12.472z"/><path d="M36.98 26.416l-5.915 17.78-1.21 3.667H18.632L34.77 64H64V26.474L53.664 16.137l-6.33 10.28H36.98zM22.636 35.77l3.118-9.354H13.283l9.354 9.354z" fill="#101417"/></g></svg>