<svg xmlns="http://www.w3.org/2000/svg" width="64" height="64" viewBox="0 0 64 64"><g><path fill="#415B6F" d="M0 0h54.4L64 9.6V64H9.6L0 54.4z"/><path fill="#678193" d="M54.4 0L64 9.6h-9.6z"/><path fill="#253D4E" d="M54.4 9.6l9.6 9.6V9.6z"/><path fill="#678193" d="M9.6 64L0 54.4h9.6z"/><path fill="#253D4E" d="M19.2 64l-9.6-9.6V64zM39.962 64H64V40.44L33.89 10.33v11.062h10.028v6.628H33.89v15.043c0 1.058 1.008 2.016 2.52 2.52 2.317.78 5.82.527 8.743-1.94v7.508c-.756.354-1.512.68-2.217.958-3.527 1.335-6.526 1.714-9.046 1.513-2.973-.252-5.568-1.335-7.383-3.073L39.962 64zM23.66 32.83v-4.81h-4.813l4.813 4.81z"/><path d="M33.89 53.62c3.024.25 6.778-.355 11.263-2.47v-7.51c-4.813 4.082-11.263 2.09-11.263-.578V28.02h10.028v-6.628H33.89v-11.06h-6.324c-.303 3.526-1.638 6.55-3.905 8.69-1.083.984-2.343 1.79-3.83 2.37-.302.126-.63.252-.982.353v6.274h4.813v15.494c0 5.947 4.36 9.6 10.23 10.105z" fill="#fff"/></g></svg>