<svg xmlns="http://www.w3.org/2000/svg" width="64" height="64" viewBox="0 0 64 64"><g><path fill="#3CC7F4" d="M0 0h54.4L64 9.6V64H9.6L0 54.4z"/><path fill="#69CEF2" d="M54.4 0L64 9.6h-9.6z"/><path fill="#289EC6" d="M54.4 9.6l9.6 9.598V9.6z"/><path fill="#69CEF2" d="M9.6 64L0 54.4h9.6z"/><path fill="#289EC6" d="M19.198 64L9.6 54.4V64zM40.57 42.912c-2.873 2.646-6.39 4.61-10.262 5.65-.944.265-1.908.453-2.89.604-.72.095-1.438.17-2.174.21h-2.76c-4.194-.23-8.105-1.513-11.488-3.572L29.193 64H64V27.814l-12.32-12.3c-.643 1.87-1.908 3.457-3.533 4.516l-.076.038H48.242c1.76 0 3.384-.51 4.763-1.398-.87 1.267-1.87 2.456-2.985 3.495-.472.454-.964.87-1.474 1.267l.037 1.285c0 7.198-3.08 13.68-8.01 18.195zM15.645 18.574c1.115 1.172 2.343 2.21 3.685 3.1l-5.933-5.953c.662 1.022 1.417 1.966 2.25 2.854zm1.85 17.196l1.607-.095c-1.587-.472-3.004-1.322-4.157-2.456l2.55 2.55zm3.857 7.312c.68-.378 1.36-.813 1.984-1.266-2.344-.208-4.46-1.23-6.047-2.797l4.063 4.062z"/><path d="M34.674 16.4c-1.152.89-2.078 2.022-2.684 3.364l-.32.794c-.17.53-.303 1.058-.378 1.605-.038.246-.057.51-.076.756l-.02.472.04.756.15 1.02H30.723c-2.947-.037-5.763-.68-8.313-1.794l-1.474-.737c-.283-.15-.548-.302-.812-.472-1.645-.982-3.156-2.21-4.48-3.59-.83-.89-1.586-1.833-2.247-2.855-.737 1.38-1.153 2.948-1.153 4.61 0 .624.058 1.248.17 1.834.058.265.114.51.17.736.492 1.796 1.456 3.383 2.778 4.61l.644.566-.832-.188c-1.077-.266-2.135-.625-3.137-1.04.132 2.136.964 4.1 2.268 5.67 1.247 1.473 2.91 2.606 4.8 3.154l-2.21.133-1.854-.095c1.38 3.345 4.556 5.782 8.297 6.104-3.458 2.494-7.73 3.987-12.34 3.987 3.383 2.06 7.294 3.345 11.49 3.572h2.758c13.02-.72 23.336-11.49 23.336-24.66l-.037-1.284c.51-.396 1.002-.813 1.475-1.266 1.114-1.04 2.116-2.23 2.985-3.496-1.38.89-3.005 1.398-4.762 1.398H48.072l.057-.038c1.645-1.058 2.91-2.646 3.553-4.516-1.284.66-2.664 1.172-4.1 1.568l-.19.038-1.057.245c-1.568-1.643-3.76-2.7-6.198-2.738h-.17c-.68 0-1.34.075-1.984.227-.98.226-1.89.603-2.7 1.133l-.606.418z" fill="#fff"/></g></svg>