<svg xmlns="http://www.w3.org/2000/svg" width="63.999" height="64.021" viewBox="0 0 63.999 64.021"><g><path fill="#00AA7C" d="M0 0h54.4L64 9.6V64H9.6L0 54.4z"/><path fill="#3BBE9A" d="M54.4 0L64 9.6h-9.6z"/><path fill="#008E67" d="M54.4 9.6l9.6 9.598V9.6z"/><path fill="#3BBE9A" d="M9.6 64L0 54.4h9.6z"/><path fill="#008E67" d="M19.198 64l-9.6-9.6V64zM45.808 64.02L25.623 43.53 21.49 27.252l1.2-6.784L39.85 37.89l1.057-3.638-4.334-5-2.083-6.417 2-3.667 5.167-.333 2.774-.692L63.954 37.96V64z"/><path d="M36.637 22.525c0-2.393 4.81-3.632 4.81.415-.015 2.22-.32 4.27-.81 6.146h5c.38-2.265.364-4.505.364-7.142 0-7.43-14-8.666-14 .746 0 6.608 3.18 10.087 6.508 11.92C35.736 39.933 32 42.835 32 42.835c-10.458-8.338-9.446-22.457-9.446-22.457h-4.556c.086 19.072 10.377 25.758 11.643 26.75s1.52.91 3.038.825c1.516-.082 4.974-3.47 9.19-9.904.407-.624.772-1.22 1.105-1.8 1.766.388 3.028.397 3.028.397V32.6c-8.857-.828-9.363-8.256-9.363-10.075z" fill="#fff"/></g></svg>