<svg xmlns="http://www.w3.org/2000/svg" width="64" height="64" viewBox="0 0 64 64"><g><path fill="#4C6E94" d="M0 0h54.4L64 9.6V64H9.6L0 54.4z"/><path fill="#6E8FB2" d="M54.4 0L64 9.6h-9.6z"/><path fill="#304E73" d="M54.4 9.6l9.6 9.598v-9.6z"/><path fill="#6E8FB2" d="M9.6 64L0 54.4h9.6z"/><path fill="#304E73" d="M19.198 64L9.6 54.4V64zM42.29 64H64V26.907l-7.293-7.294c.358.454.453 1.172-.152 2.363-2.23 4.326-4.535 6.442-7.086 10.26l-.038.037c-.7 1.06-1.02 2.117-.17 2.967 2.53 2.53 5.518 5.063 7.16 7.614 1.248 1.91.077 3.42-1.624 3.42H47.108c-1.002 0-1.853-.434-2.646-1.058-1.644-1.322-2.854-3.023-4.365-4.516-1.04-1.04-1.87-1.267-2.494-.736-.188.17-.358.396-.528.68-.53 1.002-.605 2.097-.72 4.1-.056.964-.718 1.398-1.605 1.53h-3.76c-4.48 0-8.296-1.927-11.603-5.177L42.29 64zM26.472 28.854L17.31 19.69c.132.113.226.265.282.396 1.984 4.535 4.29 8.598 6.443 11.017.492.548 1.342.756 1.908 0 .266-.36.436-1.21.53-2.25zm-.377-7.483c-.907-1.68-2.362-1.303-2.57-1.51l2.872 2.87c-.095-.66-.19-1.15-.302-1.36zm12.564 9.58c1.455-1.473 2.797-3.59 3.893-5.555l-6.67-6.67c.265.284.416.624.436 1.077.13 3.458-.267 7.16.112 10.41.112.966 1.02 1.968 2.228.74z"/><path d="M8.52 19.027l7.03-.018c1.04 0 1.796.51 2.04 1.075 1.985 4.535 4.29 8.598 6.444 11.017.492.548 1.342.756 1.908 0 .965-1.304.7-8.73.152-9.73-.983-1.815-2.608-1.23-2.608-1.57.057-1.095 1.493-2.06 6.746-2.078 4.1-.02 6.01.36 6.085 2.08.132 3.457-.266 7.16.113 10.41.112.964 1.02 1.966 2.23.737 3.286-3.362 6.083-9.882 6.424-11.034.17-.604.66-.89 1.247-.89l8.75-.017c1.04 0 2.72.547 1.474 2.966-2.23 4.326-4.535 6.442-7.087 10.26-.717 1.076-1.058 2.154-.207 3.004 2.53 2.53 5.518 5.064 7.16 7.615 1.248 1.908.077 3.42-1.624 3.42h-7.69c-1.002 0-1.853-.434-2.646-1.06-1.644-1.32-2.854-3.022-4.365-4.515-1.36-1.342-2.323-1.322-3.022-.057-.53 1.002-.605 2.097-.72 4.1-.056.965-.717 1.398-1.605 1.53h-3.76c-7.785 0-13.567-5.856-18.16-14.228-2.096-3.835-4.062-7.218-5.8-11.602-.15-.773.34-1.416 1.493-1.416z" fill="#fff"/></g></svg>