<svg xmlns="http://www.w3.org/2000/svg" width="64" height="64" viewBox="0 0 64 64"><g><path fill="#E6E6E5" d="M0 0h54.4L64 9.6V64H9.6L0 54.4z"/><path fill="#F2F3F3" d="M54.4 0L64 9.6h-9.6z"/><path fill="#C9C9C9" d="M54.4 9.6l9.6 9.6V9.6z"/><path fill="#F2F3F3" d="M9.6 64L0 54.4h9.6z"/><path fill="#C9C9C9" d="M19.2 64l-9.6-9.6V64zM49.133 48.856c-.302.757-.705 1.41-1.234 1.915-.48.43-1.058.757-1.79.934-3.83.933-25.196.73-28.22 0-.78-.202-1.386-.555-1.864-1.033L29.328 64H64V36.485L43.087 15.547v11.34h-2.192V25.75l-.655.58c-.2.152-.403.303-.604.404-.2.126-.43.2-.68.277h-.076c-.228.076-.504.102-.807.102-.605 0-1.083-.227-1.436-.63-.328-.43-.505-1.008-.505-1.764v-7.156l-1.26-1.285c.05.076.126.15.176.227.253.328.43.68.555 1.084.025.1.05.176.077.252.125.53.176 1.108.176 1.714v3.325c0 .378 0 .73-.05 1.058-.025.227-.076.453-.126.655-.127.53-.328.957-.632 1.335-.276.38-.654.655-1.107.857-.452.227-1.007.327-1.663.327-.654 0-1.234-.1-1.688-.327-.454-.202-.808-.48-1.11-.857-.276-.378-.503-.806-.603-1.335-.127-.53-.202-1.083-.202-1.714v-3.326c0-.605.075-1.185.202-1.714.05-.227.1-.428.2-.63.102-.252.253-.48.404-.706.303-.377.656-.654 1.11-.855.452-.203 1.032-.305 1.687-.305.454 0 .857.05 1.235.152l-3.83-3.83-1.587 4.56-1.513 4.334v6.326h-2.545l1.613 1.612c4.66-.126 10.432-.126 14.74.025 2.672.1 4.762.252 5.72.504 1.562.378 2.443 1.386 3.022 2.847.43 1.084.732 3.502.833 6.224.15 4.13-.1 8.92-.832 10.758zM25.373 17.46l.906-3.048-2.746-2.746 1.788 5.795h.05zm-3.4 30.415V34.948h2.24v-2.294h-6.802v2.294h2.243v12.927h2.32zm8.69 0v-11.34h-2.09v8.895c-.252.2-.48.378-.705.503-.202.152-.43.228-.655.228s-.404-.074-.53-.2c-.15-.15-.2-.354-.2-.63v-8.794h-2.117v9.172c0 .756.15 1.335.454 1.765.327.403.755.63 1.31.63.303 0 .58-.05.78-.102.228-.075.454-.15.632-.276.175-.102.377-.25.553-.403l.58-.58v1.136h1.99zm3.73-2.318v-6.703c.203-.176.404-.302.58-.43.15-.074.303-.125.43-.15h.175c.152 0 .278.025.403.076.128.05.23.126.33.276.1.152.15.33.2.556.025.074.05.15.05.25.026.178.026.404.026.682v4.21c0 .376-.025.68-.076.905-.05.226-.1.428-.2.554-.103.15-.202.25-.33.302-.124.05-.25.075-.402.075-.2 0-.402-.074-.604-.175-.177-.102-.378-.253-.58-.428zM38.7 41.55v-2.066c0-1.033-.2-1.813-.577-2.343-.38-.554-.908-.806-1.563-.806-.227 0-.43.025-.605.076-.176.05-.353.125-.528.227-.15.102-.327.227-.48.377l-.427.38-.127.124V32.655h-2.116v15.221h1.99V46.69h.05c.33.504.682.857.983 1.083.303.202.73.33 1.26.33.655 0 1.185-.28 1.563-.808.378-.53.58-1.336.58-2.368V41.55H38.7zm5.798-.832H42.18v-.604c0-.654.1-1.134.303-1.41.2-.303.478-.43.856-.43.377 0 .653.127.855.43.2.276.303.756.303 1.41v.604zm-1.16-4.384c-.603 0-1.108.1-1.512.303-.402.2-.756.478-1.008.855-.277.38-.454.832-.58 1.336-.1.53-.15 1.11-.15 1.714v3.327c0 .628.05 1.183.15 1.712.126.528.303.958.58 1.336.252.378.605.654 1.008.882.403.2.908.303 1.513.303S44.42 48 44.823 47.8c.025 0 .05-.026.076-.026.38-.2.68-.478.933-.806.276-.353.454-.78.58-1.285.125-.48.176-1.032.2-1.637H44.5v.25c0 .656-.102 1.135-.303 1.438-.2.277-.48.43-.856.43h-.052c-.353-.026-.63-.178-.806-.43-.102-.15-.178-.353-.228-.63-.05-.227-.075-.48-.075-.807V42.66h4.434v-2.117c0-.604-.076-1.184-.177-1.714-.1-.505-.303-.958-.555-1.337-.276-.378-.604-.653-1.032-.855-.403-.203-.907-.304-1.51-.304zm-4.89-15.9v3.906c0 .277.077.48.23.63.15.126.352.202.603.202s.48-.076.707-.227c.252-.126.503-.303.78-.504v-6.577l-2.318-2.316V20.436zm-4.886 2.873v-4.182c0-.655-.126-1.134-.353-1.41-.202-.303-.53-.43-.934-.43-.428 0-.73.127-.956.43-.228.276-.328.755-.328 1.41v4.183c0 .655.1 1.135.328 1.412.227.302.528.453.956.453.404 0 .73-.15.933-.453.226-.28.352-.758.352-1.413z"/><path d="M26.582 20.56l3.1-8.894h-2.595l-1.714 5.795h-.05l-1.79-5.794H20.94l3.1 8.895v6.325h2.544V20.56zm6.98 2.747c0 .655-.126 1.135-.353 1.412-.202.3-.53.452-.934.452-.428 0-.73-.15-.956-.453-.228-.278-.328-.758-.328-1.413v-4.182c0-.656.1-1.135.328-1.412.227-.302.528-.428.956-.428.404 0 .73.126.933.428.226.277.352.756.352 1.412v4.182zm-4.888-.428c0 .63.075 1.183.2 1.712.103.53.33.958.606 1.336.302.378.655.654 1.108.856.453.228 1.033.327 1.688.327s1.21-.1 1.664-.326c.452-.2.83-.48 1.107-.856.304-.378.505-.807.632-1.336.124-.53.175-1.083.175-1.713v-3.327c0-.604-.05-1.185-.176-1.714-.128-.504-.33-.958-.633-1.336-.276-.378-.655-.655-1.107-.856-.454-.202-1.008-.303-1.664-.303-.654 0-1.234.1-1.688.303-.453.2-.807.48-1.108.856-.277.378-.504.832-.605 1.335-.126.528-.2 1.108-.2 1.713v3.326zm12.095-7.333v8.895c-.28.2-.53.378-.782.504-.227.15-.454.227-.706.227s-.453-.076-.604-.202c-.15-.15-.228-.352-.228-.63V15.55h-2.317v9.172c0 .755.177 1.335.505 1.764.353.402.83.63 1.436.63.328 0 .63-.05.882-.1.252-.077.48-.152.68-.28.202-.1.404-.25.605-.402.178-.176.404-.377.656-.58v1.135h2.192v-11.34h-2.32z" fill="#0E0E0E"/><path d="M26.48 36.535v8.794c0 .275.052.478.203.63.125.125.303.2.53.2s.452-.075.654-.228c.226-.125.453-.302.705-.503v-8.896h2.09v11.34h-1.99V46.74l-.58.58c-.175.15-.377.3-.553.402-.178.126-.404.2-.63.277-.203.05-.48.1-.782.1-.555 0-.982-.226-1.31-.63-.303-.43-.455-1.008-.455-1.764v-9.172h2.118zm16.002 2.168c-.203.276-.303.756-.303 1.41v.604h2.317v-.604c0-.654-.102-1.134-.303-1.41-.2-.303-.48-.43-.856-.43-.378 0-.654.127-.856.43zm-8.09.15v6.704c.204.176.405.326.582.428.2.1.402.176.604.176.152 0 .278-.023.403-.074.128-.05.23-.15.33-.302.1-.126.15-.328.2-.555.05-.228.076-.53.076-.907v-4.21c0-.402-.025-.705-.076-.93-.05-.228-.1-.404-.2-.557-.103-.15-.202-.227-.33-.276-.124-.05-.25-.076-.402-.076-.2 0-.402.05-.604.15-.177.128-.378.254-.58.43zm-12.42-3.905v12.927h-2.318V34.948h-2.242v-2.294h6.803v2.294h-2.243zm10.304 12.927v-15.22h2.116v4.862l.555-.504c.152-.15.328-.275.48-.377.175-.102.353-.177.527-.227.177-.052.38-.077.605-.077.653 0 1.184.252 1.562.807.377.53.58 1.31.58 2.343v5.442c0 1.033-.202 1.84-.58 2.37-.378.527-.908.805-1.563.805-.53 0-.96-.126-1.26-.328-.304-.226-.656-.58-.984-1.083h-.05v1.184h-1.99zm7.812-7.334c0-.603.05-1.183.15-1.712.127-.504.303-.957.58-1.336.252-.378.605-.654 1.008-.855.403-.202.908-.303 1.513-.303s1.107.1 1.51.303c.43.2.757.478 1.033.855.252.38.454.832.555 1.336.1.53.177 1.11.177 1.713v2.118H42.18v1.638c0 .655.1 1.134.303 1.437.2.277.478.43.856.43.377 0 .654-.152.855-.43.202-.303.303-.78.303-1.437v-.25h2.116c-.025.603-.076 1.157-.2 1.636-.127.505-.305.933-.58 1.285-.253.354-.605.63-1.01.832-.402.2-.88.302-1.485.302S42.23 48 41.825 47.8c-.402-.23-.756-.505-1.007-.884-.28-.377-.455-.807-.58-1.335-.102-.528-.152-1.083-.152-1.713V40.54zM17.89 29.028c-1.563.377-2.444 1.385-3.023 2.847-1.084 2.67-1.21 13.934 0 16.982.58 1.462 1.46 2.47 3.023 2.848 3.023.73 24.39.933 28.22 0 1.563-.378 2.444-1.386 3.023-2.848 1.235-3.05 1.084-14.286 0-16.982-.58-1.462-1.46-2.47-3.023-2.847-3.73-.932-25.45-.68-28.22 0z" fill="#C4202D"/></g></svg>