<?xml version="1.0" encoding="iso-8859-1"?>
<!-- Generator: Adobe Illustrator 16.0.0, SVG Export Plug-In . SVG Version: 6.00 Build 0)  -->
<!DOCTYPE svg PUBLIC "-//W3C//DTD SVG 1.1//EN" "http://www.w3.org/Graphics/SVG/1.1/DTD/svg11.dtd">
<svg version="1.1" xmlns="http://www.w3.org/2000/svg" xmlns:xlink="http://www.w3.org/1999/xlink" x="0px" y="0px"
	 width="404.001px" height="60px" viewBox="0 0 404.001 60" style="enable-background:new 0 0 404.001 60;" xml:space="preserve">
<g id="preview6">
	<rect style="fill:#FFFFFF;" width="404.001" height="60"/>
	<g>
		<g>
			<g>
				<g>
					<path style="fill:#346DA6;" d="M25.452,21.076l-1.834-2.243c0,0,0.574-1.529,2.049-2.779
						c-6.176-2.758-14.666,0.749-14.501-1.559c0.365-5.09,11.063-6.451,15.376,0.733c0.865-0.502,2.049-0.733,3.375-0.771
						l2.05,2.367c1.799-0.647,3.738-1.002,5.76-1.002c9.367,0,16.96,7.593,16.96,16.96s-7.594,16.961-16.96,16.961
						c-9.366,0-16.96-7.595-16.96-16.961C20.766,28.241,22.548,24.12,25.452,21.076L25.452,21.076z M11.829,14.459
						c-0.081,1.11,7.541-1.526,14.217,1.077c-2.559-4.445-8.098-4.743-8.608-4.716C16.929,10.849,12.108,11.288,11.829,14.459z"/>
					<path style="fill:#FFFFFF;fill-opacity:0.3;" d="M35.082,26.121l-0.779,2.427l2.979,3.019l0.046-4.241L35.082,26.121
						L35.082,26.121z M35.399,26.908l-0.492,1.394l1.933,2.175l-0.119-2.906L35.399,26.908L35.399,26.908z M40.481,26.169
						l-2.266,1.164l-0.029,4.24l3.031-2.967L40.481,26.169L40.481,26.169z M44.267,30.02l-2.425-0.779l-3.02,2.98l4.24,0.045
						L44.267,30.02L44.267,30.02z M44.219,35.42l-1.164-2.267l-4.24-0.028l2.966,3.031l2.438-0.734L44.219,35.42z M40.369,39.205
						l0.779-2.426l-2.978-3.017l-0.046,4.239l2.244,1.203H40.369z M34.968,39.158l2.267-1.164l0.029-4.241l-3.031,2.967
						L34.968,39.158z M31.183,35.306l2.426,0.779l3.018-2.978l-4.24-0.046L31.183,35.306z M31.231,29.906l1.163,2.267l4.24,0.027
						l-2.966-3.031l-2.438,0.737H31.231z M40.152,26.949l-1.333,0.64l-0.17,2.903l1.97-2.141L40.152,26.949L40.152,26.949z
						 M43.481,30.338l-1.395-0.492l-2.173,1.935l2.907-0.118L43.481,30.338L43.481,30.338z M43.44,35.089l-0.639-1.333l-2.905-0.169
						l2.14,1.97L43.44,35.089L43.44,35.089z M40.05,38.419l0.492-1.396l-1.934-2.173l0.119,2.907L40.05,38.419L40.05,38.419z
						 M35.299,38.376l1.334-0.639l0.169-2.903l-1.97,2.139L35.299,38.376z M31.969,34.988l1.396,0.493l2.174-1.935l-2.907,0.12
						l-0.661,1.322L31.969,34.988z M32.011,30.237l0.638,1.335l2.905,0.169l-2.141-1.97L32.011,30.237L32.011,30.237z"/>
					<path style="fill:#FFFFFF;fill-opacity:0.3;" d="M37.726,19.736c0.359,0,0.652-0.291,0.652-0.652s-0.293-0.652-0.652-0.652
						c-0.36,0-0.652,0.291-0.652,0.652S37.364,19.736,37.726,19.736z M46.891,23.532c0.256,0.257,0.669,0.257,0.924,0
						c0.255-0.253,0.255-0.666,0-0.921c-0.254-0.254-0.668-0.254-0.922,0c-0.255,0.255-0.255,0.668,0,0.923L46.891,23.532z
						 M50.688,32.7c0,0.36,0.292,0.652,0.652,0.652c0.361,0,0.652-0.292,0.652-0.652c0-0.361-0.292-0.652-0.652-0.652
						C50.98,32.048,50.688,32.341,50.688,32.7z M46.892,41.866c-0.255,0.256-0.255,0.669,0,0.923c0.254,0.254,0.667,0.254,0.922,0
						s0.255-0.667,0-0.923C47.56,41.612,47.146,41.612,46.892,41.866L46.892,41.866z M37.725,45.662
						c-0.362,0-0.653,0.294-0.653,0.652c0,0.362,0.291,0.652,0.653,0.652c0.361,0,0.652-0.29,0.652-0.652
						C38.377,45.956,38.084,45.662,37.725,45.662z M28.558,41.866c-0.254-0.256-0.668-0.256-0.923,0s-0.255,0.669,0,0.923
						s0.667,0.254,0.923,0C28.812,42.535,28.812,42.122,28.558,41.866L28.558,41.866z M24.762,32.7c0-0.361-0.293-0.652-0.652-0.652
						c-0.361,0-0.652,0.291-0.652,0.652c0,0.36,0.291,0.652,0.652,0.652C24.467,33.353,24.762,33.061,24.762,32.7z M28.558,23.534
						c0.254-0.255,0.254-0.667,0-0.923c-0.254-0.254-0.668-0.254-0.923,0c-0.255,0.255-0.255,0.668,0,0.923
						S28.302,23.789,28.558,23.534L28.558,23.534z"/>
					<path style="fill:#FFFFFF;fill-opacity:0.3;" d="M32.693,28.56l0.039,0.038c0,0,0.462,0.463,0.923,0
						c0.461-0.462,0-0.922,0-0.922l-0.039-0.039v-3.206c0,0,0-0.651-0.653-0.651c-0.652,0-0.652,0.651-0.652,0.651v1.901
						L31.33,25.35v-1.603c0,0,0-0.326-0.326-0.326s-0.326,0.326-0.326,0.326v0.95l-0.711-0.711c0,0-0.462-0.462-0.923,0
						s0,0.922,0,0.922l0.711,0.711h-0.951c0,0-0.326,0-0.326,0.326s0.326,0.326,0.326,0.326h1.602l0.982,0.983h-1.9
						c0,0-0.653,0-0.653,0.652s0.653,0.652,0.653,0.652H32.693L32.693,28.56z M31.262,33.32h0.056c0,0,0.653,0,0.653-0.652
						s-0.653-0.652-0.653-0.652h-0.056l-2.266-2.268c0,0-0.461-0.462-0.922,0s0,0.924,0,0.924l1.344,1.343h-1.388l-1.132-1.134
						c0,0-0.23-0.229-0.461,0c-0.231,0.231,0,0.462,0,0.462l0.671,0.672h-1.007c0,0-0.652,0-0.652,0.652s0.652,0.652,0.652,0.652
						h1.007l-0.671,0.673c0,0-0.231,0.23,0,0.461c0.23,0.229,0.461,0,0.461,0l1.132-1.134h1.391l-1.346,1.344
						c0,0-0.461,0.463,0,0.924s0.922,0,0.922,0l2.267-2.268L31.262,33.32z M33.617,37.697l0.039-0.039c0,0,0.463-0.461,0-0.922
						c-0.462-0.461-0.922,0-0.922,0l-0.039,0.038h-3.208c0,0-0.652,0-0.652,0.652s0.652,0.652,0.652,0.652h1.901l-0.981,0.983
						h-1.603c0,0-0.326,0-0.326,0.326s0.326,0.326,0.326,0.326h0.951l-0.711,0.713c0,0-0.461,0.461,0,0.922
						c0.461,0.461,0.922,0,0.922,0l0.71-0.713v0.951c0,0,0,0.326,0.326,0.326s0.326-0.326,0.326-0.326v-1.604l0.983-0.981v1.9
						c0,0,0,0.653,0.652,0.653c0.652,0,0.652-0.653,0.652-0.653L33.617,37.697L33.617,37.697z M38.378,39.13v-0.056
						c0,0,0-0.652-0.652-0.652s-0.652,0.652-0.652,0.652v0.056l-2.267,2.267c0,0-0.461,0.462,0,0.923s0.922,0,0.922,0l1.343-1.345
						v1.389l-1.132,1.133c0,0-0.231,0.23,0,0.461c0.231,0.23,0.461,0,0.461,0l0.673-0.671v1.007c0,0,0,0.652,0.652,0.652
						s0.652-0.652,0.652-0.652v-1.007l0.671,0.671c0,0,0.23,0.232,0.46,0c0.23-0.23,0-0.46,0-0.46l-1.133-1.134v-1.389l1.344,1.345
						c0,0,0.461,0.461,0.923,0c0.461-0.461,0-0.923,0-0.923L38.378,39.13L38.378,39.13z M42.757,36.775l-0.04-0.039
						c0,0-0.461-0.461-0.923,0c-0.461,0.462,0,0.922,0,0.922l0.039,0.039v3.206c0,0,0,0.653,0.652,0.653
						c0.653,0,0.653-0.653,0.653-0.653v-1.9l0.982,0.981v1.602c0,0,0,0.326,0.326,0.326s0.326-0.326,0.326-0.326v-0.949l0.711,0.712
						c0,0,0.462,0.462,0.924,0c0.461-0.461,0-0.921,0-0.921l-0.711-0.713h0.951c0,0,0.326,0,0.326-0.326s-0.326-0.326-0.326-0.326
						h-1.604l-0.981-0.982h1.901c0,0,0.652,0,0.652-0.652s-0.652-0.652-0.652-0.652H42.757z M44.189,32.016h-0.056
						c0,0-0.652,0-0.652,0.652s0.652,0.652,0.652,0.652h0.057l2.267,2.267c0,0,0.461,0.461,0.923,0c0.461-0.461,0-0.923,0-0.923
						l-1.344-1.344h1.388l1.132,1.133c0,0,0.23,0.229,0.461,0c0.23-0.23,0-0.463,0-0.463l-0.671-0.671h1.007
						c0,0,0.652,0,0.652-0.652s-0.652-0.652-0.652-0.652h-1.006l0.671-0.673c0,0,0.231-0.23,0-0.461c-0.229-0.229-0.461,0-0.461,0
						l-1.132,1.134h-1.39l1.345-1.343c0,0,0.461-0.463,0-0.925c-0.461-0.462-0.923,0-0.923,0L44.189,32.016L44.189,32.016z
						 M41.833,27.637l-0.039,0.039c0,0-0.461,0.461,0,0.922s0.922,0,0.922,0l0.04-0.038h3.206c0,0,0.652,0,0.652-0.652
						s-0.652-0.652-0.652-0.652h-1.901l0.982-0.984h1.603c0,0,0.326,0,0.326-0.326s-0.326-0.326-0.326-0.326h-0.951l0.711-0.71
						c0,0,0.461-0.462,0-0.924c-0.462-0.461-0.922,0-0.922,0l-0.711,0.711v-0.95c0,0,0-0.326-0.326-0.326s-0.326,0.326-0.326,0.326
						v1.604L43.14,26.33v-1.9c0,0,0-0.652-0.652-0.652s-0.652,0.652-0.652,0.652v3.205L41.833,27.637z M37.074,26.203v0.057
						c0,0,0,0.652,0.652,0.652s0.652-0.652,0.652-0.652v-0.057l2.266-2.267c0,0,0.461-0.461,0-0.922c-0.461-0.461-0.923,0-0.923,0
						l-1.343,1.343V22.97l1.132-1.134c0,0,0.231-0.231,0-0.461c-0.231-0.23-0.461,0-0.461,0l-0.672,0.673v-1.006
						c0,0,0-0.652-0.652-0.652c-0.653,0-0.653,0.652-0.653,0.652v1.006l-0.671-0.672c0,0-0.232-0.231-0.462,0
						c-0.23,0.23,0,0.461,0,0.461l1.133,1.133v1.39l-1.345-1.345c0,0-0.461-0.461-0.922,0s0,0.922,0,0.922l2.267,2.267H37.074z"/>
				</g>
			</g>
			<g>
				<path style="fill:#FFFFFF;" d="M35.16,42.573v-9.789h-1.99v-3.246h1.99v-1.963c0-2.646,0.791-4.555,3.689-4.555h3.448v3.237
					H39.87c-1.216,0-1.494,0.809-1.494,1.655v1.625h3.741l-0.509,3.246h-3.232v9.789H35.16L35.16,42.573z"/>
			</g>
		</g>
	</g>
	<g>
		<g>
			<g>
				<g>
					<path style="fill:#55ACEE;" d="M81.813,21.076l-1.835-2.242c0,0,0.575-1.529,2.049-2.779
						c-6.175-2.758-14.665,0.748-14.501-1.56c0.365-5.089,11.063-6.45,15.375,0.734c0.866-0.503,2.049-0.734,3.376-0.772l2.05,2.368
						c1.798-0.648,3.738-1.003,5.759-1.003c9.367,0,16.961,7.593,16.961,16.961c0,9.367-7.594,16.961-16.961,16.961
						c-9.366,0-16.959-7.596-16.959-16.961c0-4.541,1.782-8.663,4.688-11.707H81.813z M68.189,14.459
						c-0.08,1.111,7.541-1.525,14.218,1.077c-2.559-4.444-8.098-4.742-8.608-4.715C73.291,10.85,68.47,11.288,68.189,14.459z"/>
					<path style="fill:#FFFFFF;fill-opacity:0.3;" d="M91.443,26.121l-0.779,2.428l2.979,3.018l0.046-4.241L91.443,26.121
						L91.443,26.121z M91.761,26.909l-0.492,1.394l1.933,2.175l-0.118-2.907L91.761,26.909L91.761,26.909z M96.842,26.169
						l-2.265,1.164l-0.029,4.241l3.031-2.967L96.842,26.169L96.842,26.169z M100.627,30.021l-2.425-0.779l-3.02,2.98l4.24,0.044
						L100.627,30.021L100.627,30.021z M100.581,35.421l-1.164-2.267l-4.24-0.028l2.966,3.031L100.581,35.421L100.581,35.421z
						 M96.73,39.206l0.779-2.426l-2.978-3.017l-0.046,4.239l2.244,1.203H96.73z M91.33,39.158l2.267-1.164l0.029-4.24l-3.031,2.966
						L91.33,39.158z M87.544,35.306l2.426,0.779l3.018-2.978l-4.24-0.046L87.544,35.306z M87.593,29.907l1.163,2.266l4.24,0.028
						l-2.967-3.031l-2.438,0.737H87.593z M96.513,26.949l-1.334,0.64l-0.17,2.903l1.971-2.14L96.513,26.949L96.513,26.949z
						 M99.842,30.338l-1.396-0.491l-2.173,1.935l2.907-0.118l0.663-1.323L99.842,30.338z M99.801,35.09l-0.639-1.333l-2.905-0.17
						l2.14,1.97L99.801,35.09L99.801,35.09z M96.411,38.42l0.492-1.396l-1.934-2.174l0.12,2.908L96.411,38.42L96.411,38.42z
						 M91.66,38.377l1.333-0.639l0.17-2.904l-1.97,2.14L91.66,38.377z M88.33,34.989l1.396,0.492l2.174-1.934l-2.907,0.12
						l-0.661,1.321H88.33z M88.372,30.238l0.637,1.335l2.905,0.169l-2.14-1.971L88.372,30.238L88.372,30.238z"/>
					<path style="fill:#FFFFFF;fill-opacity:0.3;" d="M94.087,19.737c0.359,0,0.653-0.292,0.653-0.652
						c0-0.361-0.293-0.652-0.653-0.652c-0.36,0-0.652,0.291-0.652,0.652C93.435,19.445,93.726,19.737,94.087,19.737z
						 M103.251,23.533c0.256,0.257,0.669,0.257,0.924,0c0.255-0.254,0.255-0.666,0-0.921c-0.254-0.255-0.667-0.255-0.922,0
						c-0.255,0.254-0.254,0.667,0,0.922L103.251,23.533z M107.05,32.7c0,0.361,0.292,0.652,0.652,0.652s0.652-0.291,0.652-0.652
						c0-0.36-0.292-0.652-0.652-0.652S107.05,32.342,107.05,32.7z M103.253,41.866c-0.255,0.256-0.255,0.669,0,0.924
						c0.255,0.253,0.667,0.253,0.922,0c0.255-0.255,0.255-0.668,0-0.923C103.921,41.613,103.507,41.613,103.253,41.866
						L103.253,41.866z M94.086,45.663c-0.361,0-0.652,0.293-0.652,0.652c0,0.361,0.291,0.652,0.652,0.652
						c0.362,0,0.652-0.291,0.652-0.652C94.738,45.956,94.445,45.663,94.086,45.663z M84.919,41.866
						c-0.254-0.255-0.668-0.255-0.923,0c-0.254,0.256-0.254,0.669,0,0.924c0.255,0.253,0.668,0.253,0.923,0
						C85.173,42.535,85.173,42.122,84.919,41.866L84.919,41.866z M81.123,32.7c0-0.36-0.293-0.652-0.652-0.652
						c-0.362,0-0.653,0.292-0.653,0.652c0,0.361,0.291,0.652,0.653,0.652C80.829,33.353,81.123,33.062,81.123,32.7z M84.919,23.534
						c0.254-0.255,0.254-0.666,0-0.922c-0.254-0.255-0.668-0.255-0.923,0c-0.254,0.255-0.254,0.667,0,0.922
						C84.25,23.79,84.664,23.79,84.919,23.534L84.919,23.534z"/>
					<path style="fill:#FFFFFF;fill-opacity:0.3;" d="M89.055,28.56l0.039,0.039c0,0,0.462,0.462,0.923,0s0-0.922,0-0.922
						l-0.039-0.039v-3.206c0,0,0-0.652-0.652-0.652s-0.652,0.652-0.652,0.652v1.9l-0.981-0.981v-1.604c0,0,0-0.326-0.326-0.326
						s-0.326,0.326-0.326,0.326v0.951l-0.711-0.711c0,0-0.462-0.462-0.923,0c-0.461,0.461,0,0.922,0,0.922l0.711,0.711h-0.95
						c0,0-0.326,0-0.326,0.326s0.326,0.326,0.326,0.326h1.603l0.982,0.982h-1.901c0,0-0.652,0-0.652,0.652s0.652,0.652,0.652,0.652
						H89.055L89.055,28.56z M87.623,33.32h0.056c0,0,0.652,0,0.652-0.651c0-0.652-0.652-0.652-0.652-0.652h-0.056l-2.266-2.269
						c0,0-0.461-0.461-0.922,0c-0.461,0.462,0,0.924,0,0.924l1.343,1.343h-1.387l-1.133-1.133c0,0-0.23-0.23-0.461,0
						c-0.23,0.23,0,0.461,0,0.461l0.671,0.672h-1.006c0,0-0.652,0-0.652,0.653c0,0.652,0.652,0.652,0.652,0.652h1.006l-0.671,0.672
						c0,0-0.23,0.23,0,0.462c0.231,0.229,0.461,0,0.461,0l1.133-1.134h1.39l-1.345,1.343c0,0-0.461,0.463,0,0.925
						c0.461,0.461,0.922,0,0.922,0l2.267-2.268H87.623z M89.978,37.698l0.039-0.039c0,0,0.462-0.462,0-0.922
						c-0.462-0.461-0.922,0-0.922,0l-0.039,0.038h-3.208c0,0-0.652,0-0.652,0.652s0.652,0.652,0.652,0.652h1.901l-0.98,0.983h-1.604
						c0,0-0.326,0-0.326,0.325c0,0.326,0.326,0.326,0.326,0.326h0.951l-0.711,0.713c0,0-0.461,0.462,0,0.922
						c0.461,0.461,0.922,0,0.922,0l0.711-0.712v0.95c0,0,0,0.327,0.326,0.327s0.326-0.327,0.326-0.327v-1.603l0.982-0.982v1.901
						c0,0,0,0.652,0.652,0.652s0.652-0.652,0.652-0.652L89.978,37.698L89.978,37.698z M94.74,39.131v-0.057c0,0,0-0.651-0.653-0.651
						c-0.652,0-0.652,0.651-0.652,0.651v0.057l-2.268,2.267c0,0-0.461,0.461,0,0.923c0.461,0.461,0.922,0,0.922,0l1.344-1.345v1.389
						l-1.133,1.133c0,0-0.23,0.23,0,0.461c0.231,0.23,0.461,0,0.461,0l0.673-0.671v1.007c0,0,0,0.652,0.652,0.652
						c0.653,0,0.653-0.652,0.653-0.652v-1.007l0.671,0.671c0,0,0.23,0.232,0.46,0c0.23-0.231,0-0.46,0-0.46l-1.133-1.134v-1.389
						l1.344,1.345c0,0,0.461,0.461,0.922,0c0.461-0.462,0-0.923,0-0.923L94.74,39.131L94.74,39.131z M99.119,36.776l-0.04-0.039
						c0,0-0.462-0.461-0.923,0c-0.461,0.462,0,0.922,0,0.922l0.039,0.039v3.206c0,0,0,0.652,0.652,0.652s0.652-0.652,0.652-0.652
						v-1.901l0.982,0.981v1.603c0,0,0,0.326,0.326,0.326s0.326-0.326,0.326-0.326v-0.949l0.711,0.712c0,0,0.462,0.461,0.923,0
						c0.461-0.462,0-0.922,0-0.922l-0.711-0.713h0.951c0,0,0.326,0,0.326-0.326c0-0.325-0.326-0.325-0.326-0.325h-1.604
						l-0.981-0.982h1.9c0,0,0.653,0,0.653-0.653c0-0.651-0.653-0.651-0.653-0.651H99.119z M100.55,32.017h-0.056
						c0,0-0.652,0-0.652,0.652c0,0.651,0.652,0.651,0.652,0.651h0.057l2.267,2.268c0,0,0.461,0.461,0.922,0
						c0.461-0.462,0-0.923,0-0.923l-1.343-1.345h1.388l1.133,1.134c0,0,0.231,0.229,0.461,0c0.23-0.231,0-0.463,0-0.463
						l-0.672-0.671h1.007c0,0,0.652,0,0.652-0.652c0-0.653-0.652-0.653-0.652-0.653h-1.007l0.672-0.672c0,0,0.23-0.23,0-0.461
						s-0.461,0-0.461,0l-1.133,1.133h-1.39l1.345-1.343c0,0,0.461-0.463,0-0.925c-0.461-0.461-0.922,0-0.922,0l-2.267,2.268
						L100.55,32.017z M98.195,27.638l-0.039,0.038c0,0-0.461,0.462,0,0.923c0.461,0.461,0.923,0,0.923,0l0.04-0.039h3.205
						c0,0,0.653,0,0.653-0.652s-0.653-0.652-0.653-0.652h-1.9l0.982-0.983h1.603c0,0,0.326,0,0.326-0.326s-0.326-0.326-0.326-0.326
						h-0.951l0.711-0.711c0,0,0.461-0.462,0-0.923c-0.462-0.462-0.922,0-0.922,0l-0.711,0.71v-0.949c0,0,0-0.326-0.326-0.326
						s-0.326,0.326-0.326,0.326v1.603L99.5,26.331v-1.9c0,0,0-0.652-0.652-0.652c-0.652,0-0.652,0.652-0.652,0.652v3.205
						L98.195,27.638z M93.435,26.204v0.056c0,0,0,0.652,0.652,0.652c0.653,0,0.653-0.652,0.653-0.652v-0.056l2.265-2.268
						c0,0,0.461-0.461,0-0.922s-0.922,0-0.922,0l-1.343,1.344V22.97l1.132-1.133c0,0,0.231-0.231,0-0.462
						c-0.231-0.229-0.461,0-0.461,0l-0.672,0.673v-1.006c0,0,0-0.652-0.652-0.652s-0.652,0.652-0.652,0.652v1.007l-0.671-0.673
						c0,0-0.232-0.23-0.462,0c-0.23,0.23,0,0.462,0,0.462l1.133,1.132v1.391l-1.345-1.346c0,0-0.461-0.461-0.923,0
						c-0.461,0.461,0,0.922,0,0.922l2.267,2.268H93.435z"/>
				</g>
			</g>
			<g>
				<path style="fill:#FFFFFF;" d="M100.334,26.247c-0.683-0.776-1.657-1.271-2.734-1.291c-2.071-0.035-3.749,1.716-3.749,3.905
					c0,0.313,0.033,0.614,0.097,0.906c-3.114-0.202-5.875-1.824-7.724-4.269c-0.322,0.586-0.507,1.271-0.507,2.005
					c0,1.389,0.662,2.62,1.667,3.348c-0.613-0.026-1.191-0.212-1.697-0.519v0.051c0,1.941,1.292,3.566,3.005,3.945
					c-0.313,0.09-0.645,0.135-0.987,0.133c-0.241-0.002-0.476-0.029-0.705-0.076c0.477,1.591,1.861,2.751,3.5,2.789
					c-1.282,1.063-2.897,1.698-4.654,1.696c-0.302-0.003-0.6-0.021-0.894-0.059c1.659,1.138,3.629,1.8,5.744,1.8
					c6.893,0.002,10.663-5.994,10.663-11.198c0-0.172-0.005-0.34-0.012-0.51c0.731-0.546,1.368-1.229,1.87-2.011
					c-0.672,0.303-1.394,0.504-2.153,0.589c0.774-0.477,1.369-1.238,1.648-2.152C101.99,25.769,101.188,26.084,100.334,26.247
					L100.334,26.247z"/>
			</g>
		</g>
	</g>
	<g>
		<g>
			<g>
				<g>
					<path style="fill:#B81E00;" d="M138.173,21.075l-1.834-2.243c0,0,0.575-1.528,2.049-2.778
						c-6.174-2.758-14.665,0.748-14.501-1.56c0.365-5.088,11.063-6.45,15.376,0.734c0.866-0.502,2.049-0.734,3.375-0.772l2.05,2.368
						c1.798-0.648,3.738-1.002,5.761-1.002c9.365,0,16.96,7.593,16.96,16.96s-7.595,16.961-16.96,16.961
						c-9.367,0-16.962-7.595-16.962-16.961c0-4.54,1.783-8.663,4.688-11.707H138.173z M124.549,14.459
						c-0.08,1.111,7.541-1.526,14.218,1.076c-2.559-4.443-8.098-4.742-8.607-4.716C129.651,10.849,124.83,11.288,124.549,14.459z"/>
					<path style="fill:#FFFFFF;fill-opacity:0.3;" d="M147.804,26.12l-0.779,2.427l2.979,3.019l0.045-4.24L147.804,26.12
						L147.804,26.12z M148.121,26.908l-0.492,1.394l1.934,2.175l-0.12-2.907L148.121,26.908L148.121,26.908z M153.202,26.169
						l-2.265,1.163l-0.029,4.242l3.031-2.967l-0.735-2.438H153.202z M156.989,30.02l-2.427-0.777l-3.017,2.979l4.24,0.045
						L156.989,30.02L156.989,30.02z M156.942,35.42l-1.165-2.267l-4.24-0.028l2.967,3.031L156.942,35.42L156.942,35.42z
						 M153.09,39.205l0.778-2.426l-2.979-3.018l-0.046,4.241L153.09,39.205L153.09,39.205z M147.689,39.158l2.267-1.165l0.03-4.239
						l-3.031,2.966L147.689,39.158z M143.906,35.306l2.424,0.779l3.018-2.978l-4.24-0.046L143.906,35.306L143.906,35.306z
						 M143.953,29.906l1.163,2.266l4.24,0.028l-2.965-3.03L143.953,29.906L143.953,29.906z M152.874,26.949l-1.334,0.639
						l-0.171,2.903l1.971-2.14L152.874,26.949L152.874,26.949z M156.203,30.338l-1.395-0.492l-2.172,1.935l2.905-0.117
						L156.203,30.338L156.203,30.338z M156.162,35.089l-0.639-1.333l-2.905-0.17l2.14,1.971L156.162,35.089L156.162,35.089z
						 M152.771,38.419l0.492-1.395l-1.933-2.174l0.119,2.907L152.771,38.419L152.771,38.419z M148.021,38.376l1.334-0.639
						l0.171-2.904l-1.97,2.141L148.021,38.376z M144.69,34.988l1.395,0.492l2.175-1.934l-2.908,0.12L144.69,34.988L144.69,34.988z
						 M144.732,30.237l0.638,1.335l2.906,0.17l-2.14-1.972L144.732,30.237z"/>
					<path style="fill:#FFFFFF;fill-opacity:0.3;" d="M150.448,19.736c0.359,0,0.652-0.292,0.652-0.652s-0.293-0.652-0.652-0.652
						c-0.36,0-0.652,0.292-0.652,0.652S150.086,19.736,150.448,19.736z M159.612,23.533c0.256,0.256,0.668,0.256,0.924,0
						c0.254-0.256,0.253-0.667,0-0.921c-0.255-0.256-0.668-0.256-0.923,0c-0.256,0.253-0.254,0.666,0,0.921H159.612z
						 M163.411,32.699c0,0.361,0.292,0.652,0.652,0.652s0.652-0.291,0.652-0.652c0-0.36-0.292-0.652-0.652-0.652
						S163.411,32.34,163.411,32.699z M159.613,41.865c-0.256,0.256-0.256,0.669,0,0.924c0.255,0.254,0.667,0.254,0.923,0
						c0.253-0.255,0.253-0.668,0-0.922c-0.255-0.257-0.668-0.256-0.923,0V41.865z M150.446,45.662c-0.361,0-0.652,0.293-0.652,0.652
						c0,0.362,0.291,0.652,0.652,0.652c0.362,0,0.653-0.29,0.653-0.652C151.099,45.955,150.806,45.662,150.446,45.662z
						 M141.28,41.865c-0.255-0.255-0.669-0.255-0.924,0c-0.255,0.256-0.255,0.669,0,0.924c0.255,0.254,0.669,0.254,0.924,0
						c0.255-0.255,0.255-0.668,0-0.922V41.865z M137.481,32.699c0-0.36-0.292-0.652-0.652-0.652c-0.359,0-0.652,0.292-0.652,0.652
						c0,0.361,0.293,0.652,0.652,0.652C137.19,33.352,137.481,33.061,137.481,32.699z M141.28,23.533
						c0.255-0.254,0.255-0.666,0-0.921c-0.255-0.256-0.669-0.255-0.924,0c-0.255,0.254-0.255,0.667,0,0.921
						C140.611,23.789,141.025,23.789,141.28,23.533L141.28,23.533z"/>
					<path style="fill:#FFFFFF;fill-opacity:0.3;" d="M145.415,28.559l0.039,0.039c0,0,0.462,0.462,0.923,0
						c0.462-0.462,0-0.922,0-0.922l-0.039-0.04v-3.205c0,0,0-0.652-0.653-0.652c-0.652,0-0.652,0.652-0.652,0.652v1.901
						l-0.981-0.982v-1.603c0,0,0-0.326-0.326-0.326s-0.326,0.326-0.326,0.326v0.95l-0.712-0.711c0,0-0.461-0.462-0.922,0
						s0,0.922,0,0.922l0.712,0.71h-0.952c0,0-0.326,0-0.326,0.327c0,0.326,0.326,0.326,0.326,0.326h1.604l0.981,0.982h-1.901
						c0,0-0.652,0-0.652,0.652s0.652,0.652,0.652,0.652H145.415L145.415,28.559z M143.983,33.32h0.056c0,0,0.652,0,0.652-0.652
						s-0.652-0.652-0.652-0.652h-0.056l-2.266-2.268c0,0-0.461-0.461-0.922,0s0,0.923,0,0.923l1.344,1.343h-1.388l-1.133-1.132
						c0,0-0.23-0.23-0.461,0c-0.231,0.23,0,0.461,0,0.461l0.671,0.671h-1.007c0,0-0.652,0-0.652,0.652
						c0,0.653,0.652,0.653,0.652,0.653h1.007l-0.671,0.672c0,0-0.231,0.23,0,0.461c0.23,0.229,0.462,0,0.462,0l1.132-1.133h1.39
						l-1.346,1.344c0,0-0.461,0.463,0,0.923c0.461,0.462,0.923,0,0.923,0l2.267-2.267L143.983,33.32z M146.338,37.698l0.039-0.039
						c0,0,0.463-0.462,0-0.923c-0.461-0.462-0.922,0-0.922,0l-0.039,0.038h-3.208c0,0-0.652,0-0.652,0.652s0.652,0.652,0.652,0.652
						h1.901l-0.981,0.982h-1.605c0,0-0.326,0-0.326,0.326s0.326,0.326,0.326,0.326h0.953l-0.712,0.712c0,0-0.461,0.461,0,0.922
						c0.461,0.462,0.922,0,0.922,0l0.713-0.71v0.95c0,0,0,0.325,0.326,0.325s0.326-0.325,0.326-0.325v-1.603l0.981-0.982v1.9
						c0,0,0,0.652,0.652,0.652s0.652-0.652,0.652-0.652v-3.205H146.338z M151.1,39.13v-0.056c0,0,0-0.652-0.652-0.652
						s-0.652,0.652-0.652,0.652v0.056l-2.268,2.267c0,0-0.461,0.461,0,0.922c0.461,0.462,0.922,0,0.922,0l1.344-1.344v1.389
						l-1.131,1.133c0,0-0.232,0.231,0,0.462c0.231,0.23,0.461,0,0.461,0l0.671-0.672v1.007c0,0,0,0.652,0.652,0.652
						s0.652-0.652,0.652-0.652v-1.007l0.671,0.672c0,0,0.232,0.231,0.461,0c0.231-0.232,0-0.46,0-0.46l-1.132-1.135v-1.389
						l1.343,1.344c0,0,0.461,0.462,0.922,0c0.461-0.461,0-0.922,0-0.922L151.1,39.13L151.1,39.13z M155.479,36.775l-0.039-0.039
						c0,0-0.463-0.462-0.924,0c-0.461,0.463,0,0.923,0,0.923l0.04,0.039v3.205c0,0,0,0.652,0.652,0.652s0.652-0.652,0.652-0.652
						v-1.9l0.984,0.98v1.604c0,0,0,0.326,0.326,0.326s0.326-0.326,0.326-0.326v-0.949l0.711,0.71c0,0,0.461,0.463,0.922,0
						c0.461-0.461,0-0.921,0-0.921l-0.711-0.712h0.951c0,0,0.326,0,0.326-0.326s-0.326-0.326-0.326-0.326h-1.603l-0.982-0.982h1.901
						c0,0,0.652,0,0.652-0.652s-0.652-0.652-0.652-0.652H155.479z M156.91,32.016h-0.056c0,0-0.652,0-0.652,0.652
						s0.652,0.652,0.652,0.652h0.058l2.267,2.266c0,0,0.461,0.462,0.922,0c0.461-0.46,0-0.921,0-0.921l-1.344-1.345h1.389
						l1.132,1.132c0,0,0.231,0.229,0.461,0c0.229-0.23,0-0.462,0-0.462l-0.673-0.671h1.008c0,0,0.652,0,0.652-0.653
						c0-0.652-0.652-0.652-0.652-0.652h-1.006l0.671-0.672c0,0,0.23-0.23,0-0.46c-0.23-0.23-0.461,0-0.461,0l-1.132,1.132h-1.39
						l1.345-1.343c0,0,0.461-0.462,0-0.924c-0.461-0.461-0.922,0-0.922,0l-2.267,2.267L156.91,32.016z M154.555,27.636l-0.04,0.039
						c0,0-0.461,0.462,0,0.923c0.461,0.461,0.923,0,0.923,0l0.041-0.039h3.206c0,0,0.652,0,0.652-0.652s-0.652-0.652-0.652-0.652
						h-1.901l0.982-0.983h1.603c0,0,0.326,0,0.326-0.326s-0.326-0.326-0.326-0.326h-0.951l0.711-0.711c0,0,0.461-0.462,0-0.923
						c-0.46-0.462-0.922,0-0.922,0l-0.711,0.711v-0.949c0,0,0-0.326-0.326-0.326s-0.326,0.326-0.326,0.326v1.603l-0.982,0.982V24.43
						c0,0,0-0.652-0.652-0.652s-0.652,0.652-0.652,0.652v3.206H154.555z M149.795,26.203v0.056c0,0,0,0.652,0.652,0.652
						s0.652-0.652,0.652-0.652v-0.056l2.265-2.267c0,0,0.461-0.462,0-0.922c-0.461-0.462-0.922,0-0.922,0l-1.343,1.343V22.97
						l1.132-1.133c0,0,0.231-0.231,0-0.462c-0.23-0.229-0.461,0-0.461,0l-0.671,0.672v-1.006c0,0,0-0.652-0.652-0.652
						s-0.652,0.652-0.652,0.652v1.007l-0.673-0.672c0,0-0.23-0.23-0.461,0c-0.23,0.23,0,0.461,0,0.461l1.133,1.133v1.39
						l-1.345-1.345c0,0-0.461-0.462-0.923,0c-0.461,0.461,0,0.922,0,0.922l2.267,2.267H149.795z"/>
				</g>
			</g>
			<g>
				<g>
					<path style="fill:#FFFFFF;" d="M157.07,32.131h-13.249c-2.106,0-3.814,1.556-3.814,3.646v3.653
						c0,2.092,1.708,3.791,3.814,3.791h13.249c2.106,0,3.813-1.697,3.813-3.791v-3.624C160.884,33.714,159.176,32.131,157.07,32.131
						L157.07,32.131z"/>
					<path style="fill:#B81E00;" d="M146.42,35.102h-1.278v5.902h-1.235v-5.902h-1.276v-1.005h3.791L146.42,35.102L146.42,35.102z
						 M149.692,41.258h-1.094v-0.559c-0.204,0.207-0.413,0.365-0.633,0.473c-0.219,0.11-0.431,0.163-0.636,0.163
						c-0.256,0-0.444-0.076-0.575-0.229c-0.127-0.153-0.192-0.379-0.192-0.683v-4.263h1.096v3.909c0,0.121,0.022,0.207,0.067,0.26
						c0.046,0.056,0.122,0.082,0.225,0.082c0.079,0,0.182-0.036,0.305-0.107c0.124-0.071,0.237-0.163,0.339-0.273V36.16h1.097
						L149.692,41.258L149.692,41.258z M154.283,40.064c0,0.359-0.084,0.638-0.257,0.829c-0.171,0.193-0.42,0.43-0.746,0.43
						c-0.215,0-0.714-0.038-0.881-0.111c-0.167-0.075-0.325-0.188-0.469-0.347v0.391h-1.107v-7.048h1.107v2.365
						c0.15-0.153,0.308-0.273,0.471-0.352c0.168-0.083,0.642-0.124,0.813-0.124c0.347,0,0.613-0.032,0.794,0.186
						c0.184,0.217,0.276,0.534,0.276,0.952V40.064L154.283,40.064z M158.267,38.748h-2.096v0.961c0,0.267,0.036,0.453,0.107,0.558
						c0.074,0.104,0.195,0.155,0.372,0.155c0.18,0,0.308-0.043,0.381-0.133c0.072-0.089,0.108-0.28,0.108-0.582v-0.23h1.127v0.26
						c0,0.524-0.136,0.918-0.413,1.184c-0.273,0.263-0.683,0.394-1.229,0.394c-0.493,0-0.879-0.139-1.161-0.42
						c-0.28-0.278-0.422-0.664-0.422-1.154v-2.29c0-0.441,0.154-0.802,0.465-1.082c0.311-0.277,0.708-0.416,1.2-0.416
						c0.502,0,0.887,0.129,1.156,0.386c0.269,0.259,0.403,0.63,0.403,1.112L158.267,38.748L158.267,38.748z M156.66,36.843
						c-0.176,0-0.301,0.047-0.376,0.141c-0.077,0.089-0.113,0.242-0.113,0.457v0.515h0.968V37.44c0-0.215-0.04-0.368-0.116-0.457
						C156.949,36.888,156.826,36.842,156.66,36.843L156.66,36.843z M152.389,36.909c-0.079,0-0.155,0.015-0.231,0.048
						c-0.077,0.034-0.152,0.087-0.226,0.156v3.175c0.088,0.083,0.174,0.146,0.258,0.182c0.084,0.035,0.172,0.055,0.264,0.055
						c0.135,0,0.541-0.036,0.604-0.11c0.063-0.071,0.095-0.187,0.095-0.35v-2.633c0-0.173-0.039-0.304-0.116-0.393
						C152.959,36.952,152.537,36.908,152.389,36.909L152.389,36.909z"/>
					<path style="fill:#FFFFFF;" d="M153.765,30.865c0.223,0,0.454-0.065,0.689-0.188c0.24-0.126,0.468-0.31,0.686-0.548v0.649
						h1.188v-5.875h-1.189v4.459c-0.11,0.128-0.232,0.233-0.365,0.315c-0.135,0.083-0.246,0.125-0.334,0.125
						c-0.11,0-0.192-0.032-0.241-0.095c-0.05-0.063-0.077-0.163-0.077-0.302v-4.503h-1.187v4.91c0,0.349,0.07,0.611,0.208,0.784
						C153.284,30.774,153.489,30.864,153.765,30.865L153.765,30.865z M150.267,30.928c0.54,0,0.963-0.143,1.271-0.428
						c0.308-0.289,0.463-0.681,0.463-1.185V26.28c0-0.447-0.157-0.816-0.47-1.1c-0.315-0.283-0.719-0.425-1.21-0.425
						c-0.54,0-0.971,0.134-1.292,0.403c-0.318,0.27-0.478,0.631-0.478,1.088v3.046c0,0.5,0.155,0.895,0.467,1.191
						C149.33,30.779,149.746,30.928,150.267,30.928L150.267,30.928z M149.773,26.202c0-0.128,0.044-0.23,0.135-0.312
						c0.092-0.079,0.209-0.117,0.354-0.117c0.157,0,0.284,0.038,0.381,0.117c0.097,0.081,0.145,0.183,0.145,0.312v3.2
						c0,0.156-0.047,0.282-0.143,0.372c-0.097,0.091-0.222,0.135-0.385,0.135c-0.157,0-0.278-0.043-0.362-0.133
						c-0.084-0.089-0.125-0.213-0.125-0.374v-3.2H149.773z M145.557,30.779h1.339v-3.773l1.56-4.66h-1.362l-0.829,3.184h-0.084
						l-0.871-3.184h-1.346l1.592,4.81L145.557,30.779L145.557,30.779z"/>
				</g>
			</g>
		</g>
	</g>
	<g>
		<g>
			<g>
				<g>
					<path style="fill:#006DA1;" d="M250.896,21.076l-1.835-2.243c0,0,0.574-1.528,2.049-2.778
						c-6.174-2.758-14.664,0.748-14.501-1.56c0.365-5.089,11.063-6.451,15.375,0.734c0.866-0.502,2.05-0.734,3.376-0.772
						l2.051,2.368c1.798-0.648,3.737-1.002,5.76-1.002c9.367,0,16.961,7.593,16.961,16.96s-7.594,16.961-16.961,16.961
						c-9.366,0-16.961-7.595-16.961-16.961c0-4.541,1.783-8.663,4.688-11.707H250.896z M237.272,14.459
						c-0.08,1.111,7.541-1.526,14.217,1.077c-2.558-4.443-8.097-4.742-8.607-4.716C242.375,10.85,237.553,11.289,237.272,14.459z"/>
					<path style="fill:#FFFFFF;fill-opacity:0.3;" d="M260.526,26.121l-0.779,2.427l2.979,3.019l0.046-4.24L260.526,26.121
						L260.526,26.121z M260.844,26.908l-0.492,1.395l1.935,2.175l-0.12-2.907L260.844,26.908L260.844,26.908z M265.925,26.169
						l-2.265,1.164l-0.029,4.241l3.03-2.967L265.925,26.169L265.925,26.169z M269.712,30.021l-2.428-0.777l-3.018,2.978l4.241,0.045
						L269.712,30.021L269.712,30.021z M269.664,35.421l-1.165-2.268l-4.239-0.027l2.968,3.031l2.438-0.736H269.664z M265.813,39.206
						l0.778-2.426l-2.979-3.018l-0.045,4.24L265.813,39.206L265.813,39.206z M260.412,39.159l2.267-1.165l0.029-4.239l-3.032,2.966
						L260.412,39.159z M256.629,35.306l2.424,0.78l3.019-2.978l-4.24-0.046L256.629,35.306L256.629,35.306z M256.676,29.907
						l1.163,2.266l4.24,0.028l-2.965-3.031L256.676,29.907L256.676,29.907z M265.596,26.95l-1.334,0.639l-0.169,2.903l1.97-2.141
						L265.596,26.95L265.596,26.95z M268.926,30.339l-1.396-0.492l-2.173,1.935l2.905-0.117L268.926,30.339L268.926,30.339z
						 M268.885,35.09l-0.64-1.333l-2.905-0.17l2.141,1.971l1.402-0.468H268.885z M265.494,38.42l0.492-1.395l-1.933-2.175
						l0.117,2.908L265.494,38.42L265.494,38.42z M260.743,38.377l1.334-0.639l0.171-2.904l-1.971,2.141L260.743,38.377z
						 M257.413,34.989l1.395,0.492l2.175-1.934l-2.908,0.12L257.413,34.989L257.413,34.989z M257.455,30.238l0.637,1.335l2.906,0.17
						l-2.14-1.972L257.455,30.238z"/>
					<path style="fill:#FFFFFF;fill-opacity:0.3;" d="M263.171,19.737c0.358,0,0.652-0.292,0.652-0.652
						c0-0.361-0.294-0.652-0.652-0.652c-0.361,0-0.653,0.291-0.653,0.652C262.518,19.445,262.809,19.737,263.171,19.737z
						 M272.335,23.534c0.256,0.256,0.668,0.256,0.923,0c0.256-0.256,0.255-0.667,0-0.922c-0.254-0.256-0.667-0.255-0.922,0
						C272.08,22.866,272.081,23.279,272.335,23.534L272.335,23.534z M276.133,32.7c0,0.361,0.292,0.652,0.652,0.652
						s0.651-0.291,0.651-0.652c0-0.36-0.291-0.652-0.651-0.652S276.133,32.341,276.133,32.7z M272.336,41.866
						c-0.256,0.256-0.256,0.669,0,0.924c0.255,0.253,0.667,0.253,0.922,0c0.255-0.255,0.255-0.668,0-0.922
						c-0.254-0.257-0.667-0.256-0.922,0V41.866z M263.169,45.663c-0.361,0-0.652,0.293-0.652,0.652c0,0.362,0.291,0.652,0.652,0.652
						c0.362,0,0.652-0.29,0.652-0.652C263.821,45.956,263.528,45.663,263.169,45.663z M254.002,41.866
						c-0.254-0.255-0.669-0.255-0.923,0c-0.255,0.256-0.255,0.669,0,0.924c0.254,0.253,0.669,0.253,0.923,0
						c0.256-0.255,0.256-0.668,0-0.922V41.866z M250.204,32.7c0-0.36-0.291-0.652-0.652-0.652c-0.358,0-0.652,0.292-0.652,0.652
						c0,0.361,0.294,0.652,0.652,0.652C249.913,33.353,250.204,33.062,250.204,32.7z M254.002,23.534
						c0.256-0.254,0.256-0.666,0-0.922c-0.254-0.255-0.669-0.254-0.923,0c-0.255,0.255-0.255,0.668,0,0.922
						C253.333,23.79,253.748,23.79,254.002,23.534L254.002,23.534z"/>
					<path style="fill:#FFFFFF;fill-opacity:0.3;" d="M258.138,28.56l0.038,0.039c0,0,0.463,0.462,0.924,0s0-0.922,0-0.922
						l-0.039-0.04v-3.205c0,0,0-0.652-0.652-0.652s-0.652,0.652-0.652,0.652v1.9l-0.98-0.981v-1.604c0,0,0-0.326-0.326-0.326
						s-0.326,0.326-0.326,0.326v0.95l-0.712-0.71c0,0-0.462-0.462-0.923,0c-0.462,0.462,0,0.922,0,0.922l0.712,0.71h-0.952
						c0,0-0.326,0-0.326,0.326s0.326,0.326,0.326,0.326h1.604l0.98,0.983h-1.9c0,0-0.652,0-0.652,0.652s0.652,0.652,0.652,0.652
						H258.138L258.138,28.56z M256.706,33.321h0.056c0,0,0.652,0,0.652-0.652s-0.652-0.652-0.652-0.652h-0.056l-2.267-2.269
						c0,0-0.461-0.46-0.922,0c-0.461,0.462,0,0.924,0,0.924l1.344,1.343h-1.388l-1.133-1.132c0,0-0.23-0.23-0.461,0s0,0.461,0,0.461
						l0.671,0.671h-1.006c0,0-0.652,0-0.652,0.652s0.652,0.652,0.652,0.652h1.006l-0.671,0.673c0,0-0.23,0.23,0,0.461
						c0.23,0.229,0.462,0,0.462,0l1.132-1.134h1.391l-1.347,1.345c0,0-0.461,0.462,0,0.923c0.462,0.462,0.923,0,0.923,0l2.268-2.268
						L256.706,33.321z M259.061,37.699l0.039-0.04c0,0,0.463-0.461,0-0.922c-0.462-0.462-0.922,0-0.922,0l-0.039,0.038h-3.208
						c0,0-0.652,0-0.652,0.652s0.652,0.652,0.652,0.652h1.901l-0.981,0.981h-1.604c0,0-0.326,0-0.326,0.327
						c0,0.326,0.326,0.326,0.326,0.326h0.952l-0.712,0.712c0,0-0.462,0.461,0,0.922c0.461,0.462,0.921,0,0.921,0l0.713-0.711v0.95
						c0,0,0,0.326,0.326,0.326s0.326-0.326,0.326-0.326v-1.602l0.982-0.983v1.901c0,0,0,0.652,0.651,0.652
						c0.652,0,0.652-0.652,0.652-0.652v-3.205H259.061z M263.823,39.131v-0.056c0,0,0-0.652-0.652-0.652
						c-0.653,0-0.653,0.652-0.653,0.652v0.056l-2.268,2.267c0,0-0.461,0.461,0,0.922c0.462,0.462,0.923,0,0.923,0l1.344-1.344v1.389
						l-1.132,1.133c0,0-0.23,0.231,0,0.462s0.461,0,0.461,0l0.672-0.672v1.006c0,0,0,0.653,0.653,0.653
						c0.652,0,0.652-0.653,0.652-0.653v-1.006l0.671,0.672c0,0,0.231,0.23,0.462,0c0.229-0.232,0-0.461,0-0.461l-1.133-1.134v-1.389
						l1.343,1.344c0,0,0.461,0.462,0.922,0c0.461-0.461,0-0.922,0-0.922L263.823,39.131L263.823,39.131z M268.201,36.776
						l-0.039-0.039c0,0-0.462-0.462-0.923,0s0,0.922,0,0.922l0.039,0.04v3.205c0,0,0,0.652,0.652,0.652
						c0.651,0,0.651-0.652,0.651-0.652v-1.901l0.983,0.981v1.604c0,0,0,0.326,0.326,0.326s0.326-0.326,0.326-0.326v-0.95
						l0.712,0.711c0,0,0.461,0.463,0.923,0c0.461-0.461,0-0.921,0-0.921l-0.712-0.712h0.951c0,0,0.326,0,0.326-0.326
						s-0.326-0.326-0.326-0.326h-1.604l-0.982-0.982h1.901c0,0,0.652,0,0.652-0.652s-0.652-0.652-0.652-0.652H268.201z
						 M269.633,32.017h-0.056c0,0-0.652,0-0.652,0.652s0.652,0.652,0.652,0.652h0.056l2.268,2.266c0,0,0.461,0.462,0.922,0
						c0.462-0.461,0-0.922,0-0.922l-1.343-1.344h1.388L274,34.453c0,0,0.23,0.229,0.461,0c0.229-0.23,0-0.462,0-0.462l-0.672-0.672
						h1.007c0,0,0.652,0,0.652-0.652s-0.652-0.652-0.652-0.652h-1.007l0.672-0.672c0,0,0.23-0.23,0-0.46
						c-0.229-0.23-0.461,0-0.461,0l-1.133,1.132h-1.39l1.345-1.343c0,0,0.462-0.463,0-0.924c-0.461-0.461-0.922,0-0.922,0
						l-2.268,2.267V32.017z M267.278,27.637l-0.039,0.039c0,0-0.461,0.461,0,0.923c0.461,0.46,0.922,0,0.922,0l0.04-0.039h3.206
						c0,0,0.652,0,0.652-0.652s-0.652-0.652-0.652-0.652h-1.901l0.982-0.983h1.604c0,0,0.326,0,0.326-0.326
						s-0.326-0.326-0.326-0.326h-0.951l0.712-0.711c0,0,0.461-0.462,0-0.923c-0.461-0.462-0.922,0-0.922,0l-0.713,0.711v-0.95
						c0,0,0-0.326-0.326-0.326s-0.326,0.326-0.326,0.326v1.603l-0.981,0.983v-1.901c0,0,0-0.652-0.653-0.652
						c-0.652,0-0.652,0.652-0.652,0.652V27.637L267.278,27.637z M262.518,26.204v0.056c0,0,0,0.652,0.653,0.652
						c0.652,0,0.652-0.652,0.652-0.652v-0.056l2.265-2.267c0,0,0.461-0.462,0-0.923s-0.922,0-0.922,0l-1.343,1.344v-1.388
						l1.132-1.134c0,0,0.23-0.23,0-0.461s-0.461,0-0.461,0l-0.671,0.672v-1.006c0,0,0-0.652-0.652-0.652
						c-0.653,0-0.653,0.652-0.653,0.652v1.007l-0.673-0.673c0,0-0.23-0.23-0.46,0c-0.23,0.23,0,0.461,0,0.461l1.132,1.134v1.39
						l-1.345-1.346c0,0-0.462-0.461-0.923,0c-0.461,0.462,0,0.923,0,0.923l2.267,2.267H262.518z"/>
				</g>
			</g>
			<g>
				<path style="fill:#FFFFFF;" d="M258.58,40.599V30.253h-3.197v10.346H258.58z M258.58,26.587
					c-0.021-0.927-0.636-1.631-1.639-1.631c-1.001,0-1.657,0.704-1.657,1.631c0,0.906,0.638,1.631,1.618,1.631h0.02
					C257.944,28.218,258.58,27.493,258.58,26.587z M263.797,40.599v-5.895c0-0.314,0.023-0.63,0.115-0.854
					c0.254-0.633,0.83-1.285,1.8-1.285c1.271,0,2.066,0.72,2.066,2.139v5.895h3.22v-6.052c0-3.242-1.73-4.751-4.039-4.751
					c-1.894,0-2.724,1.06-3.186,1.779l0.023-1.383h-3.213c0.047,0.989,0,10.407,0,10.407h3.215L263.797,40.599z"/>
			</g>
		</g>
	</g>
	<g>
		<g>
			<g>
				<g>
					<path style="fill:#2C5687;" d="M307.258,21.076l-1.836-2.243c0,0,0.575-1.528,2.05-2.778
						c-6.175-2.758-14.665,0.748-14.502-1.56c0.365-5.088,11.064-6.451,15.376,0.734c0.866-0.502,2.05-0.734,3.376-0.772l2.05,2.368
						c1.798-0.648,3.738-1.002,5.761-1.002c9.365,0,16.961,7.593,16.961,16.96s-7.596,16.961-16.961,16.961
						c-9.366,0-16.961-7.595-16.961-16.961C302.571,28.243,304.354,24.12,307.258,21.076L307.258,21.076z M293.633,14.459
						c-0.079,1.111,7.541-1.526,14.218,1.077c-2.559-4.443-8.098-4.742-8.607-4.716C298.735,10.85,293.913,11.289,293.633,14.459z"
						/>
					<path style="fill:#FFFFFF;fill-opacity:0.3;" d="M316.888,26.121l-0.779,2.427l2.979,3.019l0.045-4.24L316.888,26.121
						L316.888,26.121z M317.204,26.908l-0.491,1.395l1.935,2.175l-0.12-2.907L317.204,26.908L317.204,26.908z M322.285,26.169
						l-2.265,1.164l-0.029,4.241l3.031-2.966l-0.735-2.439H322.285z M326.072,30.021l-2.428-0.777l-3.017,2.978l4.241,0.045
						L326.072,30.021L326.072,30.021z M326.025,35.421l-1.165-2.267l-4.239-0.028l2.967,3.031L326.025,35.421L326.025,35.421z
						 M322.174,39.206l0.778-2.426l-2.979-3.018l-0.045,4.24L322.174,39.206L322.174,39.206z M316.773,39.159l2.267-1.165
						l0.028-4.239l-3.031,2.966L316.773,39.159z M312.989,35.306l2.425,0.78l3.019-2.978l-4.24-0.046L312.989,35.306L312.989,35.306
						z M313.036,29.907l1.163,2.266l4.241,0.028l-2.966-3.031L313.036,29.907L313.036,29.907z M321.957,26.95l-1.334,0.639
						l-0.171,2.903l1.972-2.14L321.957,26.95L321.957,26.95z M325.287,30.339l-1.396-0.492l-2.173,1.935l2.905-0.117L325.287,30.339
						L325.287,30.339z M325.245,35.09l-0.64-1.333l-2.905-0.17l2.141,1.971L325.245,35.09L325.245,35.09z M321.855,38.42
						l0.491-1.395l-1.933-2.175l0.118,2.908L321.855,38.42L321.855,38.42z M317.104,38.377l1.334-0.639l0.172-2.904l-1.971,2.141
						L317.104,38.377z M313.774,34.989l1.395,0.492l2.175-1.934l-2.908,0.12L313.774,34.989L313.774,34.989z M313.815,30.238
						l0.638,1.335l2.905,0.17l-2.139-1.972L313.815,30.238z"/>
					<path style="fill:#FFFFFF;fill-opacity:0.3;" d="M319.53,19.737c0.36,0,0.652-0.292,0.652-0.652s-0.292-0.652-0.652-0.652
						c-0.359,0-0.651,0.292-0.651,0.652S319.17,19.737,319.53,19.737z M328.696,23.534c0.256,0.256,0.668,0.256,0.923,0
						s0.255-0.667,0-0.922s-0.667-0.255-0.923,0C328.441,22.866,328.442,23.279,328.696,23.534L328.696,23.534z M332.494,32.7
						c0,0.361,0.292,0.652,0.651,0.652c0.36,0,0.652-0.291,0.652-0.652c0-0.36-0.292-0.652-0.652-0.652
						C332.786,32.048,332.494,32.341,332.494,32.7z M328.696,41.866c-0.255,0.256-0.255,0.669,0,0.924
						c0.256,0.253,0.668,0.253,0.923,0c0.255-0.255,0.255-0.668,0-0.922c-0.255-0.257-0.667-0.256-0.923,0V41.866z M319.53,45.663
						c-0.361,0-0.652,0.293-0.652,0.652c0,0.362,0.291,0.652,0.652,0.652s0.652-0.29,0.652-0.652
						C320.183,45.956,319.89,45.663,319.53,45.663z M310.363,41.866c-0.255-0.255-0.669-0.255-0.924,0
						c-0.254,0.256-0.254,0.669,0,0.924c0.255,0.253,0.669,0.253,0.924,0c0.256-0.255,0.256-0.668,0-0.922V41.866z M306.565,32.7
						c0-0.36-0.292-0.652-0.652-0.652c-0.358,0-0.652,0.292-0.652,0.652c0,0.361,0.294,0.652,0.652,0.652
						C306.273,33.353,306.565,33.062,306.565,32.7z M310.363,23.534c0.256-0.254,0.256-0.666,0-0.922
						c-0.255-0.255-0.669-0.254-0.924,0c-0.254,0.255-0.254,0.668,0,0.922C309.694,23.79,310.108,23.79,310.363,23.534
						L310.363,23.534z"/>
					<path style="fill:#FFFFFF;fill-opacity:0.3;" d="M314.498,28.56l0.039,0.039c0,0,0.463,0.462,0.924,0s0-0.922,0-0.922
						l-0.039-0.04v-3.205c0,0,0-0.652-0.652-0.652s-0.652,0.652-0.652,0.652v1.9l-0.98-0.981v-1.603c0,0,0-0.326-0.326-0.326
						c-0.327,0-0.327,0.326-0.327,0.326v0.949l-0.713-0.71c0,0-0.46-0.462-0.921,0c-0.462,0.462,0,0.922,0,0.922l0.712,0.71h-0.953
						c0,0-0.326,0-0.326,0.326c0,0.327,0.326,0.327,0.326,0.327h1.605l0.98,0.982h-1.9c0,0-0.652,0-0.652,0.652
						s0.652,0.652,0.652,0.652H314.498L314.498,28.56z M313.067,33.321h0.056c0,0,0.652,0,0.652-0.652s-0.652-0.652-0.652-0.652
						h-0.056l-2.267-2.268c0,0-0.461-0.461-0.923,0c-0.461,0.461,0,0.923,0,0.923l1.344,1.343h-1.387l-1.133-1.132
						c0,0-0.23-0.23-0.461,0s0,0.461,0,0.461l0.671,0.671h-1.007c0,0-0.652,0-0.652,0.652c0,0.653,0.652,0.653,0.652,0.653h1.007
						l-0.671,0.672c0,0-0.23,0.23,0,0.461c0.23,0.229,0.462,0,0.462,0l1.132-1.133h1.39l-1.346,1.344c0,0-0.461,0.462,0,0.923
						c0.462,0.462,0.923,0,0.923,0L313.067,33.321L313.067,33.321z M315.422,37.699l0.039-0.04c0,0,0.462-0.461,0-0.922
						c-0.463-0.462-0.922,0-0.922,0l-0.039,0.038h-3.208c0,0-0.652,0-0.652,0.652s0.652,0.652,0.652,0.652h1.9l-0.981,0.982h-1.604
						c0,0-0.326,0-0.326,0.326s0.326,0.326,0.326,0.326h0.951l-0.712,0.712c0,0-0.461,0.461,0,0.922c0.462,0.462,0.922,0,0.922,0
						l0.713-0.71v0.949c0,0,0,0.326,0.326,0.326s0.326-0.326,0.326-0.326v-1.602l0.98-0.983v1.901c0,0,0,0.652,0.652,0.652
						c0.653,0,0.653-0.652,0.653-0.652v-3.205H315.422z M320.183,39.131v-0.056c0,0,0-0.652-0.652-0.652
						c-0.651,0-0.651,0.652-0.651,0.652v0.056l-2.268,2.267c0,0-0.461,0.461,0,0.922c0.462,0.462,0.923,0,0.923,0l1.344-1.344v1.389
						l-1.132,1.133c0,0-0.231,0.231,0,0.462c0.23,0.23,0.461,0,0.461,0l0.672-0.672v1.007c0,0,0,0.652,0.651,0.652
						c0.652,0,0.652-0.652,0.652-0.652v-1.007l0.673,0.672c0,0,0.231,0.23,0.462,0c0.229-0.232,0-0.46,0-0.46l-1.135-1.135v-1.389
						l1.344,1.344c0,0,0.461,0.462,0.922,0c0.462-0.461,0-0.922,0-0.922L320.183,39.131L320.183,39.131z M324.563,36.776
						l-0.04-0.039c0,0-0.462-0.462-0.923,0s0,0.922,0,0.922l0.039,0.04v3.205c0,0,0,0.652,0.652,0.652s0.652-0.652,0.652-0.652
						v-1.901l0.983,0.981v1.604c0,0,0,0.326,0.326,0.326s0.326-0.326,0.326-0.326v-0.949l0.712,0.71c0,0,0.46,0.463,0.921,0
						c0.462-0.461,0-0.921,0-0.921l-0.71-0.712h0.95c0,0,0.326,0,0.326-0.326s-0.326-0.326-0.326-0.326h-1.603l-0.982-0.982h1.901
						c0,0,0.652,0,0.652-0.652s-0.652-0.652-0.652-0.652H324.563z M325.993,32.017h-0.056c0,0-0.652,0-0.652,0.652
						s0.652,0.652,0.652,0.652h0.057l2.268,2.266c0,0,0.461,0.462,0.922,0c0.462-0.461,0-0.922,0-0.922l-1.343-1.344h1.388
						l1.132,1.132c0,0,0.231,0.229,0.462,0c0.229-0.23,0-0.462,0-0.462l-0.672-0.671h1.007c0,0,0.652,0,0.652-0.653
						c0-0.652-0.652-0.652-0.652-0.652h-1.006l0.671-0.672c0,0,0.23-0.23,0-0.46c-0.23-0.23-0.462,0-0.462,0l-1.132,1.132h-1.39
						l1.345-1.343c0,0,0.462-0.462,0-0.924c-0.461-0.461-0.922,0-0.922,0l-2.268,2.267L325.993,32.017z M323.639,27.637
						l-0.039,0.039c0,0-0.461,0.462,0,0.923c0.461,0.46,0.923,0,0.923,0l0.04-0.039h3.206c0,0,0.652,0,0.652-0.652
						s-0.652-0.652-0.652-0.652h-1.901l0.982-0.983h1.603c0,0,0.326,0,0.326-0.326s-0.326-0.326-0.326-0.326h-0.95l0.71-0.711
						c0,0,0.462-0.462,0-0.923c-0.46-0.462-0.921,0-0.921,0l-0.712,0.711v-0.949c0,0,0-0.327-0.326-0.327s-0.326,0.327-0.326,0.327
						v1.602l-0.982,0.983v-1.901c0,0,0-0.652-0.652-0.652s-0.652,0.652-0.652,0.652L323.639,27.637L323.639,27.637z M318.879,26.204
						v0.056c0,0,0,0.652,0.651,0.652c0.652,0,0.652-0.652,0.652-0.652v-0.056l2.266-2.267c0,0,0.462-0.462,0-0.923
						c-0.461-0.461-0.922,0-0.922,0l-1.344,1.344v-1.388l1.134-1.134c0,0,0.23-0.23,0-0.461s-0.461,0-0.461,0l-0.673,0.672v-1.006
						c0,0,0-0.652-0.652-0.652c-0.651,0-0.651,0.652-0.651,0.652v1.007l-0.673-0.673c0,0-0.23-0.23-0.462,0
						c-0.229,0.23,0,0.461,0,0.461l1.134,1.134v1.39l-1.346-1.346c0,0-0.461-0.461-0.922,0c-0.462,0.462,0,0.923,0,0.923
						l2.267,2.267H318.879z"/>
				</g>
			</g>
			<g>
				<path style="fill:#FFFFFF;" d="M324.098,31.806c0,2.702-2.191,4.894-4.893,4.894c-2.702,0-4.894-2.191-4.894-4.894
					c0-0.825,0.204-1.602,0.564-2.283h-5.131v9.131c0,1.803,1.462,3.264,3.262,3.264h12.393c1.803,0,3.263-1.461,3.263-3.264v-9.131
					h-5.13c0.359,0.682,0.563,1.459,0.563,2.283H324.098z M319.205,27.892c-2.162,0-3.914,1.752-3.914,3.914
					c0,2.161,1.752,3.915,3.914,3.915c2.161,0,3.914-1.754,3.914-3.915C323.119,29.644,321.366,27.892,319.205,27.892z
					 M319.205,34.416c-1.442,0-2.609-1.169-2.609-2.61s1.167-2.609,2.609-2.609c1.44,0,2.609,1.168,2.609,2.609
					S320.645,34.416,319.205,34.416z M325.399,22.999h-10.436v3.914h-0.652v-3.914h-0.652v3.914h-0.652v-3.914
					c-0.224,0-0.441,0.022-0.651,0.064v3.85h-0.652V23.27c-1.152,0.504-1.958,1.654-1.958,2.992v2.608h5.546
					c0.891-1.189,2.313-1.957,3.914-1.957c1.601,0,3.021,0.768,3.914,1.957h5.545v-2.608
					C328.664,24.46,327.202,22.999,325.399,22.999L325.399,22.999z M327.358,26.258c0,0.724-0.585,1.308-1.309,1.308h-0.646
					c-0.725,0-1.309-0.586-1.309-1.308v-0.646c0-0.724,0.585-1.308,1.308-1.308h0.646c0.726,0,1.308,0.585,1.308,1.308v0.646
					H327.358z"/>
			</g>
		</g>
	</g>
	<g>
		<g>
			<g>
				<g>
					<path style="fill:#CF2200;" d="M363.619,21.076l-1.835-2.242c0,0,0.575-1.529,2.049-2.779
						c-6.175-2.758-14.666,0.748-14.501-1.56c0.365-5.089,11.063-6.45,15.376,0.734c0.866-0.503,2.049-0.734,3.376-0.772l2.05,2.368
						c1.798-0.648,3.737-1.003,5.759-1.003c9.366,0,16.961,7.593,16.961,16.961c0,9.367-7.595,16.961-16.961,16.961
						s-16.959-7.596-16.959-16.961C358.934,28.242,360.715,24.12,363.619,21.076L363.619,21.076z M349.995,14.459
						c-0.08,1.111,7.541-1.525,14.218,1.077c-2.559-4.444-8.099-4.743-8.607-4.715C355.096,10.85,350.275,11.288,349.995,14.459z"/>
					<path style="fill:#FFFFFF;fill-opacity:0.3;" d="M373.249,26.121l-0.78,2.428l2.979,3.019l0.046-4.242L373.249,26.121
						L373.249,26.121z M373.566,26.909l-0.491,1.394l1.933,2.174l-0.118-2.906L373.566,26.909L373.566,26.909z M378.647,26.17
						l-2.266,1.163l-0.028,4.241l3.031-2.967l-0.735-2.438H378.647z M382.434,30.021l-2.425-0.779l-3.021,2.98l4.241,0.044
						l1.202-2.244L382.434,30.021z M382.387,35.421l-1.164-2.267l-4.24-0.028l2.966,3.031L382.387,35.421L382.387,35.421z
						 M378.535,39.206l0.779-2.426l-2.979-3.017l-0.045,4.239L378.535,39.206L378.535,39.206z M373.136,39.158l2.267-1.163
						l0.028-4.241l-3.031,2.966L373.136,39.158z M369.351,35.306l2.426,0.779l3.018-2.977l-4.24-0.047L369.351,35.306z
						 M369.398,29.907l1.163,2.267l4.24,0.027l-2.967-3.031l-2.438,0.737H369.398z M378.318,26.95l-1.333,0.639l-0.171,2.904
						l1.971-2.141L378.318,26.95L378.318,26.95z M381.648,30.338l-1.396-0.491l-2.174,1.934l2.908-0.117l0.661-1.323V30.338z
						 M381.607,35.09l-0.64-1.333l-2.905-0.17l2.14,1.97l1.403-0.467H381.607z M378.218,38.42l0.491-1.396l-1.934-2.173l0.119,2.907
						L378.218,38.42L378.218,38.42z M373.466,38.377l1.334-0.639l0.17-2.903l-1.971,2.139L373.466,38.377z M370.137,34.989
						l1.395,0.493l2.174-1.935l-2.906,0.12L370.137,34.989L370.137,34.989z M370.177,30.238l0.639,1.334l2.905,0.17l-2.141-1.97
						L370.177,30.238L370.177,30.238z"/>
					<path style="fill:#FFFFFF;fill-opacity:0.3;" d="M375.893,19.737c0.359,0,0.652-0.291,0.652-0.652s-0.293-0.652-0.652-0.652
						c-0.36,0-0.652,0.291-0.652,0.652S375.531,19.737,375.893,19.737z M385.058,23.533c0.256,0.257,0.669,0.257,0.924,0
						c0.255-0.254,0.255-0.666,0-0.921s-0.668-0.255-0.923,0c-0.256,0.254-0.255,0.667,0,0.923L385.058,23.533z M388.855,32.701
						c0,0.36,0.291,0.652,0.652,0.652c0.36,0,0.652-0.292,0.652-0.652c0-0.361-0.292-0.653-0.652-0.653
						C389.146,32.048,388.855,32.342,388.855,32.701z M385.059,41.866c-0.256,0.256-0.256,0.669,0,0.924
						c0.255,0.253,0.668,0.253,0.923,0c0.255-0.255,0.255-0.668,0-0.923C385.727,41.613,385.313,41.613,385.059,41.866
						L385.059,41.866z M375.892,45.663c-0.36,0-0.651,0.293-0.651,0.652c0,0.361,0.291,0.652,0.651,0.652
						c0.362,0,0.652-0.291,0.652-0.652C376.544,45.956,376.251,45.663,375.892,45.663z M366.725,41.866
						c-0.254-0.255-0.668-0.255-0.923,0c-0.255,0.256-0.255,0.669,0,0.924c0.255,0.253,0.667,0.253,0.923,0
						C366.979,42.535,366.979,42.122,366.725,41.866L366.725,41.866z M362.928,32.701c0-0.361-0.292-0.653-0.651-0.653
						c-0.361,0-0.652,0.292-0.652,0.653c0,0.36,0.291,0.652,0.652,0.652C362.635,33.354,362.928,33.062,362.928,32.701z
						 M366.725,23.535c0.255-0.256,0.255-0.667,0-0.923c-0.254-0.255-0.668-0.255-0.923,0s-0.255,0.667,0,0.923
						C366.057,23.79,366.469,23.79,366.725,23.535L366.725,23.535z"/>
					<path style="fill:#FFFFFF;fill-opacity:0.3;" d="M370.86,28.56l0.039,0.039c0,0,0.463,0.462,0.923,0
						c0.462-0.462,0-0.922,0-0.922l-0.038-0.039v-3.206c0,0,0-0.652-0.652-0.652c-0.653,0-0.653,0.652-0.653,0.652v1.901
						l-0.981-0.982v-1.604c0,0,0-0.326-0.326-0.326s-0.326,0.326-0.326,0.326v0.951l-0.711-0.711c0,0-0.462-0.462-0.924,0
						c-0.461,0.461,0,0.921,0,0.921l0.712,0.712h-0.95c0,0-0.327,0-0.327,0.326s0.327,0.326,0.327,0.326h1.602l0.982,0.982h-1.901
						c0,0-0.652,0-0.652,0.652s0.652,0.652,0.652,0.652H370.86L370.86,28.56z M369.43,33.32h0.056c0,0,0.652,0,0.652-0.652
						c0-0.651-0.652-0.651-0.652-0.651h-0.056l-2.267-2.269c0,0-0.461-0.461-0.923,0c-0.461,0.462,0,0.925,0,0.925l1.344,1.343
						h-1.387l-1.134-1.134c0,0-0.23-0.23-0.461,0s0,0.462,0,0.462l0.672,0.672h-1.007c0,0-0.652,0-0.652,0.652
						s0.652,0.652,0.652,0.652h1.007l-0.672,0.672c0,0-0.23,0.231,0,0.462c0.23,0.229,0.462,0,0.462,0l1.133-1.134h1.389
						l-1.345,1.343c0,0-0.461,0.463,0,0.925c0.461,0.461,0.923,0,0.923,0L369.43,33.32L369.43,33.32z M371.784,37.698l0.038-0.039
						c0,0,0.462-0.462,0-0.923s-0.922,0-0.922,0l-0.038,0.039h-3.208c0,0-0.652,0-0.652,0.652c0,0.651,0.652,0.651,0.652,0.651h1.9
						l-0.981,0.983h-1.603c0,0-0.326,0-0.326,0.326s0.326,0.326,0.326,0.326h0.95l-0.711,0.713c0,0-0.461,0.461,0,0.922
						c0.461,0.462,0.922,0,0.922,0l0.712-0.712v0.951c0,0,0,0.326,0.326,0.326s0.326-0.326,0.326-0.326v-1.604l0.982-0.982v1.901
						c0,0,0,0.652,0.652,0.652s0.652-0.652,0.652-0.652L371.784,37.698L371.784,37.698z M376.545,39.131v-0.057
						c0,0,0-0.652-0.652-0.652s-0.652,0.652-0.652,0.652v0.057l-2.267,2.267c0,0-0.461,0.461,0,0.923c0.461,0.461,0.923,0,0.923,0
						l1.344-1.345v1.389l-1.134,1.133c0,0-0.23,0.23,0,0.461c0.231,0.23,0.462,0,0.462,0l0.672-0.671v1.007c0,0,0,0.652,0.652,0.652
						s0.652-0.652,0.652-0.652v-1.007l0.672,0.671c0,0,0.23,0.232,0.461,0c0.229-0.231,0-0.46,0-0.46l-1.134-1.134v-1.389
						l1.344,1.345c0,0,0.462,0.461,0.923,0c0.462-0.462,0-0.923,0-0.923L376.545,39.131L376.545,39.131z M380.925,36.776l-0.04-0.04
						c0,0-0.462-0.461-0.923,0c-0.462,0.463,0,0.923,0,0.923l0.039,0.039v3.206c0,0,0,0.652,0.652,0.652s0.652-0.652,0.652-0.652
						v-1.901l0.981,0.981v1.603c0,0,0,0.326,0.326,0.326s0.326-0.326,0.326-0.326v-0.949l0.712,0.712c0,0,0.462,0.462,0.923,0
						c0.462-0.462,0-0.922,0-0.922l-0.71-0.713h0.95c0,0,0.326,0,0.326-0.326s-0.326-0.326-0.326-0.326h-1.604l-0.98-0.981h1.9
						c0,0,0.652,0,0.652-0.652s-0.652-0.652-0.652-0.652H380.925z M382.355,32.017H382.3c0,0-0.652,0-0.652,0.651
						c0,0.652,0.652,0.652,0.652,0.652h0.057l2.267,2.268c0,0,0.461,0.461,0.922,0c0.462-0.462,0-0.923,0-0.923l-1.343-1.345h1.388
						l1.133,1.134c0,0,0.23,0.229,0.462,0c0.229-0.23,0-0.463,0-0.463l-0.673-0.671h1.007c0,0,0.652,0,0.652-0.652
						s-0.652-0.652-0.652-0.652h-1.007l0.673-0.674c0,0,0.23-0.229,0-0.46s-0.462,0-0.462,0l-1.133,1.134h-1.389l1.344-1.343
						c0,0,0.462-0.463,0-0.926c-0.461-0.461-0.922,0-0.922,0L382.355,32.017L382.355,32.017z M380.001,27.638l-0.039,0.038
						c0,0-0.462,0.462,0,0.923c0.461,0.461,0.923,0,0.923,0l0.04-0.039h3.205c0,0,0.652,0,0.652-0.652s-0.652-0.652-0.652-0.652
						h-1.9l0.982-0.983h1.603c0,0,0.326,0,0.326-0.326s-0.326-0.326-0.326-0.326h-0.95l0.71-0.711c0,0,0.462-0.462,0-0.923
						s-0.922,0-0.922,0l-0.711,0.71v-0.949c0,0,0-0.326-0.326-0.326s-0.326,0.326-0.326,0.326v1.603l-0.982,0.982v-1.9
						c0,0,0-0.652-0.652-0.652s-0.652,0.652-0.652,0.652v3.205L380.001,27.638z M375.24,26.204v0.056c0,0,0,0.652,0.652,0.652
						s0.652-0.652,0.652-0.652v-0.056l2.266-2.268c0,0,0.462-0.461,0-0.922c-0.461-0.461-0.923,0-0.923,0l-1.343,1.344V22.97
						l1.133-1.133c0,0,0.23-0.231,0-0.461c-0.231-0.23-0.461,0-0.461,0l-0.673,0.672v-1.006c0,0,0-0.652-0.652-0.652
						c-0.651,0-0.651,0.652-0.651,0.652v1.007l-0.672-0.673c0,0-0.232-0.23-0.463,0c-0.23,0.231,0,0.462,0,0.462l1.134,1.132v1.391
						l-1.346-1.346c0,0-0.461-0.461-0.922,0c-0.462,0.461,0,0.922,0,0.922l2.267,2.268H375.24z"/>
				</g>
			</g>
			<g>
				<path style="fill:#FFFFFF;" d="M377.451,37.919c3.734,0,6.268-3.475,6.268-8.128c0-3.516-2.919-6.792-7.354-6.792
					c-5.519,0-8.302,4.039-8.302,7.408c0,2.038,0.755,3.854,2.378,4.531c0.267,0.11,0.506,0.003,0.582-0.298l0.236-0.951
					c0.078-0.297,0.049-0.402-0.167-0.661c-0.467-0.563-0.766-1.293-0.766-2.326c0-2.996,2.194-5.68,5.72-5.68
					c3.118,0,4.834,1.944,4.834,4.545c0,3.419-1.483,6.304-3.685,6.304c-1.217,0-2.126-1.025-1.834-2.284
					c0.348-1.502,1.024-3.124,1.024-4.206c0-0.972-0.511-1.781-1.565-1.781c-1.243,0-2.24,1.312-2.24,3.068
					c0,1.12,0.371,1.877,0.371,1.877s-1.272,5.499-1.496,6.462c-0.202,0.877-0.232,1.84-0.204,2.654
					c0.084,0.729,0.793,1.325,1.406,0.523c0.432-0.705,0.896-1.593,1.135-2.484c0.145-0.528,0.818-3.259,0.818-3.259
					C375.017,37.229,376.196,37.919,377.451,37.919L377.451,37.919z"/>
			</g>
		</g>
	</g>
	<g>
		<g>
			<g>
				<g>
					<path style="fill:#E02F2F;" d="M194.536,21.076l-1.835-2.243c0,0,0.574-1.529,2.049-2.779
						c-6.176-2.758-14.666,0.749-14.502-1.56c0.365-5.089,11.064-6.451,15.377,0.734c0.865-0.502,2.049-0.734,3.376-0.772
						l2.05,2.369c1.799-0.649,3.738-1.003,5.759-1.003c9.367,0,16.961,7.593,16.961,16.961s-7.594,16.962-16.961,16.962
						c-9.367,0-16.96-7.596-16.96-16.962C189.849,28.242,191.631,24.12,194.536,21.076L194.536,21.076z M180.911,14.459
						c-0.08,1.11,7.541-1.526,14.219,1.076c-2.559-4.444-8.099-4.742-8.608-4.716C186.012,10.849,181.191,11.288,180.911,14.459z"/>
					<path style="fill:#FFFFFF;fill-opacity:0.3;" d="M204.166,26.121l-0.779,2.427l2.979,3.019l0.046-4.241l-2.247-1.204H204.166z
						 M204.483,26.908l-0.491,1.395l1.932,2.175l-0.118-2.907L204.483,26.908L204.483,26.908z M209.564,26.169l-2.266,1.164
						l-0.028,4.241l3.031-2.967L209.564,26.169L209.564,26.169z M213.351,30.021l-2.426-0.779l-3.02,2.98l4.24,0.045l1.203-2.245
						L213.351,30.021z M213.303,35.421l-1.163-2.267l-4.241-0.028l2.967,3.031L213.303,35.421L213.303,35.421z M209.452,39.206
						l0.779-2.426l-2.979-3.017l-0.046,4.24L209.452,39.206L209.452,39.206z M204.053,39.159l2.266-1.164l0.028-4.24l-3.03,2.966
						L204.053,39.159z M200.266,35.307l2.427,0.779l3.018-2.978l-4.241-0.046L200.266,35.307z M200.315,29.907l1.163,2.266
						l4.24,0.028l-2.966-3.031L200.315,29.907L200.315,29.907z M209.235,26.95l-1.334,0.639l-0.17,2.903l1.971-2.141L209.235,26.95
						L209.235,26.95z M212.564,30.339l-1.395-0.492l-2.174,1.934l2.907-0.117L212.564,30.339L212.564,30.339z M212.524,35.09
						l-0.64-1.333l-2.905-0.169l2.14,1.97l1.403-0.468H212.524z M209.134,38.42l0.491-1.395l-1.934-2.174l0.119,2.907L209.134,38.42
						L209.134,38.42z M204.382,38.377l1.334-0.639l0.17-2.903l-1.97,2.14L204.382,38.377z M201.053,34.989l1.395,0.493l2.174-1.935
						l-2.907,0.12L201.053,34.989L201.053,34.989z M201.094,30.238l0.638,1.335l2.906,0.169l-2.141-1.97L201.094,30.238
						L201.094,30.238z"/>
					<path style="fill:#FFFFFF;fill-opacity:0.3;" d="M206.81,19.737c0.359,0,0.652-0.292,0.652-0.652
						c0-0.361-0.293-0.653-0.652-0.653c-0.36,0-0.652,0.292-0.652,0.653C206.157,19.445,206.447,19.737,206.81,19.737z
						 M215.975,23.533c0.256,0.256,0.669,0.256,0.924,0c0.255-0.254,0.255-0.666,0-0.921s-0.668-0.255-0.923,0
						C215.721,22.866,215.721,23.279,215.975,23.533L215.975,23.533z M219.772,32.7c0,0.361,0.292,0.652,0.652,0.652
						s0.652-0.291,0.652-0.652c0-0.36-0.292-0.652-0.652-0.652S219.772,32.342,219.772,32.7z M215.976,41.867
						c-0.255,0.256-0.255,0.669,0,0.924c0.255,0.253,0.668,0.253,0.923,0c0.255-0.255,0.255-0.668,0-0.923
						S216.229,41.613,215.976,41.867L215.976,41.867z M206.809,45.664c-0.361,0-0.652,0.293-0.652,0.652
						c0,0.361,0.291,0.652,0.652,0.652s0.652-0.291,0.652-0.652C207.461,45.957,207.168,45.664,206.809,45.664z M197.641,41.867
						c-0.254-0.255-0.668-0.255-0.923,0c-0.255,0.256-0.255,0.669,0,0.924c0.255,0.253,0.667,0.253,0.923,0
						C197.895,42.536,197.895,42.123,197.641,41.867L197.641,41.867z M193.845,32.7c0-0.36-0.293-0.652-0.652-0.652
						c-0.361,0-0.652,0.292-0.652,0.652c0,0.361,0.291,0.652,0.652,0.652C193.55,33.353,193.845,33.062,193.845,32.7z
						 M197.641,23.534c0.254-0.255,0.254-0.667,0-0.922s-0.668-0.255-0.923,0s-0.255,0.667,0,0.922S197.385,23.789,197.641,23.534
						L197.641,23.534z"/>
					<path style="fill:#FFFFFF;fill-opacity:0.3;" d="M201.777,28.56l0.039,0.039c0,0,0.463,0.462,0.923,0
						c0.462-0.462,0-0.922,0-0.922l-0.038-0.039v-3.206c0,0,0-0.652-0.653-0.652c-0.652,0-0.652,0.652-0.652,0.652v1.9l-0.981-0.981
						v-1.604c0,0,0-0.326-0.326-0.326s-0.326,0.326-0.326,0.326v0.95l-0.711-0.711c0,0-0.462-0.462-0.923,0s0,0.922,0,0.922
						l0.711,0.711h-0.95c0,0-0.326,0-0.326,0.326s0.326,0.326,0.326,0.326h1.602l0.982,0.983h-1.9c0,0-0.652,0-0.652,0.652
						s0.652,0.652,0.652,0.652H201.777L201.777,28.56z M200.345,33.321h0.057c0,0,0.652,0,0.652-0.652s-0.652-0.652-0.652-0.652
						h-0.057l-2.266-2.269c0,0-0.461-0.461-0.923,0c-0.461,0.462,0,0.924,0,0.924l1.344,1.344h-1.388l-1.133-1.133
						c0,0-0.23-0.231-0.461,0c-0.23,0.23,0,0.461,0,0.461l0.672,0.672h-1.007c0,0-0.652,0-0.652,0.652s0.652,0.652,0.652,0.652
						h1.007l-0.672,0.672c0,0-0.23,0.231,0,0.462c0.23,0.229,0.462,0,0.462,0l1.132-1.134h1.391l-1.346,1.344
						c0,0-0.461,0.463,0,0.924s0.923,0,0.923,0l2.267-2.268L200.345,33.321z M202.701,37.699l0.038-0.04c0,0,0.462-0.461,0-0.922
						c-0.462-0.461-0.922,0-0.922,0l-0.038,0.038h-3.209c0,0-0.652,0-0.652,0.652s0.652,0.652,0.652,0.652h1.901l-0.981,0.983
						h-1.603c0,0-0.326,0-0.326,0.326s0.326,0.326,0.326,0.326h0.95l-0.711,0.713c0,0-0.461,0.461,0,0.922
						c0.462,0.462,0.923,0,0.923,0l0.711-0.712v0.95c0,0,0,0.326,0.326,0.326s0.326-0.326,0.326-0.326v-1.603l0.982-0.982v1.901
						c0,0,0,0.652,0.652,0.652s0.652-0.652,0.652-0.652L202.701,37.699L202.701,37.699z M207.462,39.131v-0.056
						c0,0,0-0.652-0.652-0.652s-0.652,0.652-0.652,0.652v0.056l-2.267,2.268c0,0-0.461,0.461,0,0.922c0.46,0.462,0.923,0,0.923,0
						l1.343-1.344v1.389l-1.132,1.133c0,0-0.23,0.23,0,0.461s0.46,0,0.46,0l0.673-0.672v1.007c0,0,0,0.652,0.652,0.652
						s0.652-0.652,0.652-0.652v-1.007l0.672,0.672c0,0,0.23,0.232,0.46,0c0.23-0.231,0-0.46,0-0.46l-1.133-1.134v-1.389l1.344,1.344
						c0,0,0.461,0.462,0.923,0c0.461-0.461,0-0.922,0-0.922L207.462,39.131L207.462,39.131z M211.841,36.776l-0.039-0.039
						c0,0-0.462-0.461-0.923,0c-0.462,0.462,0,0.922,0,0.922l0.038,0.04v3.206c0,0,0,0.652,0.652,0.652s0.652-0.652,0.652-0.652
						v-1.901l0.982,0.981v1.603c0,0,0,0.326,0.326,0.326s0.326-0.326,0.326-0.326v-0.949l0.711,0.711c0,0,0.463,0.463,0.924,0
						c0.462-0.461,0-0.921,0-0.921l-0.711-0.713h0.951c0,0,0.326,0,0.326-0.326s-0.326-0.326-0.326-0.326h-1.604l-0.981-0.982h1.901
						c0,0,0.652,0,0.652-0.652s-0.652-0.652-0.652-0.652H211.841z M213.272,32.017h-0.056c0,0-0.652,0-0.652,0.652
						s0.652,0.652,0.652,0.652h0.057l2.267,2.267c0,0,0.461,0.461,0.923,0c0.461-0.461,0-0.923,0-0.923l-1.344-1.344h1.388
						l1.133,1.133c0,0,0.23,0.229,0.461,0c0.23-0.23,0-0.463,0-0.463l-0.672-0.671h1.008c0,0,0.652,0,0.652-0.652
						s-0.652-0.652-0.652-0.652h-1.007l0.671-0.673c0,0,0.231-0.23,0-0.46c-0.229-0.231-0.461,0-0.461,0l-1.133,1.133h-1.39
						l1.346-1.344c0,0,0.461-0.462,0-0.924c-0.462-0.462-0.923,0-0.923,0L213.272,32.017L213.272,32.017z M210.917,27.638
						l-0.038,0.038c0,0-0.462,0.462,0,0.923c0.461,0.461,0.922,0,0.922,0l0.04-0.039h3.206c0,0,0.652,0,0.652-0.652
						s-0.652-0.652-0.652-0.652h-1.901l0.982-0.983h1.604c0,0,0.326,0,0.326-0.326s-0.326-0.326-0.326-0.326h-0.951l0.711-0.711
						c0,0,0.462-0.462,0-0.923c-0.462-0.462-0.922,0-0.922,0l-0.711,0.711v-0.95c0,0,0-0.326-0.326-0.326s-0.326,0.326-0.326,0.326
						v1.603l-0.982,0.982v-1.9c0,0,0-0.653-0.652-0.653s-0.652,0.653-0.652,0.653v3.205L210.917,27.638z M206.157,26.204v0.056
						c0,0,0,0.652,0.652,0.652s0.652-0.652,0.652-0.652v-0.056l2.266-2.267c0,0,0.461-0.462,0-0.923c-0.462-0.461-0.923,0-0.923,0
						l-1.343,1.344V22.97l1.132-1.133c0,0,0.231-0.231,0-0.462c-0.231-0.229-0.461,0-0.461,0l-0.672,0.673v-1.006
						c0,0,0-0.652-0.652-0.652s-0.652,0.652-0.652,0.652v1.006l-0.672-0.672c0,0-0.231-0.23-0.462,0s0,0.461,0,0.461l1.133,1.133
						v1.391l-1.344-1.346c0,0-0.461-0.461-0.923,0c-0.461,0.461,0,0.923,0,0.923l2.266,2.267H206.157z"/>
				</g>
			</g>
			<g>
				<path style="fill:#FFFFFF;" d="M205.656,31.297c0.555-0.558,0.603-1.327,0.603-1.762c0-1.735-1.037-4.437-3.038-4.437
					c-0.627,0-1.301,0.313-1.69,0.796c-0.408,0.508-0.529,1.157-0.529,1.784c0,1.616,0.939,4.293,3.014,4.293
					C204.618,31.972,205.27,31.682,205.656,31.297L205.656,31.297z M204.956,35.876c-0.191-0.023-0.313-0.023-0.555-0.023
					c-0.216,0-1.519,0.049-2.531,0.387c-0.53,0.192-2.074,0.771-2.074,2.483c0,1.711,1.664,2.94,4.243,2.94
					c2.315,0,3.545-1.107,3.545-2.604C207.584,37.83,206.788,37.18,204.956,35.876L204.956,35.876z M212.028,33.438h-2.609v-1.305
					h2.609v-2.61h1.305v2.61h2.609v1.305h-2.609v2.609h-1.305V33.438z M206.668,25.171c0.555,0.458,1.713,1.422,1.713,3.255
					c0,1.784-1.014,2.629-2.026,3.424c-0.313,0.313-0.675,0.651-0.675,1.181c0,0.531,0.361,0.822,0.626,1.037l0.867,0.676
					c1.063,0.891,2.025,1.713,2.025,3.377c0,2.265-2.193,4.555-6.34,4.555c-3.495,0-5.184-1.663-5.184-3.446
					c0-0.868,0.434-2.099,1.857-2.943c1.493-0.915,3.519-1.035,4.603-1.108c-0.336-0.434-0.721-0.893-0.721-1.639
					c0-0.41,0.119-0.652,0.24-0.94c-0.266,0.024-0.531,0.047-0.773,0.047c-2.555,0-4.001-1.905-4.001-3.785
					c0-1.108,0.505-2.338,1.542-3.23c1.374-1.133,3.013-1.325,4.315-1.325h4.967l-1.543,0.867H206.668L206.668,25.171z"/>
			</g>
		</g>
	</g>
</g>
<g id="Layer_1">
</g>
</svg>
