<?xml version="1.0" encoding="iso-8859-1"?>
<!-- Generator: Adobe Illustrator 16.0.0, SVG Export Plug-In . SVG Version: 6.00 Build 0)  -->
<!DOCTYPE svg PUBLIC "-//W3C//DTD SVG 1.1//EN" "http://www.w3.org/Graphics/SVG/1.1/DTD/svg11.dtd">
<svg version="1.1" xmlns="http://www.w3.org/2000/svg" xmlns:xlink="http://www.w3.org/1999/xlink" x="0px" y="0px"
	 width="404.001px" height="60px" viewBox="0 0 404.001 60" style="enable-background:new 0 0 404.001 60;" xml:space="preserve">
<g id="preview7">
	<rect style="fill:#FFFFFF;" width="404.001" height="60"/>
	<g>
		<path style="fill:#3B5998;" d="M51.803,47.167c0,1.072-0.872,1.944-1.944,1.944H22.641c-1.073,0-1.944-0.872-1.944-1.944V19.948
			c0-1.072,0.871-1.944,1.944-1.944h27.218c1.072,0,1.944,0.872,1.944,1.944V47.167z"/>
		<path style="fill:#FFFFFF;" d="M42.082,49.111V37.445h3.888l0.972-4.859h-4.86v-1.944c0-1.943,0.974-2.916,2.917-2.916h1.944
			v-4.86h-3.888c-3.573,0-5.833,2.8-5.833,6.805v2.916h-3.889v4.859h3.889v11.666H42.082z"/>
		<path style="fill:#B22D43;" d="M40.081,14.11c0,0,11.213-6.984,17.141-0.389c6.254,6.959-1.066,15.049-1.066,15.049l-2.237,0.938
			l-5.793-7.699l-6.824-4.941L40.081,14.11L40.081,14.11z"/>
		<circle style="fill:#D6DAE5;" cx="55.369" cy="31.755" r="3.086"/>
		<path style="fill:#D6DAE5;" d="M53.918,29.032c-2.485-2.485-0.337-5.319-4.235-10.806c-3.9-5.489-9.603-4.116-9.603-4.116v3.846
			c5.849,0,8.292,6.31,8.632,8.015s4.078,4.089,4.078,4.089L53.918,29.032L53.918,29.032z"/>
		<path style="fill:#93213F;" d="M53.974,29.032c0,0,1.572-4.26,1.812-6.846c0,0-2.09,1.548-1.812,6.844V29.032z"/>
	</g>
	<g>
		<path style="fill:#55ACEE;" d="M107.869,47.147c0,1.073-0.872,1.944-1.944,1.944H78.706c-1.072,0-1.944-0.871-1.944-1.944V19.929
			c0-1.072,0.872-1.944,1.944-1.944h27.218c1.073,0,1.944,0.872,1.944,1.944V47.147z"/>
		<path style="fill:#FFFFFF;" d="M102.024,27.603c-0.716,0.313-1.483,0.521-2.292,0.617c0.827-0.484,1.458-1.253,1.755-2.168
			c-0.768,0.447-1.624,0.772-2.531,0.95c-0.727-0.764-1.763-1.241-2.91-1.241c-2.202,0-3.985,1.756-3.985,3.926
			c0,0.304,0.034,0.607,0.101,0.896c-3.311-0.166-6.249-1.729-8.216-4.102c-0.341,0.58-0.54,1.254-0.54,1.976
			c0,1.358,0.706,2.561,1.772,3.266c-0.652-0.022-1.268-0.198-1.804-0.492c-0.001,0.016-0.001,0.032-0.001,0.05
			c0,1.901,1.375,3.489,3.198,3.85c-0.333,0.087-0.685,0.139-1.05,0.139c-0.256,0-0.506-0.024-0.749-0.069
			c0.505,1.559,1.977,2.693,3.722,2.726c-1.359,1.052-3.079,1.68-4.947,1.68c-0.321,0-0.639-0.017-0.952-0.054
			c1.764,1.112,3.859,1.763,6.112,1.763c7.33,0,11.34-5.981,11.34-11.17c0-0.168-0.005-0.34-0.011-0.506
			C100.813,29.082,101.489,28.391,102.024,27.603L102.024,27.603z"/>
		<path style="fill:#B22D43;" d="M96.288,14.133c0,0,11.213-6.986,17.14-0.391c6.254,6.961-1.065,15.051-1.065,15.051l-2.237,0.938
			l-5.793-7.699l-6.824-4.941L96.288,14.133L96.288,14.133z"/>
		<circle style="fill:#D6DAE5;" cx="111.576" cy="31.778" r="3.086"/>
		<path style="fill:#D6DAE5;" d="M110.126,29.053c-2.484-2.485-0.337-5.317-4.236-10.807c-3.9-5.486-9.602-4.113-9.602-4.113v3.844
			c5.849,0,8.292,6.31,8.632,8.017c0.34,1.705,4.079,4.087,4.079,4.087L110.126,29.053L110.126,29.053z"/>
		<path style="fill:#93213F;" d="M110.181,29.053c0,0,1.572-4.26,1.811-6.844C111.992,22.209,109.902,23.756,110.181,29.053z"/>
	</g>
	<g>
		<path style="fill:#CF2200;" d="M164.116,47.05c0,1.074-0.87,1.944-1.944,1.944h-27.219c-1.074,0-1.944-0.87-1.944-1.944V19.832
			c0-1.073,0.87-1.944,1.944-1.944h27.219c1.074,0,1.944,0.871,1.944,1.944V47.05z"/>
		<path style="fill:#FFFFFF;" d="M153.335,33.273h-9.87c-1.57,0-2.842,1.272-2.842,2.842v2.283c0,1.569,1.272,2.842,2.842,2.842
			h9.872c1.568,0,2.841-1.272,2.841-2.843v-2.283C156.178,34.546,154.905,33.272,153.335,33.273L153.335,33.273z M145.539,35.052
			h-0.919v4.56h-0.886v-4.561h-0.917v-0.775h2.722V35.052L145.539,35.052z M148.131,39.61h-0.786V39.18
			c-0.146,0.159-0.297,0.281-0.455,0.364c-0.157,0.085-0.309,0.125-0.457,0.125c-0.183,0-0.318-0.059-0.411-0.175
			c-0.092-0.118-0.138-0.293-0.138-0.528v-3.292h0.786v3.021c0,0.092,0.018,0.159,0.048,0.2c0.035,0.043,0.089,0.063,0.163,0.063
			c0.057,0,0.13-0.028,0.219-0.083c0.089-0.056,0.169-0.126,0.244-0.212v-2.99h0.786V39.61L148.131,39.61z M150.986,38.798
			c0,0.278-0.062,0.493-0.185,0.641c-0.124,0.149-0.303,0.225-0.535,0.225c-0.156,0-0.293-0.03-0.414-0.088
			c-0.12-0.057-0.233-0.145-0.335-0.266v0.301h-0.797v-5.334h0.797v1.718c0.106-0.118,0.219-0.212,0.335-0.273
			c0.122-0.063,0.242-0.094,0.365-0.094c0.248,0,0.438,0.083,0.568,0.251c0.132,0.168,0.198,0.414,0.198,0.736v2.184H150.986z
			 M153.714,37.738h-1.505v0.74c0,0.207,0.025,0.352,0.077,0.432c0.053,0.08,0.142,0.121,0.267,0.121
			c0.131,0,0.221-0.034,0.273-0.102c0.051-0.07,0.078-0.219,0.078-0.451v-0.178h0.81v0.201c0,0.403-0.098,0.708-0.296,0.914
			c-0.196,0.203-0.491,0.303-0.883,0.303c-0.353,0-0.631-0.107-0.833-0.324c-0.201-0.215-0.304-0.513-0.304-0.892v-1.77
			c0-0.34,0.112-0.619,0.336-0.835c0.222-0.214,0.508-0.321,0.86-0.321c0.361,0,0.639,0.1,0.832,0.299s0.29,0.484,0.29,0.857
			L153.714,37.738L153.714,37.738z M152.561,36.266c-0.125,0-0.215,0.035-0.271,0.109c-0.055,0.069-0.081,0.188-0.081,0.354v0.397
			h0.695v-0.397c0-0.166-0.027-0.284-0.082-0.354C152.769,36.302,152.681,36.266,152.561,36.266L152.561,36.266z M149.848,36.253
			c-0.056,0-0.112,0.011-0.167,0.038c-0.054,0.025-0.108,0.067-0.162,0.12v2.452c0.064,0.063,0.127,0.112,0.187,0.141
			c0.061,0.028,0.124,0.043,0.191,0.043c0.097,0,0.167-0.028,0.212-0.085c0.045-0.057,0.068-0.146,0.068-0.272v-2.031
			c0-0.133-0.026-0.234-0.083-0.303c-0.058-0.068-0.141-0.102-0.246-0.102L149.848,36.253z M144.757,31.906h0.997v-2.438
			l1.161-3.441h-1.014l-0.618,2.352h-0.063l-0.647-2.352h-1.003l1.187,3.552V31.906z M148.266,32.015
			c0.403,0,0.719-0.104,0.949-0.316c0.229-0.212,0.343-0.5,0.343-0.873v-2.24c0-0.329-0.118-0.601-0.35-0.812
			c-0.235-0.209-0.536-0.314-0.902-0.314c-0.403,0-0.723,0.101-0.963,0.3c-0.238,0.197-0.356,0.464-0.356,0.801v2.249
			c0,0.368,0.115,0.659,0.348,0.879C147.568,31.906,147.877,32.015,148.266,32.015L148.266,32.015z M147.899,28.527
			c0-0.094,0.033-0.17,0.099-0.229c0.07-0.059,0.157-0.087,0.266-0.087c0.116,0,0.211,0.029,0.284,0.087
			c0.072,0.06,0.108,0.135,0.108,0.229v2.363c0,0.116-0.035,0.208-0.106,0.274c-0.071,0.067-0.166,0.099-0.285,0.099
			c-0.117,0-0.208-0.031-0.271-0.098c-0.063-0.064-0.094-0.156-0.094-0.276V28.527L147.899,28.527z M150.895,31.97
			c0.167,0,0.337-0.048,0.514-0.139c0.178-0.093,0.349-0.229,0.51-0.405v0.48h0.885v-4.337h-0.886v3.292
			c-0.083,0.094-0.174,0.172-0.272,0.234c-0.1,0.059-0.184,0.089-0.248,0.089c-0.083,0-0.144-0.022-0.18-0.069
			c-0.037-0.044-0.057-0.119-0.057-0.221v-3.325h-0.885v3.625c0,0.257,0.051,0.452,0.154,0.58c0.104,0.13,0.257,0.195,0.462,0.195
			H150.895z"/>
		<path style="fill:#B22D43;" d="M152.312,14.228c0,0,11.214-6.984,17.141-0.389c6.255,6.96-1.065,15.049-1.065,15.049l-2.237,0.938
			l-5.793-7.699l-6.824-4.941l-1.22-2.956L152.312,14.228z"/>
		<circle style="fill:#D6DAE5;" cx="167.601" cy="31.873" r="3.087"/>
		<path style="fill:#D6DAE5;" d="M166.151,29.148c-2.485-2.483-0.338-5.317-4.236-10.807c-3.899-5.486-9.602-4.114-9.602-4.114
			v3.846c5.849,0,8.293,6.309,8.632,8.015c0.34,1.707,4.078,4.089,4.078,4.089L166.151,29.148z"/>
		<path style="fill:#93213F;" d="M166.206,29.148c0,0,1.572-4.26,1.811-6.844C168.017,22.305,165.927,23.851,166.206,29.148z"/>
	</g>
	<g>
		<path style="fill:#E02F2F;" d="M220.231,47.177c0,1.073-0.871,1.945-1.943,1.945H191.07c-1.073,0-1.944-0.872-1.944-1.945V19.959
			c0-1.073,0.871-1.943,1.944-1.943h27.218c1.072,0,1.943,0.87,1.943,1.943V47.177z"/>
		<path style="fill:#FFFFFF;" d="M207.595,23.849h-5.992c-2.74,0-5.322,1.923-5.322,4.326c0,2.459,1.869,4.369,4.658,4.369
			c0.193,0,0.383-0.043,0.567-0.058c-0.183,0.345-0.31,0.717-0.31,1.122c0,0.684,0.367,1.228,0.83,1.682
			c-0.348,0-0.689,0.005-1.06,0.005c-3.395,0-6.009,2.162-6.009,4.403c0,2.208,2.866,3.593,6.262,3.593
			c3.871,0,6.009-2.199,6.009-4.408c0-1.77-0.523-2.833-2.138-3.977c-0.554-0.392-1.607-1.343-1.607-1.901
			c0-0.656,0.184-0.979,1.171-1.751c1.011-0.79,1.727-1.73,1.727-3.024c0-1.536-0.66-3.411-1.946-3.411h2.188l0.972-0.973V23.849z
			 M205.582,38.499c0.048,0.208,0.075,0.418,0.075,0.632c0,1.784-1.151,3.179-4.451,3.179c-2.348,0-4.042-1.484-4.042-3.27
			c0-1.748,2.103-3.205,4.453-3.178c0.545,0.004,1.057,0.093,1.52,0.242C204.41,36.991,205.323,37.491,205.582,38.499z
			 M201.824,31.842c-1.576-0.045-3.074-1.762-3.344-3.83c-0.273-2.069,0.783-3.653,2.358-3.605s3.074,1.707,3.345,3.775
			C204.456,30.251,203.4,31.889,201.824,31.842L201.824,31.842z M212.455,31.617v-2.916h-1.944v2.916h-2.916v1.944h2.916v2.916
			h1.944v-2.916h2.917v-1.944H212.455z"/>
		<path style="fill:#B22D43;" d="M208.47,14.102c0,0,11.213-6.985,17.139-0.39c6.255,6.96-1.064,15.049-1.064,15.049l-2.236,0.938
			l-5.794-7.699l-6.823-4.94L208.47,14.102z"/>
		<circle style="fill:#D6DAE5;" cx="223.757" cy="31.746" r="3.086"/>
		<path style="fill:#D6DAE5;" d="M222.308,29.021c-2.484-2.484-0.338-5.317-4.236-10.806c-3.9-5.488-9.602-4.114-9.602-4.114v3.845
			c5.849,0,8.291,6.309,8.632,8.014c0.341,1.707,4.077,4.09,4.077,4.09L222.308,29.021L222.308,29.021z"/>
		<path style="fill:#93213F;" d="M222.362,29.021c0,0,1.572-4.259,1.811-6.844C224.172,22.178,222.082,23.725,222.362,29.021
			L222.362,29.021z"/>
	</g>
	<g>
		<path style="fill:#007BB5;" d="M276.439,47.102c0,1.072-0.872,1.944-1.944,1.944h-27.219c-1.072,0-1.944-0.872-1.944-1.944V19.884
			c0-1.073,0.872-1.944,1.944-1.944h27.219c1.072,0,1.944,0.871,1.944,1.944V47.102z"/>
		<path style="fill:#FFFFFF;" d="M252.138,28.633h3.888v13.608h-3.888V28.633z M265.26,28.633c-2.714,0-3.18,0.989-3.401,1.943
			v-1.943h-3.89v13.608h3.89v-7.776c0-1.26,0.683-1.943,1.943-1.943c1.229,0,1.944,0.669,1.944,1.943v7.776h3.889v-6.804
			C269.635,31.549,269.127,28.633,265.26,28.633z"/>
		<circle style="fill:#FFFFFF;" cx="254.081" cy="25.716" r="1.944"/>
		<path style="fill:#B22D43;" d="M264.534,14.177c0,0,11.213-6.985,17.142-0.39c6.254,6.961-1.066,15.049-1.066,15.049l-2.237,0.938
			l-5.793-7.699l-6.825-4.939L264.534,14.177L264.534,14.177z"/>
		<circle style="fill:#D6DAE5;" cx="279.822" cy="31.821" r="3.086"/>
		<path style="fill:#D6DAE5;" d="M278.373,29.098c-2.485-2.485-0.338-5.319-4.236-10.807c-3.9-5.486-9.603-4.114-9.603-4.114v3.845
			c5.85,0,8.294,6.31,8.633,8.016c0.34,1.706,4.078,4.087,4.078,4.087L278.373,29.098L278.373,29.098z"/>
		<path style="fill:#93213F;" d="M278.427,29.098c0,0,1.573-4.26,1.813-6.845C280.239,22.253,278.148,23.799,278.427,29.098
			L278.427,29.098z"/>
	</g>
	<g>
		<path style="fill:#316198;" d="M332.523,47.031c0,1.073-0.87,1.943-1.944,1.943H303.36c-1.074,0-1.943-0.87-1.943-1.943V19.813
			c0-1.074,0.869-1.944,1.943-1.944h27.219c1.074,0,1.944,0.87,1.944,1.944V47.031z"/>
		<path style="fill:#FFFFFF;" d="M322.642,25.695h-11.666c-1.098,0-1.943,0.846-1.943,1.944v11.665c0,1.097,0.846,1.944,1.943,1.944
			h11.666c1.097,0,1.943-0.848,1.943-1.944V27.64C324.585,26.541,323.738,25.695,322.642,25.695z M316.819,30.416
			c1.726,0,3.123,1.355,3.123,3.027c0,1.67-1.398,3.025-3.123,3.025c-1.724,0-3.122-1.355-3.122-3.026
			C313.698,31.77,315.097,30.416,316.819,30.416L316.819,30.416z M322.642,38.818c0,0.34-0.146,0.486-0.486,0.486h-10.693
			c-0.34,0-0.486-0.146-0.486-0.486v-6.805l1.213,0.264c-0.131,0.424-0.202,0.871-0.202,1.334c0,2.585,2.165,4.683,4.833,4.683
			c2.669,0,4.833-2.097,4.833-4.683c0-0.464-0.071-0.911-0.2-1.334l1.189-0.264V38.818z M322.642,30.069
			c0,0.269-0.218,0.485-0.486,0.485h-1.945c-0.268,0-0.485-0.217-0.485-0.485v-1.944c0-0.269,0.218-0.485,0.485-0.485h1.945
			c0.269,0,0.486,0.217,0.486,0.485V30.069z"/>
		<path style="fill:#B22D43;" d="M320.721,14.249c0,0,11.213-6.985,17.142-0.39c6.254,6.961-1.066,15.05-1.066,15.05l-2.236,0.937
			l-5.794-7.699l-6.825-4.94L320.721,14.249L320.721,14.249z"/>
		<circle style="fill:#D6DAE5;" cx="336.009" cy="31.893" r="3.086"/>
		<path style="fill:#D6DAE5;" d="M334.56,29.169c-2.486-2.484-0.339-5.318-4.236-10.806c-3.9-5.486-9.602-4.114-9.602-4.114v3.845
			c5.848,0,8.293,6.309,8.632,8.015c0.34,1.705,4.077,4.088,4.077,4.088L334.56,29.169L334.56,29.169z"/>
		<path style="fill:#93213F;" d="M334.612,29.169c0,0,1.574-4.26,1.813-6.844C336.425,22.325,334.335,23.871,334.612,29.169
			L334.612,29.169z"/>
	</g>
	<g>
		<path style="fill:#CA2028;" d="M388.6,47.23c0,1.074-0.87,1.944-1.944,1.944h-27.219c-1.074,0-1.943-0.87-1.943-1.944V20.012
			c0-1.072,0.869-1.943,1.943-1.943h27.219c1.074,0,1.944,0.871,1.944,1.943V47.23z"/>
		<path style="fill:#FFFFFF;" d="M373.366,25.476c-4.244,0-6.385,3.044-6.385,5.581c0,1.537,0.582,2.903,1.829,3.411
			c0.204,0.085,0.388,0.005,0.447-0.223c0.042-0.155,0.139-0.553,0.183-0.717c0.061-0.225,0.036-0.302-0.128-0.497
			c-0.36-0.425-0.591-0.975-0.591-1.753c0-2.258,1.689-4.278,4.399-4.278c2.399,0,3.716,1.465,3.716,3.423
			c0,2.575-1.14,4.75-2.83,4.75c-0.936,0-1.635-0.773-1.41-1.722c0.268-1.131,0.788-2.351,0.788-3.169
			c0-0.73-0.394-1.341-1.205-1.341c-0.956,0-1.724,0.988-1.724,2.313c0,0.843,0.285,1.413,0.285,1.413l-1.148,4.868
			c-0.342,1.446-0.052,3.216-0.026,3.395c0.015,0.107,0.15,0.131,0.212,0.051c0.088-0.113,1.227-1.52,1.613-2.924
			c0.109-0.396,0.628-2.454,0.628-2.454c0.312,0.593,1.218,1.113,2.183,1.113c2.871,0,4.82-2.619,4.82-6.124
			c0-2.649-2.244-5.116-5.654-5.116H373.366z"/>
		<path style="fill:#B22D43;" d="M376.918,14.049c0,0,11.212-6.986,17.141-0.389c6.255,6.959-1.066,15.048-1.066,15.048
			l-2.235,0.937l-5.795-7.699l-6.823-4.94L376.918,14.049L376.918,14.049z"/>
		<circle style="fill:#D6DAE5;" cx="392.206" cy="31.693" r="3.086"/>
		<path style="fill:#D6DAE5;" d="M390.757,28.968c-2.485-2.482-0.339-5.317-4.237-10.806c-3.898-5.486-9.601-4.113-9.601-4.113
			v3.846c5.848,0,8.292,6.309,8.632,8.015c0.34,1.705,4.077,4.087,4.077,4.087L390.757,28.968z"/>
		<path style="fill:#93213F;" d="M390.812,28.968c0,0,1.571-4.258,1.811-6.844C392.622,22.124,390.532,23.672,390.812,28.968z"/>
	</g>
</g>
<g id="Layer_1">
</g>
</svg>
