<?xml version="1.0" encoding="iso-8859-1"?>
<!-- Generator: Adobe Illustrator 16.0.0, SVG Export Plug-In . SVG Version: 6.00 Build 0)  -->
<!DOCTYPE svg PUBLIC "-//W3C//DTD SVG 1.1//EN" "http://www.w3.org/Graphics/SVG/1.1/DTD/svg11.dtd">
<svg version="1.1" xmlns="http://www.w3.org/2000/svg" xmlns:xlink="http://www.w3.org/1999/xlink" x="0px" y="0px" width="404px"
	 height="60px" viewBox="0 0 404 60" style="enable-background:new 0 0 404 60;" xml:space="preserve">
<g id="preview1">
	<rect style="fill:#FFFFFF;" width="404" height="60"/>
	<g>
		<circle style="fill:#3B5998;" cx="33.291" cy="29.996" r="18.378"/>
		<path id="f_2_" style="fill:#FFFFFF;" d="M40.182,48.374V34.591h4.595l1.148-5.743h-5.743V26.55c0-2.296,1.151-3.446,3.446-3.446
			h2.297v-5.743c-1.148,0-2.573,0-4.594,0c-4.221,0-6.892,3.309-6.892,8.04v3.446h-4.595v5.743h4.595v13.783H40.182z"/>
	</g>
	<g>
		<circle style="fill:#55ACEE;" cx="90.265" cy="29.997" r="18.378"/>
		<path style="fill:#FFFFFF;" d="M101.767,22.986c-0.849,0.37-1.754,0.617-2.71,0.729c0.976-0.571,1.723-1.48,2.075-2.564
			c-0.911,0.531-1.92,0.917-2.995,1.125c-0.859-0.901-2.086-1.465-3.442-1.465c-2.606,0-4.715,2.076-4.715,4.64
			c0,0.362,0.042,0.717,0.119,1.06c-3.92-0.197-7.393-2.045-9.719-4.849c-0.406,0.686-0.642,1.482-0.642,2.333
			c0,1.608,0.837,3.028,2.1,3.863c-0.771-0.026-1.5-0.234-2.133-0.582c-0.002,0.02-0.002,0.038-0.002,0.058
			c0,2.249,1.626,4.125,3.782,4.552c-0.394,0.104-0.811,0.163-1.243,0.163c-0.303,0-0.598-0.029-0.885-0.082
			c0.598,1.842,2.341,3.184,4.404,3.224c-1.611,1.241-3.646,1.985-5.856,1.985c-0.379,0-0.759-0.021-1.125-0.064
			c2.085,1.314,4.566,2.082,7.23,2.082c8.675,0,13.419-7.071,13.419-13.203c0-0.199-0.006-0.403-0.017-0.599
			C100.333,24.733,101.133,23.916,101.767,22.986z"/>
	</g>
	<g>
		<circle style="fill:#CF2200;" cx="146.995" cy="29.996" r="18.377"/>
		<path id="YouTube" style="fill:#FFFFFF;" d="M152.868,34.184h-1.076l0.005-0.625c0-0.277,0.229-0.505,0.507-0.505h0.069
			c0.279,0,0.508,0.228,0.508,0.505L152.868,34.184z M148.833,32.844c-0.272,0-0.496,0.185-0.496,0.408v3.039
			c0,0.225,0.224,0.408,0.496,0.408c0.275,0,0.498-0.184,0.498-0.408v-3.039C149.33,33.027,149.107,32.844,148.833,32.844z
			 M155.387,31.145v5.781c0,1.389-1.203,2.522-2.673,2.522h-10.992c-1.47,0-2.673-1.134-2.673-2.522v-5.781
			c0-1.387,1.203-2.522,2.673-2.522h10.992C154.184,28.623,155.387,29.757,155.387,31.145L155.387,31.145z M142.455,37.555v-6.092
			h1.363v-0.902l-3.632-0.005v0.887l1.133,0.004v6.107h1.137H142.455z M146.54,32.37h-1.137v3.253c0,0.471,0.029,0.706-0.002,0.789
			c-0.092,0.252-0.507,0.521-0.669,0.027c-0.028-0.086-0.003-0.347-0.004-0.794l-0.004-3.275h-1.13l0.004,3.224
			c0,0.494-0.012,0.863,0.004,1.031c0.027,0.295,0.018,0.641,0.292,0.836c0.511,0.369,1.491-0.055,1.735-0.58l-0.001,0.671
			l0.912,0.001V32.37L146.54,32.37z M150.174,36.096l-0.003-2.707c0-1.031-0.772-1.65-1.82-0.815l0.004-2.013l-1.134,0.002
			l-0.005,6.947l0.933-0.015l0.085-0.432C149.426,38.156,150.176,37.407,150.174,36.096L150.174,36.096z M153.729,35.736
			l-0.852,0.004c0,0.034-0.003,0.074-0.003,0.115v0.477c0,0.254-0.21,0.461-0.465,0.461h-0.167c-0.256,0-0.466-0.207-0.466-0.461
			v-0.053v-0.523v-0.674h1.951v-0.734c0-0.537-0.014-1.073-0.059-1.381c-0.139-0.97-1.501-1.123-2.189-0.627
			c-0.216,0.155-0.381,0.363-0.477,0.643c-0.097,0.278-0.145,0.66-0.145,1.144v1.614C150.858,38.424,154.118,38.044,153.729,35.736
			L153.729,35.736z M149.36,26.973c0.059,0.143,0.15,0.258,0.273,0.345c0.123,0.086,0.279,0.128,0.465,0.128
			c0.164,0,0.31-0.044,0.436-0.135c0.126-0.091,0.232-0.227,0.319-0.408l-0.021,0.446h1.266v-5.386H151.1v4.191
			c0,0.227-0.187,0.413-0.415,0.413c-0.229,0-0.416-0.186-0.416-0.413v-4.191h-1.04v3.632c0,0.463,0.008,0.771,0.021,0.928
			C149.266,26.68,149.302,26.829,149.36,26.973L149.36,26.973z M145.523,23.932c0-0.517,0.043-0.92,0.129-1.211
			c0.086-0.29,0.24-0.523,0.465-0.699c0.223-0.177,0.51-0.265,0.858-0.265c0.293,0,0.544,0.058,0.754,0.17
			c0.211,0.113,0.373,0.26,0.486,0.441c0.115,0.182,0.193,0.369,0.234,0.561c0.042,0.194,0.064,0.486,0.064,0.881v1.363
			c0,0.499-0.021,0.867-0.06,1.1c-0.038,0.234-0.121,0.451-0.249,0.654c-0.126,0.202-0.29,0.352-0.488,0.448
			c-0.2,0.097-0.429,0.145-0.687,0.145c-0.288,0-0.531-0.041-0.732-0.124c-0.201-0.083-0.356-0.208-0.467-0.373
			c-0.112-0.166-0.19-0.368-0.238-0.604c-0.047-0.235-0.07-0.589-0.07-1.062V23.932L145.523,23.932z M146.515,26.071
			c0,0.305,0.227,0.554,0.503,0.554c0.277,0,0.502-0.249,0.502-0.554v-2.866c0-0.305-0.226-0.554-0.502-0.554
			c-0.276,0-0.503,0.249-0.503,0.554V26.071z M143.01,27.519h1.194l0.002-4.13l1.412-3.538h-1.307l-0.75,2.628l-0.761-2.635h-1.293
			l1.501,3.547L143.01,27.519L143.01,27.519z"/>
	</g>
	<g>
		<circle style="fill:#E02F2F;" cx="204.215" cy="29.996" r="18.378"/>
		<path style="fill:#FFFFFF;" d="M207.661,18.509c0,0-5.275,0-7.08,0c-3.241,0-6.289,2.272-6.289,5.115
			c0,2.902,2.207,5.162,5.503,5.162c0.229,0,0.451-0.053,0.67-0.069c-0.215,0.408-0.365,0.847-0.365,1.326
			c0,0.808,0.433,1.452,0.98,1.985c-0.41,0-0.813,0.007-1.252,0.007c-4.01,0.001-7.1,2.555-7.1,5.204
			c0,2.609,3.386,4.244,7.398,4.244c4.574,0,7.102-2.598,7.102-5.207c0-2.093-0.619-3.348-2.526-4.699
			c-0.654-0.461-1.902-1.585-1.902-2.247c0-0.773,0.22-1.155,1.386-2.067c1.194-0.933,2.041-2.046,2.041-3.574
			c0-1.816-0.78-4.031-2.301-4.031h2.584L207.661,18.509z M205.285,35.822c0.054,0.244,0.087,0.493,0.087,0.745
			c0,2.108-1.36,3.757-5.26,3.757c-2.773,0-4.776-1.754-4.776-3.863c0-2.066,2.486-3.788,5.261-3.756
			c0.646,0.006,1.249,0.111,1.796,0.285C203.898,34.039,204.979,34.631,205.285,35.822z M200.84,27.956
			c-1.861-0.055-3.631-2.082-3.951-4.525c-0.321-2.447,0.927-4.317,2.788-4.263c1.861,0.058,3.631,2.019,3.954,4.463
			S202.703,28.012,200.84,27.956z M213.404,27.689v-3.446h-2.297v3.446h-3.446v2.297h3.446v3.445h2.297v-3.445h3.445v-2.297H213.404
			z"/>
	</g>
	<g>
		<circle style="fill:#007BB5;" cx="261.189" cy="29.996" r="18.378"/>
		<rect x="250.852" y="24.253" style="fill:#FFFFFF;" width="4.594" height="16.081"/>
		<path style="fill:#FFFFFF;" d="M266.356,24.253c-3.206,0-3.757,1.169-4.019,2.297v-2.297h-4.595v16.081h4.595v-9.188
			c0-1.49,0.808-2.297,2.298-2.297c1.454,0,2.295,0.79,2.295,2.297v9.188h4.596v-8.04C271.526,27.699,270.927,24.253,266.356,24.253
			z"/>
		<circle style="fill:#FFFFFF;" cx="253.148" cy="20.808" r="2.297"/>
	</g>
	<g>
		<path style="fill:#316198;" d="M336.527,29.997c0,10.149-8.229,18.378-18.377,18.378c-10.149,0-18.378-8.229-18.378-18.378
			c0-10.15,8.229-18.378,18.378-18.378C328.299,11.619,336.527,19.847,336.527,29.997z"/>
		<path style="fill:#FFFFFF;" d="M310.232,19.28h16.212c1.538,0,2.798,1.259,2.798,2.8v16.21c0,1.539-1.26,2.799-2.798,2.799
			h-16.212c-1.54,0-2.801-1.26-2.801-2.799v-16.21C307.432,20.54,308.692,19.28,310.232,19.28z M323.322,21.703
			c-0.541,0-0.983,0.443-0.983,0.983v2.35c0,0.541,0.442,0.983,0.983,0.983h2.463c0.54,0,0.983-0.442,0.983-0.983v-2.35
			c0-0.54-0.443-0.983-0.983-0.983H323.322z M326.778,28.503h-1.921c0.182,0.594,0.28,1.22,0.28,1.873
			c0,3.626-3.035,6.567-6.779,6.567s-6.781-2.941-6.781-6.567c0-0.652,0.101-1.278,0.281-1.873h-2.001v9.213
			c0,0.478,0.389,0.865,0.865,0.865h15.188c0.477,0,0.867-0.388,0.867-0.865V28.503z M318.358,25.894c-2.42,0-4.38,1.899-4.38,4.244
			c0,2.342,1.96,4.245,4.38,4.245s4.381-1.902,4.381-4.245C322.739,27.793,320.778,25.894,318.358,25.894z"/>
	</g>
	<g>
		<path style="fill:#CA2028;" d="M375.14,11.618c-10.148,0-18.379,8.228-18.379,18.379c0,7.527,4.525,13.991,11.002,16.833
			c-0.053-1.284-0.01-2.825,0.32-4.218c0.354-1.496,2.363-10.02,2.363-10.02s-0.588-1.172-0.588-2.904
			c0-2.722,1.58-4.757,3.549-4.757c1.668,0,2.475,1.253,2.475,2.758c0,1.68-1.072,4.193-1.621,6.521
			c-0.461,1.949,0.979,3.539,2.898,3.539c3.48,0,5.826-4.47,5.826-9.771c0-4.026-2.713-7.041-7.645-7.041
			c-5.576,0-9.049,4.156-9.049,8.8c0,1.602,0.473,2.73,1.211,3.605c0.342,0.402,0.389,0.563,0.266,1.023
			c-0.086,0.34-0.289,1.152-0.373,1.474c-0.123,0.468-0.5,0.634-0.92,0.46c-2.568-1.045-3.764-3.857-3.764-7.02
			c0-5.219,4.402-11.482,13.135-11.482c7.016,0,11.637,5.078,11.637,10.529c0,7.21-4.01,12.595-9.918,12.595
			c-1.986,0-3.852-1.072-4.488-2.287c0,0-1.07,4.234-1.293,5.049c-0.391,1.416-1.154,2.834-1.85,3.938
			c1.648,0.488,3.396,0.754,5.205,0.754c10.15,0,18.377-8.227,18.377-18.378C393.517,19.845,385.29,11.618,375.14,11.618z"/>
	</g>
</g>
<g id="Layer_1">
</g>
</svg>
