<?xml version="1.0" encoding="iso-8859-1"?>
<!-- Generator: Adobe Illustrator 16.0.0, SVG Export Plug-In . SVG Version: 6.00 Build 0)  -->
<!DOCTYPE svg PUBLIC "-//W3C//DTD SVG 1.1//EN" "http://www.w3.org/Graphics/SVG/1.1/DTD/svg11.dtd">
<svg version="1.1" xmlns="http://www.w3.org/2000/svg" xmlns:xlink="http://www.w3.org/1999/xlink" x="0px" y="0px"
	 width="404.002px" height="60px" viewBox="0 0 404.002 60" style="enable-background:new 0 0 404.002 60;" xml:space="preserve">
<g id="preview5">
	<rect style="fill:#FFFFFF;" width="404.002" height="60"/>
	<g>
		<g>
			<circle style="fill:#3B5998;" cx="33.291" cy="29.849" r="18.347"/>
			<path style="fill:#344F87;" d="M18.877,40.87c3.347,4.448,8.67,7.325,14.666,7.325c10.132,0,18.347-8.214,18.347-18.347
				c0-4.343-1.513-8.33-4.035-11.473L18.877,40.87z"/>
			<path id="f_3_" style="fill:#FFFFFF;" d="M40.17,48.195v-13.76h4.587l1.146-5.734H40.17v-2.292c0-2.294,1.149-3.44,3.44-3.44
				h2.293v-5.733c-1.146,0-2.568,0-4.586,0c-4.214,0-6.881,3.304-6.881,8.026v3.439h-4.586v5.734h4.586v13.76H40.17z"/>
		</g>
		<g>
			<circle style="fill:#55ACEE;" cx="90.266" cy="29.849" r="18.347"/>
			<path style="fill:#4C99D4;" d="M75.673,40.87c3.348,4.448,8.671,7.325,14.667,7.325c10.132,0,18.347-8.214,18.347-18.347
				c0-4.343-1.512-8.33-4.035-11.474L75.673,40.87z"/>
			<path style="fill:#FFFFFF;" d="M101.749,22.85c-0.847,0.369-1.751,0.616-2.706,0.729c0.975-0.57,1.72-1.478,2.072-2.559
				c-0.91,0.529-1.917,0.915-2.99,1.122c-0.857-0.898-2.083-1.462-3.435-1.462c-2.603,0-4.708,2.071-4.708,4.631
				c0,0.362,0.042,0.717,0.119,1.059c-3.913-0.197-7.379-2.041-9.702-4.841c-0.405,0.684-0.641,1.479-0.641,2.329
				c0,1.604,0.835,3.022,2.096,3.855c-0.77-0.025-1.498-0.234-2.13-0.581c-0.002,0.021-0.002,0.038-0.002,0.058
				c0,2.245,1.624,4.119,3.776,4.545c-0.393,0.104-0.809,0.162-1.241,0.162c-0.302,0-0.596-0.027-0.884-0.082
				c0.597,1.839,2.337,3.178,4.396,3.219c-1.608,1.239-3.641,1.982-5.847,1.982c-0.378,0-0.757-0.021-1.123-0.065
				c2.082,1.313,4.559,2.08,7.218,2.08c8.66,0,13.396-7.06,13.396-13.182c0-0.198-0.007-0.402-0.017-0.597
				C100.317,24.594,101.115,23.778,101.749,22.85z"/>
		</g>
		<g>
			<circle style="fill:#CF2200;" cx="147.136" cy="29.849" r="18.347"/>
			<path style="fill:#B81E00;" d="M132.469,40.871c3.348,4.447,8.671,7.324,14.666,7.324c10.132,0,18.347-8.213,18.347-18.347
				c0-4.343-1.513-8.33-4.035-11.474L132.469,40.871z"/>
			<path id="YouTube_1_" style="fill:#FFFFFF;" d="M152.859,34.029h-1.074l0.004-0.624c0-0.277,0.228-0.504,0.506-0.504h0.068
				c0.279,0,0.508,0.227,0.508,0.504L152.859,34.029z M148.831,32.691c-0.272,0-0.495,0.185-0.495,0.408v3.033
				c0,0.225,0.223,0.406,0.495,0.406c0.274,0,0.497-0.182,0.497-0.406V33.1C149.327,32.875,149.104,32.691,148.831,32.691z
				 M155.374,30.995v5.772c0,1.384-1.201,2.518-2.668,2.518h-10.973c-1.468,0-2.668-1.134-2.668-2.518v-5.772
				c0-1.385,1.2-2.519,2.668-2.519h10.973C154.172,28.477,155.374,29.61,155.374,30.995L155.374,30.995z M142.464,37.394v-6.08h1.36
				v-0.901l-3.626-0.004v0.885l1.132,0.004v6.097h1.135H142.464z M146.542,32.219h-1.134v3.247c0,0.47,0.028,0.704-0.002,0.788
				c-0.092,0.251-0.507,0.519-0.668,0.026c-0.028-0.086-0.004-0.346-0.004-0.792l-0.005-3.27h-1.127l0.003,3.218
				c0,0.493-0.011,0.862,0.004,1.029c0.027,0.295,0.018,0.639,0.292,0.835c0.51,0.367,1.488-0.055,1.733-0.58l-0.002,0.671h0.911
				V32.219L146.542,32.219z M150.169,35.938l-0.002-2.702c0-1.03-0.771-1.647-1.817-0.813l0.004-2.01l-1.133,0.002l-0.005,6.935
				l0.931-0.014l0.085-0.432C149.423,37.995,150.171,37.247,150.169,35.938L150.169,35.938z M153.719,35.58l-0.851,0.003
				c0,0.034-0.002,0.073-0.002,0.116v0.474c0,0.254-0.21,0.462-0.465,0.462h-0.167c-0.255,0-0.464-0.208-0.464-0.462V36.12v-0.521
				v-0.674h1.947v-0.732c0-0.536-0.014-1.071-0.058-1.377c-0.139-0.969-1.499-1.123-2.186-0.627
				c-0.215,0.155-0.38,0.362-0.476,0.642c-0.096,0.278-0.145,0.658-0.145,1.142v1.611C150.853,38.262,154.107,37.883,153.719,35.58
				L153.719,35.58z M149.357,26.831c0.059,0.143,0.149,0.257,0.272,0.344c0.122,0.087,0.278,0.129,0.464,0.129
				c0.164,0,0.309-0.044,0.435-0.135c0.125-0.091,0.231-0.227,0.318-0.407l-0.021,0.445h1.264V21.83h-0.996v4.186
				c0,0.227-0.187,0.411-0.414,0.411s-0.415-0.185-0.415-0.411V21.83h-1.038v3.627c0,0.462,0.008,0.77,0.021,0.926
				C149.262,26.538,149.298,26.687,149.357,26.831L149.357,26.831z M145.526,23.795c0-0.517,0.043-0.92,0.129-1.209
				c0.086-0.29,0.24-0.523,0.464-0.698c0.223-0.177,0.509-0.265,0.857-0.265c0.293,0,0.543,0.058,0.752,0.17
				c0.21,0.112,0.373,0.26,0.485,0.44c0.115,0.183,0.192,0.368,0.234,0.56c0.042,0.194,0.064,0.486,0.064,0.881v1.359
				c0,0.499-0.02,0.865-0.059,1.099c-0.038,0.233-0.121,0.45-0.249,0.653c-0.126,0.201-0.29,0.351-0.487,0.447
				c-0.199,0.096-0.428,0.144-0.686,0.144c-0.288,0-0.531-0.039-0.731-0.123c-0.2-0.083-0.355-0.206-0.466-0.372
				c-0.111-0.166-0.19-0.368-0.237-0.604c-0.048-0.235-0.07-0.588-0.07-1.06V23.795L145.526,23.795z M146.516,25.93
				c0,0.305,0.227,0.554,0.503,0.554c0.276,0,0.501-0.249,0.501-0.554v-2.861c0-0.304-0.226-0.553-0.501-0.553
				c-0.276,0-0.503,0.249-0.503,0.553V25.93z M143.018,27.375h1.192l0.002-4.123l1.409-3.533h-1.304l-0.75,2.625l-0.76-2.631h-1.291
				l1.5,3.541L143.018,27.375L143.018,27.375z"/>
		</g>
		<g>
			<circle style="fill:#E02F2F;" cx="204.215" cy="29.849" r="18.347"/>
			<path style="fill:#C72A2A;" d="M189.265,41.172c3.348,4.449,8.672,7.326,14.667,7.326c10.133,0,18.348-8.214,18.348-18.348
				c0-4.342-1.514-8.33-4.035-11.473L189.265,41.172z"/>
			<path style="fill:#FFFFFF;" d="M207.654,18.38c0,0-5.266,0-7.067,0c-3.234,0-6.278,2.27-6.278,5.106
				c0,2.898,2.204,5.153,5.494,5.153c0.229,0,0.451-0.052,0.67-0.067c-0.217,0.407-0.365,0.845-0.365,1.322
				c0,0.807,0.433,1.449,0.979,1.982c-0.41,0-0.813,0.007-1.25,0.007c-4.004,0.001-7.088,2.55-7.088,5.195
				c0,2.604,3.381,4.236,7.386,4.236c4.566,0,7.091-2.593,7.091-5.198c0-2.089-0.617-3.341-2.522-4.691
				c-0.653-0.46-1.898-1.582-1.898-2.242c0-0.773,0.22-1.154,1.384-2.064c1.191-0.932,2.037-2.042,2.037-3.567
				c0-1.813-0.779-4.025-2.297-4.025h2.58L207.654,18.38z M205.283,35.665c0.055,0.243,0.088,0.491,0.088,0.743
				c0,2.106-1.359,3.752-5.253,3.752c-2.769,0-4.768-1.752-4.768-3.857c0-2.063,2.481-3.782,5.251-3.75
				c0.645,0.006,1.248,0.111,1.794,0.285C203.899,33.884,204.977,34.476,205.283,35.665z M200.847,27.812
				c-1.859-0.055-3.626-2.079-3.945-4.518c-0.32-2.442,0.926-4.31,2.783-4.256c1.858,0.058,3.627,2.016,3.946,4.456
				C203.953,25.934,202.705,27.867,200.847,27.812z M213.389,27.546v-3.44h-2.293v3.44h-3.441v2.293h3.441v3.44h2.293v-3.44h3.439
				v-2.293H213.389z"/>
		</g>
		<g>
			<circle style="fill:#007BB5;" cx="261.191" cy="29.849" r="18.346"/>
			<path style="fill:#006DA1;" d="M246.063,40.871c3.348,4.448,8.67,7.324,14.666,7.324c10.131,0,18.348-8.213,18.348-18.346
				c0-4.343-1.512-8.33-4.035-11.473L246.063,40.871z"/>
			<rect x="250.871" y="24.115" style="fill:#FFFFFF;" width="4.586" height="16.054"/>
			<path style="fill:#FFFFFF;" d="M266.35,24.115c-3.201,0-3.75,1.167-4.012,2.294v-2.294h-4.588v16.054h4.588v-9.173
				c0-1.487,0.807-2.294,2.293-2.294c1.451,0,2.293,0.788,2.293,2.294v9.173h4.586v-8.026
				C271.51,27.557,270.912,24.115,266.35,24.115z"/>
			<circle style="fill:#FFFFFF;" cx="253.164" cy="20.676" r="2.293"/>
		</g>
		<g>
			<path style="fill:#2C5687;" d="M336.496,29.85c0,10.132-8.213,18.347-18.346,18.347s-18.346-8.215-18.346-18.347
				c0-10.133,8.213-18.348,18.346-18.348S336.496,19.717,336.496,29.85z"/>
			<path style="fill:#274C78;" d="M303.484,40.871c3.348,4.447,8.67,7.325,14.666,7.325c10.133,0,18.346-8.215,18.346-18.347
				c0-4.343-1.512-8.331-4.033-11.473L303.484,40.871z"/>
			<path style="fill:#FFFFFF;" d="M310.246,19.151h16.184c1.537,0,2.795,1.257,2.795,2.795V38.13c0,1.537-1.258,2.793-2.795,2.793
				h-16.184c-1.537,0-2.795-1.256-2.795-2.793V21.946C307.451,20.408,308.709,19.151,310.246,19.151z M323.313,21.569
				c-0.539,0-0.98,0.441-0.98,0.98v2.347c0,0.54,0.441,0.98,0.98,0.98h2.461c0.539,0,0.98-0.44,0.98-0.98V22.55
				c0-0.539-0.441-0.98-0.98-0.98H323.313z M326.764,28.358h-1.916c0.182,0.593,0.279,1.219,0.279,1.869
				c0,3.621-3.031,6.557-6.768,6.557c-3.738,0-6.77-2.936-6.77-6.557c0-0.65,0.1-1.276,0.281-1.869h-2v9.197
				c0,0.477,0.389,0.864,0.865,0.864h15.162c0.477,0,0.865-0.388,0.865-0.864V28.358z M318.359,25.753
				c-2.416,0-4.373,1.896-4.373,4.237c0,2.339,1.957,4.237,4.373,4.237c2.414,0,4.373-1.898,4.373-4.237
				C322.732,27.648,320.773,25.753,318.359,25.753z"/>
		</g>
		<g>
			<circle style="fill:#CF2200;" cx="375.14" cy="29.85" r="18.347"/>
			<path style="fill:#B81E00;" d="M360.475,40.871c3.348,4.448,8.67,7.324,14.666,7.324c10.131,0,18.346-8.213,18.346-18.346
				c0-4.343-1.512-8.33-4.033-11.473L360.475,40.871z"/>
			<path style="fill:#FFFFFF;" d="M375.695,18.001c-6.465,0-9.727,4.638-9.727,8.503c0,2.342,0.887,4.425,2.787,5.2
				c0.311,0.128,0.59,0.004,0.682-0.341c0.063-0.238,0.209-0.842,0.277-1.093c0.09-0.341,0.057-0.46-0.195-0.758
				c-0.549-0.646-0.9-1.483-0.9-2.67c0-3.438,2.574-6.52,6.703-6.52c3.654,0,5.662,2.233,5.662,5.216
				c0,3.926-1.736,7.238-4.314,7.238c-1.424,0-2.488-1.177-2.148-2.621c0.408-1.726,1.201-3.586,1.201-4.83
				c0-1.115-0.6-2.045-1.836-2.045c-1.455,0-2.625,1.506-2.625,3.523c0,1.285,0.434,2.154,0.434,2.154s-1.488,6.312-1.75,7.418
				c-0.52,2.201-0.078,4.898-0.039,5.171c0.021,0.161,0.229,0.2,0.324,0.079c0.133-0.176,1.867-2.315,2.455-4.455
				c0.168-0.604,0.957-3.741,0.957-3.741c0.475,0.903,1.855,1.696,3.324,1.696c4.377,0,7.346-3.989,7.346-9.328
				C384.313,21.762,380.893,18.001,375.695,18.001z"/>
		</g>
	</g>
</g>
<g id="Layer_1">
</g>
</svg>
