<?xml version="1.0" encoding="iso-8859-1"?>
<!-- Generator: Adobe Illustrator 16.0.0, SVG Export Plug-In . SVG Version: 6.00 Build 0)  -->
<!DOCTYPE svg PUBLIC "-//W3C//DTD SVG 1.1//EN" "http://www.w3.org/Graphics/SVG/1.1/DTD/svg11.dtd">
<svg version="1.1" xmlns="http://www.w3.org/2000/svg" xmlns:xlink="http://www.w3.org/1999/xlink" x="0px" y="0px"
	 width="404.001px" height="60px" viewBox="0 0 404.001 60" style="enable-background:new 0 0 404.001 60;" xml:space="preserve">
<g id="preview10">
	<rect style="fill:#FFFFFF;" width="404.001" height="60"/>
	<g>
		<circle style="fill:#007BB5;" cx="150.589" cy="33.736" r="13.859"/>
		<path style="fill:#006DA1;" d="M139.511,42.062c2.528,3.361,6.549,5.534,11.078,5.534c7.654,0,13.859-6.205,13.859-13.859
			c0-3.28-1.142-6.293-3.047-8.666L139.511,42.062L139.511,42.062z"/>
		<path style="fill:#FFFFFF;" d="M142.793,29.405h3.465v12.127h-3.465V29.405z M154.486,29.405c-2.417,0-2.832,0.882-3.031,1.732
			v-1.732h-3.464v12.127h3.464v-6.93c0-1.123,0.608-1.732,1.732-1.732c1.096,0,1.732,0.596,1.732,1.732v6.93h3.465v-6.063
			C158.385,32.004,157.933,29.405,154.486,29.405L154.486,29.405z"/>
		<circle style="fill:#FFFFFF;" cx="144.526" cy="26.807" r="1.732"/>
		<path style="fill:#F2F2F2;" d="M147.966,18.214c0,0,0.341,0.181,0.532,0.377c0.095,0.099,0.229,0.395,0.355,0.673
			c0.02,0.473,0.747,0.732,0.857,1.077c0.038,0.113,0.006,0.237-0.143,0.381c-1.027,0.132-2.075,0.224-3.043,0.457
			c-0.193,0.047-0.385,0.099-0.573,0.157c-0.226,0.048-0.442,0.11-0.654,0.183c-0.211,0.073-0.415,0.159-0.613,0.257
			c-2.059,0.843-3.37,2.347-4.807,3.78c-0.143,0.097-0.286,0.19-0.432,0.285c-0.417-0.07-0.501-0.181-0.495-0.313
			c0.007-0.131,0.108-0.284,0.065-0.44c-0.054-0.195-0.283-0.469-0.463-0.679c-0.107-0.126-0.196-0.226-0.219-0.274
			c-0.063-0.131-0.347-1.244,0.222-1.711c0,0,0.241,0.425,0.846,0.363c0.202-0.021,0.443-0.095,0.73-0.259
			c0.391-0.644,1.214-0.749,2.007-1.19c0.171-0.07,0.344-0.136,0.519-0.201c0.522-0.188,1.065-0.351,1.641-0.536
			c0.2-0.087,0.397-0.175,0.595-0.262c0.985-0.438,1.958-0.881,3.076-1.348c0.172-0.075,0.279-0.12,0.279-0.12l-0.285-0.656
			L147.966,18.214z"/>
		<path style="fill:#CCCCCC;" d="M148.087,18.007c0.104,0.056,0.206,0.103,0.321,0.19l0.168,0.12l0.082,0.063l0.021,0.016
			l0.01,0.008l0.028,0.034l0.001,0.002l0.003,0.004l0.024,0.038c0.064,0.104,0.133,0.183,0.192,0.309l0.182,0.353l0.026,0.109
			c0.027,0.03,0.002,0.054,0.041,0.092c0.013,0.017,0.024,0.035,0.035,0.054l0.061,0.061c0.034,0.041,0.094,0.085,0.144,0.13
			l0.173,0.141c0.067,0.061,0.127,0.1,0.199,0.179l0.103,0.112c0.036,0.055,0.069,0.115,0.099,0.175l0.021,0.044l0.018,0.078
			l0.01,0.057c0.006,0.082-0.01,0.226-0.041,0.284c-0.028,0.061-0.063,0.136-0.098,0.176l-0.111,0.131l-0.063,0.071l-0.127,0.019
			l-0.908,0.128c-0.301,0.048-0.611,0.073-0.901,0.133l-0.882,0.158l-0.221,0.039c-0.031,0.007-0.085,0.016-0.099,0.02l-0.11,0.03
			l-0.441,0.123l-0.022,0.006l-0.421,0.119l-0.189,0.054l-0.217,0.091l-0.42,0.174l-0.427,0.193
			c-0.143,0.063-0.288,0.127-0.409,0.204l-0.382,0.22c-0.13,0.066-0.251,0.164-0.377,0.246l-0.373,0.259
			c-0.234,0.194-0.486,0.364-0.714,0.572c-0.233,0.199-0.466,0.399-0.69,0.614c-0.454,0.42-0.899,0.86-1.354,1.294l-0.022,0.021
			l-0.015,0.009l-0.442,0.275l-0.083,0.053l-0.083-0.018c-0.091-0.02-0.184-0.041-0.281-0.073c-0.097-0.042-0.213-0.073-0.323-0.224
			c-0.056-0.075-0.071-0.179-0.067-0.254c0.015-0.094,0.017-0.093,0.032-0.154c0.032-0.109,0.054-0.169,0.048-0.198
			c0-0.007,0.001-0.015,0.003-0.023c0.003,0.011-0.008-0.024,0.009,0.022l-0.001-0.004l-0.003-0.007l-0.006-0.015l-0.011-0.03
			c-0.017-0.037-0.031-0.083-0.049-0.114c-0.042-0.056-0.061-0.104-0.115-0.173c-0.047-0.065-0.094-0.13-0.148-0.196l-0.078-0.098
			l-0.092-0.122l-0.076-0.102l-0.039-0.052l-0.01-0.012l-0.004-0.007l-0.003-0.002l-0.001-0.002l-0.015-0.028l-0.011-0.03
			c-0.039-0.114-0.05-0.188-0.068-0.281c-0.03-0.18-0.044-0.359-0.04-0.542c0.005-0.182,0.031-0.367,0.093-0.547
			c0.032-0.09,0.075-0.178,0.128-0.26c0.056-0.083,0.125-0.154,0.199-0.219l0.108-0.093l0.088,0.129
			c0.025,0.037,0.068,0.093,0.115,0.129c0.045,0.044,0.1,0.072,0.153,0.103c0.058,0.022,0.113,0.053,0.178,0.059
			c0.061,0.018,0.125,0.021,0.189,0.018c0.027,0,0.079,0.001,0.085,0l0.107-0.023l0.213-0.046l0.366-0.167l-0.041,0.04
			c0.066-0.084,0.127-0.174,0.199-0.252c0.081-0.066,0.156-0.146,0.243-0.201c0.173-0.117,0.356-0.209,0.54-0.289l0.549-0.23
			c0.181-0.074,0.354-0.16,0.526-0.248l0.009-0.005h0.001l0.54-0.205l0.543-0.174l1.088-0.349l-0.007,0.003
			c1.319-0.574,2.632-1.155,3.942-1.746l-0.054,0.137c-0.095-0.219-0.196-0.435-0.41-0.602L148.087,18.007L148.087,18.007z
			 M148.383,18.927l-0.091,0.039c-1.322,0.561-2.643,1.128-3.954,1.715l-0.003,0.001l-0.003,0.001l-1.083,0.36l-0.542,0.181
			l-0.525,0.206l0.01-0.005c-0.179,0.094-0.358,0.186-0.542,0.263l-0.543,0.233c-0.178,0.08-0.347,0.169-0.5,0.274
			c-0.079,0.051-0.138,0.12-0.21,0.178c-0.061,0.068-0.109,0.144-0.166,0.215l-0.026,0.033l-0.015,0.007l-0.427,0.199l-0.212,0.05
			l-0.106,0.024c-0.063,0.012-0.086,0.005-0.133,0.009c-0.081,0.005-0.161,0.001-0.243-0.019c-0.082-0.009-0.16-0.043-0.238-0.073
			c-0.074-0.038-0.148-0.078-0.211-0.135c-0.034-0.026-0.063-0.056-0.092-0.087c-0.03-0.032-0.054-0.063-0.083-0.108l0.195,0.036
			c-0.052,0.05-0.098,0.104-0.135,0.165c-0.036,0.063-0.065,0.13-0.087,0.202c-0.042,0.144-0.056,0.301-0.053,0.458
			c0.004,0.159,0.025,0.319,0.059,0.476c0.017,0.072,0.042,0.165,0.06,0.212l0.013,0.029c0.012,0.023-0.018-0.032-0.014-0.026v0.001
			l0.002,0.001l0.002,0.004l0.005,0.006l0.011,0.012l0.041,0.05l0.082,0.098c0.021,0.023,0.07,0.087,0.066,0.078l0.087,0.098
			c0.058,0.063,0.113,0.134,0.17,0.203c0.055,0.062,0.118,0.165,0.173,0.248c0.024,0.042,0.038,0.078,0.057,0.117l0.013,0.028
			l0.007,0.016l0.003,0.007l0.002,0.003c0.017,0.05,0.005,0.018,0.008,0.03l0.013,0.104c0.013,0.142-0.031,0.248-0.042,0.3
			c-0.009,0.021-0.018,0.107-0.02,0.096c0.006,0.009-0.001-0.004-0.001-0.012c-0.01-0.009,0.043,0.024,0.103,0.041
			c0.066,0.019,0.14,0.031,0.216,0.044l-0.165,0.035l0.421-0.294l-0.036,0.03c0.43-0.453,0.852-0.913,1.297-1.363
			c0.218-0.228,0.449-0.446,0.682-0.665c0.228-0.223,0.482-0.422,0.726-0.63c0.127-0.1,0.26-0.19,0.39-0.287
			c0.134-0.092,0.256-0.194,0.403-0.276l0.426-0.256c0.143-0.092,0.284-0.158,0.424-0.225l0.423-0.203
			c0.169-0.08,0.294-0.131,0.443-0.195l0.216-0.09c0.118-0.044,0.171-0.051,0.26-0.078l0.482-0.133l-0.022,0.005l0.442-0.121
			l0.111-0.03c0.061-0.017,0.083-0.017,0.126-0.024l0.232-0.041l0.927-0.163c0.311-0.063,0.611-0.089,0.917-0.121l0.915-0.098
			l-0.189,0.092c0.013-0.018,0.026-0.031,0.041-0.045c0.018-0.016,0.006-0.017,0.017-0.021c0.002-0.01-0.013,0.053,0.007,0.062
			l-0.009-0.057l-0.002-0.015l-0.001-0.007v-0.006c0.023,0.098,0.006,0.026,0.012,0.048l-0.006-0.005
			c-0.007-0.008-0.009-0.016-0.012-0.027l-0.051-0.058c-0.028-0.038-0.094-0.089-0.139-0.133l-0.179-0.155
			c-0.063-0.06-0.125-0.109-0.188-0.188l-0.092-0.111l-0.083-0.144c-0.027-0.045-0.049-0.099-0.06-0.162
			c-0.014-0.062-0.024-0.122-0.032-0.182l0.026,0.109l-0.12-0.288c-0.017-0.052-0.05-0.111-0.085-0.17L148.383,18.927z
			 M138.612,24.458c0,0,0.111-0.013,0.302-0.047c0.189-0.033,0.458-0.09,0.771-0.18c1.289-0.816,3.168-1.141,4.357-2.298
			c-1.766,0.563-2.841,1.953-4.389,2.774c-0.357,0.195-0.566,0.329-0.604,0.309c-0.165-0.091-0.495-0.608-0.495-0.608"/>
		<path style="fill:#B31116;" d="M136.41,19.74c0,0-1.75-3.228-1.586-3.818c0.162-0.592,1.71-3.101,2.669-3.372
			c0.959-0.271,1.656-0.157,2.515,0.295c0.859,0.45,4.876,2.265,6.229,3.343c1.354,1.078,2.082,2.587,2.209,2.782
			c0,0-0.277,0.15-0.717,0.384c-0.987,0.136-1.876,0.481-2.692,0.946c-0.164,0.093-0.324,0.19-0.481,0.292
			c-0.151,0.138-0.312,0.267-0.479,0.388c-0.167,0.122-0.342,0.236-0.521,0.345c-1.269,0.585-2.213,1.042-3.487,1.578
			c-0.304,0.094-0.565,0.162-0.767,0.202c-0.202,0.039-0.346,0.052-0.42,0.03c-0.296-0.081-0.383-0.329-0.314-0.715
			c0.071-0.386-0.027-0.787-0.264-1.411c-0.236-0.623-0.907-1.614-1.151-1.656C136.906,19.311,136.409,19.741,136.41,19.74
			L136.41,19.74z"/>
		<path style="fill:#800000;" d="M143.065,21.579c0.201-0.119,0.359-0.208,0.518-0.321c0.16-0.113,0.32-0.253,0.522-0.473
			c0.152-0.137,0.296-0.276,0.44-0.411c0.719-0.677,1.416-1.272,2.405-1.531c0.27-0.122,0.521-0.234,0.719-0.296
			c0.2-0.063,0.345-0.078,0.407-0.009c0.107,0.124,0.1,0.257,0.017,0.388c-0.08,0.132-0.234,0.262-0.418,0.378
			c-0.86,0.42-1.737,0.843-2.62,1.296c-0.176,0.092-0.353,0.184-0.533,0.274c-0.174,0.063-0.381,0.151-0.581,0.247
			c-0.201,0.098-0.396,0.202-0.552,0.299L143.065,21.579L143.065,21.579z M140.007,12.844c0,0-1.283,0.266-1.394,0.769
			c-0.111,0.503-0.182,0.888-0.139,1.573c0.042,0.686,0.583,3.6,0.583,3.6s-0.21,0.164-0.259-0.004
			c-0.05-0.169-0.27-1.089-0.553-2.011c-0.285-0.921-0.477-3.408,0.054-3.809c0.587-0.442,1.09-0.398,1.09-0.398L140.007,12.844
			L140.007,12.844z"/>
		<path style="fill:#B82025;" d="M136.378,13.729c0,0,0.727-0.351,0.929,0.064c0.2,0.417,0.066,1.667-0.378,2.075
			c-0.445,0.407-1.598,1.507-1.765,1.298c-0.088-0.111-0.245-0.604-0.335-0.981c-0.078-0.317,0.135-0.606,0.199-0.721
			C135.146,15.256,136.378,13.729,136.378,13.729z"/>
		<path style="fill:#800000;" d="M138.566,22.419c0,0,0.315-0.344,0.538-0.547c0.223-0.204,0.786-0.765,1.124-0.927
			c0.339-0.165,2.032-1.529,2.077-1.604c0.08-0.135,0.175-0.31-0.261-0.018c-0.409,0.271-0.569,0.414-1.012,0.691
			c-0.443,0.278-0.924,0.594-1.243,0.797l-0.443,0.277c0,0,0.115-0.321,0.165-0.455c0.154-0.411,0.219-0.828,0.154-1.31
			c-0.027-0.199-0.505-0.333-0.559-0.179s-0.777,1.049-0.641,1.399c0.061,0.152-0.131,0.593,0.005,0.942
			C138.689,22.041,138.566,22.419,138.566,22.419L138.566,22.419z"/>
		
			<radialGradient id="SVGID_1_" cx="172.8174" cy="157.0176" r="1.5326" gradientTransform="matrix(0.901 -0.434 -0.434 -0.901 50.1644 236.2596)" gradientUnits="userSpaceOnUse">
			<stop  offset="0" style="stop-color:#F2F2F2"/>
			<stop  offset="1" style="stop-color:#B3B3B3"/>
		</radialGradient>
		<path style="fill:url(#SVGID_1_);stroke:#B3B3B3;stroke-width:2;stroke-miterlimit:10;" d="M136.258,20.424
			c-0.39-0.838-0.049-1.677,0.712-2.043c0.761-0.367,1.786-0.188,2.024,0.705c0.219,0.818,0.068,1.685-0.694,2.052
			C137.539,21.504,136.613,21.19,136.258,20.424z"/>
		
			<linearGradient id="SVGID_2_" gradientUnits="userSpaceOnUse" x1="174.0259" y1="158.8672" x2="181.1572" y2="158.8672" gradientTransform="matrix(0.901 -0.434 -0.434 -0.901 50.1644 236.2596)">
			<stop  offset="0" style="stop-color:#F2F2F2"/>
			<stop  offset="1" style="stop-color:#B3B3B3"/>
		</linearGradient>
		<path style="opacity:0.3;fill:url(#SVGID_2_);enable-background:new    ;" d="M139.544,20.922c0,0,1.777-1.007,3.261-2.142
			c1.095-0.838,1.912-1.557,2.122-2.251c0.128-0.426-0.213-1.307-0.213-1.307l-4.707-2.379c0,0-1.336-0.047-1.615,0.907
			C138.067,14.87,139.543,20.922,139.544,20.922L139.544,20.922z"/>
	</g>
	<g>
		<circle style="fill:#CF2200;" cx="371.827" cy="34.241" r="13.859"/>
		<path style="fill:#B81E00;" d="M360.749,42.567c2.529,3.36,6.549,5.532,11.078,5.532c7.654,0,13.859-6.204,13.859-13.858
			c0-3.28-1.143-6.293-3.048-8.666L360.749,42.567z"/>
		<path style="fill:#FFFFFF;" d="M372.248,25.291c-4.885,0-7.349,3.503-7.349,6.424c0,1.768,0.67,3.341,2.104,3.927
			c0.235,0.098,0.446,0.003,0.515-0.257c0.049-0.181,0.16-0.637,0.21-0.825c0.069-0.258,0.044-0.348-0.147-0.572
			c-0.415-0.489-0.68-1.12-0.68-2.017c0-2.599,1.944-4.924,5.063-4.924c2.761,0,4.279,1.687,4.279,3.939
			c0,2.965-1.313,5.467-3.261,5.467c-1.075,0-1.88-0.889-1.622-1.979c0.307-1.305,0.906-2.709,0.906-3.65
			c0-0.841-0.451-1.543-1.385-1.543c-1.102,0-1.984,1.139-1.984,2.662c0,0.97,0.328,1.628,0.328,1.628s-1.127,4.767-1.322,5.604
			c-0.393,1.663-0.059,3.7-0.03,3.906c0.017,0.121,0.173,0.151,0.245,0.06c0.1-0.133,1.412-1.748,1.854-3.365
			c0.127-0.457,0.724-2.826,0.724-2.826c0.357,0.683,1.4,1.282,2.512,1.282c3.305,0,5.548-3.014,5.548-7.046
			C378.756,28.132,376.173,25.292,372.248,25.291L372.248,25.291z"/>
		<path style="fill:#F2F2F2;" d="M369.913,17.708c0,0,0.341,0.181,0.531,0.377c0.096,0.099,0.23,0.395,0.355,0.674
			c0.02,0.472,0.746,0.731,0.857,1.076c0.038,0.114,0.006,0.238-0.143,0.381c-1.027,0.133-2.074,0.225-3.043,0.457
			c-0.193,0.047-0.387,0.1-0.574,0.158c-0.225,0.048-0.441,0.109-0.652,0.182c-0.212,0.073-0.415,0.159-0.613,0.257
			c-2.059,0.843-3.369,2.348-4.807,3.781c-0.144,0.096-0.287,0.19-0.433,0.285c-0.417-0.07-0.501-0.182-0.495-0.313
			c0.008-0.131,0.108-0.284,0.066-0.44c-0.055-0.194-0.283-0.469-0.464-0.679c-0.106-0.125-0.196-0.226-0.218-0.274
			c-0.064-0.131-0.348-1.244,0.222-1.711c0,0,0.241,0.425,0.845,0.364c0.203-0.021,0.443-0.096,0.731-0.259
			c0.391-0.644,1.214-0.75,2.007-1.191c0.172-0.07,0.344-0.135,0.52-0.2c0.521-0.188,1.064-0.352,1.641-0.536
			c0.2-0.088,0.396-0.176,0.594-0.263c0.986-0.438,1.959-0.881,3.076-1.347c0.172-0.075,0.279-0.121,0.279-0.121l-0.285-0.656
			L369.913,17.708z"/>
		<path style="fill:#CCCCCC;" d="M370.034,17.501c0.104,0.056,0.206,0.103,0.32,0.19l0.168,0.121l0.084,0.063l0.021,0.016
			l0.009,0.008l0.028,0.035l0.001,0.001l0.004,0.005l0.025,0.037c0.063,0.104,0.133,0.184,0.191,0.309l0.182,0.353l0.026,0.109
			c0.026,0.03,0.003,0.054,0.04,0.092c0.014,0.018,0.025,0.036,0.035,0.055l0.061,0.061c0.034,0.041,0.095,0.085,0.143,0.13
			l0.176,0.14c0.065,0.061,0.125,0.101,0.197,0.179l0.104,0.112c0.036,0.055,0.069,0.115,0.1,0.175l0.021,0.045l0.017,0.077
			l0.011,0.058c0.007,0.082-0.01,0.225-0.041,0.284c-0.029,0.06-0.063,0.136-0.1,0.176l-0.109,0.13l-0.063,0.072l-0.127,0.018
			l-0.908,0.129c-0.301,0.047-0.61,0.072-0.9,0.133l-0.883,0.158l-0.221,0.038c-0.031,0.007-0.085,0.016-0.098,0.02l-0.111,0.031
			l-0.441,0.122l-0.023,0.006l-0.42,0.119l-0.189,0.054l-0.217,0.091l-0.42,0.174l-0.428,0.193
			c-0.143,0.063-0.288,0.127-0.408,0.205l-0.383,0.219c-0.13,0.066-0.251,0.164-0.377,0.246l-0.373,0.259
			c-0.234,0.194-0.486,0.365-0.713,0.572c-0.234,0.199-0.467,0.4-0.691,0.615c-0.454,0.42-0.899,0.86-1.354,1.293l-0.022,0.021
			l-0.016,0.009l-0.441,0.276l-0.082,0.052l-0.082-0.018c-0.091-0.02-0.184-0.04-0.281-0.073c-0.098-0.042-0.213-0.073-0.324-0.224
			c-0.056-0.075-0.068-0.178-0.066-0.254c0.016-0.094,0.017-0.093,0.033-0.154c0.032-0.109,0.055-0.168,0.049-0.197
			c0-0.008,0-0.016,0.002-0.023c0.004,0.01-0.008-0.024,0.009,0.021l-0.001-0.004l-0.003-0.007l-0.007-0.015l-0.012-0.029
			c-0.016-0.038-0.031-0.084-0.049-0.114c-0.041-0.057-0.061-0.105-0.115-0.174c-0.047-0.064-0.094-0.13-0.147-0.195l-0.077-0.098
			l-0.093-0.123l-0.077-0.102l-0.039-0.051l-0.008-0.013l-0.006-0.006l-0.002-0.003l-0.002-0.002l-0.016-0.028l-0.011-0.03
			c-0.038-0.114-0.05-0.188-0.067-0.281c-0.031-0.18-0.046-0.358-0.041-0.541c0.006-0.183,0.031-0.367,0.093-0.548
			c0.032-0.09,0.075-0.178,0.128-0.26c0.056-0.082,0.125-0.153,0.199-0.219l0.109-0.092l0.088,0.129
			c0.024,0.036,0.066,0.092,0.113,0.129c0.045,0.043,0.101,0.072,0.154,0.103c0.058,0.021,0.112,0.052,0.178,0.058
			c0.061,0.018,0.123,0.021,0.189,0.018c0.026,0,0.078,0.002,0.085,0l0.106-0.023l0.213-0.046l0.367-0.166l-0.041,0.039
			c0.066-0.083,0.127-0.173,0.199-0.251c0.081-0.067,0.156-0.146,0.243-0.201c0.173-0.117,0.356-0.21,0.54-0.29l0.547-0.23
			c0.182-0.074,0.354-0.16,0.525-0.248l0.01-0.004l0.001-0.001l0.54-0.204l0.543-0.175l1.087-0.348l-0.007,0.002
			c1.318-0.574,2.633-1.155,3.942-1.745l-0.054,0.137c-0.096-0.22-0.197-0.436-0.41-0.603L370.034,17.501L370.034,17.501z
			 M370.329,18.421l-0.092,0.039c-1.322,0.562-2.643,1.129-3.953,1.715l-0.004,0.001l-0.003,0.002l-1.083,0.36l-0.541,0.18
			l-0.525,0.207l0.01-0.006c-0.179,0.094-0.357,0.186-0.541,0.264l-0.543,0.233c-0.178,0.08-0.346,0.168-0.5,0.273
			c-0.078,0.051-0.139,0.12-0.209,0.178c-0.061,0.068-0.109,0.145-0.166,0.215l-0.025,0.033l-0.016,0.007l-0.428,0.199l-0.212,0.051
			l-0.106,0.024c-0.064,0.012-0.087,0.004-0.133,0.009c-0.082,0.005-0.162,0.001-0.244-0.019c-0.082-0.009-0.159-0.043-0.237-0.074
			c-0.073-0.038-0.147-0.077-0.211-0.135c-0.033-0.026-0.063-0.056-0.091-0.087c-0.031-0.031-0.054-0.062-0.083-0.107l0.194,0.036
			c-0.051,0.049-0.097,0.103-0.135,0.164c-0.035,0.063-0.064,0.13-0.086,0.202c-0.043,0.145-0.057,0.302-0.053,0.459
			c0.004,0.159,0.025,0.318,0.059,0.476c0.017,0.071,0.041,0.164,0.061,0.211l0.012,0.029c0.014,0.024-0.017-0.031-0.012-0.025l0,0
			v0.002l0.004,0.003l0.004,0.007l0.01,0.012l0.041,0.049l0.082,0.099c0.021,0.023,0.07,0.086,0.066,0.077l0.087,0.098
			c0.058,0.063,0.114,0.135,0.17,0.204c0.056,0.062,0.118,0.164,0.173,0.247c0.025,0.043,0.038,0.078,0.058,0.118l0.013,0.028
			l0.008,0.015l0.004,0.007l0.002,0.003c0.017,0.05,0.004,0.019,0.008,0.031l0.013,0.103c0.014,0.142-0.03,0.248-0.042,0.301
			c-0.008,0.021-0.018,0.106-0.019,0.096c0.005,0.008-0.002-0.005-0.002-0.013c-0.011-0.009,0.043,0.025,0.103,0.041
			c0.064,0.019,0.14,0.032,0.217,0.045l-0.166,0.034l0.421-0.294l-0.036,0.03c0.43-0.452,0.852-0.912,1.297-1.362
			c0.218-0.229,0.448-0.447,0.681-0.665c0.228-0.224,0.482-0.423,0.726-0.631c0.127-0.1,0.261-0.19,0.391-0.286
			c0.134-0.093,0.256-0.195,0.402-0.276l0.426-0.257c0.144-0.092,0.284-0.158,0.425-0.225l0.423-0.203
			c0.168-0.079,0.293-0.13,0.443-0.195l0.216-0.089c0.118-0.045,0.172-0.052,0.26-0.079l0.483-0.133l-0.021,0.006l0.441-0.122
			l0.111-0.03c0.061-0.016,0.083-0.016,0.127-0.024l0.231-0.041l0.925-0.163c0.313-0.062,0.611-0.089,0.919-0.121l0.913-0.098
			l-0.188,0.092c0.012-0.017,0.025-0.03,0.04-0.045c0.018-0.016,0.006-0.017,0.018-0.021c0.002-0.009-0.015,0.053,0.007,0.062
			l-0.008-0.056l-0.003-0.016l-0.001-0.007v-0.003l-0.001-0.002v-0.001l0.013,0.049l-0.006-0.006
			c-0.008-0.008-0.01-0.016-0.012-0.027l-0.052-0.057c-0.028-0.038-0.094-0.09-0.138-0.134l-0.18-0.154
			c-0.063-0.06-0.123-0.11-0.187-0.189l-0.093-0.11l-0.08-0.145c-0.029-0.045-0.051-0.099-0.062-0.162
			c-0.013-0.061-0.024-0.121-0.032-0.181l0.025,0.108l-0.119-0.287C370.396,18.538,370.363,18.479,370.329,18.421L370.329,18.421z
			 M360.56,23.952c0,0,0.11-0.013,0.301-0.046c0.189-0.034,0.459-0.091,0.771-0.181c1.289-0.816,3.168-1.141,4.357-2.297
			c-1.766,0.562-2.842,1.953-4.389,2.773c-0.357,0.195-0.566,0.329-0.604,0.31c-0.165-0.092-0.496-0.608-0.496-0.608"/>
		<path style="fill:#B31116;" d="M358.356,19.235c0,0-1.751-3.229-1.587-3.819c0.162-0.592,1.71-3.101,2.669-3.371
			c0.96-0.271,1.656-0.158,2.516,0.295c0.858,0.449,4.877,2.264,6.229,3.342c1.354,1.078,2.082,2.587,2.209,2.782
			c0,0-0.276,0.15-0.717,0.384c-0.986,0.136-1.877,0.481-2.693,0.946c-0.163,0.094-0.322,0.19-0.48,0.292
			c-0.15,0.138-0.313,0.268-0.479,0.388c-0.168,0.122-0.342,0.236-0.521,0.346c-1.27,0.585-2.213,1.041-3.487,1.578
			c-0.304,0.093-0.565,0.161-0.767,0.201c-0.203,0.04-0.346,0.052-0.42,0.03c-0.297-0.081-0.383-0.328-0.314-0.715
			c0.071-0.385-0.027-0.787-0.264-1.41s-0.906-1.615-1.15-1.657C358.853,18.805,358.355,19.236,358.356,19.235L358.356,19.235z"/>
		<path style="fill:#800000;" d="M365.012,21.073c0.2-0.119,0.359-0.208,0.519-0.32c0.16-0.113,0.32-0.253,0.522-0.473
			c0.151-0.138,0.296-0.276,0.439-0.411c0.72-0.677,1.416-1.273,2.405-1.532c0.27-0.122,0.52-0.233,0.719-0.295
			c0.199-0.063,0.345-0.079,0.406-0.01c0.107,0.124,0.1,0.257,0.018,0.389c-0.08,0.131-0.234,0.262-0.418,0.378
			c-0.86,0.419-1.738,0.842-2.62,1.296c-0.177,0.091-0.354,0.183-0.532,0.273c-0.176,0.063-0.381,0.152-0.582,0.247
			c-0.201,0.098-0.396,0.202-0.553,0.299l-0.324,0.161L365.012,21.073z M361.954,12.339c0,0-1.283,0.266-1.394,0.769
			c-0.11,0.502-0.182,0.888-0.139,1.572c0.042,0.687,0.583,3.6,0.583,3.6s-0.21,0.164-0.258-0.003
			c-0.051-0.17-0.27-1.09-0.553-2.011c-0.285-0.921-0.478-3.409,0.053-3.81c0.588-0.442,1.092-0.398,1.092-0.398L361.954,12.339
			L361.954,12.339z"/>
		<path style="fill:#B82025;" d="M358.325,13.224c0,0,0.727-0.351,0.929,0.064c0.2,0.416,0.066,1.667-0.378,2.074
			s-1.598,1.507-1.764,1.298c-0.087-0.11-0.244-0.604-0.334-0.981c-0.08-0.317,0.133-0.605,0.197-0.721
			C357.093,14.751,358.325,13.224,358.325,13.224z"/>
		<path style="fill:#800000;" d="M360.514,21.914c0,0,0.314-0.344,0.537-0.547c0.223-0.204,0.786-0.766,1.124-0.928
			c0.338-0.164,2.031-1.529,2.076-1.604c0.08-0.134,0.175-0.31-0.262-0.017c-0.409,0.271-0.568,0.413-1.013,0.691
			c-0.442,0.278-0.924,0.593-1.243,0.797l-0.443,0.276c0,0,0.115-0.321,0.166-0.454c0.154-0.412,0.218-0.828,0.154-1.311
			c-0.027-0.199-0.505-0.333-0.56-0.178c-0.054,0.154-0.776,1.048-0.64,1.398c0.061,0.152-0.133,0.594,0.005,0.942
			C360.636,21.535,360.513,21.913,360.514,21.914L360.514,21.914z"/>
		
			<radialGradient id="SVGID_3_" cx="373.3145" cy="60.6289" r="1.5321" gradientTransform="matrix(0.901 -0.434 -0.434 -0.901 49.6312 235.9236)" gradientUnits="userSpaceOnUse">
			<stop  offset="0" style="stop-color:#F2F2F2"/>
			<stop  offset="1" style="stop-color:#B3B3B3"/>
		</radialGradient>
		<path style="fill:url(#SVGID_3_);stroke:#B3B3B3;stroke-width:2;stroke-miterlimit:10;" d="M358.206,19.919
			c-0.391-0.839-0.051-1.677,0.711-2.044s1.785-0.188,2.025,0.706c0.219,0.818,0.066,1.685-0.695,2.051
			C359.485,20.999,358.56,20.685,358.206,19.919L358.206,19.919z"/>
		
			<linearGradient id="SVGID_4_" gradientUnits="userSpaceOnUse" x1="374.5234" y1="62.4775" x2="381.6543" y2="62.4775" gradientTransform="matrix(0.901 -0.434 -0.434 -0.901 49.6312 235.9236)">
			<stop  offset="0" style="stop-color:#F2F2F2"/>
			<stop  offset="1" style="stop-color:#B3B3B3"/>
		</linearGradient>
		<path style="opacity:0.3;fill:url(#SVGID_4_);enable-background:new    ;" d="M361.491,20.417c0,0,1.776-1.007,3.262-2.143
			c1.094-0.837,1.91-1.556,2.121-2.25c0.128-0.426-0.213-1.308-0.213-1.308l-4.707-2.378c0,0-1.336-0.048-1.615,0.906
			C360.013,14.364,361.491,20.417,361.491,20.417z"/>
	</g>
	<g>
		<circle style="fill:#55ACEE;" cx="94.915" cy="34.186" r="13.859"/>
		<path style="fill:#4C99D4;" d="M83.836,42.511c2.529,3.36,6.55,5.534,11.079,5.534c7.654,0,13.859-6.205,13.859-13.859
			c0-3.28-1.142-6.293-3.047-8.667L83.836,42.511z"/>
		<path style="fill:#FFFFFF;" d="M103.588,28.898c-0.639,0.279-1.322,0.465-2.043,0.55c0.736-0.431,1.299-1.116,1.565-1.934
			c-0.688,0.4-1.449,0.691-2.259,0.849c-0.648-0.68-1.573-1.104-2.595-1.104c-1.966,0-3.556,1.564-3.556,3.498
			c0,0.273,0.03,0.542,0.089,0.8c-2.955-0.149-5.573-1.542-7.329-3.657c-0.306,0.518-0.483,1.118-0.483,1.76
			c0,1.213,0.631,2.283,1.583,2.913c-0.582-0.02-1.131-0.177-1.608-0.438c-0.002,0.014-0.002,0.027-0.002,0.043
			c0,1.695,1.227,3.111,2.853,3.434c-0.297,0.078-0.611,0.121-0.938,0.121c-0.228,0-0.45-0.021-0.667-0.062
			c0.451,1.389,1.765,2.4,3.321,2.432c-1.214,0.936-2.75,1.498-4.416,1.498c-0.286,0-0.572-0.017-0.849-0.051
			c1.573,0.992,3.444,1.571,5.453,1.571c6.542,0,10.12-5.333,10.12-9.957c0-0.148-0.005-0.303-0.013-0.45
			C102.509,30.215,103.112,29.6,103.588,28.898L103.588,28.898z"/>
		<path style="fill:#F2F2F2;" d="M92.845,17.765c0,0,0.341,0.181,0.531,0.377c0.095,0.098,0.23,0.395,0.355,0.673
			c0.02,0.472,0.747,0.732,0.857,1.076c0.038,0.114,0.007,0.238-0.143,0.381c-1.026,0.133-2.075,0.225-3.042,0.458
			c-0.194,0.046-0.386,0.099-0.574,0.157c-0.225,0.048-0.441,0.109-0.653,0.182c-0.211,0.074-0.415,0.159-0.613,0.257
			c-2.059,0.843-3.37,2.348-4.808,3.781c-0.143,0.097-0.286,0.19-0.432,0.285c-0.417-0.07-0.501-0.181-0.495-0.313
			c0.008-0.132,0.108-0.284,0.066-0.44c-0.054-0.195-0.284-0.469-0.463-0.679c-0.106-0.126-0.196-0.227-0.218-0.274
			c-0.064-0.131-0.347-1.244,0.222-1.711c0,0,0.241,0.425,0.845,0.363c0.202-0.021,0.443-0.095,0.731-0.259
			c0.391-0.644,1.214-0.749,2.008-1.19c0.171-0.07,0.343-0.136,0.518-0.201c0.522-0.188,1.065-0.351,1.641-0.536
			c0.2-0.087,0.397-0.175,0.594-0.262c0.986-0.438,1.958-0.881,3.076-1.348c0.171-0.075,0.278-0.12,0.278-0.12l-0.284-0.656
			L92.845,17.765z"/>
		<path style="fill:#CCCCCC;" d="M92.966,17.557c0.104,0.057,0.206,0.103,0.321,0.19l0.168,0.121l0.083,0.063l0.021,0.016
			l0.01,0.009l0.027,0.034l0.001,0.002l0.004,0.004l0.024,0.037c0.064,0.104,0.133,0.184,0.192,0.309L94,18.694l0.026,0.108
			c0.026,0.031,0.002,0.055,0.041,0.093c0.013,0.017,0.024,0.035,0.035,0.054l0.061,0.061c0.034,0.041,0.094,0.085,0.143,0.13
			l0.174,0.141c0.067,0.061,0.127,0.1,0.199,0.179l0.104,0.112c0.035,0.055,0.069,0.115,0.098,0.174l0.022,0.045l0.017,0.078
			l0.01,0.057c0.007,0.082-0.01,0.225-0.041,0.284c-0.029,0.06-0.063,0.136-0.099,0.176l-0.11,0.131l-0.062,0.071l-0.127,0.018
			l-0.91,0.129c-0.3,0.048-0.61,0.073-0.901,0.133l-0.881,0.158l-0.221,0.039c-0.031,0.007-0.084,0.015-0.098,0.02l-0.11,0.03
			l-0.442,0.123l-0.023,0.006l-0.421,0.118l-0.19,0.055l-0.216,0.091l-0.42,0.173l-0.428,0.194
			c-0.144,0.063-0.288,0.127-0.409,0.204l-0.383,0.219c-0.13,0.066-0.251,0.165-0.377,0.247l-0.372,0.259
			c-0.235,0.194-0.487,0.364-0.715,0.571c-0.234,0.199-0.466,0.4-0.691,0.615c-0.453,0.42-0.899,0.86-1.354,1.293l-0.021,0.021
			l-0.016,0.009l-0.442,0.276l-0.082,0.052l-0.083-0.017c-0.091-0.02-0.184-0.041-0.281-0.074c-0.097-0.042-0.212-0.072-0.323-0.223
			c-0.056-0.075-0.07-0.179-0.067-0.254c0.015-0.094,0.016-0.093,0.032-0.154c0.032-0.109,0.054-0.169,0.047-0.198
			c0-0.007,0.002-0.015,0.004-0.023c0.004,0.011-0.008-0.024,0.009,0.021l-0.001-0.003L83.7,24.706l-0.006-0.015l-0.012-0.029
			c-0.016-0.038-0.031-0.083-0.049-0.114c-0.042-0.057-0.061-0.104-0.115-0.173c-0.048-0.065-0.094-0.13-0.148-0.196l-0.078-0.098
			L83.2,23.958l-0.077-0.101l-0.039-0.052l-0.009-0.012l-0.005-0.007l-0.002-0.003l-0.001-0.001l-0.015-0.028l-0.011-0.031
			c-0.039-0.114-0.05-0.188-0.068-0.281c-0.03-0.179-0.045-0.358-0.041-0.541c0.005-0.182,0.03-0.367,0.093-0.547
			c0.032-0.091,0.076-0.178,0.128-0.26c0.055-0.083,0.125-0.154,0.199-0.22l0.108-0.092l0.088,0.129
			c0.025,0.037,0.067,0.093,0.115,0.129c0.044,0.043,0.099,0.072,0.153,0.103c0.058,0.021,0.113,0.053,0.178,0.059
			c0.061,0.017,0.125,0.021,0.19,0.017c0.026,0,0.078,0.002,0.084,0l0.106-0.022l0.214-0.046l0.366-0.167l-0.041,0.04
			c0.066-0.084,0.127-0.174,0.199-0.252c0.082-0.066,0.156-0.146,0.244-0.201c0.173-0.117,0.355-0.209,0.54-0.289l0.55-0.23
			c0.181-0.074,0.354-0.16,0.526-0.248l0.009-0.005l0.001-0.001l0.54-0.204l0.543-0.174l1.087-0.349l-0.007,0.002
			c1.319-0.573,2.632-1.154,3.942-1.745l-0.054,0.137c-0.095-0.219-0.197-0.435-0.411-0.603L92.966,17.557L92.966,17.557z
			 M93.261,18.478l-0.091,0.039c-1.323,0.561-2.644,1.128-3.954,1.714l-0.003,0.001l-0.003,0.002l-1.083,0.36l-0.541,0.181
			l-0.526,0.206l0.011-0.005c-0.179,0.094-0.358,0.185-0.542,0.263l-0.542,0.233c-0.178,0.08-0.347,0.169-0.5,0.274
			c-0.078,0.051-0.139,0.12-0.209,0.178c-0.061,0.067-0.109,0.144-0.166,0.214l-0.026,0.034l-0.015,0.006l-0.428,0.2l-0.212,0.05
			l-0.106,0.024c-0.063,0.012-0.086,0.005-0.133,0.009c-0.082,0.005-0.163,0.001-0.243-0.019c-0.083-0.009-0.16-0.043-0.238-0.073
			c-0.074-0.038-0.148-0.078-0.21-0.135c-0.034-0.026-0.063-0.057-0.092-0.087c-0.031-0.032-0.053-0.063-0.083-0.108l0.195,0.036
			c-0.051,0.05-0.097,0.103-0.135,0.165c-0.036,0.063-0.065,0.13-0.086,0.201c-0.042,0.145-0.056,0.302-0.053,0.459
			c0.004,0.159,0.025,0.319,0.059,0.476c0.017,0.072,0.041,0.164,0.06,0.212l0.013,0.028c0.013,0.024-0.017-0.031-0.013-0.025v0.001
			l0.001,0.001l0.003,0.004l0.004,0.006l0.01,0.012l0.042,0.049l0.082,0.099c0.02,0.023,0.07,0.087,0.066,0.078l0.087,0.098
			c0.058,0.063,0.114,0.134,0.17,0.203c0.056,0.062,0.118,0.165,0.173,0.248c0.024,0.042,0.038,0.077,0.057,0.117l0.013,0.028
			l0.007,0.015l0.003,0.007l0.001,0.004c0.018,0.049,0.006,0.018,0.009,0.03l0.013,0.104c0.013,0.141-0.031,0.247-0.042,0.3
			c-0.009,0.021-0.018,0.106-0.02,0.096c0.005,0.009-0.001-0.004-0.001-0.013c-0.01-0.009,0.043,0.025,0.103,0.041
			c0.064,0.02,0.14,0.032,0.216,0.045l-0.165,0.034l0.42-0.294l-0.036,0.031c0.43-0.453,0.851-0.913,1.297-1.363
			c0.217-0.229,0.448-0.447,0.68-0.665c0.228-0.223,0.482-0.423,0.726-0.63c0.127-0.1,0.26-0.191,0.39-0.287
			c0.134-0.092,0.255-0.195,0.402-0.276l0.426-0.256c0.143-0.093,0.284-0.158,0.425-0.225l0.422-0.204
			c0.169-0.079,0.293-0.13,0.443-0.194l0.216-0.09c0.118-0.045,0.171-0.051,0.26-0.078l0.483-0.134l-0.021,0.006l0.442-0.121
			l0.111-0.03c0.061-0.017,0.083-0.017,0.126-0.025l0.232-0.041l0.926-0.163c0.312-0.062,0.612-0.089,0.918-0.121l0.914-0.097
			l-0.189,0.091c0.013-0.017,0.026-0.03,0.041-0.045c0.018-0.016,0.006-0.016,0.018-0.021c0.002-0.009-0.014,0.053,0.006,0.063
			l-0.008-0.057l-0.002-0.015l-0.001-0.008v-0.003l-0.001-0.002V19.94l0.012,0.049l-0.006-0.005
			c-0.008-0.008-0.01-0.016-0.012-0.027l-0.051-0.058c-0.028-0.038-0.094-0.089-0.138-0.133l-0.178-0.155
			c-0.063-0.06-0.125-0.11-0.188-0.189l-0.092-0.11l-0.081-0.144c-0.029-0.046-0.05-0.099-0.061-0.163
			c-0.013-0.061-0.024-0.121-0.033-0.181l0.026,0.109l-0.119-0.288c-0.016-0.052-0.048-0.111-0.083-0.17L93.261,18.478z
			 M83.49,24.009c0,0,0.111-0.014,0.302-0.047c0.19-0.033,0.458-0.09,0.771-0.18c1.289-0.817,3.168-1.142,4.357-2.298
			c-1.766,0.563-2.841,1.953-4.388,2.774c-0.357,0.194-0.565,0.329-0.604,0.309c-0.165-0.091-0.496-0.608-0.496-0.608"/>
		<path style="fill:#B31116;" d="M81.288,19.291c0,0-1.75-3.228-1.586-3.818c0.163-0.593,1.71-3.102,2.669-3.372
			c0.959-0.271,1.656-0.157,2.516,0.295c0.858,0.45,4.876,2.264,6.229,3.342c1.354,1.079,2.082,2.588,2.208,2.783
			c0,0-0.276,0.15-0.717,0.383c-0.986,0.137-1.876,0.482-2.692,0.947c-0.164,0.093-0.324,0.19-0.48,0.292
			c-0.152,0.137-0.312,0.267-0.479,0.388c-0.167,0.122-0.342,0.236-0.521,0.345c-1.269,0.585-2.213,1.041-3.487,1.578
			c-0.305,0.094-0.564,0.161-0.767,0.202c-0.202,0.039-0.346,0.052-0.42,0.029c-0.296-0.08-0.383-0.328-0.313-0.714
			c0.07-0.386-0.028-0.787-0.265-1.411c-0.236-0.623-0.907-1.614-1.151-1.656C81.785,18.86,81.287,19.292,81.288,19.291
			L81.288,19.291z"/>
		<path style="fill:#800000;" d="M87.943,21.129c0.201-0.118,0.359-0.207,0.519-0.32c0.16-0.113,0.32-0.253,0.522-0.473
			c0.151-0.137,0.295-0.276,0.439-0.411c0.72-0.677,1.417-1.272,2.405-1.531c0.27-0.122,0.521-0.234,0.719-0.296
			c0.2-0.063,0.345-0.078,0.407-0.009c0.107,0.124,0.099,0.257,0.017,0.388c-0.081,0.131-0.234,0.262-0.418,0.378
			c-0.86,0.42-1.738,0.842-2.62,1.296c-0.176,0.091-0.354,0.183-0.533,0.274c-0.175,0.063-0.381,0.151-0.582,0.247
			c-0.201,0.097-0.396,0.202-0.553,0.299l-0.324,0.16L87.943,21.129z M84.886,12.395c0,0-1.283,0.266-1.394,0.769
			s-0.182,0.888-0.139,1.573c0.042,0.686,0.583,3.599,0.583,3.599s-0.21,0.164-0.258-0.003c-0.05-0.169-0.27-1.089-0.553-2.011
			c-0.285-0.921-0.477-3.408,0.055-3.809c0.587-0.442,1.09-0.398,1.09-0.398L84.886,12.395L84.886,12.395z"/>
		<path style="fill:#B82025;" d="M81.257,13.279c0,0,0.728-0.351,0.929,0.064c0.2,0.417,0.066,1.667-0.378,2.074
			c-0.445,0.407-1.598,1.507-1.764,1.298c-0.086-0.11-0.244-0.604-0.333-0.98c-0.08-0.318,0.132-0.605,0.197-0.721
			C80.024,14.807,81.257,13.279,81.257,13.279z"/>
		<path style="fill:#800000;" d="M83.445,21.97c0,0,0.314-0.344,0.537-0.547c0.223-0.204,0.785-0.766,1.124-0.927
			c0.339-0.165,2.032-1.529,2.077-1.604c0.08-0.134,0.175-0.309-0.262-0.017c-0.409,0.271-0.568,0.414-1.012,0.691
			c-0.442,0.278-0.924,0.594-1.243,0.797l-0.442,0.277c0,0,0.114-0.321,0.164-0.455c0.155-0.411,0.219-0.828,0.155-1.31
			c-0.026-0.2-0.504-0.333-0.559-0.179c-0.054,0.154-0.777,1.048-0.64,1.398c0.061,0.153-0.131,0.594,0.005,0.943
			C83.567,21.592,83.445,21.969,83.445,21.97L83.445,21.97z"/>
		
			<radialGradient id="SVGID_5_" cx="123.79" cy="181.2422" r="1.5328" gradientTransform="matrix(0.901 -0.434 -0.434 -0.901 49.7308 236.3611)" gradientUnits="userSpaceOnUse">
			<stop  offset="0" style="stop-color:#F2F2F2"/>
			<stop  offset="1" style="stop-color:#B3B3B3"/>
		</radialGradient>
		<path style="fill:url(#SVGID_5_);stroke:#B3B3B3;stroke-width:2;stroke-miterlimit:10;" d="M81.137,19.975
			c-0.39-0.838-0.05-1.677,0.711-2.044c0.762-0.367,1.786-0.188,2.025,0.706c0.219,0.818,0.067,1.685-0.694,2.052
			C82.417,21.055,81.492,20.741,81.137,19.975L81.137,19.975z"/>
		
			<linearGradient id="SVGID_6_" gradientUnits="userSpaceOnUse" x1="124.999" y1="183.0918" x2="132.1289" y2="183.0918" gradientTransform="matrix(0.901 -0.434 -0.434 -0.901 49.7308 236.3611)">
			<stop  offset="0" style="stop-color:#F2F2F2"/>
			<stop  offset="1" style="stop-color:#B3B3B3"/>
		</linearGradient>
		<path style="opacity:0.3;fill:url(#SVGID_6_);enable-background:new    ;" d="M84.423,20.473c0,0,1.776-1.007,3.261-2.142
			c1.094-0.838,1.912-1.557,2.121-2.251c0.128-0.426-0.213-1.307-0.213-1.307l-4.707-2.379c0,0-1.336-0.047-1.616,0.907
			C82.945,14.421,84.423,20.473,84.423,20.473z"/>
	</g>
	<g>
		<circle style="fill:#CF2200;" cx="205.639" cy="34.169" r="13.859"/>
		<path style="fill:#B81E00;" d="M194.56,42.494c2.529,3.361,6.549,5.534,11.078,5.534c7.654,0,13.859-6.205,13.859-13.859
			c0-3.28-1.142-6.293-3.048-8.666L194.56,42.494L194.56,42.494z"/>
		<path style="fill:#FFFFFF;" d="M209.928,37.327h-0.811l0.003-0.472c0-0.209,0.172-0.381,0.383-0.381h0.052
			c0.21,0,0.383,0.172,0.383,0.381L209.928,37.327z M206.884,36.317c-0.205,0-0.374,0.139-0.374,0.307v2.292
			c0,0.17,0.17,0.309,0.375,0.309c0.207,0,0.375-0.139,0.375-0.309v-2.291C207.26,36.455,207.092,36.317,206.884,36.317
			L206.884,36.317z M211.826,35.034v4.361c0,1.045-0.907,1.901-2.016,1.901h-8.289c-1.108,0-2.015-0.856-2.015-1.901v-4.361
			c0-1.045,0.907-1.902,2.015-1.902h8.289C210.92,33.132,211.826,33.989,211.826,35.034L211.826,35.034z M202.075,39.868v-4.592
			h1.027v-0.68l-2.738-0.005v0.67l0.854,0.002v4.606h0.856h-0.001L202.075,39.868z M205.155,35.959h-0.857v2.453
			c0,0.355,0.021,0.533-0.001,0.596c-0.069,0.19-0.384,0.393-0.505,0.021c-0.021-0.064-0.004-0.262-0.004-0.599l-0.003-2.47h-0.853
			l0.004,2.431c0,0.372-0.008,0.65,0.003,0.777c0.021,0.222,0.013,0.482,0.221,0.631c0.386,0.278,1.124-0.042,1.308-0.438
			l-0.001,0.507h0.688V35.959L205.155,35.959z M207.896,38.769l-0.002-2.041c0-0.779-0.582-1.245-1.373-0.615l0.004-1.519
			l-0.855,0.002l-0.005,5.238l0.703-0.011l0.064-0.326C207.332,40.323,207.896,39.758,207.896,38.769L207.896,38.769z
			 M210.577,38.498l-0.643,0.003c0,0.026-0.002,0.055-0.002,0.087v0.359c0,0.19-0.158,0.348-0.351,0.348h-0.126
			c-0.193,0-0.352-0.156-0.352-0.348v-0.943h1.471V37.45c0-0.405-0.01-0.81-0.044-1.04c-0.105-0.732-1.133-0.848-1.651-0.474
			c-0.163,0.116-0.287,0.273-0.359,0.484c-0.073,0.21-0.109,0.497-0.109,0.862V38.5C208.412,40.524,210.87,40.238,210.577,38.498z
			 M207.281,31.889c0.045,0.108,0.113,0.194,0.206,0.261c0.093,0.065,0.21,0.098,0.352,0.098c0.123,0,0.232-0.033,0.328-0.102
			c0.095-0.069,0.175-0.171,0.24-0.308l-0.016,0.336h0.955v-4.062h-0.752v3.161c0,0.171-0.141,0.312-0.313,0.312
			c-0.172,0-0.313-0.141-0.313-0.312v-3.161h-0.785v2.739c0,0.349,0.007,0.581,0.017,0.7
			C207.211,31.668,207.238,31.78,207.281,31.889L207.281,31.889z M204.389,29.596c0-0.39,0.032-0.694,0.097-0.914
			c0.065-0.218,0.182-0.395,0.351-0.526c0.17-0.134,0.386-0.2,0.647-0.2c0.223,0,0.411,0.043,0.569,0.128
			c0.159,0.086,0.281,0.197,0.366,0.333c0.087,0.139,0.146,0.279,0.177,0.424c0.032,0.146,0.048,0.367,0.048,0.665v1.027
			c0,0.377-0.015,0.654-0.045,0.83c-0.028,0.176-0.091,0.34-0.188,0.493c-0.096,0.151-0.218,0.265-0.368,0.338
			c-0.15,0.072-0.323,0.108-0.518,0.108c-0.217,0-0.4-0.029-0.552-0.093c-0.151-0.063-0.269-0.155-0.352-0.281
			c-0.084-0.125-0.143-0.277-0.18-0.456c-0.035-0.177-0.053-0.444-0.053-0.801L204.389,29.596L204.389,29.596z M205.136,31.209
			c0,0.229,0.172,0.418,0.38,0.418c0.209,0,0.379-0.188,0.379-0.418v-2.161c0-0.229-0.171-0.418-0.38-0.418
			c-0.207,0-0.379,0.188-0.379,0.417V31.209L205.136,31.209z M202.493,32.3h0.901l0.002-3.113l1.064-2.669h-0.985l-0.566,1.981
			l-0.574-1.986h-0.974l1.132,2.675l0.002,3.114h-0.001L202.493,32.3z"/>
		<path style="fill:#F2F2F2;" d="M203.713,17.78c0,0,0.341,0.181,0.532,0.377c0.095,0.099,0.229,0.395,0.354,0.673
			c0.02,0.473,0.747,0.732,0.857,1.077c0.038,0.114,0.007,0.237-0.143,0.381c-1.026,0.132-2.074,0.224-3.043,0.457
			c-0.193,0.047-0.386,0.099-0.573,0.158c-0.226,0.047-0.441,0.109-0.653,0.182c-0.211,0.073-0.415,0.159-0.613,0.257
			c-2.059,0.843-3.369,2.347-4.808,3.781c-0.143,0.096-0.286,0.189-0.432,0.284c-0.417-0.069-0.501-0.181-0.495-0.313
			c0.007-0.131,0.108-0.284,0.065-0.44c-0.054-0.195-0.283-0.469-0.463-0.679c-0.106-0.126-0.195-0.226-0.218-0.274
			c-0.063-0.131-0.347-1.244,0.222-1.711c0,0,0.241,0.425,0.846,0.364c0.202-0.022,0.443-0.096,0.73-0.26
			c0.391-0.644,1.214-0.749,2.008-1.19c0.171-0.07,0.343-0.136,0.518-0.2c0.522-0.188,1.065-0.352,1.641-0.537
			c0.2-0.087,0.397-0.175,0.595-0.262c0.985-0.438,1.958-0.881,3.076-1.348c0.172-0.075,0.278-0.12,0.278-0.12L203.713,17.78
			L203.713,17.78z"/>
		<path style="fill:#CCCCCC;" d="M203.835,17.573c0.104,0.056,0.205,0.103,0.32,0.19l0.168,0.121l0.083,0.063l0.021,0.016
			l0.01,0.008l0.028,0.034l0.001,0.002l0.004,0.004l0.024,0.038c0.063,0.104,0.133,0.184,0.192,0.309l0.182,0.353l0.026,0.109
			c0.025,0.03,0.002,0.054,0.04,0.092c0.014,0.017,0.024,0.035,0.035,0.055l0.061,0.06c0.033,0.042,0.094,0.086,0.143,0.13
			l0.175,0.141c0.065,0.061,0.126,0.1,0.198,0.179l0.103,0.112c0.036,0.055,0.069,0.115,0.1,0.175l0.022,0.045l0.016,0.077
			l0.011,0.057c0.007,0.082-0.01,0.226-0.041,0.284c-0.028,0.061-0.063,0.136-0.099,0.176l-0.11,0.131l-0.063,0.071l-0.126,0.019
			l-0.909,0.128c-0.301,0.048-0.61,0.073-0.9,0.133l-0.883,0.158l-0.221,0.039c-0.031,0.007-0.085,0.016-0.098,0.02l-0.111,0.03
			l-0.441,0.123l-0.022,0.006l-0.421,0.119l-0.189,0.054l-0.216,0.091l-0.42,0.174l-0.427,0.193
			c-0.144,0.063-0.288,0.127-0.409,0.204l-0.383,0.22c-0.13,0.066-0.251,0.164-0.376,0.246l-0.373,0.259
			c-0.235,0.194-0.487,0.365-0.714,0.572c-0.234,0.199-0.466,0.399-0.691,0.614c-0.454,0.42-0.899,0.86-1.354,1.294l-0.022,0.021
			l-0.015,0.009l-0.442,0.276l-0.083,0.052l-0.082-0.018c-0.091-0.02-0.184-0.041-0.282-0.073c-0.096-0.042-0.212-0.073-0.323-0.224
			c-0.057-0.075-0.069-0.179-0.066-0.254c0.015-0.094,0.016-0.093,0.032-0.154c0.032-0.109,0.055-0.169,0.048-0.198
			c0-0.007,0.001-0.015,0.003-0.022c0.004,0.01-0.008-0.025,0.009,0.021l-0.001-0.004l-0.003-0.007l-0.007-0.015l-0.011-0.03
			c-0.017-0.037-0.031-0.083-0.049-0.114c-0.042-0.056-0.061-0.104-0.115-0.173c-0.048-0.064-0.095-0.13-0.148-0.196l-0.078-0.098
			l-0.092-0.122l-0.077-0.102l-0.039-0.052l-0.009-0.012l-0.005-0.007l-0.002-0.002l-0.002-0.002l-0.015-0.028l-0.012-0.03
			c-0.039-0.114-0.05-0.188-0.068-0.281c-0.03-0.18-0.045-0.359-0.04-0.542c0.005-0.182,0.03-0.367,0.092-0.547
			c0.032-0.09,0.076-0.178,0.128-0.26c0.055-0.082,0.125-0.154,0.199-0.219l0.108-0.093l0.088,0.129
			c0.025,0.037,0.067,0.093,0.115,0.129c0.044,0.044,0.1,0.073,0.153,0.103c0.058,0.022,0.112,0.053,0.178,0.059
			c0.061,0.018,0.124,0.021,0.189,0.018c0.027,0,0.078,0.002,0.085,0l0.106-0.023l0.214-0.046L195.827,22l-0.041,0.039
			c0.066-0.083,0.127-0.174,0.199-0.251c0.081-0.067,0.156-0.146,0.243-0.202c0.173-0.117,0.356-0.209,0.54-0.289l0.547-0.23
			c0.181-0.074,0.354-0.16,0.526-0.248l0.009-0.004l0.001-0.001l0.539-0.204l0.544-0.175l1.087-0.349l-0.007,0.003
			c1.319-0.574,2.632-1.155,3.943-1.746l-0.055,0.137c-0.095-0.219-0.196-0.435-0.41-0.602L203.835,17.573L203.835,17.573z
			 M204.129,18.493l-0.091,0.039c-1.322,0.561-2.643,1.129-3.954,1.715l-0.003,0.001l-0.003,0.001l-1.083,0.36l-0.542,0.181
			l-0.525,0.206l0.01-0.005c-0.179,0.094-0.358,0.186-0.542,0.263l-0.542,0.234c-0.178,0.079-0.347,0.168-0.5,0.273
			c-0.078,0.051-0.138,0.12-0.209,0.178c-0.061,0.068-0.11,0.144-0.167,0.215l-0.026,0.033l-0.015,0.007l-0.427,0.199l-0.212,0.05
			l-0.106,0.024c-0.064,0.013-0.087,0.005-0.133,0.01c-0.082,0.004-0.163,0-0.244-0.02c-0.082-0.009-0.16-0.043-0.237-0.073
			c-0.074-0.038-0.148-0.078-0.211-0.135c-0.033-0.026-0.063-0.056-0.091-0.087c-0.031-0.032-0.053-0.063-0.083-0.108l0.195,0.037
			c-0.051,0.049-0.097,0.103-0.135,0.164c-0.036,0.063-0.065,0.13-0.087,0.202c-0.042,0.144-0.056,0.301-0.053,0.459
			c0.004,0.158,0.025,0.318,0.059,0.475c0.017,0.072,0.042,0.165,0.06,0.212l0.013,0.029c0.013,0.023-0.018-0.032-0.013-0.026v0.001
			l0.001,0.001l0.002,0.004l0.004,0.006l0.01,0.013l0.041,0.049l0.082,0.098c0.021,0.024,0.07,0.087,0.066,0.078l0.087,0.098
			c0.058,0.063,0.114,0.134,0.17,0.203c0.055,0.063,0.118,0.165,0.173,0.248c0.024,0.042,0.038,0.078,0.057,0.118l0.013,0.028
			l0.007,0.015l0.004,0.007l0.001,0.003c0.018,0.05,0.005,0.018,0.008,0.03l0.013,0.104c0.013,0.142-0.031,0.248-0.042,0.3
			c-0.009,0.021-0.019,0.107-0.02,0.096c0.005,0.009-0.002-0.004-0.002-0.012c-0.01-0.009,0.043,0.024,0.103,0.041
			c0.065,0.019,0.14,0.031,0.216,0.044l-0.165,0.035l0.42-0.294l-0.036,0.03c0.43-0.452,0.851-0.913,1.296-1.362
			c0.218-0.229,0.449-0.447,0.681-0.666c0.227-0.223,0.482-0.422,0.726-0.63c0.127-0.1,0.261-0.19,0.391-0.287
			c0.133-0.092,0.255-0.194,0.402-0.275l0.426-0.257c0.143-0.092,0.284-0.158,0.424-0.225l0.423-0.203
			c0.169-0.08,0.293-0.131,0.443-0.195l0.216-0.09c0.119-0.044,0.171-0.051,0.259-0.078l0.483-0.133l-0.021,0.005l0.441-0.121
			l0.111-0.03c0.061-0.017,0.083-0.017,0.127-0.024l0.231-0.041l0.926-0.163c0.311-0.063,0.611-0.089,0.918-0.121l0.914-0.098
			l-0.188,0.092c0.013-0.018,0.025-0.031,0.04-0.045c0.018-0.016,0.007-0.017,0.018-0.021c0.002-0.009-0.014,0.053,0.007,0.062
			l-0.008-0.057l-0.002-0.015l-0.001-0.007v-0.004l-0.001-0.001v-0.001l0.012,0.049L205.138,20
			c-0.007-0.008-0.009-0.016-0.011-0.027l-0.051-0.058c-0.028-0.038-0.095-0.089-0.139-0.133l-0.179-0.155
			c-0.063-0.06-0.124-0.109-0.188-0.188l-0.092-0.111l-0.081-0.144c-0.028-0.045-0.051-0.099-0.061-0.162
			c-0.014-0.062-0.024-0.122-0.033-0.182l0.026,0.109l-0.119-0.287c-0.016-0.053-0.049-0.112-0.084-0.171L204.129,18.493z
			 M194.359,24.024c0,0,0.111-0.013,0.301-0.046c0.19-0.034,0.458-0.091,0.771-0.181c1.289-0.816,3.168-1.141,4.357-2.297
			c-1.766,0.562-2.841,1.953-4.389,2.773c-0.357,0.195-0.566,0.329-0.604,0.309c-0.165-0.091-0.495-0.607-0.495-0.607"/>
		<path style="fill:#B31116;" d="M192.157,19.308c0,0-1.75-3.229-1.586-3.819c0.162-0.592,1.71-3.101,2.669-3.372
			c0.959-0.271,1.656-0.157,2.515,0.295c0.859,0.45,4.876,2.265,6.229,3.343c1.354,1.078,2.082,2.587,2.209,2.782
			c0,0-0.277,0.15-0.718,0.384c-0.986,0.136-1.876,0.481-2.692,0.946c-0.164,0.093-0.324,0.19-0.481,0.292
			c-0.151,0.138-0.312,0.268-0.479,0.388c-0.167,0.122-0.342,0.236-0.521,0.345c-1.269,0.585-2.213,1.042-3.487,1.578
			c-0.304,0.094-0.565,0.162-0.767,0.202c-0.202,0.04-0.346,0.052-0.42,0.03c-0.296-0.081-0.383-0.328-0.314-0.715
			c0.071-0.385-0.027-0.787-0.264-1.411c-0.236-0.623-0.907-1.614-1.151-1.656C192.653,18.877,192.156,19.308,192.157,19.308
			L192.157,19.308z"/>
		<path style="fill:#800000;" d="M198.813,21.146c0.201-0.119,0.359-0.208,0.518-0.321c0.16-0.113,0.32-0.253,0.522-0.473
			c0.152-0.137,0.296-0.276,0.439-0.411c0.719-0.677,1.416-1.272,2.405-1.531c0.27-0.122,0.521-0.233,0.719-0.296
			c0.2-0.063,0.345-0.078,0.407-0.009c0.107,0.124,0.1,0.257,0.017,0.388c-0.08,0.132-0.233,0.262-0.418,0.379
			c-0.86,0.419-1.737,0.842-2.62,1.296c-0.176,0.091-0.354,0.183-0.533,0.273c-0.175,0.063-0.381,0.151-0.582,0.247
			c-0.201,0.098-0.396,0.202-0.553,0.299L198.813,21.146L198.813,21.146z M195.754,12.41c0,0-1.283,0.266-1.394,0.769
			c-0.111,0.503-0.182,0.888-0.139,1.573c0.042,0.687,0.583,3.6,0.583,3.6s-0.21,0.164-0.259-0.004
			c-0.05-0.169-0.27-1.089-0.553-2.011c-0.285-0.921-0.477-3.408,0.055-3.809c0.587-0.442,1.09-0.398,1.09-0.398L195.754,12.41
			L195.754,12.41z"/>
		<path style="fill:#B82025;" d="M192.125,13.296c0,0,0.728-0.352,0.929,0.063c0.2,0.417,0.066,1.668-0.378,2.075
			c-0.445,0.407-1.598,1.507-1.764,1.298c-0.087-0.111-0.244-0.604-0.334-0.981c-0.08-0.317,0.132-0.605,0.197-0.721
			C190.893,14.822,192.125,13.296,192.125,13.296z"/>
		<path style="fill:#800000;" d="M194.314,21.985c0,0,0.315-0.343,0.537-0.547c0.223-0.203,0.786-0.765,1.124-0.927
			c0.339-0.165,2.032-1.529,2.077-1.604c0.08-0.135,0.175-0.31-0.262-0.018c-0.409,0.271-0.569,0.414-1.012,0.691
			c-0.443,0.278-0.924,0.594-1.243,0.797l-0.443,0.277c0,0,0.115-0.321,0.165-0.455c0.154-0.411,0.219-0.828,0.154-1.31
			c-0.025-0.199-0.504-0.333-0.559-0.179c-0.054,0.155-0.777,1.049-0.64,1.399c0.061,0.152-0.132,0.593,0.005,0.942
			C194.436,21.607,194.313,21.985,194.314,21.985L194.314,21.985z"/>
		
			<radialGradient id="SVGID_7_" cx="223.5605" cy="132.6836" r="1.5321" gradientTransform="matrix(0.901 -0.434 -0.434 -0.901 49.6312 235.9236)" gradientUnits="userSpaceOnUse">
			<stop  offset="0" style="stop-color:#F2F2F2"/>
			<stop  offset="1" style="stop-color:#B3B3B3"/>
		</radialGradient>
		<path style="fill:url(#SVGID_7_);stroke:#B3B3B3;stroke-width:2;stroke-miterlimit:10;" d="M192.006,19.99
			c-0.39-0.838-0.049-1.676,0.712-2.043s1.786-0.188,2.024,0.706c0.219,0.818,0.067,1.684-0.694,2.051
			C193.286,21.071,192.36,20.757,192.006,19.99L192.006,19.99z"/>
		
			<linearGradient id="SVGID_8_" gradientUnits="userSpaceOnUse" x1="224.7695" y1="134.5313" x2="231.9004" y2="134.5313" gradientTransform="matrix(0.901 -0.434 -0.434 -0.901 49.6312 235.9236)">
			<stop  offset="0" style="stop-color:#F2F2F2"/>
			<stop  offset="1" style="stop-color:#B3B3B3"/>
		</linearGradient>
		<path style="opacity:0.3;fill:url(#SVGID_8_);enable-background:new    ;" d="M195.292,20.489c0,0,1.777-1.008,3.261-2.143
			c1.095-0.838,1.911-1.556,2.122-2.251c0.128-0.426-0.213-1.307-0.213-1.307l-4.707-2.379c0,0-1.336-0.047-1.615,0.907
			C193.814,14.437,195.292,20.489,195.292,20.489z"/>
	</g>
	<g>
		<circle style="fill:#3B5998;" cx="39.841" cy="33.52" r="13.859"/>
		<path style="fill:#344F87;" d="M28.762,41.845c2.529,3.36,6.551,5.534,11.08,5.534c7.653,0,13.859-6.205,13.859-13.859
			c0-3.28-1.142-6.293-3.048-8.666L28.762,41.845L28.762,41.845z"/>
		<path style="fill:#FFFFFF;" d="M45.039,47.379V36.984h3.465l0.866-4.331h-4.331v-1.732c0-1.732,0.868-2.599,2.599-2.599h1.732
			v-4.331h-3.464c-3.184,0-5.197,2.496-5.197,6.063v2.599h-3.465v4.331h3.465v10.395H45.039z"/>
		<path style="fill:#F2F2F2;" d="M37.122,18.43c0,0,0.34,0.181,0.531,0.377c0.095,0.099,0.229,0.395,0.355,0.674
			c0.02,0.472,0.747,0.731,0.858,1.076c0.038,0.114,0.006,0.238-0.143,0.381c-1.026,0.133-2.075,0.225-3.043,0.457
			c-0.194,0.047-0.385,0.1-0.573,0.158c-0.226,0.048-0.442,0.109-0.653,0.182c-0.211,0.073-0.415,0.159-0.613,0.257
			c-2.059,0.843-3.369,2.348-4.807,3.781c-0.143,0.096-0.286,0.19-0.432,0.285c-0.417-0.07-0.501-0.182-0.495-0.313
			c0.008-0.131,0.108-0.284,0.065-0.44c-0.054-0.194-0.283-0.469-0.463-0.679c-0.107-0.125-0.196-0.226-0.219-0.274
			c-0.063-0.131-0.347-1.244,0.223-1.711c0,0,0.24,0.425,0.845,0.364c0.202-0.021,0.443-0.096,0.73-0.259
			c0.391-0.645,1.214-0.75,2.008-1.191c0.171-0.07,0.343-0.136,0.518-0.2c0.522-0.188,1.065-0.352,1.641-0.536
			c0.2-0.088,0.397-0.176,0.595-0.263c0.986-0.438,1.958-0.881,3.076-1.347c0.172-0.075,0.279-0.121,0.279-0.121l-0.285-0.656
			L37.122,18.43z"/>
		<path style="fill:#CCCCCC;" d="M37.243,18.223c0.104,0.056,0.206,0.103,0.321,0.19l0.168,0.121l0.083,0.063l0.021,0.016
			l0.01,0.008l0.028,0.035l0.001,0.001l0.002,0.005l0.024,0.037c0.064,0.104,0.133,0.184,0.192,0.309l0.182,0.353l0.026,0.109
			c0.027,0.03,0.002,0.054,0.041,0.092c0.013,0.018,0.025,0.036,0.035,0.055l0.06,0.061c0.034,0.041,0.094,0.085,0.144,0.13
			l0.173,0.14c0.067,0.061,0.127,0.101,0.199,0.179l0.103,0.112c0.036,0.055,0.07,0.115,0.099,0.175l0.021,0.045l0.018,0.077
			l0.01,0.057c0.007,0.082-0.01,0.226-0.041,0.285c-0.028,0.06-0.063,0.136-0.098,0.176l-0.111,0.13l-0.063,0.072l-0.126,0.018
			l-0.908,0.129c-0.301,0.047-0.611,0.072-0.901,0.133l-0.882,0.158l-0.221,0.038c-0.031,0.007-0.085,0.016-0.099,0.02l-0.11,0.03
			l-0.441,0.123l-0.022,0.006l-0.421,0.119l-0.189,0.054l-0.216,0.091l-0.42,0.174l-0.427,0.193
			c-0.143,0.063-0.288,0.127-0.409,0.204l-0.382,0.22c-0.13,0.066-0.251,0.164-0.377,0.246l-0.373,0.259
			c-0.234,0.194-0.486,0.365-0.714,0.572c-0.233,0.199-0.466,0.4-0.69,0.615c-0.454,0.42-0.899,0.86-1.354,1.293l-0.022,0.021
			l-0.015,0.009l-0.442,0.276l-0.083,0.052l-0.083-0.018c-0.091-0.02-0.184-0.04-0.281-0.073c-0.097-0.042-0.213-0.073-0.324-0.224
			c-0.056-0.075-0.071-0.179-0.067-0.254c0.015-0.094,0.017-0.093,0.032-0.154c0.032-0.109,0.054-0.169,0.048-0.197
			c0-0.008,0.001-0.016,0.003-0.023c0.003,0.01-0.008-0.024,0.009,0.021l-0.001-0.004l-0.003-0.007l-0.006-0.015l-0.011-0.029
			c-0.017-0.038-0.031-0.084-0.049-0.114c-0.042-0.057-0.061-0.105-0.115-0.174c-0.047-0.064-0.094-0.13-0.148-0.195l-0.078-0.099
			l-0.092-0.122l-0.077-0.102l-0.039-0.051l-0.01-0.013l-0.004-0.007l-0.003-0.002l-0.001-0.002L27.33,24.42l-0.012-0.03
			c-0.039-0.114-0.05-0.188-0.068-0.281c-0.031-0.18-0.045-0.358-0.041-0.541c0.005-0.183,0.031-0.367,0.093-0.548
			c0.032-0.09,0.075-0.178,0.128-0.26c0.055-0.082,0.124-0.153,0.199-0.219l0.108-0.093l0.088,0.13
			c0.025,0.036,0.068,0.092,0.115,0.129c0.045,0.043,0.1,0.072,0.154,0.102c0.057,0.022,0.112,0.053,0.177,0.059
			c0.061,0.018,0.125,0.021,0.19,0.018c0.027,0,0.078,0.002,0.085,0l0.106-0.023l0.213-0.046l0.366-0.166l-0.041,0.039
			c0.066-0.083,0.127-0.174,0.199-0.251c0.081-0.067,0.156-0.146,0.243-0.201c0.174-0.117,0.356-0.21,0.54-0.29l0.549-0.23
			c0.181-0.074,0.354-0.16,0.526-0.248l0.009-0.004l0.001-0.001l0.54-0.204l0.543-0.175l1.087-0.349l-0.007,0.003
			c1.319-0.574,2.632-1.155,3.943-1.745l-0.054,0.137c-0.095-0.22-0.196-0.436-0.411-0.603L37.243,18.223L37.243,18.223z
			 M37.538,19.143l-0.091,0.039c-1.323,0.562-2.644,1.129-3.954,1.715l-0.003,0.001l-0.003,0.002l-1.083,0.36l-0.541,0.18
			l-0.526,0.206l0.01-0.005c-0.179,0.094-0.358,0.186-0.542,0.264l-0.543,0.233c-0.178,0.08-0.347,0.168-0.5,0.273
			c-0.079,0.051-0.138,0.12-0.21,0.178c-0.061,0.068-0.109,0.145-0.166,0.215l-0.026,0.033l-0.015,0.007l-0.427,0.199l-0.212,0.051
			L28.6,23.118c-0.064,0.012-0.087,0.004-0.133,0.009c-0.082,0.004-0.162,0.001-0.243-0.019c-0.082-0.009-0.161-0.044-0.238-0.074
			c-0.074-0.038-0.148-0.077-0.211-0.135c-0.034-0.026-0.063-0.056-0.091-0.087c-0.03-0.032-0.054-0.062-0.083-0.107l0.195,0.036
			c-0.052,0.049-0.098,0.103-0.135,0.164c-0.036,0.063-0.065,0.13-0.087,0.202c-0.042,0.145-0.056,0.302-0.053,0.459
			c0.004,0.159,0.025,0.318,0.059,0.476c0.017,0.071,0.042,0.164,0.06,0.211l0.013,0.029c0.012,0.024-0.017-0.032-0.014-0.025l0,0
			l0.002,0.002l0.002,0.003l0.005,0.007l0.01,0.012l0.041,0.049l0.082,0.099c0.021,0.023,0.07,0.086,0.066,0.077l0.087,0.098
			c0.058,0.063,0.113,0.135,0.17,0.204c0.055,0.062,0.118,0.164,0.173,0.247c0.025,0.043,0.038,0.078,0.057,0.118l0.013,0.028
			l0.007,0.015l0.004,0.007l0.001,0.003c0.018,0.05,0.005,0.018,0.008,0.031l0.013,0.103c0.013,0.142-0.031,0.248-0.042,0.301
			c-0.009,0.021-0.019,0.106-0.02,0.096c0.005,0.008-0.002-0.005-0.002-0.013c-0.01-0.009,0.043,0.025,0.103,0.041
			c0.066,0.019,0.14,0.031,0.216,0.044l-0.165,0.035l0.421-0.294l-0.036,0.03c0.43-0.452,0.852-0.912,1.297-1.362
			c0.218-0.229,0.449-0.447,0.682-0.666c0.228-0.223,0.481-0.422,0.725-0.63c0.127-0.1,0.26-0.19,0.39-0.286
			c0.134-0.093,0.255-0.195,0.402-0.276l0.426-0.257c0.143-0.092,0.284-0.158,0.424-0.225l0.423-0.203
			c0.169-0.079,0.294-0.13,0.443-0.195l0.217-0.089c0.118-0.045,0.171-0.052,0.26-0.079l0.482-0.133l-0.021,0.006l0.442-0.122
			l0.111-0.03c0.061-0.016,0.083-0.016,0.126-0.024l0.231-0.041l0.927-0.163c0.311-0.062,0.611-0.089,0.917-0.121l0.915-0.098
			l-0.189,0.092c0.013-0.017,0.026-0.03,0.041-0.045c0.018-0.016,0.006-0.017,0.017-0.021c0.003-0.009-0.013,0.053,0.007,0.062
			l-0.009-0.056l-0.002-0.016l0-0.007v-0.006c0.023,0.098,0.006,0.027,0.011,0.049l-0.006-0.006
			c-0.007-0.008-0.009-0.016-0.011-0.027l-0.051-0.058c-0.028-0.037-0.094-0.089-0.139-0.133l-0.179-0.154
			c-0.063-0.061-0.124-0.11-0.188-0.189l-0.092-0.111l-0.082-0.144c-0.028-0.045-0.049-0.099-0.06-0.162
			c-0.014-0.061-0.025-0.121-0.033-0.181l0.026,0.108l-0.12-0.287c-0.017-0.052-0.05-0.112-0.085-0.17L37.538,19.143z
			 M27.768,24.674c0,0,0.111-0.013,0.302-0.046c0.189-0.034,0.458-0.091,0.771-0.181c1.289-0.816,3.168-1.141,4.357-2.297
			c-1.766,0.562-2.841,1.953-4.388,2.773c-0.357,0.195-0.566,0.329-0.604,0.31c-0.165-0.092-0.495-0.608-0.495-0.608"/>
		<path style="fill:#B31116;" d="M25.565,19.957c0,0-1.75-3.229-1.586-3.819c0.162-0.592,1.71-3.101,2.669-3.371
			c0.959-0.271,1.656-0.158,2.515,0.295c0.859,0.449,4.876,2.264,6.229,3.342c1.354,1.078,2.082,2.587,2.209,2.782
			c0,0-0.276,0.15-0.717,0.384c-0.987,0.136-1.876,0.481-2.692,0.946c-0.164,0.094-0.324,0.19-0.481,0.292
			c-0.151,0.138-0.312,0.268-0.479,0.388c-0.168,0.122-0.342,0.236-0.522,0.346c-1.269,0.585-2.213,1.041-3.487,1.578
			c-0.304,0.093-0.565,0.161-0.767,0.201c-0.202,0.04-0.346,0.052-0.42,0.03c-0.296-0.081-0.383-0.328-0.314-0.715
			c0.071-0.385-0.027-0.787-0.264-1.41s-0.907-1.615-1.151-1.657C26.061,19.526,25.564,19.958,25.565,19.957L25.565,19.957z"/>
		<path style="fill:#800000;" d="M32.22,21.795c0.201-0.119,0.359-0.208,0.518-0.32c0.16-0.113,0.32-0.253,0.522-0.474
			c0.152-0.137,0.296-0.275,0.44-0.411c0.719-0.676,1.416-1.272,2.405-1.531c0.27-0.122,0.521-0.233,0.719-0.295
			c0.2-0.063,0.345-0.079,0.407-0.01c0.107,0.124,0.1,0.257,0.017,0.389c-0.08,0.131-0.234,0.262-0.417,0.378
			c-0.86,0.419-1.738,0.842-2.62,1.296c-0.176,0.091-0.354,0.183-0.533,0.273c-0.174,0.063-0.381,0.151-0.581,0.247
			c-0.201,0.098-0.396,0.202-0.552,0.299l-0.324,0.161L32.22,21.795z M29.163,13.061c0,0-1.283,0.266-1.393,0.769
			c-0.111,0.502-0.182,0.888-0.139,1.572c0.042,0.687,0.583,3.6,0.583,3.6s-0.21,0.164-0.259-0.004
			c-0.049-0.169-0.27-1.089-0.553-2.01c-0.285-0.921-0.477-3.409,0.054-3.81c0.587-0.442,1.091-0.398,1.091-0.398L29.163,13.061
			L29.163,13.061z"/>
		<path style="fill:#B82025;" d="M25.534,13.945c0,0,0.728-0.351,0.929,0.064c0.2,0.416,0.066,1.667-0.378,2.074
			c-0.445,0.407-1.598,1.507-1.764,1.298c-0.088-0.11-0.245-0.604-0.335-0.981c-0.078-0.317,0.134-0.605,0.198-0.721
			C24.301,15.473,25.534,13.945,25.534,13.945z"/>
		<path style="fill:#800000;" d="M27.722,22.635c0,0,0.315-0.343,0.537-0.547c0.223-0.203,0.786-0.765,1.124-0.927
			c0.339-0.164,2.032-1.529,2.077-1.604c0.081-0.134,0.176-0.31-0.261-0.017c-0.409,0.271-0.569,0.413-1.012,0.691
			c-0.443,0.278-0.924,0.593-1.243,0.797L28.5,21.306c0,0,0.115-0.321,0.165-0.454c0.154-0.412,0.219-0.828,0.154-1.311
			c-0.027-0.199-0.505-0.333-0.559-0.178c-0.054,0.154-0.777,1.048-0.641,1.398c0.061,0.152-0.131,0.594,0.005,0.942
			C27.844,22.257,27.722,22.635,27.722,22.635L27.722,22.635z"/>
		
			<radialGradient id="SVGID_9_" cx="72.4336" cy="205.0195" r="1.5328" gradientTransform="matrix(0.901 -0.434 -0.434 -0.901 50.5999 236.1619)" gradientUnits="userSpaceOnUse">
			<stop  offset="0" style="stop-color:#F2F2F2"/>
			<stop  offset="1" style="stop-color:#B3B3B3"/>
		</radialGradient>
		<path style="fill:url(#SVGID_9_);stroke:#B3B3B3;stroke-width:2;stroke-miterlimit:10;" d="M25.413,20.641
			c-0.39-0.839-0.049-1.677,0.713-2.044c0.761-0.367,1.786-0.188,2.024,0.706c0.22,0.818,0.068,1.685-0.693,2.051
			C26.694,21.721,25.769,21.406,25.413,20.641z"/>
		
			<linearGradient id="SVGID_10_" gradientUnits="userSpaceOnUse" x1="73.6416" y1="206.8691" x2="80.7734" y2="206.8691" gradientTransform="matrix(0.901 -0.434 -0.434 -0.901 50.5999 236.1619)">
			<stop  offset="0" style="stop-color:#F2F2F2"/>
			<stop  offset="1" style="stop-color:#B3B3B3"/>
		</linearGradient>
		<path style="opacity:0.3;fill:url(#SVGID_10_);enable-background:new    ;" d="M28.699,21.139c0,0,1.777-1.007,3.261-2.143
			c1.095-0.837,1.912-1.556,2.122-2.25c0.129-0.426-0.213-1.308-0.213-1.308l-4.707-2.378c0,0-1.336-0.048-1.615,0.906
			C27.223,15.086,28.699,21.139,28.699,21.139L28.699,21.139z"/>
	</g>
	<g>
		<circle style="fill:#E02F2F;" cx="261.501" cy="33.52" r="13.859"/>
		<path style="fill:#C72A2A;" d="M250.422,41.845c2.529,3.361,6.55,5.534,11.078,5.534c7.654,0,13.859-6.205,13.859-13.859
			c0-3.28-1.143-6.293-3.048-8.666L250.422,41.845L250.422,41.845z"/>
		<path style="fill:#FFFFFF;" d="M264.1,24.856h-5.34c-2.442,0-4.741,1.713-4.741,3.856c0,2.189,1.664,3.893,4.149,3.893
			c0.173,0,0.341-0.039,0.506-0.052c-0.163,0.308-0.276,0.64-0.276,1.001c0,0.608,0.327,1.094,0.74,1.497
			c-0.311,0-0.614,0.005-0.945,0.005c-3.024,0.001-5.354,1.926-5.354,3.923c0,1.97,2.553,3.202,5.579,3.202
			c3.449,0,5.355-1.959,5.355-3.928c0-1.577-0.467-2.523-1.905-3.543c-0.493-0.348-1.435-1.195-1.435-1.694
			c0-0.584,0.166-0.871,1.046-1.559c0.899-0.704,1.539-1.543,1.539-2.695c0-1.37-0.59-3.041-1.735-3.041h1.949L264.1,24.856
			L264.1,24.856z M262.307,37.912c0.041,0.184,0.065,0.372,0.065,0.562c0,1.591-1.025,2.834-3.967,2.834
			c-2.091,0-3.602-1.323-3.602-2.915c0-1.557,1.874-2.855,3.967-2.832c0.486,0.006,0.942,0.084,1.354,0.216
			C261.261,36.566,262.075,37.014,262.307,37.912z M258.955,31.979c-1.404-0.04-2.738-1.569-2.979-3.411
			c-0.242-1.845,0.699-3.258,2.103-3.216c1.403,0.044,2.738,1.523,2.98,3.365C261.303,30.562,260.36,32.021,258.955,31.979
			L258.955,31.979z M268.43,31.779v-2.599h-1.732v2.599h-2.599v1.732h2.599v2.599h1.732v-2.599h2.598v-1.732H268.43z"/>
		<path style="fill:#F2F2F2;" d="M258.648,18.43c0,0,0.34,0.181,0.531,0.377c0.095,0.099,0.229,0.395,0.355,0.674
			c0.02,0.472,0.746,0.731,0.856,1.076c0.038,0.114,0.007,0.238-0.143,0.381c-1.026,0.133-2.074,0.225-3.043,0.457
			c-0.193,0.047-0.386,0.1-0.573,0.158c-0.225,0.048-0.441,0.109-0.653,0.182c-0.211,0.073-0.414,0.159-0.613,0.257
			c-2.059,0.843-3.369,2.348-4.807,3.781c-0.143,0.096-0.286,0.19-0.432,0.285c-0.418-0.07-0.502-0.182-0.495-0.313
			c0.008-0.131,0.107-0.284,0.065-0.44c-0.054-0.194-0.283-0.468-0.464-0.679c-0.106-0.125-0.195-0.226-0.218-0.274
			c-0.063-0.131-0.347-1.243,0.223-1.711c0,0,0.24,0.425,0.845,0.364c0.202-0.021,0.443-0.096,0.731-0.259
			c0.391-0.644,1.214-0.75,2.007-1.191c0.172-0.07,0.344-0.135,0.519-0.2c0.522-0.188,1.065-0.352,1.642-0.536
			c0.2-0.087,0.396-0.176,0.594-0.263c0.985-0.438,1.958-0.88,3.076-1.347c0.172-0.075,0.279-0.121,0.279-0.121l-0.285-0.656
			L258.648,18.43z"/>
		<path style="fill:#CCCCCC;" d="M258.77,18.223c0.104,0.056,0.206,0.103,0.32,0.19l0.168,0.121l0.084,0.063l0.02,0.016l0.01,0.008
			l0.028,0.035l0.001,0.002l0.004,0.004l0.024,0.037c0.064,0.104,0.134,0.184,0.192,0.309l0.182,0.353l0.026,0.109
			c0.025,0.03,0.002,0.054,0.04,0.092c0.014,0.018,0.024,0.036,0.035,0.055l0.061,0.061c0.034,0.041,0.095,0.085,0.143,0.13
			l0.175,0.141c0.066,0.061,0.127,0.1,0.198,0.178l0.104,0.113c0.034,0.054,0.069,0.114,0.098,0.174l0.021,0.045l0.017,0.078
			l0.011,0.057c0.007,0.082-0.011,0.225-0.042,0.284c-0.028,0.06-0.063,0.136-0.098,0.176l-0.111,0.13l-0.062,0.072l-0.127,0.018
			l-0.909,0.129c-0.3,0.047-0.61,0.072-0.9,0.133l-0.882,0.158l-0.222,0.039c-0.03,0.006-0.084,0.015-0.098,0.019l-0.11,0.031
			l-0.442,0.122l-0.022,0.006l-0.422,0.119l-0.189,0.054l-0.216,0.091l-0.421,0.174l-0.427,0.193
			c-0.145,0.063-0.289,0.127-0.409,0.205l-0.383,0.219c-0.131,0.066-0.251,0.164-0.377,0.246l-0.373,0.26
			c-0.234,0.193-0.486,0.364-0.715,0.571c-0.233,0.199-0.466,0.4-0.69,0.615c-0.453,0.42-0.898,0.86-1.354,1.293l-0.021,0.021
			l-0.015,0.009l-0.441,0.276l-0.083,0.052l-0.082-0.018c-0.091-0.02-0.184-0.04-0.281-0.073c-0.097-0.042-0.213-0.072-0.323-0.224
			c-0.057-0.075-0.07-0.178-0.067-0.254c0.016-0.094,0.017-0.093,0.032-0.154c0.032-0.109,0.055-0.168,0.048-0.197
			c0-0.008,0.002-0.015,0.004-0.023c0.004,0.01-0.008-0.024,0.008,0.021V25.38l-0.004-0.008l-0.006-0.015l-0.012-0.029
			c-0.017-0.038-0.03-0.084-0.049-0.114c-0.042-0.057-0.061-0.105-0.115-0.174c-0.048-0.064-0.094-0.13-0.147-0.195l-0.078-0.098
			l-0.093-0.123l-0.076-0.102l-0.039-0.051l-0.009-0.012l-0.005-0.007l-0.003-0.003l-0.001-0.002l-0.016-0.028l-0.012-0.03
			c-0.038-0.114-0.049-0.188-0.067-0.281c-0.03-0.18-0.046-0.358-0.04-0.541c0.005-0.183,0.03-0.367,0.093-0.548
			c0.032-0.09,0.075-0.178,0.128-0.26c0.056-0.082,0.124-0.153,0.199-0.219l0.108-0.092l0.088,0.129
			c0.025,0.036,0.067,0.093,0.114,0.129c0.045,0.043,0.1,0.072,0.154,0.103c0.058,0.021,0.112,0.052,0.178,0.058
			c0.06,0.018,0.124,0.021,0.189,0.018c0.026,0,0.077,0.002,0.084,0l0.106-0.023l0.214-0.045l0.366-0.167l-0.041,0.039
			c0.066-0.083,0.128-0.173,0.199-0.251c0.082-0.067,0.156-0.146,0.244-0.201c0.173-0.117,0.355-0.21,0.539-0.289l0.551-0.231
			c0.181-0.074,0.354-0.16,0.525-0.248l0.009-0.004l0.002-0.001l0.539-0.204l0.543-0.175l1.088-0.348l-0.007,0.002
			c1.318-0.574,2.632-1.155,3.942-1.745l-0.055,0.137c-0.095-0.22-0.196-0.436-0.41-0.603L258.77,18.223L258.77,18.223z
			 M259.064,19.144l-0.092,0.038c-1.322,0.562-2.643,1.129-3.954,1.715l-0.003,0.001l-0.003,0.002l-1.083,0.36l-0.542,0.18
			l-0.524,0.207l0.01-0.006c-0.179,0.095-0.358,0.186-0.541,0.264l-0.543,0.233c-0.178,0.08-0.347,0.168-0.5,0.273
			c-0.078,0.051-0.139,0.121-0.209,0.178c-0.061,0.068-0.109,0.145-0.166,0.215l-0.026,0.033l-0.015,0.007l-0.428,0.2l-0.212,0.05
			l-0.107,0.024c-0.063,0.012-0.086,0.005-0.133,0.009c-0.081,0.005-0.162,0.001-0.243-0.019c-0.082-0.009-0.159-0.043-0.237-0.074
			c-0.074-0.038-0.148-0.077-0.211-0.135c-0.033-0.026-0.063-0.056-0.092-0.086c-0.03-0.032-0.053-0.063-0.083-0.108l0.195,0.036
			c-0.051,0.05-0.097,0.103-0.135,0.164c-0.035,0.063-0.065,0.13-0.087,0.202c-0.043,0.145-0.056,0.302-0.053,0.459
			c0.004,0.159,0.025,0.318,0.06,0.476c0.017,0.071,0.041,0.164,0.06,0.211l0.013,0.029c0.014,0.024-0.017-0.031-0.013-0.025v0.001
			l0.001,0.001l0.003,0.003l0.004,0.007l0.011,0.012l0.041,0.049l0.082,0.099c0.021,0.023,0.069,0.086,0.066,0.077l0.087,0.098
			c0.058,0.063,0.113,0.135,0.17,0.204c0.056,0.062,0.118,0.165,0.173,0.247c0.024,0.043,0.038,0.078,0.058,0.118l0.013,0.028
			l0.008,0.015l0.003,0.007l0.002,0.003c0.018,0.05,0.005,0.019,0.009,0.031l0.013,0.103c0.014,0.142-0.031,0.248-0.042,0.301
			c-0.009,0.021-0.019,0.106-0.02,0.096c0.006,0.008-0.001-0.005-0.001-0.013c-0.011-0.009,0.043,0.025,0.103,0.041
			c0.064,0.019,0.139,0.032,0.216,0.045L250,25.862l0.421-0.294l-0.036,0.03c0.43-0.452,0.852-0.912,1.297-1.362
			c0.218-0.229,0.448-0.447,0.681-0.665c0.228-0.224,0.482-0.423,0.726-0.631c0.127-0.099,0.261-0.19,0.391-0.286
			c0.134-0.093,0.256-0.195,0.402-0.276l0.426-0.257c0.144-0.092,0.284-0.158,0.425-0.225l0.422-0.203
			c0.169-0.079,0.294-0.13,0.443-0.195l0.217-0.089c0.118-0.045,0.172-0.052,0.26-0.078l0.482-0.134l-0.021,0.006l0.442-0.122
			l0.11-0.03c0.062-0.016,0.084-0.016,0.127-0.024l0.232-0.041l0.925-0.163c0.312-0.062,0.611-0.089,0.919-0.121l0.913-0.098
			l-0.188,0.092c0.013-0.017,0.026-0.03,0.041-0.045c0.018-0.016,0.006-0.017,0.018-0.021c0.002-0.009-0.015,0.053,0.006,0.062
			l-0.008-0.056l-0.002-0.015l-0.001-0.008v-0.003l-0.001-0.002v-0.001l0.012,0.049l-0.006-0.006
			c-0.008-0.008-0.01-0.016-0.011-0.026l-0.052-0.058c-0.028-0.038-0.094-0.09-0.139-0.134l-0.179-0.154
			c-0.063-0.06-0.124-0.11-0.187-0.189l-0.093-0.11l-0.081-0.145c-0.028-0.045-0.05-0.099-0.061-0.162
			c-0.013-0.061-0.024-0.121-0.032-0.181l0.025,0.108l-0.119-0.287c-0.016-0.052-0.048-0.111-0.083-0.17L259.064,19.144z
			 M249.294,24.675c0,0,0.111-0.014,0.301-0.047c0.19-0.034,0.459-0.091,0.772-0.181c1.289-0.816,3.168-1.141,4.356-2.297
			c-1.766,0.562-2.841,1.953-4.389,2.774c-0.356,0.194-0.565,0.328-0.604,0.309c-0.164-0.091-0.495-0.608-0.495-0.608"/>
		<path style="fill:#B31116;" d="M247.092,19.957c0,0-1.751-3.229-1.587-3.819c0.162-0.592,1.71-3.101,2.669-3.371
			c0.96-0.271,1.655-0.158,2.515,0.295c0.859,0.449,4.877,2.264,6.229,3.342c1.354,1.078,2.082,2.587,2.209,2.782
			c0,0-0.276,0.15-0.718,0.384c-0.986,0.137-1.876,0.481-2.692,0.946c-0.163,0.094-0.323,0.19-0.48,0.292
			c-0.151,0.138-0.313,0.268-0.479,0.388c-0.168,0.123-0.343,0.236-0.522,0.346c-1.269,0.585-2.213,1.041-3.486,1.578
			c-0.305,0.093-0.565,0.161-0.768,0.201s-0.346,0.052-0.419,0.03c-0.297-0.081-0.384-0.328-0.314-0.715
			c0.071-0.385-0.027-0.787-0.264-1.41s-0.907-1.614-1.151-1.657C247.588,19.526,247.091,19.958,247.092,19.957L247.092,19.957z"/>
		<path style="fill:#800000;" d="M253.747,21.795c0.2-0.119,0.359-0.208,0.519-0.32c0.159-0.113,0.319-0.253,0.522-0.473
			c0.151-0.138,0.295-0.276,0.439-0.411c0.719-0.677,1.416-1.273,2.404-1.532c0.27-0.122,0.521-0.233,0.719-0.295
			c0.2-0.063,0.346-0.078,0.407-0.009c0.107,0.123,0.1,0.256,0.018,0.388c-0.081,0.131-0.234,0.262-0.418,0.378
			c-0.86,0.42-1.738,0.842-2.62,1.296c-0.177,0.091-0.354,0.183-0.533,0.274c-0.175,0.063-0.381,0.151-0.581,0.246
			c-0.201,0.098-0.397,0.202-0.553,0.299l-0.324,0.161L253.747,21.795z M250.688,13.061c0,0-1.282,0.266-1.393,0.769
			c-0.111,0.502-0.182,0.888-0.139,1.572c0.042,0.687,0.583,3.6,0.583,3.6s-0.21,0.164-0.259-0.003
			c-0.05-0.17-0.27-1.09-0.553-2.011c-0.285-0.921-0.477-3.409,0.054-3.81c0.588-0.442,1.091-0.398,1.091-0.398L250.688,13.061
			L250.688,13.061z"/>
		<path style="fill:#B82025;" d="M247.061,13.945c0,0,0.727-0.351,0.929,0.064c0.2,0.416,0.066,1.667-0.378,2.074
			s-1.598,1.507-1.765,1.298c-0.086-0.11-0.243-0.604-0.333-0.981c-0.08-0.317,0.132-0.605,0.197-0.721
			C245.828,15.473,247.061,13.945,247.061,13.945z"/>
		<path style="fill:#800000;" d="M249.249,22.636c0,0,0.314-0.344,0.537-0.547c0.223-0.204,0.785-0.766,1.123-0.928
			c0.339-0.164,2.032-1.529,2.077-1.604c0.079-0.134,0.175-0.31-0.262-0.017c-0.409,0.271-0.569,0.413-1.013,0.691
			c-0.442,0.278-0.924,0.593-1.243,0.797l-0.443,0.276c0,0,0.115-0.321,0.165-0.454c0.154-0.412,0.219-0.828,0.154-1.31
			c-0.026-0.2-0.504-0.334-0.559-0.179c-0.055,0.154-0.777,1.048-0.64,1.398c0.06,0.152-0.133,0.594,0.005,0.942
			C249.371,22.257,249.248,22.635,249.249,22.636L249.249,22.636z"/>
		
			<radialGradient id="SVGID_11_" cx="271.9971" cy="108.8936" r="1.5325" gradientTransform="matrix(0.901 -0.434 -0.434 -0.901 50.5999 236.1619)" gradientUnits="userSpaceOnUse">
			<stop  offset="0" style="stop-color:#F2F2F2"/>
			<stop  offset="1" style="stop-color:#B3B3B3"/>
		</radialGradient>
		<path style="fill:url(#SVGID_11_);stroke:#B3B3B3;stroke-width:2;stroke-miterlimit:10;" d="M246.94,20.641
			c-0.39-0.839-0.05-1.677,0.712-2.044s1.785-0.188,2.024,0.706c0.22,0.818,0.067,1.685-0.694,2.051
			C248.221,21.721,247.295,21.406,246.94,20.641L246.94,20.641z"/>
		
			<linearGradient id="SVGID_12_" gradientUnits="userSpaceOnUse" x1="273.2061" y1="110.7412" x2="280.3359" y2="110.7412" gradientTransform="matrix(0.901 -0.434 -0.434 -0.901 50.5999 236.1619)">
			<stop  offset="0" style="stop-color:#F2F2F2"/>
			<stop  offset="1" style="stop-color:#B3B3B3"/>
		</linearGradient>
		<path style="opacity:0.3;fill:url(#SVGID_12_);enable-background:new    ;" d="M250.227,21.139c0,0,1.776-1.007,3.261-2.143
			c1.095-0.837,1.911-1.556,2.121-2.25c0.129-0.426-0.213-1.307-0.213-1.307l-4.707-2.379c0,0-1.336-0.048-1.615,0.906
			C248.748,15.086,250.227,21.139,250.227,21.139z"/>
	</g>
	<g>
		<path style="fill:#2C5687;" d="M331.407,32.444c0,7.654-6.206,13.859-13.859,13.859s-13.858-6.205-13.858-13.859
			s6.204-13.859,13.858-13.859S331.407,24.79,331.407,32.444L331.407,32.444z"/>
		<path style="fill:#274C78;" d="M306.469,40.771c2.529,3.359,6.55,5.533,11.078,5.533c7.654,0,13.859-6.205,13.859-13.859
			c0-3.281-1.143-6.293-3.048-8.667L306.469,40.771z"/>
		<path style="fill:#FFFFFF;" d="M311.577,24.362h12.225c1.161,0,2.111,0.949,2.111,2.111v12.226c0,1.162-0.95,2.11-2.111,2.11
			h-12.225c-1.162,0-2.112-0.948-2.112-2.11V26.474C309.465,25.312,310.415,24.362,311.577,24.362z M321.447,26.189
			c-0.407,0-0.741,0.334-0.741,0.741v1.772c0,0.406,0.334,0.74,0.741,0.74h1.858c0.407,0,0.741-0.334,0.741-0.74v-1.772
			c0-0.407-0.334-0.741-0.741-0.741H321.447L321.447,26.189z M324.054,31.317h-1.446c0.137,0.447,0.21,0.921,0.21,1.413
			c0,2.733-2.289,4.952-5.112,4.952s-5.113-2.218-5.113-4.952c0-0.492,0.075-0.966,0.212-1.413h-1.51v6.948
			c0,0.359,0.293,0.652,0.653,0.652H323.4c0.359,0,0.653-0.293,0.653-0.652V31.317L324.054,31.317z M317.705,29.35
			c-1.824,0-3.304,1.433-3.304,3.201c0,1.768,1.479,3.201,3.304,3.201s3.304-1.434,3.304-3.2
			C321.009,30.782,319.529,29.35,317.705,29.35L317.705,29.35z"/>
		<path style="fill:#F2F2F2;" d="M313.396,19.505c0,0,0.341,0.181,0.532,0.377c0.095,0.099,0.229,0.395,0.354,0.673
			c0.02,0.473,0.747,0.732,0.857,1.077c0.038,0.113,0.007,0.237-0.143,0.381c-1.026,0.132-2.074,0.224-3.043,0.457
			c-0.193,0.047-0.386,0.099-0.573,0.157c-0.226,0.048-0.441,0.11-0.653,0.183c-0.212,0.073-0.415,0.159-0.613,0.257
			c-2.059,0.843-3.369,2.347-4.807,3.78c-0.144,0.097-0.286,0.19-0.433,0.285c-0.417-0.07-0.501-0.181-0.495-0.313
			c0.008-0.131,0.108-0.284,0.066-0.44c-0.054-0.195-0.283-0.469-0.464-0.679c-0.106-0.126-0.195-0.226-0.218-0.274
			c-0.063-0.131-0.347-1.244,0.222-1.711c0,0,0.241,0.425,0.846,0.363c0.202-0.021,0.443-0.095,0.73-0.259
			c0.391-0.644,1.214-0.749,2.008-1.19c0.171-0.07,0.344-0.136,0.519-0.201c0.522-0.188,1.064-0.351,1.641-0.536
			c0.2-0.087,0.397-0.175,0.595-0.262c0.985-0.438,1.958-0.881,3.076-1.348c0.171-0.075,0.278-0.12,0.278-0.12L313.396,19.505
			L313.396,19.505z"/>
		<path style="fill:#CCCCCC;" d="M313.518,19.298c0.104,0.056,0.205,0.103,0.32,0.19l0.167,0.12l0.084,0.063l0.021,0.016l0.01,0.008
			l0.027,0.034l0.002,0.002l0.004,0.004l0.024,0.037c0.063,0.104,0.133,0.184,0.192,0.31l0.182,0.353l0.025,0.109
			c0.026,0.03,0.003,0.054,0.041,0.092c0.014,0.017,0.024,0.035,0.034,0.054l0.062,0.061c0.033,0.041,0.094,0.085,0.143,0.13
			l0.174,0.141c0.067,0.061,0.127,0.1,0.199,0.179l0.104,0.112c0.034,0.055,0.067,0.115,0.097,0.175l0.021,0.044l0.018,0.078
			l0.01,0.057c0.007,0.082-0.01,0.226-0.041,0.284c-0.029,0.061-0.063,0.136-0.099,0.176l-0.11,0.131l-0.062,0.071l-0.127,0.019
			l-0.909,0.128c-0.301,0.048-0.611,0.073-0.901,0.133l-0.882,0.158l-0.221,0.039c-0.031,0.007-0.085,0.016-0.099,0.02l-0.11,0.03
			l-0.441,0.123l-0.023,0.006l-0.421,0.119l-0.189,0.054l-0.217,0.091l-0.42,0.174l-0.428,0.193
			c-0.144,0.063-0.288,0.127-0.409,0.204l-0.383,0.22c-0.13,0.066-0.251,0.164-0.377,0.246l-0.372,0.259
			c-0.234,0.194-0.487,0.364-0.715,0.572c-0.233,0.199-0.466,0.399-0.69,0.614c-0.453,0.42-0.899,0.86-1.354,1.294l-0.021,0.02
			l-0.016,0.01l-0.441,0.275l-0.082,0.053l-0.083-0.018c-0.09-0.02-0.184-0.041-0.281-0.073c-0.097-0.042-0.212-0.073-0.323-0.224
			c-0.056-0.075-0.069-0.179-0.066-0.254c0.015-0.094,0.016-0.093,0.032-0.154c0.032-0.109,0.054-0.169,0.048-0.198
			c0-0.007,0.001-0.015,0.003-0.023c0.005,0.011-0.007-0.024,0.009,0.022l-0.001-0.004l-0.003-0.007l-0.006-0.015l-0.012-0.03
			c-0.017-0.037-0.031-0.083-0.05-0.114c-0.041-0.056-0.061-0.104-0.114-0.173c-0.048-0.065-0.095-0.13-0.148-0.196l-0.078-0.098
			l-0.092-0.122l-0.077-0.102l-0.039-0.052l-0.009-0.012l-0.005-0.007l-0.002-0.002l-0.002-0.002l-0.015-0.028l-0.012-0.03
			c-0.039-0.114-0.05-0.188-0.067-0.281c-0.03-0.18-0.046-0.359-0.041-0.542c0.006-0.182,0.03-0.367,0.093-0.547
			c0.032-0.09,0.076-0.178,0.129-0.26c0.055-0.083,0.124-0.154,0.199-0.219l0.108-0.093l0.088,0.129
			c0.024,0.037,0.067,0.093,0.114,0.129c0.044,0.044,0.1,0.072,0.153,0.103c0.058,0.022,0.112,0.053,0.178,0.059
			c0.061,0.018,0.124,0.021,0.189,0.018c0.027,0,0.078,0.001,0.085,0l0.106-0.023l0.214-0.046l0.366-0.167l-0.041,0.04
			c0.066-0.084,0.127-0.174,0.199-0.252c0.081-0.066,0.155-0.146,0.243-0.201c0.173-0.117,0.355-0.209,0.54-0.289l0.55-0.23
			c0.182-0.074,0.354-0.16,0.526-0.248l0.009-0.005h0.001l0.54-0.205l0.543-0.174l1.087-0.349l-0.007,0.003
			c1.319-0.574,2.633-1.155,3.942-1.746l-0.054,0.137c-0.095-0.219-0.197-0.435-0.41-0.602L313.518,19.298L313.518,19.298z
			 M313.812,20.218l-0.091,0.039c-1.322,0.561-2.643,1.128-3.954,1.715l-0.003,0.001l-0.004,0.001l-1.083,0.36l-0.541,0.181
			l-0.525,0.206l0.011-0.005c-0.18,0.094-0.358,0.186-0.542,0.263l-0.542,0.233c-0.178,0.08-0.347,0.169-0.5,0.274
			c-0.078,0.051-0.139,0.12-0.21,0.178c-0.061,0.068-0.109,0.144-0.166,0.215l-0.025,0.033l-0.016,0.007l-0.427,0.199l-0.213,0.05
			l-0.106,0.024c-0.063,0.012-0.087,0.005-0.133,0.009c-0.082,0.005-0.162,0.001-0.243-0.019c-0.082-0.009-0.16-0.043-0.238-0.073
			c-0.073-0.038-0.147-0.078-0.211-0.135c-0.033-0.026-0.063-0.056-0.091-0.087c-0.031-0.032-0.054-0.063-0.083-0.108l0.195,0.036
			c-0.052,0.05-0.098,0.104-0.135,0.165c-0.036,0.063-0.065,0.13-0.087,0.202c-0.043,0.144-0.057,0.301-0.053,0.458
			c0.004,0.159,0.025,0.319,0.059,0.476c0.017,0.072,0.042,0.165,0.061,0.212l0.013,0.029c0.013,0.023-0.018-0.032-0.013-0.026
			v0.001l0.001,0.001l0.003,0.004l0.004,0.006l0.011,0.012l0.041,0.05l0.081,0.098c0.021,0.023,0.07,0.087,0.066,0.078l0.087,0.098
			c0.058,0.063,0.114,0.134,0.17,0.203c0.056,0.062,0.118,0.165,0.174,0.248c0.024,0.042,0.037,0.078,0.057,0.117l0.014,0.028
			l0.007,0.016l0.004,0.007l0.002,0.003c0.017,0.05,0.005,0.018,0.008,0.03l0.013,0.104c0.014,0.142-0.03,0.248-0.041,0.3
			c-0.009,0.021-0.019,0.106-0.02,0.096c0.005,0.009-0.002-0.004-0.002-0.012c-0.01-0.009,0.043,0.024,0.103,0.041
			c0.065,0.019,0.14,0.031,0.217,0.044l-0.165,0.035l0.42-0.294l-0.035,0.03c0.43-0.453,0.851-0.913,1.297-1.363
			c0.217-0.228,0.447-0.446,0.68-0.665c0.228-0.223,0.482-0.422,0.727-0.63c0.127-0.1,0.26-0.19,0.391-0.287
			c0.133-0.092,0.255-0.194,0.401-0.276l0.427-0.256c0.143-0.092,0.283-0.158,0.424-0.225l0.423-0.203
			c0.169-0.08,0.293-0.131,0.443-0.195l0.216-0.09c0.119-0.044,0.172-0.051,0.26-0.078l0.483-0.133l-0.021,0.005l0.441-0.121
			l0.111-0.03c0.061-0.017,0.083-0.017,0.127-0.024l0.231-0.041l0.926-0.163c0.311-0.063,0.611-0.089,0.918-0.121l0.914-0.098
			l-0.188,0.092c0.013-0.018,0.025-0.031,0.04-0.045c0.018-0.016,0.006-0.017,0.018-0.021c0.002-0.01-0.014,0.053,0.007,0.062
			l-0.008-0.057l-0.003-0.015l-0.001-0.007v-0.004l-0.001-0.002l0,0l0.013,0.048l-0.006-0.005c-0.008-0.008-0.01-0.016-0.012-0.027
			l-0.052-0.058c-0.027-0.038-0.094-0.089-0.138-0.133l-0.179-0.155c-0.063-0.06-0.124-0.109-0.188-0.188l-0.092-0.111l-0.081-0.144
			c-0.029-0.045-0.051-0.099-0.062-0.162c-0.013-0.062-0.023-0.122-0.032-0.182l0.026,0.109l-0.119-0.288
			c-0.016-0.052-0.049-0.111-0.084-0.17L313.812,20.218z M304.042,25.749c0,0,0.11-0.013,0.301-0.047
			c0.19-0.033,0.459-0.09,0.771-0.18c1.289-0.816,3.169-1.142,4.357-2.298c-1.766,0.563-2.841,1.953-4.389,2.774
			c-0.357,0.195-0.565,0.329-0.604,0.309c-0.165-0.091-0.495-0.608-0.495-0.608"/>
		<path style="fill:#B31116;" d="M301.839,21.031c0,0-1.751-3.228-1.587-3.818c0.162-0.592,1.711-3.101,2.67-3.372
			c0.959-0.271,1.655-0.157,2.515,0.295c0.858,0.45,4.877,2.265,6.229,3.343c1.354,1.078,2.081,2.587,2.208,2.782
			c0,0-0.276,0.15-0.717,0.384c-0.986,0.136-1.876,0.481-2.692,0.946c-0.164,0.093-0.323,0.19-0.48,0.292
			c-0.151,0.138-0.313,0.267-0.479,0.388c-0.167,0.122-0.342,0.236-0.521,0.345c-1.269,0.585-2.213,1.042-3.487,1.578
			c-0.304,0.094-0.564,0.162-0.767,0.202c-0.202,0.039-0.346,0.052-0.42,0.03c-0.296-0.081-0.383-0.329-0.313-0.715
			c0.07-0.386-0.028-0.787-0.264-1.411c-0.237-0.623-0.907-1.614-1.151-1.656C302.336,20.601,301.838,21.032,301.839,21.031
			L301.839,21.031z"/>
		<path style="fill:#800000;" d="M308.494,22.87c0.201-0.119,0.359-0.208,0.519-0.321c0.16-0.113,0.32-0.253,0.522-0.473
			c0.152-0.137,0.296-0.276,0.439-0.411c0.72-0.677,1.416-1.272,2.405-1.531c0.27-0.122,0.52-0.234,0.719-0.296
			c0.199-0.063,0.345-0.078,0.407-0.009c0.107,0.124,0.1,0.257,0.017,0.388c-0.08,0.132-0.233,0.262-0.418,0.378
			c-0.86,0.42-1.737,0.843-2.62,1.296c-0.176,0.092-0.354,0.184-0.532,0.274c-0.176,0.063-0.381,0.151-0.582,0.247
			c-0.2,0.098-0.396,0.202-0.553,0.299L308.494,22.87L308.494,22.87z M305.437,14.135c0,0-1.283,0.266-1.394,0.769
			s-0.182,0.888-0.139,1.573s0.583,3.6,0.583,3.6s-0.21,0.164-0.258-0.004c-0.05-0.169-0.27-1.089-0.553-2.011
			c-0.285-0.921-0.478-3.408,0.054-3.809c0.588-0.442,1.091-0.398,1.091-0.398L305.437,14.135L305.437,14.135z"/>
		<path style="fill:#B82025;" d="M301.808,15.02c0,0,0.728-0.351,0.929,0.064c0.2,0.417,0.066,1.667-0.377,2.075
			c-0.445,0.407-1.599,1.507-1.765,1.298c-0.087-0.111-0.244-0.604-0.334-0.981c-0.08-0.317,0.133-0.605,0.197-0.721
			C300.575,16.547,301.808,15.02,301.808,15.02z"/>
		<path style="fill:#800000;" d="M303.996,23.71c0,0,0.314-0.344,0.537-0.547c0.223-0.204,0.786-0.765,1.124-0.927
			c0.339-0.165,2.032-1.529,2.076-1.604c0.08-0.135,0.175-0.31-0.262-0.018c-0.409,0.271-0.568,0.414-1.013,0.691
			c-0.442,0.278-0.924,0.594-1.242,0.797l-0.443,0.277c0,0,0.115-0.321,0.165-0.455c0.154-0.411,0.218-0.828,0.154-1.31
			c-0.026-0.199-0.505-0.333-0.56-0.179c-0.054,0.154-0.776,1.049-0.64,1.399c0.061,0.152-0.132,0.593,0.005,0.942
			C304.118,23.332,303.996,23.71,303.996,23.71L303.996,23.71z"/>
		
			<radialGradient id="SVGID_13_" cx="320.1797" cy="85.2344" r="1.5321" gradientTransform="matrix(0.901 -0.434 -0.434 -0.901 51.6668 236.8299)" gradientUnits="userSpaceOnUse">
			<stop  offset="0" style="stop-color:#F2F2F2"/>
			<stop  offset="1" style="stop-color:#B3B3B3"/>
		</radialGradient>
		<path style="fill:url(#SVGID_13_);stroke:#B3B3B3;stroke-width:2;stroke-miterlimit:10;" d="M301.688,21.715
			c-0.39-0.838-0.05-1.677,0.711-2.043c0.762-0.367,1.786-0.188,2.025,0.705c0.219,0.818,0.067,1.685-0.694,2.052
			C302.969,22.795,302.042,22.481,301.688,21.715L301.688,21.715z"/>
		
			<linearGradient id="SVGID_14_" gradientUnits="userSpaceOnUse" x1="321.3877" y1="87.082" x2="328.5186" y2="87.082" gradientTransform="matrix(0.901 -0.434 -0.434 -0.901 51.6668 236.8299)">
			<stop  offset="0" style="stop-color:#F2F2F2"/>
			<stop  offset="1" style="stop-color:#B3B3B3"/>
		</linearGradient>
		<path style="opacity:0.3;fill:url(#SVGID_14_);enable-background:new    ;" d="M304.974,22.213c0,0,1.776-1.007,3.262-2.142
			c1.094-0.838,1.911-1.557,2.121-2.251c0.128-0.426-0.213-1.307-0.213-1.307l-4.707-2.379c0,0-1.336-0.047-1.615,0.907
			C303.496,16.161,304.974,22.213,304.974,22.213z"/>
	</g>
</g>
<g id="Layer_1">
</g>
</svg>
