<?xml version="1.0" encoding="iso-8859-1"?>
<!-- Generator: Adobe Illustrator 16.0.0, SVG Export Plug-In . SVG Version: 6.00 Build 0)  -->
<!DOCTYPE svg PUBLIC "-//W3C//DTD SVG 1.1//EN" "http://www.w3.org/Graphics/SVG/1.1/DTD/svg11.dtd">
<svg version="1.1" xmlns="http://www.w3.org/2000/svg" xmlns:xlink="http://www.w3.org/1999/xlink" x="0px" y="0px" width="404px"
	 height="60px" viewBox="0 0 404 60" style="enable-background:new 0 0 404 60;" xml:space="preserve">
<g id="preview3">
	<rect y="0" style="fill:#FFFFFF;" width="404" height="60"/>
	<g>
		<path style="fill:#3B5998;" d="M52.063,46.516c0,1.295-1.052,2.348-2.347,2.348H16.863c-1.295,0-2.347-1.053-2.347-2.348V13.663
			c0-1.295,1.052-2.347,2.347-2.347h32.854c1.295,0,2.347,1.052,2.347,2.347V46.516z"/>
		<path id="f" style="fill:#FFFFFF;" d="M40.33,48.863v-14.08h4.693l1.174-5.867H40.33v-2.347c0-2.347,1.176-3.52,3.521-3.52h2.347
			v-5.867c-1.174,0-2.629,0-4.693,0c-4.313,0-7.04,3.38-7.04,8.213v3.52h-4.693v5.867h4.693v14.08H40.33z"/>
	</g>
	<g>
		<path style="fill:#55ACEE;" d="M109.039,46.516c0,1.295-1.052,2.347-2.347,2.347H73.838c-1.295,0-2.347-1.052-2.347-2.347V13.663
			c0-1.295,1.052-2.347,2.347-2.347h32.854c1.295,0,2.347,1.052,2.347,2.347V46.516z"/>
		<path style="fill:#FFFFFF;" d="M101.983,22.925c-0.864,0.378-1.79,0.63-2.766,0.745c0.998-0.584,1.76-1.512,2.119-2.618
			c-0.928,0.541-1.959,0.936-3.056,1.148c-0.878-0.921-2.128-1.497-3.512-1.497c-2.658,0-4.81,2.119-4.81,4.737
			c0,0.368,0.042,0.733,0.122,1.082c-3.997-0.202-7.543-2.088-9.917-4.952c-0.412,0.7-0.652,1.514-0.652,2.384
			c0,1.642,0.853,3.092,2.141,3.942c-0.787-0.025-1.531-0.238-2.178-0.594c-0.001,0.02-0.001,0.04-0.001,0.061
			c0,2.294,1.659,4.211,3.86,4.646c-0.402,0.105-0.827,0.167-1.268,0.167c-0.31,0-0.61-0.028-0.903-0.085
			c0.61,1.882,2.386,3.251,4.492,3.291c-1.641,1.27-3.717,2.028-5.972,2.028c-0.388,0-0.771-0.021-1.148-0.066
			c2.129,1.344,4.659,2.128,7.377,2.128c8.848,0,13.688-7.221,13.688-13.483c0-0.202-0.005-0.41-0.014-0.61
			C100.521,24.709,101.338,23.874,101.983,22.925z"/>
	</g>
	<g>
		<path style="fill:#CF2200;" d="M166,46.653c0,1.296-1.051,2.347-2.347,2.347h-33.307c-1.296,0-2.347-1.051-2.347-2.347V13.347
			c0-1.296,1.051-2.347,2.347-2.347h33.307c1.296,0,2.347,1.051,2.347,2.347V46.653z"/>
		<path style="fill:#FFFFFF;" d="M153.081,29.613h-11.914c-1.894,0-3.43,1.538-3.43,3.43v2.756c0,1.895,1.536,3.431,3.43,3.431
			h11.914c1.894,0,3.43-1.536,3.43-3.431v-2.756C156.51,31.15,154.975,29.613,153.081,29.613z M143.669,31.759h-1.107v5.505h-1.071
			v-5.505h-1.107v-0.936h3.285V31.759z M146.798,37.264h-0.949v-0.521c-0.177,0.192-0.359,0.34-0.548,0.438
			c-0.19,0.104-0.373,0.151-0.552,0.151c-0.221,0-0.384-0.07-0.496-0.212c-0.11-0.142-0.167-0.353-0.167-0.638v-3.971h0.949v3.645
			c0,0.113,0.021,0.193,0.059,0.243c0.041,0.052,0.106,0.075,0.195,0.075c0.069,0,0.157-0.033,0.264-0.1
			c0.108-0.067,0.206-0.15,0.295-0.256V32.51h0.949V37.264z M150.245,36.281c0,0.336-0.074,0.595-0.223,0.773
			c-0.148,0.18-0.365,0.27-0.645,0.27c-0.188,0-0.353-0.035-0.498-0.104c-0.145-0.069-0.282-0.174-0.406-0.321v0.363h-0.96v-6.439
			h0.96v2.074c0.128-0.143,0.265-0.256,0.406-0.33c0.146-0.075,0.291-0.112,0.439-0.112c0.3,0,0.529,0.101,0.688,0.303
			c0.159,0.202,0.238,0.499,0.238,0.888L150.245,36.281L150.245,36.281z M153.538,35.002h-1.817v0.895c0,0.25,0.03,0.424,0.093,0.52
			c0.063,0.098,0.17,0.146,0.322,0.146c0.158,0,0.267-0.041,0.331-0.124c0.061-0.083,0.094-0.263,0.094-0.542v-0.215h0.978v0.242
			c0,0.486-0.119,0.855-0.359,1.103c-0.236,0.245-0.592,0.366-1.065,0.366c-0.426,0-0.761-0.129-1.005-0.391
			c-0.243-0.26-0.367-0.619-0.367-1.076v-2.135c0-0.412,0.136-0.749,0.405-1.009c0.268-0.259,0.614-0.388,1.039-0.388
			c0.436,0,0.77,0.119,1.003,0.359c0.233,0.241,0.35,0.586,0.35,1.037V35.002z"/>
		<path style="fill:#FFFFFF;" d="M152.145,33.225c-0.151,0-0.259,0.042-0.325,0.131c-0.067,0.084-0.099,0.227-0.099,0.426v0.48
			h0.839v-0.48c0-0.199-0.034-0.343-0.1-0.426C152.396,33.268,152.29,33.225,152.145,33.225z"/>
		<path style="fill:#FFFFFF;" d="M148.87,33.209c-0.067,0-0.135,0.014-0.201,0.045c-0.067,0.031-0.131,0.082-0.196,0.146v2.96
			c0.076,0.076,0.152,0.137,0.225,0.17c0.074,0.033,0.149,0.051,0.23,0.051c0.117,0,0.202-0.034,0.257-0.102
			c0.054-0.068,0.081-0.176,0.081-0.328v-2.453c0-0.161-0.032-0.283-0.099-0.365C149.097,33.25,148.998,33.209,148.87,33.209z"/>
		<polygon style="fill:#FFFFFF;" points="142.727,27.962 143.93,27.962 143.93,25.019 145.331,20.867 144.108,20.867 
			143.363,23.704 143.287,23.704 142.505,20.867 141.293,20.867 142.727,25.152 		"/>
		<path style="fill:#FFFFFF;" d="M146.961,28.094c0.486,0,0.867-0.127,1.145-0.382c0.276-0.256,0.415-0.605,0.415-1.053v-2.704
			c0-0.397-0.142-0.727-0.422-0.979c-0.284-0.252-0.646-0.379-1.089-0.379c-0.486,0-0.873,0.12-1.161,0.361
			c-0.287,0.239-0.431,0.562-0.431,0.968v2.713c0,0.446,0.14,0.797,0.421,1.061C146.119,27.962,146.494,28.094,146.961,28.094z
			 M146.519,23.885c0-0.114,0.041-0.205,0.12-0.277c0.083-0.07,0.188-0.104,0.32-0.104c0.141,0,0.255,0.035,0.343,0.104
			c0.087,0.072,0.13,0.164,0.13,0.277v2.853c0,0.14-0.043,0.25-0.129,0.33c-0.085,0.08-0.2,0.12-0.344,0.12
			c-0.142,0-0.25-0.039-0.327-0.119c-0.075-0.078-0.113-0.189-0.113-0.332L146.519,23.885L146.519,23.885z"/>
		<path style="fill:#FFFFFF;" d="M150.135,28.04c0.201,0,0.407-0.058,0.62-0.168c0.215-0.111,0.42-0.275,0.616-0.488v0.58h1.069
			v-5.234h-1.069v3.974c-0.099,0.114-0.21,0.207-0.329,0.281c-0.121,0.073-0.22,0.11-0.299,0.11c-0.1,0-0.174-0.027-0.217-0.084
			c-0.044-0.054-0.068-0.145-0.068-0.267v-4.013h-1.068v4.375c0,0.312,0.063,0.546,0.187,0.7
			C149.702,27.96,149.887,28.04,150.135,28.04z"/>
	</g>
	<g>
		<path style="fill:#E02F2F;" d="M222.988,46.516c0,1.295-1.052,2.348-2.346,2.348h-32.854c-1.295,0-2.348-1.053-2.348-2.348V13.663
			c0-1.294,1.053-2.347,2.348-2.347h32.854c1.294,0,2.346,1.052,2.346,2.347V46.516z"/>
		<path style="fill:#FFFFFF;" d="M207.735,18.356c0,0-5.388,0-7.233,0c-3.31,0-6.424,2.322-6.424,5.225
			c0,2.967,2.255,5.273,5.622,5.273c0.233,0,0.461-0.053,0.685-0.07c-0.222,0.417-0.374,0.865-0.374,1.354
			c0,0.825,0.443,1.482,1.002,2.029c-0.42,0-0.832,0.006-1.279,0.006c-4.097,0.001-7.252,2.609-7.252,5.315
			c0,2.667,3.459,4.336,7.558,4.336c4.673,0,7.254-2.653,7.254-5.32c0-2.136-0.632-3.418-2.581-4.8
			c-0.668-0.471-1.942-1.619-1.942-2.295c0-0.791,0.225-1.18,1.417-2.112c1.219-0.954,2.084-2.09,2.084-3.651
			c0-1.855-0.797-4.118-2.35-4.118h2.641L207.735,18.356z M205.307,36.043c0.057,0.249,0.091,0.504,0.091,0.762
			c0,2.153-1.39,3.838-5.375,3.838c-2.834,0-4.879-1.793-4.879-3.947c0-2.111,2.539-3.869,5.374-3.838
			c0.659,0.008,1.276,0.113,1.835,0.293C203.893,34.221,204.994,34.825,205.307,36.043z M200.768,28.006
			c-1.902-0.055-3.71-2.126-4.036-4.623c-0.328-2.499,0.947-4.41,2.848-4.354c1.901,0.059,3.711,2.063,4.038,4.56
			C203.947,26.086,202.669,28.063,200.768,28.006z"/>
		<polygon style="fill:#FFFFFF;" points="213.602,27.735 213.602,24.215 211.256,24.215 211.256,27.735 207.735,27.735 
			207.735,30.082 211.256,30.082 211.256,33.602 213.602,33.602 213.602,30.082 217.122,30.082 217.122,27.735 		"/>
	</g>
	<g>
		<path style="fill:#007BB5;" d="M279.963,46.516c0,1.295-1.052,2.347-2.347,2.347h-32.854c-1.295,0-2.347-1.052-2.347-2.347V13.663
			c0-1.295,1.052-2.347,2.347-2.347h32.854c1.295,0,2.347,1.052,2.347,2.347V46.516z"/>
		<rect x="250.63" y="24.223" style="fill:#FFFFFF;" width="4.693" height="16.427"/>
		<path style="fill:#FFFFFF;" d="M266.468,24.223c-3.274,0-3.837,1.194-4.105,2.347v-2.347h-4.693v16.427h4.693v-9.387
			c0-1.521,0.826-2.347,2.348-2.347c1.484,0,2.346,0.809,2.346,2.347v9.387h4.693v-8.213
			C271.749,27.743,271.138,24.223,266.468,24.223z"/>
		<circle style="fill:#FFFFFF;" cx="252.976" cy="20.703" r="2.347"/>
	</g>
	<g>
		<path style="fill:#316198;" d="M337,46.653c0,1.296-1.051,2.347-2.347,2.347h-33.307c-1.296,0-2.347-1.051-2.347-2.347V13.347
			c0-1.296,1.051-2.347,2.347-2.347h33.307c1.296,0,2.347,1.051,2.347,2.347V46.653z"/>
		<path style="fill:#FFFFFF;" d="M324.951,19.813h-14.08c-1.324,0-2.346,1.021-2.346,2.347v14.08c0,1.324,1.021,2.347,2.346,2.347
			h14.08c1.325,0,2.347-1.022,2.347-2.347v-14.08C327.298,20.834,326.276,19.813,324.951,19.813z M317.926,25.511
			c2.082,0,3.769,1.635,3.769,3.653c0,2.016-1.687,3.652-3.769,3.652c-2.081,0-3.77-1.637-3.77-3.652
			C314.157,27.146,315.846,25.511,317.926,25.511z M324.951,35.652c0,0.412-0.176,0.587-0.586,0.587h-12.907
			c-0.41,0-0.587-0.175-0.587-0.587v-8.213l1.463,0.318c-0.156,0.511-0.242,1.05-0.242,1.611c0,3.121,2.613,5.652,5.834,5.652
			s5.833-2.531,5.833-5.652c0-0.561-0.085-1.1-0.242-1.611l1.435-0.318V35.652z M324.951,25.092c0,0.324-0.262,0.587-0.586,0.587
			h-2.347c-0.324,0-0.587-0.263-0.587-0.587v-2.347c0-0.324,0.263-0.586,0.587-0.586h2.347c0.324,0,0.586,0.262,0.586,0.586V25.092z
			"/>
	</g>
	<g>
		<path style="fill:#CA2028;" d="M394,46.653c0,1.296-1.051,2.347-2.347,2.347h-33.307c-1.296,0-2.347-1.051-2.347-2.347V13.347
			c0-1.296,1.051-2.347,2.347-2.347h33.307c1.296,0,2.347,1.051,2.347,2.347V46.653z"/>
		<path style="fill:#FFFFFF;" d="M375.649,20.254c-5.123,0-7.707,3.673-7.707,6.737c0,1.854,0.703,3.504,2.209,4.119
			c0.246,0.102,0.469,0.004,0.541-0.27c0.049-0.188,0.166-0.667,0.219-0.865c0.072-0.271,0.045-0.365-0.154-0.601
			c-0.436-0.512-0.713-1.175-0.713-2.115c0-2.725,2.039-5.165,5.309-5.165c2.896,0,4.488,1.77,4.488,4.132
			c0,3.11-1.377,5.735-3.418,5.735c-1.129,0-1.973-0.934-1.703-2.078c0.324-1.367,0.951-2.84,0.951-3.827
			c0-0.882-0.475-1.619-1.453-1.619c-1.154,0-2.08,1.193-2.08,2.791c0,1.018,0.344,1.707,0.344,1.707s-1.18,5-1.387,5.876
			c-0.412,1.743-0.063,3.882-0.033,4.097c0.018,0.129,0.184,0.159,0.258,0.063c0.105-0.139,1.48-1.834,1.945-3.529
			c0.133-0.479,0.76-2.963,0.76-2.963c0.375,0.715,1.469,1.343,2.633,1.343c3.467,0,5.818-3.16,5.818-7.39
			C382.476,23.233,379.767,20.254,375.649,20.254z"/>
	</g>
</g>
<g id="Layer_1">
</g>
</svg>
