<svg xmlns="http://www.w3.org/2000/svg" width="80.349" height="78.642" viewBox="0 0 80.349 78.642"><g><path d="M64 74.642c0 2.207-1.793 4-4 4H4c-2.207 0-4-1.793-4-4v-56c0-2.207 1.793-4 4-4h56c2.207 0 4 1.793 4 4v56z" fill="#3B5998"/><path d="M44 78.642v-24h8l2-10H44v-4c0-4 2.004-6 6-6h4v-10h-8c-7.35 0-12 5.762-12 14v6h-8v10h8v24h10z" fill="#fff"/><path d="M39.882 6.632S62.952-7.74 75.148 5.83c12.867 14.32-2.192 30.963-2.192 30.963l-4.603 1.928-11.92-15.84-14.04-10.165-2.51-6.083z" fill="#B22D43"/><circle cx="71.336" cy="42.934" r="6.349" fill="#D6DAE5"/><path d="M68.353 37.33c-5.112-5.112-.695-10.943-8.716-22.233-8.023-11.292-19.755-8.465-19.755-8.465v7.91c12.033 0 17.062 12.98 17.76 16.49.7 3.51 8.39 8.412 8.39 8.412l2.32-2.115z" fill="#D6DAE5"/><path d="M68.466 37.33s3.235-8.764 3.726-14.082c0 0-4.3 3.182-3.726 14.08z" fill="#93213F"/></g></svg>