<svg xmlns="http://www.w3.org/2000/svg" width="80.474" height="78.665" viewBox="0 0 80.474 78.665"><g><path d="M64 74.665c0 2.21-1.79 4-4 4H4c-2.21 0-4-1.79-4-4v-56c0-2.21 1.79-4 4-4h56c2.21 0 4 1.79 4 4v56z" fill="#F0F0F1"/><circle cx="24.55" cy="46.643" r="7" fill="#0063DB"/><circle cx="42.55" cy="46.643" r="7" fill="#FF0084"/><path d="M40.007 6.968s23.07-14.373 35.266-.802c12.867 14.32-2.193 30.962-2.193 30.962l-4.603 1.928-11.92-15.84-14.04-10.166-2.51-6.082z" fill="#B22D43"/><circle cx="71.461" cy="43.27" r="6.35" fill="#D6DAE5"/><path d="M68.478 37.664c-5.112-5.11-.695-10.942-8.716-22.232-8.023-11.29-19.755-8.464-19.755-8.464v7.91c12.033 0 17.062 12.98 17.76 16.49.7 3.51 8.39 8.412 8.39 8.412l2.32-2.116z" fill="#D6DAE5"/><path d="M68.59 37.664s3.236-8.763 3.727-14.08c0 0-4.3 3.18-3.726 14.08z" fill="#93213F"/></g></svg>