<svg xmlns="http://www.w3.org/2000/svg" width="80.516" height="78.54" viewBox="0 0 80.516 78.54"><g><path d="M64 74.54c0 2.21-1.79 4-4 4H4c-2.21 0-4-1.79-4-4v-56c0-2.21 1.79-4 4-4h56c2.21 0 4 1.79 4 4v56z" fill="#F94877"/><path d="M21.396 28.293c-.58 0-1.14.23-1.55.64-.413.407-.644.966-.644 1.545l-.054 32.324c-.002.902.567 1.728 1.41 2.05.844.32 1.817.083 2.418-.593l9.58-10.796h6.835c.498.002.984-.17 1.372-.48s.658-.746.766-1.23l4.605-20.722c.142-.644-.016-1.325-.426-1.84-.412-.516-1.043-.82-1.702-.823l-22.608-.076zm2.548 3.922h.005l16.812.054c.227 0 .45.107.592.285.143.177.2.42.147.64l-1.045 4.702c-.076.334-.403.594-.746.594H31.876c-.347-.003-.844-.01-.994.456-.14.436-.578 2.224-.578 2.576s.142.693.393.94c.248.244.59.384.937.38h6.779c.23 0 .454.108.596.285.14.178.2.42.147.643l-1.108 4.98c-.075.334-.402.596-.745.596h-5.76c-.37 0-.733.164-.984.443-.013.014-.026.028-.042.042l-7.35 8.408c.005-.014 0-25.264 0-25.264 0-.398.378-.76.776-.76z" fill="#fff"/><path d="M40.05 7.093S63.12-7.28 75.314 6.29c12.867 14.322-2.192 30.964-2.192 30.964l-4.603 1.928-11.92-15.84-14.04-10.167-2.51-6.082z" fill="#B22D43"/><circle cx="71.503" cy="43.395" r="6.35" fill="#D6DAE5"/><path d="M68.52 37.79c-5.112-5.112-.695-10.943-8.716-22.233C51.78 4.267 40.05 7.093 40.05 7.093v7.91c12.032 0 17.06 12.98 17.76 16.49.7 3.51 8.39 8.412 8.39 8.412l2.32-2.116z" fill="#D6DAE5"/><path d="M68.633 37.79s3.235-8.764 3.726-14.082c-.002 0-4.302 3.182-3.727 14.08z" fill="#93213F"/></g></svg>