<svg xmlns="http://www.w3.org/2000/svg" width="80.266" height="78.683" viewBox="0 0 80.266 78.683"><g><path d="M64 74.683c0 2.207-1.793 4-4 4H4c-2.207 0-4-1.793-4-4v-56c0-2.207 1.793-4 4-4h56c2.207 0 4 1.793 4 4v56z" fill="#E02F2F"/><path d="M38 26.683H25.672c-5.64 0-10.95 3.957-10.95 8.906 0 5.056 3.845 8.987 9.583 8.987.398 0 .787-.09 1.168-.12-.377.712-.637 1.476-.637 2.31 0 1.406.754 2.527 1.707 3.46-.715 0-1.418.01-2.18.01-6.984 0-12.363 4.446-12.363 9.06 0 4.544 5.896 7.39 12.883 7.39 7.965 0 12.365-4.523 12.365-9.068 0-3.642-1.076-5.827-4.398-8.183-1.14-.803-3.31-2.76-3.31-3.912 0-1.348.382-2.012 2.413-3.6 2.078-1.625 3.553-3.563 3.553-6.223 0-3.162-1.36-7.02-4.006-7.02H36l2-2zM33.86 56.83c.097.425.155.858.155 1.298 0 3.672-2.37 6.543-9.16 6.543-4.83 0-8.316-3.056-8.316-6.728 0-3.598 4.327-6.596 9.16-6.54 1.122.01 2.175.192 3.126.497 2.623 1.826 4.502 2.855 5.035 4.93zm-7.735-13.698c-3.242-.094-6.324-3.625-6.88-7.88-.56-4.26 1.614-7.517 4.854-7.42 3.24.1 6.323 3.515 6.882 7.77.56 4.256-1.615 7.627-4.857 7.53zM48 42.67v-6h-4v6h-6v4h6v6h4v-6h6v-4z" fill="#fff"/><path d="M39.8 6.632S62.87-7.74 75.064 5.83c12.867 14.32-2.192 30.963-2.192 30.963L68.27 38.72 56.35 22.88 42.31 12.716 39.8 6.632z" fill="#B22D43"/><circle cx="71.253" cy="42.934" r="6.349" fill="#D6DAE5"/><path d="M68.27 37.33c-5.112-5.112-.695-10.943-8.716-22.233C51.53 3.805 39.8 6.632 39.8 6.632v7.91c12.032 0 17.06 12.98 17.76 16.49.7 3.51 8.39 8.412 8.39 8.412l2.32-2.115z" fill="#D6DAE5"/><path d="M68.383 37.33s3.235-8.764 3.726-14.082c-.002 0-4.302 3.182-3.727 14.08z" fill="#93213F"/></g></svg>