<svg xmlns="http://www.w3.org/2000/svg" width="80.183" height="78.54" viewBox="0 0 80.183 78.54"><g><path d="M64 74.54c0 2.21-1.79 4-4 4H4c-2.21 0-4-1.79-4-4v-56c0-2.21 1.79-4 4-4h56c2.21 0 4 1.79 4 4v56z" fill="#316198"/><path d="M43.667 30.643h-24c-2.26 0-4 1.74-4 4v24c0 2.258 1.74 4 4 4h24c2.258 0 4-1.742 4-4v-24c0-2.26-1.742-4-4-4zM31.69 40.357c3.55 0 6.425 2.787 6.425 6.227 0 3.436-2.876 6.225-6.425 6.225-3.547 0-6.424-2.79-6.424-6.226.002-3.44 2.88-6.227 6.424-6.227zm11.977 17.286c0 .7-.3 1-1 1h-22c-.7 0-1-.3-1-1v-14l2.493.543c-.268.87-.413 1.79-.413 2.744 0 5.318 4.454 9.635 9.943 9.635 5.49 0 9.943-4.314 9.943-9.635 0-.955-.145-1.875-.412-2.744l2.446-.543v14zm0-18c0 .552-.447 1-1 1h-4c-.553 0-1-.447-1-1v-4c0-.553.447-1 1-1h4c.553 0 1 .447 1 1v4z" fill="#fff"/><path d="M39.716 7.093S62.786-7.28 74.982 6.29C87.85 20.613 72.79 37.255 72.79 37.255l-4.603 1.928-11.92-15.84-14.04-10.167-2.51-6.082z" fill="#B22D43"/><circle cx="71.17" cy="43.395" r="6.35" fill="#D6DAE5"/><path d="M68.187 37.79c-5.112-5.112-.695-10.943-8.716-22.233-8.022-11.29-19.754-8.464-19.754-8.464v7.91c12.033 0 17.062 12.98 17.76 16.49.7 3.51 8.39 8.412 8.39 8.412l2.32-2.116z" fill="#D6DAE5"/><path d="M68.3 37.79s3.235-8.764 3.726-14.082c0 0-4.3 3.182-3.726 14.08z" fill="#93213F"/></g></svg>