<svg xmlns="http://www.w3.org/2000/svg" width="79.974" height="78.373" viewBox="0 0 79.974 78.373"><g><path d="M64 74.373c0 2.207-1.793 4-4 4H4c-2.207 0-4-1.793-4-4v-56c0-2.207 1.793-4 4-4h56c2.207 0 4 1.793 4 4v56z" fill="#007BB5"/><path fill="#fff" d="M14 36.374h8v28h-8zM40.998 36.374c-5.582 0-6.54 2.035-6.998 4v-4h-8v28h8v-16c0-2.594 1.406-4 4-4 2.53 0 4 1.377 4 4v16h8v-14c0-8-1.043-14-9.002-14z"/><circle cx="18" cy="30.374" r="4" fill="#fff"/><path d="M39.507 6.633S62.577-7.74 74.773 5.83C87.64 20.15 72.58 36.794 72.58 36.794l-4.603 1.928-11.92-15.84-14.04-10.165-2.51-6.082z" fill="#B22D43"/><circle cx="70.961" cy="42.935" r="6.35" fill="#D6DAE5"/><path d="M67.978 37.33c-5.112-5.112-.695-10.943-8.716-22.233-8.023-11.29-19.755-8.464-19.755-8.464v7.91c12.033 0 17.062 12.98 17.76 16.49.7 3.51 8.39 8.41 8.39 8.41l2.32-2.114z" fill="#D6DAE5"/><path d="M68.09 37.33s3.236-8.764 3.727-14.082c0 0-4.3 3.182-3.726 14.08z" fill="#93213F"/></g></svg>