<svg xmlns="http://www.w3.org/2000/svg" width="80.682" height="78.79" viewBox="0 0 80.682 78.79"><g><path d="M64 74.79c0 2.21-1.79 4-4 4H4c-2.21 0-4-1.79-4-4v-56c0-2.21 1.79-4 4-4h56c2.21 0 4 1.79 4 4v56z" fill="#88AB27"/><path d="M27.836 52.29c1.166.618 2.43.947 3.712 1.19.998.19 2.01.324 3.03.28 3.867-.167 7.417-1.325 10.604-3.523 1.16-.798 2.754-.278 3.085 1 .202.79-.067 1.66-.794 2.154-2.837 1.932-5.928 3.266-9.31 3.9-1.774.333-3.562.402-5.364.29-1.502-.09-2.938-.464-4.37-.872-1.665-.475-3.176-1.293-4.686-2.113-1.184-.788-2.356-1.595-3.424-2.544-1.416-1.257-2.682-2.65-3.743-4.22-.5-.74-.202-1.876.602-2.523.687-.553 1.71-.497 2.36.115.5.47.843 1.063 1.283 1.58.824.97 1.718 1.867 2.697 2.672 1.24 1.018 2.59 1.873 4.058 2.527.083.04.172.062.258.09zM27.064 41.777c-1.717-.008-3.146-1.4-3.11-3.097.04-1.682 1.274-3.18 3.15-3.144 1.813.035 3.115 1.348 3.115 3.15 0 1.772-1.234 3.093-3.156 3.09zM42.286 39.34c.45 1.097.44 2.158-.238 3.17-.982 1.465-3.14 1.805-4.518.71-.612-.573-1.044-1.237-1.164-2.1-.223-1.596.977-3.224 2.575-3.458 1.51-.222 2.577.43 3.346 1.678z" fill-rule="evenodd" clip-rule="evenodd" fill="#fff"/><path d="M40.215 6.843S63.285-7.53 75.48 6.04c12.868 14.322-2.19 30.964-2.19 30.964l-4.604 1.928-11.92-15.84-14.04-10.167-2.51-6.082z" fill="#B22D43"/><circle cx="71.669" cy="43.145" r="6.35" fill="#D6DAE5"/><path d="M68.686 37.54c-5.112-5.112-.695-10.943-8.716-22.233-8.023-11.29-19.755-8.464-19.755-8.464v7.91c12.033 0 17.062 12.98 17.76 16.49.7 3.51 8.39 8.412 8.39 8.412l2.32-2.116z" fill="#D6DAE5"/><path d="M68.8 37.54s3.234-8.764 3.725-14.082c0 0-4.3 3.182-3.726 14.08z" fill="#93213F"/></g></svg>