<svg xmlns="http://www.w3.org/2000/svg" width="80.474" height="78.79" viewBox="0 0 80.474 78.79"><g><path d="M64 74.79c0 2.21-1.79 4-4 4H4c-2.21 0-4-1.79-4-4v-56c0-2.21 1.79-4 4-4h56c2.21 0 4 1.79 4 4v56z" fill="#E71E27"/><path d="M43.106 35.492c-.268-.922-1.106-3.958-1.927-4.252-1.463 0-2.78-.012-4.253 0-.52.003-2.14 2.744-2.326 3.19-1.023 2.458-1.395 3.82-2.126 6.377-.77 2.7-1.497 5.55-2.126 8.504-.28-.472-.872-1.767-1.063-2.125-1.393-2.666-1.794-4.78-3.19-7.44-1.402-2.678-1.232-3.687-4.25-3.19-.75.12-2.498.753-3.19 1.063-.342.155-1.062.797-1.062 2.125 0 6.245 0 12.09 1.063 18.07.65 4.263.178 4.75 4.252 3.188.203-.078-.203.087 0 0 2.126-1.062 3.354-1.073 3.188-2.124-.292-1.822-.826-4.55-1.063-6.378.085-.008-.086.007 0 0 1.063 0 3.073 3.29 4.252 5.314.968 1.65 2.126 2.126 3.188 2.126 4.252 0 5.315-1.063 5.315-2.126s-.046-3.44 0-4.253c0-2.126-.1-7.743 0-8.503 1.844 5.896 3.602 11.327 5.314 17.008.298.99 2.066 1.373 3.124 1.062 1.928 0 3.498-.694 3.257-1.53-2.128-7.32-2.942-11.924-4.255-17.603-.744-3.243-1.06-4.25-2.122-8.502z" fill="#fff"/><path d="M40.007 6.843S63.077-7.53 75.273 6.04C88.14 20.36 73.08 37.004 73.08 37.004l-4.603 1.928-11.92-15.84-14.04-10.165-2.51-6.082z" fill="#B22D43"/><circle cx="71.461" cy="43.145" r="6.35" fill="#D6DAE5"/><path d="M68.478 37.54c-5.112-5.112-.695-10.943-8.716-22.233-8.023-11.29-19.755-8.464-19.755-8.464v7.91c12.033 0 17.062 12.98 17.76 16.49.7 3.51 8.39 8.412 8.39 8.412l2.32-2.116z" fill="#D6DAE5"/><path d="M68.59 37.54s3.236-8.764 3.727-14.082c0 0-4.3 3.182-3.726 14.08z" fill="#93213F"/></g></svg>