<svg xmlns="http://www.w3.org/2000/svg" width="80.516" height="78.79" viewBox="0 0 80.516 78.79"><g><path d="M64 74.79c0 2.21-1.79 4-4 4H4c-2.21 0-4-1.79-4-4v-56c0-2.21 1.79-4 4-4h56c2.21 0 4 1.79 4 4v56z" fill="#0D2636"/><path d="M47.345 56.826H36.15v-2.4c0-3.083 2.537-5.576 5.62-5.576 3.08 0 5.574 2.493 5.574 5.575v2.4zm-27.966-6.39c-2.222 0-3.99-1.768-3.99-3.988s1.77-3.988 3.99-3.988 3.988 1.768 3.988 3.988-1.768 3.988-3.99 3.988zm10.38-1.586c-2.63 0-4.807-2.176-4.807-4.805 0-2.674 2.177-4.804 4.806-4.804 2.673 0 4.803 2.13 4.803 4.805 0 2.63-2.13 4.805-4.804 4.805zm12.01-1.585c-3.082 0-5.62-2.54-5.62-5.622s2.538-5.62 5.62-5.62c3.082 0 5.62 2.538 5.62 5.62 0 3.082-2.538 5.622-5.62 5.622zm-18.402 9.56H15.39v-.77c0-2.22 1.768-4.033 3.988-4.033 2.176 0 3.99 1.813 3.99 4.034v.77zm6.39-6.39c2.63 0 4.805 2.18 4.805 4.806v1.587h-9.61V55.24c0-2.627 2.177-4.804 4.806-4.804z" fill="#fff"/><path d="M40.05 6.843S63.12-7.53 75.314 6.04c12.867 14.322-2.192 30.964-2.192 30.964l-4.603 1.928-11.92-15.84-14.04-10.167-2.51-6.082z" fill="#B22D43"/><circle cx="71.503" cy="43.145" r="6.35" fill="#D6DAE5"/><path d="M68.52 37.54c-5.112-5.112-.695-10.943-8.716-22.233C51.78 4.017 40.05 6.843 40.05 6.843v7.91c12.032 0 17.06 12.98 17.76 16.49.7 3.51 8.39 8.412 8.39 8.412l2.32-2.116z" fill="#D6DAE5"/><path d="M68.633 37.54s3.235-8.764 3.726-14.082c-.002 0-4.302 3.182-3.727 14.08z" fill="#93213F"/></g></svg>