<svg xmlns="http://www.w3.org/2000/svg" width="80.433" height="78.451" viewBox="0 0 80.433 78.451"><g><path d="M64 74.45c0 2.21-1.79 4-4 4H4c-2.21 0-4-1.79-4-4v-56c0-2.208 1.79-4 4-4h56c2.21 0 4 1.792 4 4v56z" fill="#CA2028"/><path d="M32.66 29.69c-8.733 0-13.138 6.262-13.138 11.483 0 3.162 1.197 5.974 3.764 7.02.42.174.798.007.92-.46.086-.32.286-1.135.376-1.475.123-.46.075-.62-.265-1.023-.74-.873-1.214-2.003-1.214-3.605 0-4.644 3.476-8.803 9.05-8.803 4.937 0 7.648 3.016 7.648 7.043 0 5.3-2.345 9.773-5.826 9.773-1.923 0-3.362-1.59-2.9-3.54.55-2.33 1.62-4.84 1.62-6.523 0-1.504-.808-2.76-2.478-2.76-1.966 0-3.545 2.035-3.545 4.76 0 1.733.587 2.907.587 2.907l-2.364 10.017c-.702 2.973-.105 6.616-.055 6.983.03.22.31.27.438.106.18-.237 2.523-3.126 3.317-6.016.227-.817 1.293-5.052 1.293-5.052.64 1.22 2.506 2.29 4.49 2.29 5.908 0 9.918-5.387 9.918-12.597 0-5.45-4.617-10.527-11.635-10.527z" fill="#fff"/><path d="M39.966 6.18s23.07-14.372 35.266-.8C88.1 19.7 73.04 36.34 73.04 36.34l-4.603 1.928-11.92-15.84-14.04-10.166-2.51-6.083z" fill="#B22D43"/><circle cx="71.42" cy="42.483" r="6.349" fill="#D6DAE5"/><path d="M68.437 36.877c-5.112-5.11-.695-10.942-8.716-22.232C51.7 3.355 39.967 6.18 39.967 6.18v7.912c12.033 0 17.062 12.98 17.76 16.49.7 3.51 8.39 8.41 8.39 8.41l2.32-2.115z" fill="#D6DAE5"/><path d="M68.55 36.877s3.235-8.763 3.726-14.08c0 0-4.3 3.182-3.726 14.08z" fill="#93213F"/></g></svg>