<svg xmlns="http://www.w3.org/2000/svg" width="80.183" height="78.79" viewBox="0 0 80.183 78.79"><g><path d="M64 74.79c0 2.21-1.79 4-4 4H4c-2.21 0-4-1.79-4-4v-56c0-2.21 1.79-4 4-4h56c2.21 0 4 1.79 4 4v56z" fill="#E84621"/><path d="M25.514 46.584c1.36 0 2.474 1.115 2.474 2.473 0 1.36-1.114 2.44-2.474 2.44s-2.44-1.08-2.44-2.44c-.002-1.358 1.08-2.473 2.44-2.473zm12.305 0c-1.36 0-2.442 1.115-2.442 2.473 0 1.36 1.082 2.44 2.44 2.44s2.476-1.08 2.476-2.44c0-1.358-1.115-2.473-2.475-2.473zM24.78 55.433c-.557-.42-.627-1.185-.21-1.708.386-.557 1.187-.627 1.71-.21 1.394 1.08 3.626 1.674 5.403 1.674 1.743 0 3.976-.594 5.404-1.674.52-.418 1.29-.348 1.707.21.42.522.314 1.288-.208 1.707-1.813 1.43-4.64 2.23-6.903 2.23-2.3 0-5.09-.802-6.903-2.23zm18.06-13.447c-2.72-1.568-6.137-2.543-9.902-2.753l1.987-5.887 5.37 1.568c0 2.37 1.917 4.285 4.287 4.285s4.324-1.917 4.324-4.286c0-2.404-1.954-4.32-4.324-4.32-1.5 0-2.823.802-3.59 1.95l-6.52-1.88c-.628-.208-1.29.14-1.5.767l-2.614 7.804c-3.73.21-7.146 1.185-9.865 2.75-.873-.938-2.16-1.53-3.59-1.53-2.72 0-4.916 2.193-4.916 4.91 0 1.848 1.045 3.45 2.544 4.285-.068.42-.103.836-.103 1.255 0 6.443 7.74 11.67 17.257 11.67 9.482 0 17.223-5.227 17.223-11.67 0-.42-.035-.836-.104-1.256 1.534-.836 2.545-2.44 2.545-4.285 0-2.718-2.197-4.91-4.916-4.91-1.43-.002-2.687.59-3.593 1.53zm-11.156-.314c8.122 0 14.747 4.11 14.747 9.232 0 5.085-6.624 9.195-14.746 9.195-8.157 0-14.78-4.11-14.78-9.196-.002-5.12 6.622-9.232 14.78-9.232zm16.35 5.54c-.697-1.395-1.744-2.684-3.103-3.798.418-.314.94-.523 1.5-.523 1.36 0 2.44 1.116 2.44 2.475 0 .73-.314 1.393-.836 1.846zM18.4 43.413c-1.358 1.115-2.405 2.403-3.103 3.797-.522-.452-.836-1.114-.836-1.846 0-1.358 1.117-2.474 2.44-2.474.595 0 1.118.21 1.5.524zm26.182-6.654c-1.01 0-1.847-.836-1.847-1.846 0-1.046.836-1.847 1.847-1.847 1.012 0 1.85.8 1.85 1.847 0 1.01-.838 1.846-1.85 1.846z" fill="#fff"/><path d="M39.716 6.843S62.786-7.53 74.982 6.04C87.85 20.363 72.79 37.005 72.79 37.005l-4.603 1.928-11.92-15.84-14.04-10.167-2.51-6.082z" fill="#B22D43"/><circle cx="71.17" cy="43.145" r="6.35" fill="#D6DAE5"/><path d="M68.187 37.54c-5.112-5.112-.695-10.943-8.716-22.233-8.022-11.29-19.754-8.464-19.754-8.464v7.91c12.033 0 17.062 12.98 17.76 16.49.7 3.51 8.39 8.412 8.39 8.412l2.32-2.116z" fill="#D6DAE5"/><path d="M68.3 37.54s3.235-8.764 3.726-14.082c0 0-4.3 3.182-3.726 14.08z" fill="#93213F"/></g></svg>