<svg xmlns="http://www.w3.org/2000/svg" width="79.683" height="78.581" viewBox="0 0 79.683 78.581"><g><path d="M64 74.58c0 2.21-1.79 4-4 4H4c-2.21 0-4-1.79-4-4v-56c0-2.208 1.79-4 4-4h56c2.21 0 4 1.792 4 4v56z" fill="#EF4E23"/><path d="M44.5 46.977v6c0 1.105-.895 2-2 2s-2-.895-2-2v-6l-3 1-3-1v6c0 4.418 3.582 8 8 8s8-3.582 8-8v-6h-6zM34.5 44.977l3-1 3 1v-4c0-4.418-3.582-8-8-8s-8 3.582-8 8v12c0 1.105-.895 2-2 2s-2-.895-2-2v-6h-6v6c0 4.418 3.582 8 8 8s8-3.582 8-8v-12c0-1.105.895-2 2-2s2 .895 2 2v4z" fill="#fff"/><path d="M39.216 7.052S62.286-7.32 74.482 6.25C87.35 20.57 72.29 37.213 72.29 37.213l-4.603 1.928-11.92-15.84-14.04-10.165-2.51-6.083z" fill="#B22D43"/><circle cx="70.67" cy="43.354" r="6.35" fill="#D6DAE5"/><path d="M67.687 37.748c-5.112-5.11-.695-10.94-8.716-22.232-8.022-11.29-19.754-8.464-19.754-8.464v7.91c12.033 0 17.062 12.98 17.76 16.49.7 3.51 8.39 8.41 8.39 8.41l2.32-2.114z" fill="#D6DAE5"/><path d="M67.8 37.748s3.235-8.764 3.726-14.08c0 0-4.3 3.182-3.726 14.08z" fill="#93213F"/></g></svg>