<svg xmlns="http://www.w3.org/2000/svg" width="79.974" height="78.581" viewBox="0 0 79.974 78.581"><g><path d="M64 74.58c0 2.21-1.79 4-4 4H4c-2.21 0-4-1.79-4-4v-56c0-2.208 1.79-4 4-4h56c2.21 0 4 1.792 4 4v56z" fill="#010101"/><path d="M19.045 62.35h10.873l6.914-20.81H46.87l6.142-9.937h-39.17l-2.853 5.202 2.853 4.734h12.115l-6.913 20.81z" fill="#fff"/><path d="M39.507 7.052S62.577-7.32 74.773 6.25C87.64 20.57 72.58 37.213 72.58 37.213l-4.603 1.928-11.92-15.84-14.04-10.165-2.51-6.083z" fill="#B22D43"/><circle cx="70.961" cy="43.354" r="6.35" fill="#D6DAE5"/><path d="M67.978 37.748c-5.112-5.11-.695-10.94-8.716-22.232-8.023-11.29-19.755-8.464-19.755-8.464v7.91c12.033 0 17.062 12.98 17.76 16.49.7 3.51 8.39 8.41 8.39 8.41l2.32-2.114z" fill="#D6DAE5"/><path d="M68.09 37.748s3.236-8.764 3.727-14.08c0 0-4.3 3.182-3.726 14.08z" fill="#93213F"/></g></svg>