<svg xmlns="http://www.w3.org/2000/svg" width="80.349" height="78.558" viewBox="0 0 80.349 78.558"><g><path d="M64 74.558c0 2.207-1.793 4-4 4H4c-2.207 0-4-1.793-4-4v-56c0-2.207 1.793-4 4-4h56c2.207 0 4 1.793 4 4v56z" fill="#44546A"/><path d="M38.87 61.65c-1.28 0-2.413-.296-3.41-.894-.753-.444-1.46-1.386-1.46-2.198v-16h10v-8H34v-10h-8v4c0 4.418-3.582 8-8 8v6h6v16c0 2.053-.063 3.656.3 4.568.433 1.082.97 2.043 2.083 3.006 1.115.955 1.996 1.53 3.574 2.045 1.725.57 3.55.78 5.44.78 1.806 0 3.485-.18 5.04-.544s3.695-1.088 5.563-2.256v-7c-2.215 1.72-4.86 2.494-7.13 2.494z" fill="#fff"/><path d="M39.882 6.633S62.952-7.74 75.148 5.83c12.867 14.32-2.192 30.964-2.192 30.964l-4.603 1.928-11.92-15.84-14.04-10.166-2.51-6.083z" fill="#B22D43"/><circle cx="71.336" cy="42.935" r="6.35" fill="#D6DAE5"/><path d="M68.353 37.33c-5.112-5.112-.695-10.942-8.716-22.233-8.023-11.29-19.755-8.464-19.755-8.464v7.91c12.033 0 17.062 12.98 17.76 16.49.7 3.51 8.39 8.41 8.39 8.41l2.32-2.114z" fill="#D6DAE5"/><path d="M68.466 37.33s3.235-8.765 3.726-14.08c0 0-4.3 3.18-3.726 14.08z" fill="#93213F"/></g></svg>