<svg xmlns="http://www.w3.org/2000/svg" width="80.641" height="78.558" viewBox="0 0 80.641 78.558"><g><path d="M64 74.558c0 2.207-1.793 4-4 4H4c-2.207 0-4-1.793-4-4v-56c0-2.207 1.793-4 4-4h56c2.207 0 4 1.793 4 4v56z" fill="#55ACEE"/><path d="M51.975 34.345c-1.473.645-3.05 1.074-4.715 1.27 1.7-.995 3-2.577 3.61-4.462-1.58.922-3.34 1.594-5.208 1.957-1.496-1.57-3.627-2.553-5.986-2.553-4.53 0-8.2 3.613-8.2 8.076 0 .627.07 1.25.208 1.844-6.813-.344-12.857-3.56-16.904-8.44-.703 1.192-1.11 2.58-1.11 4.063 0 2.797 1.452 5.27 3.647 6.72-1.342-.044-2.61-.407-3.713-1.013-.002.033-.002.068-.002.104 0 3.91 2.828 7.18 6.58 7.92-.686.18-1.41.286-2.162.286-.527 0-1.04-.05-1.54-.145 1.04 3.208 4.067 5.542 7.657 5.61-2.797 2.164-6.336 3.457-10.18 3.457-.66 0-1.314-.037-1.957-.113 3.63 2.29 7.94 3.627 12.574 3.627 15.082 0 23.332-12.308 23.332-22.98 0-.347-.01-.7-.023-1.042 1.6-1.142 2.992-2.564 4.092-4.183z" fill="#fff"/><path d="M40.174 6.633S63.244-7.74 75.44 5.83c12.867 14.32-2.192 30.964-2.192 30.964l-4.603 1.928-11.92-15.84-14.04-10.166-2.51-6.083z" fill="#B22D43"/><circle cx="71.628" cy="42.935" r="6.35" fill="#D6DAE5"/><path d="M68.645 37.33c-5.112-5.112-.695-10.942-8.716-22.233-8.024-11.29-19.756-8.464-19.756-8.464v7.91c12.033 0 17.062 12.98 17.76 16.49.7 3.51 8.39 8.41 8.39 8.41l2.32-2.114z" fill="#D6DAE5"/><path d="M68.758 37.33s3.235-8.765 3.726-14.08c0 0-4.3 3.18-3.726 14.08z" fill="#93213F"/></g></svg>