<svg xmlns="http://www.w3.org/2000/svg" width="80.516" height="78.581" viewBox="0 0 80.516 78.581"><g><path d="M64 74.58c0 2.21-1.79 4-4 4H4c-2.21 0-4-1.79-4-4v-56c0-2.208 1.79-4 4-4h56c2.21 0 4 1.792 4 4v56z" fill="#00B286"/><path d="M36.304 37.5c0-2.393 4.81-3.63 4.81.416-.015 2.22-.32 4.27-.81 6.146h5c.38-2.266.365-4.506.365-7.143 0-7.43-14.003-8.667-14.003.745 0 6.61 3.182 10.088 6.508 11.92-2.77 5.322-6.508 8.225-6.508 8.225-10.457-8.338-9.445-22.457-9.445-22.457h-4.557c.086 19.074 10.377 25.76 11.643 26.752s1.52.908 3.037.824c1.516-.083 4.975-3.47 9.19-9.905.407-.625.772-1.22 1.105-1.8 1.766.388 3.03.396 3.03.396v-4.046c-8.86-.826-9.366-8.256-9.366-10.074z" fill="#fff"/><path d="M40.05 7.052S63.12-7.32 75.314 6.25c12.867 14.32-2.192 30.963-2.192 30.963L68.52 39.14 56.6 23.3 42.56 13.136l-2.51-6.083z" fill="#B22D43"/><circle cx="71.503" cy="43.354" r="6.35" fill="#D6DAE5"/><path d="M68.52 37.748c-5.112-5.11-.695-10.94-8.716-22.232C51.78 4.226 40.05 7.052 40.05 7.052v7.91c12.032 0 17.06 12.98 17.76 16.49.7 3.51 8.39 8.41 8.39 8.41l2.32-2.114z" fill="#D6DAE5"/><path d="M68.633 37.748s3.235-8.764 3.726-14.08c-.002 0-4.302 3.182-3.727 14.08z" fill="#93213F"/></g></svg>