<svg xmlns="http://www.w3.org/2000/svg" width="80.433" height="78.581" viewBox="0 0 80.433 78.581"><g><path d="M64 74.58c0 2.21-1.79 4-4 4H4c-2.21 0-4-1.79-4-4v-56c0-2.208 1.79-4 4-4h56c2.21 0 4 1.792 4 4v56z" fill="#4C75A3"/><path d="M31.823 56.027h1.913s.577-.064.873-.38c.27-.294.262-.84.262-.84s-.037-2.567 1.154-2.946c1.174-.37 2.682 2.48 4.28 3.58 1.208.83 2.126.647 2.126.647l4.273-.06s2.236-.138 1.176-1.896c-.086-.144-.617-1.3-3.176-3.675-2.68-2.488-2.32-2.086.906-6.39 1.966-2.618 2.752-4.218 2.507-4.903-.234-.652-1.68-.48-1.68-.48l-4.814.03s-.355-.048-.62.11c-.258.154-.425.516-.425.516s-.762 2.027-1.777 3.752c-2.14 3.637-3 3.83-3.35 3.604-.813-.525-.61-2.115-.61-3.242 0-3.527.535-4.998-1.04-5.377-.524-.127-.91-.21-2.248-.225-1.716-.018-3.17.006-3.99.408-.55.27-.97.865-.713.9.317.043 1.037.195 1.42.715.49.67.475 2.178.475 2.178s.284 4.15-.663 4.665c-.646.354-1.537-.367-3.448-3.668-.98-1.69-1.717-3.56-1.717-3.56s-.143-.35-.396-.536c-.307-.226-.738-.298-.738-.298l-4.573.03s-.687.02-.938.317c-.226.265-.02.813-.02.813s3.58 8.375 7.634 12.596c3.718 3.873 7.937 3.617 7.937 3.617z" fill="#fff"/><path d="M39.966 7.052S63.036-7.32 75.232 6.25C88.1 20.57 73.04 37.213 73.04 37.213l-4.603 1.928-11.92-15.84-14.04-10.165-2.51-6.083z" fill="#B22D43"/><circle cx="71.42" cy="43.354" r="6.35" fill="#D6DAE5"/><path d="M68.437 37.748c-5.112-5.11-.695-10.94-8.716-22.232C51.7 4.226 39.967 7.052 39.967 7.052v7.91c12.033 0 17.062 12.98 17.76 16.49.7 3.51 8.39 8.41 8.39 8.41l2.32-2.114z" fill="#D6DAE5"/><path d="M68.55 37.748s3.235-8.764 3.726-14.08c0 0-4.3 3.182-3.726 14.08z" fill="#93213F"/></g></svg>