<svg xmlns="http://www.w3.org/2000/svg" width="80.183" height="78.581" viewBox="0 0 80.183 78.581"><g><path d="M64 74.58c0 2.21-1.79 4-4 4H4c-2.21 0-4-1.79-4-4v-56c0-2.208 1.79-4 4-4h56c2.21 0 4 1.792 4 4v56z" fill="#CF2200"/><path d="M41.82 46.234H21.514c-3.23 0-5.846 2.62-5.846 5.848v4.697c0 3.228 2.617 5.847 5.846 5.847h20.31c3.228 0 5.845-2.62 5.845-5.848V52.08c0-3.227-2.618-5.848-5.847-5.848zm-16.04 3.66h-1.89v9.382h-1.824v-9.383H20.18v-1.596h5.6v1.596zm5.332 9.38h-1.617v-.888c-.3.328-.61.58-.935.748-.324.176-.636.258-.94.258-.376 0-.654-.12-.846-.36-.188-.243-.284-.603-.284-1.087v-6.77h1.618v6.213c0 .19.036.33.1.414.07.088.182.13.334.13.117 0 .268-.058.45-.17.184-.116.35-.26.503-.437v-6.152h1.617v8.102zm5.875-1.672c0 .572-.127 1.014-.38 1.318-.254.307-.623.46-1.1.46-.32 0-.603-.06-.85-.18-.246-.116-.48-.296-.69-.548v.62h-1.64V48.298h1.64v3.535c.218-.244.45-.436.69-.563.25-.13.497-.192.75-.192.51 0 .9.17 1.17.516.272.346.407.852.407 1.514v4.494h.003zM42.6 55.42h-3.096v1.525c0 .426.052.723.158.887.108.166.29.248.55.248.268 0 .454-.07.562-.21.104-.142.16-.448.16-.925v-.367H42.6v.414c0 .83-.202 1.457-.61 1.88-.403.417-1.01.624-1.816.624-.726 0-1.298-.22-1.714-.666-.414-.443-.626-1.057-.626-1.836v-3.64c0-.7.23-1.274.69-1.718.457-.44 1.046-.66 1.77-.66.743 0 1.313.203 1.71.613s.597.997.597 1.765v2.065zM40.227 52.39c-.258 0-.442.073-.555.226-.114.143-.168.385-.168.725v.82h1.43v-.82c0-.34-.057-.583-.17-.724-.11-.15-.29-.225-.537-.225zM34.644 52.363c-.114 0-.23.025-.343.078-.112.054-.223.14-.333.25v5.044c.13.13.26.232.384.29s.255.087.393.087c.2 0 .344-.058.438-.173.093-.115.14-.3.14-.56v-4.18c0-.276-.055-.483-.17-.624-.12-.14-.29-.21-.506-.21zM24.172 43.422h2.05v-5.018l2.39-7.078h-2.086l-1.27 4.836h-.13l-1.332-4.836H21.73l2.442 7.305zM31.39 43.646c.83 0 1.48-.217 1.953-.652.47-.436.706-1.03.706-1.795v-4.61c0-.678-.242-1.238-.72-1.67-.484-.43-1.103-.646-1.857-.646-.828 0-1.487.205-1.98.615-.488.407-.734.956-.734 1.65v4.624c0 .76.238 1.36.717 1.81s1.117.672 1.914.672zm-.754-7.175c0-.192.07-.35.205-.472.143-.12.322-.178.546-.178.24 0 .436.06.584.178.148.123.223.28.223.473v4.864c0 .238-.073.426-.22.563-.146.137-.34.205-.587.205-.24 0-.427-.066-.558-.203-.128-.134-.193-.323-.193-.567V36.47zM36.8 43.553c.343 0 .694-.098 1.057-.287.366-.19.717-.47 1.05-.832v.988h1.822V34.5h-1.823v6.773c-.17.193-.358.352-.56.48-.207.124-.377.187-.51.187-.172 0-.297-.047-.37-.145-.076-.092-.118-.246-.118-.455V34.5h-1.82v7.457c0 .53.106.93.317 1.193.215.268.53.403.953.403z" fill="#fff"/><path d="M39.716 7.052S62.786-7.32 74.982 6.25C87.85 20.57 72.79 37.213 72.79 37.213l-4.603 1.928-11.92-15.84-14.04-10.165-2.51-6.083z" fill="#B22D43"/><circle cx="71.17" cy="43.354" r="6.35" fill="#D6DAE5"/><path d="M68.187 37.748c-5.112-5.11-.695-10.94-8.716-22.232-8.022-11.29-19.754-8.464-19.754-8.464v7.91c12.033 0 17.062 12.98 17.76 16.49.7 3.51 8.39 8.41 8.39 8.41l2.32-2.114z" fill="#D6DAE5"/><path d="M68.3 37.748s3.235-8.764 3.726-14.08c0 0-4.3 3.182-3.726 14.08z" fill="#93213F"/></g></svg>